<?xml version="1.0" encoding="utf-8"?>
<!-- Generator: Adobe Illustrator 16.0.0, SVG Export Plug-In . SVG Version: 6.00 Build 0)  -->
<!DOCTYPE svg PUBLIC "-//W3C//DTD SVG 1.1//EN" "http://www.w3.org/Graphics/SVG/1.1/DTD/svg11.dtd">
<svg version="1.1" id="Layer_1" xmlns="http://www.w3.org/2000/svg" xmlns:xlink="http://www.w3.org/1999/xlink" x="0px" y="0px"
	 width="2000px" height="2000px" viewBox="0 0 2000 2000" enable-background="new 0 0 2000 2000" xml:space="preserve">
<g>
	<path fill-rule="evenodd" clip-rule="evenodd" fill="#D6BA64" d="M766.673,304.791c8.677-6.197,22.087-9.805,16.251-26.022
		c-1.45-4.039,4.083-6.173,7.33-8.033c11.906-6.831,23.835-13.629,35.999-19.967c8.844-4.6,19.519-8.971,22.453-18.151
		c7.633-23.903,28.973-25.749,47.352-32.331c10.812-3.863,21.618-7.062,33.972-6.485c13.775,0.649,26.604-4.532,33.563-19.093
		c17.062-35.745,50.894-44.559,85.328-53.471c18.135-4.692,34.476-6.396,51.985,2.174c21.417,10.484,45.579,10.049,68.608,12.115
		c42.22,3.789,65.367,32.224,87.399,62.753c5.361,7.438,10.314,13.883,18.359,19.318c8.323,5.64,5.343,20.363,14.534,27.463
		c12.334,9.531,24.649,19.079,37.023,28.537c5.634,4.307,7.295,10.684,8.701,16.969c5.724,25.528,10.285,51.336,11.504,77.456
		c0.86,18.971,3.537,36.575,13,53.769c21.065,38.206,28.097,81.339,40.14,122.694c13.662,46.956,41.742,88.966,47.387,138.632
		c3.311,29.192,3.533,59.13,10.518,87.404c8.615,34.851,14.845,69.727,34.328,102.854c24.317,41.398,33.47,89.249,7.676,137.371
		c-9.628,17.971-13.642,39.213-11.601,60.844c2.558,27.23-0.411,53.707-16.233,77.232c-2.695,4.016-4.443,8.333-3.164,12.942
		c6.926,24.863,7.882,50.305,7.423,75.883c-0.167,8.79,3.213,12.004,12.627,12.949c28.596,2.853,38.422,14.046,38.998,43.489
		c0.223,12.501,2.832,21.957,16.66,24.71c1.876,0.36,4.132,1.084,5.283,2.441c17.063,19.736,38.295,37.532,49.127,60.297
		c5.664,11.847,10.233,17.696,24.59,20.627c-9.688,5.995-18.008,6.924-23.213,3.565c-16.252-10.479-16.058-0.88-14.493,10.663
		c1.903,14.074-2.91,19.054-17.816,19.035c-394.294-0.351-788.612-0.293-1182.922-0.332c-1.934,0-3.867-0.439-6.163-0.703
		c-2.29-12.813,21.54-11.699,14.229-27.756c-4.229-9.308-2.387-22.452-21.124-19.541c25.07-31.84,48.064-61.069,71.088-90.291
		c1.211-1.534,2.501-4.141,3.892-4.22c25.158-1.699,37.673-24.785,58.026-33.906c11.271-5.041,16.213-10.031,12.35-21.644
		c-11.412-34.348,12.569-65.208,47.499-72.378c17.14-3.516,20.259-16.603,28.434-26.722c3.707-4.609,0.292-7.323-3.409-8.935
		c-28.884-12.561-48.895-32.708-54.227-64.711c-5.792-34.739-0.733-70.216,16.222-98.963
		c24.924-42.234,33.376-87.364,40.228-133.964c4.702-31.989,14.219-61.981,31.721-89.864c16.715-26.627,15.84-58.949,22.975-88.644
		c20.387-84.996,46.712-167.458,95.426-241.135c19.113-28.899,22.115-63.374,33.391-94.982
		C779.091,307.813,767.787,312.496,766.673,304.791z M776.284,462.179c1.137,1.181,2.28,2.358,3.418,3.54
		c-12.828,13.85-12.149,33.875-22.374,48.949c-19.494,28.723-30.149,61.001-35.071,94.875
		c-6.924,47.713-5.088,96.383-15.928,143.779c-8.712,38.094-5.831,76.573-0.641,114.931c4.205,31.168,22.742,56.869,32.527,85.855
		c17.481,51.757,40.09,100.743,73.627,144.195c41.399,53.607,89.68,97.331,160.373,106.58
		c63.745,8.338,122.186-8.371,175.949-41.684c84.392-52.279,145.791-125.576,193.987-211.685
		c20.629-36.819,29.594-74.707,29.35-116.141c-0.177-27.668-6.29-54.521-8.731-81.851c-4.142-46.204-3.105-92.814-10.206-138.75
		c-7.521-48.666-29.788-93.278-39.611-141.381c-10.645-52.163-39.212-93.103-78.923-127.685
		c-10.985-9.571-20.411-19.918-36.194-20.924c4.006-5.03,10.939,0.796,14.523-5.89c-8.702-10.327-20.704-14.375-39.916-17.876
		c20.307-3.223,11.926-17.863,20.804-25.363c-10.616,0.605-17.607,5.733-24.385,10.362c-17.835,12.203-37.025,17.521-58.774,17.447
		c-13.243-0.049-22.463-9.292-35.247-10.362c-14.298-1.201-30.324-0.771-42.475-5.596c-13.927-5.552-22.148-3.394-31.154,4.957
		c-5.673,5.26-12.364,8.277-19.327,8.522c-17.697,0.624-32.888,8.799-49.223,13.628c-26.866,7.925-44.397,30.729-69.683,40.086
		c-14.854,5.499-31.13,7.784-32.125,28.498c-0.088,1.738-2.52,6.197-5.162,3.155c-8.545-9.874-7.5,0.043-8.282,4.013
		c-0.776,3.897-0.918,10.191-4.063,10.28c-15.616,0.443-17.276,18.755-30.383,22.281c-13.497,3.633-21.686,15.401-32.258,22.746
		c-13.307,9.239,2.364,18.35-4.926,25.001c-1.632,0.953-3.267,1.915-4.908,2.862c1.734,0.424,3.462,0.859,5.186,1.289
		c10.28,3.74,11.955-5.064,15.734-10.787c2.637-0.991,5.273-1.978,7.91-2.964C771.894,461.442,774.087,461.813,776.284,462.179z"/>
	<path fill-rule="evenodd" clip-rule="evenodd" fill="#D9BE6E" d="M377.428,1595.7c12.345,0,24.699,0,37.381,0
		c-0.396,1.437-0.386,2.558-0.928,3.233c-14.088,17.842-8.741,88.959,7.804,103.102c21.832,18.663,57.821,7.422,64.511-20.676
		c2.553-10.724,3.71-21.993,3.809-33.011c0.376-44.524,0.111-89.05,0.014-133.554c-0.024-8.32,1.543-17.004-6.045-23.672
		c16.012-5.529,19.186,1.072,18.951,14.766c-0.664,39.271-0.039,78.57-0.292,117.85c-0.068,10.598,1.118,20.979,4.219,30.979
		c3.599,11.593,11.753,18.614,24.118,20.1c12.794,1.553,24.533-1.476,29.914-13.724c13.952-31.779,8.873-65.11,5.572-98.081
		c-0.186-1.887-3.55-3.439-6.689-6.302c11.592,0,21.73,0,34.158,0c-6.036,5.169-9.02,10.412-8.858,17.531
		c0.454,20.949-0.483,41.928,0.337,62.847c1.045,26.711,12.95,38.059,39.314,38.205c46.493,0.244,92.971,0.255,139.458-0.028
		c23.747-0.146,37.37-17.004,37.385-45.101c0.02-24.563-10.073-33.938-37.063-34.163c-28.147-0.223-56.338,0.646-84.43-0.722
		c-21.008-1.017-41.59-5.432-56.792-29.056c48.099,21.496,95.471,11.418,141.88,13.976c42.117,2.335,64.95,45.131,43.592,81.423
		c-7.379,12.55-18.088,20-33.279,21.094c-51.004,3.623-102.063,1.632-153.086,1.23c-15.651-0.126-28.708-9.336-42.669-16.524
		c-10.147-5.204-23.453,15.001-39.891,15.53c-13.805,0.448-26.74-11.341-36.985-7.258c-9.258,3.672-9.156,21.976-19.356,30.051
		c-19.201,15.178-40.696,17.032-62.924,8.957c-21.965-8.001-29.563-26.859-31.36-48.032c-1.387-16.259-0.449-32.718-0.635-49.074
		C388.469,1608.621,390.378,1598.513,377.428,1595.7z"/>
	<path fill-rule="evenodd" clip-rule="evenodd" fill="#D9BE6E" d="M1355.347,1556.409c11.739,0,22.774,0,36.926,0
		c-8.105,6.221-10.108,13.047-9.854,21.175c0.518,16.993,0,34.024,0.128,51.028c0.243,36.497,10.606,46.79,46.751,46.761
		c5.742-0.01,11.486-0.01,20.313-0.01c-25.401-24.902-36.185-51.391-21.593-82.906c14.669-31.71,48.742-44.74,84.907-33.605
		c29.477,9.101,46.146,35.49,42.18,66.753c-4.217,33.166-31.162,56.265-66.429,57.015c-22.872,0.499-45.773,2.14-68.589,1.309
		c-15.607-0.575-28.851-8.613-42.912-16.036c-10.394-5.468-23.363,14.581-39.662,14.923c-30.638,0.636-51.185-15.791-52.407-48.107
		c-1.727-46.399-0.907-92.867-2.04-139.297c-0.176-6.846,3.038-5.84,6.427-5.949c4.364-0.126,9.786-1.035,10.361,5.693
		c0.383,4.543,0.255,9.152,0.255,13.725c-0.011,39.258,0.077,78.521-0.157,117.779c-0.067,10.656,1.261,20.91,5.304,30.705
		c4.756,11.438,13.713,17.023,25.929,17.784c12.366,0.772,22.512-3.896,27.474-14.999c13.644-30.579,7.578-62.944,6.602-94.725
		C1365.162,1562.532,1359.255,1559.81,1355.347,1556.409z M1536.874,1621.513c-0.012-35.199-20.003-59.761-48.677-59.888
		c-30.822-0.146-47.68,19.103-47.464,54.242c0.204,36.351,19.699,59.076,50.757,59.203
		C1521.091,1675.196,1536.911,1656.533,1536.874,1621.513z"/>
	<path fill-rule="evenodd" clip-rule="evenodd" fill="#D9BE6E" d="M904.296,1655.029c-27.673,26.965-51.776,34.037-73.277,20.188
		c20.334,0.752,40.926,2.567,54.711-16.328c8.58-11.759,10.538-25.014,10.285-39.008c-0.65-36.273-14.352-49.396-61.958-59.231
		c27.956-16.33,78.541,8.379,80.563,54.037c0.434,9.785-0.376,19.717,0.84,29.405c2.48,19.639,14.307,30.949,31.734,31.047
		c19.133,0.088,27.542-11.652,31.678-28.722c3.291-13.634,2.559-27.309,2.573-41.01c0.049-35.343,0.049-70.688-0.376-106.033
		c-0.063-5.194-2.887-10.117,5.854-10.157c7.237-0.029,10.549,1.992,10.479,9.981c-0.381,44.515,0.703,89.049-0.898,133.507
		c-0.762,21.72-9.444,40.959-33.508,48.011C940.006,1687.465,924.048,1680.695,904.296,1655.029z"/>
	<path fill-rule="evenodd" clip-rule="evenodd" fill="#D9BE6E" d="M1120.214,1595.682c12.325,0,24.669,0,37.209,0
		c0.344,4.707-5.371,3.797-5.596,6.357c-2.686,31.086-8.321,62.824,6.044,92.252c7.933,16.25,24.729,18.086,41.187,15.294
		c18.713-3.205,27.98-16.134,30.43-33.811c3.136-22.677,3.918-45.561,3.313-68.48c-0.226-8.507,0.206-17.014-0.117-25.511
		c-0.382-10.275,0.293-21.301-12.55-26.389c11.339,0,22.677,0,39.611,0c-15.527,6.29-14.873,15.948-14.853,25.674
		c0.049,26.819,0.75,53.667-0.559,80.445c-2.031,41.479-34.865,65.563-74.037,55.601c-23.52-5.967-37.551-24.533-38.762-52.581
		c-0.676-15.674-0.56-31.399-0.177-47.083C1131.602,1607.965,1130.359,1599.871,1120.214,1595.682z"/>
	<path fill-rule="evenodd" clip-rule="evenodd" fill="#D9BE6E" d="M1061.626,1683.782c-10.851,0-21.711,0-35.247,0
		c10.06-9.366,10.284-20.149,10.187-31.536c-0.438-47.092-0.332-94.205-0.079-141.318c0.049-9.044-0.273-17.51-9.395-24.749
		c12.932,0,23.293,0,36.136,0c-9.143,5.745-11.144,12.513-11.095,20.95c0.302,51.694,0.156,103.375,0.175,155.069
		C1052.308,1670.501,1051.216,1679.289,1061.626,1683.782z"/>
	<path fill-rule="evenodd" clip-rule="evenodd" fill="#DCC378" d="M1400.429,1857.524c-13.02,3.827-16.329-0.733-14.18-16.291
		c3.593-26.212-18.566-41.487-41.517-27.939c-12.669,7.49-4.992,23.457-3.957,35.772c0.167,1.952,3.057,3.682,5.157,6.037
		c-22.452,4.854-21.612,4.872-21.213-15.795c0.448-22.588,3.036-45.402-2.764-68.986c10.439-0.861,22.728-7.081,17.405,13.671
		c-3.938,15.304,2.664,20.948,19.55,21.466c32.404,0.958,32.229-5.408,23.302-35.283c7.072-1.339,14.017-1.838,19.671-0.011
		C1396.102,1799.338,1398.72,1827.669,1400.429,1857.524z"/>
	<path fill-rule="evenodd" clip-rule="evenodd" fill="#DCC378" d="M1040.677,1770.146c57.659-3.915,84.391,9.385,84.507,42.014
		c0.146,35.58-26.232,49.448-85.063,44.75C1046.36,1828.421,1046.187,1799.941,1040.677,1770.146z M1111.717,1817.21
		c0.146-20.529-12.803-36.654-32.492-40.414c-19.133-3.661-22.776-0.683-22.874,18.84c-0.057,13.671-0.049,27.335,0.03,40.988
		c0.039,5.967,0.401,11.368,7.678,13.995C1087.429,1859,1111.531,1842.31,1111.717,1817.21z"/>
	<path fill-rule="evenodd" clip-rule="evenodd" fill="#DCC378" d="M807.912,1834.895c3.335-22.979,8.233-43.898-3.56-62.845
		c17.408-4.211,16.695-4.218,16.266,11.837c-0.65,23.916-0.172,47.874-0.172,77.143c-27.12-22.402-46.746-45.256-70.028-69.789
		c0.21,24.162-3.921,44.858,4.663,65.191c-5.654,2.411-11.319,1.845-17.408,0.39c9.209-28.108,0.439-57.308,5.283-84.751
		C764.652,1793.048,786.279,1813.986,807.912,1834.895z"/>
	<path fill-rule="evenodd" clip-rule="evenodd" fill="#D9BE6E" d="M561.416,1857.192c-7.105,0-13.468,0-19.772,0
		c8.58-28.655,0.478-57.875,5.103-84.841c21.955,20.422,43.997,40.942,70.142,65.27c-3.486-25.228,6.021-46.762-9.219-67.173
		c11.789-1.992,19.679-4.57,17.106,14.376c-3.13,23.048-0.747,46.811-0.747,74.176c-28-18.81-44.828-44.663-70.743-68.559
		C555.468,1815.05,548.007,1836.176,561.416,1857.192z"/>
	<path fill-rule="evenodd" clip-rule="evenodd" fill="#DCC378" d="M1302.619,1770.225c-47.865,28.967-48.636,34.963-13.556,68.733
		c6.396,6.163,13.096,11.817,24.836,15.695c-22.697,4.199-22.697,4.199-62.377-35.617c-4.512,18.36-4.2,22.979,2.734,38.077
		c-2.764,0.285-5.273,0.725-7.805,0.803c-4.501,0.105-9.013,0.028-14.054,0.028c6.095-29.7,7.169-58.168,0.812-86.744
		c13.165-2.208,13.165-2.208,16.857,30.373C1270.458,1798.311,1272.568,1766.377,1302.619,1770.225z"/>
	<path fill-rule="evenodd" clip-rule="evenodd" fill="#D9BE6E" d="M1607.933,1529.192c-14.151,16.983-12.696,139.707,1.915,153.633
		c-12.13,3.203-23.596-3.896-31.975,1.22c9.268-51.751,5.682-102.946,2.197-154.853
		C1585.753,1529.192,1595.998,1529.192,1607.933,1529.192z"/>
	<path fill-rule="evenodd" clip-rule="evenodd" fill="#DCC378" d="M1132.479,1857.524c20.6-27.569,24.643-60.257,41.42-89.46
		c18.772,28.596,20.246,64.165,44.907,88.348c-14.143,4.295-23.851,2.235-26.321-14.367c-2.128-14.258-12.062-15.938-24.533-15.578
		c-13.242,0.401-16.348,11.282-15.646,18.557C1154.004,1862.563,1143.643,1857.622,1132.479,1857.524z M1172.297,1791.642
		c-4.921,9.277-11.759,16.876-7.08,25.891c1.992,3.886,12.346,3.73,14.131,0.281
		C1184.066,1808.752,1176.409,1801.318,1172.297,1791.642z"/>
	<path fill-rule="evenodd" clip-rule="evenodd" fill="#DCC378" d="M1556.786,1855.962c-15.431,4.287-28.352,1.437-41.018,1.699
		c-5.928,0.107-4.348-3.78-3.788-8.077c3.064-24.025,3.642-48.217-0.197-72.143c-1.063-6.74,0.079-8.195,5.891-8.203
		c11.132-0.021,22.257-0.049,33.389-0.049c5.188,0,6.828,2.588,5.645,7.527c-1.483,6.223-3.994,3.468-8.135,2.189
		c-7.841-2.394-18.926-8.79-20.616,6.786c-1.229,11.447-3.456,25.111,16.311,22.034c4.033-0.625,10.392-2.013,10.382,5.039
		c0,8.731-5.761,3.711-9.63,3.184c-8.604-1.181-18.088-3.281-17.267,10.636c0.615,10.82-4.658,25.608,15.412,24.317
		C1546.922,1850.668,1551.034,1850.025,1556.786,1855.962z"/>
	<path fill-rule="evenodd" clip-rule="evenodd" fill="#DCC378" d="M681.18,1767.859c18.102,28.928,21.124,62.534,43.577,88.396
		c-11.938,3.115-20.67,4.171-23.566-11.68c-2.334-12.814-9.883-19.192-24.811-18.322c-15.554,0.878-16.418,12.051-17.072,21.358
		c-1.207,17.083-12.355,8.047-20.563,10.763C660.147,1831.508,664.069,1798.37,681.18,1767.859z M690.101,1817.454
		c-3.076-8.331-6.083-16.478-10.02-27.122c-6.26,10.273-8.834,18.518-10.21,27.453
		C676.541,1820.091,682.815,1820.109,690.101,1817.454z"/>
	<path fill-rule="evenodd" clip-rule="evenodd" fill="#DCC378" d="M866.769,1856.763c22.502-25.705,23.688-60.503,42.38-88.307
		c17.009,29.007,21.736,62.29,42.445,87.809c-15.016,6.162-21.651-1.435-24.245-14.795c-2.549-13.186-11.026-15.08-22.882-15.089
		c-12.599-0.021-16.754,7.578-16.881,16.895C887.395,1858.599,879.811,1860.23,866.769,1856.763z M906.977,1787.988
		c-4.503,13.33-9.108,21.057-9.151,30.452c7.119,0.596,13.365,2.948,19.576-2.062
		C914.467,1808.381,911.62,1800.646,906.977,1787.988z"/>
	<path fill-rule="evenodd" clip-rule="evenodd" fill="#DCC378" d="M414.081,1768.231c18.303,28.478,21.291,62.671,43.598,88.278
		c-12.541,3.085-21.154,2.938-23.576-11.935c-2.393-14.708-12.145-20.089-26.97-17.962c-14.649,2.1-13.868,13.049-14.435,23.235
		c-0.894,16.046-11.554,4.786-20.646,9.999C393.273,1829.943,397.303,1797.207,414.081,1768.231z M411.864,1788.378
		c-4.258,12.619-7.027,20.804-9.883,29.26c7.74,2.307,14.033,2.629,21.559-0.585C420.205,1808.868,416.942,1800.85,411.864,1788.378
		z"/>
	<path fill-rule="evenodd" clip-rule="evenodd" fill="#DCC378" d="M497.353,1856.157c-18.746,4.872-24.411,2.333-22.516-17.159
		c2.183-22.542,5.294-46.272-4.542-69.888c13.727,0,26.746-0.019,39.764,0c6.181,0.01,13.546,0.302,10.713,9.053
		c-2.783,8.613-6.606-0.438-10.044-0.85c-6.412-0.772-14.143-3.486-18.591,1.767c-5.269,6.262-3.022,15.149-1.743,22.679
		c1.426,8.43,9.132,4.941,14.483,5.86c4.521,0.78,12.408-3.077,12.271,5.078c-0.175,10.852-7.485,2.979-11.216,2.528
		c-11.417-1.376-17.633,1.729-16.383,14.602C490.414,1838.724,488.471,1848.11,497.353,1856.157z"/>
	<path fill-rule="evenodd" clip-rule="evenodd" fill="#DCC378" d="M1484.292,1846.683c-4.414,12.786-4.414,12.786-46.811,10.431
		c6.142-28.898,4.835-57.718,1.24-87.924c11.075,0,24.016,0.008,36.955-0.021c5.705-0.01,9.006,2.686,7.678,8.409
		c-2.16,9.198-6.076,2.099-9.571,0.789c-6.172-2.303-13.878-4.561-18.263,0.587c-5.196,6.143-2.716,15.099-1.71,22.668
		c1.174,8.664,8.927,5.097,14.2,6.056c4.503,0.801,12.385-3.115,12.092,5.117c-0.353,10.577-7.727,2.911-11.387,2.402
		c-12.22-1.659-16.488,3.066-15.686,15.108c0.701,10.626-1.251,22.365,15.284,20.393
		C1473.646,1850.063,1478.813,1848.11,1484.292,1846.683z"/>
	<path fill-rule="evenodd" clip-rule="evenodd" fill="#DCC378" d="M1019.592,1845.806c1.007,9.962-4.912,12.559-13.028,12.489
		c-11.769-0.098-25.885,3.41-34.642-1.863c-8.628-5.216,0.449-19.564-1.073-30.072c-2.657-18.311,4.316-37.629-6.124-56.194
		c13.019-1.249,26.73-6.641,20.216,16.817c-3.033,10.949-0.538,23.42-0.522,35.208
		C984.452,1853.18,990.864,1857.545,1019.592,1845.806z"/>
	<path fill-rule="evenodd" clip-rule="evenodd" fill="#DCC378" d="M1582.629,1770.399c14.209-2.86,24.953-4.346,19.736,16.047
		c-2.655,10.39-0.477,22.021-0.477,33.097c0.019,32.736,0.019,32.736,31.232,30.951c-5.979,7.978-5.998,7.295-29.183,7.723
		c-13.741,0.236-18.936-0.477-17.053-18.105C1589.298,1817.679,1592.677,1793.77,1582.629,1770.399z"/>
	<path fill-rule="evenodd" clip-rule="evenodd" fill="#D9BE6E" d="M592.404,1694.28c7.413,0.499,11.983,4.396,12.364,12.051
		c0.42,8.45-3.731,14.035-12.404,13.947c-7.715-0.059-11.5-5.371-11.563-12.852C580.728,1699.906,584.493,1695.285,592.404,1694.28z
		"/>
	<path fill-rule="evenodd" clip-rule="evenodd" fill="#D9BE6E" d="M562.528,1720.523c-6.636-1.406-12.599-4.063-13.023-12.032
		c-0.463-8.469,3.751-14.005,12.516-14.023c7.764-0.012,12.071,5.292,12.281,12.578
		C574.507,1714.351,570.254,1719.146,562.528,1720.523z"/>
	<path fill-rule="evenodd" clip-rule="evenodd" fill="#D9BE6E" d="M1562.353,1513.888c-10.029-5.343-8.124-14.123-5.184-21.974
		c2.674-7.072,8.976-10.881,16.953-10.881c13.574-0.019,27.17-0.019,40.98,1.838c-10.198,7.344-22.073,4.784-33.333,5.106
		c-21.075,0.587-23.412,3.623-17.765,24.58C1563.478,1513.02,1562.93,1513.468,1562.353,1513.888z"/>
	<path fill-rule="evenodd" clip-rule="evenodd" fill="#D9BE6E" d="M716.275,1512.335c7.803,0.575,13.223,4.071,12.998,11.827
		c-0.204,7.168-4.653,12.266-12.32,12.441c-8.37,0.177-13.887-4.219-13.506-12.882
		C703.789,1516.056,709.253,1512.686,716.275,1512.335z"/>
	<path fill-rule="evenodd" clip-rule="evenodd" fill="#D9BE6E" d="M1185.735,1536.866c-7.344-0.966-12.91-4.638-12.931-12.158
		c-0.01-7.45,5.206-11.896,12.717-12.041c7.627-0.146,12.441,3.964,12.46,11.867
		C1197.981,1532.365,1193.188,1536.146,1185.735,1536.866z"/>
	<path fill-rule="evenodd" clip-rule="evenodd" fill="#D9BE6E" d="M1375.31,1536.945c-8.145-1.261-13.771-4.863-13.722-12.432
		c0.049-7.463,5.225-11.856,12.774-11.944c7.655-0.079,12.384,4.032,12.423,11.935
		C1386.853,1532.542,1381.451,1535.636,1375.31,1536.945z"/>
	<path fill-rule="evenodd" clip-rule="evenodd" fill="#D9BE6E" d="M1500.941,1524.602c-0.683,7.109-4.481,11.826-12.039,11.924
		c-7.502,0.078-11.936-4.16-12.063-11.845c-0.128-7.727,4.013-12.014,11.69-12.063
		C1496.1,1512.588,1500.271,1516.71,1500.941,1524.602z"/>
	<path fill-rule="evenodd" clip-rule="evenodd" fill="#E4D097" d="M1569.396,1516.68c19.199,0,38.418,0,57.63,0
		c-20.753,8.001-42.698-0.634-63.549,8.507c-4.768,2.082,0.956-5.304,0.059-8.3
		C1565.488,1516.826,1567.442,1516.749,1569.396,1516.68z"/>
	<path fill-rule="evenodd" clip-rule="evenodd" fill="#D9BE6E" d="M1569.396,1516.68c-1.954,0.069-3.908,0.146-5.86,0.207
		c-0.723-0.88-1.105-1.887-1.163-3.02c0.557-0.399,1.104-0.848,1.632-1.31C1565.811,1513.927,1567.598,1515.304,1569.396,1516.68z"
		/>
	<path fill-rule="evenodd" clip-rule="evenodd" fill="#FEFDFD" d="M761.791,464.035c0.702-3.873-1.842-9.83,4.345-10.387
		c3.472-0.312,3.194,4.479,3.565,7.437C767.064,462.057,764.428,463.043,761.791,464.035z"/>
	<path fill-rule="evenodd" clip-rule="evenodd" fill="#FEFDFD" d="M745.779,470.671c0.097,1.382,0.19,2.764,0.277,4.151
		c-1.724-0.43-3.452-0.865-5.186-1.289C742.512,472.585,744.147,471.624,745.779,470.671z"/>
	<path fill-rule="evenodd" clip-rule="evenodd" fill="#E4D097" d="M887.458,569.793c19.508,1.86,35.188,10.362,50.814,22.667
		c13.536,10.65,0.537,24.324,9.693,33.982c-14.972-6.729-23.678-19.562-35.139-30.91c-3.58,8.98-4.454,20.479-17.404,21.3
		l-0.009-0.011c1.04-11.748-4.439-18.467-16.007-19.737c-13.594-1.5-24.025,2.3-25.133,18.38c-12.53-3.413-7.335-20.72-20.255-21.95
		c-4.791-0.113-9.571-0.224-14.352-0.337c-3.248-0.166-6.504-0.332-9.747-0.493c12.584-0.752,13.902-14.928,24.523-19.625
		c17.886-7.906,31.936,5.953,48.353,4.313c7.701-0.777,6.954-2.857,4.883-7.799L887.458,569.793z M840.273,588.335
		c0.527-0.274,1.044-0.538,1.572-0.801c-0.982-0.093-1.958-0.181-2.939-0.269C839.359,587.617,839.813,587.974,840.273,588.335z"/>
	<path fill-rule="evenodd" clip-rule="evenodd" fill="#E4D097" d="M1145.753,651.049c3.788-22.018,13.271-46.424,35.5-46.307
		c19.17,0.112,40.345-4.819,59.721,3.682c5.85,2.574,12.472,3.438,18.741,5.083c0.011-0.009,0.712-0.111,0.712-0.111
		c-0.056,5.229,2.854,7.5,7.767,7.779l0.155-0.03c0.304,5.054,3.038,7.75,8.008,8.258c1.3-0.24,2.58-0.488,3.878-0.728
		c-0.146,1.367-0.311,2.734-0.469,4.102c-0.06,11.861,6.192,21.393,11.504,31.267c-2.899,7.764-7.323,9.317-12.235,2.08
		c-2.052-3.022-1.68-7.574-3.057-11.182c-4.475-11.729-9.328-25.642-21.721-28.528c-9.806-2.285-7.501,15.177-18.225,19.513
		c-2.558-12.148-8.546-22.55-23.194-20.187c-10.567,1.704-21.349,4.937-18.626,20.226c-11.786-2.207-12.988-12.437-17.774-19.298
		c-11.973,6.554-16.055,21.13-28.751,26.316C1147.043,652.329,1146.407,651.679,1145.753,651.049z"/>
	<path fill-rule="evenodd" clip-rule="evenodd" fill="#DCC378" d="M820.608,510.615c1.231,2.413-2.637,8.936,0.25,6.963
		c25.373-17.423,53.021,0.508,78.995-8.726c1.093,13.17-6.934,17.232-14.136,15.426c-37.215-9.366-70.162-2.759-99.026,22.853
		c-0.024-0.024-1.543-1.265-1.543-1.265c7.379-16.285,21.159-26.042,35.711-35.017L820.608,510.615z"/>
	<path fill-rule="evenodd" clip-rule="evenodd" fill="#FEFDFD" d="M1280.234,628.675c-1.298,0.239-2.578,0.488-3.857,0.728
		c4.619-9.86-1.964-8.8-8.028-8.258l-0.155,0.03c1.61-2.428,3.212-4.859,4.813-7.292c-4.198-0.16-8.379-0.322-12.58-0.487
		c0,0-0.701,0.102-0.712,0.111c18.292-12.339,23.187-10.62,36.224,11.828c3.663,6.333,8.282,11.856,10.518,19.244
		c4.436,14.645,0.225,21.115-15.225,19.464c-5.273-9.874-11.525-19.405-11.447-31.267
		C1282.451,631.683,1283.828,630.452,1280.234,628.675z"/>
	<path fill-rule="evenodd" clip-rule="evenodd" fill="#DCC378" d="M819.666,593.179c4.781,0.113,9.562,0.224,14.352,0.337
		c-8.708,12.34-19.87,22.985-22.526,39.216c-1.041,6.348-5.597,13.873-15.031,7.628c4.268-11.75,8.521-23.494,12.784-35.232
		c2.9-0.776,3.862-2.911,3.965-5.654l0.17-0.265C815.476,597.203,817.571,595.191,819.666,593.179z"/>
	<path fill-rule="evenodd" clip-rule="evenodd" fill="#DCC378" d="M1227.732,549.265c28.331-15.641,51.827-11.002,63.488,12.417
		C1272.508,545.173,1250.33,546.213,1227.732,549.265z"/>
	<path fill-rule="evenodd" clip-rule="evenodd" fill="#DCC378" d="M1332.768,599.483c-10.909-0.792-17.452-4.453-22.58-10.557
		c-1.425-1.705-2.13-4.014-3.173-6.045c18.077-7.091,2.303-11.993-1.271-17.438c-1.952-2.969-6.787-5.142-1.553-9.034
		c4.377-3.271,7.197-0.283,9.387,3.115C1321.271,571.415,1327.454,584.018,1332.768,599.483z"/>
	<path fill-rule="evenodd" clip-rule="evenodd" fill="#FEFDFD" d="M809.245,605.128c-4.263,11.739-8.516,23.483-12.784,35.232
		c-10.699-11.729-8.727-27.571,4.922-39.408c-0.005,0-0.245-0.063-0.245-0.063C802.795,604.313,805.895,604.953,809.245,605.128z"/>
	<path fill-rule="evenodd" clip-rule="evenodd" fill="#DCC378" d="M812.116,413.304c2.656,15.381-4.429,25.519-17.496,32.428
		C800.45,434.922,806.286,424.115,812.116,413.304z"/>
	<path fill-rule="evenodd" clip-rule="evenodd" fill="#DCC378" d="M762.25,566.122c-6.153,8.619-0.933,22.101-13.663,31.345
		c-0.674-14.718,3.711-24.455,11.529-33.039C760.862,564.979,761.566,565.541,762.25,566.122z"/>
	<path fill-rule="evenodd" clip-rule="evenodd" fill="#DCC378" d="M781.528,545.969c-6.426,6.719-12.848,13.438-19.279,20.152
		c-0.684-0.581-1.387-1.143-2.134-1.694c2.295-9.093,7.911-16.447,14.034-22.902c6.656-6.998,6.056,1.006,7.184,4.654
		L781.528,545.969z"/>
	<path fill-rule="evenodd" clip-rule="evenodd" fill="#E4D097" d="M813.381,599.209c0,0-0.17,0.265-0.161,0.279
		c-4.028,0.473-8.052,0.938-12.081,1.402c0,0,0.239,0.063,0.245,0.063C804.821,596.529,808.971,596.988,813.381,599.209z"/>
	<path fill-rule="evenodd" clip-rule="evenodd" fill="#D6BA64" d="M776.284,462.179c1.855-1.958,4.678-3.8,6.495-1.655
		c2.432,2.861-1.426,3.765-3.106,5.181C778.564,464.537,777.421,463.36,776.284,462.179z"/>
	<path fill-rule="evenodd" clip-rule="evenodd" fill="#DCC378" d="M781.333,546.179c1.294,0.17,2.563,0.063,3.813-0.313
		c0,0,1.519,1.24,1.543,1.265c-0.938,1.533-2.032,4.415-2.833,4.337c-3.345-0.338-1.685-3.53-2.329-5.499L781.333,546.179z"/>
	<path fill-rule="evenodd" clip-rule="evenodd" fill="#E4D097" d="M1147.687,652.984c-0.859,0.624-2.178,1.967-2.512,1.762
		c-2.333-1.474-0.476-2.568,0.578-3.686C1146.407,651.679,1147.043,652.329,1147.687,652.984z"/>
	<path fill-rule="evenodd" clip-rule="evenodd" fill="#E4D097" d="M895.422,616.833c-0.537,0.59-1.074,1.181-1.616,1.778
		c0.063-0.372,0-0.88,0.215-1.08c0.376-0.337,0.918-0.484,1.392-0.709L895.422,616.833z"/>
	<polygon fill-rule="evenodd" clip-rule="evenodd" fill="#DCC378" points="1305.871,576.146 1305.597,575 1306.535,575.166 	"/>
	<path fill-rule="evenodd" clip-rule="evenodd" fill="#E4D097" d="M887.678,569.574c-0.557-0.518-1.124-1.03-1.685-1.548
		c0.347,0.112,0.845,0.112,1.006,0.352c0.264,0.4,0.313,0.933,0.459,1.416L887.678,569.574z"/>
	<path fill-rule="evenodd" clip-rule="evenodd" fill="#DCC378" d="M820.857,510.849c0.464-0.581,0.927-1.157,1.391-1.738
		c-0.083,0.332-0.058,0.811-0.263,0.967c-0.387,0.278-0.914,0.367-1.377,0.537L820.857,510.849z"/>
	<path fill-rule="evenodd" clip-rule="evenodd" fill="#DCC378" d="M840.273,588.335c-0.459-0.362-0.914-0.718-1.367-1.07
		c0.981,0.088,1.958,0.176,2.939,0.269C841.317,587.798,840.8,588.062,840.273,588.335z"/>
	<path fill-rule="evenodd" clip-rule="evenodd" fill="#FEFEFD" d="M1260.427,613.396c4.201,0.166,8.382,0.327,12.58,0.487
		c-1.602,2.433-3.203,4.864-4.813,7.292C1263.281,620.896,1260.371,618.625,1260.427,613.396z"/>
	<path fill-rule="evenodd" clip-rule="evenodd" fill="#FEFEFD" d="M1268.349,621.145c6.064-0.542,12.647-1.602,8.028,8.258
		C1271.387,628.895,1268.652,626.199,1268.349,621.145z"/>
	<path fill-rule="evenodd" clip-rule="evenodd" fill="#FEFEFD" d="M1280.234,628.675c3.594,1.777,2.217,3.008-0.45,4.102
		C1279.924,631.41,1280.089,630.042,1280.234,628.675z"/>
	<path fill-rule="evenodd" clip-rule="evenodd" fill="#FEFEFD" d="M801.139,600.89c4.029-0.464,8.053-0.929,12.081-1.402
		c-0.112,2.729-1.074,4.864-3.975,5.64C805.895,604.953,802.795,604.313,801.139,600.89z"/>
</g>
</svg>
