<?xml version="1.0" encoding="utf-8"?>
<!-- Generator: Adobe Illustrator 16.0.0, SVG Export Plug-In . SVG Version: 6.00 Build 0)  -->
<!DOCTYPE svg PUBLIC "-//W3C//DTD SVG 1.1//EN" "http://www.w3.org/Graphics/SVG/1.1/DTD/svg11.dtd">
<svg version="1.1" id="Layer_1" xmlns="http://www.w3.org/2000/svg" xmlns:xlink="http://www.w3.org/1999/xlink" x="0px" y="0px"
	 width="2000px" height="2000px" viewBox="0 0 2000 2000" enable-background="new 0 0 2000 2000" xml:space="preserve">
<g>
	<path fill-rule="evenodd" clip-rule="evenodd" fill="#018ECF" d="M859.545,1051.497c-0.001-37.8-0.007-75.6,0.005-113.399
		c0.001-4.96-0.501-4.314,4.405-4.313c21.871,0.006,43.744-0.106,65.614,0.133c16.181,0.176,32.28,1.502,48.028,5.593
		c15.954,4.144,30.256,11.212,41.554,23.568c8.669,9.479,14.305,20.658,18.113,32.804c3.931,12.534,5.765,25.44,6.646,38.524
		c0.802,11.885,0.788,23.755-0.122,35.62c-1.381,18.013-4.74,35.539-13.157,51.776c-9.595,18.512-24.546,30.856-43.905,38.084
		c-11.642,4.347-23.755,6.581-36.07,7.985c-12.667,1.445-25.375,1.562-38.09,1.601c-15.928,0.048-31.856,0.011-47.785,0.011
		c-0.594,0-1.189,0.001-1.783,0c-3.707-0.003-3.458,0.159-3.458-3.518c0-30.073,0.002-60.147,0.004-90.221
		C859.547,1067.663,859.546,1059.58,859.545,1051.497z M908.249,1051.494c0,24.239,0,48.479,0,72.719
		c0,0.712,0.06,1.432-0.012,2.137c-0.168,1.648,0.426,2.373,2.184,2.323c2.252-0.064,4.513,0.076,6.768,0.183
		c12.121,0.57,24.217,0.505,36.284-1.031c17.951-2.284,30.239-11.55,36.165-28.897c3.409-9.98,4.839-20.302,5.556-30.746
		c0.929-13.538,0.748-27.071-0.644-40.573c-0.953-9.245-2.676-18.318-6.371-26.927c-5.006-11.666-13.568-19.259-25.804-22.679
		c-6.438-1.8-13.029-2.548-19.684-2.965c-10.21-0.64-20.427-0.444-30.642-0.479c-4.11-0.014-3.798-0.413-3.799,3.861
		C908.243,1002.777,908.246,1027.136,908.249,1051.494z"/>
	<path fill-rule="evenodd" clip-rule="evenodd" fill="#018ECF" d="M1416.912,1151.14c0-23.058-0.012-46.115,0.003-69.172
		c0.012-19.149,4.946-36.916,15.567-52.888c15.165-22.805,36.247-36.991,63.266-41.823c52.401-9.371,101.736,25.523,110.509,76.937
		c6.475,37.939-6.306,69.235-36.491,93.169c-10.17,8.064-21.697,13.658-34.471,16.362c-30.537,6.464-53.444-9.1-64.916-32.037
		c-0.424-0.848-0.771-1.74-1.258-2.549c-0.472-0.781-1.263-1.08-2.154-0.854c-0.76,0.191-1.241,0.805-1.341,1.521
		c-0.147,1.051-0.135,2.13-0.136,3.197c-0.01,26.741-0.013,53.483-0.017,80.225c-0.001,0.832,0.004,1.665-0.001,2.496
		c-0.023,3.791,0.287,3.473-3.444,3.475c-13.905,0.007-27.812,0.003-41.717,0.003c-0.595-0.001-1.19-0.037-1.782-0.006
		c-1.264,0.066-1.672-0.597-1.617-1.753c0.038-0.83,0.001-1.664,0.001-2.496C1416.912,1200.345,1416.912,1175.742,1416.912,1151.14z
		 M1512.388,1129.446c26.683,0.062,48.395-21.524,48.453-48.173c0.059-26.576-21.655-48.315-48.296-48.354
		c-26.654-0.037-48.357,21.549-48.455,48.196C1463.991,1107.695,1485.667,1129.385,1512.388,1129.446z"/>
	<path fill-rule="evenodd" clip-rule="evenodd" fill="#018ECF" d="M1817.28,1120.133c0.001,15.216,0.001,30.432-0.001,45.647
		c0,0.951-0.002,1.902-0.033,2.853c-0.027,0.852-0.495,1.279-1.35,1.284c-0.595,0.004-1.188,0.019-1.783,0.019
		c-14.027,0.001-28.055,0.001-42.081,0c-0.595,0-1.189-0.023-1.783-0.011c-1.017,0.021-1.546-0.442-1.543-1.481
		c0.002-0.951-0.013-1.901-0.013-2.853c-0.005-7.727-0.006-15.454-0.014-23.181c-0.002-0.831-0.025-1.663-0.07-2.492
		c-0.043-0.791-0.479-1.352-1.209-1.596c-0.886-0.297-1.709-0.015-2.189,0.744c-0.569,0.896-0.958,1.906-1.444,2.857
		c-7.771,15.163-19.204,26.23-35.81,31.09c-13.104,3.835-26.202,2.797-38.798-2.176c-34.244-13.519-55.569-38.38-61.482-74.73
		c-8.57-52.685,26.747-99.022,75.789-108.611c51.682-10.104,101.463,23.245,112.004,74.637c1.39,6.776,1.843,13.642,1.821,20.554
		C1817.252,1095.169,1817.28,1107.651,1817.28,1120.133z M1721.773,1129.454c26.746,0.035,48.258-21.442,48.295-48.222
		c0.037-26.719-21.499-48.299-48.217-48.313c-26.74-0.015-48.261,21.479-48.294,48.234
		C1673.523,1107.911,1694.994,1129.419,1721.773,1129.454z"/>
	<path fill-rule="evenodd" clip-rule="evenodd" fill="#018ECF" d="M1399.719,1039.433c0,14.505,0.181,29.013-0.049,43.514
		c-0.247,15.65-3.596,30.688-10.715,44.681c-12.512,24.591-31.967,40.679-59.398,45.471c-30.235,5.281-56.88-2.241-78.12-25.249
		c-11.918-12.91-18.714-28.491-22.141-45.603c-1.593-7.947-2.196-15.989-2.184-24.099c0.044-28.297,0.011-56.593,0.022-84.89
		c0.003-4.335-0.512-3.952,4.063-3.956c13.435-0.012,26.87-0.005,40.305-0.003c0.832,0,1.664,0.023,2.497,0.014
		c1.017-0.011,1.543,0.444,1.528,1.492c-0.013,0.951,0.01,1.902,0.01,2.854c0.001,28.296,0.035,56.593-0.017,84.889
		c-0.017,9.236,0.956,18.283,4.526,26.883c4.504,10.849,11.997,18.522,23.741,21.178c11.663,2.637,22.745,1.332,32.407-6.307
		c7.003-5.536,10.712-13.204,12.918-21.661c1.354-5.189,2.154-10.478,2.156-15.856c0.01-29.723-0.004-59.446,0.012-89.169
		c0.003-4.813-0.643-4.402,4.351-4.407c13.316-0.014,26.632-0.005,39.948-0.004c0.832,0,1.665,0.031,2.497,0.01
		c1.188-0.03,1.737,0.514,1.688,1.712c-0.034,0.831,0.003,1.665,0.003,2.497c0.001,15.337,0,30.675,0,46.012
		C1399.752,1039.433,1399.735,1039.433,1399.719,1039.433z"/>
	<path fill-rule="evenodd" clip-rule="evenodd" fill="#018ECF" d="M1207.855,1049.58c-6.184-4.859-12.378-8.057-18.996-10.432
		c-7.521-2.698-15.184-4.691-23.251-4.852c-13.646-0.27-25.313,4.562-35.371,13.565c-5.181,4.639-9.418,10.034-12.667,16.205
		c-1.862,3.536-2.798,7.189-2.785,11.256c0.092,29.956,0.055,59.912,0.046,89.869c-0.002,5.542,0.353,4.659-4.829,4.675
		c-13.433,0.039-26.865,0.019-40.299,0.009c-3.267-0.003-3.295-0.026-3.295-3.321c-0.006-57.892-0.004-115.784-0.003-173.676
		c0-0.713-0.001-1.428,0.036-2.14c0.046-0.86,0.548-1.251,1.391-1.25c0.594,0,1.188-0.014,1.783-0.014
		c12.244,0,24.487-0.006,36.732,0.003c3.24,0.002,3.226,0.027,3.744,3.232c1.439,8.909,2.893,17.815,4.34,26.723
		c0.057,0.352,0.085,0.71,0.165,1.057c0.25,1.084,0.633,2.12,1.938,2.227c1.069,0.087,1.702-0.58,2.21-1.486
		c2.046-3.646,4.651-6.891,7.385-10.031c6.532-7.506,14.009-13.857,22.799-18.606c16.172-8.737,32.714-8.721,49.537-2.13
		c3.097,1.213,6.906,1.959,8.79,4.423c1.821,2.383,0.556,6.193,0.57,9.37c0.068,13.67,0.029,27.341,0.029,41.012
		C1207.855,1046.44,1207.855,1047.612,1207.855,1049.58z"/>
	<path fill-rule="evenodd" clip-rule="evenodd" fill="#054E7A" d="M411.881,628.588c1.605,0.91,2.391,2.265,3.352,3.405
		c14.709,17.457,29.427,34.909,45.408,51.233c9.902,10.115,20.05,19.956,32.072,27.639c11.533,7.371,23.622,13.702,35.997,19.501
		c14.942,7.002,30.199,13.338,44.883,20.877c61.277,31.458,110.003,76.373,144.822,135.977
		c18.258,31.255,30.443,64.841,37.225,100.396c4.604,24.138,6.646,48.503,6.141,73.05c-1.125,54.585-14.1,106.01-41.739,153.38
		c-25.943,44.463-61.308,79.68-105.27,106.302c-33.042,20.01-68.647,33.395-106.529,40.89c-27.431,5.428-55.11,7.479-82.994,6.083
		c-54.134-2.712-104.635-17.859-151.441-45.206c-41.26-24.107-75.741-55.643-103.127-94.821
		c-23.63-33.808-39.843-70.889-48.685-111.212c-6.123-27.927-8.239-56.178-6.836-84.662c1.953-39.665,10.721-77.774,27.276-113.977
		c14.56-31.838,33.994-60.402,57.906-85.942c23.226-24.808,49.37-45.979,78.82-62.985c13.168-7.604,26.871-14.215,40.338-21.263
		c18.896-9.889,36.669-21.472,53.631-34.4c14.174-10.803,23.887-24.619,29.767-41.299c4.206-11.931,6.598-24.264,8.15-36.783
		C411.292,632.801,411.577,630.835,411.881,628.588z M196.547,843.321l-0.139,0.143c-0.48-0.065-0.654,0.153-0.564,0.613
		c-0.925,0.781-1.772,1.629-2.354,2.708c-1.792,0.631-2.605,2.299-3.728,3.609c-8.25,9.623-15.415,19.988-21.229,31.268
		c-0.679,0.282-0.879,0.817-0.796,1.502l0.012-0.03c-0.756,0.213-1.088,0.846-1.481,1.445c-2.345,3.571-4.445,7.285-6.6,10.973
		c-8.828,15.109-15.944,31.005-21.768,47.474c-6.371,18.015-11.04,36.459-13.868,55.391c-1.469,9.838-2.846,19.707-3.157,29.605
		c-0.278,8.854-0.996,17.697-0.484,26.628c0.617,10.76,1.012,21.51,2.288,32.23c0.993,8.35,2.277,16.653,4.005,24.854
		c2.956,14.027,6.834,27.811,11.696,41.333c6.042,16.806,13.663,32.851,22.413,48.373c1.111,1.972,1.634,4.526,4.013,5.661
		c0.025,0.978,0.401,1.789,0.926,2.63c5.586,8.95,11.611,17.576,17.986,25.997c7.743,10.227,16.271,19.744,25.104,28.979
		c7.122,7.445,14.918,14.215,22.78,20.9c8.04,6.837,16.365,13.295,25.1,19.185c15.257,10.288,31.114,19.529,47.929,27.118
		c9.951,4.491,20.024,8.619,30.31,12.255c12.852,4.544,25.977,8.13,39.297,10.965c7.616,1.62,15.275,3.047,23.034,3.922
		c4.458,0.504,8.914,1.026,13.371,1.528c4.819,0.544,9.659,1.022,14.473,1.146c11.045,0.285,22.102,0.092,33.154,0.084
		c1.068-0.001,2.171,0.096,3.198-0.126c4.421-0.955,8.958-0.509,13.406-1.235c3.141-0.514,6.394-0.365,9.52-0.938
		c5.458-0.997,10.967-1.63,16.433-2.579c14.476-2.511,28.694-6.048,42.691-10.43c12.447-3.896,24.56-8.692,36.451-14.104
		c10.063-4.581,19.841-9.676,29.332-15.291c11.525-6.818,22.557-14.376,33.106-22.676c8.111-6.382,15.737-13.289,23.363-20.202
		c3.679-3.336,6.994-7.078,10.368-10.75c5.136-5.588,10.097-11.297,14.906-17.165c8.207-10.015,15.266-20.813,22.17-31.726
		c0.543-0.858,1.306-1.801,0.418-2.916l0.127-0.216c1.765,0.29,1.994-0.498,1.339-1.906l0.103-0.17
		c1.19,0.24,1.022-0.457,0.814-1.181l0.176,0.178l-0.183-0.182c0.977,0.02,1.009-0.606,0.906-1.325l-0.038,0.048
		c0.506-0.107,0.699-0.395,0.516-0.897l0.262,0.006l-0.26-0.04c1.014,0.066,1.019-0.564,0.892-1.287l0.081,0.204l-0.096-0.198
		c0.503,0.044,0.801-0.029,0.313-0.549c2.271-4.503,4.543-9.006,6.814-13.509c0.802-0.3,0.949-0.889,0.729-1.643l-0.049,0.051
		c0.927-0.214,0.958-0.793,0.622-1.523l-0.019-0.032c1.721-0.367,1.869-2.019,2.399-3.205c3.727-8.334,7.084-16.819,10.088-25.442
		c4.837-13.883,8.526-28.078,11.279-42.51c1.172-6.144,2.182-12.331,2.929-18.539c0.663-5.508,1.25-11.032,1.697-16.574
		c0.484-6.012,0.847-12.039,1.099-18.047c0.468-11.142,0.193-22.31-0.68-33.435c-0.259-3.301-0.314-6.641-0.776-9.897
		c-0.928-6.544-1.608-13.118-2.568-19.661c-1.254-8.549-2.992-16.981-4.93-25.381c-2.851-12.359-6.453-24.492-10.861-36.402
		c-6.482-17.513-14.283-34.394-23.741-50.488c-6.851-11.658-14.462-22.827-22.685-33.559c-2.209-2.882-4.014-6.172-7.127-8.3
		c-4.906-7.796-11.557-14.129-17.762-20.797c-7.844-8.429-16.495-16.039-25.28-23.494c-12.139-10.299-24.983-19.599-38.282-28.344
		c-17.928-11.789-37.172-21.006-56.645-29.815c-13.733-6.212-27.459-12.412-40.711-19.64c-13.614-7.425-26.277-16.118-37.515-26.824
		c-8.087-7.704-15.874-15.714-23.282-24.064c-8.575-9.665-17.127-19.356-25.337-29.341c-0.475-0.577-0.855-1.857-2.13-1.096
		c-0.938,1.057-0.852,2.436-1.099,3.689c-0.825,4.192-1.45,8.427-2.359,12.601c-2.54,11.665-6.223,22.92-12.385,33.242
		c-6.589,11.036-15.964,19.377-26.107,26.979c-20.5,15.366-42.414,28.417-65.329,39.812c-29.298,14.57-56.402,32.428-81.171,53.831
		c-9.73,8.408-18.583,17.694-27.469,26.955c-0.419,0.026-0.648,0.242-0.662,0.67l-0.058,0.059c-0.427,0.016-0.644,0.23-0.627,0.665
		l-0.076,0.076c-0.441-0.009-0.652,0.201-0.614,0.647l-0.09,0.09c-0.452-0.029-0.658,0.175-0.596,0.632l-0.104,0.113
		C196.658,842.669,196.46,842.864,196.547,843.321z"/>
	<path fill-rule="evenodd" clip-rule="evenodd" fill="#008ECF" d="M1836.97,1051.837c0-37.926-0.005-75.852,0.007-113.778
		c0.001-4.797-0.46-4.213,4.141-4.221c13.315-0.023,26.631-0.019,39.947-0.002c4.294,0.005,4.039-0.531,4.04,4.009
		c0.002,56.592,0.002,113.184,0.002,169.775c0,19.498,0.003,38.996-0.003,58.495c-0.002,4.28,0.258,3.846-3.822,3.85
		c-13.554,0.012-27.106,0.005-40.66,0.004c-0.714,0-1.427-0.025-2.14-0.009c-1.031,0.024-1.515-0.457-1.5-1.491
		c0.016-1.069-0.011-2.14-0.011-3.21C1836.97,1127.451,1836.97,1089.645,1836.97,1051.837z"/>
	<path fill-rule="evenodd" clip-rule="evenodd" fill="#008ECF" d="M164.804,1207.104c-2.377-1.137-2.9-3.691-4.012-5.663
		c-8.75-15.522-16.371-31.567-22.413-48.373c-4.861-13.522-8.74-27.306-11.696-41.333c-1.728-8.201-3.012-16.505-4.005-24.854
		c-1.275-10.721-1.671-21.471-2.288-32.23c-0.512-8.931,0.206-17.774,0.484-26.628c0.311-9.898,1.688-19.768,3.157-29.605
		c2.828-18.932,7.497-37.376,13.868-55.391c5.824-16.469,12.939-32.364,21.768-47.474c2.154-3.688,4.254-7.401,6.6-10.973
		c0.394-0.599,0.725-1.232,1.482-1.445c0.107,0.733-0.078,1.41-0.38,2.069c-1.547,3.377-2.417,6.97-2.876,10.612
		c-0.837,6.635,1.202,12.301,6.865,15.101c2.793,1.381,5.792,2.034,8.923,2.184c5.39,0.258,10.646-0.593,15.856-1.802
		c11.394-2.645,22.151-7.076,32.664-12.067c24.063-11.423,47.138-24.626,69.414-39.215c20.484-13.415,40.161-27.896,58.236-44.48
		c15.079-13.835,29.382-28.376,41.309-45.086c4.427-6.203,8.28-12.744,10.387-20.158c1.642-5.779,1.207-11.063-3.749-15.226
		c-0.091-0.076-0.172-0.165-0.248-0.256c-1.59-1.903-1.683-3.143-0.027-5.021c1.33-1.508,2.787-2.94,4.359-4.191
		c10.082-8.021,14.422-18.933,15.321-31.323c0.505-6.964,0.514-14.022-0.739-20.958c-0.599-3.314-0.401-6.833-2.248-9.87
		c-0.128-0.808-0.198-1.629-0.393-2.42c-1.509-6.129-3.042-12.253-4.567-18.379c1.275-0.762,1.656,0.519,2.13,1.096
		c8.21,9.985,16.763,19.676,25.337,29.341c7.408,8.35,15.195,16.36,23.282,24.064c11.238,10.706,23.901,19.399,37.515,26.824
		c13.252,7.228,26.979,13.427,40.711,19.64c19.472,8.809,38.716,18.026,56.645,29.815c13.298,8.745,26.143,18.044,38.282,28.344
		c8.785,7.455,17.437,15.064,25.28,23.494c6.205,6.668,12.856,13.001,17.762,20.797c-0.03,2.785,1.026,5.319,1.827,7.912
		c3.263,10.558,5.284,21.337,5.278,32.405c-0.003,6.506,0.309,13.005-0.561,19.531c-0.749,5.618-1.526,11.218-2.743,16.745
		c-2.369,10.764-5.669,21.247-9.484,31.592c-4.452,12.071-10.103,23.514-17.063,34.313c-5.773,8.958-12.05,17.536-18.748,25.848
		c-5.579,6.923-11.502,13.527-17.547,19.999c-5.981,6.403-12.18,12.628-18.806,18.428c-4.983,4.361-9.818,8.903-14.793,13.289
		c-7.014,6.185-14.274,12.076-21.662,17.775c-13.77,10.622-27.865,20.818-42.348,30.465c-2.252,1.501-4.724,2.71-6.632,4.702
		c-1.222-0.72-2.475-1.392-3.662-2.165c-10.952-7.133-21.469-14.894-32.225-22.311c-16.147-11.134-32.59-21.758-50.575-29.78
		c-16.408-7.319-33.455-12.253-51.447-13.18c-28.747-1.481-55.04,6.041-78.539,22.701c-18.966,13.447-33.119,30.827-41.522,52.664
		c-7.068,18.367-8.074,37.262-4.4,56.424c2.871,14.979,9.738,27.935,20.9,38.492c3.63,3.434,7.712,6.277,11.746,9.188
		c-0.394,0.721-1.07,0.815-1.807,0.891c-4.101,0.421-8.136,1.26-12.264,1.619c-5.166,0.451-10.332,0.914-15.507,1.197
		c-3.431,0.188-6.881-0.004-10.322,0.055c-11.84,0.202-23.613-0.234-35.24-2.835c-12.335-2.759-24.03-6.996-34.761-13.807
		C174.597,1214.856,169.858,1210.775,164.804,1207.104z"/>
	<path fill-rule="evenodd" clip-rule="evenodd" fill="#FFFFFF" d="M289.797,1231.1c-4.034-2.911-8.116-5.755-11.746-9.188
		c-11.162-10.558-18.029-23.514-20.9-38.492c-3.674-19.162-2.668-38.057,4.4-56.424c8.403-21.837,22.556-39.217,41.522-52.664
		c23.499-16.66,49.792-24.183,78.539-22.701c17.992,0.927,35.039,5.86,51.447,13.18c17.985,8.022,34.427,18.646,50.575,29.78
		c10.756,7.417,21.272,15.178,32.225,22.311c1.187,0.773,2.439,1.445,3.661,2.164c7.5,5.1,15.463,9.31,24.086,12.156
		c7.643,2.523,15.361,2.788,23.118,0.333c3.174-1.005,6.302-2.104,9.346-3.449c11.238-4.961,21.632-11.412,31.838-18.169
		c14.066-9.313,28-18.828,42.088-28.107c8.136-5.358,16.529-10.311,25.488-14.218c5.131-2.238,10.36-4.297,15.996-4.644
		c15.678-0.963,28.038,5.098,36.729,18.184c8.442,12.71,11.424,27.04,11.299,42.036c-0.125,15.035-2.675,29.771-6.469,44.309
		c-1.771,6.787-4.184,13.356-6.36,20.007c0,0,0.019,0.032,0.02,0.033c-0.463,0.402-0.629,0.928-0.624,1.522
		c0,0,0.049-0.051,0.05-0.05c-0.587,0.395-0.696,1.002-0.729,1.642c-2.271,4.503-4.543,9.006-6.814,13.509
		c-0.257,0.096-0.361,0.278-0.313,0.549l0.096,0.198c0,0-0.081-0.204-0.08-0.204c-0.547,0.256-0.754,0.748-0.892,1.287l0.26,0.04
		c0,0-0.262-0.006-0.261-0.005c-0.354,0.194-0.527,0.492-0.517,0.896l0.038-0.048c-0.588,0.246-0.789,0.758-0.906,1.325l0.183,0.182
		c0,0-0.176-0.178-0.175-0.177c-0.472,0.254-0.691,0.685-0.815,1.18c0,0-0.103,0.17-0.103,0.17
		c-0.704,0.454-1.131,1.104-1.339,1.906c0,0-0.127,0.216-0.127,0.216c-1.294,1.084-2.074,2.576-3.053,3.905
		c-2.961,4.022-6.02,7.967-9.397,11.651c-3.224,3.518-6.638,6.878-10.809,9.229c-11.868,6.69-23.777,7.867-35.516-0.354
		c-2.723-1.905-5.389-3.911-7.941-6.037c-9.607-8.003-18.235-17.034-27.029-25.891c-10.719-10.796-21.231-21.813-33.101-31.395
		c-5.559-4.487-11.376-8.569-17.886-11.626c-6.159-2.891-12.501-3.469-19.116-2.168c-5.506,1.082-10.772,2.877-15.932,5.035
		c-11.871,4.963-23.02,11.313-34.089,17.806c-19.368,11.36-38.371,23.342-58.085,34.112c-15.971,8.725-32.282,16.704-49.678,22.239
		c-11.485,3.655-23.186,6.132-35.313,6.165c-11.062,0.03-22.107-0.246-33.084-1.741c-11.407-1.554-22.297-4.693-32.199-10.771
		C290.903,1231.53,290.333,1231.342,289.797,1231.1z"/>
	<path fill-rule="evenodd" clip-rule="evenodd" fill="#0471AA" d="M289.797,1231.1c0.537,0.242,1.106,0.431,1.604,0.735
		c9.902,6.077,20.792,9.217,32.199,10.771c10.977,1.495,22.022,1.771,33.084,1.741c12.127-0.033,23.828-2.51,35.313-6.165
		c17.396-5.535,33.707-13.515,49.678-22.239c19.714-10.771,38.717-22.752,58.085-34.112c11.07-6.493,22.218-12.843,34.089-17.806
		c5.16-2.158,10.426-3.953,15.932-5.035c6.615-1.301,12.957-0.723,19.116,2.168c6.51,3.057,12.327,7.139,17.886,11.626
		c11.87,9.581,22.382,20.599,33.101,31.395c8.794,8.856,17.422,17.888,27.029,25.891c2.553,2.126,5.219,4.132,7.941,6.037
		c11.739,8.221,23.647,7.044,35.516,0.354c4.171-2.351,7.585-5.711,10.809-9.229c3.377-3.685,6.436-7.629,9.397-11.651
		c0.979-1.329,1.758-2.821,3.053-3.905c0.888,1.115,0.125,2.058-0.418,2.916c-6.904,10.913-13.963,21.711-22.17,31.726
		c-4.809,5.868-9.77,11.577-14.906,17.165c-3.375,3.672-6.689,7.414-10.368,10.75c-7.626,6.913-15.252,13.82-23.363,20.202
		c-10.549,8.3-21.581,15.857-33.106,22.676c-9.49,5.615-19.268,10.71-29.332,15.291c-11.891,5.412-24.004,10.208-36.451,14.104
		c-13.997,4.382-28.215,7.919-42.691,10.43c-5.466,0.949-10.975,1.582-16.433,2.579c-3.126,0.572-6.379,0.424-9.52,0.938
		c-4.447,0.727-8.984,0.28-13.406,1.235c-1.027,0.222-2.13,0.125-3.198,0.126c-11.052,0.008-22.109,0.201-33.154-0.084
		c-4.813-0.124-9.653-0.603-14.473-1.146c-4.457-0.502-8.913-1.024-13.371-1.528c-7.759-0.875-15.417-2.302-23.034-3.922
		c-13.321-2.835-26.445-6.421-39.297-10.965c-10.286-3.636-20.359-7.764-30.31-12.255c-16.815-7.589-32.672-16.83-47.929-27.118
		c-8.734-5.89-17.06-12.348-25.1-19.185c-7.861-6.686-15.658-13.455-22.78-20.9c-8.833-9.235-17.361-18.753-25.104-28.979
		c-6.375-8.421-12.4-17.047-17.986-25.997c-0.524-0.841-0.9-1.652-0.927-2.629c5.054,3.673,9.792,7.754,15.091,11.117
		c10.731,6.811,22.426,11.048,34.761,13.807c11.627,2.601,23.399,3.037,35.24,2.835c3.44-0.059,6.891,0.133,10.322-0.055
		c5.175-0.283,10.342-0.746,15.507-1.197c4.128-0.359,8.163-1.198,12.264-1.619C288.727,1231.915,289.403,1231.82,289.797,1231.1z
		 M493.259,1332.615c6.375,0.229,14.322-0.362,22.262-0.904c7.462-0.51,14.929-1.059,22.319-2.337
		c16.183-2.8,31.372-8.445,45.877-16.021c6.428-3.357,12.712-6.979,18.417-11.494c4.846-3.836,6.118-8.452,4.005-13.902
		c-1.375-3.546-3.997-4.631-7.368-2.974c-0.952,0.467-1.828,1.105-2.696,1.726c-5.928,4.236-12.358,7.538-19.082,10.298
		c-19.458,7.986-39.846,11.627-60.732,12.617c-15.447,0.732-30.88,0.333-46.227-1.936c-16.919-2.502-32.891-7.368-46.529-18.206
		c-1.694-1.347-3.562-1.72-5.657-1.662c-4.045,0.11-7.21,2.116-10.247,4.491c-2.622,2.05-3.85,4.703-3.83,8.03
		c0.021,3.473,1.56,6.122,4.1,8.343c9.468,8.276,20.422,13.811,32.377,17.436C457.008,1331.201,474.238,1332.702,493.259,1332.615z
		 M540.618,1208.055c-2.542,0-4.8,0.011-7.059-0.002c-10.991-0.063-21.095,2.946-30.408,8.732
		c-9.744,6.055-18.396,13.47-26.631,21.398c-1.459,1.404-2.626,3.06-3.602,4.848c-2.178,3.992-1.737,7.769,0.937,11.337
		c2.118,2.826,4.242,3.357,7.47,1.917c2.078-0.926,3.918-2.247,5.675-3.665c5.086-4.106,10.118-8.28,15.208-12.382
		c4.084-3.289,8.358-6.333,13.307-8.181c13.216-4.938,26.744-5.159,40.329-1.994c6.386,1.488,11.342,5.347,14.661,11.101
		c1.84,3.188,3.567,6.442,5.402,9.635c0.708,1.23,1.517,2.414,2.381,3.541c0.983,1.283,2.408,1.66,3.839,1.047
		c6.144-2.636,11.032-6.274,7.938-14.86c-2.016-5.594-4.526-10.967-7.556-16.104c-4.688-7.951-11.549-12.68-20.542-14.603
		C554.817,1208.291,547.574,1208.29,540.618,1208.055z"/>
	<path fill-rule="evenodd" clip-rule="evenodd" fill="#0471AA" d="M726.679,1187.502c2.176-6.65,4.589-13.22,6.36-20.007
		c3.793-14.538,6.344-29.273,6.469-44.309c0.125-14.996-2.857-29.326-11.299-42.036c-8.691-13.086-21.051-19.146-36.729-18.184
		c-5.636,0.347-10.865,2.405-15.996,4.644c-8.959,3.907-17.352,8.859-25.488,14.218c-14.089,9.279-28.022,18.795-42.088,28.107
		c-10.206,6.757-20.6,13.208-31.838,18.169c-3.044,1.345-6.172,2.444-9.346,3.449c-7.756,2.455-15.475,2.19-23.118-0.333
		c-8.623-2.847-16.586-7.057-24.086-12.156c1.909-1.991,4.38-3.2,6.633-4.701c14.483-9.646,28.578-19.843,42.348-30.465
		c7.388-5.699,14.648-11.591,21.662-17.775c4.975-4.386,9.81-8.928,14.793-13.289c6.626-5.8,12.825-12.024,18.806-18.428
		c6.045-6.472,11.969-13.076,17.547-19.999c6.698-8.312,12.974-16.89,18.748-25.848c6.96-10.799,12.611-22.242,17.063-34.313
		c3.815-10.346,7.115-20.828,9.484-31.592c1.217-5.527,1.994-11.126,2.743-16.745c0.87-6.526,0.558-13.025,0.561-19.531
		c0.006-11.068-2.015-21.848-5.278-32.405c-0.801-2.592-1.857-5.127-1.827-7.912c3.113,2.128,4.918,5.418,7.127,8.3
		c8.223,10.732,15.834,21.901,22.685,33.559c9.458,16.094,17.259,32.975,23.741,50.488c4.408,11.91,8.01,24.043,10.861,36.402
		c1.938,8.4,3.676,16.832,4.93,25.381c0.959,6.543,1.64,13.117,2.568,19.661c0.462,3.257,0.517,6.597,0.776,9.897
		c0.874,11.125,1.148,22.293,0.68,33.435c-0.252,6.008-0.614,12.035-1.099,18.047c-0.447,5.542-1.034,11.066-1.697,16.574
		c-0.747,6.208-1.756,12.396-2.929,18.539c-2.752,14.432-6.442,28.627-11.279,42.51c-3.004,8.623-6.362,17.108-10.088,25.442
		C728.547,1185.483,728.399,1187.135,726.679,1187.502z"/>
	<path fill-rule="evenodd" clip-rule="evenodd" fill="#FFFFFF" d="M415.857,642.647c1.525,6.125,3.059,12.25,4.567,18.379
		c0.195,0.791,0.265,1.613,0.393,2.42c-0.849,0.94-0.539,2.056-0.28,3.042c0.401,1.523,0.448,3.051,0.456,4.592
		c0.028,6.177,0.049,12.354,0.046,18.532c-0.003,5.236-1.551,10.082-4.148,14.545c-5.52,9.488-13.495,16.449-23.029,21.687
		c-4.785,2.629-9.666,5.083-14.505,7.611c-1.055,0.551-2.113,1.093-2.95,1.968c-1.302,1.36-1.212,2.181,0.521,2.938
		c1.512,0.66,3.17,0.987,4.674,1.66c4.442,1.988,5.538,3.714,5.162,8.608c-0.375,4.867-2.681,9.046-5.179,13.11
		c-5.462,8.888-13.019,16.008-20.171,23.419c-6.007,6.225-12.416,12.073-18.867,17.864c-12.032,10.802-24.925,20.473-38.208,29.642
		c-13.775,9.508-27.99,18.336-42.389,26.856c-15.045,8.902-30.618,16.744-47.386,21.931c-7.833,2.423-15.791,4.201-24.098,3.932
		c-2.159-0.07-3.922-0.705-5.555-1.975c-4.12-3.203-5.844-8.588-4.45-13.695c0.852-3.122,2.169-6.011,3.941-8.717
		c2.536-3.872,5.114-7.712,7.956-11.369c0.658-0.847,1.43-1.625,1.133-2.842c0.582-1.079,1.429-1.927,2.354-2.708
		c0.396-0.013,0.597-0.205,0.564-0.612l0.139-0.143c0.412,0,0.594-0.208,0.563-0.614c0,0,0.104-0.113,0.104-0.114
		c0.421,0,0.616-0.215,0.596-0.631c0,0,0.09-0.09,0.09-0.09c0.43-0.002,0.625-0.227,0.614-0.647l0.076-0.076
		c0.435-0.008,0.63-0.244,0.627-0.665l0.058-0.059c0.42-0.026,0.633-0.258,0.662-0.67c8.886-9.261,17.739-18.547,27.469-26.955
		c24.769-21.403,51.873-39.26,81.171-53.831c22.915-11.396,44.828-24.446,65.329-39.812c10.144-7.603,19.518-15.943,26.107-26.979
		c6.163-10.321,9.845-21.577,12.385-33.242c0.909-4.174,1.534-8.409,2.359-12.601C415.005,645.083,414.919,643.704,415.857,642.647z
		"/>
	<path fill-rule="evenodd" clip-rule="evenodd" fill="#93C5E4" d="M193.49,846.785c0.296,1.217-0.475,1.996-1.133,2.842
		c-2.842,3.656-5.42,7.497-7.956,11.369c-1.772,2.707-3.09,5.595-3.941,8.717c-1.394,5.107,0.33,10.493,4.45,13.695
		c1.633,1.27,3.396,1.905,5.555,1.975c8.308,0.269,16.266-1.508,24.098-3.932c16.768-5.188,32.341-13.029,47.386-21.931
		c14.399-8.52,28.614-17.348,42.389-26.856c13.284-9.168,26.177-18.84,38.208-29.642c6.451-5.791,12.86-11.64,18.867-17.864
		c7.152-7.411,14.709-14.531,20.171-23.419c2.498-4.064,4.804-8.244,5.179-13.11c0.376-4.894-0.72-6.62-5.162-8.608
		c-1.504-0.673-3.163-1-4.674-1.66c-1.732-0.757-1.823-1.578-0.521-2.938c0.837-0.875,1.895-1.417,2.95-1.968
		c4.839-2.529,9.721-4.982,14.505-7.611c9.534-5.238,17.509-12.199,23.029-21.687c2.597-4.464,4.145-9.309,4.148-14.545
		c0.003-6.177-0.018-12.355-0.046-18.532c-0.007-1.541-0.055-3.069-0.456-4.592c-0.259-0.986-0.569-2.101,0.28-3.042
		c1.847,3.036,1.649,6.556,2.248,9.87c1.253,6.935,1.244,13.993,0.739,20.958c-0.898,12.39-5.239,23.302-15.321,31.323
		c-1.572,1.251-3.03,2.684-4.359,4.191c-1.656,1.878-1.563,3.118,0.027,5.021c0.076,0.091,0.157,0.18,0.248,0.256
		c4.956,4.163,5.391,9.447,3.749,15.226c-2.107,7.415-5.96,13.955-10.387,20.158c-11.927,16.71-26.23,31.251-41.309,45.086
		c-18.075,16.583-37.751,31.065-58.236,44.48c-22.276,14.588-45.352,27.792-69.414,39.215c-10.513,4.991-21.271,9.422-32.664,12.067
		c-5.21,1.209-10.466,2.06-15.856,1.802c-3.131-0.149-6.13-0.803-8.923-2.184c-5.663-2.8-7.702-8.466-6.865-15.101
		c0.459-3.643,1.329-7.235,2.876-10.612c0.302-0.659,0.487-1.336,0.38-2.069c0,0-0.012,0.03-0.012,0.03
		c0.674-0.284,0.751-0.884,0.796-1.502c5.814-11.279,12.979-21.645,21.229-31.268C190.885,849.084,191.697,847.416,193.49,846.785z"
		/>
	<path fill-rule="evenodd" clip-rule="evenodd" fill="#0471AA" d="M713.757,1211.458c0.208-0.803,0.635-1.452,1.339-1.906
		C715.751,1210.96,715.522,1211.748,713.757,1211.458z"/>
	<path fill-rule="evenodd" clip-rule="evenodd" fill="#008ECF" d="M168.533,881.661c-0.044,0.618-0.122,1.218-0.796,1.502
		C167.654,882.478,167.854,881.943,168.533,881.661z"/>
	<path fill-rule="evenodd" clip-rule="evenodd" fill="#0471AA" d="M726.075,1189.058c-0.005-0.595,0.16-1.12,0.624-1.522
		C727.033,1188.265,727.002,1188.844,726.075,1189.058z"/>
	<path fill-rule="evenodd" clip-rule="evenodd" fill="#0471AA" d="M725.396,1190.649c0.034-0.64,0.143-1.247,0.729-1.642
		C726.345,1189.761,726.197,1190.35,725.396,1190.649z"/>
	<path fill-rule="evenodd" clip-rule="evenodd" fill="#0471AA" d="M717.392,1205.988c0.138-0.539,0.345-1.031,0.892-1.287
		C718.411,1205.424,718.406,1206.055,717.392,1205.988z"/>
	<path fill-rule="evenodd" clip-rule="evenodd" fill="#0471AA" d="M716.006,1208.197c0.118-0.567,0.318-1.079,0.906-1.325
		C717.015,1207.591,716.983,1208.217,716.006,1208.197z"/>
	<path fill-rule="evenodd" clip-rule="evenodd" fill="#0471AA" d="M715.199,1209.382c0.124-0.495,0.343-0.926,0.815-1.18
		C716.221,1208.925,716.39,1209.622,715.199,1209.382z"/>
	<path fill-rule="evenodd" clip-rule="evenodd" fill="#93C5E4" d="M199.938,839.756c-0.029,0.412-0.242,0.644-0.662,0.67
		C199.291,839.998,199.519,839.782,199.938,839.756z"/>
	<path fill-rule="evenodd" clip-rule="evenodd" fill="#93C5E4" d="M199.218,840.484c0.002,0.42-0.192,0.656-0.627,0.665
		C198.574,840.714,198.791,840.5,199.218,840.484z"/>
	<path fill-rule="evenodd" clip-rule="evenodd" fill="#93C5E4" d="M198.515,841.225c0.011,0.42-0.184,0.645-0.614,0.647
		C197.862,841.425,198.074,841.216,198.515,841.225z"/>
	<path fill-rule="evenodd" clip-rule="evenodd" fill="#93C5E4" d="M197.811,841.962c0.02,0.416-0.175,0.631-0.596,0.631
		C197.153,842.137,197.358,841.933,197.811,841.962z"/>
	<path fill-rule="evenodd" clip-rule="evenodd" fill="#93C5E4" d="M196.408,843.464c0.033,0.407-0.168,0.599-0.564,0.612
		C195.754,843.617,195.928,843.399,196.408,843.464z"/>
	<path fill-rule="evenodd" clip-rule="evenodd" fill="#0471AA" d="M718.268,1204.707c-0.048-0.271,0.056-0.453,0.313-0.549
		C719.069,1204.678,718.771,1204.751,718.268,1204.707z"/>
	<path fill-rule="evenodd" clip-rule="evenodd" fill="#0471AA" d="M716.874,1206.92c-0.011-0.404,0.163-0.702,0.517-0.896
		C717.573,1206.525,717.38,1206.813,716.874,1206.92z"/>
	<path fill-rule="evenodd" clip-rule="evenodd" fill="#93C5E4" d="M197.11,842.707c0.031,0.405-0.152,0.614-0.563,0.614
		C196.46,842.864,196.658,842.669,197.11,842.707z"/>
	<path fill-rule="evenodd" clip-rule="evenodd" fill="#FFFFFF" d="M493.259,1332.615c-19.021,0.087-36.25-1.414-53.012-6.496
		c-11.955-3.625-22.909-9.159-32.377-17.436c-2.54-2.221-4.079-4.87-4.1-8.343c-0.02-3.327,1.208-5.98,3.83-8.03
		c3.037-2.375,6.202-4.381,10.247-4.491c2.095-0.058,3.962,0.315,5.657,1.662c13.638,10.838,29.61,15.704,46.529,18.206
		c15.347,2.269,30.78,2.668,46.227,1.936c20.886-0.99,41.273-4.631,60.732-12.617c6.724-2.76,13.154-6.062,19.082-10.298
		c0.868-0.62,1.744-1.259,2.696-1.726c3.372-1.657,5.993-0.572,7.368,2.974c2.113,5.45,0.841,10.066-4.005,13.902
		c-5.705,4.515-11.989,8.137-18.417,11.494c-14.505,7.576-29.694,13.222-45.877,16.021c-7.39,1.278-14.857,1.827-22.319,2.337
		C507.581,1332.253,499.633,1332.844,493.259,1332.615z"/>
	<path fill-rule="evenodd" clip-rule="evenodd" fill="#FFFFFF" d="M540.618,1208.055c6.957,0.235,14.199,0.236,21.35,1.765
		c8.993,1.923,15.854,6.651,20.542,14.603c3.029,5.138,5.54,10.511,7.556,16.104c3.094,8.586-1.794,12.225-7.938,14.86
		c-1.431,0.613-2.856,0.236-3.839-1.047c-0.864-1.127-1.673-2.311-2.381-3.541c-1.834-3.192-3.562-6.446-5.402-9.635
		c-3.319-5.754-8.275-9.612-14.661-11.101c-13.585-3.165-27.113-2.943-40.329,1.994c-4.948,1.848-9.223,4.892-13.307,8.181
		c-5.09,4.102-10.122,8.275-15.208,12.382c-1.757,1.418-3.597,2.739-5.675,3.665c-3.228,1.44-5.352,0.909-7.47-1.917
		c-2.674-3.568-3.115-7.345-0.937-11.337c0.976-1.788,2.143-3.443,3.602-4.848c8.235-7.929,16.887-15.344,26.631-21.398
		c9.313-5.786,19.417-8.796,30.408-8.732C535.818,1208.065,538.076,1208.055,540.618,1208.055z"/>
</g>
</svg>
