<?xml version="1.0" encoding="utf-8"?>
<!-- Generator: Adobe Illustrator 16.0.0, SVG Export Plug-In . SVG Version: 6.00 Build 0)  -->
<!DOCTYPE svg PUBLIC "-//W3C//DTD SVG 1.1//EN" "http://www.w3.org/Graphics/SVG/1.1/DTD/svg11.dtd">
<svg version="1.1" id="Layer_1" xmlns="http://www.w3.org/2000/svg" xmlns:xlink="http://www.w3.org/1999/xlink" x="0px" y="0px"
	 width="2000px" height="2000px" viewBox="0 0 2000 2000" enable-background="new 0 0 2000 2000" xml:space="preserve">
<g>
	<path fill-rule="evenodd" clip-rule="evenodd" fill="#29292A" d="M899.69,1153.971c-4.885,4.255-10.833,5.205-17.003,5.462
		c-18.251-1.438-36.916-5.959-54.657-3.583c-26.07,3.487-51.88,1.321-77.768,1.835c-12.591,0.252-20.469-5.941-19.405-20.768
		c1.072-14.951,5.416-27.493,11.565-41.63c8.62-19.812,5.23-45.924-17.433-63.386c0,31.948-0.098,63.146,0.028,94.345
		c0.122,30.184-0.708,31.827-31.015,31.573c-18.369-0.147-42.714,8.487-43.995-28.02c-7.354,11.495-12.414,19.402-17.47,27.306
		c-16.14,4.882-21.817-7.158-30.342-24.115c-1.03,23.4-12.506,27.537-27.586,26.312c-4.406-0.4-8.806-1.067-13.215-1.155
		c-31.495-0.61-31.554-0.571-31.641-32.876c-0.111-40.815-0.115-81.631-0.166-122.441c17.129-18.255,66.704-15.27,79.273,4.778
		c1.571,2.506,3.136,5.026,4.546,7.624c8.289,15.262,14.834,23.422,27.89,1.9c14.538-23.958,46.002-32.175,72.53-24.515
		c9.811,2.832,9.958,11.646,15.022,19.302c1.033-16.722,11.875-19.612,24.372-19.8c17.034-0.257,34.128-1.02,51.085,0.101
		c10.048,0.662,25.978-5.602,28.21,9.455c2.199,14.834,8.056,31.966-6.282,45.736c-10.351,9.942-8.143,45.901,2.638,56.338
		c2.409,7.105,4.819,14.206,8.333,24.572c14.865-41.504,28.743-80.256,42.622-119.009c14.347-27.442,39.946-15.337,61.235-16.718
		c19.438-1.26,18.949,17.677,24.726,29.25c6.212,12.453,10.423,25.901,15.505,38.915c8.938,23.05,17.869,46.098,26.801,69.148
		c1.194-0.357,2.394-0.71,3.587-1.068c0-40.514,0-81.027,0-121.546c0.763-9.773,6.095-14.717,15.854-14.809
		c14.081-0.136,28.187,0.314,42.232-0.423c14.293-0.75,13.949,12.45,19.433,20.253c15.157-18.392,52.76-27.589,74.507-18.971
		c7.341,2.911,10.541,8.068,8.631,15.627c-0.872,3.448-2.555,7.271-5.074,9.63c-34.576,32.345-29.424,65.836-3.417,100.178
		c1.761,2.332,2.92,5.139,4.241,7.79c13.064,26.198,11.757,28.6-17.686,32.676c-21.669-5.1-51.264,9.891-59.615-29.541
		c-6.635,13.168-6.382,24.132-16.268,28.896c-4.504,0.161-9.003,0.322-13.501,0.487c-21.647,2.381-42.463-5.675-64.938-2.484
		c-19.163,2.716-41.294,9.259-59.789-11.281C929.838,1138.156,907.809,1133.339,899.69,1153.971z M761.738,1075.009
		c-4.403,14.02,6.848,31.568-13.723,43.988c-10.344,6.247,0.778,25.897,14.745,26.194c14.085,0.296,28.186,0.349,42.262-0.109
		c5.366-0.175,13.217,2.978,15.107-5.122c1.809-7.76,4.509-20.789-1.443-23.002c-18.993-7.075-12.499-22.093-11.403-33.127
		c1.683-16.982-10.046-36.416,11.948-51.093c10.735-7.166-0.076-25.911-14.518-26.229c-14.082-0.309-28.178-0.227-42.262-0.034
		c-5.75,0.078-12.842-0.981-15.016,6.312c-2.11,7.074-4.008,18.553,1.16,21.016C768.667,1043.379,758.03,1060.545,761.738,1075.009z
		 M921.9,1007.046c-24.518-5.78-21.253,6.146-14.026,22.222c7.605,16.909,13.311,34.665,20.659,51.7
		c5.026,11.656,7.221,19.853-10.395,19.62c-11.118-0.147-12.357,10.318-12.77,17.781c-0.611,10.977,9.171,6.19,14.904,7.314
		c9.198,1.806,23.72-3.809,26.82,5.293c7.419,21.773,23.914,12.161,36.909,14.167c12.829,1.979,15.086-3.038,10.056-15.052
		c-14.324-34.233-28.395-68.623-40.844-103.562C947.519,1010.559,939.644,1002.477,921.9,1007.046z M656.252,1022.276
		c-7.537,12.55-13.917,23.021-20.146,33.583c-4.87,8.256-8.974,11.43-14.816,0.271c-6.521-12.455-14.27-24.271-21.667-36.257
		c-6.968-11.281-38.217-19.022-49.195-12.618c-5.884,3.43-3.213,7.767-1.169,11.202c24.523,41.194,49.274,82.244,74.232,123.783
		C655.457,1107.799,665.389,1069.211,656.252,1022.276z M710.635,1078.701c0.286,0,0.569,0,0.854,0
		c0-19.237-0.58-38.496,0.157-57.702c0.813-21.251-14.935-13.827-24.85-14.32c-9.826-0.483-23.012-4.687-22.508,14.521
		c0.948,36.229,0.196,72.497,0.242,108.748c0.009,6.521-0.933,12.877,8.531,15.271c26.207,6.635,37.219-0.724,37.543-26.586
		C710.772,1105.322,710.635,1092.009,710.635,1078.701z M1025.531,1074.643c0,17.799,1.098,35.684-0.302,53.373
		c-1.504,19.02,10.166,17.359,22.458,17.276c12.899-0.087,24.809,1.943,23.854-18.418c-1.564-33.291-1.451-66.747-0.021-100.052
		c0.754-17.527-5.749-21.787-21.691-20.679c-13.487,0.933-27.279-2.39-24.699,19.599
		C1027.017,1041.836,1025.5,1058.326,1025.531,1074.643z M892.347,1017.581c-13.421,35.192-27.153,70.23-39.936,105.609
		c-2.333,6.456-10.588,18.604-1.263,20.327c12.644,2.332,33.102,10.894,39.525-5.941
		C905.315,1099.198,927.948,1059.481,892.347,1017.581z M1079.889,1123.549c26.321-38.653,48.841-71.601,71.168-104.678
		c3.161-4.677,8.295-11.634-2.978-12.053c-19.385-0.719-36.377-2.397-51.023,19.504
		C1077.422,1055.688,1078.782,1085.266,1079.889,1123.549z M542.25,1031.287c0,32.026,1.172,64.114-0.421,96.066
		c-1.026,20.614,11.44,17.119,23.858,18.147c14.964,1.238,19.816-3.745,21.257-19.259
		C590.669,1086.125,565.118,1060.196,542.25,1031.287z M1161.519,1145.205c-11.822-22.647-21.604-41.592-31.629-60.4
		c-1.867-3.497-4.979-10.633-8.92-6.238c-10.069,11.229-25.356,22.633-21.962,38.604c2.746,12.903,6.435,32.192,29.473,28.295
		C1137.813,1143.888,1147.64,1145.205,1161.519,1145.205z"/>
	<path fill-rule="evenodd" clip-rule="evenodd" fill="#9E9B9B" d="M511.733,940.136c-11.617,22.45-33.982,33.762-52.039,49.338
		c-44.612,38.482-90.207,75.827-139.084,116.703c0-25.724-0.277-46.848,0.05-67.963c1.138-73.305-2.709-146.651,1.728-219.92
		c30.63,19.419,61.257,38.827,91.885,58.234C445.284,899.992,476.18,923.633,511.733,940.136z"/>
	<path fill-rule="evenodd" clip-rule="evenodd" fill="#E21929" d="M414.273,876.527c-30.627-19.407-61.254-38.814-91.885-58.234
		c-0.477-2.258-0.952-4.507-1.432-6.761c5.054-6.595,2.813-14.285,2.879-21.482c0.381-42.214,0.458-84.428,0.638-126.643
		c26.286-15.069,52.861-29.668,78.698-45.475c8.667-5.301,15.404-6.713,24.262-1.19c27.458,17.127,57.951,29.172,83.401,49.721
		c-26.342,20.03-52.608,40.152-79.079,60.003c-8.793,6.591-13.353,13.962-13.509,25.868
		C417.703,793.743,415.714,835.133,414.273,876.527z"/>
	<path fill-rule="evenodd" clip-rule="evenodd" fill="#9E9B9B" d="M310.719,1118.514c-10.021,20.863-30.821,30.571-47.079,44.851
		c-37.099,32.59-75.015,64.255-112.569,96.268c-6.898-6.032-4.333-12.357-4.348-17.881c-0.173-66.11-0.242-132.223,0.061-198.333
		c0.035-7.694-3.459-16.446,3.984-23.025c8.64-2.128,12.747,5.019,18.738,8.731c19.501,12.079,36.266,28.728,58.884,35.641
		C254.425,1084.835,280.795,1104.395,310.719,1118.514z"/>
	<path fill-rule="evenodd" clip-rule="evenodd" fill="#E21929" d="M228.39,1064.765c-22.618-6.913-39.383-23.562-58.884-35.641
		c-5.991-3.713-10.098-10.859-18.738-8.731c-9.032-44.947-2.402-90.313-3.677-135.47c-0.094-3.291,1.879-5.122,4.723-6.748
		c23.697-13.544,46.656-28.221,71.508-39.951c12.14-5.729,12.354,6.377,19.337,8.326c25.139,7.01,48.716,18.893,67.753,37.855
		c-19.748,15.44-38.809,31.883-59.492,45.941c-13.679,9.298-20.26,19.686-20.209,36.408
		C230.813,999.421,229.257,1032.093,228.39,1064.765z"/>
	<path fill-rule="evenodd" clip-rule="evenodd" fill="#0B0304" d="M414.273,876.527c1.441-41.395,3.43-82.785,3.974-124.192
		c0.157-11.905,4.716-19.276,13.509-25.868c26.471-19.851,52.737-39.973,79.079-60.003c0.297,91.215,0.598,182.444,0.898,273.672
		C476.18,923.633,445.284,899.992,414.273,876.527z"/>
	<path fill-rule="evenodd" clip-rule="evenodd" fill="#29292A" d="M1556.075,1033.989c1.831-12.677,10.794-13.558,21.247-14.075
		c24.816-1.243,49.542,3.937,74.394,0.287c13.944-2.045,25.941,1.146,34.733,14.019c6.356,9.308,14.019,11.874,17.197-2.92
		c2.311-10.749,10.322-11.186,18.771-11.19c26.456-0.004,52.925-0.323,79.375,0.144c20.637,0.362,48.806,28.353,48.962,49.011
		c0.219,27.497,5.921,56.007-22.541,76.441c-11.521,8.274-21.608,14.778-35.696,13.632c-9.285-0.754-16.452,0.942-15.527,12.541
		c1.661,20.911-11.067,24.839-27.99,23.933c-5.898-0.337-11.913-1.574-17.676-0.846c-21.647,2.729-29.66-6.574-27.813-27.86
		c1.335-15.452-0.745-31.202,0.672-46.643c1.573-17.176-1.115-25.375-21.356-19.891c-11.045,2.994-24.197,2.912-35.296,0.008
		c-21.154-5.536-20.802,4.752-17.331,19.425c-3.039,16.277,7.101,40.789-24.508,39.215c-5.85-0.396-11.69-1.05-17.551-1.154
		c-29.93-0.532-31.315-1.993-31.39-31.164C1556.673,1095.933,1556.312,1064.961,1556.075,1033.989z M1762.975,1107.145
		c0-19.307-1.138-38.701,0.327-57.895c1.416-18.509-10.305-16.757-21.308-15.749c-10.018,0.916-25.239-7.092-24.852,14.29
		c0.715,39.354,0.797,78.739-0.009,118.089c-0.432,21.155,14.507,13.906,24.726,14.869c11.154,1.05,22.646,2.559,21.354-15.728
		C1761.858,1145.819,1762.909,1126.442,1762.975,1107.145z M1837.742,1088.057c0-5.925,0.236-11.857-0.043-17.764
		c-1.016-21.623-29.816-42.35-50.68-36.535c-8.527,2.376-14.451,7.947-15.746,16.621c-1.232,8.31,5.624,8.929,11.653,9.739
		c7.01,0.941,7.205,6.28,7.201,11.612c-0.009,11.844-0.157,23.688-0.096,35.528c0.034,6.456-0.824,12.139-9.129,11.969
		c-14.263-0.287-9.363,10.297-9.537,17.351c-0.271,10.627,8.286,8.077,14.438,8.451
		C1819.979,1147.105,1837.734,1127.581,1837.742,1088.057z M1615.596,1091.139c0-14.124-0.798-28.301,0.184-42.355
		c1.456-20.831-13.444-14.921-24.05-15.339c-10.623-0.414-22.917-3.605-21.94,15.213c1.229,23.723,1.495,47.634-0.062,71.316
		c-1.294,19.639,4.02,26.979,25.123,25.985c16.485-0.776,23.011-4.481,21.041-21.399
		C1614.61,1113.561,1615.652,1102.288,1615.596,1091.139z M1662.5,1087.109c27.769-0.061,31.508-3.709,27.323-24.559
		c-3.823-19.028-32.066-35.34-49.921-28.327c-6.94,2.726-13.113,8.034-15.14,15.22c-2.838,10.043,5.628,9.795,12.149,10.901
		c4.629,0.789,5.719,4.8,5.152,8.388C1638.987,1088.165,1650.678,1088.95,1662.5,1087.109z"/>
	<path fill-rule="evenodd" clip-rule="evenodd" fill="#0B0304" d="M228.39,1064.765c0.867-32.672,2.423-65.344,2.321-98.011
		c-0.051-16.722,6.53-27.109,20.209-36.408c20.684-14.059,39.745-30.501,59.492-45.941c0.1,78.029,0.202,156.066,0.307,234.109
		C280.795,1104.395,254.425,1084.835,228.39,1064.765z"/>
	<path fill-rule="evenodd" clip-rule="evenodd" fill="#29292A" d="M1381.525,1135.291c-11.918,7.499-19.023,21.897-34.603,24.137
		c-19.163-0.431-38.326-0.684-57.48-1.342c-28.958-0.989-53.975-26.617-54.236-55.34c-0.214-24.402-0.323-48.805-0.479-73.207
		c17.755-27.464,41.072-42.036,75.613-38.1c24.36,2.772,49.726-3.98,68.121,21.251c8.295,11.382,15.14,21.202,13.945,35.366
		c1.421,21.524-9.22,28.932-29.668,26.358c-8.762-1.103-17.795-0.265-26.696-0.1c-7.437,0.135-12.488-2.576-15.675-9.769
		c-2.516-5.693,4.141-18.404-8.393-16.129c-9.507,1.726-3.856,12.633-4.571,19.35c-0.935,8.811-0.463,17.781-0.385,26.684
		c0.026,2.815-0.226,6.564,3.566,7.074c2.567,0.345,7.428-0.375,7.729-1.543c7.389-28.321,30.192-14.852,46.186-15.951
		c25.637-1.752,35.288,14.434,25.018,38.322C1387.532,1126.961,1384.224,1130.993,1381.525,1135.291z M1296.431,1074.734
		c0-11.129,1.373-22.48-0.38-33.33c-1.856-11.518,8.579-27.768-6.573-33.893c-16.111-6.513-23.984,10.963-34.855,18.949
		c-6.099,4.477-6.073,11.295-6.012,18.161c0.188,20.778-0.096,41.563,0.136,62.344c0.244,21.355,17.07,29.708,32.362,37.555
		c8.247,4.232,15.64-0.388,15.457-11.905C1296.257,1113.326,1296.479,1094.028,1296.431,1074.734z M1329.016,1006.539
		c-2.973,0-5.946,0.088-8.915-0.017c-9.028-0.318-17.698-1.835-18.095,12.331c-0.384,13.945,7.61,13.083,17.022,13.196
		c5.323,0.061,14.844-1.557,13.91,6.726c-3.688,32.638,20.114,20.03,34.874,22.088c8.631,1.203,11.142-3.308,11.616-11.743
		C1380.793,1024.957,1359.124,1006.227,1329.016,1006.539z M1329.373,1145.218c17.55,5.144,30.566-6.836,43.626-19.678
		c6.875-6.761,8.692-15.675,5.118-22.341c-6.16-11.465-18.728-4.285-28.405-5.34c-5.754-0.628-16.233-3.26-15.618,6.704
		c1.067,17.294-9.899,15.283-19.979,14.591c-10.623-0.733-11.835,4.733-11.948,13.4c-0.126,9.698,3.584,13.652,13.125,12.724
		C1318.977,1144.916,1322.721,1145.218,1329.373,1145.218z"/>
	<path fill-rule="evenodd" clip-rule="evenodd" fill="#29292A" d="M1411.003,1041.238c29.965-27.571,91.843-31.086,118.577-6.734
		c4.604,10.566,19.529,14.136,19.15,28.051c-0.785,28.715,8.461,59.942-20.322,81.695c-7.25,7.035-14.189,14.604-25.375,14.982
		c-18.335-0.453-36.669-0.78-54.999-1.396c-17.812-0.597-48.374-26.416-49.128-44.005c-0.912-21.104-3.414-42.586,3.037-63.453
		l1.096-1.237C1405.693,1046.509,1408.348,1043.871,1411.003,1041.238z M1537.427,1090.335c0.039-31.302-3.156-38.944-23.778-52.863
		c-10.646-7.188-24.891-7.72-33.335-1.429c-7.76,5.788-4.717,17.191,5.169,25.557c7.733,6.548,4.447,50.65-3.67,57.458
		c-7.603,6.374-5.258,13.593-4.228,20.018c1.534,9.582,10.579,5.776,16.473,5.897
		C1519.363,1145.483,1537.383,1122.484,1537.427,1090.335z M1410.941,1092.232c-7.297,21.704,8.509,36.289,25.092,49.066
		c9.607,7.406,23.221,7.171,33.086,0.483c4.847-3.287,4.219-14.093-0.436-20.431c-14.115-19.207-14.918-46.233-0.768-63.844
		c4.926-6.125,3.548-12.703,2.157-18.898c-1.5-6.703-8.017-4.912-12.96-5.256
		C1428.256,1031.344,1412.934,1049.892,1410.941,1092.232z"/>
	<path fill-rule="evenodd" clip-rule="evenodd" fill="#9E9B9B" d="M624.193,861.719c-25.252,29.346-57.245,50.889-87.257,74.638
		c-11.764,9.311-11.144-1.962-11.131-9.172c0.089-43.866,0.362-87.728,0.576-131.577c16.957,9.32,30.122,25.24,50.331,28.862
		C586.937,844.025,611.454,845.368,624.193,861.719z"/>
	<path fill-rule="evenodd" clip-rule="evenodd" fill="#E21929" d="M576.711,824.47c-20.209-3.622-33.374-19.542-50.331-28.862
		c-0.312-17.737,0.522-35.57-1.243-53.142c-1.824-18.147,6.212-26.861,21.092-36.264c21.608-13.657,40.161-15.689,60.361,0.51
		c6.198,4.974,13.448,8.636,20.222,12.912c-38.461,20.811-57.199,51.543-48.701,96.194
		C578.627,818.516,577.223,821.576,576.711,824.47z"/>
	<path fill-rule="evenodd" clip-rule="evenodd" fill="#AEB0AF" d="M632.539,1157.105c5.056-7.903,10.115-15.811,17.47-27.306
		c1.281,36.507,25.625,27.872,43.995,28.02c30.307,0.254,31.137-1.39,31.015-31.573c-0.126-31.198-0.028-62.396-0.028-94.345
		c22.663,17.462,26.053,43.574,17.433,63.386c-6.149,14.137-10.493,26.679-11.565,41.63c-1.064,14.826,6.813,21.02,19.405,20.768
		c25.887-0.514,51.697,1.652,77.768-1.835c17.742-2.376,36.406,2.145,54.657,3.583c-5.042,16.534-18.81,17.99-32.167,16.447
		c-35.938-4.158-71.724,1.124-107.573,0.344c-9.645-0.209-19.014,0.258-27.103-6.834c-4.386-3.846-9.641-6.352-15.709-1.007
		c-16.673,14.686-36.509,6.726-55.023,6.32C635.411,1174.489,632.079,1166.342,632.539,1157.105z"/>
	<path fill-rule="evenodd" clip-rule="evenodd" fill="#0B0304" d="M576.711,824.47c0.512-2.894,1.916-5.954,1.401-8.652
		c-8.498-44.651,10.24-75.383,48.701-96.194c0.412,44.869,0.891,89.747,1.076,134.629c0.011,2.484-2.408,4.978-3.696,7.467
		C611.454,845.368,586.937,844.025,576.711,824.47z"/>
	<path fill-rule="evenodd" clip-rule="evenodd" fill="#AEB0AF" d="M1234.727,1029.539c0.156,24.402,0.266,48.805,0.479,73.207
		c0.262,28.723,25.278,54.351,54.236,55.34c19.154,0.658,38.317,0.911,57.48,1.342c-1.447,9.69-8.944,14.499-16.861,15.259
		c-25.632,2.448-51.612,4.219-76.987-1.017c-19.106-3.945-39.429-32.624-39.567-52.401c-0.131-19.193,0.53-38.409-0.232-57.572
		C1212.608,1046.927,1218.245,1035.075,1234.727,1029.539z"/>
	<path fill-rule="evenodd" clip-rule="evenodd" fill="#AEB0AF" d="M1401.943,1050.379c-6.451,20.867-3.949,42.35-3.037,63.453
		c0.754,17.589,31.316,43.408,49.128,44.005c18.33,0.615,36.664,0.942,54.999,1.396c-6.683,22.873-26.966,13.945-41.15,16.037
		c-41.539,6.125-69.517-8.901-80.357-39.979c2.698-4.298,6.007-8.33,7.991-12.938c10.271-23.889,0.619-40.074-25.018-38.322
		c-15.993,1.1-38.797-12.37-46.186,15.951c-0.301,1.168-5.161,1.888-7.729,1.543c-3.792-0.51-3.54-4.259-3.566-7.074
		c-0.078-8.902-0.55-17.873,0.385-26.684c0.715-6.717-4.936-17.624,4.571-19.35c12.533-2.275,5.877,10.436,8.393,16.129
		c3.187,7.192,8.238,9.903,15.675,9.769c8.901-0.165,17.935-1.003,26.696,0.1c20.448,2.573,31.089-4.834,29.668-26.358
		C1395.584,1048.828,1398.766,1049.604,1401.943,1050.379z"/>
	<path fill-rule="evenodd" clip-rule="evenodd" fill="#AEB0AF" d="M529.588,1002.829c0.05,40.811,0.055,81.626,0.166,122.441
		c0.087,32.305,0.146,32.266,31.641,32.876c4.41,0.088,8.81,0.755,13.215,1.155c-9.595,28.436-33.378,15.933-51.072,15.78
		c-17.297-0.144-15.31-16.561-15.318-29.11c-0.026-35.526,0.722-71.076-0.32-106.573
		C507.378,1021.652,516.06,1011.273,529.588,1002.829z"/>
	<path fill-rule="evenodd" clip-rule="evenodd" fill="#AEB0AF" d="M899.69,1153.971c8.119-20.632,30.147-15.814,36.601-8.648
		c18.495,20.54,40.626,13.997,59.789,11.281c22.476-3.19,43.291,4.865,64.938,2.484c1.189,11.077-6.983,15.76-14.848,14.996
		c-36.538-3.544-72.776,2.215-109.162,2.01C920.228,1176.002,912.941,1159.973,899.69,1153.971z"/>
	<path fill-rule="evenodd" clip-rule="evenodd" fill="#AEB0AF" d="M1528.408,1144.25c28.783-21.753,19.537-52.98,20.322-81.695
		c0.379-13.915-14.547-17.484-19.15-28.051c8.862,1.285,17.72,2.48,26.495-0.515c0.236,30.972,0.598,61.943,0.676,92.911
		c0.074,29.171,1.46,30.632,31.39,31.164c5.86,0.104,11.701,0.759,17.551,1.154c-0.436,12.847-7.071,18.409-19.808,17.037
		c-2.895-0.314-5.938-0.576-8.744-0.022C1550.369,1181.503,1534.916,1169.737,1528.408,1144.25z"/>
	<path fill-rule="evenodd" clip-rule="evenodd" fill="#AEB0AF" d="M1011.681,1007.294c0,40.519,0,81.032,0,121.546
		c-1.193,0.358-2.393,0.711-3.587,1.068c-8.932-23.051-17.863-46.099-26.801-69.148c13.444-0.263,7.764-8.637,6.836-15.472
		C984.873,1021.382,991.084,1011.565,1011.681,1007.294z"/>
	<path fill-rule="evenodd" clip-rule="evenodd" fill="#AEB0AF" d="M879.827,1009.313c-13.879,38.753-27.757,77.505-42.622,119.009
		c-3.513-10.366-5.924-17.467-8.333-24.572c8.779-24.747,18.158-49.307,26.094-74.32
		C859.084,1016.456,866.098,1009.313,879.827,1009.313z"/>
	<path fill-rule="evenodd" clip-rule="evenodd" fill="#AEB0AF" d="M1074.52,1158.601c9.886-4.765,9.633-15.729,16.268-28.896
		c8.352,39.432,37.946,24.441,59.615,29.541c0.367,3.465,2.39,8.51,0.838,10.148
		C1137.491,1183.853,1083.56,1175.967,1074.52,1158.601z"/>
	<path fill-rule="evenodd" clip-rule="evenodd" fill="#9E9B9B" d="M324.474,663.408c-0.181,42.214-0.257,84.428-0.638,126.643
		c-0.066,7.197,2.175,14.887-2.879,21.482c-3.828-47.175-1.165-94.424-1.289-141.638C319.662,667.736,322.8,665.57,324.474,663.408z
		"/>
	<path fill-rule="evenodd" clip-rule="evenodd" fill="#AEB0AF" d="M1411.003,1041.238c-2.655,2.633-5.31,5.271-7.964,7.903
		C1401.7,1042.485,1404.56,1040.058,1411.003,1041.238z"/>
	<path fill-rule="evenodd" clip-rule="evenodd" fill="#AEB0AF" d="M761.738,1075.009c-3.708-14.464,6.929-31.63-13.143-41.207
		c-5.168-2.463-3.27-13.941-1.16-21.016c2.173-7.293,9.266-6.233,15.016-6.312c14.084-0.192,28.18-0.274,42.262,0.034
		c14.442,0.318,25.253,19.063,14.518,26.229c-21.994,14.677-10.265,34.11-11.948,51.093c-1.095,11.034-7.59,26.052,11.403,33.127
		c5.952,2.213,3.252,15.242,1.443,23.002c-1.89,8.1-9.741,4.947-15.107,5.122c-14.076,0.458-28.177,0.405-42.262,0.109
		c-13.966-0.297-25.089-19.947-14.745-26.194C768.586,1106.577,757.335,1089.028,761.738,1075.009z"/>
	<path fill-rule="evenodd" clip-rule="evenodd" fill="#AEB0AF" d="M921.9,1007.046c17.744-4.569,25.619,3.513,31.313,19.484
		c12.45,34.938,26.52,69.328,40.844,103.562c5.03,12.014,2.773,17.03-10.056,15.052c-12.995-2.006-29.49,7.606-36.909-14.167
		c-3.1-9.102-17.622-3.487-26.82-5.293c-5.733-1.124-15.515,3.662-14.904-7.314c0.413-7.463,1.652-17.929,12.77-17.781
		c17.616,0.232,15.42-7.964,10.395-19.62c-7.348-17.035-13.054-34.791-20.659-51.7
		C900.647,1013.191,897.382,1001.266,921.9,1007.046z"/>
	<path fill-rule="evenodd" clip-rule="evenodd" fill="#AEB0AF" d="M656.252,1022.276c9.137,46.935-0.795,85.522-32.761,119.964
		c-24.958-41.539-49.709-82.589-74.232-123.783c-2.044-3.436-4.715-7.772,1.169-11.202c10.978-6.404,42.227,1.337,49.195,12.618
		c7.397,11.985,15.146,23.802,21.667,36.257c5.843,11.159,9.947,7.985,14.816-0.271
		C642.335,1045.297,648.715,1034.826,656.252,1022.276z"/>
	<path fill-rule="evenodd" clip-rule="evenodd" fill="#AEB0AF" d="M710.635,1078.701c0,13.308,0.138,26.621-0.03,39.931
		c-0.324,25.862-11.336,33.221-37.543,26.586c-9.463-2.394-8.522-8.749-8.531-15.271c-0.046-36.251,0.706-72.519-0.242-108.748
		c-0.503-19.207,12.683-15.004,22.508-14.521c9.915,0.493,25.663-6.931,24.85,14.32c-0.737,19.206-0.157,38.465-0.157,57.702
		C711.204,1078.701,710.92,1078.701,710.635,1078.701z"/>
	<path fill-rule="evenodd" clip-rule="evenodd" fill="#AEB0AF" d="M1025.514,1074.643c-0.014-16.316,1.503-32.807-0.385-48.9
		c-2.58-21.988,11.212-18.666,24.699-19.599c15.942-1.108,22.445,3.151,21.691,20.679c-1.43,33.305-1.543,66.761,0.021,100.052
		c0.955,20.361-10.954,18.331-23.854,18.418c-12.292,0.083-23.962,1.743-22.458-17.276
		C1026.629,1110.326,1025.531,1092.441,1025.514,1074.643z"/>
	<path fill-rule="evenodd" clip-rule="evenodd" fill="#AEB0AF" d="M892.347,1017.581c35.602,41.9,12.969,81.617-1.674,119.995
		c-6.423,16.835-26.881,8.273-39.525,5.941c-9.326-1.723-1.07-13.871,1.263-20.327
		C865.194,1087.812,878.925,1052.773,892.347,1017.581z"/>
	<path fill-rule="evenodd" clip-rule="evenodd" fill="#AEB0AF" d="M1079.889,1123.549c-1.106-38.283-2.467-67.86,17.167-97.227
		c14.646-21.901,31.639-20.223,51.023-19.504c11.272,0.419,6.139,7.376,2.978,12.053
		C1128.729,1051.948,1106.21,1084.896,1079.889,1123.549z"/>
	<path fill-rule="evenodd" clip-rule="evenodd" fill="#AEB0AF" d="M542.25,1031.287c22.868,28.909,48.419,54.838,44.694,94.955
		c-1.441,15.514-6.293,20.497-21.257,19.259c-12.417-1.028-24.884,2.467-23.858-18.147
		C543.422,1095.401,542.25,1063.313,542.25,1031.287z"/>
	<path fill-rule="evenodd" clip-rule="evenodd" fill="#AEB0AF" d="M1161.519,1145.205c-13.879,0-23.705-1.317-33.038,0.261
		c-23.038,3.897-26.727-15.392-29.473-28.295c-3.395-15.972,11.893-27.375,21.962-38.604c3.94-4.395,7.053,2.741,8.92,6.238
		C1139.915,1103.613,1149.696,1122.558,1161.519,1145.205z"/>
	<path fill-rule="evenodd" clip-rule="evenodd" fill="#AEB0AF" d="M1762.943,1107.145c-0.034,19.298-1.085,38.675,0.271,57.877
		c1.291,18.286-10.2,16.777-21.354,15.728c-10.219-0.963-25.157,6.286-24.726-14.869c0.806-39.35,0.724-78.735,0.009-118.089
		c-0.388-21.382,14.834-13.374,24.852-14.29c11.003-1.008,22.724-2.76,21.308,15.749
		C1761.837,1068.443,1762.975,1087.838,1762.943,1107.145z"/>
	<path fill-rule="evenodd" clip-rule="evenodd" fill="#AEB0AF" d="M1837.747,1088.057c-0.013,39.524-17.768,59.049-51.943,56.973
		c-6.151-0.374-14.708,2.176-14.438-8.451c0.174-7.054-4.726-17.638,9.537-17.351c8.305,0.17,9.163-5.513,9.129-11.969
		c-0.062-11.84,0.087-23.685,0.096-35.528c0.004-5.332-0.191-10.671-7.201-11.612c-6.029-0.811-12.886-1.43-11.653-9.739
		c1.295-8.674,7.219-14.245,15.746-16.621c20.863-5.814,49.664,14.912,50.68,36.535
		C1837.979,1076.199,1837.742,1082.132,1837.747,1088.057z"/>
	<path fill-rule="evenodd" clip-rule="evenodd" fill="#AEB0AF" d="M1615.622,1091.139c0.03,11.149-1.012,22.422,0.27,33.421
		c1.97,16.918-4.556,20.623-21.041,21.399c-21.104,0.993-26.417-6.347-25.123-25.985c1.557-23.683,1.291-47.594,0.062-71.316
		c-0.977-18.818,11.317-15.627,21.94-15.213c10.605,0.418,25.506-5.492,24.05,15.339
		C1614.798,1062.838,1615.596,1077.015,1615.622,1091.139z"/>
	<path fill-rule="evenodd" clip-rule="evenodd" fill="#AEB0AF" d="M1662.5,1087.109c-11.822,1.841-23.513,1.056-20.436-18.377
		c0.566-3.588-0.523-7.599-5.152-8.388c-6.521-1.106-14.987-0.858-12.149-10.901c2.026-7.186,8.199-12.494,15.14-15.22
		c17.854-7.013,46.098,9.299,49.921,28.327C1694.008,1083.4,1690.269,1087.049,1662.5,1087.109z"/>
	<path fill-rule="evenodd" clip-rule="evenodd" fill="#AEB0AF" d="M1296.452,1074.734c0.026,19.294-0.195,38.592,0.113,57.881
		c0.183,11.518-7.21,16.138-15.457,11.905c-15.292-7.847-32.118-16.199-32.362-37.555c-0.231-20.78,0.053-41.565-0.136-62.344
		c-0.062-6.866-0.087-13.685,6.012-18.161c10.871-7.986,18.744-25.462,34.855-18.949c15.152,6.125,4.717,22.375,6.573,33.893
		C1297.804,1052.254,1296.431,1063.605,1296.452,1074.734z"/>
	<path fill-rule="evenodd" clip-rule="evenodd" fill="#AEB0AF" d="M1329.016,1006.514c30.108-0.287,51.777,18.443,50.413,42.606
		c-0.475,8.436-2.985,12.946-11.616,11.743c-14.76-2.058-38.562,10.55-34.874-22.088c0.934-8.282-8.587-6.665-13.91-6.726
		c-9.412-0.113-17.406,0.749-17.022-13.196c0.396-14.166,9.066-12.649,18.095-12.331
		C1323.069,1006.627,1326.043,1006.539,1329.016,1006.514z"/>
	<path fill-rule="evenodd" clip-rule="evenodd" fill="#AEB0AF" d="M1329.373,1145.218c-6.652,0-10.396-0.302-14.081,0.061
		c-9.541,0.929-13.251-3.025-13.125-12.724c0.113-8.667,1.325-14.134,11.948-13.4c10.079,0.692,21.046,2.703,19.979-14.591
		c-0.615-9.964,9.864-7.332,15.618-6.704c9.678,1.055,22.245-6.125,28.405,5.34c3.574,6.666,1.757,15.58-5.118,22.341
		C1359.939,1138.382,1346.923,1150.361,1329.373,1145.218z"/>
	<path fill-rule="evenodd" clip-rule="evenodd" fill="#AEB0AF" d="M1537.427,1090.335c-0.044,32.149-18.063,55.148-43.369,54.638
		c-5.894-0.121-14.938,3.685-16.473-5.897c-1.03-6.425-3.375-13.644,4.228-20.018c8.117-6.808,11.403-50.91,3.67-57.458
		c-9.886-8.365-12.929-19.769-5.169-25.557c8.444-6.291,22.688-5.759,33.335,1.429
		C1534.271,1051.391,1537.466,1059.033,1537.427,1090.335z"/>
	<path fill-rule="evenodd" clip-rule="evenodd" fill="#AEB0AF" d="M1410.941,1092.232c1.992-42.341,17.314-60.889,46.172-58.879
		c4.943,0.344,11.46-1.447,12.96,5.256c1.391,6.195,2.769,12.773-2.157,18.898c-14.15,17.61-13.348,44.637,0.768,63.844
		c4.654,6.338,5.282,17.144,0.436,20.431c-9.865,6.688-23.479,6.923-33.086-0.483
		C1419.45,1128.521,1403.645,1113.937,1410.941,1092.232z"/>
</g>
</svg>
