<?xml version="1.0" encoding="utf-8"?>
<!-- Generator: Adobe Illustrator 16.0.0, SVG Export Plug-In . SVG Version: 6.00 Build 0)  -->
<!DOCTYPE svg PUBLIC "-//W3C//DTD SVG 1.1//EN" "http://www.w3.org/Graphics/SVG/1.1/DTD/svg11.dtd">
<svg version="1.1" id="Layer_1" xmlns="http://www.w3.org/2000/svg" xmlns:xlink="http://www.w3.org/1999/xlink" x="0px" y="0px"
	 width="2000px" height="2000px" viewBox="0 0 2000 2000" enable-background="new 0 0 2000 2000" xml:space="preserve">
<g>
	<path fill-rule="evenodd" clip-rule="evenodd" fill="#FFE401" d="M1167.506,203.03c-2.986-0.698-5.205-2.803-7.714-4.331
		c-15.574-9.481-31.834-17.488-48.954-23.814c-16.137-5.962-32.648-10.415-49.58-13.362c-12.635-2.199-25.348-3.583-38.173-4.135
		c-6.291-0.271-12.577-0.764-18.874-0.598c-12.233,0.323-24.45,0.99-36.608,2.457c-11.255,1.358-22.394,3.359-33.422,6.001
		c-15.255,3.654-30.095,8.55-44.523,14.701c-1.045,0.446-2.139,0.779-3.21,1.165c-1.442-4.888-4.01-9.112-7.179-13.096
		c-1.967-2.473-4.482-4.549-5.665-7.669c-1.469-3.875-3.597-7.418-6.782-10.134c-3.512-2.995-5.35-7.016-7.255-11.026
		c6.121-3.384,12.646-5.861,19.123-8.43c12.762-5.062,25.831-9.194,39.124-12.62c15.322-3.949,30.892-6.57,46.582-8.449
		c6.579-0.788,13.229-0.96,19.831-1.579c10.185-0.954,20.388-0.64,30.586-0.641c7.672-0.001,15.31,0.688,22.96,1.26
		c8.341,0.625,16.637,1.518,24.895,2.747c16.879,2.513,33.479,6.259,49.804,11.291c31.853,9.817,61.398,24.328,88.854,43.165
		c0.273,0.188,0.479,0.474,0.715,0.714c-1.433,1.787-3.192,3.314-4.327,5.333c-0.871,1.549-2.154,2.606-3.604,3.592
		c-3.83,2.607-7.056,5.863-9.62,9.725c-0.971,1.462-2.085,2.666-3.55,3.66c-2.469,1.675-4.846,3.534-6.668,5.914
		C1172.119,197.682,1170.027,200.53,1167.506,203.03z"/>
	<path fill-rule="evenodd" clip-rule="evenodd" fill="#161515" d="M1052.995,1638.1c-0.512,0.743-0.853,1.204-1.158,1.688
		c-3.505,5.538-8.647,7.982-15.078,7.987c-7.692,0.007-15.385,0.003-23.077,0.004c-10.563,0-21.125-0.028-31.688,0.018
		c-2.886,0.013-5.73-0.301-8.56-0.761c-5.608-0.913-10.204-3.4-12.806-8.583c-0.918-0.171-1.074,0.45-1.358,0.922
		c-2.852,4.74-7.01,7.479-12.524,8.058c-5.951,0.623-11.948,0.732-17.864,0.047c-6.106-0.707-11.362-3.377-14.618-8.774
		c-0.374,0.048-0.547,0.021-0.582,0.08c-4.224,6.978-10.739,9.21-18.476,9.007c-3.098-0.081-6.202,0.07-9.299-0.032
		c-5.5-0.184-10.538-1.773-15.041-5.806c-0.486,3.661-0.266,6.836-0.736,9.972c-2.506,16.707-11.957,27.199-28.225,31.32
		c-11.108,2.813-22.3,2.613-33.267-0.964c-16.522-5.388-24.039-18.192-25.48-32.64c-1.572-15.76,3.101-29.91,11.615-42.976
		c1.503-2.306,1.996-2.372,4.433-0.898c1.472,0.889,2.906,1.842,4.333,2.803c2.206,1.484,2.321,1.797,0.902,4.126
		c-2.81,4.615-5.243,9.419-7.209,14.442c-2.679,6.848-3.726,13.944-2.714,21.271c1.672,12.111,8.736,19.679,20.183,23.176
		c8.749,2.672,17.674,2.637,26.504,0.243c10.518-2.85,17.348-11.142,18.413-22.007c0.257-2.631,0.374-5.261,0.37-7.905
		c-0.022-16.533-0.012-33.064-0.01-49.598c0-0.918,0.005-1.837,0.032-2.755c0.032-1.062,0.546-1.718,1.64-1.848
		c0.228-0.026,0.456-0.05,0.684-0.075c8.22-0.898,8.443-0.7,8.443,7.495c0,8.381,0.004,16.762-0.003,25.143
		c-0.001,1.725,0.087,3.431,0.38,5.14c0.577,3.363,2.314,5.93,5.083,7.857c1.81,1.259,3.796,2.191,5.92,2.676
		c5.669,1.291,11.386,1.239,17.087,0.189c3.264-0.601,5.229-2.604,6.03-5.84c0.616-2.49,0.538-5.016,0.546-7.532
		c0.032-9.989,0.013-19.977,0.013-29.966c0-0.689-0.026-1.379,0.006-2.066c0.121-2.604,0.478-3,3.005-3.101
		c1.605-0.064,3.216-0.06,4.822-0.002c2.71,0.098,2.938,0.336,3.007,3c0.039,1.491,0.007,2.985,0.008,4.478
		c0,9.185,0.09,18.371-0.031,27.554c-0.08,6.065,2.712,10.021,8.224,12.178c6.864,2.686,13.933,2.508,21.006,1.139
		c2.833-0.548,4.518-2.593,5.254-5.358c0.625-2.346,0.767-4.751,0.769-7.168c0.013-16.418,0.03-32.836,0.045-49.253
		c0.001-0.804,0.022-1.608,0.005-2.411c-0.031-1.447,0.773-2.122,2.11-2.152c2.18-0.05,4.362-0.031,6.543,0.001
		c1.389,0.021,2.083,0.824,2.154,2.168c0.048,0.916,0.034,1.837,0.034,2.755c0.001,15.729,0.16,31.46-0.062,47.186
		c-0.122,8.592,4.688,12.496,11.251,14.262c2.102,0.566,4.266,0.824,6.47,0.821c18.14-0.025,36.279-0.01,54.42-0.025
		c1.141-0.001,2.304-0.054,3.42-0.27c3.124-0.605,5.063-2.517,5.819-5.61c0.687-2.811,0.793-5.674,0.792-8.549
		c-0.006-15.729-0.003-31.458-0.003-47.187c0-0.689-0.009-1.378,0.002-2.067c0.051-3.242,0.263-3.514,3.561-3.507
		c8.421,0.018,7.13-0.816,7.163,7.09c0.059,14.236,0.016,28.473,0.018,42.709c0,1.033-0.017,2.068,0.04,3.099
		c0.411,7.456,3.761,11.595,10.984,13.446c1.993,0.511,4.026,0.866,6.119,0.865c22.158-0.021,44.316-0.013,66.475-0.017
		c0.337,0,0.674-0.06,1.032-0.094c0.273-1.045-0.505-1.704-0.894-2.479c-3.181-6.349-4.742-13.105-5.323-20.153
		c-0.609-7.376-0.349-14.701,1.353-21.895c4.176-17.659,17.493-27.3,35.614-25.958c2.748,0.203,5.486,0.504,8.152,1.237
		c8.735,2.4,14.936,7.758,18.621,16.029c2.219,4.98,3.352,10.241,3.809,15.637c0.761,8.961,0.636,17.89-1.721,26.65
		c-3.349,12.449-11.604,19.64-24.43,21.463c-2.511,0.357-5.013,0.537-7.543,0.536c-30.884-0.008-61.768-0.011-92.651,0.004
		c-3.802,0.001-7.534-0.431-11.265-1.188c-4.581-0.929-7.99-3.293-10.175-7.428C1053.696,1638.89,1053.448,1638.663,1052.995,1638.1
		z M1191.364,1608.287c-0.222-6.833-0.786-13.431-3.726-19.594c-1.933-4.052-4.611-7.363-8.704-9.399
		c-12.604-6.271-26.686-0.66-31.483,12.505c-2.126,5.835-2.398,11.874-2.204,17.977c0.172,5.415,0.856,10.737,3.001,15.783
		c2.313,5.438,6.357,8.886,12.029,10.401c4.273,1.144,8.646,1.164,12.986,0.579c8.965-1.209,14.433-6.325,16.596-15.11
		C1190.939,1617.047,1191.145,1612.596,1191.364,1608.287z"/>
	<path fill-rule="evenodd" clip-rule="evenodd" fill="#B70202" d="M840.201,986.917c-2.138-5.35-2.822-11.005-3.473-16.662
		c-0.734-6.373-0.921-12.765-0.464-19.166c1.106-15.465,4.924-29.973,15.071-42.205c2.783-3.355,5.917-6.368,9.294-9.126
		c0.512-0.417,1.026-0.831,1.741-1.409c-2.967-2.807-5.964-5.266-8.412-8.26c0.352-1.888,1.291-3.343,2.994-4.323
		c0.677-0.39,1.247-0.979,1.83-1.517c3.313-3.055,5.907-6.868,9.863-9.255c0.755-0.455,1.462-1.17,1.905-1.932
		c1.9-3.269,5.143-5.042,7.926-7.327c5.065,5.304,11.015,9.258,17.995,11.55c7.316,2.402,14.854,3.755,22.548,3.765
		c45.278,0.056,90.557,0.027,135.835,0.031c1.259,0,2.518,0.058,3.776,0.089c-0.023,0.227,0.029,0.504-0.082,0.673
		c-2.264,3.444-4.476,6.908-5.497,10.979c-0.104,0.416-0.446,0.794-0.738,1.138c-2.105,2.477-3.686,5.25-4.518,8.389
		c-0.309,1.166-0.933,2.125-1.631,2.982c-1.758,2.16-3.135,4.509-4.014,7.135c-0.396,1.184-1.153,1.616-2.313,1.599
		c-0.916-0.014-1.834,0.005-2.751,0.005c-38.739,0-77.479-0.005-116.22,0.021c-1.333,0.001-2.746-0.416-4.002,0.429
		c-6.126,0.658-12.264,1.313-18.177,3.14c-8.712,2.691-16.373,6.985-21.808,14.622c-3.947,5.544-6.084,11.8-6.776,18.447
		c-0.721,6.942-0.574,13.902,1.029,20.801c2.806,12.069,9.853,20.607,20.938,25.941c0.402,0.193,0.785,0.428,1.176,0.645
		c-2.738,0.27-5.456,0.168-8.169-0.334c-1.793-0.332-3.609-0.581-5.434-0.171c-5.636,1.266-11.304,1.22-16.992,0.436
		c-6.827-1.495-13.185-4.034-18.787-8.312c-1.157-0.884-2.004-2.204-3.533-2.578c0,0-0.098-0.162-0.097-0.161
		S840.201,986.917,840.201,986.917z"/>
	<path fill-rule="evenodd" clip-rule="evenodd" fill="#FFE401" d="M717.483,534.014c1.202,3.935,2.415,7.867,3.604,11.805
		c5.177,17.149,11.976,33.641,20.42,49.427c10.298,19.251,22.496,37.226,36.829,53.726c0.521,0.599,0.92,1.303,1.375,1.958
		c-0.288,0.37-0.633,0.617-1.117,0.711c-3.929,0.768-7.698,1.972-11.188,3.992c-0.676,0.391-1.504,0.727-2.265,0.73
		c-5.299,0.03-9.885,3.573-15.282,3.068c-0.207-0.019-0.426,0.195-0.646,0.21c-3.335,0.231-6.303,1.872-9.568,2.445
		c-3.905,0.686-7.928,0.67-11.733,1.956c-0.416,0.141-0.908,0.055-1.364,0.075c-4.972-5.862-9.059-12.358-13.228-18.779
		c-10.433-16.065-19.522-32.859-27.098-50.473c-4.524-10.521-8.537-21.216-11.998-32.131c-4.147-13.08-7.441-26.367-9.929-39.853
		c-0.807-4.376-1.728-8.741-2.059-13.192c0.442,0.111,0.952,0.116,1.313,0.349c6.941,4.479,15.433,5.807,22.093,10.869
		c0.614,0.466,1.461,0.663,2.229,0.88c4.746,1.344,9.286,3.103,13.409,5.904c1.301,0.884,2.893,1.397,4.414,1.889
		C709.698,530.874,713.891,531.64,717.483,534.014z"/>
	<path fill-rule="evenodd" clip-rule="evenodd" fill="#8AFAFF" d="M805.998,1086.246c1.249,0.07,1.638,1.085,2.182,1.954
		c7.347,11.736,14.67,23.488,22.062,35.197c10.139,16.06,20.462,32.005,30.424,48.174c3.226,5.234,6.029,10.757,9.599,15.769
		c6.373,8.948,11.936,18.411,17.972,27.571c0.175,0.267,0.171,0.651,0.25,0.98c-1.749,0.322-1.358,1.482-1.05,2.637
		c1.061,3.969,2.246,7.911,3.132,11.919c1.918,8.675,3.74,17.372,5.488,26.082c1.638,8.166,3.282,16.343,2.813,24.756
		c-0.031,0.561,0.014,1.172,0.208,1.691c1.276,3.411,1.265,6.961,1.144,10.511c-0.176,5.111,0.394,10.206,0.073,15.333
		c-0.32,5.116,0.365,10.313-1.546,15.264c-2.513-2.42-3.908-5.614-5.691-8.508c-7.994-12.964-16.031-25.896-24.249-38.72
		c-8.46-13.2-16.761-26.502-25.167-39.738c-2.385-3.756-5.054-7.336-6.928-11.401c1.255-1.049,0.666-2.216,0.309-3.445
		c-3.844-13.245-6.677-26.746-10.07-40.106c-2.552-10.047-5.157-20.08-7.897-30.073c-3.228-11.77-6.909-23.415-10.214-35.165
		c-0.921-3.274-1.968-6.56-2.295-9.984c-0.389-4.077-0.764-8.159-1.691-12.155C804.154,1091.768,804.149,1088.897,805.998,1086.246z
		"/>
	<path fill-rule="evenodd" clip-rule="evenodd" fill="#F5D016" d="M859.567,139.19c1.905,4.011,3.743,8.031,7.255,11.026
		c3.185,2.716,5.313,6.259,6.782,10.134c1.183,3.12,3.698,5.196,5.665,7.669c3.168,3.983,5.737,8.208,7.179,13.096
		c-5.299,2.629-10.638,5.183-15.889,7.903c-15.269,7.912-29.625,17.259-43.221,27.778c-8.51,6.583-16.627,13.621-24.42,21.042
		c-9.201,8.763-17.927,17.965-26.061,27.727c-0.36,0.433-0.828,0.776-1.245,1.162c-0.923-3.384-1.759-6.735-4.197-9.533
		c-3.769-4.326-6.807-9.145-8.21-14.811c-0.485-1.959-1.732-3.46-2.855-5.023c-0.598-0.832-1.169-1.679-1.762-2.51
		c-2.438-3.412-3.614-7.354-4.861-11.263c-0.519-1.625-1.134-3.006-3.068-3.207c3.762-5.086,8.573-9.183,13.001-13.627
		c15.134-15.191,31.609-28.8,49.265-40.961c14.612-10.065,29.949-18.893,45.97-26.526
		C859.086,139.175,859.341,139.213,859.567,139.19z"/>
	<path fill-rule="evenodd" clip-rule="evenodd" fill="#FFF286" d="M1167.506,203.03c2.521-2.5,4.613-5.348,6.766-8.159
		c1.822-2.38,4.199-4.239,6.668-5.914c1.465-0.994,2.579-2.198,3.55-3.66c2.564-3.861,5.79-7.117,9.62-9.725
		c1.45-0.986,2.733-2.043,3.604-3.592c1.135-2.019,2.895-3.546,4.327-5.333c6.838,4.421,13.261,9.407,19.596,14.506
		c9.727,7.828,19.047,16.106,27.901,24.925c9.249,9.212,18.243,18.629,26.614,28.667c7.416,8.894,14.454,18.059,20.948,27.624
		c1.955,2.881,4.522,5.483,5.44,9.022c-3.145,3.781-8.227,4.187-11.996,6.88c-5.57,0.625-9.979,4.231-15.145,5.991
		c-3.898,1.327-7.525,3.699-11.35,5.459c-1.552,0.714-2.943,1.73-4.226,2.875c-0.505,0.451-0.951,1.01-1.746,0.884
		c-1.134-0.307-1.491-1.377-2.052-2.195c-7.242-10.567-15.046-20.682-23.465-30.355c-7.22-8.297-14.743-16.293-22.751-23.802
		c-10.675-10.011-21.918-19.374-33.896-27.819c-2.428-1.711-4.762-3.565-7.401-4.964
		C1167.998,204.07,1167.621,203.638,1167.506,203.03z"/>
	<path fill-rule="evenodd" clip-rule="evenodd" fill="#FFE401" d="M750.657,220.381c1.934,0.201,2.55,1.582,3.068,3.207
		c1.248,3.908,2.423,7.851,4.861,11.263c0.593,0.831,1.165,1.678,1.762,2.51c1.123,1.563,2.37,3.063,2.855,5.023
		c1.404,5.667,4.442,10.485,8.21,14.811c2.438,2.797,3.273,6.149,4.197,9.533c-4.225,5.544-8.552,11.014-12.654,16.648
		c-10.736,14.747-19.903,30.417-27.622,46.958c-5.67,12.152-10.415,24.633-14.301,37.455c-0.993,0.245-1.7-0.314-2.524-0.753
		c-4.22-2.242-8.371-4.682-12.777-6.489c-4.129-1.694-8.073-3.842-11.884-5.972c-3.956-2.211-8.354-3.667-11.979-6.552
		c-1.669-1.329-3.81-2.074-6.037-2.254c-0.003-0.794-0.258-1.695,0.028-2.366c3.855-9.033,6.874-18.396,10.888-27.366
		c10.18-22.743,22.635-44.155,37.433-64.204c7.341-9.947,15.293-19.395,23.473-28.653
		C748.558,222.159,749.652,221.31,750.657,220.381z"/>
	<path fill-rule="evenodd" clip-rule="evenodd" fill="#E42828" d="M878.476,865.735c-2.783,2.285-6.026,4.058-7.926,7.327
		c-0.443,0.762-1.15,1.477-1.905,1.932c-3.957,2.387-6.55,6.201-9.863,9.255c-0.583,0.537-1.153,1.127-1.83,1.517
		c-1.704,0.98-2.643,2.435-2.994,4.323c-7.578-7.99-12.142-17.603-14.939-28.111c-2.911-10.935-3.464-22.12-2.701-33.338
		c0.329-4.838,0.705-9.751,2.298-14.426c1.669-0.317,2.827-1.401,3.957-2.569c2.383-2.463,4.732-4.966,7.902-6.489
		c2.008-0.965,3.372-2.722,4.875-4.276c1.529-1.58,3.234-2.913,5.165-3.914c1.454-0.754,2.633-1.777,3.778-2.91
		c1.787-1.767,3.388-3.744,5.482-5.176c5.457-3.732,9.852-8.792,15.451-12.344c0.188-0.119,0.329-0.316,0.486-0.483
		c4.39-4.666,9.775-8.196,14.397-12.639c2.316-2.227,5.157-4.082,7.452-6.462c1.678-1.739,3.502-3.271,5.54-4.565
		c2.644-1.679,4.486-4.214,6.693-6.36c0.538-0.522,0.443-1.265,0.384-1.954c6.192,1.543,12.374,3.13,18.58,4.616
		c6.208,1.487,12.508,2.507,18.805,3.546c7.307,1.205,14.678,1.884,22.035,2.653c2.941,0.307,5.932,0.154,8.876,0.57
		c-0.036,0.134-0.019,0.261,0.051,0.38c-4.519,4.348-9.041,8.691-13.284,13.315c-1.622,1.767-4.032,2.707-5.38,4.748
		c-1.672,2.533-3.781,4.594-6.3,6.21c-2.249,1.443-4.044,3.352-5.878,5.235c-2,2.054-4.02,4.071-6.545,5.503
		c-1.112,0.63-1.997,1.522-2.666,2.619c-8.476,0.04-16.954-0.045-25.426,0.153c-8.345,0.196-16.633,0.958-24.696,3.398
		c-18.228,5.516-27.679,18.278-28.531,37.033c-0.229,5.022-0.096,10.049,0.932,15.019
		C872.027,855.242,874.829,860.678,878.476,865.735z"/>
	<path fill-rule="evenodd" clip-rule="evenodd" fill="#FFE401" d="M1329.359,322.396c2.135,3.683,3.377,7.745,4.837,11.7
		c5.746,15.571,10.261,31.521,13.536,47.775c1.957,9.709,3.537,19.505,4.591,29.388c0.909,8.53,1.382,17.077,2.088,25.613
		c0.464,5.621,0.1,11.215,0.39,16.812c0.092,1.771-0.494,2.403-2.314,2.377c-6.309-0.088-12.619-0.034-18.93-0.033
		c-8.489,0-16.979,0.017-25.469-0.01c-2.62-0.008-2.693-0.063-2.683-2.713c0.032-7.675-0.334-15.354-1.046-22.97
		c-0.57-6.104-1.025-12.25-2.182-18.322c-0.853-4.466-1.387-9.003-2.207-13.493c-1.727-9.457-4.052-18.751-6.727-27.981
		c-2.609-9.006-5.65-17.847-9.154-26.539c-0.635-1.578-1.676-3.031-1.724-4.825c0.146-0.175,0.255-0.438,0.439-0.513
		c5.152-2.115,10.584-3.508,15.9-4.958c4.727-1.289,9.23-3.175,13.845-4.663c4.816-1.553,9.811-3.046,14.259-5.702
		C1327.583,322.878,1328.398,322.409,1329.359,322.396z"/>
	<path fill-rule="evenodd" clip-rule="evenodd" fill="#B70202" d="M948.473,793.469c0.669-1.097,1.554-1.989,2.666-2.619
		c2.525-1.432,4.545-3.449,6.545-5.503c1.833-1.883,3.629-3.792,5.878-5.235c2.52-1.617,4.628-3.677,6.3-6.21
		c1.348-2.041,3.758-2.981,5.38-4.748c4.244-4.624,8.765-8.967,13.283-13.315c1.083-0.092,2.167-0.183,3.251-0.274
		c1.603,0.045,3.205,0.129,4.807,0.129c39.403,0.007,78.807,0.005,118.21,0.009c1.259,0,2.518,0.054,3.775,0.083
		c0.068,1.25,0.314,2.543-0.177,3.729c-1.921,4.635-2.174,9.761-4.301,14.342c-0.663,1.429-1.125,2.986-0.989,4.637
		c0.066,0.808-0.079,1.603-0.516,2.303c-2.416,3.879-2.855,8.326-3.653,12.67c-1.03,0.042-2.062,0.122-3.092,0.122
		c-51.426,0.006-102.852,0.006-154.277,0C950.534,793.587,949.503,793.51,948.473,793.469z"/>
	<path fill-rule="evenodd" clip-rule="evenodd" fill="#161515" d="M869.833,1430.63c-0.079,0.248-0.157,0.496-0.235,0.744
		c-1.076,0.083-1.555,0.876-1.905,1.72c-1.262,3.045-3.183,5.745-4.812,8.563c-2.9,5.016-3.597,10.387-4.053,15.914
		c-6.771,0.055-13.542,0.104-20.312,0.166c-2.757,0.024-2.52,0.027-2.516-2.691c0.009-7.001,0.014-14.002,0.007-21.003
		c-0.004-3.603,0.492-3.446-3.578-3.445c-16.527,0.006-33.054,0.007-49.581,0.009c-0.918,0-1.836-0.015-2.754-0.014
		c-0.854,0-1.226-0.471-1.251-1.271c-0.018-0.574-0.013-1.147-0.013-1.722c0.004-8.838,0.013-17.675,0.01-26.512
		c-0.001-3.116-0.16-2.912,3.047-2.909c16.412,0.018,32.824,0.031,49.237,0.046c0.803,0.001,1.607,0.023,2.41-0.009
		c2.307-0.093,2.493-0.247,2.527-2.597c0.076-5.275,0.104-10.552,0.15-15.828c6.624-0.044,13.263,0.388,19.854-0.664
		c4.512-0.721,9.013-1.546,13.606-1.568c0.065,6.772,0.13,13.544,0.195,20.314c0.685,1.171,1.833,0.674,2.78,0.699
		c3.556,0.096,7.115,0.054,10.67,0.157c1.664,0.049,1.946,0.514,1.115,1.829c-2.427,3.847-4.302,8.023-7.043,11.684
		c-0.682,0.91-1.271,1.908-1.785,2.924c-2.393,4.735-5.317,9.276-5.574,14.818C870.021,1430.202,869.901,1430.415,869.833,1430.63z"
		/>
	<path fill-rule="evenodd" clip-rule="evenodd" fill="#FFF286" d="M717.483,534.014c-3.593-2.374-7.785-3.141-11.786-4.434
		c-1.521-0.491-3.113-1.005-4.414-1.889c-4.123-2.801-8.664-4.56-13.409-5.904c-0.769-0.218-1.616-0.415-2.229-0.88
		c-6.661-5.062-15.152-6.389-22.093-10.869c-0.362-0.233-0.872-0.238-1.313-0.349c-0.913-4.795-1.252-9.662-1.882-14.488
		c-0.975-7.465-0.923-14.995-1.84-22.453c-0.097-0.79-0.051-1.599-0.051-2.399c-0.003-8.809-0.099-17.619,0.043-26.426
		c0.063-3.853,0.616-7.697,0.945-11.545c3.294,0.176,6.167,1.61,8.994,3.108c1.93,1.023,3.877,1.777,6.064,2.184
		c4.167,0.775,8.166,2.18,11.753,4.53c0.981,0.642,2.049,1.141,3.156,1.267c5.112,0.584,9.654,2.668,14.059,5.137
		c1.427,0.8,2.874,1.402,4.547,1.238c0.012,2.98,0.116,5.964,0.018,8.941c-0.196,5.962,0.49,11.888,0.829,17.814
		c0.513,8.988,1.503,17.966,2.713,26.892c0.933,6.885,2.533,13.678,3.8,20.519C716.007,527.36,717.185,530.595,717.483,534.014z"/>
	<path fill-rule="evenodd" clip-rule="evenodd" fill="#686767" d="M1018.83,1398.444c0.864-1.213,2.122-0.519,3.143-0.518
		c26.398,0.018,52.797,0.109,79.196,0.17c12.052,0.028,24.103,0.019,36.154,0.025c0.688,0.001,1.38-0.041,2.065,0.004
		c1.422,0.095,2.078-0.449,2.062-1.961c-0.069-6.54,0.092-13.087-0.151-19.619c-0.19-5.121-0.853-10.225-1.306-15.336
		c1.251,0.061,2.469,0.086,3.717,0.479c4.845,1.526,8.987,4.41,13.388,6.779c5.391,2.904,9.998,7.215,16.042,8.962
		c1.087,0.361,0.753,1.297,0.752,2.027c-0.017,16.188-0.047,32.376-0.101,48.564c-0.008,2.48-0.067,2.481-2.453,2.563
		c-0.345,0.012-0.689,0.002-1.033,0.003c-42.709,0.073-85.419,0.153-128.128,0.19c-1.178,0.001-2.524,0.58-3.559-0.547
		c1.246-0.034,2.492-0.09,3.738-0.1c7.033-0.052,14.065-0.093,21.099-0.138c8.135-0.032,16.27-0.064,24.404-0.099
		c0.229-0.001,0.459-0.008,0.686-0.036c0.92-0.114,1.184-0.73,0.837-1.456c-1.128-2.36-1.528-5.112-3.423-7.058
		c-3.941-4.045-6.047-9.012-7.592-14.321c-0.544-1.868-1.07-3.694-1.271-5.656c-0.24-2.356-0.719-2.688-3.05-2.693
		c-13.408-0.036-26.815-0.032-40.224-0.041C1028.825,1398.57,1023.827,1398.507,1018.83,1398.444z"/>
	<path fill-rule="evenodd" clip-rule="evenodd" fill="#B70202" d="M920.179,744.073c0.06,0.689,0.154,1.432-0.384,1.954
		c-2.207,2.146-4.049,4.682-6.693,6.36c-2.038,1.295-3.862,2.826-5.54,4.565c-2.294,2.38-5.136,4.235-7.452,6.462
		c-4.622,4.442-10.007,7.973-14.397,12.639c-0.157,0.167-0.297,0.364-0.486,0.483c-5.6,3.552-9.994,8.611-15.451,12.344
		c-2.094,1.432-3.695,3.409-5.482,5.176c-1.146,1.133-2.324,2.156-3.778,2.91c-1.931,1.001-3.636,2.334-5.165,3.914
		c-1.503,1.554-2.867,3.311-4.875,4.276c-3.17,1.522-5.52,4.025-7.902,6.489c-1.129,1.168-2.287,2.251-3.957,2.569
		c0.764-4.898,2.542-9.482,4.548-13.962c1.968-4.398,4.543-8.48,7.756-12.075c3.253-3.64,6.845-6.957,11.39-9.917
		c-15.303-6.045-29.417-13.138-42.71-21.816c0.296-3.896,2.109-6.889,5.415-8.949c4.174-2.601,7.731-5.995,11.463-9.133
		c3.286-2.763,6.478-5.697,9.671-8.567c4.36-3.919,7.8-8.613,12.027-12.591c6.047,3.19,12.035,6.499,18.152,9.547
		c13.604,6.78,27.636,12.505,42.296,16.617C919.165,743.52,919.662,743.834,920.179,744.073z"/>
	<path fill-rule="evenodd" clip-rule="evenodd" fill="#22F7FF" d="M1061.422,1116.704c1.26-0.036,2.52-0.103,3.779-0.104
		c34.757-0.012,69.514-0.018,104.271-0.023c0.688,0,1.384,0.068,2.063-0.01c1.879-0.218,2.303,0.723,2.293,2.415
		c-0.053,9.406-0.006,18.813-0.037,28.218c-0.008,2.37-0.082,2.373-2.575,2.446c-0.573,0.017-1.146,0.003-1.72,0.003
		c-37.854,0-75.708,0.002-113.562-0.006c-1.374-0.001-2.747-0.092-4.12-0.14c-0.258-1.864,0.514-3.593,0.832-5.36
		c0.922-5.125,2.583-10.082,3.537-15.226c0.508-2.741,0.936-5.779,3.575-7.863
		C1060.875,1120.173,1061.546,1118.419,1061.422,1116.704z"/>
	<path fill-rule="evenodd" clip-rule="evenodd" fill="#161515" d="M752.167,1793.76c-0.319-2.359,0.585-4.195,0.705-6.129
		c0.05-0.815,0.558-1.208,1.36-1.217c0.918-0.011,1.836-0.011,2.755-0.011c161.524,0,323.048,0,484.574,0
		c0.573,0,1.148-0.01,1.721,0.002c3.049,0.061,3.839,0.772,3.875,3.48c0.035,2.698-0.874,3.672-3.676,3.857
		c-0.914,0.061-1.836,0.017-2.754,0.017c-161.64,0-323.279,0-484.918,0C754.674,1793.76,753.539,1793.76,752.167,1793.76z"/>
	<path fill-rule="evenodd" clip-rule="evenodd" fill="#22F7FF" d="M840.05,1100.266c-1.795-4.945-2.717-10.091-3.23-15.293
		c-0.277-2.815-0.826-5.579-0.716-8.484c0.469-12.458,2.842-24.408,8.563-35.575c0.727-1.419,1.412-2.873,2.54-4.046
		c3.126,0.096,6.161-0.249,8.959-1.798c0.292-0.162,0.645-0.238,0.979-0.294c6.793-1.139,13.104-3.879,19.628-5.91
		c3.917-1.219,7.804-2.533,11.705-3.801c4.644-1.51,9.287-3.023,13.934-4.522c3.903-1.26,7.83-2.449,11.712-3.769
		c3.989-1.354,7.962-2.766,11.897-4.269c4.99-1.905,9.849-4.152,14.963-5.728c0.641-0.197,1.342-0.195,2.016-0.285
		c1.602,0.774,1.685,2.46,1.871,3.805c0.247,1.779,0.926,3.202,1.896,4.646c2.591,3.862,5.088,7.782,8.037,11.394
		c1.146,1.405,1.846,3.039,2.295,4.854c0.375,1.515-0.17,2.185-1.393,2.557c-0.744,0.228-1.589,0.108-2.347,0.306
		c-1.342,0.349-3.054,0.116-3.548,1.995c-8.835,0.044-17.677-0.104-26.504,0.18c-10.656,0.342-21.217,1.345-31.146,5.852
		c-12.255,5.563-19.286,15.02-21.649,28.141c-0.675,3.747-0.936,7.492-0.277,11.266c-2.551,1.004-5.025,2.222-7.146,3.927
		c-5.136,4.129-10.726,7.586-16.31,11.019C844.599,1097.77,842.842,1099.979,840.05,1100.266z"/>
	<path fill-rule="evenodd" clip-rule="evenodd" fill="#43F6FD" d="M805.998,1086.246c-1.848,2.651-1.844,5.521-1.143,8.541
		c0.928,3.996,1.302,8.078,1.691,12.155c0.327,3.425,1.374,6.71,2.295,9.984c3.305,11.75,6.986,23.396,10.214,35.165
		c2.74,9.993,5.346,20.026,7.897,30.073c3.393,13.36,6.226,26.861,10.07,40.106c0.357,1.229,0.946,2.396-0.309,3.445
		c-2.867-3.581-5.008-7.639-7.5-11.467c-5.429-8.341-10.793-16.725-16.112-25.137c-6.108-9.659-12.137-19.367-18.2-29.055
		c0.567-0.116,1.246-0.228,1.02-1.014c-0.251-0.869-0.781-1.661-1.013-2.534c-2.278-8.567-4.666-17.11-6.736-25.729
		c-2.653-11.043-5.678-22.009-7.31-33.286c-0.19-1.314,0.081-3.458-2.248-3.717c-0.455-17.133-0.061-34.265-0.215-51.904
		c1.92,1.581,2.706,3.377,3.674,4.956c4.711,7.684,9.662,15.218,14.243,22.988c2.244,3.807,4.691,7.546,7.188,11.225
		C804.587,1082.639,805.769,1084.225,805.998,1086.246z"/>
	<path fill-rule="evenodd" clip-rule="evenodd" fill="#010404" d="M929.153,1279.921c2.368,2.218,3.7,5.165,5.398,7.835
		c11.107,17.468,22.112,35,33.18,52.493c7.277,11.503,14.609,22.972,21.897,34.469c0.608,0.958,1.072,2.009,1.603,3.016
		c-1.159,0-2.033,0.673-2.546,1.542c-1.014,1.716-2.713,2.728-3.968,4.191c-1.108,1.292-2.679,2.197-3.739,3.52
		c-4.015,5.003-8.827,9.28-12.878,14.232c-2.81,3.435-6.152,6.452-8.313,10.406c-2.165-2.401-3.29-5.564-5.707-7.781
		c-0.024-0.238-0.134-0.427-0.331-0.564c0.064-0.774-0.3-1.274-1.001-1.557c-0.63-1.076-1.261-2.153-1.892-3.229
		c-0.024-0.691-0.103-1.34-1.024-1.351c-0.925-1.567-1.311-3.417-2.524-4.833c-0.04-1.211-0.485-2.223-1.458-2.977
		c0.025-1.453-1.212-2.33-1.717-3.575c-1.157-2.856-1.515-5.822-2.163-8.76c-1.726-7.831-2.909-15.753-3.938-23.694
		c-3.069-23.718-4.992-47.582-9.09-71.169C928.814,1281.406,928.313,1280.582,929.153,1279.921z"/>
	<path fill-rule="evenodd" clip-rule="evenodd" fill="#43F6FD" d="M1074.497,1224.182c4.29,1.312,8.138,3.584,12.017,5.732
		c16.875,9.347,31.47,21.565,44.282,35.91c5.089,5.696,10.009,11.572,13.901,18.208c-5.069,0.683-9.898,2.32-14.793,3.703
		c-2.183,0.618-4.391,1.166-6.538,1.888c-3.954,1.329-7.872,2.764-11.805,4.155c-2.297-2.537-4.614-5.057-6.889-7.613
		c-15.335-17.231-33.841-29.689-55.8-36.858c-9.707-3.17-19.708-5.002-29.891-5.817c-0.335-0.026-0.661-0.169-0.99-0.257
		c0.408-1.516,1.723-1.565,2.93-1.906c5.89-1.664,11.83-3.189,17.618-5.158c3.975-1.352,8.034-2.428,12.048-3.564
		c7.537-2.134,15.083-4.251,22.624-6.379C1074.432,1225.88,1074.486,1225.123,1074.497,1224.182z"/>
	<path fill-rule="evenodd" clip-rule="evenodd" fill="#8AFAFF" d="M873.185,1092.487c2.354,4.042,4.706,8.061,8.245,11.262
		c6.649,6.017,14.674,9.04,23.251,10.838c4.567,0.958,9.204,1.335,13.883,1.571c3.282,0.165,6.568,0.529,9.869,0.551
		c-0.125,0.433-0.123,0.979-0.394,1.282c-2.832,3.174-4.969,6.839-7.121,10.452c-2.139,3.592-4.005,7.373-5.134,11.457
		c-0.889,3.218,0.083,6.639-1.127,9.813c-4.046,0.687-8.113,1.266-12.132,2.084c-6.819,1.387-13.092,4.242-18.813,8.094
		c-2.82,1.898-4.909,4.785-6.856,7.64c-0.703,1.031-1.4,2.066-2.341,3.455c-1.794-2.751-3.472-5.264-5.089-7.815
		c-4.234-6.675-8.438-13.37-12.661-20.052c-2.043-3.234-1.938-3.874,1.058-6.253c1.426-1.132,2.837-2.282,4.177-3.362
		c0.044-1.182-0.859-1.391-1.442-1.892c-5.427-4.662-10.108-9.979-13.916-16.043c-0.416-0.662-0.904-1.346-0.879-2.207
		c3.963-3.43,7.856-6.942,11.905-10.266C862.523,1099.111,867.673,1095.526,873.185,1092.487z"/>
	<path fill-rule="evenodd" clip-rule="evenodd" fill="#BCF7FB" d="M1080.02,1036.073c-21.354,0.007-42.708,0.016-64.063,0.021
		c-12.399,0.002-24.799-0.003-37.198-0.005c-0.042-0.938,0.245-1.776,0.623-2.632c1.012-2.291,1.967-4.607,2.894-6.935
		c2.056-5.165,4.09-10.339,6.113-15.517c0.95-2.433,1.853-4.884,2.778-7.326c30.307,0.008,60.613,0.016,90.921,0.023
		c-0.063,1.887,0.926,3.495,1.392,5.242c1.089,4.083,1.796,8.112,0.486,12.355
		C1082.463,1026.167,1081.319,1031.145,1080.02,1036.073z"/>
	<path fill-rule="evenodd" clip-rule="evenodd" fill="#F5D016" d="M1329.359,322.396c-0.961,0.012-1.776,0.481-2.55,0.943
		c-4.448,2.656-9.442,4.149-14.259,5.702c-4.614,1.488-9.118,3.375-13.845,4.663c-5.316,1.449-10.748,2.843-15.9,4.958
		c-0.185,0.076-0.294,0.338-0.439,0.513c-1.862-2.775-2.907-5.951-4.295-8.95c-5.64-12.189-12.359-23.769-19.441-35.153
		c-0.308-0.494-0.583-0.987-0.552-1.593c0.796,0.126,1.242-0.433,1.747-0.884c1.282-1.145,2.674-2.161,4.226-2.875
		c3.824-1.76,7.451-4.132,11.35-5.459c5.166-1.76,9.574-5.366,15.145-5.991c3.77-2.693,8.852-3.099,11.996-6.88
		c1.173,0.456,1.639,1.559,2.226,2.516c7.532,12.286,14.528,24.865,20.339,38.066
		C1326.615,315.403,1328.445,318.717,1329.359,322.396z"/>
	<path fill-rule="evenodd" clip-rule="evenodd" fill="#E42828" d="M916.864,914.52c1.256-0.844,2.67-0.428,4.002-0.429
		c38.74-0.026,77.48-0.021,116.22-0.021c0.917,0,1.835-0.019,2.751-0.005c1.16,0.018,1.917-0.415,2.313-1.599
		c0.879-2.625,2.256-4.975,4.014-7.135c0.698-0.857,1.322-1.816,1.631-2.982c0.832-3.139,2.412-5.913,4.518-8.389
		c0.292-0.344,0.635-0.722,0.738-1.138c1.021-4.071,3.233-7.535,5.497-10.979c0.111-0.169,0.059-0.446,0.082-0.673
		c6.979-0.031,13.957-0.082,20.935-0.09c17.28-0.018,34.561-0.019,51.842-0.017c1.256,0,2.511,0.079,3.767,0.12
		c-0.425,1.97-1.671,3.511-2.866,5.008c-0.814,1.021-1.328,2.098-1.735,3.285c-1.878,5.475-5.188,10.356-6.646,16.008
		c-0.111,0.432-0.331,0.887-0.629,1.211c-1.153,1.25-1.358,2.873-1.73,4.398c-0.614,2.519-0.239,2.941,2.494,2.967
		c5.375,0.05,10.751,0.05,16.126,0.07c-0.97,0.958-2.18,0.455-3.264,0.459c-7.346,0.028-14.693-0.038-22.04-0.037
		c-64.63,0.017-129.26,0.042-193.891,0.059C919.615,914.614,918.239,914.553,916.864,914.52z"/>
	<path fill-rule="evenodd" clip-rule="evenodd" fill="#22F7FF" d="M1074.497,1224.182c-0.011,0.941-0.065,1.698-1.285,2.043
		c-7.541,2.128-15.087,4.245-22.624,6.379c-4.014,1.137-8.073,2.213-12.048,3.564c-5.788,1.969-11.729,3.494-17.618,5.158
		c-1.207,0.341-2.521,0.391-2.93,1.906c-2.976,0.288-5.92-0.389-8.866-0.368c-16.63,0.113-32.951,2.259-48.778,7.632
		c-3.344,1.135-6.479,2.75-9.826,3.847c0.596-3.245,2.874-5.302,5.203-7.306c2.504-2.154,5.105-4.199,7.546-6.422
		c2.449-2.231,4.54-4.81,6.736-7.291c3.103-3.505,6.058-7.107,8.909-10.816c2.695-3.505,4.791-7.568,8.823-9.899
		c0.527-0.305,0.604-0.941,0.661-1.521c2.774-0.922,5.677-0.726,8.51-0.759c7.332-0.086,14.685-0.241,21.994,0.211
		c12.799,0.792,25.402,2.965,37.683,6.769C1062.705,1219.203,1068.771,1221.252,1074.497,1224.182z"/>
	<path fill-rule="evenodd" clip-rule="evenodd" fill="#F5D016" d="M726.55,664.118c0.457-0.02,0.949,0.066,1.364-0.075
		c3.806-1.286,7.829-1.27,11.733-1.956c3.265-0.573,6.232-2.214,9.568-2.445c0.219-0.015,0.439-0.229,0.646-0.21
		c5.397,0.505,9.982-3.039,15.282-3.068c0.761-0.004,1.589-0.34,2.265-0.73c3.49-2.021,7.259-3.225,11.188-3.992
		c0.483-0.095,0.829-0.342,1.117-0.711c8.208,9.022,16.535,17.927,25.438,26.275c2.154,2.02,4.315,4.034,6.471,6.049
		c-1.333,1.441-3.201,1.692-4.945,2.171c-1.431,0.393-2.858,0.688-4.153,1.512c-3.215,2.045-6.691,3.479-10.486,4.032
		c-0.709,0.104-1.285,0.417-1.88,0.773c-3.563,2.134-7.615,2.937-11.434,4.333c-5.008,1.833-10.063,3.489-15.112,5.189
		c-1.387,0.467-2.725,1.151-4.152,1.567c-5.279-4.569-9.67-9.976-14.29-15.166c-6.213-6.981-11.882-14.405-17.623-21.771
		C727.133,665.365,726.878,664.713,726.55,664.118z"/>
	<path fill-rule="evenodd" clip-rule="evenodd" fill="#AB0E0E" d="M858.176,717.204c-4.227,3.978-7.667,8.671-12.027,12.591
		c-3.193,2.87-6.385,5.804-9.671,8.567c-3.732,3.138-7.289,6.532-11.463,9.133c-3.305,2.06-5.119,5.053-5.415,8.949
		c-6.095-3.414-11.624-7.646-17.06-11.985c-6.613-5.279-12.947-10.9-18.684-17.122c-4.265-4.626-8.855-8.922-13.149-13.514
		c1.152-1.37,2.441-0.744,3.718-0.252c2.709,1.043,4.95,2.813,7.171,4.616c2.527,2.052,5.144,2.964,8.552,1.931
		c3.678-1.115,6.814-3.132,10.063-4.972c4.353-2.463,8.445-5.421,12.913-7.633c2.758-1.366,5.431-2.893,8.162-4.298
		c2.823-1.453,5.521-3.23,7.36-5.977C838.151,704.393,848.101,710.893,858.176,717.204z"/>
	<path fill-rule="evenodd" clip-rule="evenodd" fill="#FFE401" d="M708.026,449.842c-1.673,0.165-3.12-0.438-4.547-1.238
		c-4.405-2.469-8.947-4.553-14.059-5.137c-1.107-0.126-2.175-0.625-3.156-1.267c-3.587-2.35-7.585-3.755-11.753-4.53
		c-2.187-0.407-4.134-1.161-6.064-2.184c-2.827-1.498-5.7-2.932-8.994-3.108c-0.792-2.623,0.06-5.21,0.281-7.785
		c0.814-9.497,1.835-18.979,3.48-28.371c0.686-3.912,1.07-7.891,2.217-11.72c1.23-0.419,2.119,0.196,3.156,0.795
		c4.238,2.445,8.556,4.751,12.848,7.102c0.198,0.109,0.424,0.173,0.644,0.236c4.41,1.284,8.267,3.885,12.242,5.959
		c4.212,2.198,8.894,3.576,12.746,6.543c1.318,1.015,3.103,1.447,4.871,1.454c-0.444,4.186-0.707,8.4-1.383,12.548
		c-0.645,3.958-0.934,7.936-1.243,11.917C708.826,437.313,708.794,443.603,708.026,449.842z"/>
	<path fill-rule="evenodd" clip-rule="evenodd" fill="#AB0E0E" d="M1208.941,1865.056c0-2.868-0.056-5.738,0.017-8.605
		c0.065-2.578,0.812-3.233,3.349-3.233c2.541,0,3.275,0.644,3.305,3.247c0.055,5.163-0.009,10.327,0.025,15.49
		c0.024,3.537,0.912,4.469,4.405,4.72c1.142,0.083,2.294,0.064,3.44,0.044c3.144-0.057,4.084-0.91,4.1-4.101
		c0.015-3.21-0.146-6.403,0.471-9.597c1.801-9.345,10.995-13.851,19.468-9.478c2.688,1.388,4.474,3.572,5.413,6.397
		c1.793,5.396,1.789,10.85-0.027,16.224c-1.771,5.237-5.88,7.394-11.094,7.732c-3.015,0.197-5.948-0.329-8.625-1.835
		c-0.813-0.457-1.389-0.73-2.456-0.22c-5.359,2.563-10.856,2.232-16.274,0.15c-0.939-0.36-1.517-0.661-2.406,0.055
		c-1.496,1.204-3.333,1.455-5.205,1.381c-3.081-0.123-6.322,0.657-9.199-0.643c-2.84-1.284-5.352-1.611-8.168-0.055
		c-1.266,0.7-2.879,0.667-4.385,0.666c-7.114-0.004-14.24,0.267-21.339-0.049c-5.371-0.238-10.706,0.352-16.064,0.112
		c-3.196-0.144-6.229-0.426-8.029-3.579c-0.552-0.966-1.313-0.697-2.08-0.416c-2.094,0.771-4.267,0.839-6.449,0.677
		c-6.271-0.468-10.143-4.026-11.026-10.269c-0.42-2.969-0.313-5.951,0.549-8.866c1.441-4.878,4.652-7.816,9.684-8.576
		c2.03-0.307,4.113-0.323,6.174-0.349c1.264-0.016,2.018-0.195,2.446-1.678c0.521-1.803,2.364-2.357,4.526-1.862
		c1.716,0.393,2.003,1.615,1.998,3.123c-0.021,7.114-0.015,14.229-0.005,21.343c0.005,3.696,0.017,3.698,3.85,3.716
		c1.606,0.007,3.214,0.014,4.819-0.002c3.494-0.034,3.587-0.115,3.635-3.746c0.035-2.639,0.008-5.277,0.008-7.917
		c0-2.639-0.019-5.278,0.009-7.917c0.013-1.229-0.297-2.75,1.228-3.26c1.512-0.506,3.426-0.907,4.552,0.379
		c1.153,1.315,1.998,0.962,3.217,0.471c5.066-2.042,10.284-3.072,15.79-2.435c8.153,0.943,13.121,5.902,13.832,14.088
		c0.178,2.051,0.043,4.127,0.105,6.19c0.075,2.55,0.919,3.709,3.33,3.954c2.386,0.242,4.809,0.148,7.216,0.154
		c1.553,0.004,1.841-1.076,1.843-2.334c0.003-3.099,0.001-6.196,0.001-9.294C1208.921,1865.056,1208.932,1865.056,1208.941,1865.056
		z M1175.662,1876.716c0-0.01,0-0.02,0-0.029c2.973,0,5.945,0.003,8.918-0.003c0.343-0.001,0.686-0.033,1.027-0.067
		c2.548-0.256,3.508-1.04,3.822-3.518c0.316-2.498,0.362-5.038-0.063-7.524c-0.598-3.486-2.577-5.743-6.172-6.479
		c-1.473-0.301-2.938-0.485-4.424-0.381c-4.5,0.318-8.721,1.656-12.813,3.506c-1.247,0.563-1.559,1.442-1.54,2.709
		c0.05,3.315,0.081,6.635-0.042,9.946c-0.051,1.358,0.36,1.863,1.68,1.851C1169.259,1876.694,1172.461,1876.716,1175.662,1876.716z
		 M1247.509,1869.081c0.022-2.729-0.023-4.784-0.893-6.719c-1.16-2.582-3.134-3.778-6.001-3.66c-2.695,0.111-4.585,1.408-5.44,3.952
		c-1.2,3.567-1.212,7.209-0.082,10.793c0.718,2.279,2.37,3.54,4.808,3.754c4.464,0.392,6.921-1.563,7.476-6.043
		C1247.488,1870.252,1247.494,1869.334,1247.509,1869.081z M1138.695,1863.947c-0.186-1.215,0.993-3.917-0.49-4.838
		c-1.912-1.186-4.676-0.627-7.023-0.175c-2.478,0.479-4.12,2.062-4.357,4.667c-0.287,3.147-1.125,6.476,1.869,8.94
		c0.423,0.349,1.008,0.521,1.541,0.71c1.445,0.513,2.933,0.506,4.414,0.218c2.628-0.511,3.784-1.711,4.023-4.378
		C1138.805,1867.613,1138.695,1866.114,1138.695,1863.947z"/>
	<path fill-rule="evenodd" clip-rule="evenodd" fill="#22F7FF" d="M947.307,1392.31c1.214,1.416,1.6,3.266,2.524,4.833
		c-0.051,0.748,0.202,1.265,1.024,1.351c0.63,1.076,1.261,2.153,1.891,3.229c-0.276,0.911-0.005,1.471,1.002,1.557
		c0.196,0.138,0.307,0.326,0.33,0.564c-0.062,1.973,1.15,3.396,2.145,4.904c1.577,2.389,2.563,5.051,3.529,7.709
		c0.553,1.521,0.344,1.63-1.708,1.285l0.017,0.018c0.021-0.473-0.208-0.715-0.678-0.734l0.018,0.025
		c0.102-0.648-0.013-1.181-0.738-1.389l0.025,0.037c-0.003-0.448-0.196-0.726-0.673-0.746l0.015,0.023
		c0.113-0.756-0.138-1.274-0.937-1.436c-6.033-9.445-12.091-18.875-18.092-28.34c-5.818-9.177-11.582-18.389-17.355-27.594
		c-0.36-0.574-0.599-1.224-0.893-1.838c0.215-1.345,0.782-2.744,0.585-4.026c-0.932-6.077-1.285-12.211-2.004-18.303
		c-0.8-6.779-1.81-13.515-2.068-20.364c-0.11-2.916-0.454-5.89-0.842-8.822c-0.402-3.041-1.014-6.088-1.032-9.136
		c-0.018-2.999-0.472-5.938-0.947-8.828c-1.105-6.738-1.59-13.542-2.577-20.287c-0.543-3.712-0.843-7.475-1.651-11.126
		c-0.446-2.014-0.128-4.105-0.951-6.067c-0.327-0.78,0.505-1.142,1.246-1.25c3.633,4.311,6.211,9.323,9.279,14.009
		c3.766,5.751,7.433,11.566,11.143,17.354c-0.482,0.947-0.482,0.947,0.27,1.044l-0.051-0.045c-0.839,0.661-0.338,1.485-0.211,2.214
		c4.098,23.587,6.021,47.451,9.09,71.169c1.028,7.941,2.211,15.863,3.938,23.694c0.648,2.938,1.006,5.903,2.163,8.76
		c0.505,1.245,1.742,2.122,1.716,3.575C945.702,1390.634,946.085,1391.678,947.307,1392.31z"/>
	<path fill-rule="evenodd" clip-rule="evenodd" fill="#686767" d="M869.833,1430.63c0.068-0.215,0.187-0.428,0.197-0.646
		c0.257-5.542,3.181-10.083,5.574-14.818c0.514-1.016,1.103-2.014,1.785-2.924c2.741-3.66,4.616-7.837,7.043-11.684
		c0.831-1.315,0.549-1.78-1.115-1.829c-3.555-0.104-7.115-0.062-10.67-0.157c-0.947-0.025-2.095,0.472-2.78-0.699
		c19.258,0.089,38.516,0.229,57.774,0.204c2.83-0.003,4.456,0.775,5.99,3.323c5.534,9.19,11.42,18.169,17.179,27.225
		c0.304,0.478,0.683,0.914,0.631,1.583c-0.32,0.65-0.969,0.39-1.476,0.391C923.254,1430.619,896.544,1430.623,869.833,1430.63z"/>
	<path fill-rule="evenodd" clip-rule="evenodd" fill="#686767" d="M1028.386,1456.913c-1.253,0.065-2.505,0.187-3.757,0.188
		c-12.6,0.005-25.2-0.103-37.798,0.05c-3.045,0.036-4.926-0.694-6.565-3.482c-4.448-7.567-9.296-14.899-13.985-22.323
		c0.631-1.128,0.473-2.372,0.515-3.587c2.491-0.921,3.988-3.058,5.697-4.863c2.157-2.279,4.451-4.59,7.354-5.476
		c3.121-0.951,5.765-2.729,8.734-3.843c1.888-0.708,3.491-2.073,5.716-2.077c3.835-0.008,7.723,0.837,11.509-0.502
		c0.283-0.101,0.688,0.021,0.999,0.138c1.897,0.711,3.857,0.325,5.793,0.372c3.123,4.11,5.913,8.432,8.229,13.052
		c-1.097,2.011-1.105,4.359-1.994,6.442c-0.271,0.634-0.067,1.385,0.318,1.978c1.207,1.851,0.881,3.565-0.027,5.488
		c-0.986,2.086-0.599,3.903,0.963,4.936c2.964,1.958,4.674,4.942,6.652,7.698C1027.952,1452.79,1028.657,1454.744,1028.386,1456.913
		z"/>
	<path fill-rule="evenodd" clip-rule="evenodd" fill="#FFF286" d="M711.939,406.591c-1.769-0.006-3.553-0.439-4.871-1.454
		c-3.853-2.967-8.534-4.345-12.746-6.543c-3.975-2.075-7.832-4.675-12.242-5.959c-0.219-0.063-0.445-0.127-0.644-0.236
		c-4.292-2.351-8.61-4.656-12.848-7.102c-1.038-0.599-1.926-1.214-3.156-0.795c1.539-8.749,3.637-17.374,6.09-25.901
		c1.245-4.329,2.167-8.795,4.312-12.833c2.227,0.18,4.367,0.925,6.037,2.254c3.625,2.885,8.023,4.341,11.979,6.552
		c3.811,2.13,7.754,4.278,11.884,5.972c4.406,1.808,8.557,4.247,12.777,6.489c0.824,0.438,1.531,0.998,2.524,0.753
		c-2.512,8.389-4.807,16.841-6.394,25.455c-0.638,3.46-1.738,6.837-1.896,10.396C712.7,404.633,712.219,405.607,711.939,406.591z"/>
	<path fill-rule="evenodd" clip-rule="evenodd" fill="#BCF7FB" d="M914.658,1149.713c1.211-3.174,0.238-6.595,1.127-9.813
		c1.129-4.084,2.996-7.865,5.134-11.457c2.151-3.613,4.289-7.278,7.121-10.452c0.271-0.304,0.269-0.85,0.394-1.282
		c21.838,0.01,43.677,0.02,65.515,0.028c0.071,1.425-0.441,2.535-1.266,3.763c-0.992,1.477-2.466,2.337-3.541,3.656
		c-3.847,4.723-8.254,8.878-13.142,12.506c-5.055,3.754-10.175,7.417-15.94,10.045c-1.253,0.571-2.176,1.301-1.879,2.861
		c-3.424,0.055-6.849,0.153-10.273,0.157C936.824,1149.74,925.741,1149.72,914.658,1149.713z"/>
	<path fill-rule="evenodd" clip-rule="evenodd" fill="#38B4B9" d="M943,1006.492c-0.674,0.09-1.375,0.088-2.016,0.285
		c-5.115,1.575-9.974,3.822-14.963,5.728c-3.935,1.503-7.908,2.914-11.897,4.269c-3.883,1.319-7.809,2.509-11.712,3.769
		c-4.647,1.499-9.29,3.013-13.934,4.522c-3.901,1.268-7.789,2.582-11.705,3.801c-6.524,2.031-12.835,4.771-19.628,5.91
		c-0.334,0.056-0.687,0.132-0.979,0.294c-2.798,1.549-5.833,1.894-8.959,1.798c3.677-6.692,9.019-11.922,15.175-16.729
		c-5.348-4.133-9.696-8.768-13.325-14.039c-1.271-1.847-2.873-3.546-3.315-5.875c5.809,0.609,11.44-0.163,16.911-2.179
		c5.688,0.785,11.356,0.83,16.992-0.436c1.825-0.41,3.641-0.161,5.434,0.171c2.713,0.502,5.431,0.604,8.169,0.334
		c7.333,2.733,14.901,4.309,22.709,4.921c8.463,0.663,16.937,0.323,25.402,0.564c0.572,0.017,1.143,0.07,1.713,0.106
		C943.046,1004.636,943.023,1005.563,943,1006.492z"/>
	<path fill-rule="evenodd" clip-rule="evenodd" fill="#38B4B9" d="M869.672,1377.559c-4.593,0.022-9.094,0.848-13.606,1.568
		c-6.592,1.052-13.23,0.62-19.854,0.664c-0.048-2.744-0.143-5.488-0.136-8.231c0.028-12.144,0.085-24.286,0.132-36.431
		c0.681-0.056,1.397,0.009,2.036-0.184c4.614-1.396,9.172-2.9,13.944-3.824c4.86-0.94,9.604-2.538,14.512-3.323
		c4.001-0.641,8.02-1.839,12.078-0.251c-3.222,9.127-6.121,18.333-7.866,27.89c-0.928,5.083-1.22,10.161-1.128,15.299
		C869.824,1373.008,869.714,1375.284,869.672,1377.559z"/>
	<path fill-rule="evenodd" clip-rule="evenodd" fill="#22F7FF" d="M1104.133,1003.724c5.737-0.042,11.476-0.114,17.214-0.12
		c16.071-0.017,32.142-0.005,48.213-0.005c1.144,0,2.285,0,3.483,0c0.226,1.419-0.915,1.859-1.563,2.496
		c-9.737,9.565-19.523,19.081-29.266,28.644c-0.958,0.94-1.91,1.476-3.304,1.463c-9.295-0.088-18.592-0.107-27.889-0.15
		c0.025-0.94-0.164-1.766-0.827-2.525c-1.348-1.544-2.399-3.342-3.999-4.675c-1.042-0.867-1.527-1.961-1.386-3.329
		c0.362-3.479-1.014-6.248-3.562-8.495c-1.525-1.347-1.651-3.084-0.971-4.704c0.693-1.648,1.003-3.508,2.418-4.861
		C1103.705,1006.496,1104.21,1005.184,1104.133,1003.724z"/>
	<path fill-rule="evenodd" clip-rule="evenodd" fill="#43F6FD" d="M988.399,1211.087c-0.057,0.58-0.133,1.217-0.661,1.521
		c-4.033,2.331-6.128,6.395-8.823,9.899c-2.851,3.709-5.806,7.312-8.909,10.816c-2.196,2.481-4.287,5.06-6.736,7.291
		c-2.441,2.223-5.042,4.268-7.546,6.422c-2.329,2.004-4.606,4.061-5.203,7.306c-5.24,2.828-10.722,5.208-15.755,8.415
		c-1.22,0.777-1.985,0.707-2.78-0.568c-5.212-8.357-10.425-16.716-15.754-24.999c-1.013-1.574-0.395-2.131,0.837-2.907
		c9.428-5.947,19.335-10.894,29.855-14.617c12.786-4.526,25.935-7.357,39.425-8.644
		C987.025,1210.957,987.716,1211.062,988.399,1211.087z"/>
	<path fill-rule="evenodd" clip-rule="evenodd" fill="#AB0E0E" d="M888.02,1853.064c2.92,0.281,5.209,0.075,7.476,0.536
		c5.955,1.211,9.201,4.759,9.578,10.875c0.155,2.518,0.055,5.049,0.102,7.573c0.062,3.292,0.997,4.301,4.221,4.616
		c8.141,0.8,8.141,0.8,8.141-7.362c0-10.331-0.015-20.662,0.009-30.992c0.007-3.215,0.6-3.804,3.463-3.762
		c2.582,0.037,3.193,0.582,3.2,3.312c0.032,12.168,0.029,24.335-0.013,36.503c-0.004,1.245-0.266,2.51-0.552,3.731
		c-0.678,2.9-2.646,4.654-5.498,4.968c-4.994,0.549-10.077,1.238-14.765-1.438c-0.732-0.417-1.237-0.352-1.851,0.065
		c-2.295,1.564-4.897,1.766-7.572,1.753c-6.428-0.031-12.856-0.015-19.284-0.009c-2.545,0.003-5.068-0.145-7.269-1.605
		c-0.695-0.461-1.194-0.459-1.821,0.042c-1.929,1.538-4.217,1.631-6.54,1.563c-2.635-0.076-5.294,0.245-7.898-0.305
		c-1.293-0.273-1.626,0.268-1.67,1.385c-0.049,1.26-0.064,2.533-0.259,3.775c-0.924,5.891-6.789,9.722-12.545,8.286
		c-1.649-0.412-1.698-1.664-1.708-2.946c-0.01-1.366-0.186-2.87,1.568-3.404c0.535-0.162,1.138-0.094,1.708-0.148
		c3.88-0.368,4.692-1.21,4.709-5.238c0.036-8.724,0.011-17.447,0.011-26.171c0-0.688-0.015-1.378,0.003-2.066
		c0.083-3.043,2.84-4.516,5.451-2.95c1.249,0.749,1.032,1.95,1.039,3.062c0.027,4.706,0.011,9.412,0.013,14.118
		c0,0.804-0.04,1.611,0.025,2.41c0.15,1.846,1.213,2.968,2.996,3.261c2.618,0.433,5.27,0.25,7.905,0.17
		c1.77-0.054,1.832-1.459,1.841-2.746c0.028-4.018,0.014-8.035,0.017-12.053c0.001-1.951-0.065-3.906,0.022-5.854
		c0.094-2.092,0.854-2.722,3.064-2.804c2.421-0.089,3.454,0.563,3.505,2.723c0.119,5.048,0.046,10.101,0.059,15.15
		c0.002,0.918-0.066,1.854,0.09,2.748c0.305,1.747,1.43,2.643,3.805,2.773c2.862,0.157,5.736,0.107,8.604,0.11
		c4.361,0.005,8.725,0.058,13.083-0.063c3.04-0.085,3.584-0.71,3.679-3.727c0.074-2.408,0.07-4.822,0.011-7.23
		c-0.089-3.641-1.78-5.468-5.499-5.646c-3.551-0.17-7.116-0.031-10.672-0.106c-1.414-0.03-3.219,0.58-3.942-1.236
		c-0.745-1.874-0.73-3.807,0.729-5.488c1.503-1.732,2.96-3.506,4.447-5.254c3.048-3.581,6.08-7.18,9.165-10.73
		c2.059-2.369,4.773-2.038,6.274,0.724c0.745,1.371-0.024,2.371-0.886,3.375c-2.767,3.217-5.504,6.462-8.243,9.704
		C889.126,1851.54,888.756,1852.086,888.02,1853.064z"/>
	<path fill-rule="evenodd" clip-rule="evenodd" fill="#8AFAFF" d="M958.18,1149.568c-0.296-1.561,0.626-2.29,1.879-2.861
		c5.765-2.628,10.886-6.291,15.94-10.045c4.888-3.628,9.295-7.783,13.142-12.506c1.075-1.319,2.549-2.18,3.541-3.656
		c0.824-1.228,1.336-2.338,1.266-3.763c14.815-0.048,29.631-0.097,44.446-0.138c0.566-0.001,1.133,0.088,1.699,0.135
		c-0.102,1.066-0.635,1.95-1.21,2.811c-3.553,5.304-7.467,10.368-10.631,15.933c-0.278,0.491-0.771,0.859-1.058,1.347
		c-2.436,4.125-5.474,7.895-7.312,12.373c-0.683,0.527-1.485,0.531-2.291,0.528C997.789,1149.673,977.984,1149.62,958.18,1149.568z"
		/>
	<path fill-rule="evenodd" clip-rule="evenodd" fill="#43F6FD" d="M908.512,1247.56c-0.741,0.108-1.573,0.47-1.246,1.25
		c0.823,1.962,0.505,4.054,0.951,6.067c0.808,3.651,1.108,7.414,1.651,11.126c0.987,6.745,1.472,13.549,2.577,20.287
		c0.475,2.891,0.929,5.829,0.947,8.828c0.018,3.048,0.629,6.095,1.032,9.136c0.388,2.933,0.731,5.906,0.842,8.822
		c0.258,6.85,1.268,13.585,2.068,20.364c0.719,6.092,1.073,12.226,2.004,18.303c0.197,1.282-0.37,2.682-0.585,4.026
		c-1.884-1.998-3.138-4.436-4.56-6.737c-5.14-8.321-10.606-16.44-15.444-24.948c1.911-4.951,1.226-10.147,1.546-15.264
		c0.321-5.127-0.249-10.222-0.073-15.333c0.122-3.55,0.132-7.1-1.144-10.511c-0.194-0.52-0.239-1.131-0.208-1.691
		c0.469-8.413-1.175-16.59-2.813-24.756c-1.748-8.71-3.57-17.407-5.488-26.082c-0.886-4.008-2.071-7.95-3.132-11.919
		c-0.309-1.154-0.699-2.314,1.05-2.637c5.123,7.678,10.375,15.267,14.74,23.435c0.982,1.838,2.687,3.36,3.84,5.191
		C907.667,1245.471,908.482,1246.331,908.512,1247.56z"/>
	<path fill-rule="evenodd" clip-rule="evenodd" fill="#E42828" d="M1108.933,793.465c0.798-4.344,1.237-8.791,3.653-12.67
		c0.437-0.701,0.582-1.495,0.516-2.303c-0.136-1.65,0.326-3.208,0.989-4.637c2.127-4.581,2.38-9.707,4.301-14.342
		c0.491-1.186,0.245-2.479,0.177-3.729c4.704-0.031,9.409-0.031,14.112-0.114c1.246-0.021,2.134,0.4,3.032,1.255
		c7.473,7.11,15.063,14.096,22.388,21.363c3.822,3.792,7.826,7.4,11.765,11.073c1.252,1.167,2.56,2.273,3.77,3.343
		c-0.768,1.328-1.664,0.88-2.377,0.881c-20.32,0.025-40.64,0.02-60.961,0.012C1109.842,793.598,1109.387,793.511,1108.933,793.465z"
		/>
	<path fill-rule="evenodd" clip-rule="evenodd" fill="#161515" d="M796.305,1756.896c0.356,0.601,0.665,1.074,0.928,1.572
		c1.491,2.813,3.366,4.585,7.013,4.076c2.569-0.358,2.837,0.267,2.918,2.979c0.01,0.345,0.002,0.688,0.001,1.033
		c-0.012,3.735-0.12,3.85-3.862,3.873c-1.95,0.012-3.909-0.106-5.849,0.033c-1.844,0.132-2.998-0.577-3.898-2.146
		c-0.967-1.686-2.229-3.203-3.194-4.891c-0.726-1.269-1.541-1.431-2.833-0.957c-3.411,1.251-6.955,1.478-10.51,0.862
		c-6.529-1.132-11.51-4.734-14.542-10.499c-6.609-12.566-6.779-25.448,0.219-37.81c7.988-14.111,27.525-14.188,36.167-0.458
		c3.845,6.109,5.085,12.921,5.116,20.047C804.016,1742.946,801.56,1750.404,796.305,1756.896z M784.66,1754.985
		c-1.515-2.275-2.848-4.264-4.168-6.261c-3.039-4.6-3.243-3.877,1.254-7.478c2.193-1.756,2.555-1.662,4.27,0.797
		c1.682,2.415,3.329,4.853,4.941,7.206c1.052-0.279,1.207-1.038,1.466-1.63c4.106-9.357,3.853-18.675-0.367-27.923
		c-0.621-1.362-1.543-2.543-2.583-3.623c-4.682-4.865-12.103-4.964-16.936-0.256c-1.849,1.801-3.083,3.968-3.988,6.348
		c-2.219,5.827-2.502,11.828-1.563,17.932c0.601,3.899,1.817,7.561,4.236,10.746C774.486,1755.14,778.935,1756.588,784.66,1754.985z
		"/>
	<path fill-rule="evenodd" clip-rule="evenodd" fill="#161515" d="M903.087,1730.428c0.375,0.842,1.254,0.976,1.898,1.394
		c7.652,4.971,10.182,15.52,5.464,23.353c-3.549,5.892-9.296,7.433-15.662,7.406c-2.513-0.01-5.049-0.236-7.532-0.63
		c-5.42-0.86-10.721-0.417-16.002,0.938c-3.525,0.905-3.732,0.733-4.686-2.792c-0.06-0.22-0.107-0.445-0.155-0.669
		c-0.474-2.222-0.273-2.618,1.883-3.142c1.556-0.378,3.144-0.621,4.715-0.935c2.411-0.482,2.434-0.485,2.446-3.067
		c0.021-4.126,0.005-8.253,0.005-12.38c0-7.682-0.039-15.362,0.031-23.042c0.015-1.644-0.289-2.57-2.177-2.535
		c-1.597,0.03-3.197-0.231-4.798-0.333c-0.958-0.061-1.965-0.188-2.183-1.271c-0.41-2.03-0.415-4.096,0.049-6.13
		c0.145-0.636,0.693-0.899,1.304-0.895c0.799,0.008,1.616,0.005,2.395,0.159c5.472,1.085,10.934,0.753,16.423,0.106
		c3.634-0.427,7.287-0.728,10.926,0.248c10.52,2.822,14.101,13.646,7.293,22.11C904.171,1729.013,903.299,1729.469,903.087,1730.428
		z M889.539,1735.986c-1.31,0-2.228-0.016-3.146,0.003c-2.43,0.05-2.47,0.055-2.485,2.447c-0.029,4.706,0.023,9.412-0.029,14.118
		c-0.015,1.335,0.23,2.121,1.802,2.215c2.975,0.177,5.935,0.672,8.91,0.78c3.913,0.145,6.881-1.545,8.519-5.208
		c2.453-5.487,0.11-11.075-5.498-13.206C894.882,1736.099,892.034,1735.894,889.539,1735.986z M883.9,1720.931
		c0,0.229,0,0.459,0,0.688c0,7.243,0.004,7.268,7.199,6.059c2.41-0.404,4.669-1.26,6.371-3.118c1.838-2.008,2.476-4.416,1.725-7.025
		c-0.771-2.679-2.966-3.622-5.5-3.977c-2.887-0.402-5.713,0.309-8.567,0.494c-1.051,0.068-1.23,0.837-1.226,1.716
		C883.912,1717.488,883.905,1719.209,883.9,1720.931z"/>
	<path fill-rule="evenodd" clip-rule="evenodd" fill="#38B4B9" d="M1111.562,1293.778c3.933-1.392,7.851-2.826,11.805-4.155
		c2.147-0.722,4.355-1.27,6.538-1.888c4.895-1.383,9.724-3.021,14.793-3.703c5.304,7.104,9.33,14.949,13.121,22.913
		c1.77,3.714,3.237,7.572,4.779,11.391c0.418,1.036,1.097,2.045,0.818,3.271c-4.783,1.498-9.631,2.733-14.519,3.858
		c-5.653,1.303-11.29,2.723-16.729,4.802c-1.494-2.309-2.19-4.973-3.287-7.458c-4.354-9.871-9.936-18.993-16.447-27.57
		C1112.094,1294.789,1111.85,1294.267,1111.562,1293.778z"/>
	<path fill-rule="evenodd" clip-rule="evenodd" fill="#161515" d="M978.652,1757.788c0.384-4.22,1.13-8.444-0.093-12.647
		c-0.464-1.594,0.252-2.387,1.753-2.684c0.112-0.021,0.222-0.064,0.335-0.076c5.733-0.589,5.755-1.707,6.411,4.515
		c0.579,5.492,2.955,7.803,8.498,8.656c2.791,0.429,5.482,0.243,8.104-0.822c3.012-1.224,4.957-3.358,5.203-6.658
		c0.241-3.233-1.093-5.786-3.893-7.526c-2.362-1.469-4.994-2.27-7.599-3.146c-2.821-0.949-5.708-1.757-8.431-2.937
		c-5.903-2.558-9.271-7.042-9.281-13.615c-0.01-6.485,3.101-11.111,8.904-13.941c5.379-2.623,10.979-3.062,16.75-1.603
		c1.371,0.346,2.838,1.313,3.385-1.096c0.162-0.717,1.084-0.797,1.777-0.697c1.475,0.21,2.933,0.53,4.406,0.742
		c1.269,0.184,1.786,0.938,1.74,2.126c-0.045,1.146-0.138,2.292-0.269,3.431c-0.448,3.883-0.816,7.743,0.094,11.637
		c0.461,1.967,0.011,2.411-1.952,2.818c-5.664,1.176-5.728,1.183-6.34-4.553c-0.449-4.206-1.767-6.856-7.849-7.213
		c-2.667-0.155-5.27,0.039-7.699,1.307c-2.389,1.247-3.99,3.031-4.194,5.848c-0.215,2.959,1.118,5.056,3.554,6.574
		c2.164,1.348,4.567,2.111,6.965,2.888c3.158,1.022,6.343,1.962,9.357,3.391c6.087,2.888,9.317,7.595,9.254,14.415
		c-0.063,6.772-3.295,11.608-9.304,14.477c-6.321,3.019-12.875,2.906-19.421,0.675c-1.172-0.399-2.14-0.977-2.542,0.828
		c-0.147,0.661-0.837,0.687-1.412,0.709c-0.343,0.013-0.688-0.027-1.031-0.043C978.426,1763.326,978.277,1763.16,978.652,1757.788z"
		/>
	<path fill-rule="evenodd" clip-rule="evenodd" fill="#D66E16" d="M828.647,697.237c-1.838,2.747-4.537,4.524-7.36,5.977
		c-2.731,1.405-5.404,2.933-8.162,4.298c-4.468,2.212-8.561,5.17-12.913,7.633c-3.25,1.839-6.386,3.856-10.063,4.972
		c-3.408,1.033-6.025,0.121-8.552-1.931c-2.221-1.803-4.462-3.572-7.171-4.616c-1.277-0.492-2.566-1.118-3.718,0.252
		c-4.19-3.213-7.703-7.121-11.25-10.993c1.427-0.415,2.765-1.099,4.152-1.566c5.05-1.7,10.104-3.356,15.112-5.189
		c3.819-1.397,7.871-2.2,11.434-4.333c0.595-0.356,1.171-0.669,1.88-0.773c3.795-0.554,7.271-1.987,10.486-4.032
		c1.295-0.824,2.723-1.119,4.153-1.512c1.745-0.479,3.613-0.73,4.945-2.171C817.297,687.916,822.972,692.576,828.647,697.237z"/>
	<path fill-rule="evenodd" clip-rule="evenodd" fill="#161515" d="M1173.445,1754.624c-1.001-2.794-1.838-5.144-2.686-7.488
		c-0.357-0.99-1.057-1.336-2.124-1.328c-5.39,0.043-10.779,0.035-16.169,0.006c-1.176-0.006-1.902,0.354-2.291,1.562
		c-0.729,2.267-1.601,4.487-2.604,7.254c1.904,0,3.443,0.001,4.981-0.001c1.399-0.001,2.097,0.734,2.206,2.092
		c0.009,0.114,0.008,0.229,0.009,0.344c0.042,5.449,0.338,5.639-4.974,5.573c-4.128-0.051-8.257,0.016-12.385-0.019
		c-3.29-0.026-3.563-0.321-3.61-3.481c-0.011-0.688,0.015-1.377-0.001-2.065c-0.04-1.741,0.865-2.683,2.532-2.411
		c2.293,0.373,2.898-0.997,3.547-2.725c5.997-15.965,12.02-31.921,18.12-47.846c0.471-1.229,0.338-3.341,2.43-3.235
		c1.772,0.089,1.73,1.96,2.198,3.141c6.233,15.751,12.413,31.523,18.581,47.301c0.759,1.94,1.223,3.973,4.148,3.389
		c1.284-0.257,2.127,0.65,2.13,2.076c0,0.229-0.004,0.459,0.006,0.688c0.232,5.076,0.139,5.175-4.999,5.178
		c-4.129,0.003-8.257,0.026-12.385-0.007c-3.511-0.028-3.747-0.286-3.782-3.667c-0.007-0.688-0.002-1.376,0.01-2.064
		c0.026-1.563,0.861-2.275,2.391-2.266C1170.097,1754.632,1171.467,1754.624,1173.445,1754.624z M1167.338,1737.843
		c-2.323-6.301-4.543-12.321-7.02-19.038c-2.415,6.794-4.551,12.8-6.769,19.038
		C1158.238,1737.843,1162.533,1737.843,1167.338,1737.843z"/>
	<path fill-rule="evenodd" clip-rule="evenodd" fill="#161515" d="M956.168,1754.487c-0.515-2.739-1.689-5.097-2.56-7.55
		c-0.312-0.881-0.989-1.127-1.893-1.123c-5.507,0.026-11.015,0.022-16.522,0.005c-1.061-0.005-1.661,0.41-2.009,1.451
		c-0.79,2.367-1.688,4.699-2.654,7.351c1.81,0,3.279,0.028,4.748-0.008c1.752-0.042,2.511,0.837,2.493,2.522
		c-0.01,0.918,0.043,1.839-0.007,2.754c-0.123,2.217-0.45,2.61-2.64,2.713c-2.062,0.097-4.13,0.024-6.195,0.024
		c-3.098,0-6.198,0.059-9.294-0.021c-2.368-0.062-2.734-0.504-2.833-2.87c-0.033-0.802-0.04-1.608,0.002-2.409
		c0.116-2.212,0.42-2.754,2.621-2.633c2.098,0.116,2.725-0.876,3.356-2.559c5.992-15.979,12.055-31.931,18.101-47.89
		c0.324-0.856,0.586-1.753,1.036-2.54c0.712-1.248,1.941-1.281,2.686-0.067c0.473,0.771,0.748,1.667,1.082,2.518
		c6.197,15.779,12.407,31.553,18.56,47.349c0.74,1.9,1.287,3.621,3.953,3.17c1.491-0.253,2.311,0.7,2.292,2.281
		c-0.061,5.323,0.749,5.759-5.201,5.683c-4.13-0.054-8.262,0.022-12.392-0.021c-3.283-0.035-3.523-0.314-3.575-3.531
		c-0.007-0.459-0.014-0.919,0.002-1.377c0.096-2.652,0.403-2.979,2.958-3.085c0.687-0.028,1.377,0.01,2.065-0.01
		C954.899,1754.597,955.45,1754.538,956.168,1754.487z M943.294,1718.797c-2.41,6.778-4.562,12.83-6.739,18.953
		c4.752,0,9.031,0,13.717,0C947.95,1731.443,945.751,1725.473,943.294,1718.797z"/>
	<path fill-rule="evenodd" clip-rule="evenodd" fill="#161515" d="M847.652,1754.4c-0.051-0.36-0.032-0.714-0.154-1.009
		c-1.003-2.42-1.103-5.628-3.08-7.109c-1.876-1.406-4.878-0.383-7.383-0.44c-3.211-0.073-6.429,0.075-9.636-0.055
		c-1.672-0.067-2.532,0.522-2.967,2.102c-0.601,2.181-1.785,4.186-2.102,6.491c1.463,0.447,2.839,0.152,4.193,0.237
		c2.255,0.143,2.597,0.459,2.742,2.586c0.356,5.217,0.166,5.421-5.103,5.424c-4.245,0.001-8.491,0.041-12.735-0.016
		c-2.717-0.036-2.959-0.33-3.052-2.95c-0.028-0.803-0.039-1.608,0.004-2.409c0.121-2.252,0.317-2.612,2.65-2.575
		c1.827,0.029,2.516-0.671,3.131-2.315c5.9-15.769,11.904-31.497,17.879-47.236c0.366-0.964,0.763-1.916,1.12-2.883
		c0.292-0.794,0.653-1.476,1.658-1.452c1.011,0.022,1.307,0.78,1.605,1.537c1.554,3.942,3.105,7.885,4.657,11.828
		c4.948,12.577,9.926,25.142,14.811,37.744c0.674,1.74,1.206,2.963,3.508,2.799c2.171-0.154,2.448,0.403,2.596,2.672
		c0.325,4.996,0.084,5.254-4.948,5.257c-4.131,0.002-8.262,0.025-12.392-0.008c-3.654-0.029-3.72-0.121-3.749-3.625
		c-0.006-0.688,0.029-1.378-0.002-2.064c-0.075-1.614,0.761-2.255,2.289-2.314C844.655,1754.558,846.14,1754.832,847.652,1754.4z
		 M828.039,1737.744c4.758,0,9.089,0,13.73,0c-2.296-6.22-4.479-12.131-6.662-18.044c-0.22,0.007-0.439,0.015-0.659,0.021
		C832.336,1725.66,830.225,1731.598,828.039,1737.744z"/>
	<path fill-rule="evenodd" clip-rule="evenodd" fill="#161515" d="M1219.333,1713.564c-0.06,0.873-0.146,1.55-0.146,2.227
		c-0.009,12.049-0.001,24.098-0.01,36.146c-0.002,2.632-0.256,2.71,2.555,2.685c2.181-0.02,4.362-0.059,6.541,0.014
		c2.275,0.075,2.55,0.399,2.675,2.596c0.305,5.337,0.253,5.394-5.085,5.396c-7.573,0.002-15.146,0.005-22.721-0.006
		c-0.914-0.002-1.836-0.022-2.738-0.149c-0.882-0.123-1.424-0.687-1.503-1.617c-0.02-0.229-0.037-0.457-0.06-0.686
		c-0.489-5.074-0.064-5.519,4.966-5.564c2.27-0.021,4.558,0.239,6.976-0.237c0-5.563,0-11.066,0-16.569
		c0-7.229,0.017-14.459-0.01-21.688c-0.01-2.596-0.056-2.608-2.692-2.658c-1.491-0.027-2.985-0.052-4.475,0.011
		c-3.409,0.141-4.009,0.691-4.16,4.02c-0.099,2.175-0.007,4.358-0.033,6.539c-0.04,3.246-0.227,3.416-3.583,3.47
		c-0.573,0.01-1.147,0.021-1.721-0.002c-2.744-0.114-3.105-0.45-3.123-3.281c-0.033-5.164-0.037-10.328,0.001-15.492
		c0.021-2.879,0.236-3.103,3.181-3.108c13.885-0.023,27.77-0.024,41.654,0.002c2.825,0.005,3.091,0.284,3.118,3.219
		c0.049,5.163,0.046,10.328,0.002,15.492c-0.023,2.757-0.384,3.05-3.242,3.17c-0.344,0.015-0.688,0.003-1.032,0.003
		c-4.154-0.001-4.25-0.104-4.281-4.218c-0.017-2.294-0.111-4.588-0.088-6.882c0.021-1.889-0.98-2.763-2.717-2.81
		C1224.951,1713.512,1222.318,1713.564,1219.333,1713.564z"/>
	<path fill-rule="evenodd" clip-rule="evenodd" fill="#43F6FD" d="M878.777,1327.547c-4.059-1.588-8.077-0.39-12.078,0.251
		c-4.908,0.785-9.651,2.383-14.512,3.323c-4.772,0.924-9.33,2.429-13.944,3.824c-0.639,0.192-1.355,0.128-2.036,0.184
		c-0.231-9.67-0.234-19.342-0.023-29.013c0.938,0.072,1.764-0.246,2.613-0.619c5.083-2.234,10.298-4.2,15.241-6.705
		c3.641-1.846,7.78-2.564,11.09-5.085c3.108,3.826,5.34,8.23,8.084,12.3c2.62,3.885,4.966,7.953,7.505,11.896
		c0.851,1.32,1.153,2.316,0.456,4.019C880.402,1323.801,879.781,1325.753,878.777,1327.547z"/>
	<path fill-rule="evenodd" clip-rule="evenodd" fill="#161515" d="M1037.634,1754.618c0-8.168,0-15.953,0-23.738
		c-0.001-5.045-0.053-10.09,0.027-15.132c0.027-1.69-0.386-2.677-2.265-2.506c-0.225,0.021-0.457-0.026-0.686-0.053
		c-4.59-0.531-5.252-1.436-4.49-5.904c0.188-1.099,0.684-1.652,1.795-1.602c0.572,0.025,1.157,0.018,1.711,0.139
		c5.467,1.19,10.931,0.75,16.417,0.127c3.755-0.426,7.521-0.608,11.292,0.145c10.23,2.041,13.326,10.224,12.107,18.107
		c-1.412,9.128-7.873,14.635-17.63,15.226c-2.626,0.159-5.271,0.08-7.904,0.013c-1.225-0.032-1.911,0.146-1.881,1.63
		c0.081,4.011,0.063,8.025,0.007,12.036c-0.019,1.251,0.528,1.542,1.641,1.526c2.98-0.044,5.962-0.054,8.941,0
		c2.445,0.043,2.729,0.37,2.854,2.77c0.263,5.117,0.164,5.224-4.918,5.226c-6.993,0.001-13.985,0.021-20.979-0.01
		c-3.313-0.015-3.438-0.188-3.479-3.561c-0.004-0.344-0.005-0.688,0.001-1.031c0.055-3.21,0.179-3.347,3.261-3.403
		C1034.701,1754.599,1035.949,1754.618,1037.634,1754.618z M1046.157,1722.414c0,2.518,0.013,5.035-0.007,7.553
		c-0.007,0.925,0.277,1.577,1.308,1.604c3.653,0.097,7.338,0.483,10.911-0.599c4.873-1.477,7.272-5.741,6.508-11.385
		c-0.562-4.139-3.9-6.747-8.838-7c-2.885-0.147-5.69,0.494-8.537,0.702c-1.313,0.097-1.354,0.949-1.351,1.916
		C1046.159,1717.608,1046.154,1720.012,1046.157,1722.414z"/>
	<path fill-rule="evenodd" clip-rule="evenodd" fill="#161515" d="M1012.6,1411.507c-1.936-0.047-3.896,0.339-5.793-0.372
		c-0.312-0.116-0.716-0.238-0.999-0.138c-3.786,1.339-7.674,0.494-11.509,0.502c-2.225,0.004-3.828,1.369-5.716,2.077
		c-2.969,1.114-5.613,2.892-8.734,3.843c-2.904,0.886-5.197,3.196-7.354,5.476c-1.709,1.806-3.206,3.942-5.695,4.86
		c-0.546-3.039-1.54-5.889-2.886-8.693c-1.235-2.575-3.016-4.815-4.127-7.437c2.161-3.954,5.503-6.972,8.313-10.406
		c4.052-4.952,8.863-9.229,12.878-14.232c1.061-1.322,2.631-2.228,3.739-3.52c1.255-1.464,2.954-2.476,3.968-4.191
		c0.514-0.869,1.387-1.542,2.546-1.542c5.212,8.15,10.439,16.291,15.629,24.455
		C1008.816,1405.267,1010.689,1408.399,1012.6,1411.507z"/>
	<path fill-rule="evenodd" clip-rule="evenodd" fill="#AB0E0E" d="M761.573,1862.792c0,3.787-0.052,7.576,0.019,11.362
		c0.044,2.39,0.188,2.497,2.589,2.556c2.409,0.059,4.822,0.067,7.23-0.005c2.296-0.068,2.586-0.287,2.636-2.628
		c0.106-4.934,0.067-9.87,0.086-14.805c0.004-0.918-0.024-1.837,0.006-2.754c0.085-2.619,0.76-3.295,3.25-3.304
		c2.496-0.009,3.272,0.658,3.311,3.286c0.073,5.049,0.004,10.1,0.029,15.149c0.021,3.982,0.859,4.864,4.803,5.047
		c1.604,0.074,3.214,0.063,4.819,0.016c2.62-0.078,2.916-0.344,2.937-3.052c0.044-5.738-0.018-11.478,0.028-17.217
		c0.021-2.64,0.7-3.239,3.268-3.229c2.56,0.009,3.158,0.565,3.174,3.307c0.035,6.083,0.094,12.168-0.028,18.249
		c-0.121,5.991-2.739,8.585-8.737,8.622c-4.079,0.025-8.31,0.731-12.045-1.738c-0.787-0.521-1.28,0.075-1.815,0.438
		c-1.589,1.079-3.364,1.362-5.236,1.346c-2.984-0.026-5.969,0.036-8.953-0.021c-2.851-0.056-5.527-0.643-7.076-3.386
		c-0.648-1.148-1.435-0.831-2.32-0.523c-2.331,0.808-4.729,0.827-7.141,0.549c-5.188-0.599-8.72-3.606-9.874-8.654
		c-0.83-3.628-0.743-7.298,0.379-10.883c1.443-4.608,4.648-7.234,9.343-8.088c2.153-0.392,4.337-0.413,6.521-0.377
		c1.05,0.018,1.859,0.026,2.23-1.438c0.5-1.976,1.98-2.472,4.318-2.106c1.957,0.307,2.25,1.637,2.242,3.264
		c-0.018,3.672-0.005,7.345-0.005,11.019C761.565,1862.792,761.569,1862.792,761.573,1862.792z M754.849,1864.634
		c0.015,0,0.03,0,0.044,0c0-1.483,0.004-2.967-0.001-4.451c-0.002-0.703-0.04-1.461-0.989-1.45
		c-2.383,0.025-4.788-0.355-7.142,0.341c-1.902,0.563-3.153,1.747-3.673,3.687c-0.357,1.331-0.546,2.676-0.533,4.057
		c0.049,5.288,3.059,7.719,8.241,6.638c2.541-0.529,3.79-1.802,4.029-4.374C754.961,1867.61,754.849,1866.117,754.849,1864.634z"/>
	<path fill-rule="evenodd" clip-rule="evenodd" fill="#161515" d="M1091.662,1713.705c-2.659-0.474-5.067-0.209-7.46-0.247
		c-1.527-0.023-2.42-0.548-2.335-2.202c0.012-0.229,0.002-0.459-0.006-0.688c-0.179-4.969-0.18-4.97,4.727-4.972
		c6.653-0.001,13.307-0.011,19.96,0.005c3.63,0.009,3.7,0.098,3.731,3.605c0.004,0.459,0.016,0.918-0.002,1.376
		c-0.097,2.538-0.288,2.747-2.746,2.858c-2.393,0.108-4.802-0.201-7.138,0.2c-0.511,0.94-0.324,1.877-0.325,2.781
		c-0.012,11.7-0.012,23.401-0.006,35.103c0.002,3.298-0.397,3.095,3.181,3.091c4.243-0.005,8.49,0.063,12.731-0.062
		c4.07-0.119,4.96-1.06,5.195-5.177c0.111-1.944,0.008-3.9,0.069-5.849c0.076-2.379,0.307-2.702,2.514-2.718
		c6.501-0.047,5.863-0.545,5.871,5.57c0.005,4.244,0.02,8.488-0.006,12.733c-0.019,3.238-0.24,3.483-3.566,3.501
		c-6.882,0.035-13.766,0.011-20.647,0.011c-6.539,0-13.078,0.012-19.616-0.005c-3.819-0.01-3.907-0.115-3.927-3.81
		c-0.002-0.573,0.021-1.148,0.002-1.721c-0.06-1.719,0.723-2.543,2.478-2.482c1.489,0.051,2.982,0.001,4.474,0.01
		c3.068,0.02,2.854,0.09,2.851-2.739c-0.01-7.687-0.003-15.372-0.003-23.058C1091.662,1723.79,1091.662,1718.757,1091.662,1713.705z
		"/>
	<path fill-rule="evenodd" clip-rule="evenodd" fill="#010404" d="M1132.169,1330.267c5.438-2.079,11.075-3.499,16.729-4.802
		c4.888-1.125,9.735-2.36,14.519-3.858c2.102,4.228,3.186,8.799,4.328,13.327c2.293,9.086,4.218,18.248,4.79,27.639
		c-2.26,0.256-4.024-0.624-5.996-1.781c-3.653-2.146-7.337-4.318-11.922-4.51c-3.014-0.126-6.165-0.231-8.988-2.318
		c-1.945-1.438-4.324-3.121-7.223-2.292c-1.689-6.069-3.047-12.233-5.202-18.17
		C1132.816,1332.438,1132.512,1331.346,1132.169,1330.267z"/>
	<path fill-rule="evenodd" clip-rule="evenodd" fill="#AB0E0E" d="M985.08,1876.724c5.162-0.001,10.324,0.028,15.485-0.013
		c2.843-0.022,2.94-0.117,2.958-2.898c0.039-5.735-0.018-11.471,0.026-17.206c0.021-2.641,0.756-3.35,3.183-3.392
		c2.507-0.043,3.324,0.637,3.368,3.21c0.077,4.588,0.023,9.177,0.024,13.766c0.001,0.917-0.044,1.839,0.017,2.752
		c0.155,2.374,0.919,3.333,3.309,3.59c2.158,0.232,4.354,0.094,6.527,0.201c1.845,0.091,2.322-0.81,2.297-2.507
		c-0.074-4.932-0.024-9.865-0.024-14.798c0-0.917-0.027-1.835,0.006-2.752c0.112-3.074,2.773-4.55,5.493-3.091
		c0.944,0.508,1.232,1.324,1.23,2.281c-0.012,6.423,0.2,12.858-0.143,19.266c-0.303,5.668-3.273,8.193-8.934,8.277
		c-3.758,0.055-7.619,0.507-11.025-1.718c-0.783-0.511-1.265-0.013-1.83,0.336c-1.82,1.125-3.823,1.419-5.93,1.414
		c-10.553-0.023-21.106-0.001-31.66-0.025c-1.137-0.003-2.301-0.089-3.407-0.338c-3.745-0.842-5.695-2.813-5.854-6.616
		c-0.23-5.496-0.151-11.01-0.078-16.514c0.024-1.86,0.695-2.217,3.081-2.246c2.622-0.03,3.283,0.316,3.333,2.336
		c0.109,4.356,0.027,8.717,0.053,13.076c0.021,3.578,0.039,3.593,3.696,3.605C975.215,1876.736,980.147,1876.724,985.08,1876.724z"
		/>
	<path fill-rule="evenodd" clip-rule="evenodd" fill="#22F7FF" d="M865.129,1293.707c-3.311,2.521-7.449,3.239-11.09,5.085
		c-4.943,2.505-10.158,4.471-15.241,6.705c-0.85,0.373-1.675,0.691-2.613,0.619c-0.045-5.154-0.122-10.309-0.13-15.462
		c-0.019-12.834-0.006-25.667-0.006-38.501c0-1.138,0-2.276,0-3.378c1.122-0.347,1.261,0.519,1.585,1.031
		c9.009,14.207,18.007,28.422,26.994,42.644C864.865,1292.825,864.965,1293.286,865.129,1293.707z"/>
	<path fill-rule="evenodd" clip-rule="evenodd" fill="#43F6FD" d="M943,1006.492c0.023-0.929,0.046-1.856,0.071-2.785
		c13.486,0.023,26.971,0.046,40.455,0.067c-1.23,4.771-3.378,9.17-5.803,13.398c-1.365,2.379-2.714,4.766-3.808,7.258
		c-1.622,3.694-4.115,7.167-3.488,11.554c-6.872,0.228-13.743,0.347-20.616,0.063c0.494-1.879,2.206-1.646,3.548-1.995
		c0.758-0.197,1.603-0.078,2.347-0.306c1.223-0.372,1.768-1.042,1.393-2.557c-0.449-1.814-1.148-3.448-2.295-4.854
		c-2.949-3.611-5.446-7.531-8.037-11.394c-0.969-1.444-1.649-2.867-1.896-4.646C944.685,1008.952,944.602,1007.267,943,1006.492z"/>
	<path fill-rule="evenodd" clip-rule="evenodd" fill="#43F6FD" d="M1019.884,1149.197c1.838-4.479,4.876-8.248,7.312-12.373
		c0.287-0.487,0.779-0.855,1.058-1.347c3.164-5.564,7.078-10.629,10.631-15.933c0.575-0.86,1.108-1.744,1.21-2.811
		c7.109-0.01,14.219-0.02,21.328-0.03c0.124,1.715-0.547,3.469-1.663,4.351c-2.64,2.084-3.067,5.122-3.575,7.863
		c-0.954,5.144-2.615,10.101-3.537,15.226c-0.318,1.768-1.09,3.496-0.832,5.36
		C1041.168,1149.697,1030.521,1149.943,1019.884,1149.197z"/>
	<path fill-rule="evenodd" clip-rule="evenodd" fill="#AB0E0E" d="M826.36,1883.412c-2.551,0-4.837,0.075-7.118-0.013
		c-7.563-0.294-11.891-4.324-12.647-11.819c-0.371-3.678-0.186-7.318,1.176-10.835c3.037-7.842,12.002-11.094,19.342-7
		c2.556,1.425,4.043,3.653,4.933,6.351c0.907,2.75,1.21,5.599,1.231,8.472c0.037,5.274,0.05,10.551-0.01,15.825
		c-0.018,1.594-0.192,3.208-0.492,4.774c-0.872,4.551-3.308,6.958-7.845,7.302c-3.764,0.286-7.563,0.213-11.344,0.132
		c-2.049-0.044-2.38-0.672-2.364-3.304c0.015-2.516,0.392-3.084,2.517-3.183c2.289-0.105,4.586-0.008,6.879-0.04
		C825.957,1889.999,826.748,1889.123,826.36,1883.412z M826.54,1869.911c-0.05-2.214,0.212-4.856-0.759-7.407
		c-0.867-2.276-2.464-3.506-4.854-3.77c-3.008-0.331-5.583,1.193-6.763,4.18c-1.266,3.198-1.13,6.543-0.453,9.816
		c0.456,2.205,2.051,3.603,4.352,3.792c2.279,0.187,4.579,0.116,6.867,0.205c1.154,0.044,1.664-0.406,1.624-1.593
		C826.499,1873.532,826.54,1871.926,826.54,1869.911z"/>
	<path fill-rule="evenodd" clip-rule="evenodd" fill="#AB0E0E" d="M1098.043,1865.526c0,3.098,0.092,6.199-0.021,9.292
		c-0.204,5.606-3.018,8.465-8.598,8.57c-4.088,0.078-8.306,0.631-12.025-1.829c-0.728-0.481-1.247-0.128-1.854,0.259
		c-1.79,1.142-3.796,1.587-5.892,1.598c-4.818,0.024-9.638,0.045-14.456,0.003c-2.643-0.023-3.221-0.665-3.241-3.251
		c-0.02-2.635,0.552-3.365,3.123-3.417c4.243-0.086,8.49,0.025,12.734-0.047c3.969-0.067,4.504-0.643,4.591-4.66
		c0.053-2.408,0.072-4.82,0.004-7.228c-0.111-3.939-1.642-5.675-5.576-6.013c-2.621-0.225-5.272-0.084-7.911-0.12
		c-3.271-0.044-4.01-0.927-3.67-4.142c0.157-1.49,0.848-2.406,2.35-2.422c4.24-0.047,8.509-0.427,12.705,0.383
		c5.418,1.045,8.657,5.064,8.979,11.066c0.147,2.746,0.03,5.506,0.059,8.259c0.038,3.652,0.981,4.657,4.66,4.858
		c1.602,0.088,3.213,0.069,4.817,0.025c2.511-0.07,2.736-0.255,2.762-2.783c0.051-4.933,0.016-9.867,0.016-14.801
		c0-0.803-0.016-1.606,0.004-2.409c0.071-2.944,1.133-3.835,4.03-3.496c1.624,0.189,2.462,0.94,2.434,2.666
		c-0.054,3.212-0.016,6.425-0.016,9.638C1098.049,1865.526,1098.046,1865.526,1098.043,1865.526z"/>
	<path fill-rule="evenodd" clip-rule="evenodd" fill="#010404" d="M1018.83,1398.444c4.997,0.063,9.995,0.126,14.992,0.189
		c1.634,2.593,3.298,5.166,4.891,7.784c1.013,1.665,1.963,3.246,3.923,4.111c1.204,0.53,2.161,1.703,2.842,2.917
		c0.577,1.028,1.314,1.925,2.274,2.531c2.038,1.288,4.108,2.478,5.007,4.931c0.136,0.371,0.611,0.701,1.007,0.881
		c2.551,1.16,4.58,2.9,6.256,5.148c0.513,0.688,1.445,1.092,2.235,1.537c0.633,0.357,1.161,0.726,1.198,1.52
		c-7.033,0.045-14.065,0.086-21.099,0.138c-1.246,0.01-2.492,0.065-3.738,0.1c-6.488-10.174-12.977-20.349-19.466-30.522
		C1018.904,1399.32,1018.68,1398.932,1018.83,1398.444z"/>
	<path fill-rule="evenodd" clip-rule="evenodd" fill="#43F6FD" d="M1104.133,1003.724c0.077,1.46-0.428,2.772-1.438,3.737
		c-1.415,1.354-1.725,3.213-2.418,4.861c-0.681,1.62-0.555,3.357,0.971,4.704c2.548,2.247,3.924,5.017,3.562,8.495
		c-0.142,1.368,0.344,2.462,1.386,3.329c1.6,1.333,2.651,3.131,3.999,4.675c0.663,0.76,0.853,1.585,0.827,2.525
		c-8.706,0.239-17.41,0.041-26.115-0.083c0.572-2.78,1.96-5.299,2.451-8.138c0.395-2.288-0.176-4.619,0.438-6.805
		c0.968-3.449,0.091-7.062,1.164-10.488c0.22-0.701,0.065-1.631-0.202-2.351c-0.54-1.453-0.399-2.926-0.424-4.402
		C1093.6,1003.627,1098.864,1003.417,1104.133,1003.724z"/>
	<path fill-rule="evenodd" clip-rule="evenodd" fill="#B70202" d="M1140.186,914.132c-5.375-0.021-10.751-0.021-16.126-0.07
		c-2.733-0.026-3.108-0.448-2.494-2.967c0.372-1.526,0.577-3.149,1.73-4.398c0.298-0.324,0.518-0.779,0.629-1.211
		c1.458-5.652,4.769-10.533,6.646-16.008c0.407-1.188,0.921-2.265,1.735-3.285c1.195-1.497,2.441-3.039,2.866-5.008
		c1.589-0.149,3.178-0.202,4.764,0.029c0.162,0.186,0.324,0.372,0.485,0.558c0.033,10.356,0.071,20.712,0.086,31.068
		C1140.509,913.27,1140.298,913.701,1140.186,914.132z"/>
	<path fill-rule="evenodd" clip-rule="evenodd" fill="#43F6FD" d="M873.185,1092.487c-5.512,3.039-10.662,6.624-15.517,10.608
		c-4.049,3.323-7.942,6.836-11.905,10.266c-2.652-4.039-4.57-8.397-5.712-13.096c2.792-0.287,4.549-2.496,6.728-3.835
		c5.584-3.433,11.174-6.89,16.31-11.019c2.12-1.705,4.595-2.923,7.146-3.927C870.987,1085.215,871.948,1088.889,873.185,1092.487z"
		/>
	<path fill-rule="evenodd" clip-rule="evenodd" fill="#22F7FF" d="M778.614,1093.778c2.329,0.259,2.058,2.402,2.248,3.717
		c1.632,11.277,4.657,22.243,7.31,33.286c2.07,8.619,4.458,17.162,6.736,25.729c0.232,0.873,0.762,1.665,1.013,2.534
		c0.227,0.786-0.453,0.897-1.02,1.014c-5.641-8.07-10.566-16.598-15.935-24.842c-0.531-0.815-0.593-1.7-0.592-2.628
		c0.011-12.488,0.008-24.977,0.023-37.464C778.397,1094.676,778.538,1094.227,778.614,1093.778z"/>
	<path fill-rule="evenodd" clip-rule="evenodd" fill="#AB0E0E" d="M1032.185,1890.129c6.754-0.192,7.114-0.567,7.114-7.197
		c0.002-8.707-0.016-17.414,0.011-26.121c0.009-2.917,0.896-3.748,3.609-3.594c2.191,0.124,2.854,0.674,2.859,2.954
		c0.026,10.195,0.157,20.396-0.107,30.585c-0.196,7.578-5.439,10.252-12.105,9.847c-0.438-0.027-1.146-0.128-1.253-0.39
		c-0.956-2.314-2.933-1.655-4.666-1.703c-2.982-0.08-3.354-0.432-3.439-3.371c-0.023-0.802-0.022-1.604,0.015-2.405
		c0.078-1.655,0.962-2.499,2.625-2.514c0.229-0.002,0.458,0.002,0.688-0.006C1031.301,1886.083,1031.581,1886.309,1032.185,1890.129
		z"/>
	<path fill-rule="evenodd" clip-rule="evenodd" fill="#161515" d="M1138.405,1351.671c2.898-0.829,5.277,0.854,7.223,2.292
		c2.823,2.087,5.975,2.192,8.988,2.318c4.585,0.191,8.269,2.363,11.922,4.51c1.972,1.157,3.736,2.037,5.996,1.781
		c0.661,2.471,0.591,4.998,0.576,7.521c-0.185,0.394-0.104,0.69,0.314,0.863c0.121,2.168,0.464,4.346-0.285,6.475
		c-6.044-1.747-10.651-6.058-16.042-8.962c-4.4-2.369-8.543-5.253-13.388-6.779c-1.248-0.394-2.466-0.419-3.717-0.479
		C1139.464,1358.03,1138.935,1354.851,1138.405,1351.671z"/>
	<path fill-rule="evenodd" clip-rule="evenodd" fill="#AB0E0E" d="M938.061,1859.308c0,6.884,0.026,13.769-0.011,20.652
		c-0.016,3.051-0.658,3.602-3.675,3.472c-2.208-0.096-2.786-0.636-2.961-2.879c-0.063-0.799-0.014-1.605-0.014-2.409
		c0-12.736,0-25.472,0-38.208c0-0.803-0.045-1.609,0.013-2.408c0.183-2.515,0.845-3.053,3.562-2.979
		c2.419,0.066,3.05,0.599,3.068,3.072C938.093,1844.85,938.061,1852.079,938.061,1859.308z"/>
	<path fill-rule="evenodd" clip-rule="evenodd" fill="#161515" d="M1028.386,1456.913c0.271-2.169-0.434-4.123-1.646-5.813
		c-1.979-2.756-3.688-5.74-6.652-7.698c-1.562-1.032-1.949-2.85-0.963-4.936c0.908-1.923,1.234-3.638,0.027-5.488
		c-0.386-0.593-0.589-1.344-0.318-1.978c0.889-2.083,0.897-4.432,1.994-6.442c3.43,5.336,6.871,10.664,10.282,16.011
		c3.364,5.271,6.696,10.562,10.324,16.288C1036.866,1457.086,1032.624,1456.939,1028.386,1456.913z"/>
	<path fill-rule="evenodd" clip-rule="evenodd" fill="#8AFAFF" d="M970.427,1035.984c-0.627-4.387,1.866-7.859,3.488-11.554
		c1.094-2.492,2.443-4.879,3.808-7.258c2.425-4.229,4.573-8.628,5.803-13.398c2.546-0.031,5.093-0.063,7.639-0.095
		c-0.924,2.442-1.828,4.894-2.777,7.326c-2.023,5.178-4.057,10.352-6.113,15.517c-0.926,2.327-1.882,4.644-2.894,6.935
		c-0.378,0.855-0.665,1.694-0.623,2.632C975.981,1036.054,973.204,1036.019,970.427,1035.984z"/>
	<path fill-rule="evenodd" clip-rule="evenodd" fill="#161515" d="M1043.781,1670.896c0.002-1.827-0.007-3.655,0.004-5.482
		c0.009-1.383,0.758-2.159,2.104-2.178c3.312-0.046,6.625-0.065,9.934,0.017c1.329,0.034,2.032,0.897,2.031,2.271
		c-0.003,3.654,0.012,7.31,0,10.965c-0.004,1.514-0.765,2.34-2.311,2.344c-3.197,0.008-6.396,0-9.594,0.001
		c-1.41,0-2.117-0.778-2.155-2.111C1043.738,1674.781,1043.78,1672.838,1043.781,1670.896z"/>
	<path fill-rule="evenodd" clip-rule="evenodd" fill="#161515" d="M1162.175,1542.954c0.001,1.826-0.016,3.653,0.006,5.479
		c0.019,1.592-0.761,2.241-2.323,2.22c-3.081-0.042-6.164-0.047-9.246,0.001c-1.782,0.027-2.414-0.827-2.388-2.523
		c0.053-3.538,0.054-7.078,0-10.616c-0.024-1.565,0.661-2.402,2.181-2.426c3.194-0.048,6.392-0.037,9.587-0.009
		c1.541,0.013,2.241,0.835,2.195,2.396C1162.133,1539.301,1162.174,1541.128,1162.175,1542.954z"/>
	<path fill-rule="evenodd" clip-rule="evenodd" fill="#161515" d="M1187.053,1542.853c0,1.826,0.005,3.652-0.002,5.479
		c-0.005,1.494-0.633,2.34-2.26,2.319c-3.081-0.038-6.163-0.041-9.244,0.004c-1.704,0.024-2.533-0.674-2.515-2.429
		c0.036-3.538,0.043-7.076-0.007-10.613c-0.023-1.74,0.808-2.532,2.466-2.543c3.081-0.019,6.162-0.015,9.243-0.001
		c1.512,0.006,2.33,0.741,2.32,2.307C1187.045,1539.201,1187.053,1541.027,1187.053,1542.853z"/>
	<path fill-rule="evenodd" clip-rule="evenodd" fill="#AB0E0E" d="M934.664,1901.47c-1.83,0-3.663,0.071-5.488-0.018
		c-2.674-0.132-3.989-2.606-2.118-4.44c1.249-1.223,1.064-2.237,1.073-3.569c0.02-3.179,1.099-5.886,4.177-7.283
		c3.017-1.368,6.028-1.177,8.787,0.73c1.733,1.199,2.11,2.497,1.322,3.733c-0.949,1.489-2.235,1.788-4.107,0.939
		c-0.412-0.187-0.783-0.483-1.209-0.613c-1.833-0.561-3.064,0.105-3.369,1.775c-0.341,1.862,0.561,3.254,2.341,3.391
		c1.479,0.112,2.978-0.043,4.457,0.067c2.021,0.151,2.597,0.872,2.525,2.857c-0.066,1.858-0.478,2.316-2.56,2.41
		C938.555,1901.539,936.608,1901.47,934.664,1901.47z"/>
	<path fill-rule="evenodd" clip-rule="evenodd" fill="#686767" d="M858.829,1457.57c0.456-5.527,1.153-10.898,4.053-15.914
		c1.629-2.817,3.55-5.518,4.812-8.563c0.35-0.844,0.829-1.637,1.905-1.72c0.558,3.053,0.179,6.132,0.22,9.197
		c0.069,5.016-0.038,10.034,0.048,15.05c0.028,1.655-0.547,2.239-2.17,2.148C864.745,1457.603,861.777,1458.003,858.829,1457.57z"/>
	<path fill-rule="evenodd" clip-rule="evenodd" fill="#8AFAFF" d="M1088.333,1003.784c0.024,1.477-0.116,2.949,0.424,4.402
		c0.268,0.72,0.422,1.649,0.202,2.351c-1.073,3.427-0.196,7.039-1.164,10.488c-0.613,2.186-0.043,4.517-0.438,6.805
		c-0.491,2.839-1.879,5.357-2.451,8.138c-1.629,0.035-3.258,0.07-4.887,0.105c1.3-4.929,2.443-9.906,3.945-14.772
		c1.31-4.243,0.603-8.272-0.486-12.355c-0.466-1.747-1.454-3.355-1.392-5.242
		C1084.169,1003.729,1086.251,1003.757,1088.333,1003.784z"/>
	<path fill-rule="evenodd" clip-rule="evenodd" fill="#AB0E0E" d="M749.163,1844.769c-1.476,1.913-4.767,2.829-6.812,1.883
		c-0.531-0.245-1.039-0.611-1.147-1.192c-0.335-1.807-0.311-3.636-0.02-5.444c0.092-0.567,0.545-1.094,1.113-1.203
		c2.555-0.497,5.066-0.641,7.066,1.513c1.777-2.645,4.388-1.692,6.785-1.512c0.543,0.04,0.923,0.654,1.103,1.214
		c0.137,0.429,0.274,0.898,0.237,1.334c-0.156,1.842,0.771,4.052-1.407,5.273C754.247,1847.665,750.799,1846.645,749.163,1844.769z"
		/>
	<path fill-rule="evenodd" clip-rule="evenodd" fill="#AB0E0E" d="M776.461,1888.549c0.6-1.22,1.109-2.32,2.481-2.291
		c1.571,0.034,3.233-0.481,4.686,0.434c1.181,0.745,1.364,5.93,0.332,7.093c-1.288,1.45-5.691,0.828-7.737-1.228
		c-1.438,2.823-4.005,1.889-6.3,1.853c-0.882-0.014-1.477-0.692-1.657-1.513c-0.37-1.684-0.367-3.397-0.001-5.086
		c0.153-0.707,0.69-1.163,1.357-1.432C771.667,1885.556,774.807,1886.442,776.461,1888.549z"/>
	<path fill-rule="evenodd" clip-rule="evenodd" fill="#161515" d="M862.651,998.046c-5.471,2.016-11.102,2.788-16.911,2.179
		c-2.225-4.182-4.453-8.362-5.41-13.068c1.529,0.374,2.376,1.694,3.533,2.578C849.466,994.012,855.825,996.551,862.651,998.046z"/>
	<path fill-rule="evenodd" clip-rule="evenodd" fill="#38B4B9" d="M959.785,1411.625c1.111,2.621,2.892,4.861,4.127,7.437
		c1.346,2.805,2.339,5.654,2.886,8.693c-0.044,1.218,0.114,2.462-0.517,3.59c-2.906-4.438-6.094-8.704-8.237-13.603
		c2.052,0.345,2.261,0.235,1.708-1.285c-0.966-2.658-1.952-5.32-3.529-7.709c-0.995-1.508-2.207-2.932-2.145-4.904
		C956.495,1406.061,957.621,1409.224,959.785,1411.625z"/>
	<path fill-rule="evenodd" clip-rule="evenodd" fill="#AB0E0E" d="M860.784,1849.569c-3.334-0.04-3.732-0.534-3.656-4.543
		c0.066-3.451,0.375-3.729,4.11-3.688c3.354,0.036,3.777,0.55,3.701,4.488C864.874,1849.146,864.357,1849.61,860.784,1849.569z"/>
	<path fill-rule="evenodd" clip-rule="evenodd" fill="#AB0E0E" d="M1023.384,1890.454c-0.022,3.63-3.236,5.515-6.573,3.841
		c-0.527-0.265-0.923-0.706-1.027-1.295c-0.119-0.67-0.182-1.355-0.203-2.036c-0.143-4.442,1.526-5.779,5.84-4.697
		C1023.024,1886.668,1023.401,1887.475,1023.384,1890.454z"/>
	<path fill-rule="evenodd" clip-rule="evenodd" fill="#AB0E0E" d="M988.5,1890.381c0,0.685,0.012,1.371-0.002,2.057
		c-0.025,1.221-0.661,1.893-1.872,2.023c-0.113,0.013-0.228,0.017-0.341,0.031c-4.74,0.604-6.716-1.801-5.333-6.479
		c0.288-0.974,0.9-1.575,1.895-1.74c0.448-0.073,0.913-0.042,1.369-0.058C988.165,1886.085,988.531,1886.439,988.5,1890.381z"/>
	<path fill-rule="evenodd" clip-rule="evenodd" fill="#AB0E0E" d="M1132.565,1845.328c-0.503,0.999-1.285,1.582-2.432,1.532
		c-1.347-0.06-2.738,0.304-4.026-0.307c-0.773-0.367-1.065-1.078-1.203-1.924c-0.837-5.133,1.03-6.976,6.12-5.929
		c0.51,0.104,0.944,0.571,1.413,0.867C1132.479,1841.487,1132.522,1843.407,1132.565,1845.328z"/>
	<path fill-rule="evenodd" clip-rule="evenodd" fill="#AB0E0E" d="M873.476,1845.305c0.01,3.959-0.282,4.279-3.897,4.265
		c-3.423-0.014-3.808-0.424-3.822-4.069c-0.014-3.958,0.187-4.168,3.972-4.162C873.313,1841.344,873.466,1841.506,873.476,1845.305z
		"/>
	<path fill-rule="evenodd" clip-rule="evenodd" fill="#AB0E0E" d="M1094.623,1848.066c-1.612,1.435-4.923,2.023-6.481,1.158
		c-0.76-0.422-1.148-1.066-1.171-1.929c-0.161-6.216-0.205-6.101,5.815-5.923c0.75,0.022,1.245,0.467,1.729,0.948
		C1094.55,1844.234,1094.586,1846.15,1094.623,1848.066z"/>
	<path fill-rule="evenodd" clip-rule="evenodd" fill="#AB0E0E" d="M1095.805,1842.313c1.846-1.747,4.072-0.767,6.148-0.852
		c0.103-0.005,0.216,0.064,0.311,0.121c1.473,0.884,1.132,2.355,1.111,3.668c-0.022,1.408,0.482,3.029-1.186,3.962
		c-1.57,0.877-4.862,0.297-6.493-1.136C1095.732,1846.158,1095.77,1844.235,1095.805,1842.313z"/>
	<path fill-rule="evenodd" clip-rule="evenodd" fill="#AB0E0E" d="M1133.604,1840.187c0.417-1.069,1.2-1.63,2.346-1.583
		c1.454,0.059,2.953-0.327,4.348,0.329c0.526,0.247,0.846,0.768,0.923,1.348c0.089,0.669,0.143,1.354,0.109,2.026
		c-0.077,1.622,0.597,3.865-1.604,4.306c-2.033,0.406-4.556,1.309-6.104-1.302
		C1133.616,1843.604,1133.61,1841.896,1133.604,1840.187z"/>
	<path fill-rule="evenodd" clip-rule="evenodd" fill="#AB0E0E" d="M793.123,1845.467c-0.001-0.683-0.056-1.371,0.011-2.047
		c0.131-1.319,0.851-2.074,2.231-2.073c0.911,0.001,1.823-0.005,2.733,0.043c0.902,0.048,1.505,0.571,1.691,1.43
		c0.366,1.686,0.448,3.419-0.007,5.078c-0.584,2.131-2.452,1.61-3.986,1.659c-1.422,0.046-2.463-0.505-2.657-2.043
		C793.053,1846.842,793.124,1846.149,793.123,1845.467z"/>
	<path fill-rule="evenodd" clip-rule="evenodd" fill="#AB0E0E" d="M1215.742,1845.544c-0.015,3.494-0.646,4.153-3.859,4.023
		c-2.414-0.097-2.938-0.621-3.052-3.096c-0.026-0.57-0.015-1.144-0.002-1.715c0.066-3.015,0.437-3.393,3.329-3.419
		C1215.441,1841.308,1215.758,1841.679,1215.742,1845.544z"/>
	<path fill-rule="evenodd" clip-rule="evenodd" fill="#FFF286" d="M1095.805,1842.313c-0.035,1.922-0.072,3.845-0.108,5.764
		c-0.358-0.004-0.717-0.004-1.074-0.008c-0.036-1.919-0.072-3.835-0.107-5.748
		C1094.945,1842.32,1095.375,1842.317,1095.805,1842.313z"/>
	<path fill-rule="evenodd" clip-rule="evenodd" fill="#FFF286" d="M1133.604,1840.187c0.007,1.709,0.013,3.418,0.019,5.124
		c-0.354,0.006-0.706,0.015-1.058,0.021c-0.042-1.924-0.086-3.844-0.127-5.763
		C1132.827,1839.776,1133.215,1839.981,1133.604,1840.187z"/>
	<path fill-rule="evenodd" clip-rule="evenodd" fill="#D66E16" d="M991.776,755.563c-1.084,0.091-2.168,0.183-3.251,0.274
		c-0.069-0.119-0.086-0.246-0.05-0.38C989.587,755.154,990.697,754.898,991.776,755.563z"/>
	<path fill-rule="evenodd" clip-rule="evenodd" fill="#38B4B9" d="M956.663,1415.662c0.725,0.208,0.84,0.74,0.738,1.389
		C956.797,1416.778,956.605,1416.287,956.663,1415.662z"/>
	<path fill-rule="evenodd" clip-rule="evenodd" fill="#38B4B9" d="M955.093,1413.541c0.799,0.161,1.05,0.68,0.937,1.436
		C955.416,1414.694,955.278,1414.103,955.093,1413.541z"/>
	<path fill-rule="evenodd" clip-rule="evenodd" fill="#010404" d="M929.204,1279.966c-0.751-0.097-0.751-0.097-0.27-1.044
		C929.023,1279.27,929.113,1279.617,929.204,1279.966z"/>
	<path fill-rule="evenodd" clip-rule="evenodd" fill="#686767" d="M1173.425,1370.956c-0.419-0.173-0.499-0.47-0.314-0.863
		C1173.439,1370.299,1173.58,1370.573,1173.425,1370.956z"/>
	<path fill-rule="evenodd" clip-rule="evenodd" fill="#E42828" d="M1140.422,881.77c-0.161-0.186-0.323-0.373-0.485-0.558
		C1140.378,881.155,1140.6,881.289,1140.422,881.77z"/>
	<path fill-rule="evenodd" clip-rule="evenodd" fill="#38B4B9" d="M957.383,1417.025c0.47,0.02,0.699,0.262,0.678,0.734
		C957.567,1417.762,957.415,1417.449,957.383,1417.025z"/>
	<path fill-rule="evenodd" clip-rule="evenodd" fill="#38B4B9" d="M956.015,1414.953c0.477,0.021,0.67,0.298,0.673,0.746
		C956.224,1415.667,956.052,1415.371,956.015,1414.953z"/>
	<polygon fill-rule="evenodd" clip-rule="evenodd" fill="#161515" points="840.201,986.917 840.234,986.996 840.115,986.889 	"/>
	<path fill-rule="evenodd" clip-rule="evenodd" fill="#161515" d="M1063.455,1429.994c-0.037-0.794-0.565-1.162-1.198-1.52
		c-0.79-0.445-1.723-0.849-2.235-1.537c-1.676-2.248-3.705-3.988-6.256-5.148c-0.396-0.18-0.871-0.51-1.007-0.881
		c-0.898-2.453-2.969-3.643-5.007-4.931c-0.96-0.606-1.697-1.503-2.274-2.531c-0.681-1.214-1.638-2.387-2.842-2.917
		c-1.96-0.865-2.91-2.446-3.923-4.111c-1.593-2.618-3.257-5.191-4.891-7.784c13.408,0.009,26.815,0.005,40.224,0.041
		c2.331,0.006,2.81,0.337,3.05,2.693c0.201,1.962,0.728,3.788,1.271,5.656c1.545,5.31,3.65,10.276,7.592,14.321
		c1.895,1.945,2.295,4.697,3.423,7.058c0.347,0.726,0.083,1.342-0.837,1.456c-0.227,0.028-0.457,0.035-0.686,0.036
		C1079.725,1429.93,1071.59,1429.962,1063.455,1429.994z"/>
	<path fill-rule="evenodd" clip-rule="evenodd" fill="#38B4B9" d="M947.307,1392.31c-1.222-0.632-1.604-1.676-1.458-2.977
		C946.822,1390.087,947.267,1391.099,947.307,1392.31z"/>
	<path fill-rule="evenodd" clip-rule="evenodd" fill="#38B4B9" d="M953.748,1403.279c-1.007-0.086-1.278-0.646-1.002-1.557
		C953.448,1402.005,953.812,1402.505,953.748,1403.279z"/>
	<path fill-rule="evenodd" clip-rule="evenodd" fill="#38B4B9" d="M950.855,1398.493c-0.822-0.086-1.076-0.603-1.024-1.351
		C950.752,1397.153,950.831,1397.802,950.855,1398.493z"/>
</g>
</svg>
