<?xml version="1.0" encoding="utf-8"?>
<!-- Generator: Adobe Illustrator 16.0.0, SVG Export Plug-In . SVG Version: 6.00 Build 0)  -->
<!DOCTYPE svg PUBLIC "-//W3C//DTD SVG 1.1//EN" "http://www.w3.org/Graphics/SVG/1.1/DTD/svg11.dtd">
<svg version="1.1" id="Layer_1" xmlns="http://www.w3.org/2000/svg" xmlns:xlink="http://www.w3.org/1999/xlink" x="0px" y="0px"
	 width="2000px" height="2000px" viewBox="0 0 2000 2000" style="enable-background:new 0 0 2000 2000;" xml:space="preserve">
<style type="text/css">
<![CDATA[
	.st0{fill:#464E57;}
	.st1{fill:#48505A;}
	.st2{fill:#133849;}
	.st3{fill:#E3E4E3;}
	.st4{fill:#E55957;}
	.st5{fill:#B3B2B3;}
	.st6{fill:#1F8BC3;}
	.st7{opacity:0.2;fill:#231F20;}
	.st8{fill:#F1F1F1;}
	.st9{fill:#5B6375;}
	.st10{fill:#F6F4F4;}
	.st11{fill:#2B5875;}
	.st12{fill:#2E5A77;}
	.st13{fill:#2F363E;}
	.st14{fill:#FFB74D;}
	.st15{fill:#FFFFFF;}
	.st16{fill:#CCCBCC;}
	.st17{fill:#CED5E0;}
	.st18{fill:#D67040;}
	.st19{fill:#D89545;}
	.st20{fill:#0E303F;}
	.st21{fill:#DDE4E8;}
]]>
</style>
<ellipse class="st6" cx="1001.1" cy="1007.3" rx="988.6" ry="992.7"/>
<g>
	<path class="st17" d="M643.9,1271.3c0,17.7-1.9,35-5.6,51.6c-4.4,19.7-11.2,38.5-20.2,56c-14.3,28.1-34.1,52.9-57.9,73.1
		c-0.6,0.5-1.2,1-1.8,1.5c-10.1,8.4-20.9,16-32.3,22.6c-35,20.3-75.6,32-119,32c-41.3,0-80.2-10.6-114-29.2
		c-1.7-0.9-3.4-1.9-5.1-2.9c-61.8-36-105.9-99.3-115.7-173.4c-1.3-10.3-2.1-20.8-2.1-31.4c0-17.7,1.9-34.8,5.6-51.4
		c0.1-0.7,0.3-1.4,0.5-2c1.8-8,4.1-15.8,6.7-23.5c0.7-1.9,1.3-3.8,2-5.7c6.3-17,14.6-33.1,24.4-48c2.8-4.3,5.8-8.5,8.9-12.5
		c9.6-12.6,20.4-24.3,32.3-34.7c0.8-0.7,1.7-1.5,2.5-2.2c2.9-2.5,5.9-4.9,8.9-7.3c21.5-16.7,46-29.8,72.6-38.3
		c0.8-0.3,1.7-0.5,2.5-0.8c22.1-6.8,45.5-10.5,69.9-10.5c5.4,0,10.8,0.2,16.2,0.6c6.2,0.4,12.4,1.1,18.4,2
		c21.7,3.2,42.5,9.3,61.8,17.9c1.2,0.6,2.5,1.1,3.7,1.7c60.4,28.2,106.9,81.2,126.6,145.9c3,9.8,5.3,19.8,7,30.1
		c0.1,0.8,0.3,1.7,0.4,2.5C642.9,1246.9,643.9,1259,643.9,1271.3z"/>
	<path class="st14" d="M633.7,1202.5c-19.6-64.7-66.1-117.6-126.6-145.9c-8.3-0.3-16.4,1.2-23.8,6.7c-11.3,8.5-7.2,24.2-7.8,36.6
		c-14.5,0.7-39.6-6.2-48.4,7c-2.7,4.1-3.4,8-7.4,11.8c-4.1,4-6.6,6.4-10.2,11.3c-2.2,2.9-3.1,5.2-6.4,6c-3.1,13.7,25.4,7.4,33.6,7.4
		c8.5,0,23.3,4.3,30.7,0.8c4.3-2,5-9.5,8.8-10.6c5.4-1.6,7.5,6.7,9.7,9.7c5,6.6,9.4,8.6,17.3,9.1c5.6,0.3,11.6-0.8,17.2,0
		c4,0.6,6.7,2.9,9.9,4.3c-3.8,1.9-5.9,7.5-10.5,9c-6.7,2.2-16.9,1.5-23.9,1.7c-9.4,0.3-8.6-4.4-14.6-9.5c-6.9-5.9-11.5-5.7-20.6-6.2
		c-14.3-0.7-41.1-3.2-52.7,6c-5.7,4.5-3.7,11.1-9,15.5c-8.8,7.2-25.7,5.7-31.8,15.9c-5.4,9-1.2,27.7,0,36.8
		c1.9,13.5,1.6,25.2,15.5,30.5c12.9,5,29,5.8,42.5,8.4c7.4,1.4,16.5,0,18.9,8c1.2,3.9-0.1,9.4,0.7,13.5c1.8,8.8,8,12.8,14.2,18.8
		c6.5,6.2,5.9,10.1,5.9,20c0,14.3,1.3,22.4,6.8,35.4c2.3,5.6,3.7,12.3,3.7,18.7c0,11-3.1,19.8-11.2,26c-9.9,7.6-19.5,16.4-12.6,28.5
		c8.3,6,25.6,1.5,33.3-3.4c13.2-8.5,23.4-13.5,39.1-16.7c28.3-5.7,11.8-33.1,21.8-52.3c2.9-5.7,8.9-8.5,11.8-13.7
		c3.5-6.4,3.8-14.6,3.8-21.7c-0.1-12.6-2.2-24.7-2.2-37.2c0-11.7,3-10.6,10.5-15.9c8.8-6.1,7.4-15,7.5-25.5c0-2.9,0-5.8-0.1-8.6
		c-5.4-2.1-10.6-3.9-16.2-5.9c-3.3-1.2-11.1-2.5-13.5-4.8c-7.5-7.1-10.6-30.4-9.7-40.2c18.4-4.1,15.9,30.6,34.1,31.3
		c20.2,0.8,21.9-11.4,21.1-27.6c-13.7-0.7-17-0.5-16.2-15.7c6.9-1.2,13,3.7,18,7.4c3.4,2.5,8.8,3.6,11.8,6.1
		c7.5,6.2,3.3,18.5,9.8,25.9c3.1,0.7,5.3,2.9,6,5.9c7.1,3.9,10.8,17.1,17.2,23.1c0.1-3.9,0.6-7.7,1.2-11.6
		C639,1222.3,636.7,1212.3,633.7,1202.5z"/>
	<path class="st14" d="M302,1444c1.7-11.1-11.4-17.7-12.6-27.5c-1.4-11.8,9.5-18.1,13-27.5c1.9-5.3,0.5-13,1.4-18.7
		c6.8-1.2,9.2-2.2,14.1-7c5.8-5.8,10.1-6.3,16.7-10.3c11.8-7,19-17.4,17.6-31.7c-1.4-14.5-6.4-33-20.7-39.4
		c-6.9-3.1-9.2-0.5-11.5-7.9c-1.5-4.8-0.4-10.4-1.4-15.2c-7.7-4.9-16.2-10.7-24.6-15.2c-8.4-4.5-19.5-11.8-29.4-13.2
		c-4.9-0.7-9.1-0.2-13.3,1.5c-1.3,0.5-1,2.9-2.9,3.6c-2.1,0.8-6.3-0.2-8.4-0.8c-10.5-2.9-25.1-15.1-27.6-25.4
		c-0.8-3.4-0.1-7.3-1.6-10.5c-1.1-2.4-4.2-4-5.8-6.6c-3.4-5.4-5.6-13.4,2.9-16.6c7.5-2.9,9.6,2.7,15.8,4.7c8.6,2.8,17.5-1,25.3-4.1
		c0.4-6.7,7.8-14.9,12.5-19.1c6.4-5.7,14.4-9,21.2-13.8c4.6-3.2,8.7-7,13.5-9.6c7.6-4.1,39.6-9.1,28.2-23c-4.3-5.2-11.9-8.2-15.6-15
		c-1.4-2.6-1.6-5-2.8-7.7c-4.8-11.3-11.9-9.8-22.6-6.1c-9.5,3.2-12.9,12.4-24.5,10.7c-2-0.3-3.8-0.7-5.5-1.3
		c-0.8,0.7-1.7,1.5-2.5,2.2c-11.9,10.5-22.7,22.1-32.3,34.7c-3.1,4.1-6.1,8.3-8.9,12.5c-9.9,14.9-18.1,31-24.4,48
		c-0.7,1.9-1.4,3.8-2,5.7c-2.6,7.7-4.9,15.5-6.7,23.5c-0.2,0.7-0.3,1.4-0.5,2c4.8,1.8,8.9-4.5,14.7-1.6c6.1,3.1,7,16.5,12.7,21.7
		c9,8.2,25.4-0.2,32.2,12.7c9.3,17.8-6.5,50.5,10.6,64c7.1,5.6,9,3.4,8.1,14.7c-0.8,9.9-2.5,19.6,0,29.2c2.6,10.4,9.8,17.2,10.7,28
		c0.7,9.2,1.4,13.9,5.9,21.7c4.9,8.5,9.8,16.6,14.1,25.5C289.6,1445.9,291.2,1444.3,302,1444z"/>
	<path class="st14" d="M337.1,1085.8c4.1,6.6,19.8,10.7,27.1,6.7c6.7-3.7,8-11.9,18-14.4c7.8-2,24.3,1.7,29.8-5
		c4.8-5.8-1.9-16.5,3.3-21.5c4.1-3.9,13.2-0.4,18-3.8c1.4-1,7.3-8.5,8-10c0.1-0.3,0.2-0.5,0.3-0.7c-6.1-0.9-12.2-1.5-18.4-2
		c-5.3-0.4-10.7-0.6-16.2-0.6c-24.3,0-47.8,3.7-69.9,10.5c-0.8,0.3-1.7,0.5-2.5,0.8c1.4,2.5,2.8,5.1,3.4,8.6
		C340.1,1064.9,330.6,1075.2,337.1,1085.8z"/>
	<path class="st14" d="M478.6,1459.9c-9.6,1.4-19,0.7-28.4-0.7c-9.4-1.4-25.7-3-34.3,1.3c-5.6,2.7-5.8,9.3-10.8,12.7
		c-4.5,3.1-12.9,1.7-18.4,3.3c-0.4,4.9,2.9,8.6,2,14c-16.2,0.8-37.5,2.2-51.2-7.4c-13.1-9.1,0.3-18-4-29.9c-3-8.3-9.9-8.7-16.7-5
		c-7.9,4.3-10,12.4-14.8,18.6c-3.2,4.1-11,2.8-13.5,7.4c-0.4,0.7-0.6,1.4-0.7,2.1c1.7,1,3.4,1.9,5.1,2.9
		c33.8,18.6,72.7,29.2,114,29.2c43.4,0,84-11.7,119-32c11.4-6.6,22.2-14.2,32.3-22.6c-2.1-1.3-4.9-1.6-8.6-2
		C525.6,1449.2,501.8,1456.4,478.6,1459.9z"/>
</g>
<g>
	<path class="st17" d="M403.2,1034.5v473.7c-36.1,0-78.3-10.6-112.1-29.2c-1.7-0.9-2.4-1.9-4.1-2.9c-61.8-36-105.4-99.3-115.2-173.4
		c-1.3-10.3-1.8-20.8-1.8-31.4c0-17.6,2.1-34.8,5.7-51.4c0.1-0.7,0.3-1.4,0.5-2c1.8-8,4.1-15.8,6.7-23.5c0.7-1.9,1.4-3.8,2.1-5.7
		c6.3-17,14.6-33.1,24.5-48c2.8-4.3,5.8-8.5,8.9-12.5c9.6-12.6,20.4-24.3,32.3-34.7c0.8-0.7,1.7-1.5,2.5-2.2
		c2.9-2.5,5.9-4.9,8.9-7.3c21.5-16.7,46-29.8,72.6-38.3c0.8-0.3-0.2-0.5,0.6-0.8C357.3,1038.1,386.2,1034.5,403.2,1034.5z"/>
	<path class="st14" d="M403.2,1133.6v9.8c0-1.3-4.7-3.5-3.8-7.4C401.1,1135.6,403.2,1134.7,403.2,1133.6z"/>
	<path class="st14" d="M403.2,1158.7v103.2c-4.2-1.2-14.9-2.7-22.2-5.6c-13.9-5.3-12.6-17.1-14.5-30.5c-1.3-9.1-4.9-27.8,0.5-36.8
		c6.1-10.2,21.3-8.7,30.1-15.9C402,1169.1,401.1,1163.1,403.2,1158.7z"/>
	<path class="st14" d="M302,1444c1.7-11.1-11.4-17.7-12.6-27.5c-1.4-11.8,9.5-18.1,13-27.5c1.9-5.3,0.5-13,1.4-18.7
		c6.8-1.2,9.2-2.2,14.1-7c5.8-5.8,10.1-6.3,16.7-10.3c11.8-7,19-17.4,17.6-31.7c-1.4-14.5-6.4-33-20.7-39.4
		c-6.9-3.1-9.2-0.5-11.5-7.9c-1.5-4.8-0.4-10.4-1.4-15.2c-7.7-4.9-16.2-10.7-24.6-15.2c-8.4-4.5-19.5-11.8-29.4-13.2
		c-4.9-0.7-9.1-0.2-13.3,1.5c-1.3,0.5-1,2.9-2.9,3.6c-2.1,0.8-6.3-0.2-8.4-0.8c-10.5-2.9-25.1-15.1-27.6-25.4
		c-0.8-3.4-0.1-7.3-1.6-10.5c-1.1-2.4-4.2-4-5.8-6.6c-3.4-5.4-5.6-13.4,2.9-16.6c7.5-2.9,9.6,2.7,15.8,4.7c8.6,2.8,17.5-1,25.3-4.1
		c0.4-6.7,7.8-14.9,12.5-19.1c6.4-5.7,14.4-9,21.2-13.8c4.6-3.2,8.7-7,13.5-9.6c7.6-4.1,39.6-9.1,28.2-23c-4.3-5.2-11.9-8.2-15.6-15
		c-1.4-2.6-1.6-5-2.8-7.7c-4.8-11.3-11.9-9.8-22.6-6.1c-9.5,3.2-12.9,12.4-24.5,10.7c-2-0.3-3.8-0.7-5.5-1.3
		c-0.8,0.7-1.7,1.5-2.5,2.2c-11.9,10.5-22.7,22.1-32.3,34.7c-3.1,4.1-6.1,8.3-8.9,12.5c-9.9,14.9-18.1,31-24.4,48
		c-0.7,1.9-1.4,3.8-2,5.7c-2.6,7.7-4.9,15.5-6.7,23.5c-0.2,0.7-0.3,1.4-0.5,2c4.8,1.8,8.9-4.5,14.7-1.6c6.1,3.1,7,16.5,12.7,21.7
		c9,8.2,25.4-0.2,32.2,12.7c9.3,17.8-6.5,50.5,10.6,64c7.1,5.6,9,3.4,8.1,14.7c-0.8,9.9-2.5,19.6,0,29.2c2.6,10.4,9.8,17.2,10.7,28
		c0.7,9.2,1.4,13.9,5.9,21.7c4.9,8.5,9.8,16.6,14.1,25.5C289.6,1445.9,291.2,1444.3,302,1444z"/>
	<path class="st14" d="M403.2,1034.5v41.7c-4.2,2.3-16.8,0.4-22.9,1.9c-10.1,2.6-10.4,10.7-17.1,14.4c-7.2,4-22.5,0-26.6-6.7
		c-6.5-10.6,3.2-20.9,1.2-31.5c-0.6-3.4-1.9-6-3.3-8.6c0.8-0.3-0.2-0.5,0.6-0.8C357.3,1038.1,386.2,1034.5,403.2,1034.5z"/>
	<path class="st14" d="M403.2,1471.5v36.7c-36.1,0-78.3-10.6-112.1-29.2c-1.7-0.9-2.4-1.9-4.1-2.9c0.1-0.7,0.8-1.4,1.2-2.1
		c2.4-4.7,10.5-3.4,13.7-7.4c4.8-6.2,7-14.2,14.9-18.6c6.8-3.7,13.7-3.3,16.7,5c4.3,11.9-9,20.8,4,29.9c13.7,9.6,35,8.3,51.2,7.4
		c0.9-5.4-2.4-9-2-14c5.5-1.6,12-0.2,16.5-3.3C404,1472.6,403.2,1472.1,403.2,1471.5z"/>
</g>
<g>
	<path class="st16" d="M545.6,738.9c0-66.8-54.2-121-121-121c-66.8,0-121,54.2-121,121c0,47.4,27.2,88.4,66.8,108.2v27.7
		c0,6.6,5.1,11.9,11.5,11.9h89.4c6.3,0,11.5-5.3,11.5-11.9v-29.7C520.2,824.5,545.6,784.7,545.6,738.9z"/>
	<path class="st5" d="M426.5,617.4v265.4h-46.2c-3.6,0-6.8,0-8.9-2.6c0,0-0.1,0.7-0.1,0.7c-1-1.3-2-2.3-2.4-4c0,0,0.4,0.2,0.4,0.1
		c-0.2-0.9-0.2-1.7-0.2-2.7v-27.6c-42.5-19.9-66.8-60.9-66.8-108.2c0-66.8,54.2-121,121.1-121C424.5,617.3,426.5,617.4,426.5,617.4z
		"/>
	<rect x="370.3" y="857.6" class="st12" width="112.1" height="109.6"/>
	<path class="st20" d="M364.7,963.5c4.4,22.6,30.2,40,61.4,40s57-17.4,61.4-40H364.7z"/>
	<path class="st20" d="M502.4,867.6c0,5.5-6.2,10-13.9,10H364.7c-7.7,0-13.9-4.5-13.9-10l0,0c0-5.5,6.2-10,13.9-10h123.9
		C496.2,857.6,502.4,862.1,502.4,867.6L502.4,867.6z"/>
	<path class="st20" d="M501.9,901.3c0,5.5-6.2,10-13.9,10H364.1c-7.7,0-13.9-4.5-13.9-10l0,0c0-5.5,6.2-10,13.9-10H488
		C495.7,891.3,501.9,895.8,501.9,901.3L501.9,901.3z"/>
	<path class="st20" d="M503.2,936.9c0,5.5-6.2,10-13.9,10H365.4c-7.7,0-13.9-4.5-13.9-10l0,0c0-5.5,6.2-10,13.9-10h123.9
		C497,926.8,503.2,931.3,503.2,936.9L503.2,936.9z"/>
	<path class="st20" d="M467.1,733.3c0.3-0.3,0.5-0.8,0.5-1.2c0-1.1-0.9-2-2-2c-3.6,0-5.2,2.9-6.5,5.2c-1.1,2-1.9,3.2-3,3.2
		c-1.1,0-1.9-1.2-3-3.2c-1.3-2.3-2.9-5.3-6.4-5.3h0c-3.6,0-5.2,2.9-6.5,5.2c-1.1,2-1.9,3.2-3,3.2c-1.1,0-1.9-1.2-3-3.2
		c-1.3-2.3-2.9-5.3-6.4-5.3c-3.6,0-5.2,2.9-6.5,5.2c-1.1,2-1.9,3.2-3,3.2c-1.1,0-1.9-1.2-3-3.2c-1.3-2.3-2.9-5.3-6.4-5.3
		c-3.6,0-5.2,2.9-6.5,5.2c-1.1,2-1.9,3.2-3,3.2c-1.1,0-1.9-2-3-4c-1.3-2.3-2.9-6.1-6.4-6.1h0h0h0c-1.1,0-2,1.7-2,2.8
		c0,0.5,0.2,1.3,0.5,1.7c1.9,4.6,16.3,40.4,20.2,76.9c2.9,27-1.4,62.3-1.5,62.7c-0.1,0.5,0.1,1.1,0.4,1.5s0.8,0.8,1.3,0.8l0.1,0.1
		h0.1c1,0,1.8-0.8,1.9-1.8c0-0.4,4.4-36,1.5-63.5c-2.9-27.6-11.8-54.7-16.9-68.6c1,0.9,2.2,1.5,3.8,1.6c3.6,0,5.2-2.9,6.5-5.2
		c1.1-2,1.9-3.2,3-3.2c1.1,0,1.9,1.2,3,3.2c1.3,2.3,2.9,5.3,6.4,5.3c3.6,0,5.2-2.9,6.5-5.2c1.1-2,1.9-3.2,3-3.2c1.1,0,1.9,1.2,3,3.2
		c1.3,2.3,2.9,5.3,6.4,5.3c3.6,0,5.2-2.9,6.5-5.2c1.1-2,1.9-3.2,3-3.2c1.1,0,1.9,1.2,3,3.2c1.3,2.3,2.9,5.3,6.4,5.3
		c1.8,0,3.1-0.7,4.1-1.7c-5.1,13.8-14.2,40.8-17.4,68.5c-3.5,29.5-0.7,63-0.7,63.4c0.1,1,0.9,1.7,1.9,1.7h0.1l0.1,0.1
		c0.5,0,1-0.3,1.3-0.6c0.3-0.4,0.5-0.9,0.4-1.4c0-0.3-2.7-33.7,0.7-62.6C450.7,773.3,465.2,737.9,467.1,733.3z M463.7,735.3
		L463.7,735.3c-0.1,0.2-0.1,0.3-0.2,0.5C463.6,735.6,463.6,735.5,463.7,735.3z M463.4,732.1L463.4,732.1c-1.4,0.8-2.3,2.4-3.2,3.9
		c-0.1,0.2-0.2,0.3-0.3,0.5c0.1-0.2,0.2-0.3,0.3-0.5C461.2,734.4,462.1,732.9,463.4,732.1z M462.3,734.8c-0.1,0.1-0.1,0.2-0.2,0.3
		C462.2,735,462.2,734.9,462.3,734.8z M461.9,735.5c-0.2,0.3-0.4,0.7-0.6,1.1C461.5,736.2,461.7,735.8,461.9,735.5z M460.6,737.7
		c-0.1,0.2-0.2,0.3-0.3,0.5C460.4,738,460.5,737.8,460.6,737.7z M456,739.9L456,739.9L456,739.9c-0.5,0-1-0.1-1.4-0.3
		C455,739.7,455.5,739.9,456,739.9z M439.6,738.5c-0.7,0.7-1.4,1.2-2.5,1.2l0,0C438.1,739.7,438.9,739.2,439.6,738.5z M437.1,739.8
		C437.1,739.8,437.1,739.8,437.1,739.8C437.1,739.8,437.1,739.8,437.1,739.8c-1.3,0-2.2-0.8-2.9-1.8
		C434.9,739,435.8,739.8,437.1,739.8z M425.9,731.6c-0.5,0.2-1,0.6-1.4,1C424.9,732.2,425.4,731.8,425.9,731.6z M419.6,739.2
		c-0.4,0.2-0.9,0.3-1.4,0.3l0,0C418.7,739.5,419.1,739.4,419.6,739.2z M416.8,739.2c-0.6-0.3-1.1-0.8-1.6-1.5
		C415.7,738.3,416.2,738.8,416.8,739.2z M411.9,732.5c-0.8-0.9-1.8-1.4-3.1-1.4c0,0,0,0,0,0c0,0,0,0,0,0
		C410.1,731,411.1,731.6,411.9,732.5z M408.7,731L408.7,731c-0.7,0-1.2,0.1-1.8,0.4C407.5,731.1,408.1,731,408.7,731z M395,733.9
		c1.1,2,0.5,4.1,2.5,4.1c0,0,1.7-1.5,1.7-1.5c0,0,0,0,0,0C397.2,736.5,396.1,736,395,733.9 M402.5,770.7c-1.1-4.3-2.3-8.3-3.5-12.1
		C400.2,762.4,401.4,766.4,402.5,770.7c3.1,11.7,6,25.1,7.4,38.5c0.9,8.5,1.1,17.8,1,26.6c0,1.8-0.1,3.5-0.1,5.2
		c0.1-1.7,0.1-3.4,0.1-5.2c0.2-8.8,0-18.1-1-26.6C408.5,795.7,405.7,782.4,402.5,770.7z M408.9,872.6L408.9,872.6
		c0.1,0,0.2,0,0.2-0.1C409.1,872.6,409,872.6,408.9,872.6C408.9,872.6,408.9,872.6,408.9,872.6z M409.4,872.2c0,0.1-0.1,0.2-0.2,0.3
		C409.3,872.5,409.4,872.4,409.4,872.2c0-0.1,0.1-1,0.3-2.6C409.5,871.3,409.4,872.2,409.4,872.2z M409.8,868.6
		c0.1-0.8,0.2-1.6,0.3-2.6C410,867,409.9,867.9,409.8,868.6z M393.1,734.2c0.1,0.1,0.1,0.2,0.2,0.2
		C393.2,734.3,393.1,734.3,393.1,734.2L393.1,734.2z M399.2,740.4c-1,0-1.8-0.3-2.5-0.9C397.4,740.1,398.2,740.4,399.2,740.4
		C399.2,740.4,399.3,740.4,399.2,740.4L399.2,740.4C399.3,740.4,399.2,740.4,399.2,740.4z M405.8,733.9c-0.3,0.4-0.6,0.9-0.9,1.4
		c-0.1,0.2-0.3,0.5-0.4,0.7c-0.3,0.5-0.6,1.1-1,1.6c0.3-0.5,0.7-1.1,1-1.6c0.1-0.3,0.3-0.5,0.4-0.7
		C405.2,734.8,405.5,734.3,405.8,733.9c0.3-0.4,0.6-0.8,1-1.1C406.4,733.1,406.1,733.5,405.8,733.9z M408.7,732.1L408.7,732.1
		c-0.3,0-0.5,0-0.7,0.1C408.2,732.1,408.5,732.1,408.7,732.1z M411.2,733.3c-0.3-0.4-0.7-0.7-1.1-0.9
		C410.5,732.7,410.9,733,411.2,733.3c0.7,0.7,1.2,1.7,1.8,2.7C412.4,735.1,411.9,734.1,411.2,733.3z M418.2,740.6
		c-0.3,0-0.6,0-0.9-0.1C417.5,740.6,417.8,740.6,418.2,740.6C418.2,740.6,418.2,740.6,418.2,740.6L418.2,740.6
		C418.2,740.6,418.2,740.6,418.2,740.6z M420,740.2c0.5-0.2,1-0.6,1.4-1C420.9,739.6,420.5,740,420,740.2z M421.9,738.5
		c0.4-0.5,0.7-1,1-1.5C422.6,737.5,422.3,738.1,421.9,738.5z M431.9,736.1c-1.1-2-2.2-4.1-4.2-4.1c0,0,0,0,0,0c0,0,0,0,0,0
		C429.7,732,430.8,734.1,431.9,736.1c0.5,0.8,0.9,1.7,1.5,2.4C432.8,737.8,432.4,736.9,431.9,736.1z M437.1,740.8
		C437.1,740.8,437.1,740.8,437.1,740.8L437.1,740.8C437.1,740.8,437.1,740.8,437.1,740.8z M446.6,732C446.6,732,446.6,732,446.6,732
		c-0.9,0-1.6,0.4-2.2,1C445,732.4,445.7,732,446.6,732C446.6,732,446.6,732,446.6,732c1.8,0,2.8,1.5,3.8,3.2
		C449.4,733.5,448.4,732,446.6,732z M456,739.8c-1,0-1.8,0.3-2.5-0.3c0.7,0.5,1.5,1.2,2.5,1.2c0.2,0,0.4-0.5,0.5-0.5
		C456.4,740.2,456.2,739.8,456,739.8C456,739.8,456,739.8,456,739.8z M458.2,740.3c-0.1,0.1-0.3,0.2-0.4,0.3
		C457.9,740.5,458.1,740.4,458.2,740.3z M457.4,740.7c-0.2,0.1-0.3,0.1-0.5,0.2C457.1,740.8,457.3,740.8,457.4,740.7z M458.5,740.1
		c0.1-0.1,0.3-0.2,0.4-0.3C458.8,739.9,458.6,740,458.5,740.1z M459.2,739.6c0.1-0.1,0.2-0.3,0.3-0.4
		C459.4,739.3,459.3,739.4,459.2,739.6z M460.1,738.4c-0.1,0.2-0.2,0.3-0.3,0.5C459.9,738.7,460,738.6,460.1,738.4z M461.8,740.3
		c-0.7,1.7-1.4,3.7-2.2,5.9C460.4,744,461.1,742.1,461.8,740.3z M458.8,748.5c-0.8,2.3-1.7,4.9-2.5,7.6
		C457.1,753.4,458,750.8,458.8,748.5z M443.4,872.5c0,0.1,0.1,0.2,0.2,0.3C443.4,872.8,443.4,872.7,443.4,872.5z M443.8,873
		c-0.1,0-0.1,0-0.2-0.1C443.7,872.9,443.8,873,443.8,873L443.8,873C443.8,873,443.8,873,443.8,873z"/>
</g>
<g>
	<path class="st4" d="M1803.5,1543.8c0,45.4-32.4,82.2-72.3,82.2H1355c-39.9,0-72.3-36.8-72.3-82.2v-267.6
		c0-38.2,183.1-140.7,241-172.2c10.9-5.9,23.4-6.1,33.7-0.6c57.4,30.7,246.1,134.3,246.1,172.8V1543.8z"/>
	<path class="st21" d="M1713.5,1146h-70h-200.5h-70c-16.3,0-30,10-30,22.6v70.7v354c0,12.6,13.4,22.8,29.8,22.8l0.2-0.1h340.4v0.1
		c15.3,0,27.9-8.9,29.4-20.5c0.1-0.8,0.1-1.5,0.1-2.3v-354v-70.7C1743,1156,1729.9,1146,1713.5,1146z"/>
	<g>
		<g>
			<g>
				<rect x="1403.6" y="1197.4" class="st13" width="287.3" height="8.4"/>
			</g>
			<g>
				<rect x="1403.6" y="1218.2" class="st13" width="200" height="8.4"/>
			</g>
			<g>
				<rect x="1403.6" y="1239.7" class="st13" width="200" height="8.4"/>
			</g>
			<g>
				<rect x="1403.6" y="1262" class="st13" width="272.2" height="8.4"/>
			</g>
			<g>
				<rect x="1403.6" y="1283.5" class="st13" width="176.2" height="8.4"/>
			</g>
			<g>
				<rect x="1403.6" y="1303.5" class="st13" width="231.6" height="8.4"/>
			</g>
			<g>
				<rect x="1403.6" y="1322.6" class="st13" width="263.4" height="8.4"/>
			</g>
			<g>
				<rect x="1403.6" y="1341.5" class="st13" width="205.8" height="8.4"/>
			</g>
			<g>
				<rect x="1403.6" y="1360.8" class="st13" width="252.9" height="8.4"/>
			</g>
			<g>
				<rect x="1403.6" y="1380.4" class="st13" width="272.2" height="8.4"/>
			</g>
			<g>
				<rect x="1403.6" y="1401.9" class="st13" width="176.2" height="8.4"/>
			</g>
			<g>
				<rect x="1403.6" y="1421.8" class="st13" width="231.6" height="8.4"/>
			</g>
		</g>
	</g>
	<rect x="1403.6" y="1440.9" class="st2" width="263.4" height="8.4"/>
	<rect x="1403.6" y="1459.9" class="st2" width="205.8" height="8.4"/>
	<rect x="1403.6" y="1479.1" class="st2" width="252.9" height="8.4"/>
	<rect x="1403.6" y="1498.1" class="st2" width="252.9" height="8.4"/>
	<path class="st7" d="M1643.6,1151l11.5,90.1c0,0-1.7,11.8,11.9,12.6c13.6,0.8,76.1-14,76.1-14L1643.6,1151z"/>
	<path class="st4" d="M1643.6,1146.1v81c0,0-1.7,11.8,11.9,12.6c13.6,0.8,87.6,0,87.6,0L1643.6,1146.1z"/>
	<path class="st4" d="M1803.5,1282.4v265.5c-1.5,21.9-8.2,37.7-16.8,49.1c-20.3,27-51.5,29.5-51.5,29.5l-192.1-190.1L1803.5,1282.4z
		"/>
	<path class="st4" d="M1543.1,1436.5L1351,1626.6c0,0-31.2-2.5-51.5-29.5c-8.6-11.4-15.3-27.3-16.8-49.1v-265.5L1543.1,1436.5z"/>
	<path class="st4" d="M1786.7,1597.1c-20.3,27-51.5,29.5-51.5,29.5H1351c0,0-31.2-2.5-51.5-29.5l243.6-160.6L1786.7,1597.1z"/>
</g>
<g>
	<path class="st15" d="M1025.2,358.2c0,72.2-58.6,130.8-130.8,130.8c-72.2,0-130.8-58.6-130.8-130.8c0-72.2,58.6-130.8,130.8-130.8
		C966.6,227.5,1025.2,286,1025.2,358.2z"/>
	<path class="st9" d="M894.4,227.5c72.2,0,130.8,58.6,130.8,130.8c0,72.2-58.6,130.8-130.8,130.8c-72.2,0-130.8-58.6-130.8-130.8
		C763.6,286,822.1,227.5,894.4,227.5 M894.4,216c-9.6,0-19.3,1-28.7,2.9c-9.1,1.9-18.1,4.7-26.7,8.3c-8.4,3.6-16.6,8-24.2,13.1
		c-7.5,5.1-14.6,10.9-21,17.4c-6.4,6.4-12.3,13.5-17.4,21c-5.1,7.6-9.6,15.7-13.1,24.2c-3.6,8.6-6.4,17.6-8.3,26.7
		c-1.9,9.4-2.9,19-2.9,28.7c0,9.6,1,19.3,2.9,28.7c1.9,9.1,4.7,18.1,8.3,26.7c3.6,8.4,8,16.6,13.1,24.2c5.1,7.5,10.9,14.6,17.4,21
		c6.4,6.4,13.5,12.3,21,17.4c7.6,5.1,15.7,9.6,24.2,13.1c8.6,3.6,17.6,6.4,26.7,8.3c9.4,1.9,19,2.9,28.7,2.9c9.6,0,19.3-1,28.7-2.9
		c9.1-1.9,18.1-4.7,26.7-8.3c8.4-3.6,16.6-8,24.2-13.1c7.5-5.1,14.6-10.9,21-17.4c6.4-6.4,12.3-13.5,17.4-21
		c5.1-7.6,9.6-15.7,13.1-24.2c3.6-8.6,6.4-17.6,8.3-26.7c1.9-9.4,2.9-19,2.9-28.7c0-9.6-1-19.3-2.9-28.7c-1.9-9.1-4.7-18.1-8.3-26.7
		c-3.6-8.4-8-16.6-13.1-24.2c-5.1-7.5-10.9-14.6-17.4-21c-6.4-6.4-13.5-12.3-21-17.4c-7.6-5.1-15.7-9.6-24.2-13.1
		c-8.6-3.6-17.6-6.4-26.7-8.3C913.7,216.9,904,216,894.4,216L894.4,216z"/>
	<rect x="909.8" y="356.6" transform="matrix(0.866 -0.5 0.5 0.866 -74.6093 509.1906)" class="st18" width="5.9" height="74.4"/>
	<path class="st9" d="M894.5,350.8L894.5,350.8L894.5,350.8C894.5,350.8,894.5,350.8,894.5,350.8l-43.5-45c-1.2-1.5-3.1-2.4-5.1-2.4
		c-3.7,0-6.6,3-6.6,6.6c0,1.9,0.8,3.6,2.1,4.9l43.6,45.2c0.1,0.1,0.2,0.2,0.3,0.3c1.2,1.1,2.7,1.7,4.5,1.7c3.6,0,6.6-2.9,6.6-6.6
		C896.4,353.6,895.7,352,894.5,350.8z"/>
	<path class="st9" d="M959.6,344.8L959.6,344.8L959.6,344.8C959.5,344.8,959.5,344.8,959.6,344.8l-56.5,7.1
		c-1.7,0.1-3.4,0.9-4.6,2.4c-2,2.7-1.4,6.4,1.2,8.4c1.4,1,3.1,1.4,4.7,1.1l56.7-7.1c0.1,0,0.3-0.1,0.4-0.1c1.4-0.3,2.8-1,3.7-2.3
		c2-2.6,1.4-6.4-1.2-8.4C962.6,345,961.1,344.6,959.6,344.8z"/>
	<g>
		<circle class="st3" cx="896.4" cy="360" r="10"/>
		<path class="st13" d="M896.4,350c5.5,0,10,4.5,10,10c0,5.5-4.5,10-10,10s-10-4.5-10-10C886.4,354.5,890.9,350,896.4,350
			 M896.4,342.6c-9.6,0-17.5,7.8-17.5,17.5c0,9.6,7.8,17.5,17.5,17.5c9.6,0,17.5-7.8,17.5-17.5C913.9,350.4,906.1,342.6,896.4,342.6
			L896.4,342.6z"/>
	</g>
	<path class="st9" d="M896.5,265.5L896.5,265.5c-1.8,0-3.3-1.5-3.3-3.3v-19.8c0-1.8,1.5-3.3,3.3-3.3l0,0c1.8,0,3.3,1.5,3.3,3.3v19.8
		C899.9,264,898.4,265.5,896.5,265.5z"/>
	<path class="st9" d="M962,294.3L962,294.3c-1.3-1.3-1.3-3.4,0-4.7l14-14c1.3-1.3,3.4-1.3,4.7,0l0,0c1.3,1.3,1.3,3.4,0,4.7l-14,14
		C965.4,295.6,963.3,295.6,962,294.3z"/>
	<path class="st9" d="M987.6,360L987.6,360c0-1.8,1.5-3.3,3.3-3.3l19.8,0c1.8,0,3.3,1.5,3.3,3.3l0,0c0,1.8-1.5,3.3-3.3,3.3l-19.8,0
		C989.2,363.4,987.6,361.9,987.6,360z"/>
	<path class="st9" d="M960.4,423.4L960.4,423.4c1.3-1.3,3.4-1.3,4.7,0l14,14c1.3,1.3,1.3,3.4,0,4.7l0,0c-1.3,1.3-3.4,1.3-4.7,0
		l-14-14C959.1,426.9,959.1,424.7,960.4,423.4z"/>
	<path class="st9" d="M896.7,451.2L896.7,451.2c1.8,0,3.3,1.5,3.4,3.3l0,19.8c0,1.8-1.5,3.3-3.3,3.4l0,0c-1.8,0-3.4-1.5-3.4-3.3
		l0-19.8C893.4,452.8,894.9,451.2,896.7,451.2z"/>
	<path class="st9" d="M831,426L831,426c1.3,1.3,1.3,3.4,0,4.7l-14,14c-1.3,1.3-3.4,1.3-4.7,0l0,0c-1.3-1.3-1.3-3.4,0-4.7l14-14
		C827.5,424.7,829.7,424.7,831,426z"/>
	<path class="st9" d="M802.3,360.4L802.3,360.4c0,1.8-1.5,3.4-3.3,3.4l-19.8,0.1c-1.8,0-3.4-1.5-3.4-3.3l0,0c0-1.8,1.5-3.4,3.3-3.4
		l19.8-0.1C800.8,357.1,802.3,358.6,802.3,360.4z"/>
	<path class="st9" d="M829.4,293.5L829.4,293.5c-1.3,1.3-3.4,1.3-4.7,0l-14-13.9c-1.3-1.3-1.3-3.4,0-4.7l0,0c1.3-1.3,3.4-1.3,4.7,0
		l14.1,13.9C830.7,290,830.7,292.2,829.4,293.5z"/>
</g>
<path class="st1" d="M645,453.8h-14.2c-1.9-6.4-5.1-15.7-9.3-22.4l0-0.2l10-10.1c2.2-2.2,2.2-5.9,0-8.1l-17.5-17.5
	c-2.2-2.2-5.9-2.2-8.1,0l-9.3,10c-7-4.2-13-7.3-21.5-9.1v-0.1v-14.2c0-3.2-4-4.8-7.1-4.8h-24.7c-3.2,0-2.1,1.6-2.1,4.8v14.2
	c-6.4,1.9-17.2,5.1-23.9,9.3l-0.9,0l-10.5-10c-2.2-2.2-6.1-2.2-8.3,0L480,413c-2.2,2.2-2.3,5.9-0.1,8.1l10,10.3
	c-4.2,7-7.3,16.1-9.1,22.4h-0.1h-14.2c-3.2,0-1.8,2.1-1.8,5.3v24.7c0,3.2-1.3,8.3,1.8,8.3h14.2c1.9,8.5,5.1,14.1,9.3,20.8l0-0.6
	l-10,9.7c-2.2,2.2-2.2,5.7,0,7.9l17.5,17.4c2.2,2.2,5.9,2.2,8.1,0l11.8-10.1c7,4.2,17.5,7.2,23.9,9.1v0.1v14.2
	c0,3.2-0.9,7.9,2.3,7.9h24.7c3.2,0,7-4.8,7-7.9v-14.2c8.5-1.9,14.7-5.1,21.5-9.3l-0.3,0l9.9,10c2.2,2.2,5.8,2.2,8,0l17.4-17.5
	c2.2-2.2,2.2-5.9,0-8.1l-10.1-8.7c4.2-7,7.3-12.4,9.1-20.9h0.1H645c3.2,0,10.9-5.2,10.9-8.4v-24.7
	C655.9,455.7,648.2,453.8,645,453.8z M541.5,504c-0.3-0.2-0.7-0.3-1-0.5c-1-0.5-2-1-3-1.6c-0.5-0.3-1-0.6-1.4-0.9s-0.9-0.7-1.4-1
	c-0.2-0.2-0.5-0.3-0.7-0.5c-1.3-1-2.5-2.1-3.7-3.3c-1.1-1.2-2.2-2.4-3.2-3.8c-0.4-0.5-0.8-1.1-1.1-1.6c-1.1-1.7-2-3.4-2.8-5.3
	c-1.8-4.3-2.9-9-2.9-14c0-10.4,4.5-19.8,11.7-26.3c0.6-0.6,1.3-1.1,2-1.7c0.2-0.2,0.5-0.3,0.7-0.5c0.5-0.3,0.9-0.7,1.4-1
	c1.4-1,2.9-1.8,4.5-2.6c0.5-0.2,1-0.5,1.6-0.7c4.3-1.8,8.9-2.8,13.8-2.8c5.8,0,11.3,1.4,16.2,3.9c0.5,0.3,1,0.5,1.5,0.8
	c0.7,0.4,1.5,0.9,2.2,1.4c0.5,0.3,0.9,0.7,1.4,1c0.2,0.2,0.5,0.3,0.7,0.5c0.4,0.4,0.9,0.7,1.3,1.1c0.6,0.6,1.3,1.1,1.9,1.7
	c0.4,0.4,0.8,0.8,1.2,1.2c1,1.1,1.9,2.2,2.7,3.3c0.3,0.5,0.6,0.9,1,1.4c0.3,0.5,0.6,1,0.9,1.5c0.4,0.7,0.8,1.5,1.2,2.3
	c2.2,4.7,3.5,9.9,3.5,15.4c0,3.1-0.4,6-1.1,8.9c-0.1,0.6-0.3,1.1-0.5,1.7c-0.3,0.8-0.6,1.7-0.9,2.5c-0.2,0.5-0.4,1.1-0.7,1.6
	c-0.2,0.3-0.3,0.7-0.5,1c-0.3,0.7-0.7,1.4-1.1,2c-0.3,0.5-0.6,1-0.9,1.5c-0.2,0.4-0.5,0.8-0.8,1.1c-0.2,0.3-0.5,0.7-0.7,1
	c-0.2,0.2-0.3,0.5-0.5,0.7c-0.4,0.4-0.7,0.9-1.1,1.3c-0.2,0.2-0.4,0.4-0.6,0.6c-0.4,0.4-0.8,0.8-1.2,1.2c-0.2,0.2-0.4,0.4-0.6,0.6
	c-0.8,0.8-1.7,1.5-2.6,2.2c-0.2,0.2-0.5,0.3-0.7,0.5c-0.5,0.3-0.9,0.7-1.4,1c-0.5,0.3-1,0.6-1.4,0.9c-0.2,0.1-0.5,0.3-0.7,0.4
	c-0.5,0.3-1,0.6-1.5,0.8c-4.9,2.5-10.4,3.9-16.2,3.9c-4.7,0-9.2-0.9-13.3-2.6C542.2,504.3,541.8,504.2,541.5,504z"/>
<path class="st1" d="M1709.8,918.9h-14.2c-1.9-6.4-5.1-16.2-9.3-23l0-0.5l10-10.3c2.2-2.2,2.2-6,0-8.2l-17.5-17.5
	c-2.2-2.2-5.9-2.3-8.1,0l-8.6,10c-7-4.2-12.3-7.3-20.8-9.1v-0.1v-14.2c0-3.2-5.3-3.7-8.5-3.7h-24.7c-3.2,0-5,0.6-5,3.7v14.2
	c-8.5,1.9-15.7,5.1-22.5,9.3l-0.2,0l-10.1-10c-2.2-2.2-5.9-2.2-8.1,0l-17.5,17.5c-2.2,2.2-2.2,5.9,0,8.1l10,10.8
	c-4.2,7-7.3,16.6-9.1,23h-0.1h-14.2c-3.2,0-2.6,1-2.6,4.2v24.7c0,3.2-0.6,9.3,2.6,9.3h14.2c1.9,8.5,5.1,13.6,9.3,20.3l0-0.9l-10,9.6
	c-2.2,2.2-2.2,5.6,0,7.9l17.5,17.4c2.2,2.2,5.9,2.2,8.1-0.1l10.3-10.1c7,4.2,14,7.2,22.5,9v0.1v14.2c0,3.2,2,9,5.1,9h24.7
	c3.2,0,8.4-5.9,8.4-9v-14.2c8.5-1.9,14-5.1,20.8-9.3l-0.6,0l9.7,10c2.2,2.2,5.7,2.2,7.9,0l17.4-17.5c2.2-2.2,2.2-5.9,0-8.1
	l-10.1-8.2c4.2-7,7.2-11.8,9.1-20.3h0.1h14.2c3.2,0,10.2-6.3,10.2-9.5v-24.7C1720,919.8,1713,918.9,1709.8,918.9z M1606.3,968.1
	c-0.3-0.2-0.7-0.3-1-0.5c-1-0.5-2-1-3-1.6c-0.5-0.3-1-0.6-1.4-0.9c-0.5-0.3-0.9-0.7-1.4-1c-0.2-0.2-0.5-0.3-0.7-0.5
	c-1.3-1-2.5-2.1-3.7-3.3c-1.1-1.2-2.2-2.4-3.2-3.8c-0.4-0.5-0.8-1.1-1.1-1.6c-1.1-1.7-2-3.4-2.8-5.3c-1.8-4.3-2.9-9-2.9-14
	c0-10.4,4.5-19.8,11.7-26.3c0.6-0.6,1.3-1.1,2-1.7c0.2-0.2,0.5-0.4,0.7-0.5c0.5-0.3,0.9-0.7,1.4-1c1.4-1,2.9-1.8,4.5-2.6
	c0.5-0.2,1-0.5,1.6-0.7c4.3-1.8,8.9-2.8,13.8-2.8c5.8,0,11.3,1.4,16.2,3.9c0.5,0.3,1,0.5,1.5,0.8c0.7,0.4,1.5,0.9,2.2,1.4
	c0.5,0.3,0.9,0.6,1.4,1c0.2,0.2,0.5,0.3,0.7,0.5c0.4,0.4,0.9,0.7,1.3,1.1c0.6,0.6,1.3,1.1,1.9,1.7c0.4,0.4,0.8,0.8,1.2,1.2
	c1,1.1,1.9,2.2,2.7,3.3c0.3,0.5,0.7,0.9,1,1.4c0.3,0.5,0.6,1,0.9,1.5c0.4,0.7,0.8,1.5,1.2,2.3c2.2,4.7,3.5,9.9,3.5,15.4
	c0,3.1-0.4,6.1-1.1,8.9c-0.1,0.6-0.3,1.1-0.5,1.7c-0.3,0.8-0.5,1.7-0.9,2.5c-0.2,0.5-0.4,1.1-0.7,1.6c-0.2,0.3-0.3,0.7-0.5,1
	c-0.3,0.7-0.7,1.4-1.1,2c-0.3,0.5-0.6,1-0.9,1.5c-0.2,0.4-0.5,0.8-0.8,1.1c-0.2,0.3-0.5,0.7-0.7,1c-0.2,0.2-0.3,0.5-0.5,0.7
	c-0.4,0.4-0.7,0.9-1.1,1.3c-0.2,0.2-0.4,0.4-0.6,0.6c-0.4,0.4-0.8,0.8-1.2,1.2c-0.2,0.2-0.4,0.4-0.6,0.6c-0.8,0.8-1.7,1.5-2.6,2.2
	c-0.2,0.2-0.5,0.3-0.7,0.5c-0.5,0.3-0.9,0.7-1.4,1c-0.5,0.3-1,0.6-1.4,0.9c-0.2,0.1-0.5,0.3-0.7,0.4c-0.5,0.3-1,0.6-1.5,0.8
	c-4.9,2.5-10.4,3.9-16.2,3.9c-4.7,0-9.2-0.9-13.3-2.6C1607,968.4,1606.7,968.2,1606.3,968.1z"/>
<g>
	<line class="st11" x1="1482.1" y1="451.1" x2="1221.4" y2="450.5"/>
	<g>
		
			<rect x="1221.4" y="442.8" transform="matrix(-1 -2.333075e-003 2.333075e-003 -1 2574.9551 904.2191)" class="st11" width="133.1" height="15.6"/>
		<g>
			<path class="st11" d="M1326.5,450.7l-34.4,56.3l1.9,1.3l92-36.3c32-7,64.1-13.9,96.1-20.9c-32-7.1-64-14.2-96-21.4l-91.8-36.7
				l-1.9,1L1326.5,450.7z"/>
		</g>
	</g>
</g>
<g>
	<line class="st11" x1="613.5" y1="1541.8" x2="874.1" y2="1541.2"/>
	<g>
		
			<rect x="741" y="1533.6" transform="matrix(1 -2.340333e-003 2.340333e-003 1 -3.6052 1.8943)" class="st11" width="133.1" height="15.6"/>
		<g>
			<path class="st11" d="M769.1,1541.5l34.4,56.3l-1.9,1.3l-92-36.3c-32-7-64.1-13.9-96.1-20.9c32-7.1,64-14.2,96-21.4l91.8-36.7
				l1.9,1L769.1,1541.5z"/>
		</g>
	</g>
</g>
<g>
	<path class="st0" d="M1494,952.9c0,285.5-231.4,517-517,517c-285.5,0-517-231.5-517-517c0-285.5,231.5-517,517-517
		C1262.6,436,1494,667.4,1494,952.9z"/>
	<path class="st8" d="M1340.3,952.9c0,200.6-162.6,363.2-363.2,363.2c-200.6,0-363.2-162.6-363.2-363.2
		c0-200.6,162.6-363.2,363.2-363.2C1177.7,589.7,1340.3,752.3,1340.3,952.9z"/>
	<path class="st0" d="M1233.5,952.9c0,141.6-114.8,256.4-256.4,256.4c-141.6,0-256.4-114.8-256.4-256.4
		c0-141.6,114.8-256.4,256.4-256.4C1118.7,696.5,1233.5,811.3,1233.5,952.9z"/>
	<path class="st10" d="M1099.4,952.9c0,67.5-54.8,122.3-122.3,122.3c-67.5,0-122.3-54.8-122.3-122.3c0-67.5,54.8-122.3,122.3-122.3
		C1044.6,830.6,1099.4,885.4,1099.4,952.9z"/>
	<path class="st14" d="M1770.4,652.6l-66.4-45.7c1.9-8.1,1.2-16.8-2.9-24.8c-3-6-7.6-10.8-12.9-14.1l7.8-82.3
		c1.1-11.3-6.5-16.6-16.8-12l-173.3,79.1c-10.3,4.7-20.5,17.6-22.7,28.7l-16.8,86.3L997.3,924.4c-17.8,9-35.2,10.4-26.2,28.2
		c9,17.8,20.5,4.5,38.2-4.5l478.4-224.7l66.1,39.2c9.7,5.8,25.9,6.3,36,1.2l179.2-90.4C1779.1,668.4,1779.8,659,1770.4,652.6z"/>
	<path class="st19" d="M1701.2,582.1c-3-6-7.6-10.8-12.9-14.1l7.8-82.3c1.1-11.3-6.5-16.6-16.8-12l-173.3,79.1
		c-10.3,4.7-20.5,17.6-22.7,28.7l-16.8,86.3L997.3,924.4c-17.4,8.8-34.4,10.4-26.8,27l731.7-367.1
		C1701.9,583.6,1701.6,582.8,1701.2,582.1z"/>
</g>
</svg>
