<?xml version="1.0" encoding="utf-8"?>
<!-- Generator: Adobe Illustrator 16.0.0, SVG Export Plug-In . SVG Version: 6.00 Build 0)  -->
<!DOCTYPE svg PUBLIC "-//W3C//DTD SVG 1.1//EN" "http://www.w3.org/Graphics/SVG/1.1/DTD/svg11.dtd">
<svg version="1.1" id="Layer_1" xmlns="http://www.w3.org/2000/svg" xmlns:xlink="http://www.w3.org/1999/xlink" x="0px" y="0px"
	 width="2000px" height="1700px" viewBox="0 0 2000 1700" style="enable-background:new 0 0 2000 1700;" xml:space="preserve">
<style type="text/css">
<![CDATA[
	.st0{fill-rule:evenodd;clip-rule:evenodd;fill:#3A4D54;}
	.st1{fill:#E2E9F2;}
	.st2{fill:#E55957;}
	.st3{fill-rule:evenodd;clip-rule:evenodd;fill:#DDE4E8;}
	.st4{opacity:0.37;}
	.st5{fill:#B3B2B3;}
	.st6{fill:#BF4B4B;}
	.st7{fill:#263238;}
	.st8{fill-rule:evenodd;clip-rule:evenodd;fill:#1C7BA5;}
	.st9{fill-rule:evenodd;clip-rule:evenodd;fill:#1F8BC3;}
	.st10{fill:#FCFAFB;}
	.st11{fill:#2F363E;}
	.st12{fill-rule:evenodd;clip-rule:evenodd;fill:#263238;}
	.st13{fill:#CED5E0;}
	.st14{fill:#D5D5D5;}
	.st15{display:none;fill:#5B6375;}
	.st16{fill:#DDE4E8;}
]]>
</style>
<rect x="-0.3" y="-150" class="st15" width="2000.3" height="2001.1"/>
<g class="st4">
	<g>
		<path class="st7" d="M725.4,811.7c-14.8-3.7-15.6,0.7-17.3-6.7c-1.6-7.4-11.5-7.4-20.5-7.4c-9,0-12.3-0.7-19.7-6.7
			c-7.4-5.9-23-6.7-27.9-8.2c-4.9-1.5-2.5-14.1-12.3-26c-9.9-11.9-30.4-14.1-43.5-20.8c-13.2-6.7-9-32.7-27.9-30.5
			c-18.9,2.2-20.5,8.9-37.8,0.7c-17.3-8.2-28.7-13.4-37.8-7.4c-9,5.9-20.5,17.1-26.3,20.1c-5.7,3-15.6-2.2-21.4-1.5
			c-5.7,0.7-12.3-5.2-16.4-10.4c-4.1-5.2,7.4-31.2-3.3-31.2c-10.7,0-24.7-4.5-24.7-8.2c0-3.7,22.2-26,15.6-29.7
			c-6.6-3.7-19.7-1.5-31.2,12.6c-11.5,14.1-22.2,13.4-27.9,8.2c-5.7-5.2-18.9-35.7-8.2-52.8c10.7-17.1,24.8-27.2,38-26.4
			c13.1,0.7,18.4-2.9,31.6-3.7c13.1-0.7,25.8,4.8,29.1,9.3c3.3,4.5-3.3,11.9,4.9,20.8c8.2,8.9,13.2,5.2,14,8.9
			c0.8,3.7-6.6,7.4-9.9,7.4c-3.3,0-30.4,6.7-19.7,11.1c10.7,4.5,29.6,0.7,33.7,6.7c4.1,5.9-13.1,18.6,11.5,19.3
			c24.7,0.7,41.1,3.7,55,4.5c14,0.7,23.8,1.5,25.5,4.5c1.6,3,11.5-11.1-11.5-11.1c-23,0-41.1-11.9-53.4-14.1
			c-12.3-2.2-20.5-9.7-21.4-18.6c-0.8-8.9,0.8-15.6-4.1-23c-4.9-7.4-17.3-25.3-5.8-32.7c11.5-7.4,34.5-21.6,40.3-31.2
			c5.7-9.7,5.7-11.9,18.9-19.3c13.2-7.4,28.8-17.1,36.2-23.8c7.4-6.7,19.7-17.1,22.2-11.9c2.5,5.2,14,6.7,27.9,2.2
			c14-4.5,31.2-15.6,16.4-15.6c-14.8,0-23.8-3.7-19.7-8.9c4.1-5.2-9.9-7.4-14-6.7c-4.1,0.7-4.1-7.4,9.9-9.7
			c14-2.2,2.7,11.3,14.2,10.6c11.5-0.7,18.7-11.3,26.9-12.8c8.2-1.5,11.5,5.2,0.8,11.9c-10.7,6.7-14,4.5,0,7.4c14,3,18.1,9.7,26.3,3
			c8.2-6.7-1.6-8.9-2.5-17.8c-0.8-8.9,5.9-26.7-3.1-32.6c-9-5.9-13.3-12-13.3-17.9c0-5.9,1.6-18.6-7.4-12.6
			c-9,5.9-16.4,9.7-19.7,6.7c-3.3-3,1.6-8.9-5.8-13.4c-7.4-4.5-8.2-11.1-17.3-10.4c-9,0.7-18.1-5.9-23,3.7
			c-4.9,9.7-9.9,17.8-11.5,20.8c-1.6,3,5.8,13.4-0.8,18.6c-6.6,5.2-24.6,12.6-27.1,17.8c-2.5,5.2-12.3,18.6-14.8,9.7
			c-2.5-8.9,8.2-22.3-6.6-26c-14.8-3.7-26.3-0.7-28.8-8.9c-2.5-8.2-9-15.6,5.8-22.3c14.8-6.7,29.6-18.6,43.5-20.1
			c14-1.5,4.1,8.9,15.6,8.2c11.5-0.7-1.7-5.9,12.3-8.2c14-2.2,11.5-2.2,7.4-6.7c-4.1-4.5-1.6-5.2,9-9.7c10.7-4.5,2.5-7.4,13.1-11.1
			c10.7-3.7,13.1-7.4,18.9-7.4c5.7,0,4.9,2.2,1.6,8.9c-3.3,6.7-5.8,11.1,4.1,6.7c9.9-4.5,14.8-7.4,7.4-0.7c-7.4,6.7-12.3,6.7-23,8.2
			c-10.7,1.5-7.4,3-2.5,8.2c4.9,5.2,17.3,5.9,21.4,8.9c4.1,3,9,13.4,18.9,8.2c9.9-5.2,2.5-5.9,15.6-11.1
			c13.1-5.2,32.1-8.2,30.4-14.9c-1.6-6.7-14.8-10.4-16.4-18.6c-1.6-8.2,18.1-12.6-7.4-16.3c-25.5-3.7-10.7-6.7-23-6.7
			c-12.3,0-35.3,0-43.5,3.7c-8.2,3.7-13.1-2.2-17.3,3.7c-4.1,5.9,0.8,14.1-3.3,14.1c-4.1,0-11.5,5.9-14.8,0
			c-3.3-5.9-10.7-11.9-0.8-14.1c9.9-2.2,11.5-0.7,13.2-7.4c1.6-6.7-14-5.9-4.9-7.4c9-1.5,13.1,0.7,25.5,0.7
			c12.3,0,40.3,4.4,44.4-2.2c4.1-6.7-6.6-6.7-18.9-7.4c-12.3-0.7-33.7-4.5-42.7-0.7c-9,3.7-20.5,9.7-24.6,15.6
			c-4.1,5.9-4.1-1.5-12.3,0c-8.2,1.5-22.2,9.7-14.8,14.1c7.4,4.5,7.4,9.7-0.8,9.7c-8.2,0-10.7,7.4-16.4,7.4c-5.8,0-21.4-0.7-14-4.5
			c7.4-3.7,15.6-3.7,14.8-12.6c-0.8-8.9,8.2-11.9,8.2-14.9c0-3-19.7,6.7-35.3,2.2c-15.6-4.5-22.2-11.1-37.8-10.4
			c-15.6,0.7-36.2,19.3-26.3,20.8c9.9,1.5,17.3-1.5,18.9,3c1.6,4.5-1.6,8.2,4.1,10.4c5.8,2.2,16.4,8.2,2.5,5.2
			c-14-3-7.4-8.2-28.8-8.9c-21.4-0.7-34.5-6.7-56.7-1.5c-22.2,5.2-18.9,9.7-33.7,5.2c-14.8-4.5-50.5-21.2-75.2-16.8
			c-24.6,4.5-50.5,18.3-57.9,22.7c-7.4,4.5-11.4-6.8-24.6-6.1c-13.1,0.7-44.7-3.6-38.1,3.8c6.6,7.4,14.8,8.2,4.9,9.7
			c-9.9,1.5-23,2.2-27.9,8.9c-4.9,6.7-23,10.4-11.5,13.4c11.5,3,30.4,9.7,22.2,10.4c-8.2,0.7-50.1,15.6-68.2,19.3
			c-18.1,3.7-17.2,45.9-1.6,40.7c19.8-6.6,57.4-45.9,67.3-49.6c9.9-3.7,14-0.7,13.1,4.5c-0.8,5.2,11.5-2.2,21.4-8.9
			c9.9-6.7,12.5-22.5,20.7-18c8.2,4.4,10.5,2.4,17.1,0.9c6.6-1.5,38.9,8.9,44.7,11.9c5.7,3,13.9,11.2,18,14.2
			c4.1,3,5.8,9.7,1.6,10.4c-4.1,0.7-4.9,4.5-4.1,10.4c0.8,5.9,4.1,11.2-4.1,12.6c-8.2,1.5-6.6,10.4-1.6,9.7c4.9-0.7,8.2-3,9-7.4
			c0.8-4.5,11.5-12.6,9.9-6.7c-1.6,5.9-5.8,11.9-5.8,16.4c0,4.5-5.7,3.7-6.6,8.2c-0.8,4.5,0.8,4.5,4.9,8.2c4.1,3.7,1.6,5.9,0.8,14.1
			c-0.8,8.2-25.5,30.5-28.8,37.9c-3.3,7.4-1.6,17.8-1.6,26c0,8.2-3.3,18.6,5.8,21.6c9,3,9.9,4.5,9.9,11.9c0,7.4,0,16.4,4.9,21.6
			c4.9,5.2,2.5,4.5,2.5,12.6c0,8.2,5.7,3.7,6.6,10.4c0.8,6.7-4.1,9.7,4.1,14.9c8.2,5.2,17.3,8.9,13.2,0.7
			c-4.1-8.2-6.6-14.9-10.7-26.8c-4.1-11.9-6.6-33.4-1.6-26.7c4.9,6.7,11.5,26.7,18.9,40.9c7.4,14.1,16.4,12.6,16.4,23
			c0,10.4-9,20.1,9,26.7c18.1,6.7,31.2,20.8,41.9,19.3c10.7-1.5,17.3-7.4,21.4-0.7c4.1,6.7,13.1,15.6,23,15.6s13.2,5.9,14.8,14.9
			c1.7,8.9,8.2,10.4,18.1,13.4c9.9,3,12.3,12.6,19.7,11.9c7.4-0.7,17.3-3.7,17.3,3c0,6.7,3.3,23-9,33.4
			c-12.3,10.4-18.1,17.8-11.5,24.5c6.6,6.7,0.8,13.4-2.5,18.6c-3.3,5.2,2.5,9.7,9,17.8c6.6,8.2,15.6,17.8,21.4,34.2
			c5.7,16.3,14,22.3,27.9,27.5c14,5.2,24.6,14.1,24.6,26.8c0,12.6-0.8,55.7-0.8,68.4c0,12.6,7.4,25.3,4.9,34.9
			c-2.5,9.7,0,17.8,3.3,21.5c3.3,3.7,2.5,11.9,3.3,20.1c0.8,8.2,10.7,2.2,10.7,9.7c0,7.4-4.1,18.6,0.8,22.3
			c4.9,3.7-5.8,17.1,16.4,29.7c22.2,12.6,23.8,13.4,25.5,15.6c1.6,2.2,9-4.5,9-0.8c0,3.7-12.3,25.6,10.7,25.6c23,0,37-7.7,23-17.4
			c-14-9.7-22.2-5.2-24.7-14.9c-2.5-9.7-5.7-8.2-7.4-14.9c-1.7-6.7,5.8-9.7,3.3-16.3c-2.5-6.7-14.3-7.4-13.5-14.1
			c0.8-6.7,8.5-12.7,10.2-15.7c1.7-3,1.7-5.9-2.5-8.9c-4.1-3-3.3-3.7,2.5-5.2c5.8-1.5,6.6,0.7,9-6.7c2.5-7.4,9.9-6.7,13.1-8.9
			c3.3-2.2,14.8-5.2,10.7-14.9c-4.1-9.7-15.1-15.2-6-15.2c9,0,20.8,0.4,26.6-10c5.7-10.4,3.3-12.6,9.9-20.8
			c6.6-8.2,3.6-15.3,3.6-21.2c0-6,0.5-11.5,9.5-15.2c9-3.7,38.6-8.2,42.7-19.3c4.1-11.1,8.2-23,6.6-34.9c-1.6-11.9-2.5-19.3,6.6-29
			c9-9.7,20.5-17.8,20.5-26.8C736.1,828,740.2,815.4,725.4,811.7z"/>
		<path class="st7" d="M879.1,308.7c9-8.9,6.6-13.4,18.9-17.8c12.3-4.5,9-10.4,7.4-19.3c-1.6-8.9,5-5.3,9.9-8.3
			c4.9-3,7.3-5.1,18.8-5.8c11.5-0.7,0.8-4.5,0.8-8.9c0-4.5-8.2-3.7-19.7-2.2c-11.5,1.5-9.9,0-18.1-3c-8.2-3-56.7-3-69-3
			c-12.3,0-34.5,2.2-46,3c-11.5,0.7-10.7,0-32.9-2.2c-22.2-2.2-80.5-0.7-101.9,1.5c-21.4,2.2-33.6-3.4-47.5,4.8
			c-14,8.2-20.4,4.6-36,6.1c-15.6,1.5-26.4-2.2-33.8-2.2c-7.4,0-6.6-3.7-19.7,0.7c-13.1,4.5-9,7.4-14,1.5c-4.9-5.9-11.5,0-34.5,5.2
			c-23,5.2,11.4,23.3,18.8,25.5c0,0,15.6-0.7,24.7-3c9-2.2,13.2,3,18.9,1.5c5.7-1.5,7.4-6.7,40.3-13.4c32.9-6.7,55.9-1.5,69,3.7
			c13.1,5.2,13.1,2.2,24.6-4.5c11.5-6.7,31.2-11.9,51.8-14.9c20.6-3,7.4,3.7-5.7,8.2c-13.2,4.5-24.6,3-22.2,10.4
			c2.5,7.4,27.9,5.2,35.3,5.2c7.4,0,8.2,10.4,9,16.3c0.8,6-0.8,8.9,0.8,14.9c1.6,5.9,5.8,5.2-1.6,11.2c-7.4,5.9-11.5,5.2-11.5,15.6
			c0,10.4,4.9,21.5,16.4,29c11.5,7.4,18.1,8.2,24.6-3.7c6.6-11.9,22.2-19.3,30.4-23c8.2-3.7,19.7,0,30.4-8.9
			c10.7-8.9,24.6-5.2,40.3-9.7C871.7,314.6,870.1,317.6,879.1,308.7z"/>
		<path class="st7" d="M893.6,350.9c-24.7,3-47.7-4.5-43.5,7.4c4.1,11.9,5.9,34.5,19.1,30.7c22.6-6.4,42.9-14.3,37.1-23.9
			C900.5,355.5,918.3,347.9,893.6,350.9z"/>
		<path class="st7" d="M1052.4,293.8c0.9,0.2,1.8,0.3,2.5,0.6c8.2,3,14-1.5,14.8-7.4c9-11.9,5.7,9.7,15.6,5.9
			c9.9-3.7,23.8-12.6,35.3-17.8c11.5-5.2-14-3-34.5-5.9c-20.6-3-49.3,2.2-57.5,7.4C1021,281.4,1040.4,290.8,1052.4,293.8z"/>
		<path class="st7" d="M1174,263c0,0-4.1,5.2,5.7,5.2c9.9,0,30.4-5.9,46.8-5.9c16.4,0,11.5-5.2,8.2-5.2c-3.3,0-12.3-8.2-25.5-7.4
			c-13.2,0.7-12.3,5.9-20.5,5.9c-8.2,0-6.6-2.2-23.8-1.5C1147.7,254.9,1164.9,261.6,1174,263z"/>
		<path class="st7" d="M1947,305.6c-1.7-8.9-0.6-24.8-28.4-23.4c-49.2,2.5-61.7-1.3-70.7-1.3c-9,0-4.4-5.7,2.1-5.7
			c6.6,0,6.4-6.5-0.2-9.5c-6.6-3-15.7-0.7-18.2,6c-2.5,6.7,9.4,8.8-9.6,8.8c-18.9,0-44.5,25-66.7,21.3
			c-22.2-3.7-28.9-17.1-47.8-17.8c-18.9-0.7-34.7,16.5-54.4,16.5c-19.7,0-13.2-6.7-21.4-14.9c-8.2-8.2-12.3-5.9-37-5.9
			c-24.6,0-11.5,8.9-6.6,10.4c4.9,1.5,18.1,5.2,27.1,12.6c9,7.4-16.4,4.5-27.1,5.2c-10.7,0.7-9.9-5.2-22.2-11.9
			c-12.4-6.7-42.7-3-60-3.7c-17.2-0.8-18.1,0-24.6-11.2c-6.6-11.1-20.6-5.2-38.6-5.2c-18.1,0-27.9-8.2-37-13.4c-9-5.2-23-6-42.7-8.9
			c-19.7-3-9,11.1-1.6,11.9c0,0,8.2,3,16.4,3.7c8.2,0.8,25.5,1.5,34.5,11.2c9,9.7-27.9,6-44.4,14.1c-16.4,8.2-29.6,4.5-41.1,8.9
			c-11.5,4.5,5.7,11.9,9.8,21.6c4.1,9.7,0,9.7-7.4,11.9c-7.4,2.2,2.5-10.4-0.8-14.1c-3.3-3.7-15.6-23-25.5-29
			c-9.9-5.9-8.2,5.2-6.6,13.4c1.6,8.2,4.1,8.2,6.6,14.1c2.5,6-10.7,0-17.3-4.5c-6.6-4.5-27.9,6-37.8,1.5c-9.9-4.5,3.3-3,3.3-7.4
			c0-4.4-11.5-0.7-14.8-7.4c-3.3-6.7,20.6-14.8,35.3-17.1c14.8-2.3,13.1-2.3,13.1-8.9c0-6.7-26.3-4.5-48.5,5.2
			c-22.2,9.7-16.4,16.4-19.7,23c-3.3,6.7,7.4,7.4,12.3,11.1c4.9,3.7-5.7,5.2-15.6,8.2c-9.9,3-12.3,0-23.9,3.7
			c-11.5,3.7-4.9,8.2-14.8,11.9c-9.9,3.7-9,3.7-17.2,6.7c-8.2,3,1.7-11.1,13.2-12.6c11.5-1.5,8.2-7.4,4.9-9.7
			c-3.3-2.2-24.6-8.2-47.6-14.1c-23-5.9-60,2.2-72.3,7.4c-12.3,5.2-11.5,8.9-13.1,16.4c-1.7,7.4-29.6,18.6-43.5,25.3
			c-14,6.7-1.7,15.6,2.5,21.6c4.1,5.9,13.1,3,24.6,0c11.5-3,9.9,9.6,11.5,14.1c1.6,4.5,8.2,5.2,18.9,0.7c10.7-4.5,8.2-14.8,8.2-20.8
			c0-5.9-2.5-8.9,4.9-17.1c7.4-8.2,14-13.4,20.5-17.1c6.6-3.7,5.8,2.9-4.1,10.4c-9.8,7.4-3.3,9.7,1.7,18.6c4.9,8.9,14.8,0,27.1-1.5
			c12.3-1.5-10.7,9.6-19.7,9.6c-9,0,0,8.9-5.7,8.9c-5.7,0-6.6,3.7-7.4,12.6c-0.8,8.9-4.1,6.7-10.7,8.9c-6.6,2.2-16.4,3-27.1,0.7
			c-10.7-2.2-9.8-11.2-17.2-17.1c-7.4-5.9-9,3-9,6.7s-7.4,11.9-10.7,11.9c-3.3,0-13.2,8.9-18.9,16.3c-5.7,7.4-9.8,3-11.5,0
			c-1.7-3,4.1-7.4,0.8-14.9c-3.3-7.4-16.4-13.4-12.3-30.5c4.1-17.1-4.9-8.2-18.1-6.7c-13.2,1.5-17.3,6.7-18.1,11.1
			c-0.8,4.5-8.2,13.4-16.4,21.6c-8.2,8.2-2.5,14.8,1.7,23.8c4.1,8.9,14.8-3,18.1-10.4c3.3-7.4,7.4-11.2,12.3-7.4
			c4.9,3.7-7.4,10.4-9,19.3c-1.7,8.9,3.3,8.2,14.8,5.2c11.5-3,5.8-5.2,14.8-1.5c9,3.7-8.2,6.7-18.9,7.4c-10.7,0.7-6.6,7.4,2.5,13.4
			c9,6,4.9,14.9-0.8,15.6c-5.7,0.7-16.4,2.2-32.8,5.2c-16.4,3-1.7,14.9-4.9,21.5c-3.3,6.7-4.1,21.6,3.3,22.3
			c7.4,0.8,7.4,11.9,3.3,15.6c-4.1,3.7-4.9,7.4-14.8,14.1c-9.9,6.7-2.5,12.6-5.7,21.5c-3.3,8.9-11.5,3.7-21.4,13.4
			c-9.8,9.7-14,17.1-21.4,28.2c-7.4,11.1-8.2,11.9,0.8,25.3c9,13.4,0,17.1-7.4,29c-7.4,11.9,2.5,12.6,5.7,23
			c3.3,10.4,9.9,8.2,12.3,18.6c2.5,10.4,5.7,13.4,17.2,20.8c11.5,7.4,23,17.8,28.8,15.6c5.7-2.2,14.8-8.2,33.7-7.4
			c18.9,0.7,12.3-7.4,32-10.4c19.7-3,3,4.2,5.4,9.4c2.5,5.2,19.2,8.4,34,9.1c14.8,0.7,2.5,17.1,1.6,27.5c-0.8,10.4,0,10.4,7.4,19.3
			c7.4,8.9,17.3,29,19.7,39.4c2.5,10.4-2.5,22.3-9,32c-6.6,9.7-4.1,31.9,9.9,48.3c14,16.3,5.7,15.6,5.7,32.7
			c0,17.1,9.9,14.1,17.3,23.8c7.4,9.7,4.1,27.5,10.7,37.2c6.6,9.6,18.1,0.7,31.2-3.7c13.1-4.5,18.9-3,34.5-13.4
			c15.6-10.4,27.9-31.2,27.9-37.1c0-5.9,4.9-8.2,13.2-11.1c8.2-3,6.6-22.3,5.8-27.5c-0.8-5.2,1.7-9.7,4.9-12.6
			c3.3-3,23.8-20.8,31.2-28.2c7.4-7.4,0.8-17.8-0.8-29.7c-1.7-11.9-6.6-16.3-6.6-30.5c0-14.1-4.9-12.6,22.2-35.7
			c27.1-23,52.6-59.4,55-67.6c2.5-8.2,1.7-14.9,0-20.8c-1.6-5.9-37,6-45.2,6c-8.2,0-29.2-15.8-30.8-21.8c-1.7-6-7.8-12.4-18.5-21.3
			c-10.7-8.9-2.5-21.6-10.7-31.2c-8.2-9.7-12.3-23.8-14-32c-1.6-8.2,12.3,5.9,23,17.1c10.7,11.2,24.7,32,28.8,39.4
			c4.1,7.4,7.4,18.6,8.2,27.5c0.8,8.9,7.4,10.4,17.3,9.7c9.9-0.8,44.4-17.1,56.7-22.3c12.3-5.2,27.1-20.8,32.9-35.6
			c5.7-14.9-12.3-12.6-20.5-20.1c-8.2-7.4-8.2,0-18.1,2.2c-9.9,2.2-18.1-9.7-33.7-23c-15.6-13.4-5.7-8.9-2.5-11.9
			c3.3-3,18.9,6.7,27.9,16.4c9,9.6,10.7,5.9,21.4,5.9c10.7,0,13.2,4.5,27.1,8.2c14,3.7,21.3-1.5,33.3-0.3c12,1.1,10.3,6.3,18.5,18.1
			c8.2,11.9,5,8.2,23,9.7c18.1,1.5,4.9,0,4.9,10.4c0,10.4,1.6,14.1,12.4,26.8c10.7,12.6,14.8,36.4,18,48.3c3.3,11.9,9.9,0,20.5,0
			c10.7,0-3.1,11.3,9.1,20.1c14,10.1,13.2-4.4,13.2-8.8c0-4.5-4.2-15-9.1-18.7c-4.9-3.7-11.5-3-5.8-8.9c5.8-6-6.7-9.8-6.7-18
			c0-8.2,3.3-19.2,7.4-22.9c4.1-3.7,24-14.1,33-23.8c9-9.7,16.4-11.1,28.8-10.4c12.3,0.8,2.5,2.2,9.9,11.1c7.4,8.9,9,21.6,17.2,30.5
			c8.2,8.9,9-1.5,15.6-4.5c6.6-3,2.5,8.9,7.4,17.8c4.9,8.9,1.6,20.8,1.6,29c0,8.2,10.7,16.3,17.3,23.8c6.6,7.4,4.1,11.2,0,14.1
			c-4.1,3-12.3-7.4-18.9-13.4c-6.6-5.9-16.4-2.2-9.9,4.5c6.6,6.7,10.7,18.6,18.1,31.2c7.4,12.6,23,27.5,33.7,40.9
			c10.7,13.4,45.2,19.3,58.3,19.3c13.1,0,39.4,10.4,52.6,11.9c13.1,1.5,23,0,32-4.5c9.1-4.5,5-9.7,4.1-11.9
			c-0.8-2.2-7.4,2.2-16.4,3.7c-9,1.5-11.5,1.5-23,2.2c-11.5,0.7-4.1-3.7-16.4-4.5c-12.3-0.8-24.6-3-38.6-7.4
			c-14-4.5-21.4-8.2-31.2-11.1c-9.9-3-0.8-8.2-1.7-20.8c-0.8-12.6-9.9-7.4-17.3-11.9c-7.4-4.4-4.9-14.1-1.6-11.1
			c3.3,3,4.1,6.7,4.1-8.9c0-15.6-15.6-26-25.5-39.4c-9.9-13.4-8.2-20.8-7.4-27.5c0.8-6.7,18.1,6,27.1,15.6c9,9.6,9,9.6,14,7.4
			c4.9-2.2,19.7-9.7,23-21.6c3.3-11.9-26.3-35.7-30.4-46.8c-4.1-11.1,5.7-4.5,10.7-11.9c5-7.4,10.7,3,7.4,8.2
			c-3.3,5.2,0.8,8.2,4.1,13.4c3.3,5.2,3.3,0,6.6-6.7c3.3-6.7,0.8-8.9,6.6-13.4c5.8-4.5,27.9-10.4,33.7-15.6
			c5.8-5.2,9.9-11.1,17.2-29.7c7.4-18.6-0.8-17.8-4.1-24.5c-3.3-6.7-13.1-17.8-18.9-24.5c-5.8-6.7-0.8-5.2,3.3-7.4
			c4.1-2.2,0.8-7.4-9-10.4c-9.9-3-8.2,3-17.2,1.5c-9.1-1.5-4.1-7.4,5.7-17.8c9.9-10.4,4.9,2.2,11.5,6.7c6.6,4.5,8.2-3.7,13.2-1.5
			c4.9,2.2,14.8,6.7,22.2,15.6c7.4,8.9,7.3,21.8,14.7,21.1c7.4-0.7,7.5-6.2,10.8-12.9c3.3-6.7-7.5-13.4-13.3-18.6
			c-5.8-5.2-13-4.5-8.1-8.9c4.9-4.5,0.8-11.1,3.3-16.3c2.5-5.2,11.5-2.2,20.5-6c9-3.7,9.9-16.3,9.9-29.7c0-13.4-7.4-19.3-11.5-23.8
			c-4.1-4.5,4.9-2.2,12.3,3c7.4,5.2,18.9,33.4,21.4,44.6c2.5,11.2,0.8,11.2,10.7,20.8c9.9,9.7,6.6,8.2,3.3,19.3
			c-3.3,11.1-11.5,14.1-23.8,17.1c-12.3,3-8.2,5.2-15.6,16.4c-7.4,11.2,4.1,11.9,10.7,14.9c6.6,3,7.4-9.3,15.6-14.5
			c8.2-5.2,19.7-7.8,33.7-7.8c14,0-4.1-17.1-4.9-26c-0.8-8.9-1.7-14.8-5-21.5c-3.3-6.7,3.3-6.7,13.2-11.1c9.9-4.5,9.1-13.4,3.3-13.4
			c-5.8,0-10.7,3.7-23.8,3c-13.1-0.7-9.9-10.4-13.1-14.1c-3.3-3.7-7.4-11.9-8.2-18.6c-0.8-6.7-12.3-15.6-20.5-22.3
			c-8.2-6.7-13.2-11.1-13.2-8.2c0,3-4.9-0.7-16.4-1.5c-11.5-0.7-13.9,1.5-23.8,0.7c-9.9-0.7,0.8-15.6,4.9-26
			c4.1-10.4,15.6-4.5,24.7-4.5c9,0,40.8-35.5,53.9-32.5c13.2,3,7.4-7.4,9.9-15.6c2.5-8.2,8.2-3.7,15.6-0.7c7.4,3,9.9,3.7,9.9-3
			c0-6.7,6.6-8.2,12.3-2.2c2.9,3,2.3,7.9,1.1,12c-2.4,7.8-3.2,16-1.9,24c1.2,7.8,3.5,15.8,7.8,17.9c9,4.5,5.4,29.2,16.1,35.9
			c10.7,6.7,7.5-11.2,7.5-23.8c0-12.6-5.1-34-12.5-45.9c-7.4-11.9-2.5-6.7,11.5-6.7c14,0,14.8-4.5,18.1-8.2
			c3.3-3.7,5.8-4.5,18.1-4.5c12.3,0,5-4.5-0.8-10.4c-5.7-5.9-17.2-4.5-13.1-8.2c4.1-3.7,26.3,2.3,37,6
			C1951.1,317.5,1948.7,314.5,1947,305.6z M1180.7,552.9c-4.9,8.9-7.4,14.9-14.8,12.6c-7.4-2.2-32-1.5-44.4-5.2
			c-12.3-3.7-30.4-10.4-33.7-2.2c-3.3,8.1,8.2,14.8-12.3,8.1c-20.5-6.7-42.7-14.8-45.2-20.8c-2.5-5.9,8.2-22.3-6.6-22.3
			c-14.8,0-35.3-0.8-41.9,3.7c-6.6,4.5-32.1,12.6-40.3,10.4c-7.5-2-18.9-4.5-5.7-9.7c13.2-5.2,28.8-2.2,30.4-9.7
			c1.6-7.4-11.5-8.9,1.6-15.6c13.1-6.7,8.2-12.6,17.3-16.4c9-3.7,21.4-3,27.9-5.2c6.6-2.2-2.5-4.5,10.7,2.2
			c13.1,6.7,21.4,19.3,27.9,20.1c6.6,0.7,10.7,5.2,6.6,8.1c-4.1,3-10.7,5.2-13.2,5.2c-2.5,0-4.1,5.9-1.6,6.7
			c2.5,0.7,8.2,10.4,12.3,7.4c4.1-3-1.5-7.8,5.9-10.1c7.4-2.2,16.3-4.8,13-9.3c-3.3-4.5-6.6-9.6,0-6.7c6.6,3,14.3,2.5,6.9-4.2
			c-7.4-6.7-11.8-7.7-20.9-13.6c-9-5.9-18.9-8.9-18.9-13.4c0-4.5-5.8-12.6,3.3-9.6c9,3,40.3,18.6,40.3,24.5c0,5.9,8.2,16.3,0.8,21.5
			c-7.4,5.2,7.4,6.7,10.7,9.7c3.3,3,1.7,11.2,10.7,9.7c9-1.5,15.6-0.7,10.7-8.9c-4.9-8.2-13.1-11.9-4.9-14.8c8.2-3,9.9-6.7,12.3,5.9
			c2.5,12.6-0.8,17.1,18.9,17.8c19.7,0.7,32.9-4.5,35.3,0.7C1182.4,535,1185.7,544,1180.7,552.9z M1212.8,497.1
			c-13.1-0.7-32.6,0-43.3,0c-10.7,0-21.4,2.6-21.4,2.6c-9-1.5-26.5-1.9-15.8-14.5c10.7-12.6,4.1-29,17.3-24.5
			c13.1,4.4,13.7,20.3,21.9,9.9c8.2-10.4,17.5-21,20-12.8c2.5,8.2-11.5,14.9,5.7,21.5C1214.4,486,1225.9,497.9,1212.8,497.1z
			 M1293.7,528.7c-12.3,0-28.9-6.3-28.9-12.2c0-6-1.3-13.5-1.3-13.5c-4.2-16.7-16.9-18.3-16.9-28s9.9-17.2,23.1-17.2
			c13.1,0,29.7,0.2,19.8,10.6c-9.8,10.4-28.9,9.5-15.7,25.8C1286.8,510.5,1306,528.7,1293.7,528.7z"/>
		<path class="st7" d="M1742,632.8c6.5,1.7,8.3-22.5-3.7-19.2C1726.3,616.9,1734.4,630.8,1742,632.8z"/>
		<path class="st7" d="M1756.8,705.3c5.5,3.3,6.5,9.2,5.5,18.4c-0.9,9.2-10.1,8.4,5.5,14.2c15.7,5.8,34.2,15.9,29.5-2.5
			c-4.6-18.4-0.9-20.9-17.5-35.1c-16.6-14.2-17.5-5-19.4-16.7c-1.9-11.7-6.5-33.4-12.9-25.1c-5.7,7.4-10.1,10-3.7,22.5
			C1750.4,693.6,1751.3,702,1756.8,705.3z"/>
		<path class="st7" d="M1721.8,734.5c-5.6,6.5-16.6,20.9-24,25.9c-7.4,5-20.3-1.7-19.4,10c0.9,11.7,1.8,16.7,2.8,25.1
			c0.9,8.3,2.8,13.4,16.6,13.4c13.9,0,20.3,4.2,24.9,2.5c4.6-1.7,3.7-9.2,9.2-19.2c5.5-10,14.8-7.5,11.1-15
			c-3.7-7.5-3.7-5.8-3.7-13.4c0-7.5,4.6-2.5,1.9-15C1738.4,736.2,1728.2,727,1721.8,734.5z"/>
		<path class="st7" d="M1916.6,812.2c-12-11.7-32.3-20-40.6-19.2c-8.3,0.8-15.7,12.5-20.3,8.3c-4.6-4.2-18.5-24.2-25.9-18.4
			c-7.4,5.8,0.9,12.5-8.3,12.5c-9.2,0-12,10-13.8-3.3c-1.8-13.4-9.2-20-11.1-10c-1.8,10-2.8,16.7-7.4,9.2c-4.6-7.5-7.4-2.5-7.4-10
			c0-7.5-18.5-15.9-25.8-7.5c-4.6,5.2-6.5,5.8-8.3,17.5c-1.8,11.7-6.5,30.1,3.7,25.1c10.2-5,12-0.8,16.6-6.7
			c4.6-5.8,10.2-9.2,18.5-5.8c8.3,3.3,4.6,3.3,19.4,1.7c14.8-1.7,22.2-1.7,32.3,4.2c10.2,5.8,30.5,2.5,30.5,8.4
			c0,5.8-21.2,10,0,15.9c21.2,5.8,25.8,19.2,32.3,12.5c6.5-6.7,15.7-15.9,22.2-9.2c6.5,6.7,31.4,25.1,26.8,15
			c-4.6-10-3.7-19.2,11.1-30.1c14.8-10.9,11.1-15.9,4.6-15.9c-6.5,0-6.5,7.5-21.2,9.2C1929.5,817.2,1928.6,823.9,1916.6,812.2z"/>
		<path class="st7" d="M1923,919.9c-8.3-19.2-8.3-34.2-12.9-42.6c-4.6-8.4-0.9-18.4-14.8-18.4c-5.6,0-5.5,3.3-10.2,14.2
			c-4.6,10.9,0.9,30.9-11.1,28.4c-12-2.5-17.5-7.5-20.3-18.4c-2.8-10.9,3.7-20.9-5.5-20.9c-9.2,0-35.1-5.8-41.5,3.3
			c-6.5,9.2,1.8,12.5-12,12.5c-13.9,0-19.4,0-26.8,8.3c-7.4,8.4-17.5,31.7-57.2,33.4c-39.7,1.7-19.4,20.9-19.4,41.7
			c0,20.9-21.2,33.4-12,40.9c9.2,7.5-2.8,17.5,16.6,11.7c19.4-5.9,36.9-7.5,67.4-11.7c30.5-4.2,44.3-5.8,45.2,7.5
			c0.9,13.4-3.7,4.2,8.3,6.7c12,2.5-0.9,20,12.9,21.7c13.8,1.7,2.3,13.6,14.3,13.6c12,0,8.8,8.8-1.3,8.8c-10.2,0-10.5,23.7,4.3,17
			c14.8-6.7,26.1-12.7,26.1-22.7c0-10-1.8-10.9,15.7-23.4c17.5-12.5,58.2-42.6,55.4-66.8C1941.5,940.8,1931.4,939.1,1923,919.9z"/>
	</g>
</g>
<g>
	<path class="st13" d="M1672.7,844.7l-5.5-1.5c1.3-3.8,2.5-7.7,3.8-11.6l5.5,1.4C1675.3,836.9,1674,840.8,1672.7,844.7z"/>
	<path class="st13" d="M325.4,826c-1.2-3.9-2.3-7.8-3.4-11.8l5.5-1.3c1.1,3.9,2.2,7.8,3.4,11.7L325.4,826z"/>
	<path class="st13" d="M1681.5,816.2l-5.5-1.3c1.1-3.8,2.1-7.8,3.2-11.7l5.6,1.2C1683.6,808.4,1682.6,812.3,1681.5,816.2z"/>
	<path class="st13" d="M317.6,797.3c-1-4-1.9-8-2.8-11.9l5.6-1c0.9,3.9,1.8,7.9,2.8,11.8L317.6,797.3z"/>
	<path class="st13" d="M1688.8,787.4l-5.6-1.1c0.9-3.9,1.7-7.8,2.6-11.8l5.6,1C1690.5,779.5,1689.7,783.6,1688.8,787.4z"/>
	<path class="st13" d="M311.3,768.4c-0.8-4-1.5-8.1-2.2-12l5.7-0.8c0.7,3.9,1.4,7.9,2.2,11.9L311.3,768.4z"/>
	<path class="st13" d="M1694.6,758.4l-5.6-0.8c0.7-4,1.3-7.9,2-11.9l5.7,0.7C1696,750.4,1695.3,754.4,1694.6,758.4z"/>
	<path class="st13" d="M306.4,739.2c-0.6-4-1.1-8.1-1.6-12.1l5.7-0.6c0.5,4,1,8,1.5,12L306.4,739.2z"/>
	<path class="st13" d="M1698.9,729.1l-5.7-0.6c0.5-3.9,0.9-8,1.3-12l5.7,0.5C1699.9,721.1,1699.4,725.1,1698.9,729.1z"/>
	<path class="st13" d="M303.1,709.8c-0.4-4-0.7-8.1-0.9-12.1l5.7-0.3c0.3,4,0.6,8,0.9,12L303.1,709.8z"/>
	<path class="st13" d="M1701.8,699.7l-5.7-0.3c0.3-4,0.5-8,0.7-12l5.7,0.2C1702.3,691.6,1702.1,695.7,1701.8,699.7z"/>
	<path class="st13" d="M301.2,680.3c-0.2-4-0.3-8.1-0.3-12.1l5.7-0.1c0.1,4,0.2,8,0.3,12L301.2,680.3z"/>
	<path class="st13" d="M1703.1,670.2l-5.7-0.1c0.1-4,0.1-8,0.1-12.1h5.7C1703.3,662.1,1703.2,666.1,1703.1,670.2z"/>
	<path class="st13" d="M1697.5,655.1c0-4-0.1-8.1-0.2-12.1l5.7-0.1c0.1,4,0.2,8.1,0.2,12.2L1697.5,655.1z"/>
	<path class="st13" d="M306.6,650.8l-5.7-0.1c0.1-4.1,0.1-8.1,0.3-12.2l5.7,0.2C306.7,642.8,306.6,646.8,306.6,650.8z"/>
	<path class="st13" d="M1696.7,625.8c-0.2-4-0.5-8-0.8-12l5.7-0.4c0.3,4,0.6,8.1,0.8,12.1L1696.7,625.8z"/>
	<path class="st13" d="M307.7,621.6l-5.7-0.3c0.3-4.1,0.6-8.1,0.9-12.1l5.7,0.4C308.2,613.5,307.9,617.5,307.7,621.6z"/>
	<path class="st13" d="M1694.3,596.6c-0.4-4-0.9-8-1.4-12l5.7-0.6c0.5,4,1,8.1,1.4,12.1L1694.3,596.6z"/>
	<path class="st13" d="M310.2,592.4l-5.7-0.5c0.5-4,1-8.1,1.5-12.1l5.7,0.6C311.2,584.4,310.7,588.4,310.2,592.4z"/>
	<path class="st13" d="M1690.5,567.5c-0.6-3.9-1.3-8-2-11.9l5.6-0.8c0.7,4,1.4,8,2,12L1690.5,567.5z"/>
	<path class="st13" d="M314.3,563.3l-5.7-0.8c0.7-4,1.4-8,2.1-12l5.6,0.9C315.6,555.3,314.9,559.3,314.3,563.3z"/>
	<path class="st13" d="M1685.2,538.6c-0.8-4-1.7-7.9-2.6-11.8l5.6-1.1c0.9,4,1.8,7.9,2.6,11.9L1685.2,538.6z"/>
	<path class="st13" d="M319.8,534.4l-5.6-1c0.9-4,1.8-8,2.7-11.9l5.6,1.1C321.6,526.5,320.7,530.5,319.8,534.4z"/>
	<path class="st13" d="M1678.4,510c-1-3.9-2.1-7.8-3.2-11.7l5.5-1.3c1.1,3.9,2.2,7.9,3.3,11.8L1678.4,510z"/>
	<path class="st13" d="M326.8,505.8l-5.5-1.2c1.1-3.9,2.2-7.9,3.3-11.8l5.5,1.3C329,498,327.9,501.9,326.8,505.8z"/>
	<path class="st13" d="M1670.1,481.7c-1.2-3.8-2.5-7.7-3.8-11.6l5.5-1.5c1.3,3.9,2.6,7.8,3.9,11.7L1670.1,481.7z"/>
	<path class="st13" d="M335.3,477.6l-5.5-1.5c1.3-3.9,2.6-7.8,3.9-11.6l5.4,1.6C337.9,469.8,336.6,473.7,335.3,477.6z"/>
	<path class="st13" d="M1660.4,453.7c-1.4-3.8-2.9-7.6-4.4-11.4l5.4-1.8c1.5,3.8,3,7.6,4.4,11.5L1660.4,453.7z"/>
	<path class="st13" d="M345.2,449.6l-5.4-1.7c1.5-3.8,3-7.7,4.5-11.5l5.4,1.8C348.2,442,346.7,445.8,345.2,449.6z"/>
	<path class="st13" d="M1649.3,426.2c-1.6-3.7-3.3-7.4-5-11.1l5.3-2c1.7,3.8,3.4,7.5,5,11.2L1649.3,426.2z"/>
	<path class="st13" d="M356.6,422.1l-5.3-1.9c1.7-3.8,3.4-7.5,5.1-11.3l5.3,2C360,414.6,358.3,418.4,356.6,422.1z"/>
	<path class="st13" d="M1636.8,399.3c-1.8-3.6-3.6-7.3-5.5-10.9l5.2-2.2c1.9,3.7,3.8,7.4,5.6,11L1636.8,399.3z"/>
	<path class="st13" d="M369.4,395.1l-5.2-2.2c1.8-3.6,3.8-7.4,5.7-11l5.1,2.3C373.1,387.8,371.2,391.5,369.4,395.1z"/>
	<path class="st13" d="M1622.9,373c-2-3.6-4-7.1-6.1-10.7l5-2.4c2.1,3.6,4.1,7.2,6.1,10.8L1622.9,373z"/>
	<path class="st13" d="M383.5,368.7l-5.1-2.4c2-3.6,4.1-7.2,6.3-10.8l5,2.5C387.7,361.6,385.6,365.2,383.5,368.7z"/>
	<path class="st13" d="M1607.7,347.2c-2.2-3.5-4.4-7-6.6-10.4l4.9-2.6c2.3,3.5,4.5,7,6.7,10.5L1607.7,347.2z"/>
	<path class="st13" d="M399,343l-5-2.6c2.2-3.5,4.5-7,6.8-10.5l4.9,2.7C403.5,336,401.2,339.5,399,343z"/>
	<path class="st13" d="M1591.2,322.1c-2.4-3.4-4.7-6.8-7.2-10.1l4.8-2.8c2.4,3.4,4.9,6.8,7.2,10.2L1591.2,322.1z"/>
	<path class="st13" d="M415.8,317.9l-4.8-2.8c2.4-3.4,4.9-6.8,7.3-10.2l4.8,2.9C420.6,311.1,418.2,314.5,415.8,317.9z"/>
	<path class="st13" d="M1573.5,297.7c-2.5-3.3-5.1-6.6-7.7-9.8l4.6-3c2.6,3.3,5.2,6.6,7.7,9.9L1573.5,297.7z"/>
	<path class="st13" d="M433.8,293.6l-4.7-3c2.6-3.3,5.2-6.7,7.8-9.9l4.6,3.1C439,287,436.4,290.2,433.8,293.6z"/>
	<path class="st13" d="M1554.5,274.1c-2.7-3.2-5.4-6.4-8.2-9.5l4.5-3.2c2.8,3.1,5.5,6.4,8.2,9.6L1554.5,274.1z"/>
	<path class="st13" d="M453.1,270l-4.5-3.2c2.7-3.2,5.5-6.4,8.3-9.5l4.4,3.3C458.5,263.7,455.8,266.9,453.1,270z"/>
	<path class="st13" d="M1534.3,251.3c-2.8-3-5.7-6.1-8.6-9.1l4.3-3.4c2.9,3,5.9,6.2,8.7,9.2L1534.3,251.3z"/>
	<path class="st13" d="M473.5,247.3l-4.3-3.4c2.9-3.1,5.9-6.2,8.8-9.2l4.3,3.5C479.3,241.2,476.4,244.3,473.5,247.3z"/>
	<path class="st13" d="M1513,229.3c-3-3-6.1-5.9-9.1-8.8l4.1-3.6c3.1,2.9,6.1,5.9,9.2,8.9L1513,229.3z"/>
	<path class="st13" d="M495,225.5l-4.2-3.6c3.1-3,6.1-5.9,9.3-8.8l4.1,3.6C501.1,219.7,498,222.6,495,225.5z"/>
	<path class="st13" d="M1490.5,208.3c-3.2-2.8-6.3-5.6-9.5-8.4l3.9-3.8c3.2,2.8,6.4,5.6,9.6,8.5L1490.5,208.3z"/>
	<path class="st13" d="M517.6,204.6l-4-3.7c3.2-2.8,6.4-5.6,9.7-8.4l3.9,3.8C524,199,520.8,201.8,517.6,204.6z"/>
	<path class="st13" d="M1467.1,188.2c-3.3-2.7-6.6-5.4-10-8l3.7-3.9c3.4,2.7,6.8,5.4,10,8.1L1467.1,188.2z"/>
	<path class="st13" d="M541.3,184.7l-3.8-3.9c3.3-2.7,6.7-5.3,10.1-8l3.7,4C547.9,179.4,544.5,182.1,541.3,184.7z"/>
	<path class="st13" d="M1442.6,169.1c-3.4-2.6-6.9-5.1-10.4-7.6l3.5-4.1c3.5,2.5,7,5.1,10.4,7.6L1442.6,169.1z"/>
	<path class="st13" d="M565.9,165.8l-3.6-4c3.5-2.5,7-5.1,10.5-7.5l3.5,4.1C572.8,160.8,569.3,163.3,565.9,165.8z"/>
	<path class="st13" d="M1417.2,151c-3.5-2.4-7.1-4.8-10.7-7.1l3.3-4.2c3.6,2.4,7.3,4.8,10.8,7.2L1417.2,151z"/>
	<path class="st13" d="M591.4,148l-3.4-4.2c3.6-2.4,7.2-4.8,10.9-7.1l3.3,4.2C598.6,143.3,595,145.6,591.4,148z"/>
	<path class="st13" d="M1390.8,134c-3.6-2.2-7.4-4.5-11.1-6.7l3.1-4.4c3.7,2.2,7.5,4.5,11.2,6.7L1390.8,134z"/>
	<path class="st13" d="M617.8,131.2l-3.2-4.3c3.7-2.2,7.4-4.4,11.2-6.6l3.1,4.4C625.2,126.8,621.5,129,617.8,131.2z"/>
	<path class="st13" d="M1363.7,118.2c-3.8-2.1-7.6-4.2-11.4-6.2l2.9-4.5c3.9,2,7.7,4.1,11.5,6.2L1363.7,118.2z"/>
	<path class="st13" d="M645.1,115.6l-2.9-4.5c3.8-2.1,7.7-4.1,11.5-6.1l2.8,4.5C652.7,111.5,648.8,113.6,645.1,115.6z"/>
	<path class="st13" d="M1335.7,103.5c-3.9-1.9-7.8-3.8-11.7-5.7l2.7-4.6c4,1.9,7.9,3.8,11.8,5.8L1335.7,103.5z"/>
	<path class="st13" d="M673,101.2l-2.7-4.6c3.9-1.9,7.9-3.8,11.8-5.6l2.6,4.6C680.8,97.4,676.9,99.3,673,101.2z"/>
	<path class="st13" d="M1307,90c-4-1.8-8-3.5-12-5.2l2.4-4.7c4,1.7,8.1,3.5,12.1,5.2L1307,90z"/>
	<path class="st13" d="M701.7,87.9l-2.5-4.7c4-1.7,8.1-3.5,12.1-5.1l2.4,4.7C709.7,84.5,705.7,86.2,701.7,87.9z"/>
	<path class="st13" d="M1277.7,77.7c-4-1.6-8.2-3.2-12.3-4.7l2.2-4.8c4.2,1.5,8.3,3.1,12.4,4.7L1277.7,77.7z"/>
	<path class="st13" d="M731,75.9l-2.2-4.8c4.1-1.6,8.2-3.1,12.3-4.6l2.1,4.8C739.1,72.8,735,74.4,731,75.9z"/>
	<path class="st13" d="M1247.7,66.7c-4.1-1.4-8.3-2.8-12.5-4.2l1.9-4.9c4.2,1.4,8.5,2.8,12.6,4.2L1247.7,66.7z"/>
	<path class="st13" d="M760.9,65.2l-2-4.9c4.1-1.4,8.4-2.8,12.6-4.1l1.9,4.9C769.2,62.4,765.1,63.8,760.9,65.2z"/>
	<path class="st13" d="M1217.1,57c-4.2-1.2-8.5-2.5-12.7-3.6l1.7-5c4.3,1.2,8.6,2.4,12.8,3.7L1217.1,57z"/>
	<path class="st13" d="M791.4,55.6l-1.7-5c4.2-1.2,8.5-2.4,12.8-3.6l1.6,5C799.9,53.2,795.6,54.4,791.4,55.6z"/>
	<path class="st13" d="M1186.2,48.5c-4.3-1.1-8.6-2.1-12.8-3.1l1.4-5c4.3,1,8.7,2,13,3.1L1186.2,48.5z"/>
	<path class="st13" d="M822.4,47.4l-1.5-5c4.3-1,8.6-2,13-3l1.4,5C830.9,45.4,826.7,46.4,822.4,47.4z"/>
	<path class="st13" d="M1154.9,41.5c-4.3-0.9-8.7-1.7-13-2.5l1.1-5.1c4.3,0.8,8.7,1.7,13.1,2.5L1154.9,41.5z"/>
	<path class="st13" d="M853.7,40.6l-1.2-5.1c4.3-0.9,8.7-1.7,13.1-2.5l1.1,5.1C862.4,38.9,858,39.7,853.7,40.6z"/>
	<path class="st13" d="M1123.3,35.7c-4.3-0.7-8.7-1.4-13.1-2l0.9-5.1c4.4,0.6,8.8,1.3,13.2,2L1123.3,35.7z"/>
	<path class="st13" d="M885.4,35l-1-5.1c4.4-0.7,8.8-1.3,13.2-1.9l0.8,5.1C894.1,33.7,889.8,34.3,885.4,35z"/>
	<path class="st13" d="M1091.4,31.3c-4.4-0.5-8.8-1-13.2-1.4l0.6-5.2c4.4,0.4,8.9,0.9,13.3,1.4L1091.4,31.3z"/>
	<path class="st13" d="M917.3,30.8l-0.7-5.2c4.4-0.5,8.9-0.9,13.3-1.4l0.6,5.2C926.1,29.9,921.7,30.3,917.3,30.8z"/>
	<path class="st13" d="M1059.3,28.3c-4.4-0.3-8.8-0.6-13.2-0.9l0.4-5.2c4.4,0.3,8.9,0.5,13.4,0.9L1059.3,28.3z"/>
	<path class="st13" d="M949.4,27.9l-0.4-5.2c4.4-0.3,8.9-0.6,13.4-0.8l0.3,5.2C958.2,27.4,953.8,27.6,949.4,27.9z"/>
	<path class="st13" d="M1027.1,26.6c-4.4-0.1-8.8-0.2-13.3-0.3l0.1-5.2c4.5,0.1,8.9,0.2,13.4,0.3L1027.1,26.6z"/>
	<path class="st13" d="M981.6,26.4l-0.2-5.2c4.4-0.1,8.9-0.2,13.4-0.2l0.1,5.2C990.4,26.2,986,26.3,981.6,26.4z"/>
</g>
<polygon class="st12" points="1850.6,767.8 1861,805.2 1867.5,844.7 1869.7,885.7 1868.7,927.7 1864.6,969.1 1858,1010.4 
	1848.9,1049.7 1838.6,1087.7 1823.6,1118.4 1807.7,1149.5 1791.2,1179.7 1773.8,1210.1 1754.6,1239.1 1734.4,1268 1712.3,1295.6 
	1688.8,1322.2 1686.5,1326.4 1684.4,1330.8 1682.3,1334.9 1680.3,1339.3 1677.9,1343.4 1675.9,1348.1 1674,1352.5 1672.2,1357.2 
	1676.5,1357.1 1681,1357.4 1685.2,1357.3 1690,1357.5 1694.2,1357 1698.7,1356.6 1703.3,1355.8 1707.8,1354.7 1715.8,1360.4 
	1721.5,1367.8 1725.3,1376.8 1728.3,1386.5 1730.2,1396.4 1731.8,1406.8 1734,1416.4 1737.2,1425.9 1737.1,1428.5 1737.7,1431.7 
	1738.1,1434.6 1739,1437.9 1739.1,1440.5 1739.2,1443.4 1738.6,1446.1 1737.4,1448.9 1686,1453.5 1635.6,1460.6 1585.7,1469.3 
	1536.9,1480.1 1488.3,1492.6 1440.7,1508 1394.3,1525.8 1348.5,1545.9 1331.4,1554.6 1314.8,1563.5 1298.2,1573.1 1281.7,1583.7 
	1265.6,1594.3 1249.9,1606.5 1234.7,1619.2 1220.2,1633.6 1200.4,1631.9 1200.5,1619.7 1202.4,1608.9 1205.8,1598.5 1210.5,1588.4 
	1215.8,1578.5 1221.8,1569 1227.8,1560.1 1234.3,1551.1 1244.2,1538.6 1254.6,1526.7 1265.8,1514.2 1277,1502.6 1288.7,1490.7 
	1300.6,1479.9 1313,1469.6 1326.5,1460.5 1325.9,1450.9 1325.3,1441.4 1324.7,1431.3 1323.9,1421.7 1322.5,1412.1 1320.9,1402.5 
	1317.8,1393.6 1314.8,1385.2 1296.4,1388.8 1277.1,1393.4 1257.5,1397.5 1238.3,1400.2 1218.7,1400.3 1200,1397.8 1182.1,1390.6 
	1165.7,1378.9 1163,1375.3 1160.2,1371.8 1157.5,1368.4 1155.3,1365.1 1153.1,1361.6 1151.4,1358.1 1149.7,1354.3 1149.1,1350.5 
	1151.2,1339.8 1154.9,1329.4 1159.4,1319 1164.4,1309.1 1167.3,1299 1168,1288.9 1165.3,1279.2 1158.4,1269.6 1154.3,1266.8 
	1149.9,1263.9 1145.3,1261 1141.2,1258.2 1137.4,1254.6 1134.7,1250.7 1133.6,1245.9 1134.4,1240.6 1136.9,1237.6 1140,1234.5 
	1142.5,1231.5 1145,1228.7 1147.6,1225.6 1150.6,1223.1 1153.6,1220.9 1157.2,1219 1152.3,1215.5 1147.1,1212.6 1141.2,1209.4 
	1135.8,1206 1131.2,1202 1128,1197.6 1127,1192 1128.3,1185.7 1130.4,1180.5 1133.6,1176.2 1137.2,1172.1 1141.1,1168.1 
	1144,1163.5 1145.8,1159 1146.1,1153.7 1144.5,1148.4 1136.1,1145.8 1128,1144.4 1119.6,1142.9 1111.4,1141.4 1103.3,1139.2 
	1096.1,1136.2 1089.7,1131.6 1084.1,1125.5 1084.7,1114.9 1093.7,1099 1102.6,1083 1111.9,1067.3 1122.4,1052.1 1133,1036.5 
	1144.6,1022.2 1157.2,1007.5 1170.9,994.1 1168.7,989.2 1166,985.6 1162.4,982.8 1158.8,980.3 1155,977.4 1151.4,974.3 
	1148.4,970.5 1146.8,966.2 1145.9,962.7 1146.3,959.2 1147.3,956.4 1149,953.5 1150.5,950.4 1152.5,947.6 1153.7,944.2 
	1154.7,941.1 1154.5,928.9 1154.5,917 1154.1,904.5 1153.3,892.5 1152.4,880.3 1151.4,868.1 1149.6,856 1147.7,844.6 1139.9,838.1 
	1133,831.1 1127.4,822.9 1123.3,814.7 1119.7,805.8 1117.8,796.7 1116.7,786.8 1116.6,777.3 1122.9,751.4 1134.7,727.8 
	1150.8,706.6 1170.3,687.2 1191.1,669.1 1213.6,652.5 1235.8,636.9 1257.2,622 1284.9,609.6 1313.2,598.6 1341.6,588 1370.9,578.3 
	1400.2,570 1430.2,563 1460.7,557.8 1492.1,554.9 1495.3,553.7 1499,553.1 1502.5,552.7 1506.2,552.4 1509.7,552 1513.1,551.9 
	1516.6,551.6 1520.3,551.5 1557.6,553.6 1593.8,559.4 1628.6,568.2 1663,581 1695.1,596.1 1726.5,614.6 1756.2,635.7 1784.7,659.4 
	1795.5,671.6 1806,684 1816,697 1825.1,710.4 1832.9,724 1840.4,738.2 1846.1,752.8 1850.6,767.8 "/>
<path class="st11" d="M1470.9,913.6l-11.2-2.8c0.2-7.1-0.9-13.7-2.8-19.9l0.1-0.3l9.9-6.1c2.2-1.3,2.9-4.3,1.6-6.5l-10.4-17.2
	c-1.3-2.2-4.2-2.9-6.4-1.6l-10.3,5.8c-4.7-4.7-9.8-8.5-16.2-11.6l0-0.1l2.8-11.2c0.6-2.5-0.3-3.8-2.8-4.4l-19.5-4.8
	c-2.5-0.6-4.1,0-4.7,2.5l-2.8,11.2c-7.1-0.2-13.4,0.9-19.6,2.9l-0.2-0.1l-6-9.9c-1.3-2.2-4.2-2.9-6.4-1.6l-17.2,10.4
	c-2.2,1.3-2.9,4.2-1.6,6.4l5.8,10.4c-4.7,4.7-8.5,9.9-11.6,16.3l-0.1,0l-11.2-2.8c-2.5-0.6-4.3-0.1-4.9,2.4l-4.8,19.5
	c-0.6,2.5,0.5,4.5,3,5.1l11.2,2.8c-0.2,7.1,1,13.3,2.9,19.5l-0.1,0.1l-9.9,6c-2.2,1.3-2.9,4.2-1.6,6.4l10.4,17.2
	c1.3,2.2,4.2,2.9,6.4,1.6l10.2-5.9c4.7,4.7,9.6,8.5,16,11.6l0,0.1l-2.8,11.2c-0.6,2.5,0.4,4.6,2.9,5.2l19.5,4.8
	c2.5,0.6,3.9-0.9,4.6-3.4l2.8-11.2c7.1,0.2,13.6-0.9,19.8-2.9l0.3,0.1l6.1,9.9c1.3,2.2,4.2,2.9,6.4,1.6l17.2-10.4
	c2.2-1.3,2.9-4.2,1.6-6.4l-5.9-10.1c4.7-4.7,8.4-9.5,11.5-15.9l0.1,0l11.2,2.8c2.5,0.6,4.1-0.8,4.7-3.3l4.8-19.5
	C1474.4,915.3,1473.4,914.2,1470.9,913.6z M1379.6,932.2c-0.2-0.2-0.5-0.4-0.7-0.6c-0.7-0.6-1.4-1.2-2.1-1.9c-0.3-0.3-0.6-0.7-1-1
	c-0.3-0.3-0.6-0.7-0.9-1.1c-0.1-0.2-0.3-0.4-0.4-0.5c-0.8-1.1-1.6-2.2-2.2-3.3s-1.3-2.4-1.8-3.6c-0.2-0.5-0.4-1-0.6-1.5
	c-0.5-1.5-0.9-3.1-1.2-4.7c-0.6-3.8-0.5-7.7,0.5-11.6c2-8.2,7.4-14.8,14.3-18.5c0.6-0.3,1.2-0.6,1.9-0.9c0.2-0.1,0.4-0.2,0.6-0.3
	c0.4-0.2,0.9-0.4,1.3-0.5c1.3-0.5,2.7-0.9,4-1.2c0.5-0.1,0.9-0.2,1.4-0.3c3.7-0.6,7.6-0.5,11.5,0.5c4.6,1.1,8.7,3.3,12,6.2
	c0.4,0.3,0.7,0.6,1,0.9c0.5,0.5,1,1,1.5,1.5c0.3,0.3,0.6,0.7,0.9,1.1c0.1,0.2,0.3,0.4,0.4,0.5c0.3,0.4,0.6,0.7,0.8,1.1
	c0.4,0.6,0.8,1.1,1.1,1.7c0.2,0.4,0.5,0.8,0.7,1.2c0.5,1,1,2.1,1.5,3.1c0.2,0.4,0.3,0.9,0.5,1.3c0.1,0.4,0.3,0.9,0.4,1.3
	c0.2,0.7,0.4,1.3,0.5,2c0.9,4.1,0.8,8.5-0.3,12.9c-0.6,2.4-1.5,4.7-2.6,6.8c-0.2,0.4-0.5,0.8-0.7,1.2c-0.4,0.6-0.8,1.2-1.2,1.8
	c-0.3,0.4-0.6,0.8-0.8,1.1c-0.2,0.2-0.4,0.5-0.6,0.7c-0.4,0.5-0.8,0.9-1.2,1.4c-0.3,0.3-0.7,0.7-1,1c-0.3,0.3-0.5,0.5-0.8,0.7
	c-0.2,0.2-0.5,0.4-0.7,0.6c-0.2,0.1-0.4,0.3-0.5,0.4c-0.4,0.3-0.7,0.6-1.1,0.8c-0.2,0.1-0.4,0.3-0.6,0.4c-0.4,0.3-0.8,0.5-1.2,0.7
	c-0.2,0.1-0.4,0.2-0.6,0.4c-0.8,0.5-1.6,0.9-2.5,1.3c-0.2,0.1-0.4,0.2-0.6,0.3c-0.4,0.2-0.9,0.4-1.3,0.5s-0.9,0.3-1.3,0.4
	c-0.2,0.1-0.4,0.1-0.7,0.2c-0.5,0.1-0.9,0.2-1.4,0.4c-4.3,1-8.9,1-13.5-0.1c-3.7-0.9-7.1-2.5-10-4.6
	C1380.1,932.6,1379.9,932.4,1379.6,932.2z"/>
<polygon class="st9" points="141.4,758.3 131.1,795.6 124.5,835.1 122.3,876.1 123.3,918.2 127.5,959.6 134,1000.8 143.1,1040.2 
	153.4,1078.1 168.5,1108.9 184.3,1139.9 200.9,1170.1 218.3,1200.5 237.4,1229.5 257.7,1258.4 279.7,1286 303.2,1312.7 
	305.6,1316.8 307.6,1321.2 309.7,1325.3 311.8,1329.7 314.1,1333.9 316.2,1338.5 318,1342.9 319.8,1347.6 315.6,1347.6 
	311.1,1347.8 306.8,1347.7 302.1,1348 297.8,1347.4 293.3,1347.1 288.7,1346.2 284.2,1345.1 276.2,1350.8 270.5,1358.3 
	266.7,1367.2 263.7,1376.9 261.9,1386.8 260.2,1397.2 258.1,1406.8 254.8,1416.3 255,1418.9 254.3,1422.1 253.9,1425.1 253,1428.3 
	252.9,1430.9 252.8,1433.9 253.4,1436.5 254.6,1439.3 306,1444 356.4,1451 406.4,1459.7 455.1,1470.5 503.7,1483 551.3,1498.4 
	597.8,1516.3 643.5,1536.3 660.6,1545 677.2,1554 693.9,1563.5 710.3,1574.1 726.4,1584.7 742.1,1596.9 757.3,1609.7 771.8,1624 
	791.6,1622.3 791.5,1610.1 789.7,1599.3 786.2,1588.9 781.5,1578.8 776.3,1569 770.2,1559.5 764.2,1550.5 757.7,1541.5 747.8,1529 
	737.4,1517.1 726.2,1504.6 715,1493 703.3,1481.1 691.4,1470.3 679,1460.1 665.5,1450.9 666.1,1441.4 666.7,1431.8 667.3,1421.7 
	668.1,1412.1 669.5,1402.5 671.2,1392.9 674.2,1384 677.2,1375.6 695.7,1379.2 715,1383.8 734.5,1387.9 753.7,1390.7 773.3,1390.8 
	792,1388.2 809.9,1381 826.3,1369.3 829,1365.8 831.8,1362.2 834.5,1358.9 836.8,1355.6 839,1352 840.6,1348.5 842.3,1344.7 
	842.9,1341 840.8,1330.2 837.1,1319.8 832.6,1309.4 827.6,1299.6 824.8,1289.4 824,1279.3 826.7,1269.7 833.6,1260 837.7,1257.2 
	842.1,1254.3 846.7,1251.5 850.8,1248.6 854.6,1245 857.4,1241.1 858.4,1236.3 857.7,1231 855.1,1228 852.1,1225 849.5,1221.9 
	847,1219.1 844.5,1216.1 841.4,1213.6 838.4,1211.3 834.9,1209.4 839.7,1206 844.9,1203.1 850.8,1199.8 856.2,1196.4 860.8,1192.5 
	864,1188.1 865.1,1182.4 863.7,1176.2 861.6,1171 858.5,1166.6 854.8,1162.5 850.9,1158.5 848,1153.9 846.2,1149.5 846,1144.2 
	847.6,1138.8 855.9,1136.3 864,1134.8 872.5,1133.3 880.6,1131.9 888.7,1129.6 896,1126.6 902.4,1122 907.9,1115.9 907.4,1105.4 
	898.4,1089.4 889.4,1073.4 880.1,1057.7 869.6,1042.6 859,1026.9 847.4,1012.6 834.8,997.9 821.2,984.5 823.3,979.6 826,976.1 
	829.6,973.2 833.2,970.7 837,967.8 840.6,964.7 843.6,960.9 845.2,956.6 846.1,953.1 845.7,949.7 844.7,946.8 843,944 841.5,940.9 
	839.5,938 838.3,934.6 837.4,931.5 837.6,919.3 837.5,907.4 837.9,894.9 838.7,883 839.7,870.7 840.7,858.5 842.5,846.5 844.3,835 
	852.2,828.5 859,821.5 864.7,813.3 868.8,805.1 872.3,796.2 874.2,787.1 875.3,777.3 875.4,767.7 869.1,741.8 857.3,718.3 
	841.2,697.1 821.7,677.6 800.9,659.5 778.4,642.9 756.2,627.3 734.8,612.5 707.2,600 678.8,589 650.5,578.4 621.1,568.8 
	591.8,560.4 561.8,553.4 531.4,548.3 500,545.3 496.7,544.1 493,543.5 489.5,543.2 485.8,542.8 482.3,542.5 478.9,542.4 475.4,542 
	471.7,541.9 434.5,544 398.2,549.8 363.4,558.6 329.1,571.5 296.9,586.6 265.5,605.1 235.8,626.1 207.3,649.8 196.5,662 186,674.4 
	176.1,687.4 166.9,700.8 159.1,714.5 151.6,728.6 146,743.2 141.4,758.3 "/>
<polygon class="st8" points="516.4,547.7 516.4,1487.7 504.5,1484 455.7,1471.6 406.8,1460.7 356.8,1452 306.3,1445 255,1440.3 
	253.7,1437.5 253.1,1434.9 253.2,1431.9 253.3,1429.3 254.2,1426.1 254.6,1423.1 255.3,1419.9 255.1,1417.3 258.4,1407.9 
	260.6,1398.2 262.2,1387.8 264.1,1377.9 267,1368.2 270.8,1359.3 276.6,1351.8 284.5,1346.1 289.1,1347.2 293.6,1348.1 
	298.1,1348.4 302.4,1349 307.1,1348.7 311.4,1348.8 315.9,1348.6 320.1,1348.6 318.3,1343.9 316.5,1339.5 314.4,1334.9 
	312.1,1330.7 310,1326.3 307.9,1322.2 305.9,1317.8 303.6,1313.7 280,1287 258,1259.5 237.7,1230.5 218.6,1201.5 201.2,1171.1 
	184.6,1140.9 168.8,1109.9 153.7,1079.1 143.4,1041.2 134.3,1001.9 127.8,960.6 123.6,919.2 122.6,877.1 124.8,836.2 131.4,796.6 
	141.7,759.3 146.3,744.2 151.9,729.6 159.4,715.5 167.2,701.8 176.4,688.4 186.3,675.5 196.8,663 207.6,650.8 236.1,627.2 
	265.8,606.1 297.3,587.6 329.4,572.5 363.7,559.6 398.5,550.8 434.8,545 472,542.9 475.7,543 479.2,543.4 482.6,543.5 486.1,543.8 
	489.8,544.2 493.3,544.5 497,545.1 500.8,546.3 "/>
<polygon class="st3" points="369.8,635.7 347.5,639.5 325.1,646.4 303.5,656.2 282.9,668.3 264.1,682.8 246.6,699.5 231.1,718.3 
	218.1,739.4 207.5,761.4 198.1,785.1 190.3,809.7 184.7,835.1 182.5,860.4 184,885.8 190,910.6 200.7,935.5 211,955.7 224.4,975.2 
	240.1,993 258.1,1009.3 278.1,1022.9 299.1,1034.1 320.9,1042.3 342.9,1047 377.4,1053.3 412.6,1057.6 448.7,1059 484.6,1058.1 
	520.5,1054.7 555.7,1048.7 589.7,1040.7 622.1,1030.9 647.4,1022.2 672,1010.9 695.7,997.1 717.7,980.9 737.7,962.1 754.4,941.2 
	768.1,918 777.4,892.6 784.1,871.1 787.7,849.2 789,826 787.3,803.3 783.1,780.7 775.4,759.4 764.6,740 750.3,723 738.2,708.7 
	724.4,697.8 709.4,688.7 693.4,681 677.2,674.1 660.2,668.1 643.7,661.7 627.4,654.6 607.7,647.1 588.1,641.1 568,636.6 
	547.7,632.8 527.7,629.8 506.9,627.9 485.9,626 464.1,624.7 452.8,626.1 440.7,626.9 428.7,627.2 416.3,627.9 404.7,628.4 
	392.8,629.8 381,632 369.8,635.7 "/>
<path class="st7" d="M481.7,681.5c8.4,2.2,16.9,4.2,25.3,6.6c6.9,2,13.7,4.5,20.5,7c11.2,4.1,21.8,9.4,32.4,14.9
	c9.5,4.9,18.9,9.9,26.7,17.3c5.2,5,10.1,10.4,15.1,15.5c8.5,8.7,15.5,18.5,21.6,29c2.1,3.6,3.4,7.5,5.3,11.3
	c3.2,6.5,6,13.2,7.7,20.2c2.3,9.3,2.6,18.8,3.1,28.3c0.5,9.6-1.2,18.9-4.4,27.9c-2.4,6.8-5.4,13.5-8.4,20.1
	c-7.7,16.8-20.1,28.3-38.7,31.7c-12.7,2.3-25.5,2.8-38.2,0.4c-2.6-0.5-5.2-1.1-7.8-1.7c-1.3-0.3-2-0.1-2.7,1.2c-1,2-2.3,3.9-3.5,5.7
	c-2.6,3.8-3.8,8.1-4.2,12.6c-1.2,10.9-6.6,18.8-16.5,23.4c-6.3,3-13.1,3.8-19.9,4.8c-9.6,1.4-19.2,2-28.9,0.6
	c-12.8-1.8-25-5.8-36.1-12.6c-1.3-0.8-2.1-0.7-3.2,0.5c-4.9,5.5-10.9,9.1-18.2,10.7c-2.2,0.5-4.5,0.7-6.4,1.7
	c-4.7,2.5-9.2,5.1-13.6,8c-7.2,4.8-14.5,9.5-21.3,14.8c-6.5,5.1-12.4,10.8-18.4,16.3c-1.2,1-2.3,1.5-3.8,1.2c-6-1.1-11-4.1-15.1-8.6
	c-3.3-3.7-3.5-6.5-0.5-10.4c3-3.9,6.4-7.4,9.7-11.1c3.2-3.6,6.4-7.1,7.8-11.8c0.5-1.6,0-2.4-1.4-2.9c-6.6-2.1-13.1-4.5-19.8-6.3
	c-8.2-2.3-16.5-4.6-24.2-8.2c-12.1-5.7-20.3-14.6-22.4-28.3c-0.5-3.5-0.8-7.1-1.1-10.7c-0.1-1.1-0.3-1.9-1.7-2.2
	c-3.7-0.9-7.3-1.9-10.9-3.1c-4.8-1.7-9.6-3.8-13-7.9c-1.9-2.2-3.3-4.9-4.8-7.4c-3.8-6.5-6.8-13.4-8.4-20.8
	c-2.9-13.1-2.8-26.2-0.2-39.2c1.3-6.6,3.6-13,5.9-19.3c4.7-12.7,11.3-24.4,19.2-35.3c9.5-13,20.9-24.4,32.5-35.5
	c7.7-7.4,15.8-14.2,24.7-20c7.5-4.9,15.2-9.6,23.1-13.9c7.2-3.9,14.6-7.6,22.2-10.7c14.1-5.7,28.9-8.5,44-10
	c15.2-1.5,30.4-0.9,45.4,1.4c8.5,1.3,16.9,3.5,25.4,5.3C481.6,682.1,481.7,681.8,481.7,681.5z M430.8,895.4
	c-0.2,1.8-0.5,3.6-0.7,5.4c-0.2,2.4,1.1,4.4,2.9,5.5c4.8,3,9.9,5.8,14.9,8.6c2.9,1.6,6,2.8,8.7,4.6c1.9,1.2,3.2,3.2,4.6,4.9
	c-3.6-2.3-7.2-4.4-11.6-4.3c-4,0.1-6.7,2.3-7.6,6.2c-1,4.4-0.9,5.9,1.6,12.9c-0.2,0.1-0.4,0.2-0.5,0.3c-1-1.9-2.3-3.8-2.9-5.9
	c-1.2-3.6-1.4-7.3-0.4-11c1.3-4.6-0.6-7.9-4.1-10.6c-4.2-3.2-9-5-14-6.6c-0.4-0.1-1.3,0.1-1.6,0.5c-4,6.6-10.2,10.2-17.4,12.4
	c-0.2,0.1-0.4,0.2-0.9,0.5c1.7,1.3,3.1,2.5,4.7,3.7c10.8,7.8,21.9,15.1,34.2,20.4c9.7,4.2,19.8,7,30.3,8.4c8.1,1.1,16.2,1,24.3,0.1
	c7.2-0.8,13.8-3.7,19.7-8c1-0.7,1.7-1.9,2.2-3c1.2-2.6,0.1-4.2-2.7-3.9c-2.1,0.2-4.2,0.6-6.3,0.8c-2.3,0.2-4.4,0.1-6.4-1.4
	c9.4-1.3,17.8-5,23.9-12.1c7.5-8.7,11.5-18.9,6.7-30.5c-1.7-4.1-4.6-7.9-7.2-11.6c-4.2-6-8.7-11.8-13.1-17.6
	c-5.4-7-12.1-12.5-20.8-14.6c-4.5-1.1-9.3-1-14-1.3c-1.5-0.1-2.8,1.8-2.7,3.9c0.2,4.2,0.5,8.4,0.8,12.5c0.4,6.1,0,12.1-3.5,17.4
	c-1.5,2.3-3.3,4.3-5,6.5c-2.9,3.9-2.5,6.3,1.6,8.8c4.4,2.7,7.6,6.4,9.6,11.1c0.5,1.1,0.7,2.4,0.9,3.6c-2.8-5.8-6.8-10.3-12.7-12.9
	c-3-1.3-6-2.2-8.9,0.7c-2.3,2.2-5.3,3-7.9,2.8c2.2-1.3,5.1-2.6,7.4-4.5c4.3-3.5,4.6-6.9,1.7-11.7c-2.2-3.6-3.6-7.4-3.3-11.6
	c0.9,2.4,1.9,4.9,2.9,7.4c0.1,0.3,0.2,0.5,0.4,0.8c3.2,4.7,4.8,4.3,7.9,0.8c3-3.3,4.3-7.4,4.9-11.7c1-7.7,0.2-15.2-3.5-22.1
	c-1.2-2.3-3.1-4.2-4.9-6.2c-4.2-4.9-8.5-9.7-12.7-14.6c-6.5-7.6-13.1-14.9-20.7-21.4c-5.6-4.7-12.2-6.4-19.1-7.5
	c-3.8-0.6-7.6-1.1-11.5-1.7c-4.8-0.8-9.3-0.4-13.2,2.7c-2.2,1.7-3.9,4.1-5.9,6.2c0.3-1.3,0.3-2.8,0.9-4.1c1.6-3.9,4.6-6.5,8.3-8.3
	c2.4-1.1,3-1.9,1.8-4.4c-1-2.2-2.5-4.2-3.8-6.3c-1.6-2.4-3.3-4.7-4.8-7.2c-1.8-2.9-1.6-6.1-0.9-9.4c2-8.3,0-15.9-4.6-23.2
	c4.5,3.3,6.1,8.1,6.9,13.1c0.9,5.7,1.4,11.4,2.5,17c1.6,8,6,13.9,13.9,16.6c5.4,1.9,11.2,3.3,16.9,1.8c7.6-2,16.4-11.1,15.9-21.7
	c0-0.3,0-0.6,0.1-1c2.3,4.1,2.2,8.1,0.1,12.1c-0.8,1.5-1.6,3.1-2.6,4.6c-3.9,6-2.6,10.6,1.8,15.7c2.9,3.4,6.7,6.1,10,9.3
	c4.6,4.5,9.1,9.1,13.7,13.7c1.1,1.1,2.2,2.5,4.1,1.6c1.9-0.9,2.5-2.5,2.2-4.4c-0.4-3.2-1-6.3-1.6-9.5c-0.2-1-0.3-1.6,0.8-2.2
	c5.8-3,8.2-8.2,9.2-14.3c2-12.5-1.2-24.2-5-35.9c-2.5-7.7-8-11.9-15.2-14.5c-3.2-1.2-6.3-2.7-9.4-4.2c-1.2-0.6-2.3-1.4-3.2-2.3
	c-2.3-2.4-3.2-5.1,0.7-7.1c1.4-0.7,2.9-1.3,4.4-2c4.6-2,5.7-5.6,3-9.9c-5.3-8.5-13-14-22.1-17.7c-0.8-0.3-1.7-0.7-2.5-1
	c-1.1-0.4-2.6-0.5-3.3-1.2c-0.6-0.7,0.1-2.2-0.3-3.2c-0.6-1.6-1.1-3.4-2.3-4.5c-3.9-3.6-8.5-6-13.8-7.2c-5.2-1.2-10.4-1.9-15.6-0.9
	c-2.1,0.4-4.2,1.7-6.1,2.9c-1.3,0.8-0.9,2.2,0.2,3.3c4.4,4.1,9.3,6.1,15.3,4.2c1.9-0.6,3.9-1.1,5.6-1.6c-3,3.1-9.4,6.2-13.8,5.8
	c-1.6-0.1-3.2-1.5-4.5-2.7c-2.5-2.1-4.7-4.6-7.3-6.5c-1.5-1.1-3.7-2.1-5.5-0.8c-2,1.4-1.3,3.7-0.8,5.7c1.7,5.8-0.5,12.2-4.4,16.7
	c0.5-2.5,1.3-4.6,1.4-6.7c0.2-7.9-6.3-11.7-13.3-7.6c-6.6,3.9-12.9,8.3-19.3,12.5c-2.2,1.5-3,3.8-3.2,6.4c-0.1,2.1,1.9,4.1,4.5,4.9
	c4.1,1.3,8.1,2.5,12.2,3.9c2,0.7,3.7,0.3,5.2-1.2c2.9-2.9,6.2-4.9,10.4-4.8c1.5,0,3,0.4,4.5,0.9c-3.9-0.5-6.7,1.4-9.2,3.9
	c-5.9,6-8.7,13.5-9.5,21.8c-0.3,3.7-0.8,7.4-1.3,11.1c-1.7,14.1-1.3,28.1,2.5,41.9c1.9,7,3.7,14.2,8.4,19.9
	c4.2,5.2,8.3,10.5,14.5,13.7c-0.1,0.2-0.2,0.5-0.3,0.7c-2.3-0.7-4.7-1.4-6.9-2.2c-1.6-0.6-3-1.5-4.5-2.3c-2.4-1.2-3.5-0.6-4.1,1.9
	c-1.4,6.4,0.6,11.8,5.2,16.2c5.1,4.8,10.9,8.7,17.9,11.8c-6.5-0.3-11.6-2.9-16.3-6.2c-2-1.4-4-2.9-5.9-4.4
	c-4.5-3.6-9.5-4.4-14.8-2.8c-8,2.3-15.7,1.5-23.6-0.9c-4.4-1.4-6.8-1.5-9,4c-1.6,4.1-3.5,8.1-4.6,12.4c-2.1,7.7-0.1,14.6,5,20.8
	c3.5,4.2,8.1,6.3,13.3,7.5c4.5,1.1,9.1,2.1,13.6,2.9c9.2,1.6,18.1,0.9,26.8-2.6c3.1-1.2,6.4-2.5,9.8-1.3c2.2,0.8,4.3,2.1,6.3,3.3
	c4,2.5,8.1,4.7,12.9,5c5.9,0.4,9.4-3.2,8.5-9c-0.1-0.6-0.2-1.2,0.1-2c0.7,1.2,1.3,2.5,1.9,3.8c0.3,0.6,0.4,1.2,0.5,1.8
	c0.5,4.4,2.9,7.2,7.2,8.3c4.8,1.3,9.6,1.7,13.8-1.6c3.7-2.9,4-7,3.5-11.3c-0.1-0.8-0.3-1.6-0.5-3C430.9,888,431.2,891.6,430.8,895.4
	z M498.9,802.1c1.5-1.7,3.3-3.2,4.3-5.1c1-1.8,1.5-4,1.6-6.1c0.1-3.1-0.7-6.2-0.3-9.2c0.4-2.8,1.4-5.6,2.8-8.1
	c2.7-4.9,2.8-6.7-2.2-11.3c-3.9-3.6-8.4-6.5-12.6-9.8c-4.4-3.4-8.5-7.2-10.7-12.5c-0.2-0.4-0.3-0.8-0.4-1.2
	c-0.1-0.4-0.1-0.8-0.3-1.7c2.9,5.6,7,9.4,12.3,11.7c1.6,0.7,3.4,1.1,5.1,1.2c2.3,0.1,4.1-1.1,5.3-3.2c2.2-4,2.2-8.3,2-12.7
	c-0.1-2.9-0.3-5.8,0.1-8.6c0.4-3.2,2-6,4.8-8.8c-2.4,5.3-2,10.3-1.3,15.1c0.8,6.1,0,11.8-2.6,17.4c-2.2,4.6-1.5,7.5,2.1,10.2
	c3.3,2.4,8,3.2,11.8,0.1c3.8-3,8-5.4,12.2-7.8c3.3-1.8,5-4.2,4.8-8.1c-0.3-6.3-3.1-11.5-7-16.3c0.1-0.1,0.3-0.3,0.4-0.4
	c2.4,2.5,4.7,5.1,7.3,7.8c0.4-1.2,0.7-2.4,1.3-3.4c1.7-3.1,4.7-4.4,8.1-4.6c3.4-0.3,6.7-0.3,9.9,1.1c1,0.4,2.9,0.3,3.7-0.3
	c0.7-0.7,0.8-2.5,0.5-3.6c-1-3.5-3.1-6.3-6.4-8c-5.9-3.1-11.8-6.5-17.9-9.3c-4.9-2.3-10.2-3.9-15.3-5.8c-1.4-0.5-2.8-1.1-4.2-1.4
	c-0.7-0.2-2-0.3-2.3,0.2c-0.4,0.6-0.5,1.7-0.3,2.5c1.1,3.5,4,5.1,7.3,6c5.1,1.3,8.2,4.9,11,9.1c-4.7-4.5-10.5-6.8-16.7-8.3
	c-1.3-0.3-1.8-0.8-2.1-2.1c-1.1-5.6-7.8-11.5-13.4-11.9c-1.6-0.1-2.6,0.7-3.3,2.1c-2.4,4.8-2.4,4.8-5.4,6.4c3.3-6.1,2-10.9-4.4-14.6
	c-2.8-1.6-5.8-2.8-8.9-3.6c-8.2-2.1-16.6-3.9-25.1-3.6c-3,0.1-6,0.8-8.8,1.6c-2.2,0.6-2.6,2.5-1.1,4.3c0.8,1,1.8,1.8,2.9,2.9
	c-4.5-0.6-8.5-1.8-12.1-4.1c-4.6-3-9.6-5.2-15.1-5.4c-2.6-0.1-5.4,0.5-8,1.2c-1,0.3-2.2,1.8-2.3,2.9c-0.1,0.9,1.1,2.2,2,2.8
	c2.9,1.9,6.3,2.2,10.1,1.9c-0.5,0.4-0.7,0.6-0.9,0.8c-2.6,2.3-3,5-0.2,7.1c3.8,2.9,7.9,5.5,12.1,7.7c8.4,4.5,15.5,10.1,19.2,19.3
	c2-0.4,3.9-0.8,5.9-1.1c-5.7,2.5-8.3,7-9.2,12.8c-0.5,3.2,0.8,5.4,3.4,6.8c2.1,1.2,4.5,1.9,6.7,3c11.8,6,17.7,15.8,17.9,28.9
	c0.1,6-0.1,12-0.7,18c-0.6,6.5-2.8,12.5-8.1,16.8c-5.7,4.8-4.9,10.8-2.9,16.8c1,2.9,2.6,5.6,4.2,8.2c3,4.9,7.9,6.5,13.2,7.3
	c5,0.8,10,1.4,15,2.1c3,0.4,5.6,1.9,7.7,4c1.1,1.1,1.9,0.9,2.8,0c2.2-2.1,3.1-4.5,2.2-7.6c-0.9-2.9-1.9-5.8-2.2-8.7
	c-0.7-7.3,2.7-13.2,7-19.2c-1.9,6.6-4.2,12.8-2.5,19.3c1.3,5,3.4,9.7,4.3,14.8c0.5,2.9,4.4,4.7,7.8,4.5c5.1-0.3,9.6-2.5,13.9-5.1
	c2.4-1.4,4.6-3.1,7-4.4c-6.4,9.4-14.3,16.3-27.3,16.3c1.5,2.6,2.5,4.9,4.1,6.8c4.6,5.6,9,11.2,12.3,17.6c4,7.6,11,9.9,18.8,10.4
	c9.5,0.6,18.6-1.9,27.6-4.6c2.1-0.6,4-1.7,5.8-2.9c3.6-2.3,5.3-5.8,6-10.1c0.4,1.9,0.8,3.8,1.1,5.7c0.7,5.8,4.8,8,10.3,8.7
	c4.5,0.6,8.6-0.6,11.4-4.1c2.1-2.6,3.5-5.8,4.6-8.9c1.7-5,2.9-10.1,4.1-15.2c0.4-1.5,0.4-3.1,0.3-4.6c-0.1-2.3-0.8-4.3-3.4-4.9
	c2.6-3.5,3-7.5,3.2-11.4c0.2-8.5-0.7-17-4.6-24.6c-2.4-4.8-6.1-8.9-9.5-13.1c-2.3-2.9-5.1-5.4-7.9-7.9c-3.4-3-6.9-3.2-10.8-0.8
	c-1.3,0.8-2.6,1.7-3.9,2.6c-2.9,2.1-5.9,3.2-9.4,1.4c-0.3-0.2-0.8-0.2-1.7-0.4c0.2,4.4,0.4,8.6,0.6,12.8c-0.2,0-0.5,0.1-0.7,0.1
	c-2.2-2.7-2.9-6-3-9.4c-0.1-2.2,0.1-4.3,0.1-6.5c0-5.3-2.3-8.3-7.2-10.4c-5.3-2.3-10.8-2.1-16.3-1.1c-5.6,1-10.7,0.1-15.3-3.6
	c2.1,0.4,4.1,1,6.2,1.3c3.7,0.5,7.3,0.1,10.8-1.4c5.5-2.3,10.9-0.9,16.2,1c2,0.7,3.8,1.8,5.7,2.7c2.1,1.1,3.5,0.8,4.7-1.3
	c1.8-3.3,1.6-7,1-10.5c-2-10.9-9.3-17.2-19.3-20.8c-1-0.4-2.1-0.8-3.1-1.6c1.7,0.1,3.5-0.2,5.1,0.3c4.6,1.5,8.6-2.8,6.9-7.8
	c-1.1-3.2-3.2-5.7-6-7.4c-4.1-2.5-8.6-4.4-13.5-4.8c-4.6-0.3-7.9,1.8-8.7,6.3c-0.5,2.9-0.3,6-0.2,8.9c0,1.8,0.5,3.6,0.6,5.4
	c0.1,1.9-0.7,3.3-2.8,3.6c-8.4,1-14.1,6.2-19.3,12.2c-1.9,2.2-3.7,4.5-5.8,6.3c-6.8,5.8-5.8,13.8,0.3,19.1c1.5,1.3,3.2,2.5,4.7,3.9
	c2.7,2.5,5.5,5,7.9,7.9c4.1,5.1,9.4,8.3,15.4,10.5c4.7,1.7,9.6,3.1,14.3,4.8c4.5,1.7,6.8,5.4,8.4,9.7c0.8,2.2,1.6,4.4,2.9,6.3
	c3.9,5.9,11.8,7.9,18.8,5c1.3-0.5,2.5-1.2,4.1-1.5c-1.3,1.1-2.5,2.5-4,3.3c-1.5,0.9-3.2,1.3-4.9,1.9c-2.9,0.9-3.3,2.1-1.5,4.6
	c2.3,3,5.6,4.6,9,5.5c4.6,1.3,9.3,2.4,14.1,1.8c2.6-0.3,5.2-1,7.5-1.4c-2,2.5-5,3.9-8.5,4.3c-3.4,0.3-6.8,0.4-10.3,0.4
	c-4.4,0-7.9,1.7-11.2,4.6c-3,2.6-6.1,5.3-9.5,7.3c-4.8,2.7-10.1,2.5-15.4,1.7c-2.6-0.4-5.1-1-7.7-1.6c3.8-0.5,7.6-0.8,11.3-1.7
	c3.4-0.8,6.8-1.8,9.9-3.4c6.5-3.2,8-9.4,4.1-15.6c-1.1-1.7-2.4-3.3-3.9-4.7c-3.6-3.4-6.5-7.3-7.5-12.2c-1.3-6.5-5.8-9.8-11.3-11.9
	c-11-4.2-21.7-9-31.3-15.9c-2.1-1.5-4.7-2.6-7.2-3.4c-5.2-1.6-9.6,0.5-13.1,4.2c-2.6,2.8-4.8,5.9-6.8,8.5
	C492.8,809.8,495.5,805.8,498.9,802.1z M302.8,810c-0.8-4.4-3.5-7.6-6.6-10.4c-2.5-2.3-5-1.5-6.2,1.8c-2.4,6.5-2.3,13.2-1.8,19.9
	c0.4,6.1,1.4,12.2,2.1,17.7c-8.8-11.7-8.4-40.9,3.5-58.3c0,2.3,0,4.3,0.1,6.3c0.6,15.2,15.7,21.6,26.7,16.9
	c8.3-3.5,14.7-8.9,18.7-17.1c2.3-4.7,2.7-9.7,3.1-14.8c0.7-8.4,0.7-16.9,1.4-25.3c0.3-4.2,1.6-8.3,2.5-12.4c0.8-4-1.2-7.2-5.1-8
	c-2-0.4-4.2-0.6-6.2-0.5c-5.2,0-10.3,0.2-15.5,0.4c-6.9,0.3-12.8,3.3-18.1,7.2c-4,3-7.7,6.3-11.5,9.6c-2.3,2-1.6,5.1,1.4,6
	c1.1,0.4,2.3,0.6,3.5,0.7c5.2,0.4,6.6,4.2,6.8,8.7c0.1,1.7,0.1,3.5,0.3,5.2c0.9,6.6,8.4,10.2,13.4,7.8c4.5-2.2,5.6-8.4,2-11.8
	c-0.2-0.2-0.4-0.4-0.6-0.6c-6.1-4-5.8-9.8-2.4-15.9c0.7-1.2,1.6-2.3,2.5-3.4c-1.7,3.1-2.8,6.3-2.5,9.8c0.4,4.6,2.7,7.7,7,9.4
	c1.1,0.4,1.6,0.2,2-1c1.5-4.6,4.3-8,9-9.6c0.3-0.1,0.5-0.2,0.8-0.2c0.1,0,0.3,0,0.3,0.1c-3.4,1.4-5.4,4.2-6.6,7.4
	c-1.6,4.5-2.9,9.2-4.3,13.9c-2.1,7.2-10,10.8-16,7.3c-2.8-1.7-4.4-4.5-5.8-7.3c-1.6-3.1-3-6.2-4.4-9.3c-4.2-8.8-14.9-9.8-21-1.1
	c-6,8.6-5.1,20.8,2.3,28.4c0.2,0.2,0.4,0.4,0.3,0.3c-2.2,1.6-4.8,2.9-6.6,4.8c-2.8,3-3.4,6.9-2.8,10.8c0.4,2.8,1.3,5.6,1.8,8.4
	c0.1,0.6,0,1.5-0.4,1.8c-6.5,4.7-6.8,11.1-5.4,18.1c0,0.2,0.1,0.4,0.2,0.6c-2.6-2.6-3.1-6.6-2.1-17.2c-3.9,0-7.4,1.2-10.6,3.3
	c-5.2,3.4-7.5,8.5-8.2,14.5c-0.3,2.2-0.6,4.5-0.6,6.7c0,2.5,2,3.5,4,2.1c3.1-2.1,6.5-3.1,10.5-3.2c-5.2,1.9-9.2,4.8-11.6,9.6
	c-2.6,5,0,10.2,3.5,12.7c2.9,2.1,6.1,3.4,9.9,2.8c0.7-0.1,1.9,0.3,2.3,0.8c4.9,6,11.1,8.2,18.7,6.9c0,0.2,0.1,0.4,0.1,0.6
	c-2,0.6-3.9,1.3-5.9,1.6c-2.1,0.4-2.9,1.2-2,3c1,2,2.5,3.9,3.8,5.8c0.4,0.6,1,1.1,1.4,1.8c-4.5-2.6-9-5.2-9.6-11.2
	c0-0.4-0.3-0.9-0.6-1c-3.2-2-6.4-4-9.7-5.8c-2.8-1.5-5.2-1.2-7.2,1c-0.6,0.7-0.8,2.1-0.6,3.1c0.6,4.7,3.5,8.2,6.7,11.4
	c4.5,4.6,10.2,7.2,16.5,8.8c7.9,2,15.7,2,23.7,0.5c7-1.3,9.2-9.3,7.4-14.1c-1.1-2.9-1.6-5.9-2.1-8.9c-0.2-1.2,0.1-2.5,0.2-4
	c-7.7,1.8-14.6,0.1-21.1-3.8c-6.6-3.9-10.6-9.9-12.5-17.3c-0.2,0.1-0.4,0.3-0.7,0.4c1.6,2,3,4,4.7,5.9c1.7,1.9,3.5,3.8,5.6,5.4
	c5.1,3.9,10.9,6,17.4,5.8c6.4-0.3,9.9-3,11.6-9.2c0.6-2.1,1.2-4.2,1.2-6.3c0-1.2-0.8-2.6-1.7-3.5c-1.8-1.8-3.9-3.2-5.8-4.9
	c-1-0.9-1.7-2.1-2.4-3.4c5.5,5.3,12.7,6.4,19.4,8.6c8.9,3,17.7,1.9,26.6,0.4c1.1-0.2,2.2-0.4,3.3-0.5c5.1-0.2,6.3-2.2,6.8-7.7
	c0.5-5.8-1.5-10.7-4-15.8c-2.3-4.8-3.6-10.1-5.2-15.3c-0.6-1.9-0.8-3.9-1.5-5.7c-1-2.7-2.8-3.2-5.1-1.5c-2.5,1.9-4.7,4.2-7.3,6
	c-6.8,4.8-14.3,7.1-22.7,4.9c-2.7-0.7-3.6,0.1-3.7,2.9c-0.1,4.7,1.7,8.9,3.5,13.1c0.3,0.8,0.7,1.5,1.3,2.7
	C306.2,820.7,303.8,815.7,302.8,810z M576.2,758.2c2.7,3.1,5,6.7,7.1,10.4c2.1,3.7,5.1,5.8,9,7c4.2,1.2,12.1,4,14.2,6.4
	c-3.4-1-7.2-2.3-11-3.1c-5.7-1.2-10.7,0.4-14.5,5.1c-2.4,2.9-2.1,6.4,0.3,9c1.6,1.7,3.3,1.9,5.3,0.9c0.8-0.4,1.7-0.7,2.4-1.3
	c4.9-3.7,9.8-2.7,14.8-0.1c5.7,3,10.2,7.4,13.9,12.6c1.4,1.9,2.6,3.9,3.7,6c0.9,1.7,2.1,2.1,3.7,1.8c1.9-0.3,3.7-0.8,4.2-3
	c0.3-1.5,0.6-3.3,0.1-4.7c-2.9-9.3-6.8-18.2-13.7-25.3c-1.6-1.7-3.8-2.9-5.8-4c-1.4-0.8-2.4-1.4-2.7-3.2c-0.8-4-3.4-7-6.5-9.5
	c-3-2.3-6.1-4.4-8.9-6.4c5.1,0.3,10.5,3.5,14,8.4c1.6,2.3,3.3,4.6,5.1,6.7c0.7,0.9,1.7,1.7,2.8,2.1c0.9,0.3,2.2,0.3,2.9-0.1
	c0.5-0.4,0.9-1.9,0.6-2.5c-1.2-2.6-2.2-5.4-4.1-7.4c-6.4-6.6-13.1-12.9-19.6-19.4c-4.2-4.3-8.3-8.8-12.2-13.4
	c-4-4.6-8.9-7.8-14.4-10.3c-1.4-0.6-2.3-0.2-2.6,1.4c0,0.1-0.1,0.3-0.1,0.4c-0.5,4.3,4.6,14.2,8.5,16.1c1.5,0.7,3.2,1.1,5,1.8
	C571.7,744.8,570.5,751.7,576.2,758.2z M384.2,955.1c-2.5-1.1-4.3-0.4-6.4,1.1c-5,3.7-10.8,4.7-16.8,3c-3.9-1.1-6.1-0.6-8.8,3.2
	c-3.7,5.1-9,9.2-13.5,13.7c-1.7,1.7-3.4,3.4-4.9,5.2c-1.2,1.4-1.4,3.1-0.1,4.6c1.5,1.8,2.8,3.7,4.5,5.2c1.7,1.5,4,1.9,5.9,0.7
	c3.3-2,6.8-4,9.6-6.7c7.1-7,15.3-12.3,23.4-18c4.5-3.2,8.9-6.6,13.3-10c0-0.2,0.1-0.5,0.1-0.7C388.4,956,386.1,955.9,384.2,955.1z
	 M397.2,900.7c-6.9,0.9-12.9-0.9-17.9-5.8c-1.9-1.9-3.9-3.8-6.8-4c-1.4-0.1-2.9,0.3-4.2,0.8c-2.5,1-4.8,2.4-7.2,3.3
	c-3.8,1.4-4.6,4.4-1.5,7.2c3.7,3.4,8.3,5.3,12.9,6.7c4.5,1.4,9.2,2.2,13.8,3.5c3,0.8,6.2,1.5,9,2.9c2.4,1.2,4.4,1.1,6.6,0.1
	c3.5-1.7,6.9-3.6,8.8-7.1c2-3.7,0.8-6.4-3.3-7.4c-0.3-0.1-0.7-0.1-1-0.2c0-0.1,0-0.3,0-0.4C403.3,900.4,400.2,900.3,397.2,900.7z
	 M273.4,786.2c-1.3-1.9-2.7-3.9-4.2-5.8c-2-2.5-4.2-2.7-6-0.1c-1.9,2.7-3.4,5.8-4.7,8.8c-2.4,5.3-4.5,10.7-6.7,16
	c-0.1,0.3-0.2,0.7-0.3,1c-1.3,4.9,0.4,6.9,5.4,6.1c3.5-0.5,7-1.2,10.6-1.8C264.9,796.5,265.4,794.6,273.4,786.2z M343.9,909.1
	c-13.7-2.3-27.5-4.2-41.4-2.6c-4.7,0.6-9.3,2.1-13.9,3.3c-1.2,0.3-2.2,1.2-3.4,1.9c0.9,2.2,1.7,4.2,2.6,6.3c1.3-0.7,2.4-1.3,3.5-1.8
	c8.4-3.7,17.3-4.4,26.3-4.6c9.6-0.2,19,0.7,28.4,2.9c0.6,0.1,1.2,0.2,1.8,0.3C348.2,910.6,347.7,909.8,343.9,909.1z M350.7,920.9
	c-1.1-1.8-4.6-2.1-6.1-0.7c-5.6,5.5-12.5,8.6-19.8,10.9c-4.2,1.3-8.6,2.1-12.8,3.2c-0.7,0.2-1.3,0.3-2,0.4c0,0.3,0,0.5,0,0.8
	c2,0.2,4.1,0.5,6.1,0.7c11.8,0.8,22.9-2.5,33.8-6.4c1.6-0.6,3.3-1.2,5.1-1.9C353.3,925.3,352.1,923.1,350.7,920.9z M339.5,917.3
	c-4.5-0.5-9-1.1-13.6-1.5c-0.5-0.1-1.2,0.3-1.6,0.6c-6.7,5.9-14.7,9.3-23.3,11.1c-1.3,0.3-2.6,0.6-4.2,1c1.7,1.9,3.1,3.3,5.8,2.9
	c10.8-1.3,21.3-3.4,31-8.5c2.4-1.3,4.7-3,7-4.5c-0.1-0.2-0.2-0.5-0.2-0.7C340.1,917.5,339.8,917.3,339.5,917.3z M596.7,901.9
	c4.5,0,7.6-2.8,10.8-5.5c0.9-0.8,1.8-1.7,2.4-2.4c-4.1-0.9-8.3-1.8-12.4-2.6c-2.7-0.5-5.4-1.2-8-1.1c-5.1,0.4-9.6,2.8-14.5,5.6
	C582.4,899.1,589.2,901.9,596.7,901.9z M311.6,901.8c9.1,0.2,18.2,1,27.7,1.6c-2-0.9-3.8-1.7-5.5-2.5c-8.1-3.9-16.8-4.1-25.6-4.1
	c-7.7,0-15.3,1.5-22.9,2.6c-0.4,0.1-1.1,0.7-1.1,1.1c-0.1,2.1,0,4.1,0.1,6.6C293.2,903,302.3,901.6,311.6,901.8z M354.8,932.4
	c-10.6,4-21.5,7-32.9,7.4c-2,0.1-4.1,0-6.1,0c0,0.2-0.1,0.4-0.1,0.6c1.7,0.6,3.4,1.2,5.2,1.7c2.8,0.8,5.7,1.4,8.5,2.3
	c4.5,1.4,8.9,0.6,13.2-0.7c6.5-2,12.1-5.5,17.7-9.4C358.1,931.1,358.1,931.1,354.8,932.4z M576.1,905.2c3-0.4,3.7-2.6,1.7-4.9
	c-0.4-0.5-0.9-0.9-1.3-1.4c-1.5-1.7-3.1-2.2-5.5-1.4c-4.1,1.5-8.5,1.2-12.8,0.5c-2.4-0.4-4.7-1-7-1.5c-0.5-0.1-1-0.2-1.4-0.3
	c-1.7-0.1-3.6-0.5-4.5,1.4c-1,2.1,0.9,3.1,2.4,3.8c3.3,1.5,6.7,2.8,10,4.2C563.8,906.5,570,906,576.1,905.2z M632,851.3
	c3.6-10.9,2.8-21.8,0.5-32.8c-0.1-0.7-0.9-1.8-1.5-1.8c-0.9-0.1-2.2,0.3-2.6,1c-0.7,1.2-1.2,2.8-1.1,4.1c0.2,5.7,0.9,11.3,0.9,16.9
	c0,6.8-0.6,13.6-0.9,20.5c0,0.8-0.1,1.6-0.1,2.4c0.3,0.1,0.5,0.1,0.8,0.2C629.4,858.4,630.8,854.9,632,851.3z M356.8,917
	c3.5,8.3,9.1,14.8,16.2,20.2c1.3,1,2.7,2,4.2,2.8c0.5,0.3,1.3,0.2,2,0.3c-0.3-0.6-0.5-1.2-0.9-1.6c-2.2-2.4-4.6-4.7-6.7-7.2
	c-3.9-4.9-6-10.6-6.8-16.8c-0.2-1.9-1-2.8-2.9-3.1c-2.2-0.4-4.3-1.2-6.4-1.8c-0.2,0.2-0.4,0.3-0.6,0.5
	C355.5,912.5,355.9,914.9,356.8,917z M413.3,936.8c-2.7-1.5-5.4-3-8.2-4.4c-0.3-0.2-1.1,0-1.4,0.3c-5,4.7-10,9.4-14.9,14.2
	c-0.4,0.4-0.7,0.8-1.3,1.5C398.5,947.9,411,942.6,413.3,936.8z M374.5,928.3c3.2,4.6,7.4,8.2,12.2,11.1c1.6,1,3,1.1,3.8-1.1
	c-1.5-1.1-3-2.1-4.4-3.3c-3.3-2.9-5.1-6.8-6.9-10.7c-0.5-1.2-1.1-2.3-1.4-3.5c-1-4.6-4-6.5-8.8-6.7
	C369.7,919.4,371.6,924,374.5,928.3z M290.9,922.1c1.3,3.1,2.7,3.9,5.7,3.5c6.6-1,13-3,18.8-6.3c1.4-0.8,2.5-2,3.7-3
	c-0.2-0.2-0.3-0.4-0.5-0.6C309.4,915.2,295.4,917.9,290.9,922.1z M418.8,939.8c-0.5-0.2-1.7-0.1-2.1,0.4
	c-5.2,6.5-12.4,9.4-20.2,11.2c-0.8,0.2-1.6,0.4-2.5,0.6c-0.2,0-0.4,0.1-0.7,0.2c7.5,4.4,27-1.8,30.5-9.6
	C422.1,941.6,420.5,940.6,418.8,939.8z M379.9,947.7c-3.1-1.7-6.3-3.5-9.7-5.3c-3.4,4.7-7.9,8.1-13.8,10.4
	C366.5,956.5,376.6,954.2,379.9,947.7z M389,933.5c1,0.9,2.6,1.8,3.9,1.8c1.3,0,3.3-4.2,3.1-5.8c-0.1-0.8-0.3-1.7-0.8-2.4
	c-3.4-4.5-8.2-6.9-13.8-9C383,924.2,384.6,929.6,389,933.5z M347.8,950.3c7.2-0.5,13.2-3.5,17.9-9.1c0.4-0.5,0.6-1.8,0.3-2.1
	c-0.9-0.8-1.7-2.5-3.3-1.3c-6,4.5-12.6,7.9-20.1,10.4C344.1,950.2,346.1,950.4,347.8,950.3z"/>
<polygon class="st0" points="1477,557.3 1477,1497.3 1440.9,1509 1394.5,1526.9 1348.8,1546.9 1331.7,1555.6 1315.1,1564.6 
	1298.5,1574.1 1282,1584.7 1265.9,1595.3 1250.2,1607.5 1235,1620.2 1220.5,1634.6 1200.7,1632.9 1200.8,1620.7 1202.7,1609.9 
	1206.1,1599.5 1210.8,1589.4 1216.1,1579.6 1222.1,1570 1228.1,1561.1 1234.7,1552.1 1244.5,1539.6 1254.9,1527.7 1266.1,1515.2 
	1277.3,1503.6 1289,1491.7 1300.9,1480.9 1313.4,1470.7 1326.8,1461.5 1326.2,1451.9 1325.6,1442.4 1325,1432.3 1324.2,1422.7 
	1322.8,1413.1 1321.2,1403.5 1318.2,1394.6 1315.1,1386.2 1296.7,1389.8 1277.4,1394.4 1257.8,1398.5 1238.6,1401.3 1219,1401.3 
	1200.3,1398.8 1182.4,1391.6 1166,1379.9 1163.3,1376.3 1160.5,1372.8 1157.8,1369.5 1155.6,1366.2 1153.4,1362.6 1151.7,1359.1 
	1150,1355.3 1149.4,1351.6 1151.5,1340.8 1155.2,1330.4 1159.7,1320 1164.7,1310.2 1167.6,1300 1168.3,1289.9 1165.6,1280.3 
	1158.7,1270.6 1154.6,1267.8 1150.2,1264.9 1145.6,1262 1141.5,1259.2 1137.7,1255.6 1135,1251.7 1133.9,1246.9 1134.7,1241.6 
	1137.2,1238.6 1140.3,1235.5 1142.8,1232.5 1145.3,1229.7 1147.9,1226.6 1150.9,1224.1 1153.9,1221.9 1157.5,1220 1152.6,1216.5 
	1147.4,1213.6 1141.5,1210.4 1136.1,1207 1131.5,1203 1128.3,1198.7 1127.3,1193 1128.6,1186.8 1130.7,1181.6 1133.9,1177.2 
	1137.5,1173.1 1141.4,1169.1 1144.3,1164.5 1146.1,1160.1 1146.4,1154.8 1144.8,1149.4 1136.4,1146.8 1128.3,1145.4 1119.9,1143.9 
	1111.7,1142.5 1103.6,1140.2 1096.4,1137.2 1090,1132.6 1084.4,1126.5 1085,1116 1094,1100 1103,1084 1112.2,1068.3 1122.8,1053.2 
	1133.3,1037.5 1144.9,1023.2 1157.5,1008.5 1171.2,995.1 1169,990.2 1166.3,986.7 1162.7,983.8 1159.1,981.3 1155.3,978.4 
	1151.7,975.3 1148.8,971.5 1147.1,967.2 1146.2,963.7 1146.7,960.3 1147.6,957.4 1149.3,954.6 1150.8,951.5 1152.8,948.6 
	1154,945.2 1155,942.1 1154.8,929.9 1154.8,918 1154.4,905.5 1153.7,893.6 1152.6,881.3 1151.7,869.1 1149.9,857.1 1148,845.6 
	1140.2,839.1 1133.4,832.1 1127.7,823.9 1123.6,815.7 1120,806.8 1118.1,797.7 1117,787.9 1116.9,778.3 1123.2,752.4 1135,728.8 
	1151.1,707.7 1170.6,688.2 1191.4,670.1 1213.9,653.5 1236.2,637.9 1257.5,623 1285.2,610.6 1313.5,599.6 1341.9,589 1371.2,579.3 
	1400.5,571 1430.5,564 1460.8,558.8 "/>
<g>
	<path class="st13" d="M1584.3,195.6h-127c-63.3,0-116.6,52.8-116.6,116.2v7.7c0,63.4,53.2,112.8,116.6,112.8h41.1l-25.8,68.2
		l98.2-68.2h13.5c63.3,0,114.8-49.4,114.8-112.8v-7.7C1699.2,248.4,1647.7,195.6,1584.3,195.6z"/>
	<g>
		<path class="st16" d="M1457.3,432.2h41.1l-25.8,68.2l98.2-68.2h13.5c62.6,0,112.5-47.8,113.6-112.4h-354.7
			C1344.3,384.4,1394.7,432.2,1457.3,432.2z"/>
	</g>
	<ellipse class="st2" cx="1430.7" cy="322" rx="25.5" ry="25.5"/>
	<path class="st2" d="M1546.1,322c0,14.1-11.4,25.5-25.5,25.5c-14.1,0-25.5-11.4-25.5-25.5c0-14.1,11.4-25.5,25.5-25.5
		C1534.7,296.5,1546.1,307.9,1546.1,322z"/>
	<path class="st2" d="M1636,322c0,14.1-11.4,25.5-25.5,25.5c-14.1,0-25.5-11.4-25.5-25.5c0-14.1,11.4-25.5,25.5-25.5
		C1624.5,296.5,1636,307.9,1636,322z"/>
</g>
<g>
	<path class="st6" d="M402.3,195.1h127c63.3,0,115.2,51,115.2,114.3v7.7c0,63.4-51.9,113.6-115.2,113.6h-41.1L514,499l-98.2-68.2
		h-13.5c-63.3,0-114.6-50.3-114.6-113.6v-7.7C287.7,246.1,338.9,195.1,402.3,195.1z"/>
	<g>
		<g>
			<path class="st2" d="M529.3,432.2h-41.1l25.8,68.2l-98.2-68.2h-13.5c-62.6,0-112.5-50.2-113.6-114.7h354.7
				C642.3,382,591.9,432.2,529.3,432.2z"/>
		</g>
	</g>
	<ellipse class="st10" cx="556" cy="319.7" rx="25.5" ry="25.5"/>
	<ellipse class="st10" cx="466.1" cy="319.7" rx="25.5" ry="25.5"/>
	<ellipse class="st10" cx="376.2" cy="319.7" rx="25.5" ry="25.5"/>
</g>
<path class="st1" d="M1140,394.4l60.3,2.1l-57-25.1l-0.9-1.6l55.6-13l-48.2-10.2l-1.4-0.3l107.5-30.9l-109.8,4.9l54.4-26.2l-62,4.2
	l-1.4-1.2l43.6-36.8l-49.2,13.6l80.8-77.5l-94.5,55.1l36-48.4l-52.9,32.8l-3.3-2l20.4-53.3l-36.7,35.1l17.2-53.2l17.2-53.2l-57.1,94
	l8.2-59.9l-30.9,53.8l-2.1,0.6l-6.2-56.6l-16,48.2L992.8,79.1l-6.6,109.5l-20.6-57.1l-2.4,62.3l-1.6,1.3l-32-47.2l8.2,50.5l-68-89.1
	l44.9,100.4l-44.4-41.3l26.7,56.5l-1,1.8l-50.3-27.5l30.5,41.1l-101.3-47.4l86.3,68.3l-58.6-15.9l49.7,37.2l0.5,2.1l-57.2-0.8
	l45.7,22.2l-111.5,4.9l107.7,20.7l-58.9,12.8l61.3,10.4l0.9,1.2l-50.9,26.1l50.9-1.9l-96.4,56.5l105.1-31.9L803,443.9l59.2-19.6
	l1.8,1.2L831,471.9l44.1-25.3l-59.5,95.1l78-76.9l-22.7,55.7l25.4-26.1v-3.8l-17.1,17.4l17.1-42c0.5-1.3,0.1-2.7-1.1-3.5
	c-0.5-0.3-1.1-0.5-1.7-0.5c-0.7,0-1.4,0.3-2,0.8l-60.4,59.6l46.4-74.1c0.7-1.1,0.5-2.6-0.4-3.5c-0.6-0.6-1.4-0.9-2.1-0.9
	c-0.5,0-1,0.1-1.4,0.4L841,462.8l25.3-35.6c0.5-0.6,0.6-1.4,0.5-2.2c-0.1-0.8-0.6-1.4-1.2-1.9l-1.8-1.2c-0.5-0.3-1.1-0.5-1.7-0.5
	c-0.3,0-0.6,0-0.9,0.1l-44.8,14.9l35-29.4c1.1-0.9,1.3-2.4,0.7-3.6c-0.5-1-1.5-1.5-2.6-1.5c-0.2,0-0.5,0-0.8,0.1l-81.6,24.8
	l75.2-44.1c1.1-0.7,1.7-2.1,1.3-3.4c-0.4-1.3-1.5-2.1-2.8-2.1h-0.1l-37.9,1.5l39.3-20.1c0.8-0.4,1.3-1.1,1.5-1.9
	c0.2-0.8,0-1.7-0.5-2.4l-0.9-1.2c-0.4-0.6-1.1-1-1.8-1.1l-46.6-7.9l44.3-9.7c1.3-0.3,2.3-1.5,2.3-2.9c0-1.4-1-2.6-2.3-2.8
	l-83.5-16.1l86.9-3.8c1.3,0,2.4-1,2.7-2.3c0.3-1.3-0.4-2.6-1.6-3.2l-33.9-15.8l44.2,1.2h0.1c0.9,0,1.7-1.1,2.2-1.8
	c0.5-0.7,0.7-2,0.5-2.8l-0.5-2.2c-0.2-0.6-0.5-1.3-1.1-1.7l-37.6-28.2l44,11.9c0.3,0.1,0.5,0.1,0.8,0.1c1.1,0,2.1-0.6,2.5-1.6
	c0.6-1.2,0.3-2.7-0.8-3.6L796.2,206l78.8,36.9c0.4,0.2,0.8,0.3,1.3,0.3c0.8,0,1.6-0.4,2.2-1.1c0.8-1,0.9-2.5,0.1-3.6L855.9,208
	l38.7,21.1c0.5,0.3,0.9,0.4,1.4,0.4c1,0,1.9-0.5,2.5-1.4l1-1.8c0.5-0.8,0.5-1.8,0.1-2.7l-20.3-42.9l33.4,31c0.6,0.5,1.3,0.8,2,0.8
	c0.6,0,1.1-0.2,1.6-0.5c1.1-0.8,1.5-2.3,1-3.5l-34.7-77.7l52.9,69.3c0.6,0.8,1.4,1.2,2.4,1.1c0.4,0,0.7-0.1,1.1-0.2
	c1.2-0.5,1.9-1.8,1.7-3.1l-6.1-37.5l24.6,36.3c0.5,0.7,1.2,1.1,2,1.2c0.2,0,0.3,0,0.5,0c0.6,0,1.3-0.2,1.8-0.6l1.6-1.2
	c0.6-0.5,1.1-1.3,1.1-2.2l1.9-47.5l15.6,43.1c0.4,1.2,1.6,1.9,2.8,1.9c0.1,0,0.3,0,0.4,0c1.4-0.2,2.4-1.3,2.5-2.7l5.1-84.7l14.9,85
	c0.2,1.3,1.3,1.6,2.6,1.6h0.2c1.2,0,2.3,0,2.7-1.2l11.8-35.2l4.8,43.6c0.1,0.8,0.5,1.7,1.2,2.2c0.5,0.3,1.1,0.6,1.7,0.6
	c0.2,0,0.5,0,0.7-0.1l2.1-0.5c0.8-0.2,1.4-0.7,1.8-1.4l23.5-40.9L1056,203c-0.2,1.4,0.6,2.7,1.9,3.1c0.3,0.1,0.7,0.2,1,0.2
	c1,0,1.9-0.5,2.4-1.4l44.2-72.8l-26.8,82.8c-0.4,1.3,0.1,2.7,1.2,3.4c0.5,0.3,1,0.4,1.6,0.4c0.7,0,1.4-0.3,2-0.8l27.4-26.2
	l-15.8,41.3c-0.5,1.3,0,2.8,1.2,3.5l3.3,2c0.5,0.3,1,0.4,1.6,0.4c0.5,0,1-0.2,1.5-0.4l40-24.8l-26.9,36.1c-0.8,1.1-0.8,2.6,0.2,3.7
	c0.6,0.6,1.4,1,2.2,1c0.5,0,1-0.1,1.4-0.4l73.4-42.8l-63.2,60.6c-1,0.9-1.2,2.4-0.5,3.5c0.5,0.9,1.5,1.5,2.6,1.5
	c0.2,0,0.5,0,0.7-0.1l36.4-10.1l-33.5,28.3c-0.7,0.5-1,1.4-1,2.2c0,0.8,0.4,1.7,1,2.2l1.4,0.9c0.5,0.5,1.2,0.4,1.9,0.4h0.1l47-2.9
	l-40.9,19.8c-1.2,0.6-1.9,1.5-1.6,2.9c0.3,1.3,1.5,1.7,2.9,1.7h0.1l85.4-3.3l-84,24.4c-1.3,0.4-2.2,1.7-2.1,3c0,1.3,1,2.5,2.3,2.8
	l36.7,7.8l-42.9,10c-0.9,0.2-1.6,0.8-2,1.7c-0.4,0.8-0.3,1.8,0.1,2.6l0.9,1.6c0.3,0.5,0.8,1,1.4,1.2l43.2,19.1l-45.3-1.5h-0.1
	c-1.3,0-2.5,0.9-2.8,2.2c-0.3,1.4,0.3,2.7,1.6,3.3l77.2,36.2l-85.6-17.7c-0.2,0-0.4-0.1-0.6-0.1c-1.1,0-2.1,0.6-2.6,1.6
	c-0.6,1.2-0.3,2.6,0.7,3.5L1157,445l-42.2-11.3c-0.3-0.1-0.5-0.1-0.8-0.1c-1.2,0-2.4,0.8-2.7,2.1l-0.5,1.7c-0.3,0.9,0,1.9,0.5,2.6
	l29.4,37l-39.7-22.4c-0.5-0.3-1-0.4-1.5-0.4c-0.8,0-1.6,0.4-2.1,1c-0.9,1-0.9,2.6-0.1,3.7l51.5,67.3l-67.2-54.9
	c-0.5-0.5-1.2-0.7-1.9-0.7c-0.6,0-1.2,0.2-1.7,0.6c-1.1,0.8-1.5,2.2-1,3.4l14.4,34.8l-18.7-17.1l-0.5,3.5l26.8,24.6l-19.4-46.8
	l86.4,70.6l-66.6-87l52.6,29.7l-38.6-48.7l0.5-1.7l54.8,14.7l-39.1-32.8l109.7,22.6L1140,394.4z"/>
<path class="st14" d="M1121.7,339.7c0-74.6-60.4-135.1-135-135.1c-74.6,0-135,60.5-135,135.1c0,52.8,30.3,98.6,74.5,120.8v30.9
	c0,7.3,5.7,13.3,12.8,13.3h99.7c7.1,0,12.8-5.9,12.8-13.3v-33.1C1093.3,435.2,1121.7,390.8,1121.7,339.7z"/>
<path class="st5" d="M991.9,204.1v297.4h-52.2c-4,0-7.5-0.6-9.9-3.6c0,0-0.1,0.5-0.1,0.4c-1.1-1.4-2.2-2.8-2.6-4.6
	c0,0-0.7,0.1-0.7,0.1c-0.3-1-1.3-1.9-1.3-3v-30.9c-45.4-22.2-73.4-68-73.4-120.8c0-74.6,61.4-135.1,136-135.1
	C988.7,204.1,991.9,204.1,991.9,204.1z"/>
<rect x="926.2" y="472.2" class="st16" width="125" height="122.4"/>
<path class="st11" d="M919.9,590.3c4.9,25.3,33.7,44.7,68.5,44.7c34.8,0,63.6-19.4,68.5-44.7H919.9z"/>
<path class="st11" d="M1073.5,483.4c0,6.2-6.9,11.2-15.5,11.2H919.9c-8.5,0-15.5-5-15.5-11.2l0,0c0-6.2,6.9-11.2,15.5-11.2h138.2
	C1066.6,472.2,1073.5,477.2,1073.5,483.4L1073.5,483.4z"/>
<path class="st11" d="M1072.9,520.9c0,6.2-6.9,11.2-15.5,11.2H919.3c-8.5,0-15.5-5-15.5-11.2l0,0c0-6.2,6.9-11.2,15.5-11.2h138.2
	C1066,509.7,1072.9,514.7,1072.9,520.9L1072.9,520.9z"/>
<path class="st11" d="M1074.4,560.6c0,6.2-6.9,11.2-15.5,11.2H920.7c-8.5,0-15.5-5-15.5-11.2l0,0c0-6.2,6.9-11.2,15.5-11.2h138.2
	C1067.5,549.4,1074.4,554.5,1074.4,560.6L1074.4,560.6z"/>
<path class="st11" d="M1034.1,333.5c0.3-0.4,0.5-0.9,0.5-1.4c0-1.2-1-2.3-2.2-2.3c-4,0-5.8,3.2-7.3,5.8c-1.3,2.2-2.1,3.5-3.3,3.5
	c-1.3,0-2.1-1.4-3.3-3.6c-1.4-2.6-3.2-5.9-7.2-5.9l0,0c-4,0-5.8,3.2-7.3,5.8c-1.3,2.2-2.1,3.5-3.3,3.5c-1.3,0-2.1-1.4-3.3-3.6
	c-1.4-2.6-3.2-5.9-7.2-5.9c-4,0-5.8,3.2-7.3,5.8c-1.3,2.2-2.1,3.5-3.3,3.5c-1.3,0-2.1-1.4-3.3-3.6c-1.4-2.6-3.2-5.9-7.2-5.9
	c-4,0-5.8,3.2-7.3,5.8c-1.3,2.2-2.1,3.5-3.3,3.5c-1.3,0-2.1-2-3.3-4.2c-1.4-2.6-3.2-6.5-7.2-6.5h0h0h0c-1.2,0-2.2,1.6-2.2,2.8
	c0,0.5,0.2,1.3,0.5,1.7c2.1,5.2,18.2,45,22.5,85.8c3.2,30.1-1.6,69.5-1.6,69.9c-0.1,0.6,0.1,1.2,0.4,1.6c0.4,0.5,0.9,0.6,1.4,0.7
	l0.1-0.1h0.2c1.1,0,2-0.7,2.1-1.7c0-0.4,4.9-40.1,1.6-70.8c-3.3-30.8-13.2-61-18.9-76.5c1.1,1,2.4,1.8,4.3,1.8c4,0,5.8-3.2,7.3-5.8
	c1.3-2.2,2.1-3.5,3.3-3.5c1.3,0,2.1,1.4,3.3,3.6c1.4,2.6,3.2,5.9,7.2,5.9c4,0,5.8-3.2,7.3-5.8c1.3-2.2,2.1-3.5,3.3-3.5
	c1.3,0,2.1,1.4,3.3,3.6c1.4,2.6,3.2,5.9,7.2,5.9c4,0,5.8-3.2,7.3-5.8c1.3-2.2,2.1-3.5,3.3-3.5c1.3,0,2.1,1.4,3.3,3.6
	c1.4,2.6,3.2,5.9,7.2,5.9c2,0,3.4-0.8,4.5-1.9c-5.7,15.4-15.8,45.5-19.5,76.5c-3.9,32.9-0.8,70.1-0.8,70.5c0.1,1.1,1,1.7,2.1,1.7
	h0.1l0.1,0.3c0.6,0,1.1-0.2,1.5-0.6c0.4-0.4,0.5-0.9,0.5-1.5c0-0.4-3-37.5,0.8-69.9C1015.9,378,1032,338.6,1034.1,333.5z
	 M1030.4,335.7L1030.4,335.7c-0.1,0.2-0.1,0.4-0.2,0.6C1030.2,336.1,1030.3,335.9,1030.4,335.7z M1030.1,332.1L1030.1,332.1
	c-1.5,0.9-2.5,2.6-3.5,4.3c-0.1,0.2-0.2,0.4-0.3,0.5c0.1-0.2,0.2-0.3,0.3-0.5C1027.5,334.7,1028.5,333,1030.1,332.1z M1028.8,335.1
	c-0.1,0.1-0.1,0.2-0.2,0.3C1028.6,335.3,1028.7,335.2,1028.8,335.1z M1028.3,335.9c-0.2,0.4-0.5,0.8-0.7,1.2
	C1027.8,336.6,1028.1,336.3,1028.3,335.9z M1026.9,338.3c-0.1,0.2-0.2,0.4-0.3,0.5C1026.6,338.7,1026.7,338.5,1026.9,338.3z
	 M1021.8,340.8L1021.8,340.8L1021.8,340.8c-0.6,0-1.1-0.1-1.5-0.4C1020.7,340.6,1021.2,340.8,1021.8,340.8z M1003.4,339.3
	c-0.7,0.8-1.6,1.3-2.7,1.3l0,0C1001.8,340.6,1002.7,340.1,1003.4,339.3z M1000.7,340.7C1000.7,340.7,1000.7,340.7,1000.7,340.7
	C1000.7,340.7,1000.7,340.7,1000.7,340.7c-1.4,0-2.4-0.9-3.3-2C998.2,339.8,999.2,340.7,1000.7,340.7z M988.2,331.5
	c-0.6,0.3-1.1,0.7-1.5,1.1C987.1,332.2,987.6,331.8,988.2,331.5z M981.1,340c-0.5,0.2-1,0.4-1.5,0.4l0,0
	C980.1,340.4,980.6,340.3,981.1,340z M978,340c-0.7-0.4-1.2-0.9-1.7-1.7C976.8,339.1,977.4,339.6,978,340z M972.6,332.5
	c-0.9-1-2-1.6-3.5-1.6c0,0,0,0,0,0c0,0,0,0,0,0C970.6,330.9,971.7,331.6,972.6,332.5z M969,330.9L969,330.9c-0.7,0-1.4,0.2-2,0.4
	C967.6,331,968.3,330.9,969,330.9z M953.7,334.2c1.2,2.3,0.5,4.5,2.8,4.5c0,0,1.9-1.7,1.9-1.7c0,0,0,0,0,0
	C956.2,337,955,336.4,953.7,334.2 M962.1,375.2c-1.3-4.8-2.6-9.3-3.9-13.5C959.5,365.9,960.8,370.4,962.1,375.2
	c3.5,13.1,6.7,28,8.3,43c1,9.5,1.2,19.9,1.1,29.7c0,2-0.1,3.9-0.1,5.8c0.1-1.9,0.1-3.8,0.1-5.8c0.2-9.8-0.1-20.2-1.1-29.7
	C968.8,403.1,965.6,388.3,962.1,375.2z M969.2,488.9L969.2,488.9c0.1,0,0.2,0,0.3-0.1C969.4,488.9,969.3,488.9,969.2,488.9
	C969.2,488.9,969.2,488.9,969.2,488.9z M969.8,488.5c0,0.1-0.1,0.2-0.2,0.3C969.7,488.7,969.7,488.6,969.8,488.5
	c0-0.1,0.1-1.1,0.3-2.9C969.9,487.4,969.8,488.4,969.8,488.5z M970.2,484.5c0.1-0.8,0.2-1.8,0.3-2.9
	C970.4,482.7,970.3,483.6,970.2,484.5z M951.5,334.4c0.1,0.1,0.1,0.2,0.2,0.3C951.7,334.6,951.6,334.5,951.5,334.4L951.5,334.4z
	 M958.4,341.4c-1.1,0-2-0.4-2.8-1C956.4,341,957.3,341.4,958.4,341.4C958.4,341.4,958.5,341.4,958.4,341.4L958.4,341.4
	C958.5,341.4,958.4,341.4,958.4,341.4z M965.8,334.1c-0.3,0.5-0.7,1-1,1.5c-0.2,0.3-0.3,0.5-0.5,0.8c-0.3,0.6-0.7,1.2-1.1,1.8
	c0.4-0.6,0.7-1.2,1.1-1.8c0.2-0.3,0.3-0.6,0.5-0.8C965.1,335.1,965.4,334.6,965.8,334.1c0.3-0.5,0.7-0.9,1.1-1.2
	C966.5,333.2,966.1,333.6,965.8,334.1z M969,332.1L969,332.1c-0.3,0-0.5,0-0.8,0.1C968.5,332.1,968.8,332.1,969,332.1z M971.8,333.5
	c-0.4-0.4-0.8-0.8-1.2-1C971,332.7,971.4,333.1,971.8,333.5c0.7,0.8,1.3,1.9,2,3.1C973.1,335.4,972.5,334.3,971.8,333.5z
	 M979.5,341.6c-0.4,0-0.7,0-1.1-0.1C978.8,341.6,979.2,341.6,979.5,341.6C979.6,341.6,979.6,341.6,979.5,341.6L979.5,341.6
	C979.6,341.6,979.6,341.6,979.5,341.6z M981.5,341.2c0.6-0.3,1.1-0.7,1.5-1.1C982.6,340.5,982.1,340.9,981.5,341.2z M983.7,339.3
	c0.4-0.5,0.8-1.1,1.1-1.7C984.5,338.2,984.1,338.8,983.7,339.3z M994.9,336.8c-1.2-2.3-2.4-4.4-4.7-4.4c0,0,0,0,0,0c0,0,0,0,0,0
	C992.5,332.4,993.6,334.5,994.9,336.8c0.5,0.9,1,1.9,1.6,2.7C995.9,338.7,995.4,337.7,994.9,336.8z M1000.7,341.8
	C1000.7,341.8,1000.7,341.8,1000.7,341.8L1000.7,341.8C1000.7,341.8,1000.7,341.8,1000.7,341.8z M1011.3,332.4
	C1011.3,332.4,1011.3,332.4,1011.3,332.4c-1,0-1.8,0.4-2.5,1.1C1009.5,332.8,1010.3,332.4,1011.3,332.4
	C1011.3,332.4,1011.3,332.4,1011.3,332.4c2,0,3.1,1.7,4.2,3.6C1014.4,334.1,1013.3,332.4,1011.3,332.4z M1021.8,340.7
	c-1.1,0-2,0.3-2.8-0.3c0.8,0.6,1.7,1.3,2.8,1.3c0.2,0,0.4-0.5,0.6-0.6C1022.2,341.1,1022,340.7,1021.8,340.7
	C1021.8,340.7,1021.8,340.7,1021.8,340.7z M1024.2,341.3c-0.2,0.1-0.3,0.2-0.5,0.3C1023.9,341.5,1024.1,341.4,1024.2,341.3z
	 M1023.3,341.7c-0.2,0.1-0.3,0.1-0.5,0.2C1023,341.9,1023.2,341.8,1023.3,341.7z M1024.6,341.1c0.1-0.1,0.3-0.2,0.4-0.4
	C1024.8,340.8,1024.7,341,1024.6,341.1z M1025.3,340.5c0.1-0.1,0.3-0.3,0.4-0.4C1025.5,340.2,1025.4,340.3,1025.3,340.5z
	 M1026.3,339.2c-0.1,0.2-0.2,0.4-0.4,0.5C1026.1,339.5,1026.2,339.4,1026.3,339.2z M1028.2,341.3c-0.7,1.9-1.6,4.2-2.4,6.6
	C1026.6,345.4,1027.5,343.2,1028.2,341.3z M1024.9,350.4c-0.9,2.6-1.9,5.4-2.8,8.5C1023,355.9,1024,353,1024.9,350.4z M1007.6,488.8
	c0,0.1,0.1,0.3,0.2,0.3C1007.7,489.1,1007.7,489,1007.6,488.8z M1008.2,489.3c-0.1,0-0.1,0-0.2-0.1
	C1008,489.3,1008.1,489.3,1008.2,489.3L1008.2,489.3C1008.2,489.3,1008.2,489.3,1008.2,489.3z"/>
<polygon class="st8" points="1622.2,645.3 1644.5,649 1667,656 1688.5,665.8 1709.1,677.9 1728,692.4 1745.4,709.1 1760.9,727.9 
	1773.9,749 1784.5,770.9 1793.9,794.7 1801.7,819.2 1807.4,844.7 1809.6,870 1808.1,895.3 1802.1,920.2 1791.3,945.1 1781,965.3 
	1767.6,984.8 1751.9,1002.6 1733.9,1018.9 1713.9,1032.5 1692.9,1043.6 1671.1,1051.8 1649.1,1056.6 1614.6,1062.8 1579.5,1067.2 
	1543.4,1068.6 1507.4,1067.6 1471.5,1064.3 1436.3,1058.3 1402.3,1050.3 1369.9,1040.5 1344.6,1031.8 1320,1020.5 1296.3,1006.6 
	1274.4,990.5 1254.3,971.7 1237.6,950.7 1223.9,927.5 1214.6,902.2 1208,880.6 1204.3,858.7 1203,835.6 1204.7,812.9 1209,790.3 
	1216.6,769 1227.4,749.6 1241.7,732.6 1253.8,718.3 1267.6,707.3 1282.6,698.3 1298.6,690.6 1314.9,683.7 1331.9,677.6 
	1348.3,671.3 1364.6,664.2 1384.3,656.6 1403.9,650.7 1424,646.1 1444.3,642.4 1464.3,639.4 1485.1,637.5 1506.1,635.6 
	1527.9,634.3 1539.2,635.6 1551.4,636.5 1563.3,636.8 1575.7,637.4 1587.3,638 1599.2,639.4 1611,641.6 1622.2,645.3 "/>
<path class="st7" d="M1709.5,778.5l-19,0.9c-3.1-11.3-7.9-21.2-13.9-29.9l0-0.6l12.7-14.3c2.8-3.1,2.6-8.1-0.5-10.9l-24.5-22.2
	c-3.1-2.8-8-2.6-10.8,0.5l-13.5,14.1c-9.6-5.2-19.4-8.8-31-10.6l0-0.1l-0.9-19c-0.2-4.2-2.2-5.8-6.4-5.6l-33,1.6
	c-4.2,0.2-6.5,2-6.3,6.2l0.9,19c-11.3,3.1-20.7,7.8-29.4,13.9l-0.3,0l-14.2-12.8c-3.1-2.8-8-2.6-10.9,0.5l-22.2,24.5
	c-2.8,3.1-2.6,8,0.5,10.8l14.1,13.7c-5.2,9.6-8.8,19.6-10.6,31.2l-0.1,0l-19,0.9c-4.2,0.2-6.8,1.9-6.6,6.1l1.6,33
	c0.2,4.2,3,6.8,7.2,6.6l19-0.9c3.1,11.3,7.8,20.6,13.9,29.3l0,0.2l-12.7,14.2c-2.8,3.1-2.6,8,0.5,10.8l24.5,22.2
	c3.1,2.8,8,2.6,10.8-0.5l13.2-14.1c9.6,5.2,19.1,8.8,30.7,10.6l0,0.1l0.9,19c0.2,4.2,2.9,7.1,7.1,6.9l33-1.6
	c4.2-0.2,5.8-3.3,5.6-7.5l-0.9-19c11.3-3.1,21-7.9,29.8-13.9l0.5,0l14.3,12.7c3.1,2.8,8.1,2.6,10.9-0.5l22.2-24.5
	c2.8-3.1,2.6-8-0.5-10.8l-14.1-13c5.2-9.6,8.8-19,10.7-30.5l0.1,0l19-0.9c4.2-0.2,6.1-3.2,5.9-7.4l-1.6-33
	C1715.8,779.6,1713.8,778.3,1709.5,778.5z M1574.6,851.2c-0.5-0.2-0.9-0.4-1.4-0.6c-1.4-0.6-2.8-1.3-4.1-2c-0.7-0.4-1.3-0.7-2-1.1
	c-0.7-0.4-1.3-0.8-1.9-1.2c-0.3-0.2-0.6-0.4-0.9-0.7c-1.8-1.3-3.5-2.7-5.1-4.2c-1.6-1.5-3.1-3.1-4.5-4.8c-0.6-0.7-1.1-1.4-1.6-2.1
	c-1.5-2.2-2.9-4.4-4.1-6.9c-2.7-5.6-4.4-11.9-4.7-18.5c-0.7-13.9,4.7-26.8,13.8-35.9c0.8-0.8,1.6-1.6,2.5-2.3
	c0.3-0.3,0.6-0.5,0.9-0.7c0.6-0.5,1.2-1,1.8-1.4c1.8-1.4,3.8-2.6,5.8-3.7c0.7-0.4,1.4-0.7,2.1-1.1c5.6-2.7,11.7-4.3,18.3-4.6
	c7.8-0.4,15.2,1.1,21.9,4.1c0.7,0.3,1.4,0.6,2.1,1c1,0.5,2,1.1,3,1.7c0.7,0.4,1.3,0.8,1.9,1.2c0.3,0.2,0.6,0.4,0.9,0.7
	c0.6,0.4,1.2,0.9,1.8,1.4c0.9,0.7,1.8,1.4,2.6,2.2c0.6,0.5,1.1,1,1.7,1.6c1.3,1.3,2.6,2.8,3.8,4.3c0.5,0.6,0.9,1.2,1.4,1.8
	c0.4,0.6,0.9,1.3,1.3,1.9c0.6,1,1.2,2,1.8,3c3.3,6.1,5.3,13,5.7,20.4c0.2,4.1-0.1,8.1-0.9,12c-0.2,0.8-0.3,1.5-0.5,2.3
	c-0.3,1.1-0.6,2.3-1,3.4c-0.2,0.7-0.5,1.5-0.8,2.2c-0.2,0.5-0.4,1-0.6,1.4c-0.4,0.9-0.8,1.9-1.3,2.8c-0.3,0.7-0.7,1.4-1.1,2
	c-0.3,0.5-0.6,1-0.9,1.6c-0.3,0.5-0.6,0.9-0.9,1.4c-0.2,0.3-0.4,0.6-0.7,0.9c-0.4,0.6-0.9,1.2-1.4,1.8c-0.2,0.3-0.5,0.6-0.7,0.9
	c-0.5,0.6-1,1.2-1.5,1.7c-0.3,0.3-0.5,0.6-0.8,0.8c-1,1.1-2.2,2.2-3.3,3.2c-0.3,0.3-0.6,0.5-0.9,0.7c-0.6,0.5-1.2,1-1.8,1.4
	c-0.6,0.5-1.2,0.9-1.9,1.3c-0.3,0.2-0.6,0.4-1,0.6c-0.6,0.4-1.3,0.8-2,1.2c-6.3,3.6-13.6,5.9-21.4,6.3c-6.3,0.3-12.3-0.6-17.9-2.5
	C1575.6,851.6,1575.1,851.4,1574.6,851.2z"/>
</svg>
