<?xml version="1.0" encoding="utf-8"?>
<!-- Generator: Adobe Illustrator 16.0.0, SVG Export Plug-In . SVG Version: 6.00 Build 0)  -->
<!DOCTYPE svg PUBLIC "-//W3C//DTD SVG 1.1//EN" "http://www.w3.org/Graphics/SVG/1.1/DTD/svg11.dtd">
<svg version="1.1" id="Layer_1" xmlns="http://www.w3.org/2000/svg" xmlns:xlink="http://www.w3.org/1999/xlink" x="0px" y="0px"
	 width="2000px" height="2000px" viewBox="0 0 2000 2000" style="enable-background:new 0 0 2000 2000;" xml:space="preserve">
<style type="text/css">
<![CDATA[
	.st0{fill-rule:evenodd;clip-rule:evenodd;fill:#E45957;}
	.st1{fill-rule:evenodd;clip-rule:evenodd;fill:#1F8AC2;}
	.st2{fill-rule:evenodd;clip-rule:evenodd;fill:#218CC3;}
	.st3{fill-rule:evenodd;clip-rule:evenodd;fill:#263339;}
	.st4{fill-rule:evenodd;clip-rule:evenodd;fill:#FCB04D;}
	.st5{fill-rule:evenodd;clip-rule:evenodd;fill:#FDB64D;}
	.st6{fill-rule:evenodd;clip-rule:evenodd;fill:#FDF9F9;}
	.st7{fill-rule:evenodd;clip-rule:evenodd;fill:#FDFCFB;}
	.st8{fill-rule:evenodd;clip-rule:evenodd;fill:#FEB64D;}
	.st9{fill-rule:evenodd;clip-rule:evenodd;fill:#65BC71;}
	.st10{fill-rule:evenodd;clip-rule:evenodd;fill:#68B76F;}
]]>
</style>
<g>
	<path class="st1" d="M1990.5,913.3c0,57,0,114,0,171c-2.9,0.9-3.7,3.2-3.8,5.9c-0.3,30.1-6.3,59.3-11.1,88.9
		c-14.7,90.1-43.7,175.4-83.2,257.1c-37.5,77.4-84.5,148.7-141.6,213.5c-54.4,61.8-113.8,117.6-180.8,165.3
		c-69.5,49.4-144.3,89.1-224,118.6c-69.3,25.7-140.9,43.8-214.6,53.1c-15.8,2-32.9-1.9-47.8,6.9c-56.8,0-113.7,0-170.5,0
		c-0.9-2.9-3.1-3.7-5.9-3.8c-30-0.3-59.2-6.3-88.6-11.2c-89.8-14.8-175-43.8-256.4-83.4c-77.2-37.6-148.3-84.7-212.9-142
		c-61.6-54.6-117.3-114.1-164.9-181.3C135,1502.2,95.4,1427.2,66,1347.3c-25.6-69.5-43.6-141.2-53-215.1c-2-15.8,1.9-33-6.9-47.9
		c0-57,0-114,0-171c2.9-0.9,3.7-3.2,3.8-5.9c0.3-30.1,6.3-59.3,11.2-88.9c14.7-90.1,43.7-175.4,83.2-257.1
		c37.5-77.4,84.5-148.7,141.6-213.5c54.4-61.8,113.8-117.6,180.8-165.3C496.2,133.2,571,93.5,650.7,64
		C720,38.3,791.5,20.3,865.3,10.9c15.8-2,32.9,1.9,47.8-6.9c56.8,0,113.7,0,170.5,0c0.9,2.9,3.1,3.7,5.9,3.8
		c30,0.3,59.2,6.3,88.7,11.2c89.8,14.8,175,43.8,256.4,83.4c77.2,37.6,148.3,84.7,212.9,142c61.6,54.6,117.3,114.1,164.9,181.3
		c49.3,69.6,88.9,144.7,118.3,224.5c25.6,69.5,43.6,141.2,53,215.1C1985.6,881.2,1981.7,898.4,1990.5,913.3z M973.6,1471.1
		c-16,3.3-32.2,1.2-48.2,1.3c-9.1,0.1-12.4,2.9-12.3,12.2c0.4,42.7,0.4,85.5,0,128.2c-0.1,10.4,4,13.4,13.6,13.3
		c47.8-0.3,95.6-0.3,143.3,0c9.7,0.1,13.7-2.9,13.6-13.3c-0.5-42.7-0.4-85.5,0-128.2c0.1-9.4-3.3-12.1-12.3-12.2
		c-16.1-0.1-32.2,2-48.2-1.3c-0.3-12.9,0.3-26-1-38.8c-1.7-16.7,3.6-22.5,21.3-22.1c56.8,1.1,113.6,0.4,170.5,0.4
		c38.1,0,76.2,0,114.3,0.1c6.8,0,15.3-1.6,15.1,9.6c-0.3,16.1,3.9,34.7-2.7,47.6c-5.6,11-25,2.9-38.1,4.5c-0.6,0.1-1.3,0.1-1.9,0
		c-11.4-1.2-16.2,3.6-16.1,15.5c0.4,40.8,0.4,81.6,0,122.3c-0.1,10.5,3.5,15.2,14.5,15.1c45.8-0.3,91.7-0.3,137.5,0
		c11.6,0.1,16.1-4.2,15.9-15.9c-0.5-30.4-0.1-60.8-0.1-91.3c0-43.7,0-44.1-43.7-45.6c-11.8-0.4-16-4.4-15.7-16
		c0.5-22.6,0.1-45.3,0.1-68c0-28,0-28-28.6-28c-107.2,0-214.4-0.3-321.5,0.3c-16.1,0.1-21.7-4.7-20.7-20.9c1.4-21.9,0.8-44,1-66
		c8-3.7,16.6-2,24.8-2c182.7-0.1,365.5-0.3,548.2,0.2c16.6,0,22.9-2.9,22.9-21.8c-0.7-285.5-0.6-571-0.1-856.5
		c0-17.2-3.6-22.9-21.9-22.9c-399,0.5-798.1,0.5-1197.1,0c-18.3,0-22,5.7-21.9,22.9c0.5,284.8,0.6,569.7-0.2,854.5
		c-0.1,20.8,6.5,23.9,24.9,23.8c182.1-0.6,364.2-0.4,546.3-0.3c8.3,0,16.8-1.7,24.8,2c0.2,20.1,0.6,40.1,0.7,60.2
		c0.1,26.3,0,26.4-26.2,26.4c-107.8,0-215.7,0.3-323.5-0.3c-15.7-0.1-22.5,4-21.1,20.6c1.2,14.1,0.7,28.5,0.1,42.7
		c-0.7,15.3,6.4,34-3.6,45.1c-8.9,9.9-27,3.1-40.9,3.5c-10.7,0.3-14.9,4.2-14.8,15c0.3,40.8,0.4,81.6,0,122.3
		c-0.1,11.8,4.3,16,15.9,15.9c45.2-0.4,90.4-0.5,135.6,0.1c12.9,0.2,16.7-4.9,16.5-17.2c-0.5-39.5-0.6-79,0.1-118.5
		c0.2-13.8-4.9-17.6-18.1-17.7c-41.6-0.5-41.5-1-41-42.2c0-1.9,0.2-3.9,0-5.8c-1-9.9,3.3-13.7,13.4-13.7c98.1,0.2,196.3,0.2,294.4,0
		c10.3,0,13.7,4.4,13.3,14C973.9,1440,973.8,1455.5,973.6,1471.1z"/>
	<path class="st0" d="M973.7,1274.2c-8-3.7-16.6-2-24.8-2c-182.1-0.1-364.2-0.3-546.3,0.3c-18.4,0.1-25-3-24.9-23.8
		c0.8-284.8,0.7-569.7,0.2-854.5c0-17.2,3.6-22.9,21.9-22.9c399,0.5,798.1,0.5,1197.1,0c18.3,0,22,5.7,21.9,22.9
		c-0.5,285.5-0.6,571,0.1,856.5c0,18.9-6.3,21.9-22.9,21.8c-182.7-0.5-365.5-0.3-548.2-0.2c-8.3,0-16.8-1.7-24.9,2
		C1006.6,1274.2,990.1,1274.2,973.7,1274.2z M997.6,1162.2c162.8,0,325.5-0.2,488.3,0.4c17,0.1,22.9-3.5,22.9-22
		c-0.8-167.7-0.7-335.4-0.1-503.2c0.1-16.3-3-22.1-21-22.1c-326.2,0.6-652.4,0.5-978.6,0.1c-15.7,0-20.9,3.7-20.9,20.3
		c0.6,168.4,0.7,336.7-0.1,505.1c-0.1,18.9,6.4,21.8,23.1,21.7C673.3,1162,835.4,1162.2,997.6,1162.2z M767.3,523.9
		c70.7-1.7,58.5,13.5,59.6-57.9c0-0.6-0.1-1.3-0.1-1.9c0.3-11.4-5.4-16.4-16.6-16.3c-20,0.1-39.9-0.1-59.9-0.1
		c-58.4,0-60.1,2.1-53.4,61c1.2,10.2,5.4,15.3,15.7,15.3C728.7,523.9,744.8,523.9,767.3,523.9z M975.3,524.1
		c17.1-2.3,43.3,9.1,57.7-4.5c12-11.3,2.3-36.9,3.8-56.1c0.8-11.5-3.2-16.5-15.3-16c-18,0.7-36.1,0.2-54.2,0.2
		c-60.2,0-59.9,0-57.8,60.8c0.4,11.4,3.4,16.5,15.5,15.9C940.4,523.6,955.9,524.1,975.3,524.1z M551.7,450.1c-3.2,0-6.4,0-9.7,0
		c-56.1,0-55.7,0-53.8,56.5c0.4,12.3,5.2,15.5,16.3,15.3c30.9-0.4,61.9-0.4,92.8,0c11.3,0.2,16.7-3.1,15.9-15.5
		c-0.9-13.5-1-27.2,0-40.7c1-13.5-5.1-16.5-17.1-15.9C581.4,450.7,566.5,450.1,551.7,450.1z"/>
	<path class="st3" d="M973.7,1274.2c16.4,0,32.9,0,49.3,0c-0.2,22,0.4,44-1,66c-1,16.2,4.6,21,20.7,20.9
		c107.2-0.6,214.4-0.3,321.5-0.3c28.6,0,28.6,0,28.6,28c0,22.7,0.4,45.3-0.1,68c-0.3,11.6,3.9,15.6,15.7,16
		c43.8,1.5,43.7,1.9,43.7,45.6c0,30.4-0.4,60.9,0.1,91.3c0.2,11.8-4.3,16-15.9,15.9c-45.8-0.4-91.7-0.4-137.5,0
		c-11,0.1-14.6-4.6-14.5-15.1c0.3-40.8,0.4-81.6,0-122.3c-0.1-11.9,4.6-16.7,16.1-15.5c0.6,0.1,1.3,0.1,1.9,0
		c13.1-1.6,32.5,6.5,38.1-4.5c6.6-13,2.4-31.5,2.7-47.6c0.2-11.2-8.3-9.6-15.1-9.6c-38.1-0.1-76.2-0.1-114.3-0.1
		c-56.8,0-113.7,0.7-170.5-0.4c-17.6-0.3-23,5.5-21.3,22.1c1.3,12.8,0.7,25.8,1,38.8c-16.5,0-33,0-49.5,0
		c0.3-15.5,0.3-31.1,0.8-46.6c0.4-9.6-3-14-13.3-14c-98.1,0.2-196.3,0.2-294.4,0c-10.1,0-14.3,3.7-13.4,13.7c0.2,1.9,0,3.9,0,5.8
		c-0.5,41.2-0.5,41.7,41,42.2c13.2,0.2,18.4,4,18.1,17.7c-0.7,39.5-0.6,79-0.1,118.5c0.2,12.3-3.6,17.3-16.5,17.2
		c-45.2-0.5-90.4-0.4-135.6-0.1c-11.6,0.1-16-4.2-15.9-15.9c0.4-40.8,0.4-81.6,0-122.3c-0.1-10.8,4-14.7,14.8-15
		c14-0.4,32,6.5,40.9-3.5c9.9-11.1,2.9-29.7,3.6-45.1c0.6-14.2,1.1-28.6-0.1-42.7c-1.4-16.6,5.4-20.6,21.1-20.6
		c107.8,0.6,215.7,0.3,323.5,0.3c26.2,0,26.3,0,26.2-26.4C974.3,1314.3,973.9,1294.2,973.7,1274.2z"/>
	<path class="st5" d="M973.6,1471.1c16.5,0,33,0,49.5,0c16,3.3,32.2,1.2,48.2,1.3c9.1,0.1,12.4,2.8,12.3,12.2
		c-0.4,42.7-0.4,85.5,0,128.2c0.1,10.4-3.9,13.4-13.6,13.3c-47.8-0.3-95.6-0.3-143.3,0c-9.7,0.1-13.8-2.9-13.6-13.3
		c0.5-42.7,0.4-85.5,0-128.2c-0.1-9.4,3.2-12.2,12.3-12.2C941.4,1472.3,957.6,1474.4,973.6,1471.1z"/>
	<path class="st7" d="M997.6,1162.2c-162.1,0-324.3-0.2-486.4,0.3c-16.7,0.1-23.1-2.9-23.1-21.7c0.8-168.4,0.7-336.7,0.1-505.1
		c-0.1-16.6,5.2-20.3,20.9-20.3c326.2,0.4,652.4,0.5,978.6-0.1c17.9,0,21,5.8,21,22.1c-0.5,167.7-0.7,335.5,0.1,503.2
		c0.1,18.5-5.8,22.1-22.9,22C1323.1,1162,1160.3,1162.2,997.6,1162.2z M996.8,1073.9c114.9,0,229.7,0,344.6,0c52,0,52,0,51.8-51.2
		c-0.1-25.1-0.1-25.2-25.4-25.2c-237.5,0-474.9,0-712.4,0c-52.1,0-51.2,0-52.3,53.1c-0.4,18.9,5.5,23.9,23.9,23.8
		C750.3,1073.5,873.5,1073.9,996.8,1073.9z M905.3,925.5c82.6,0,165.3,0.1,247.9-0.1c16.7,0,38.9,5.4,48.7-3.1
		c11.5-10,1.9-33.1,4.1-50.2c2.3-17.7-5.1-21.2-21.6-21.1c-175,0.6-350,0.3-524.9,0.6c-17.8,0-40.8-8.1-52.1,3.7
		c-11.1,11.6-1.7,34.7-3.7,52.5c-1.7,15.3,4.9,18.1,18.8,18C716.7,925.2,811,925.5,905.3,925.5z M810.5,778.9
		c64.6,0,129.1-0.3,193.7,0.3c13.4,0.1,18.6-4,17.5-17.7c-1-11.6-1.2-23.4,0-34.9c1.9-17.3-3.6-23.1-22-23
		c-113.6,0.9-227.2,0.2-340.8,0.7c-17.7,0.1-40.4-8.3-52,4.2c-10.4,11.3-1.7,33.5-3.4,50.7c-1.5,15.1,3.8,20.2,19.3,20
		C685.3,778.5,747.9,778.9,810.5,778.9z"/>
	<path class="st4" d="M767.3,523.9c-22.4,0-38.6-0.1-54.7,0c-10.3,0.1-14.6-5.1-15.7-15.3c-6.6-58.8-4.9-61,53.4-61
		c20,0,39.9,0.2,59.9,0.1c11.2-0.1,16.8,5,16.6,16.3c0,0.6,0.1,1.3,0.1,1.9C825.8,537.4,838,522.3,767.3,523.9z"/>
	<path class="st10" d="M975.3,524.1c-19.4,0-34.9-0.6-50.4,0.2c-12.1,0.6-15.1-4.5-15.5-15.9c-2.1-60.8-2.4-60.8,57.8-60.8
		c18.1,0,36.2,0.6,54.2-0.2c12.1-0.5,16.2,4.5,15.3,16c-1.4,19.2,8.2,44.9-3.8,56.1C1018.5,533.2,992.3,521.8,975.3,524.1z"/>
	<path class="st6" d="M551.7,450.1c14.8,0,29.7,0.6,44.5-0.2c12-0.7,18,2.4,17.1,15.9c-1,13.5-0.9,27.2,0,40.7
		c0.8,12.3-4.6,15.6-15.9,15.5c-30.9-0.4-61.9-0.4-92.8,0c-11.1,0.1-15.8-3-16.3-15.3c-1.9-56.5-2.3-56.5,53.8-56.5
		C545.2,450.1,548.5,450.1,551.7,450.1z"/>
	<path class="st8" d="M996.8,1073.9c-123.2,0-246.5-0.4-369.7,0.4c-18.5,0.1-24.3-4.8-23.9-23.8c1-53,0.2-53.1,52.3-53.1
		c237.5,0,474.9,0,712.4,0c25.4,0,25.4,0.1,25.4,25.2c0.1,51.2,0.1,51.2-51.8,51.2C1226.5,1073.9,1111.6,1073.9,996.8,1073.9z"/>
	<path class="st2" d="M905.3,925.5c-94.3,0-188.5-0.3-282.8,0.3c-13.8,0.1-20.5-2.7-18.8-18c2-17.8-7.4-40.9,3.7-52.5
		c11.2-11.8,34.3-3.7,52.1-3.7c175-0.3,350,0,524.9-0.6c16.6-0.1,23.9,3.4,21.6,21.1c-2.2,17.2,7.3,40.2-4.1,50.2
		c-9.8,8.5-32,3.1-48.7,3.1C1070.6,925.6,987.9,925.5,905.3,925.5z"/>
	<path class="st9" d="M810.5,778.9c-62.6,0-125.2-0.4-187.8,0.3c-15.5,0.2-20.8-4.9-19.3-20c1.7-17.3-7-39.4,3.4-50.7
		c11.5-12.5,34.2-4.1,52-4.2c113.6-0.5,227.2,0.2,340.8-0.7c18.4-0.1,23.9,5.6,22,23c-1.2,11.5-1,23.3,0,34.9
		c1.2,13.6-4,17.8-17.5,17.7C939.7,778.6,875.1,778.9,810.5,778.9z"/>
</g>
</svg>
