<?xml version="1.0" encoding="utf-8"?>
<!-- Generator: Adobe Illustrator 16.0.0, SVG Export Plug-In . SVG Version: 6.00 Build 0)  -->
<!DOCTYPE svg PUBLIC "-//W3C//DTD SVG 1.1//EN" "http://www.w3.org/Graphics/SVG/1.1/DTD/svg11.dtd">
<svg version="1.1" id="Layer_1" xmlns="http://www.w3.org/2000/svg" xmlns:xlink="http://www.w3.org/1999/xlink" x="0px" y="0px"
	 width="2000px" height="2000px" viewBox="0 0 2000 2000" style="enable-background:new 0 0 2000 2000;" xml:space="preserve">
<style type="text/css">
<![CDATA[
	.st0{fill:#AA4343;}
	.st1{opacity:0.16;fill:#D0D1D2;}
	.st2{fill:#E55957;}
	.st3{opacity:0.54;fill:#73BCC4;}
	.st4{fill:#B5C8CA;}
	.st5{fill:#898D93;}
	.st6{opacity:0.8;fill:#2F363E;}
	.st7{fill:#2978A3;}
	.st8{fill:#2D85B5;}
	.st9{fill:#2E3640;}
	.st10{fill:#2F363E;}
	.st11{fill:#FFB74D;}
	.st12{fill:#FFFFFF;}
	.st13{fill:#CED5E0;}
	.st14{fill:#3598DB;}
	.st15{opacity:0.54;fill:#5E9BA3;}
	.st16{fill:#777A7F;}
	.st17{fill:#A6ACAF;}
]]>
</style>
<g>
	<g>
		<line class="st10" x1="83.5" y1="1072.4" x2="31.6" y2="923.2"/>
		<polygon class="st10" points="86.6,1071.1 80.4,1073.7 28.6,924.4 34.7,921.9 		"/>
	</g>
	<g>
		<line class="st10" x1="43.4" y1="913.5" x2="136.4" y2="870.2"/>
		<polygon class="st10" points="137.7,873.5 44.7,916.8 42.1,910.2 135.1,866.9 		"/>
	</g>
	<path class="st14" d="M93,1050.1c11.3,5.7,16.2,20.3,11,32.7c-5.3,12.3-18.7,17.7-30,12c-11.3-5.7-16.2-20.4-11-32.7
		C68.2,1049.7,81.7,1044.4,93,1050.1z"/>
	<path class="st14" d="M46.7,900.9c11.3,5.7,16.2,20.4,11,32.7c-5.3,12.3-18.7,17.7-30,11.9c-11.3-5.7-16.2-20.3-11-32.7
		C21.9,900.5,35.3,895.2,46.7,900.9z"/>
	<path class="st14" d="M153.7,838.4c11.3,5.7,16.2,20.4,11,32.7c-5.3,12.3-18.7,17.7-30,12c-11.3-5.7-16.2-20.3-11-32.7
		C129,838,142.4,832.7,153.7,838.4z"/>
</g>
<g>
	<polygon class="st13" points="1540.4,835 1843.2,782.4 1693.6,997.1 1635.5,911.8 1618.5,936.9 1634.5,858.8 	"/>
	<polygon class="st16" points="1636.7,858 1843.2,782.4 1635.5,911.8 1618.5,936.9 1634.5,858.8 	"/>
	<polygon class="st17" points="1635.5,911.8 1641.8,921.1 1618.5,936.9 	"/>
</g>
<path class="st4" d="M993.6,1432.4H849.9h-3.1H703.2c0,0-36.9,156.2-51.3,171.9h194.9h3.1h194.9
	C1030.5,1588.7,993.6,1432.4,993.6,1432.4z"/>
<path class="st13" d="M1095.6,1610.4c0,8.9-3.2,16.1-7.2,16.1H608.3c-4,0-7.2-7.2-7.2-16.1l0,0c0-8.9,3.2-16.1,7.2-16.1h480.2
	C1092.4,1594.3,1095.6,1601.5,1095.6,1610.4L1095.6,1610.4z"/>
<path class="st13" d="M145.4,1339.5v90.9c0,24.5,29.3,44.4,63.7,44.4h1278.4c34.4,0,63.9-20,63.9-44.4v-90.9H145.4z"/>
<path class="st9" d="M1551.4,574.6c0-44.2-29.5-77.7-63.9-77.7H209.1c-34.4,0-63.7,33.5-63.7,77.7v764.9h1406V574.6z"/>
<path class="st13" d="M1493.4,618.1c0-38.6-26.7-68.2-58.3-68.2H261.4c-31.6,0-58,29.7-58,68.2v666.1h1290.1V618.1z"/>
<ellipse class="st9" cx="851" cy="1417" rx="33.1" ry="36"/>
<path class="st1" d="M1492.2,1131.6L599.6,551.2h834.9c31.8,0,57.7,28.1,57.7,62.7V1131.6z"/>
<g>
	<g>
		<path class="st10" d="M679.1,984.8c-8.4-2.3-8.8,0.5-9.8-4.1c-0.9-4.6-6.5-4.6-11.6-4.6c-5.1,0-7-0.5-11.2-4.1
			c-4.2-3.7-13-4.1-15.8-5c-2.8-0.9-1.4-8.7-7-16c-5.6-7.3-17.2-8.7-24.7-12.8c-7.4-4.1-5.1-20.1-15.8-18.8
			c-10.7,1.4-11.6,5.5-21.4,0.5s-16.3-8.2-21.4-4.6c-5.1,3.7-11.6,10.5-14.9,12.4c-3.3,1.8-8.8-1.4-12.1-0.9c-3.3,0.5-7-3.2-9.3-6.4
			c-2.3-3.2,4.2-19.2-1.9-19.2c-6.1,0-14-2.7-14-5c0-2.3,12.6-16,8.8-18.3c-3.7-2.3-11.2-0.9-17.7,7.8c-6.5,8.7-12.6,8.2-15.8,5
			c-3.3-3.2-10.7-22-4.7-32.5c6-10.5,14-16.7,21.5-16.3c7.4,0.5,10.4-1.8,17.9-2.3c7.4-0.5,14.6,3,16.5,5.7
			c1.9,2.7-1.9,7.3,2.8,12.8c4.7,5.5,7.4,3.2,7.9,5.5c0.5,2.3-3.7,4.6-5.6,4.6c-1.9,0-17.2,4.1-11.2,6.9c6.1,2.7,16.8,0.5,19.1,4.1
			c2.3,3.7-7.4,11.4,6.5,11.9c14,0.5,23.3,2.3,31.2,2.7c7.9,0.5,13.5,0.9,14.4,2.7c0.9,1.8,6.5-6.9-6.5-6.9c-13,0-23.3-7.3-30.3-8.7
			c-7-1.4-11.6-5.9-12.1-11.4c-0.5-5.5,0.5-9.6-2.3-14.2c-2.8-4.6-9.8-15.6-3.3-20.1c6.5-4.6,19.5-13.3,22.8-19.2
			c3.3-5.9,3.3-7.3,10.7-11.9c7.5-4.6,16.3-10.5,20.5-14.6c4.2-4.1,11.2-10.5,12.6-7.3c1.4,3.2,7.9,4.1,15.8,1.4
			c7.9-2.7,17.7-9.6,9.3-9.6c-8.4,0-13.5-2.3-11.2-5.5c2.3-3.2-5.6-4.6-7.9-4.1c-2.3,0.5-2.3-4.6,5.6-6c7.9-1.4,1.5,7,8,6.5
			c6.5-0.5,10.6-7,15.2-7.9c4.7-0.9,6.5,3.2,0.5,7.3c-6,4.1-7.9,2.7,0,4.6c7.9,1.8,10.2,5.9,14.9,1.8c4.6-4.1-0.9-5.5-1.4-11
			c-0.5-5.5,3.3-16.4-1.8-20.1c-5.1-3.7-7.5-7.4-7.5-11c0-3.7,0.9-11.4-4.2-7.8c-5.1,3.7-9.3,6-11.2,4.1c-1.9-1.8,0.9-5.5-3.3-8.2
			c-4.2-2.8-4.7-6.9-9.8-6.4c-5.1,0.5-10.2-3.7-13,2.3c-2.8,5.9-5.6,11-6.5,12.8c-0.9,1.8,3.3,8.2-0.5,11.4c-3.7,3.2-14,7.8-15.4,11
			c-1.4,3.2-7,11.4-8.4,5.9c-1.4-5.5,4.7-13.7-3.7-16c-8.4-2.3-14.9-0.5-16.3-5.5c-1.4-5-5.1-9.6,3.3-13.7
			c8.4-4.1,16.8-11.4,24.7-12.4c7.9-0.9,2.3,5.5,8.8,5c6.5-0.5-0.9-3.7,7-5c7.9-1.4,6.5-1.4,4.2-4.1c-2.3-2.7-0.9-3.2,5.1-5.9
			c6-2.7,1.4-4.6,7.4-6.9c6.1-2.3,7.4-4.6,10.7-4.6c3.3,0,2.8,1.4,0.9,5.5c-1.9,4.1-3.3,6.9,2.3,4.1c5.6-2.7,8.4-4.6,4.2-0.5
			c-4.2,4.1-7,4.1-13,5c-6,0.9-4.2,1.8-1.4,5c2.8,3.2,9.8,3.7,12.1,5.5c2.3,1.8,5.1,8.2,10.7,5c5.6-3.2,1.4-3.7,8.8-6.9
			c7.4-3.2,18.2-5,17.2-9.2c-0.9-4.1-8.4-6.4-9.3-11.4c-0.9-5,10.2-7.8-4.2-10.1c-14.4-2.3-6-4.1-13-4.1c-7,0-20,0-24.7,2.3
			c-4.7,2.3-7.4-1.4-9.8,2.3c-2.3,3.7,0.5,8.7-1.9,8.7c-2.3,0-6.5,3.7-8.4,0c-1.9-3.7-6.1-7.3-0.5-8.7c5.6-1.4,6.5-0.5,7.5-4.6
			c0.9-4.1-7.9-3.7-2.8-4.6c5.1-0.9,7.4,0.5,14.4,0.5c7,0,22.8,2.7,25.1-1.4c2.3-4.1-3.7-4.1-10.7-4.6c-7-0.5-19.1-2.7-24.2-0.5
			c-5.1,2.3-11.6,5.9-14,9.6c-2.3,3.7-2.3-0.9-7,0c-4.7,0.9-12.6,5.9-8.4,8.7c4.2,2.7,4.2,5.9-0.5,5.9c-4.7,0-6,4.6-9.3,4.6
			c-3.3,0-12.1-0.5-7.9-2.7c4.2-2.3,8.8-2.3,8.4-7.8c-0.5-5.5,4.7-7.3,4.7-9.2c0-1.8-11.2,4.1-20,1.4c-8.8-2.7-12.6-6.9-21.4-6.4
			c-8.8,0.5-20.5,11.9-14.9,12.8c5.6,0.9,9.8-0.9,10.7,1.8c0.9,2.7-0.9,5,2.3,6.4c3.3,1.4,9.3,5,1.4,3.2c-7.9-1.8-4.2-5-16.3-5.5
			c-12.1-0.5-19.5-4.1-32.1-0.9c-12.6,3.2-10.7,5.9-19.1,3.2c-8.4-2.7-28.6-13.1-42.6-10.3c-14,2.7-28.6,11.2-32.8,14
			c-4.2,2.7-6.5-4.2-13.9-3.8c-7.4,0.5-25.3-2.2-21.6,2.3c3.7,4.6,8.4,5,2.8,5.9c-5.6,0.9-13,1.4-15.8,5.5c-2.8,4.1-13,6.4-6.5,8.2
			c6.5,1.8,17.2,5.9,12.6,6.4c-4.7,0.5-28.4,9.6-38.6,11.9c-10.2,2.3-9.7,28.3-0.9,25.1c11.2-4.1,32.5-28.3,38.1-30.6
			c5.6-2.3,7.9-0.5,7.4,2.8c-0.5,3.2,6.5-1.4,12.1-5.5c5.6-4.1,7.1-13.9,11.7-11.1c4.7,2.7,5.9,1.5,9.7,0.6
			c3.7-0.9,22.1,5.5,25.3,7.3c3.3,1.8,7.9,6.9,10.2,8.7c2.3,1.8,3.3,5.9,0.9,6.4c-2.3,0.5-2.8,2.7-2.3,6.4c0.5,3.7,2.3,6.9-2.3,7.8
			c-4.7,0.9-3.7,6.4-0.9,6c2.8-0.5,4.6-1.8,5.1-4.6c0.5-2.7,6.5-7.8,5.6-4.1c-0.9,3.7-3.3,7.3-3.3,10.1c0,2.7-3.3,2.3-3.7,5
			c-0.5,2.7,0.5,2.7,2.8,5c2.3,2.3,0.9,3.7,0.5,8.7c-0.5,5-14.4,18.8-16.3,23.3c-1.9,4.6-0.9,11-0.9,16c0,5-1.9,11.4,3.3,13.3
			c5.1,1.8,5.6,2.7,5.6,7.3c0,4.6,0,10.1,2.8,13.3c2.8,3.2,1.4,2.7,1.4,7.8c0,5,3.3,2.3,3.7,6.4c0.5,4.1-2.3,5.9,2.3,9.2
			c4.7,3.2,9.8,5.5,7.5,0.5c-2.3-5-3.7-9.2-6.1-16.5c-2.3-7.3-3.7-20.6-0.9-16.5c2.8,4.1,6.5,16.5,10.7,25.2
			c4.2,8.7,9.3,7.8,9.3,14.2c0,6.4-5.1,12.4,5.1,16.5c10.2,4.1,17.7,12.8,23.7,11.9c6-0.9,9.8-4.6,12.1-0.5c2.3,4.1,7.4,9.6,13,9.6
			c5.6,0,7.4,3.7,8.4,9.2c0.9,5.5,4.7,6.4,10.2,8.2c5.6,1.8,7,7.8,11.2,7.3c4.2-0.5,9.8-2.3,9.8,1.8c0,4.1,1.9,14.2-5.1,20.6
			c-7,6.4-10.2,11-6.5,15.1c3.7,4.1,0.5,8.2-1.4,11.4c-1.9,3.2,1.4,5.9,5.1,11c3.7,5,8.8,11,12.1,21.1c3.3,10.1,7.9,13.7,15.8,16.9
			c7.9,3.2,14,8.7,14,16.5c0,7.8-0.5,34.3-0.5,42.1c0,7.8,4.2,15.6,2.8,21.5c-1.4,5.9,0,11,1.9,13.3c1.9,2.3,1.4,7.3,1.9,12.4
			c0.5,5,6,1.4,6,5.9c0,4.6-2.3,11.4,0.5,13.7c2.8,2.3-3.3,10.5,9.3,18.3c12.6,7.8,13.5,8.2,14.4,9.6c0.9,1.4,5.1-2.8,5.1-0.5
			c0,2.3-7,15.8,6.1,15.8c13,0,20.9-4.8,13-10.7c-7.9-5.9-12.6-3.2-14-9.1c-1.4-5.9-3.3-5-4.2-9.2c-0.9-4.1,3.3-6,1.9-10.1
			c-1.4-4.1-8.1-4.5-7.6-8.7c0.5-4.1,4.8-7.8,5.8-9.6c0.9-1.8,0.9-3.7-1.4-5.5c-2.3-1.8-1.9-2.3,1.4-3.2c3.3-0.9,3.7,0.5,5.1-4.1
			c1.4-4.6,5.6-4.1,7.4-5.5c1.9-1.4,8.4-3.2,6.1-9.1c-2.3-6-8.5-9.4-3.4-9.4c5.1,0,11.8,0.2,15-6.2c3.3-6.4,1.9-7.8,5.6-12.8
			c3.7-5,2-9.4,2-13.1c0-3.7,0.3-7.1,5.4-9.4c5.1-2.3,21.9-5,24.2-11.9c2.3-6.9,4.7-14.2,3.7-21.5c-0.9-7.3-1.4-11.9,3.7-17.8
			c5.1-5.9,11.6-11,11.6-16.5C685.1,994.8,687.5,987,679.1,984.8z"/>
		<path class="st10" d="M766.1,675c5.1-5.5,3.7-8.2,10.7-11c7-2.8,5.1-6.4,4.2-11.9c-0.9-5.5,2.8-3.3,5.6-5.1
			c2.8-1.8,4.1-3.1,10.7-3.6c6.5-0.5,0.5-2.7,0.5-5.5c0-2.7-4.7-2.3-11.2-1.4c-6.5,0.9-5.6,0-10.2-1.8c-4.7-1.8-32.1-1.8-39.1-1.8
			c-7,0-19.5,1.4-26.1,1.8c-6.5,0.5-6.1,0-18.6-1.4c-12.6-1.4-45.6-0.5-57.7,0.9c-12.1,1.4-19-2.1-26.9,3c-7.9,5-11.6,2.8-20.4,3.7
			c-8.8,0.9-15-1.3-19.2-1.3c-4.2,0-3.7-2.3-11.2,0.5c-7.4,2.7-5.1,4.6-7.9,0.9c-2.8-3.7-6.5,0-19.5,3.2c-13,3.2,6.4,14.3,10.6,15.7
			c0,0,8.8-0.5,14-1.8c5.1-1.4,7.4,1.8,10.7,0.9c3.3-0.9,4.2-4.1,22.8-8.2c18.6-4.1,31.6-0.9,39.1,2.3c7.4,3.2,7.4,1.4,14-2.8
			c6.5-4.1,17.7-7.3,29.3-9.2c11.6-1.8,4.2,2.3-3.3,5c-7.4,2.7-14,1.8-12.6,6.4c1.4,4.6,15.8,3.2,20,3.2c4.2,0,4.7,6.4,5.1,10.1
			c0.5,3.7-0.5,5.5,0.5,9.2c0.9,3.7,3.3,3.2-0.9,6.9c-4.2,3.7-6.5,3.2-6.5,9.6c0,6.4,2.8,13.3,9.3,17.8c6.5,4.6,10.2,5,14-2.3
			c3.7-7.3,12.6-11.9,17.2-14.2c4.7-2.3,11.2,0,17.2-5.5c6-5.5,14-3.2,22.8-5.9C761.9,678.6,761,680.5,766.1,675z"/>
		<path class="st10" d="M774.3,701c-14,1.8-27-2.7-24.7,4.6c2.3,7.3,3.4,21.2,10.8,18.9c12.8-3.9,24.3-8.8,21-14.7
			C778.3,703.8,788.3,699.1,774.3,701z"/>
		<path class="st10" d="M864.3,665.8c0.5,0.1,1,0.2,1.4,0.3c4.7,1.8,7.9-0.9,8.4-4.6c5.1-7.3,3.3,5.9,8.8,3.7
			c5.6-2.3,13.5-7.8,20-11c6.5-3.2-7.9-1.8-19.5-3.7c-11.6-1.8-27.9,1.4-32.6,4.6C846.5,658.2,857.5,663.9,864.3,665.8z"/>
		<path class="st10" d="M933.2,646.9c0,0-2.3,3.2,3.3,3.2c5.6,0,17.2-3.7,26.5-3.7c9.3,0,6.5-3.2,4.6-3.2c-1.9,0-7-5-14.4-4.6
			c-7.4,0.5-7,3.7-11.6,3.7c-4.7,0-3.7-1.4-13.5-0.9C918.3,641.8,928,645.9,933.2,646.9z"/>
		<path class="st10" d="M1371.1,673c-0.9-5.5-0.4-15.3-16.1-14.4c-27.9,1.5-35-0.8-40.1-0.8c-5.1,0-2.5-3.5,1.2-3.5
			c3.7,0,3.6-4-0.1-5.9c-3.7-1.8-8.9-0.4-10.3,3.7c-1.4,4.1,5.3,5.4-5.4,5.4c-10.7,0-25.2,15.4-37.8,13.1
			c-12.6-2.3-16.4-10.5-27.1-11c-10.7-0.5-19.7,10.1-30.8,10.1c-11.2,0-7.5-4.1-12.1-9.2c-4.7-5-7-3.7-20.9-3.7
			c-14,0-6.5,5.5-3.7,6.4c2.8,0.9,10.2,3.2,15.4,7.8c5.1,4.6-9.3,2.7-15.4,3.2c-6,0.5-5.6-3.2-12.6-7.3c-7-4.1-24.2-1.8-34-2.3
			c-9.8-0.5-10.2,0-13.9-6.9c-3.7-6.9-11.6-3.2-21.9-3.2c-10.2,0-15.8-5-20.9-8.2c-5.1-3.2-13-3.7-24.2-5.5
			c-11.2-1.8-5.1,6.9-0.9,7.3c0,0,4.6,1.8,9.3,2.3c4.7,0.5,14.4,0.9,19.5,6.9c5.1,5.9-15.8,3.7-25.1,8.7c-9.3,5-16.8,2.7-23.3,5.5
			c-6.5,2.8,3.3,7.3,5.6,13.3c2.3,6,0,6-4.2,7.3c-4.2,1.4,1.4-6.4-0.5-8.7c-1.9-2.3-8.8-14.2-14.4-17.9c-5.6-3.7-4.7,3.2-3.7,8.2
			c0.9,5,2.3,5,3.7,8.7c1.4,3.7-6,0-9.8-2.7c-3.7-2.7-15.8,3.7-21.4,0.9c-5.6-2.7,1.9-1.8,1.9-4.6c0-2.7-6.5-0.5-8.4-4.6
			c-1.9-4.1,11.6-9.1,20-10.5c8.4-1.4,7.4-1.4,7.4-5.5c0-4.1-14.9-2.7-27.5,3.2c-12.6,6-9.3,10.1-11.2,14.2c-1.9,4.1,4.2,4.6,7,6.9
			c2.8,2.3-3.3,3.2-8.8,5c-5.6,1.8-7,0-13.5,2.3c-6.5,2.3-2.8,5-8.4,7.3c-5.6,2.3-5.1,2.3-9.8,4.1c-4.6,1.8,0.9-6.9,7.4-7.8
			c6.5-0.9,4.6-4.6,2.8-6c-1.9-1.4-14-5-27-8.7c-13-3.7-34,1.4-41,4.6c-7,3.2-6.5,5.5-7.4,10.1c-0.9,4.6-16.8,11.4-24.7,15.6
			c-7.9,4.1-1,9.6,1.4,13.3c2.3,3.7,7.4,1.8,14,0c6.5-1.8,5.6,5.9,6.5,8.7c0.9,2.7,4.6,3.2,10.7,0.5c6-2.7,4.7-9.1,4.7-12.8
			c0-3.7-1.4-5.5,2.8-10.5c4.2-5,7.9-8.2,11.6-10.5c3.7-2.3,3.3,1.8-2.3,6.4c-5.6,4.6-1.9,6,0.9,11.4c2.8,5.5,8.4,0,15.4-0.9
			c7-0.9-6.1,5.9-11.2,5.9c-5.1,0,0,5.5-3.3,5.5c-3.3,0-3.7,2.3-4.2,7.8c-0.5,5.5-2.3,4.1-6,5.5c-3.7,1.4-9.3,1.8-15.4,0.5
			c-6-1.4-5.6-6.9-9.8-10.5c-4.2-3.7-5.1,1.8-5.1,4.1c0,2.3-4.2,7.3-6,7.3c-1.9,0-7.5,5.5-10.7,10.1c-3.3,4.6-5.6,1.8-6.5,0
			c-0.9-1.8,2.3-4.6,0.5-9.2c-1.9-4.6-9.3-8.2-7-18.8c2.3-10.5-2.8-5-10.2-4.1c-7.5,0.9-9.8,4.1-10.2,6.9c-0.5,2.7-4.7,8.2-9.3,13.3
			c-4.7,5-1.4,9.1,0.9,14.6c2.3,5.5,8.4-1.8,10.2-6.4c1.9-4.6,4.2-6.9,7-4.6c2.8,2.3-4.2,6.4-5.1,11.9c-0.9,5.5,1.9,5,8.4,3.2
			c6.5-1.8,3.3-3.2,8.4-0.9c5.1,2.3-4.6,4.1-10.7,4.6c-6,0.4-3.7,4.6,1.4,8.2c5.1,3.7,2.8,9.2-0.5,9.6c-3.2,0.5-9.3,1.4-18.6,3.2
			c-9.3,1.8-0.9,9.2-2.8,13.3c-1.9,4.1-2.3,13.3,1.9,13.7c4.2,0.5,4.2,7.3,1.9,9.6c-2.3,2.3-2.8,4.6-8.4,8.7
			c-5.6,4.1-1.4,7.8-3.3,13.3c-1.9,5.5-6.5,2.3-12.1,8.2c-5.6,6-7.9,10.5-12.1,17.4c-4.2,6.9-4.7,7.3,0.5,15.6
			c5.1,8.2,0,10.5-4.2,17.8c-4.2,7.3,1.4,7.8,3.3,14.2c1.9,6.4,5.6,5,7,11.4c1.4,6.4,3.2,8.2,9.8,12.8c6.5,4.6,13,11,16.3,9.6
			c3.3-1.4,8.4-5,19.1-4.6c10.7,0.5,7-4.6,18.2-6.4c11.2-1.8,1.7,2.6,3.1,5.8c1.4,3.2,10.9,5.2,19.3,5.6c8.4,0.5,1.4,10.5,0.9,16.9
			c-0.5,6.4,0,6.4,4.2,11.9c4.2,5.5,9.8,17.8,11.2,24.3c1.4,6.4-1.4,13.7-5.1,19.7c-3.7,5.9-2.3,19.7,5.6,29.8
			c7.9,10.1,3.3,9.6,3.3,20.1c0,10.5,5.6,8.7,9.8,14.6c4.2,6,2.3,16.9,6,22.9c3.7,5.9,10.2,0.4,17.7-2.3c7.4-2.7,10.7-1.8,19.5-8.2
			c8.8-6.4,15.8-19.2,15.8-22.9c0-3.7,2.8-5,7.4-6.9c4.6-1.8,3.7-13.7,3.3-16.9c-0.5-3.2,0.9-6,2.8-7.8c1.9-1.8,13.5-12.8,17.7-17.4
			c4.2-4.6,0.5-11-0.5-18.3c-0.9-7.3-3.7-10.1-3.7-18.8c0-8.7-2.8-7.8,12.6-22c15.3-14.2,29.8-36.6,31.2-41.6c1.4-5,0.9-9.2,0-12.8
			c-0.9-3.7-20.9,3.7-25.6,3.7c-4.6,0-16.5-9.8-17.5-13.4c-0.9-3.7-4.4-7.7-10.5-13.1c-6-5.5-1.4-13.3-6-19.2
			c-4.6-5.9-7-14.6-7.9-19.7c-0.9-5,7,3.7,13,10.5c6.1,6.9,14,19.7,16.3,24.3c2.3,4.6,4.2,11.4,4.7,16.9c0.5,5.5,4.2,6.4,9.8,6
			c5.6-0.5,25.1-10.5,32.1-13.7c7-3.2,15.4-12.8,18.6-22c3.3-9.2-7-7.8-11.6-12.4c-4.7-4.6-4.7,0-10.2,1.4
			c-5.6,1.4-10.2-5.9-19.1-14.2c-8.9-8.2-3.3-5.5-1.4-7.3c1.9-1.8,10.7,4.1,15.8,10.1c5.1,5.9,6,3.7,12.1,3.7c6,0,7.4,2.7,15.4,5
			c7.9,2.3,12.1-0.9,18.9-0.2c6.8,0.7,5.8,3.9,10.5,11.2c4.7,7.3,2.8,5,13,6c10.2,0.9,2.8,0,2.8,6.4c0,6.4,0.9,8.7,7,16.5
			c6,7.8,8.4,22.4,10.2,29.8c1.9,7.3,5.6,0,11.6,0c6.1,0-1.7,7,5.1,12.4c7.9,6.2,7.5-2.7,7.5-5.4c0-2.8-2.4-9.2-5.1-11.5
			c-2.8-2.3-6.5-1.8-3.3-5.5c3.3-3.7-3.8-6-3.8-11.1c0-5,1.8-11.8,4.2-14.1c2.3-2.3,13.6-8.7,18.7-14.6c5.1-5.9,9.3-6.9,16.3-6.4
			c7,0.5,1.4,1.4,5.6,6.9c4.2,5.5,5.1,13.3,9.8,18.8c4.7,5.5,5.1-0.9,8.8-2.7c3.7-1.8,1.4,5.5,4.2,11c2.8,5.5,0.9,12.8,0.9,17.9
			c0,5,6.1,10.1,9.8,14.6c3.7,4.6,2.3,6.9,0,8.7c-2.3,1.8-7-4.6-10.7-8.2c-3.7-3.7-9.3-1.4-5.6,2.8c3.7,4.1,6.1,11.4,10.2,19.2
			c4.2,7.8,13,16.9,19.1,25.2c6,8.2,25.6,11.9,33,11.9c7.4,0,22.3,6.4,29.8,7.3c7.4,0.9,13,0,18.1-2.7c5.1-2.8,2.8-6,2.3-7.3
			c-0.5-1.4-4.2,1.4-9.3,2.3c-5.1,0.9-6.5,0.9-13,1.4c-6.5,0.5-2.3-2.3-9.3-2.7c-7-0.5-14-1.8-21.9-4.6c-7.9-2.7-12.1-5-17.7-6.9
			c-5.6-1.8-0.5-5-0.9-12.8c-0.5-7.8-5.6-4.6-9.8-7.3c-4.2-2.7-2.8-8.7-0.9-6.9c1.9,1.8,2.3,4.1,2.3-5.5c0-9.6-8.8-16-14.4-24.3
			c-5.6-8.2-4.7-12.8-4.2-16.9c0.5-4.1,10.2,3.7,15.4,9.6c5.1,5.9,5.1,5.9,7.9,4.6c2.8-1.4,11.2-6,13-13.3
			c1.9-7.3-14.9-22-17.2-28.8c-2.3-6.9,3.3-2.7,6-7.3c2.8-4.6,6.1,1.8,4.2,5c-1.9,3.2,0.5,5,2.3,8.2c1.9,3.2,1.9,0,3.7-4.1
			c1.9-4.1,0.5-5.5,3.7-8.2c3.3-2.8,15.8-6.4,19.1-9.6c3.3-3.2,5.6-6.9,9.8-18.3c4.2-11.4-0.5-11-2.3-15.1
			c-1.9-4.1-7.4-11-10.7-15.1c-3.3-4.1-0.5-3.2,1.9-4.6c2.3-1.4,0.5-4.6-5.1-6.4c-5.6-1.8-4.6,1.8-9.8,0.9c-5.1-0.9-2.3-4.6,3.3-11
			c5.6-6.4,2.8,1.4,6.5,4.1c3.7,2.8,4.6-2.3,7.4-0.9c2.8,1.4,8.4,4.1,12.6,9.6c4.2,5.5,4.1,13.5,8.3,13c4.2-0.5,4.2-3.8,6.1-8
			c1.9-4.1-4.3-8.2-7.5-11.4c-3.3-3.2-7.4-2.7-4.6-5.5c2.8-2.7,0.5-6.9,1.9-10.1c1.4-3.2,6.5-1.4,11.6-3.7
			c5.1-2.3,5.6-10.1,5.6-18.3c0-8.2-4.2-11.9-6.5-14.6c-2.3-2.8,2.8-1.4,7,1.8c4.2,3.2,10.7,20.6,12.1,27.5c1.4,6.9,0.5,6.9,6,12.8
			c5.6,6,3.7,5,1.9,11.9c-1.9,6.9-6.5,8.7-13.5,10.5c-7,1.8-4.6,3.2-8.8,10.1c-4.2,6.9,2.3,7.3,6.1,9.2c3.7,1.8,4.2-5.7,8.8-8.9
			c4.6-3.2,11.2-4.8,19.1-4.8c7.9,0-2.3-10.5-2.8-16c-0.5-5.5-0.9-9.1-2.8-13.3c-1.9-4.1,1.9-4.1,7.5-6.9c5.6-2.8,5.1-8.2,1.9-8.2
			s-6,2.3-13.5,1.8c-7.4-0.5-5.6-6.4-7.4-8.7c-1.9-2.3-4.2-7.3-4.7-11.4c-0.5-4.1-7-9.6-11.6-13.7c-4.7-4.1-7.5-6.9-7.5-5
			c0,1.8-2.8-0.5-9.3-0.9c-6.5-0.5-7.9,0.9-13.5,0.5c-5.6-0.5,0.5-9.6,2.8-16c2.3-6.4,8.8-2.7,14-2.7s23.1-21.9,30.6-20
			c7.5,1.8,4.2-4.6,5.6-9.6c1.4-5,4.6-2.3,8.8-0.5c4.2,1.8,5.6,2.3,5.6-1.8c0-4.1,3.7-5,7-1.4c1.6,1.8,1.3,4.8,0.6,7.4
			c-1.4,4.8-1.8,9.9-1.1,14.8c0.7,4.8,2,9.7,4.4,11c5.1,2.8,3,18,9.1,22.1c6,4.1,4.2-6.9,4.2-14.7c0-7.8-2.9-21-7.1-28.3
			c-4.2-7.3-1.4-4.1,6.5-4.1c7.9,0,8.4-2.7,10.3-5c1.9-2.3,3.3-2.7,10.2-2.7c7,0,2.8-2.8-0.5-6.4c-3.3-3.7-9.8-2.7-7.4-5
			c2.3-2.3,14.9,1.4,21,3.7C1373.4,680.4,1372,678.5,1371.1,673z M937,825.4c-2.8,5.5-4.2,9.2-8.4,7.8c-4.2-1.4-18.2-0.9-25.1-3.2
			c-7-2.3-17.2-6.4-19.1-1.4c-1.9,5,4.7,9.1-7,5c-11.6-4.1-24.2-9.1-25.6-12.8c-1.4-3.7,4.7-13.7-3.7-13.7c-8.4,0-20-0.5-23.7,2.3
			c-3.7,2.8-18.2,7.8-22.8,6.4c-4.2-1.2-10.7-2.7-3.3-5.9c7.5-3.2,16.3-1.4,17.2-6c0.9-4.6-6.5-5.5,0.9-9.6
			c7.4-4.1,4.6-7.8,9.8-10.1c5.1-2.3,12.1-1.8,15.8-3.2c3.7-1.4-1.4-2.7,6.1,1.4c7.4,4.1,12.1,11.9,15.8,12.4c3.7,0.4,6.1,3.2,3.7,5
			c-2.3,1.8-6.1,3.2-7.5,3.2c-1.4,0-2.3,3.7-0.9,4.1c1.4,0.5,4.6,6.4,7,4.6c2.3-1.8-0.8-4.8,3.4-6.2c4.2-1.4,9.2-3,7.4-5.7
			c-1.9-2.7-3.7-5.9,0-4.1c3.7,1.8,8.1,1.5,3.9-2.6c-4.2-4.1-6.7-4.7-11.8-8.4c-5.1-3.7-10.7-5.5-10.7-8.2c0-2.7-3.3-7.8,1.9-5.9
			c5.1,1.8,22.8,11.4,22.8,15.1c0,3.7,4.7,10.1,0.5,13.3c-4.2,3.2,4.2,4.1,6,5.9c1.9,1.8,1,6.9,6.1,6c5.1-0.9,8.9-0.5,6-5.5
			c-2.8-5-7.4-7.3-2.8-9.1c4.6-1.8,5.6-4.1,7,3.7c1.4,7.8-0.5,10.5,10.7,11c11.2,0.5,18.6-2.7,20,0.5
			C937.9,814.4,939.8,819.9,937,825.4z M955.1,791c-7.4-0.5-18.5,0-24.5,0c-6,0-12.1,1.6-12.1,1.6c-5.1-0.9-15-1.2-9-8.9
			c6.1-7.8,2.3-17.8,9.8-15.1c7.4,2.7,7.8,12.5,12.4,6.1c4.6-6.4,9.9-12.9,11.3-7.9c1.4,5-6.5,9.2,3.3,13.3
			C956,784.2,962.6,791.5,955.1,791z M1000.9,810.5c-7,0-16.4-3.9-16.4-7.5c0-3.7-0.8-8.3-0.8-8.3c-2.4-10.3-9.6-11.3-9.6-17.2
			c0-5.9,5.6-10.6,13.1-10.6c7.4,0,16.8,0.1,11.2,6.5c-5.6,6.4-16.4,5.8-8.9,15.9C997.1,799.3,1007.9,810.5,1000.9,810.5z"/>
		<path class="st10" d="M1254.9,874.6c3.7,1,4.7-13.9-2.1-11.8C1246,864.8,1250.6,873.4,1254.9,874.6z"/>
		<path class="st10" d="M1263.3,919.2c3.1,2.1,3.7,5.7,3.1,11.3c-0.5,5.7-5.7,5.1,3.1,8.7c8.9,3.6,19.4,9.8,16.7-1.5
			c-2.6-11.3-0.5-12.9-9.9-21.6c-9.4-8.7-9.9-3.1-11-10.3c-1-7.2-3.7-20.6-7.3-15.4c-3.2,4.5-5.7,6.2-2.1,13.9
			C1259.7,912,1260.2,917.2,1263.3,919.2z"/>
		<path class="st10" d="M1243.5,937.2c-3.2,4-9.4,12.9-13.6,15.9c-4.2,3.1-11.5-1-11,6.2c0.5,7.2,1,10.3,1.6,15.4
			c0.5,5.1,1.6,8.2,9.4,8.2c7.8,0,11.5,2.6,14.1,1.5c2.6-1,2.1-5.7,5.2-11.8c3.1-6.2,8.4-4.6,6.3-9.3c-2.1-4.6-2.1-3.6-2.1-8.2
			c0-4.6,2.6-1.5,1-9.3C1252.9,938.3,1247.1,932.6,1243.5,937.2z"/>
		<path class="st10" d="M1353.8,985.1c-6.8-7.2-18.3-12.3-23-11.8c-4.7,0.5-8.9,7.7-11.5,5.1c-2.6-2.6-10.5-14.9-14.6-11.3
			c-4.2,3.6,0.5,7.7-4.7,7.7c-5.2,0-6.8,6.2-7.8-2.1c-1-8.2-5.2-12.3-6.3-6.2c-1,6.2-1.6,10.3-4.2,5.7c-2.6-4.6-4.2-1.5-4.2-6.2
			c0-4.6-10.5-9.8-14.6-4.6c-2.6,3.2-3.7,3.6-4.7,10.8c-1,7.2-3.7,18.5,2.1,15.4c5.8-3.1,6.8-0.5,9.4-4.1c2.6-3.6,5.8-5.7,10.5-3.6
			c4.7,2.1,2.6,2.1,11,1c8.4-1,12.6-1,18.3,2.6c5.8,3.6,17.3,1.5,17.3,5.1c0,3.6-12,6.2,0,9.8c12,3.6,14.6,11.8,18.3,7.7
			c3.7-4.1,8.9-9.8,12.5-5.7c3.7,4.1,17.8,15.4,15.2,9.3c-2.6-6.2-2.1-11.8,6.3-18.5c8.4-6.7,6.3-9.8,2.6-9.8c-3.7,0-3.7,4.6-12,5.7
			C1361.1,988.2,1360.6,992.3,1353.8,985.1z"/>
		<path class="st10" d="M1357.5,1051.4c-4.7-11.8-4.7-21.1-7.3-26.2c-2.6-5.1-0.5-11.3-8.4-11.3c-3.2,0-3.1,2.1-5.8,8.7
			c-2.6,6.7,0.5,19-6.3,17.5s-9.9-4.6-11.5-11.3c-1.6-6.7,2.1-12.9-3.1-12.9c-5.2,0-19.9-3.6-23.5,2.1c-3.7,5.7,1,7.7-6.8,7.7
			c-7.8,0-11,0-15.2,5.1c-4.2,5.1-9.9,19.5-32.4,20.6c-22.5,1-11,12.9-11,25.7c0,12.9-12,20.6-6.8,25.2c5.2,4.6-1.6,10.8,9.4,7.2
			c11-3.6,20.9-4.6,38.2-7.2c17.3-2.6,25.1-3.6,25.6,4.6c0.5,8.2-2.1,2.6,4.7,4.1c6.8,1.5-0.5,12.3,7.3,13.4c7.8,1,1.3,8.4,8.1,8.4
			c6.8,0,5,5.4-0.8,5.4c-5.8,0-5.9,14.6,2.4,10.5c8.4-4.1,14.8-7.8,14.8-14c0-6.2-1-6.7,8.9-14.4c9.9-7.7,33-26.2,31.4-41.1
			C1367.9,1064.3,1362.2,1063.3,1357.5,1051.4z"/>
	</g>
</g>
<g>
	<path class="st13" d="M1258.7,80.7h-253.8c-126.5,0-228.1,110.7-228.1,248.4v16.8c0,137.6,101.6,248.1,228.1,248.1h82.1
		l-51.5,148.2l196.3-148.2h26.9c126.5,0,227-110.4,227-248.1v-16.8C1485.7,191.5,1385.2,80.7,1258.7,80.7z"/>
	<g>
		<path class="st5" d="M1004.9,593.9h82.1l-51.5,148.2l196.3-148.2h26.9c125.1,0,224.7-107.2,226.9-242.6H776.9
			C779.1,486.7,879.8,593.9,1004.9,593.9z"/>
	</g>
	<ellipse class="st12" cx="951.7" cy="351.4" rx="51" ry="55.5"/>
	<ellipse class="st12" cx="1131.2" cy="351.4" rx="51" ry="55.5"/>
	<ellipse class="st12" cx="1310.8" cy="351.4" rx="51" ry="55.5"/>
</g>
<g>
	<path class="st14" d="M1612.3,343.7h182.6c91.1,0,165,80.3,165,179.4v12.1c0,99-73.9,178.8-165,178.8h-59.1l37.1,106.7
		l-141.2-106.7h-19.4c-91.1,0-164.1-79.8-164.1-178.8v-12.1C1448.1,424,1521.2,343.7,1612.3,343.7z"/>
	<g>
		<path class="st7" d="M1795.2,713.9h-59.3l37.2,105.5l-141.7-105.5H1612c-90.3,0-162.2-79.1-163.8-173.6h511.7
			C1958.2,634.8,1885.5,713.9,1795.2,713.9z"/>
	</g>
</g>
<g>
	<path class="st2" d="M619.5,257.1V359h93.4c-0.4,56.2-41.9,100.8-93.2,100.8c-51.5,0-93.3-45.3-93.3-101.3
		C526.4,302.5,567.9,257.1,619.5,257.1z"/>
	<path class="st0" d="M631.3,243.8c51.6,0,91.6,45.6,91.6,101.4c0,0.2,0.3,1,0.3,1h-91.9V243.8z"/>
</g>
<path class="st4" d="M756.4,87.3c-55.8,35.4-61.1,57-28.7,117.8c-32.4-60.8-52.2-66.5-108-31.1c55.8-35.4,61.1-57,28.7-117.8
	C680.7,116.9,700.6,122.6,756.4,87.3z"/>
<path class="st4" d="M561.9,146.5c-26.5,16.8-29.1,27.1-13.7,56c-15.4-28.9-24.8-31.6-51.4-14.8c26.5-16.8,29.1-27.1,13.7-56
	C526,160.6,535.4,163.3,561.9,146.5z"/>
<path class="st4" d="M1806.7,256.5c-26.5,16.8-29.1,27.1-13.7,56c-15.4-28.9-24.8-31.6-51.4-14.8c26.5-16.8,29.1-27.1,13.7-56
	C1770.8,270.7,1780.2,273.4,1806.7,256.5z"/>
<path class="st4" d="M1644.2,160.7c-40.5,54.8-38.3,77,11.9,121.2c-50.2-44.2-70.6-41.8-111.1,13c40.5-54.8,38.3-77-11.9-121.2
	C1583.3,217.8,1603.7,215.5,1644.2,160.7z"/>
<path class="st4" d="M472.1,325.6c-40.5,54.8-38.3,77,11.9,121.2c-50.2-44.2-70.6-41.8-111.1,13c40.5-54.8,38.3-77-11.9-121.2
	C411.3,382.7,431.6,380.3,472.1,325.6z"/>
<g>
	<path class="st13" d="M398.7,185.8c-28.7,0.6-51.7,25.6-51.7,56.4c0,31.2,23.7,56.4,52.9,56.4c8.4,0,16.4-2.1,23.5-5.9l-25.8-50.6
		L398.7,185.8z"/>
	<path class="st14" d="M406.7,177l-1.8,61l53.9,16.9c1.6-6.1,2.4-12.6,2.1-19.3C459.8,203.3,435.9,178,406.7,177z"/>
	<polyline class="st14" points="439.9,298.1 402.8,241.9 463.2,264.6 	"/>
	<path class="st14" d="M463.2,264.6l-60.5-22.7l37.2,56.2C450.6,289.8,458.8,278.1,463.2,264.6z"/>
</g>
<g>
	<rect x="1624.2" y="1150.5" class="st11" width="11.7" height="46"/>
	<rect x="1642.9" y="1150.5" class="st11" width="14.1" height="46"/>
	<polygon class="st11" points="1668.6,1052.8 1687.5,1120.8 1674.1,1121.3 1656.4,1053.3 	"/>
	<polygon class="st11" points="1611.7,1052.8 1593,1120.9 1606.5,1121.3 1623.9,1053.2 	"/>
	<ellipse class="st11" cx="1639" cy="1033.3" rx="15.5" ry="16.8"/>
	<ellipse class="st11" cx="1732.9" cy="1032.4" rx="15.5" ry="16.8"/>
	<polygon class="st11" points="1767.7,1118.6 1751.1,1052.6 1732.9,1052.6 1716.2,1052.6 1699.5,1118.6 1710.1,1118.6 
		1714.3,1105.6 1714.1,1196.5 1730.1,1196.5 1730.1,1139.9 1732.9,1139.9 1736.6,1139.9 1736.6,1196.5 1753.2,1196.5 1753,1105.6 
		1757.1,1118.6 	"/>
	<polygon class="st11" points="1649.8,1053.5 1639.9,1053.5 1629.9,1053.5 1606.7,1145.4 1639.9,1145.4 1673.1,1145.4 	"/>
</g>
<path class="st8" d="M1499.2,1479.6c19.6,19.7,53.1,15.1,74.7-10.3l0,0c21.6-25.4,23.2-62.1,3.6-81.8l-130-130.7
	c-9.8-16.5-88.1,83.9-78.3,92.1L1499.2,1479.6z"/>
<path class="st11" d="M1476.4,1484.2l-0.3-0.3c-3.8-3.8-4.3-9.8-1.2-13.4l91.7-107.9c3.1-3.6,8.6-3.5,12.4,0.3l22.8,22.9
	c0,0,0,0.1,0.1,0.1l163.7,164.6c41.6,41.8,52.3,102.9,23.9,136.3c-28.4,33.4-85.2,26.6-126.8-15.2L1476.4,1484.2L1476.4,1484.2z"/>
<path class="st14" d="M1004.2,1358.9c128.3,129,328.3,120.4,446.9-19.1c118.6-139.5,110.7-357.1-17.5-486.1
	c-128.2-129-328.3-120.4-446.9,19.1C868.1,1012.3,875.9,1229.9,1004.2,1358.9z M1129.3,1340.5c-24.7-11.1-47.9-27.1-68.7-48
	c-94.5-95.1-100.3-255.5-12.9-358.3c43-50.5,100.4-77.7,158.9-81.1c60.6-3.5,122.4,18.7,170.5,67c94.5,95,100.3,255.5,12.9,358.3
	C1321.8,1358.7,1217,1380.1,1129.3,1340.5z"/>
<path class="st3" d="M995.6,1179.3c37.1,134.1,167.1,210.2,290.4,169.9c123.3-40.3,193.2-181.7,156.2-315.9
	c-37.1-134.1-167.1-210.2-290.4-169.9C1028.4,903.7,958.5,1045.1,995.6,1179.3z"/>
<path class="st15" d="M1059.4,1291.2c20.8,20.9,43.5,36.2,67.5,46.7l0,0c-61.4-304.3,74.8-481.3,78.5-486.1
	c-58.5,3.3-116,30.6-158.9,81.1C959.1,1035.7,964.8,1196.1,1059.4,1291.2z"/>
<rect x="228.3" y="1165.1" class="st6" width="29.7" height="90.6"/>
<rect x="271.4" y="1135.6" class="st6" width="29.7" height="120.1"/>
<rect x="400.6" y="1135.6" class="st6" width="29.7" height="120.1"/>
<rect x="314.5" y="1020.5" class="st6" width="29.7" height="235.2"/>
<rect x="357.5" y="1068.4" class="st6" width="29.7" height="187.4"/>
<rect x="443.7" y="987.1" class="st6" width="29.7" height="268.6"/>
</svg>
