<?xml version="1.0" encoding="utf-8"?>
<!-- Generator: Adobe Illustrator 16.0.0, SVG Export Plug-In . SVG Version: 6.00 Build 0)  -->
<!DOCTYPE svg PUBLIC "-//W3C//DTD SVG 1.1//EN" "http://www.w3.org/Graphics/SVG/1.1/DTD/svg11.dtd">
<svg version="1.1" id="Layer_1" xmlns="http://www.w3.org/2000/svg" xmlns:xlink="http://www.w3.org/1999/xlink" x="0px" y="0px"
	 width="2000px" height="2000px" viewBox="0 0 2000 2000" style="enable-background:new 0 0 2000 2000;" xml:space="preserve">
<style type="text/css">
<![CDATA[
	.st0{fill-rule:evenodd;clip-rule:evenodd;fill:#E25856;}
	.st1{fill-rule:evenodd;clip-rule:evenodd;fill:#1F8AC2;}
	.st2{fill-rule:evenodd;clip-rule:evenodd;fill:#28343A;}
	.st3{fill-rule:evenodd;clip-rule:evenodd;fill:#2B363C;}
	.st4{fill-rule:evenodd;clip-rule:evenodd;fill:#2D383E;}
	.st5{fill-rule:evenodd;clip-rule:evenodd;fill:#C9D0DB;}
	.st6{fill-rule:evenodd;clip-rule:evenodd;fill:#FEFEFE;}
	.st7{fill-rule:evenodd;clip-rule:evenodd;fill:#61B86E;}
]]>
</style>
<g>
	<path class="st1" d="M1999.6,911.4c0,57.1,0,114.2,0,171.3c-2.9,0.9-3.7,3.1-3.8,5.9c-0.3,30.1-6.3,59.4-11.2,89
		c-14.8,90.2-43.7,175.8-83.3,257.6c-37.5,77.5-84.7,149-141.8,213.9c-54.5,61.9-114,117.8-181.1,165.6
		c-69.6,49.5-144.5,89.3-224.3,118.8c-69.5,25.7-141.1,43.8-214.9,53.2c-15.8,2-33-1.9-47.9,6.9c-56.9,0-113.9,0-170.8,0
		c-0.9-2.9-3.1-3.8-5.9-3.8c-30-0.3-59.3-6.3-88.8-11.2c-90-14.8-175.3-43.9-256.8-83.6c-77.3-37.7-148.6-84.9-213.3-142.2
		c-61.7-54.7-117.5-114.3-165.1-181.7c-49.4-69.8-89-144.9-118.5-225c-25.7-69.7-43.7-141.5-53.1-215.5c-2-15.9,1.9-33.1-6.9-48
		c0-57.1,0-114.2,0-171.3c2.9-0.9,3.7-3.1,3.8-5.9c0.3-30.1,6.3-59.4,11.2-89.1c14.8-90.2,43.7-175.8,83.4-257.6
		c37.5-77.5,84.7-149,141.8-213.9c54.5-61.9,114-117.8,181.1-165.6c69.6-49.5,144.5-89.3,224.3-118.8
		c69.5-25.7,141.1-43.8,214.9-53.2c15.8-2,33,1.9,47.9-6.9c56.9,0,113.9,0,170.8,0c0.9,2.9,3.1,3.8,5.9,3.8
		c30,0.3,59.3,6.3,88.8,11.2c90,14.8,175.3,43.9,256.8,83.6c77.3,37.7,148.6,84.9,213.3,142.2c61.7,54.7,117.5,114.3,165.1,181.7
		c49.4,69.8,89,144.9,118.5,225c25.7,69.7,43.7,141.5,53.1,215.5C1994.7,879.2,1990.8,896.4,1999.6,911.4z M1440.6,996.9
		c0-186.2,0-372.3,0-558.5c0-47.3-17.1-64.3-64.3-64.3c-247.1,0-494.2,0-741.3,0c-46.7,0-63.1,16.2-63.1,62.8
		c0,373.6-0.1,747.3,0,1120.9c0,45.5,16.7,62.2,61.8,62.2c247.1,0,494.2,0,741.3,0c50.2,0,65.7-15.7,65.7-66.6
		C1440.6,1367.9,1440.6,1182.4,1440.6,996.9z"/>
	<path class="st2" d="M1440.6,996.9c0,185.5,0,371,0,556.6c0,50.9-15.5,66.6-65.7,66.6c-247.1,0-494.2,0-741.3,0
		c-45.1,0-61.8-16.6-61.8-62.2c-0.1-373.6-0.1-747.3,0-1120.9c0-46.6,16.5-62.8,63.1-62.8c247.1,0,494.2,0,741.3,0
		c47.2,0,64.3,17,64.3,64.3C1440.7,624.6,1440.6,810.7,1440.6,996.9z M652.7,921.1c0,146,0.2,292-0.3,437.9
		c-0.1,14.8,3,19.8,19,19.8c223.2-0.6,446.4-0.5,669.6-0.1c14.6,0,18.3-4,18.3-18.5c-0.4-292-0.4-583.9,0-875.9
		c0-14.6-3.6-18.1-18.1-18.1c-223.2,0.5-446.4,0.6-669.6-0.1c-17.4-0.1-19.3,5.8-19.3,20.9C652.9,631.7,652.7,776.4,652.7,921.1z
		 M1086.8,1498.4c0-44.7-36.4-80.5-81.6-80.4c-44,0.1-79.9,35.7-80.4,79.7c-0.5,44.3,36.5,82,80.7,82.4
		C1049.4,1580.3,1086.9,1542.7,1086.8,1498.4z M749.6,1534.2c14.9,0,29.7,0,44.6,0c53.1,0,52.6,0,51.9-53.1
		c-0.2-13.5-4.4-18.1-17.9-17.8c-40.7,0.7-81.5,0.2-122.2,0.2c-56,0-55.7,0-52.8,56.5c0.5,11,4.2,14.7,14.9,14.4
		C695.3,1533.8,722.5,1534.2,749.6,1534.2z M1264,1462.9c-14.9,0-29.7,0-44.6,0c-55,0-54.4,0-54.4,54.6c0,15.4,5.7,18.2,19.3,18
		c40-0.7,80.1-0.3,120.1-0.3c56.1,0,55.7,0,54.4-56.3c-0.3-13.4-5.4-16.4-17.3-16.1C1315.7,1463.3,1289.9,1462.9,1264,1462.9z"/>
	<path class="st6" d="M652.7,921.1c0-144.7,0.2-289.4-0.3-434c-0.1-15,1.9-20.9,19.3-20.9c223.2,0.7,446.4,0.6,669.6,0.1
		c14.5,0,18.1,3.4,18.1,18.1c-0.5,292-0.5,583.9,0,875.9c0,14.5-3.7,18.5-18.3,18.5c-223.2-0.5-446.4-0.5-669.6,0.1
		c-16,0-19.1-5-19-19.8C652.9,1213.1,652.7,1067.1,652.7,921.1z M893.5,989.2c8.3-23.7-0.7-35.8-21.1-43
		c-15-5.3-29.5-12.4-43.6-19.9c-12.1-6.4-26.5-9.1-37-21.3c29-13.4,56.9-26.1,84.7-39c22.6-10.5,23.8-13.5,16-40.1
		c-41.3,19.2-82.3,38.8-123.8,57.3c-9.5,4.2-13,9.6-11.4,19c1.7,9.8-5.7,22,8.9,28.5C808.7,949.8,850.9,969.5,893.5,989.2z
		 M1118,988.9c43.2-19.8,86.2-39.3,129-59.4c10.5-5,11.6-38.6,1.1-43.6c-43.1-20.7-86.6-40.4-130.2-60.7c-6.4,22.2-1,35,20.4,42.9
		c27.6,10.2,54,23.9,85.4,38.1c-30.8,14.6-56.1,28.6-82.9,38.8C1120.2,953,1109.7,963.7,1118,988.9z M1083.6,786.1
		c-17.5-3.2-28.5-1.6-36.9,17.2c-30.1,67.9-62.6,134.8-94,202.1c-8.2,17.5-15.8,35.3-23.1,51.6c21.8,9.9,30.5-2.2,37.3-18.8
		c5.5-13.6,12.2-26.8,18.4-40.2C1017.9,927.7,1050.5,857.5,1083.6,786.1z"/>
	<path class="st5" d="M1086.8,1498.4c0,44.4-37.5,82-81.4,81.6c-44.2-0.3-81.1-38.1-80.7-82.4c0.5-43.9,36.4-79.6,80.4-79.7
		C1050.4,1417.9,1086.8,1453.7,1086.8,1498.4z"/>
	<path class="st7" d="M749.6,1534.2c-27.2,0-54.3-0.4-81.5,0.2c-10.8,0.2-14.4-3.5-14.9-14.4c-2.8-56.5-3.1-56.5,52.8-56.5
		c40.7,0,81.5,0.4,122.2-0.2c13.5-0.2,17.7,4.3,17.9,17.8c0.7,53.1,1.2,53.1-51.9,53.1C779.4,1534.2,764.5,1534.2,749.6,1534.2z"/>
	<path class="st0" d="M1264,1462.9c25.8,0,51.7,0.4,77.5-0.2c11.9-0.3,17,2.8,17.3,16.1c1.3,56.4,1.8,56.3-54.4,56.3
		c-40,0-80.1-0.5-120.1,0.3c-13.6,0.3-19.3-2.5-19.3-18c0-54.6-0.6-54.6,54.4-54.6C1234.3,1462.9,1249.2,1462.9,1264,1462.9z"/>
	<path class="st4" d="M893.5,989.2c-42.7-19.7-84.8-39.4-127.3-58.5c-14.6-6.5-7.2-18.7-8.9-28.5c-1.7-9.4,1.9-14.8,11.4-19
		c41.5-18.5,82.5-38.1,123.8-57.3c7.8,26.5,6.6,29.6-16,40.1c-27.8,12.9-55.7,25.7-84.7,39c10.5,12.2,24.9,14.9,37,21.3
		c14.1,7.5,28.6,14.6,43.6,19.9C892.8,953.4,901.8,965.5,893.5,989.2z"/>
	<path class="st4" d="M1118,988.9c-8.4-25.2,2.1-35.9,22.9-43.8c26.8-10.2,52.1-24.2,82.9-38.8c-31.5-14.2-57.8-27.9-85.4-38.1
		c-21.4-7.9-26.9-20.8-20.4-42.9c43.6,20.2,87.1,40,130.2,60.7c10.4,5,9.4,38.6-1.1,43.6C1204.3,949.6,1161.2,969.1,1118,988.9z"/>
	<path class="st3" d="M1083.6,786.1c-33.1,71.4-65.7,141.7-98.3,211.9c-6.2,13.4-12.8,26.6-18.4,40.2c-6.8,16.6-15.5,28.7-37.3,18.8
		c7.3-16.4,14.9-34.1,23.1-51.6c31.4-67.3,63.9-134.2,94-202.1C1055.1,784.5,1066.1,782.8,1083.6,786.1z"/>
</g>
</svg>
