<?xml version="1.0" encoding="utf-8"?>
<!-- Generator: Adobe Illustrator 16.0.0, SVG Export Plug-In . SVG Version: 6.00 Build 0)  -->
<!DOCTYPE svg PUBLIC "-//W3C//DTD SVG 1.1//EN" "http://www.w3.org/Graphics/SVG/1.1/DTD/svg11.dtd">
<svg version="1.1" id="Layer_1" xmlns="http://www.w3.org/2000/svg" xmlns:xlink="http://www.w3.org/1999/xlink" x="0px" y="0px"
	 width="2000px" height="2000px" viewBox="0 0 2000 2000" style="enable-background:new 0 0 2000 2000;" xml:space="preserve">
<style type="text/css">
<![CDATA[
	.st0{fill-rule:evenodd;clip-rule:evenodd;fill:#E45957;}
	.st1{fill-rule:evenodd;clip-rule:evenodd;fill:#83898E;}
	.st2{fill-rule:evenodd;clip-rule:evenodd;fill:#1F8AC2;}
	.st3{fill-rule:evenodd;clip-rule:evenodd;fill:#263238;}
	.st4{fill-rule:evenodd;clip-rule:evenodd;fill:#FEB64D;}
	.st5{fill-rule:evenodd;clip-rule:evenodd;fill:#FEFEFE;}
	.st6{fill-rule:evenodd;clip-rule:evenodd;fill:#63BB6F;}
	.st7{fill-rule:evenodd;clip-rule:evenodd;fill:#CDD4DF;}
	.st8{fill-rule:evenodd;clip-rule:evenodd;fill:#324A5E;}
]]>
</style>
<path class="st2" d="M1996.6,937.4c0,41.5,0,83,0,124.5c-2,16.1-1.8,32.4-2.6,48.6c-1.8,34.4-8.3,67.9-15.4,101.4
	c-17.6,82.9-46.4,162-84.9,237.4c-37.9,74.3-84.8,142.8-140.1,205.6c-57.9,65.8-123.4,122.8-196.2,171.4
	c-90.1,60.2-187.7,104.3-292.5,132.9c-45.9,12.5-92.4,22-139.7,27.1c-17.9,1.9-35.9,2.5-53.9,2.7c-3.4,0-6.9-1.1-10.2,0.9
	c-41.8,0-83.7,0-125.5,0c-16.3-1.9-32.7-1.7-49-2.6c-34.6-1.7-68.5-8.3-102.2-15.3c-83.5-17.5-163.3-46-239.4-84.2
	c-74.9-37.7-143.9-84.2-207.3-139c-66.3-57.4-123.8-122.4-172.8-194.7c-60.7-89.4-105.2-186.2-134-290.1
	c-12.6-45.5-22.2-91.6-27.3-138.6c-1.9-17.7-2.5-35.6-2.7-53.5c0-3.4,1.1-6.9-0.9-10.1c0-41.5,0-83,0-124.5
	c2-16.1,1.8-32.4,2.6-48.6c1.8-34.4,8.3-67.9,15.5-101.4c17.7-82.8,46.4-162,84.9-237.4c38-74.3,84.8-142.8,140.1-205.6
	c57.9-65.8,123.4-122.8,196.2-171.4C529.4,112.8,627,68.6,731.8,40c45.9-12.5,92.4-22,139.7-27.1c17.9-1.9,35.9-2.5,53.9-2.7
	c3.4,0,6.9,1.1,10.2-0.9c41.8,0,83.7,0,125.5,0c16.3,1.9,32.7,1.7,49,2.6c34.6,1.7,68.5,8.3,102.2,15.3
	c83.5,17.5,163.3,46,239.4,84.2c74.9,37.7,143.9,84.2,207.3,139c66.3,57.4,123.8,122.4,172.8,194.7c60.8,89.6,105.4,186.8,134.3,291
	c12.5,45.2,22,91,27.1,137.6c1.9,17.7,2.5,35.6,2.7,53.5C1995.8,930.7,1994.7,934.2,1996.6,937.4z"/>
<path class="st5" d="M490.8,1514.6c-0.1-3.1-0.2-6.3-0.2-9.4c0-197.4,0-394.9,0-592.3c0.6-5.1,4.7-5.3,8.4-5.7
	c4.1-0.4,8.2-0.2,12.3-0.2c324.6,0,649.2,0,973.9,0c4.1,0,8.2-0.1,12.3,0.2c3.8,0.3,7.8,0.6,8.4,5.7c0,197.4,0,394.9,0,592.3
	c0,3.1-0.1,6.3-0.2,9.4c-2.4,2.9-5.6,3.9-9.3,3.9c-3.8,0.1-7.6,0.1-11.4,0.1c-324.6,0-649.1,0-973.7-0.1
	C504.5,1518.6,496.7,1520.9,490.8,1514.6z"/>
<path class="st7" d="M1506.1,912.9c-3-2.6-6.6-1.7-10-1.7c-331.8,0-663.6,0-995.4,0c-3.4,0-7-0.8-10,1.7c-2.6-3-1.6-6.6-1.6-10
	c-0.1-78.3-0.1-156.5,0-234.8c0-3.3-1.2-7,1.6-9.9c2.5-2.7,5.6-3.9,9.3-3.9c3.8,0,7.6-0.1,11.4-0.1c324.7,0,649.3,0,974,0.1
	c7,0,14.8-2.2,20.7,3.9c2.8,2.9,1.6,6.6,1.6,9.9c0.1,78.3,0.1,156.5,0,234.8C1507.7,906.3,1508.6,909.9,1506.1,912.9z"/>
<path class="st5" d="M1506,658.3c-203.8,0-407.6,0.1-611.3,0.1c-134.7,0-269.4-0.1-404.1-0.1c0.1-13.8,0.2-27.7,0.2-41.5
	c3.7-4.6,9-3.9,14-4c39.9-0.1,79.8,0,119.6-0.1c15.6,0,16-0.5,16.1-15.8c0-17.6,0.1-35.2,0-52.7c-0.1-10.5-1.5-12-12.2-12
	c-40.8-0.2-81.7,0-122.5-0.1c-5.3,0-10.9,0.9-15-4c0-14.4,0-28.9-0.1-43.3c2.4-2.9,5.6-3.9,9.3-3.9c3.8-0.1,7.6-0.1,11.4-0.1
	c324.6,0,649.1,0,973.7,0.1c7,0,14.8-2.3,20.7,4c0.1,14.3,0.1,28.7,0.2,43c-3.4,5.2-8.8,4.2-13.7,4.2c-39.3,0.2-78.5,0.1-117.8,0.1
	c-3.5,0-7,0-10.4,0.2c-4.9,0.3-7.7,2.7-7.8,7.6c-0.4,21.7-0.4,43.3,0,65c0.1,4.9,2.9,7.3,7.8,7.6c3.2,0.2,6.3,0.2,9.5,0.2
	c39.3,0,78.5-0.1,117.8,0.1c5.2,0,11-1.3,14.7,4.2C1506,630.8,1506,644.5,1506,658.3z"/>
<path class="st7" d="M1505.8,484.8c-3.5-0.1-7-0.2-10.4-0.2c-331.4,0-662.8,0-994.1,0c-3.5,0-7,0.1-10.4,0.2
	c-0.1-32.1-0.2-64.1-0.4-96.1c0-5.5,1.6-8.4,7.6-7.8c2.2,0.2,4.4,0,6.6,0c329.1,0,658.3,0,987.5,0c14.1,0,14.2,0,14.1,14.4
	C1506.1,425.1,1506,454.9,1505.8,484.8z"/>
<path class="st7" d="M490.8,1514.6c3.5,0.1,7,0.2,10.4,0.2c331.4,0,662.8,0,994.1,0c3.5,0,7-0.1,10.4-0.2c0.1,32,0.2,64.1,0.4,96.1
	c0,5.5-1.6,8.4-7.6,7.8c-2.2-0.2-4.4,0-6.6,0c-329.1,0-658.3,0-987.5,0c-14.1,0-14.2,0-14.1-14.4
	C490.5,1574.3,490.7,1544.5,490.8,1514.6z"/>
<path class="st3" d="M1506,617.1c-48.5-0.1-96.9-0.4-145.4-0.1c-7,0-9-1.5-8.8-8.7c0.5-24.2,0.4-48.4,0-72.6
	c-0.1-6.2,1.7-7.7,7.9-7.7c48.8,0.2,97.6-0.1,146.3-0.2c2.2,1.5,1.9,3.8,1.9,6c0,25.8,0,51.6,0,77.3
	C1507.9,613.2,1508.3,615.6,1506,617.1z"/>
<path class="st3" d="M490.9,528.1c48.4,0,96.8,0.2,145.2-0.2c7.1,0,8.9,1.7,8.8,8.7c-0.5,24.2-0.4,48.3,0,72.5
	c0.1,6.1-1.5,7.8-7.8,7.8c-48.7-0.3-97.4-0.1-146.1-0.1C490.9,587.2,490.9,557.6,490.9,528.1z"/>
<path class="st6" d="M667.7,1035.5c38.9,0,77.9,0.1,116.8-0.1c6.5,0,8.6,1.5,8.6,8.3c-0.2,71.3-0.2,142.6,0,213.9
	c0,6.8-2.1,8.2-8.6,8.2c-77.9-0.2-155.8-0.2-233.7,0c-6.9,0-9.1-1.5-9.1-8.8c0.3-71,0.3-142,0-213c0-7.3,2.2-8.8,9.1-8.7
	C589.8,1035.7,628.8,1035.5,667.7,1035.5z"/>
<path class="st0" d="M998.2,1265.7c-38.3,0-76.6-0.2-115,0.2c-7.8,0.1-10.7-1.1-10.7-10c0.4-70.4,0.4-140.8,0.1-211.1
	c0-7.4,1.9-9.4,9.4-9.3c77.6,0.3,155.2,0.3,232.8,0c7.9,0,9.2,2.5,9.2,9.5c-0.2,70.4-0.3,140.8,0,211.1c0,7.8-1.9,9.9-9.9,9.8
	C1075.5,1265.4,1036.9,1265.7,998.2,1265.7z"/>
<path class="st4" d="M1332,1035.5c38.3,0,76.7,0.2,115-0.1c7.1-0.1,9.8,1.3,9.7,9.1c-0.3,70.7-0.3,141.4,0,212.1
	c0,7.9-2.7,9.2-9.8,9.1c-77.3-0.2-154.6-0.3-231.9,0.1c-8.3,0-9.7-2.6-9.7-10.1c0.3-70.1,0.3-140.2-0.1-210.3
	c0-8.8,2.8-10.2,10.7-10.1C1254.7,1035.7,1293.4,1035.5,1332,1035.5z"/>
<path class="st4" d="M667.5,1329.8c-39,0-77.9-0.4-116.9,0.2c-10.8,0.2-8.6-6-8.7-12c-0.1-6-1.2-11.2,8.6-11.1
	c77.9,0.4,155.8,0.4,233.7,0c10.7-0.1,8.6,6,8.7,12c0.1,6,1.3,11.3-8.6,11.1C745.4,1329.5,706.5,1329.8,667.5,1329.8z"/>
<path class="st6" d="M998.3,1329.8c-38.6,0-77.2-0.4-115.8,0.3c-9.4,0.2-9.9-3.6-9.9-10.9c0-7,0.6-10.4,9.4-10.4
	c77.5,0.4,155.1,0.5,232.6-0.1c10.3-0.1,8.8,5,9.4,11.4c0.7,7.8-1.9,10-9.8,9.9C1075.5,1329.6,1036.9,1329.8,998.3,1329.8z"/>
<path class="st0" d="M1331.2,1329.8c-38.9,0-77.9-0.3-116.8,0.2c-9.4,0.1-8.7-4.4-8.9-10.8c-0.2-6.9,0.3-10.5,9.2-10.5
	c77.6,0.4,155.1,0.5,232.7-0.1c10.2-0.1,8.9,4.9,9.4,11.3c0.6,7.7-1.6,10.1-9.7,10C1408.4,1329.6,1369.8,1329.8,1331.2,1329.8z"/>
<path class="st7" d="M666.4,1380.8c38.3,0,76.6,0.2,114.9-0.2c8.1-0.1,10.2,2.8,10.1,10.4c-0.1,7.2-1.3,10.7-9.8,10.7
	c-76.6-0.3-153.2-0.3-229.7,0c-8.2,0-10.2-2.8-10.1-10.4c0.1-7.2,1.2-10.7,9.8-10.6C589.8,1381,628.1,1380.8,666.4,1380.8z"/>
<path class="st7" d="M997.3,1380.8c38.3,0,76.6,0.2,114.9-0.2c8.2-0.1,10.1,2.9,10,10.4c-0.1,7.2-1.4,10.6-9.9,10.6
	c-76.6-0.3-153.2-0.3-229.8,0c-8.2,0-10.1-2.9-10-10.4c0.1-7.2,1.3-10.7,9.8-10.6C920.7,1381,959,1380.8,997.3,1380.8z"/>
<path class="st7" d="M1330.2,1401.4c-38,0-76-0.2-113.9,0.2c-8.1,0.1-11-2-11-10.5c0-8.4,2.7-10.6,10.9-10.5
	c76,0.3,151.9,0.3,227.8,0c8.1,0,11.1,1.9,11,10.4c0,8.4-2.7,10.6-10.9,10.6C1406.2,1401.2,1368.2,1401.4,1330.2,1401.4z"/>
<path class="st7" d="M610.4,1452.5c20,0,39.9,0.3,59.9-0.2c7.8-0.2,8.9,3.6,8.6,9.8c-0.3,5.7,1,11.2-8.2,11.1
	c-40.2-0.3-80.5-0.3-120.7,0c-9.4,0.1-7.7-5.7-8.1-11.2c-0.4-6.4,0.9-9.9,8.7-9.7C570.5,1452.8,590.4,1452.5,610.4,1452.5z"/>
<path class="st7" d="M941.3,1473.2c-19.6,0-39.3-0.4-58.9,0.2c-8.6,0.3-9.9-3.5-9.7-10.7c0.1-6.5,0.7-10.4,9.1-10.3
	c39.6,0.4,79.2,0.4,118.8,0c9.2-0.1,9,4.6,9.2,11.2c0.2,7.2-1.8,10.1-9.6,9.9C980.6,1472.8,960.9,1473.2,941.3,1473.2z"/>
<path class="st7" d="M1274.1,1452.5c20,0,39.9,0.3,59.9-0.2c7.8-0.2,8.9,3.6,8.6,9.8c-0.3,5.7,1,11.2-8.2,11.1
	c-40.2-0.3-80.5-0.3-120.7,0c-9.4,0.1-7.7-5.7-8.1-11.2c-0.4-6.4,0.9-9.9,8.7-9.7C1234.1,1452.8,1254.1,1452.5,1274.1,1452.5z"/>
<path class="st1" d="M900.8,946.9c13.9,0,24.6,10.7,24.4,24.5c-0.2,13.1-11.3,23.9-24.4,23.8c-13.9-0.1-24.3-10.8-24.2-24.7
	C876.8,956.8,887,946.9,900.8,946.9z"/>
<path class="st8" d="M1055.3,970.8c0,13.6-11.3,24.4-25,24.2c-13.4-0.3-24.2-11-24.1-24.1c0.1-13.7,11-24.1,25-24
	C1044.8,947,1055.4,957.6,1055.3,970.8z"/>
<path class="st1" d="M965.7,946.9c13.6,0.1,24.1,10.6,24.1,23.9c0,13.6-11.1,24.5-24.8,24.3c-13.4-0.2-23.9-10.8-24-24.1
	C941,957.2,951.7,946.7,965.7,946.9z"/>
<path class="st1" d="M1119.7,970.9c-0.1,13.6-11.3,24.5-24.9,24.2c-13.2-0.3-24-11.3-23.9-24.3c0.1-13.7,11-24.1,25-23.9
	C1109.5,947.1,1119.8,957.5,1119.7,970.9z"/>
<path class="st3" d="M781.5,616.8c-22.8,0-45.6-0.2-68.4,0.1c-6.2,0.1-7.9-1.6-7.8-7.7c0.4-24.5,0.4-49,0-73.5
	c-0.1-6.2,1.7-7.8,7.8-7.7c46.2,0.3,92.5,0.3,138.7,0c6.2,0,7.9,1.6,7.8,7.7c-0.4,24.5-0.4,49,0,73.5c0.1,6.2-1.7,7.8-7.8,7.7
	C828.4,616.5,805,616.8,781.5,616.8z"/>
<path class="st3" d="M999.3,616.8c-23.1,0-46.2-0.2-69.3,0.1c-6.1,0.1-7.9-1.5-7.8-7.7c0.4-24.8,0.3-49.6,0-74.4
	c-0.1-5.3,1.5-6.8,6.8-6.8c46.9,0.2,93.7,0.2,140.6,0c5.3,0,6.9,1.4,6.9,6.7c-0.3,25.1-0.3,50.3,0,75.4c0.1,5.3-1.5,6.8-6.8,6.8
	C1046.2,616.6,1022.7,616.8,999.3,616.8z"/>
<path class="st3" d="M1214.4,528.1c22.5,0,45,0.2,67.4-0.1c6.9-0.1,9.8,0.9,9.6,8.9c-0.6,23.9-0.4,47.7-0.1,71.6
	c0.1,6.2-1,8.5-8,8.5c-46.2-0.3-92.5-0.3-138.7,0c-6.6,0-7.6-2.2-7.6-8c0.3-24.2,0.5-48.4-0.1-72.5c-0.2-7.5,2.4-8.6,9.1-8.5
	C1168.8,528.3,1191.6,528.1,1214.4,528.1z"/>
</svg>
