<?xml version="1.0" encoding="utf-8"?>
<!-- Generator: Adobe Illustrator 16.0.0, SVG Export Plug-In . SVG Version: 6.00 Build 0)  -->
<!DOCTYPE svg PUBLIC "-//W3C//DTD SVG 1.1//EN" "http://www.w3.org/Graphics/SVG/1.1/DTD/svg11.dtd">
<svg version="1.1" id="Layer_1" xmlns="http://www.w3.org/2000/svg" xmlns:xlink="http://www.w3.org/1999/xlink" x="0px" y="0px"
	 width="2000px" height="2000px" viewBox="0 0 2000 2000" style="enable-background:new 0 0 2000 2000;" xml:space="preserve">
<style type="text/css">
<![CDATA[
	.st0{fill:#EAF1F9;}
	.st1{fill:#EC8457;}
	.st2{fill:#1F8BC3;}
	.st3{fill:#22272B;}
	.st4{fill:#263238;}
	.st5{fill:#5B6375;}
	.st6{fill:#F6F4F4;}
	.st7{fill:#31363D;}
	.st8{fill:#D5D5D5;}
	.st9{fill:#D67040;}
	.st10{fill:#DFC2A9;}
]]>
</style>
<ellipse class="st0" cx="999.8" cy="1019.4" rx="981.1" ry="980.6"/>
<path class="st4" d="M1171.1,212.2h-164H843.3c-71.8,194.7-60.9,453.5-60.9,453.5c8.1,408.8,129.3,449.5,129.3,449.5h95.5h95.6
	c0,0,121.2-40.7,129.3-449.5C1232.1,665.7,1242.9,406.9,1171.1,212.2z"/>
<path class="st2" d="M783.3,701.3c0,0-222.1,159.2-56.5,519.4c0,0,46.1-126.8,173.4-112.2C900.2,1108.5,795.9,1044,783.3,701.3z"/>
<path class="st2" d="M1230.6,701.3c0,0,222.1,159.2,56.5,519.4c0,0-45.4-127-172.7-112.3C1114.4,1108.3,1218,1044,1230.6,701.3z"/>
<path class="st5" d="M1232.1,658.9c-6.9,419.1-130.3,457.2-130.3,457.2l-89.1-0.9v-903h160C1242.7,404,1232.1,658.9,1232.1,658.9z"
	/>
<g>
	<path class="st9" d="M933,1138.6c0,0-101.6-6-88.4,136.9c0,0,24.2-53.6,43.6-39.7c0,0-5,217.3,51.9,187.5c0,0,7.1-40.7,36.6-46.6
		c0,0,21.3,5.8,36.1,24.1v-262.2L933,1138.6z"/>
	<path class="st1" d="M1000,1515.6c0,0,5,5.4,12.7,9v-31.8C1009.3,1500,1005.1,1507.5,1000,1515.6z"/>
	<path class="st1" d="M1169.7,1243.7c0,0-24.4-83.4-93.4-105.2l-63.5,0v262.2c14.1,17.4,22.2,46.2,0,92v31.8
		c21.6,10.3,64.4,6.9,75.7-168.8c0,0,28.4-34.7,42.7,10.9c0,0,8.1,25.8,0,38.7C1131.1,1405.5,1199.1,1403.5,1169.7,1243.7z"/>
</g>
<path class="st7" d="M866.5,1850.6l-151.6-444c0,0-39.9,149.9-294,152.5l96.2,291.5H866.5z"/>
<path class="st10" d="M452.6,1512.7c0,0,89.6,19.3,196.9-84.6l0,0c0,0-21.7-134.3-165.8-213.9c0,0-58.7-34.7-115.7-50.2l0,0
	c0,0-76-29.1-96.9-92.2c-1.6-4.7-4.3-8.9-8.1-12.2c-12.7-10.9-42.8-33.1-69.2-26.2c0,0-41.2,3.9,0,50.7l0,0c0,0,25.2,36.3,40.6,86.7
	c1,3.3,2.4,6.6,4.2,9.6c6.8,11.6,26.4,39.9,66.9,65.7c4.4,2.8,8.5,5.9,12.4,9.2c11,9.5,31.6,28.1,36.8,39.3l0,0
	c0,0-60.4-34.2-75.2-45.8c0,0-47.8-32.7-74.8-105.6c-5.9-16-14.4-31-25.1-44.5c-14-17.8-30.1-44-19.5-61.7c0,0,18.6-40,86.1-7.5l0,0
	c0,0-63-143.3-79.1-246.2c-2.4-15.1-11.2-28.6-24.7-36.3c-18.8-10.8-45.8-9.9-67.1,56.4l0,0c0,0-20,163.1,10.2,253.1l0,0
	c0,0,36.4,144.7,62.1,188l0,0c0,0,79.8,111.7,180.9,159.4C328.5,1403.8,434,1456.2,452.6,1512.7L452.6,1512.7z"/>
<g>
	<path class="st2" d="M679,1442.5l-8-13.5c-97.6,109.4-224.8,100.8-224.8,100.8l10,14.9C588.7,1534.9,650.6,1479.8,679,1442.5z"/>
</g>
<path class="st2" d="M1007.1,0.1c0,0-0.7,0.2-1,0.2c-0.6,0-1.1-0.3-1.1-0.3c-14.6,2.9-103.5,28.4-146.3,179.8h146.3h2h5.6V1.6
	C1010.3,0.8,1008.4,0.4,1007.1,0.1z"/>
<path class="st2" d="M1012.7,1.6v178.3h140.7C1114.5,42.1,1037.1,8.7,1012.7,1.6z"/>
<g>
	<path class="st2" d="M1012.7,1104.4H900.9c0,0,14.9,48.6,111.8,59.5c96.9-10.9,110.7-59.5,110.7-59.5H1012.7z"/>
	<path class="st2" d="M1012.7,1104.4v59.5c-96.9-10.9-117.8-59.5-117.8-59.5H1012.7z"/>
</g>
<g>
	<path class="st6" d="M1012.2,288.6c-63.6,0-115.3,50.5-115.3,112.6c0,62.1,51.7,112.6,115.3,112.6c63.6,0,115.3-50.5,115.3-112.6
		C1127.5,339.2,1075.8,288.6,1012.2,288.6z M1089.3,442.1c-1.3,2.4-2.8,4.8-4.4,7.1c-0.8,1.1-1.6,2.3-2.4,3.4
		c-1.7,2.2-3.5,4.3-5.4,6.3c-4.7,5.1-10,9.6-15.9,13.4c-3.5,2.3-7.2,4.4-11,6.2c-11.5,5.4-24.4,8.4-38,8.4c-13.6,0-26.5-3-38-8.4
		c-3.8-1.8-7.5-3.9-11-6.2c-3.5-2.3-6.8-4.9-9.9-7.6c-2.1-1.8-4.1-3.8-5.9-5.8c-1.9-2-3.7-4.1-5.4-6.3c-0.8-1.1-1.7-2.2-2.4-3.4
		c-1.6-2.3-3-4.6-4.4-7.1c-6.7-12.1-10.6-26-10.6-40.8c0-17.7,5.5-34.2,15-47.9c0.8-1.1,1.6-2.3,2.4-3.4c1.7-2.2,3.5-4.3,5.4-6.3
		c1.9-2,3.9-4,5.9-5.8c3.1-2.8,6.4-5.3,9.9-7.6c3.5-2.3,7.2-4.4,11-6.2c2.6-1.2,5.2-2.3,7.9-3.2c2.7-1,5.4-1.8,8.2-2.5
		c7-1.8,14.3-2.7,21.9-2.7c7.6,0,14.9,0.9,21.9,2.7c2.8,0.7,5.5,1.5,8.2,2.5c2.7,1,5.3,2,7.9,3.2c3.8,1.8,7.5,3.9,11,6.2
		c5.8,3.8,11.2,8.4,15.9,13.4c1.9,2,3.7,4.1,5.4,6.3c0.8,1.1,1.7,2.2,2.4,3.4c9.5,13.7,15,30.1,15,47.9
		C1099.9,416.1,1096,430,1089.3,442.1z"/>
</g>
<g>
	<path class="st6" d="M1012.7,563.7c-31.5,0-57.2,25.1-57.2,55.9c0,30.8,25.7,55.9,57.2,55.9c31.5,0,57.2-25.1,57.2-55.9
		C1069.9,588.8,1044.3,563.7,1012.7,563.7z M1051,639.8c-0.7,1.2-1.4,2.4-2.2,3.5c-0.4,0.6-0.8,1.1-1.2,1.7
		c-0.8,1.1-1.7,2.1-2.7,3.1c-2.3,2.5-5,4.8-7.9,6.7c-1.7,1.1-3.6,2.2-5.5,3.1c-5.7,2.7-12.1,4.2-18.8,4.2c-6.8,0-13.1-1.5-18.8-4.2
		c-1.9-0.9-3.7-1.9-5.5-3.1c-1.7-1.1-3.4-2.4-4.9-3.8c-1-0.9-2-1.9-2.9-2.9c-0.9-1-1.8-2.1-2.7-3.1c-0.4-0.5-0.8-1.1-1.2-1.7
		c-0.8-1.1-1.5-2.3-2.2-3.5c-3.3-6-5.2-12.9-5.2-20.2c0-8.8,2.7-17,7.4-23.7c0.4-0.6,0.8-1.1,1.2-1.7c0.8-1.1,1.7-2.1,2.7-3.1
		c0.9-1,1.9-2,2.9-2.9c1.5-1.4,3.2-2.6,4.9-3.8c1.7-1.1,3.6-2.2,5.5-3.1c1.3-0.6,2.6-1.1,3.9-1.6c1.3-0.5,2.7-0.9,4.1-1.2
		c3.5-0.9,7.1-1.3,10.9-1.3c3.8,0,7.4,0.5,10.9,1.3c1.4,0.3,2.8,0.8,4.1,1.2c1.3,0.5,2.6,1,3.9,1.6c1.9,0.9,3.7,1.9,5.5,3.1
		c2.9,1.9,5.5,4.1,7.9,6.7c0.9,1,1.8,2.1,2.7,3.1c0.4,0.5,0.8,1.1,1.2,1.7c4.7,6.8,7.4,14.9,7.4,23.7
		C1056.2,626.9,1054.3,633.8,1051,639.8z"/>
</g>
<g>
	<path class="st6" d="M1012.2,357.9c-24.5,0-44.4,19.5-44.4,43.4c0,23.9,19.9,43.4,44.4,43.4c24.5,0,44.4-19.5,44.4-43.4
		C1056.6,377.3,1036.7,357.9,1012.2,357.9z M1041.9,417c-0.5,0.9-1.1,1.8-1.7,2.7c-0.3,0.4-0.6,0.9-0.9,1.3
		c-0.6,0.8-1.3,1.7-2.1,2.4c-1.8,2-3.9,3.7-6.1,5.2c-1.3,0.9-2.8,1.7-4.2,2.4c-4.4,2.1-9.4,3.3-14.6,3.3s-10.2-1.2-14.6-3.3
		c-1.5-0.7-2.9-1.5-4.2-2.4c-1.3-0.9-2.6-1.9-3.8-2.9c-0.8-0.7-1.6-1.5-2.3-2.2c-0.7-0.8-1.4-1.6-2.1-2.4c-0.3-0.4-0.6-0.9-0.9-1.3
		c-0.6-0.9-1.2-1.8-1.7-2.7c-2.6-4.7-4.1-10-4.1-15.7c0-6.8,2.1-13.2,5.8-18.4c0.3-0.4,0.6-0.9,0.9-1.3c0.6-0.8,1.3-1.7,2.1-2.4
		c0.7-0.8,1.5-1.5,2.3-2.2c1.2-1.1,2.5-2,3.8-2.9c1.3-0.9,2.8-1.7,4.2-2.4c1-0.5,2-0.9,3-1.3c1-0.4,2.1-0.7,3.2-1
		c2.7-0.7,5.5-1,8.4-1c2.9,0,5.7,0.4,8.4,1c1.1,0.3,2.1,0.6,3.2,1c1,0.4,2,0.8,3,1.3c1.5,0.7,2.9,1.5,4.2,2.4
		c2.2,1.5,4.3,3.2,6.1,5.2c0.7,0.8,1.4,1.6,2.1,2.4c0.3,0.4,0.6,0.9,0.9,1.3c3.6,5.3,5.8,11.6,5.8,18.4
		C1046,407,1044.5,412.3,1041.9,417z"/>
</g>
<g>
	<path class="st8" d="M943,350.5c1.7-2.2,3.5-4.3,5.4-6.4c1.9-2,3.9-4,6-5.8c3.1-2.8,6.4-5.3,9.9-7.6c3.5-2.3,7.2-4.4,11-6.2
		c2.5-1.2,5.2-2.3,7.9-3.2c2.7-1,5.4-2.4,8.2-3.1c7-1.8,14.4-3.3,21.9-3.3h-0.5v-27h0.5c-63.6,0-115.3,51.4-115.3,113.5
		c0,62.1,51.7,113.6,115.3,113.6h-0.5v-27h0.5c-13.6,0-26.5-3.3-38-8.8c-3.8-1.8-7.5-4.1-11-6.3c-3.5-2.3-6.8-4.9-9.9-7.7
		c-2.1-1.8-4.1-3.8-6-5.9c-1.9-2-3.7-4.2-5.4-6.3c-0.8-1.1-1.7-2.2-2.4-3.4c-1.6-2.3-3-4.7-4.4-7.1c-6.7-12.1-10.6-26-10.6-40.8
		c0-17.7,5.5-34.2,15-47.9C941.3,352.8,942.1,351.6,943,350.5z"/>
</g>
<g>
	<path class="st8" d="M978.9,594.6c0.8-1.1,1.7-2.1,2.7-3.1c0.9-1,1.9-2,2.9-2.9c1.6-1.4,3.2-2.6,4.9-3.8c1.7-1.1,3.6-2.2,5.5-3.1
		c1.3-0.6,2.6-1.1,3.9-1.6c1.3-0.5,2.2-0.9,3.6-1.2c3.5-0.9,7.6-1.3,10.4-1.3v-13.4c-30.4,0-57.2,25.1-57.2,55.9
		c0,30.8,26.7,55.9,57.2,55.9v-13.4c-5.5,0-12.6-1.5-18.4-4.2c-1.9-0.9-3.5-1.9-5.2-3.1c-1.7-1.1-3.3-2.4-4.8-3.8
		c-1-0.9-1.9-1.9-2.9-2.9c-0.9-1-1.8-2.1-2.6-3.2c-0.4-0.5-0.8-1.1-1.2-1.6c-0.8-1.1-1.5-2.3-2.2-3.5c-3.3-6-5.2-12.9-5.2-20.2
		c0-8.8,2.7-17,7.4-23.7C978.1,595.8,978.5,595.2,978.9,594.6z"/>
</g>
<g>
	<path class="st8" d="M986.1,382c0.7-0.8,1.3-1.6,2.1-2.4c0.7-0.8,1.5-1.5,2.3-2.2c1.2-1.1,2.5-2.1,3.8-2.9c1.3-0.9,2.8-1.7,4.2-2.4
		c1-0.5,2-0.9,3-1.2c1.1-0.4,2.1-0.5,3.2-0.8c2.7-0.7,5.5-0.9,8.4-0.9h-0.5v-10.8h0.5c-24.5,0-44.5,19.3-44.5,43.2
		c0,23.9,20,43.3,44.5,43.3h-0.5v-10c0,0,0.1,0,0,0c-5.3,0-10-1.2-14.4-3.2c-1.5-0.7-2.8-1.5-4.1-2.4c-1.4-0.9-2.6-1.9-3.8-2.9
		c-0.8-0.7-1.5-1.5-2.2-2.2c-0.7-0.8-1.4-1.6-2.1-2.5c-0.3-0.4-0.6-0.8-0.9-1.3c-0.6-0.9-1.2-1.8-1.7-2.7c-2.6-4.7-4.1-10-4.1-15.7
		c0-6.8,2.1-13.2,5.8-18.4C985.5,382.9,985.8,382.4,986.1,382z"/>
</g>
<g>
	<path class="st3" d="M420.9,1559.1l96.2,291.5h184.7l-109.4-323.8C550.5,1545.1,494.8,1558.3,420.9,1559.1z"/>
</g>
<path class="st6" d="M532.2,1638.1c0,12.4-10.3,22.5-23.1,22.5c-12.7,0-23.1-10.1-23.1-22.5c0-12.4,10.3-22.5,23.1-22.5
	C521.9,1615.6,532.2,1625.7,532.2,1638.1z"/>
<ellipse class="st6" cx="535.3" cy="1686.7" rx="21.1" ry="20.6"/>
<path class="st7" d="M1137.2,1850.6l151.6-444c0,0,39.9,149.9,294,152.5l-96.2,291.5H1137.2z"/>
<path class="st10" d="M1551.1,1512.7c0,0-89.6,19.3-196.9-84.6l0,0c0,0,21.7-134.3,165.8-213.9c0,0,58.7-34.7,115.7-50.2l0,0
	c0,0,76-29.1,96.9-92.2c1.6-4.7,4.3-8.9,8.1-12.2c12.7-10.9,42.8-33.1,69.2-26.2c0,0,41.2,3.9,0,50.7l0,0c0,0-25.2,36.3-40.6,86.7
	c-1,3.3-2.4,6.6-4.2,9.6c-6.8,11.6-26.4,39.9-66.9,65.7c-4.4,2.8-8.5,5.9-12.4,9.2c-11,9.5-31.6,28.1-36.8,39.3l0,0
	c0,0,60.4-34.2,75.2-45.8c0,0,47.8-32.7,74.8-105.6c5.9-16,14.4-31,25.1-44.5c14-17.8,30.1-44,19.5-61.7c0,0-18.6-40-86.1-7.5l0,0
	c0,0,63-143.3,79.1-246.2c2.4-15.1,11.2-28.6,24.7-36.3c18.8-10.8,45.8-9.9,67.1,56.4l0,0c0,0,20,163.1-10.2,253.1l0,0
	c0,0-36.4,144.7-62.1,188l0,0c0,0-79.8,111.7-180.9,159.4C1675.3,1403.8,1569.8,1456.2,1551.1,1512.7L1551.1,1512.7z"/>
<g>
	<path class="st2" d="M1324.8,1442.5l8-13.5c97.6,109.4,224.8,100.8,224.8,100.8l-10,14.9C1415,1534.9,1353.2,1479.8,1324.8,1442.5z
		"/>
</g>
<g>
	<path class="st3" d="M1582,1559.1l-96.2,291.5h-184.7l109.4-323.8C1452.5,1545.1,1508.2,1558.3,1582,1559.1z"/>
</g>
<path class="st6" d="M1471.5,1638.1c0,12.4,10.3,22.5,23.1,22.5c12.7,0,23.1-10.1,23.1-22.5c0-12.4-10.3-22.5-23.1-22.5
	C1481.9,1615.6,1471.5,1625.7,1471.5,1638.1z"/>
<ellipse class="st6" cx="1468.4" cy="1686.7" rx="21.1" ry="20.6"/>
<path class="st7" d="M672.1,648.7l-9.8,0.2c-1.5-6-3.8-10.5-6.8-15l0-0.2l6.7-7c1.5-1.5,1.4-4-0.1-5.5l-12.3-11.5
	c-1.6-1.5-4.1-1.4-5.6,0.1l-6.6,6.9c-4.9-2.7-9.7-4.7-15.3-5.7v0l-0.3-9.6c-0.1-2.1-2.1-3.6-4.3-3.5l-17,0.4c-2.2,0.1-3,1.6-2.9,3.7
	l0.2,9.6c-6.1,1.4-11,3.7-15.5,6.6l-0.3,0l-7.2-6.6c-1.6-1.5-4.1-1.4-5.6,0.1l-11.8,12.1c-1.5,1.5-1.4,4,0.1,5.4l7.1,6.2
	c-2.8,4.8-4.8,9.3-5.9,14.7h0l-9.8,0.9c-2.2,0.1-3.3,1.6-3.3,3.8l0.4,16.8c0.1,2.1,1.3,3.7,3.5,3.6l9.8-0.2c1.5,6,3.8,10.4,6.8,14.8
	l0,0.1l-6.7,7c-1.5,1.5-1.4,4,0.1,5.5l12.3,11.5c1.6,1.5,4.1,1.4,5.6-0.1l6.9-6.9c4.9,2.7,10.1,4.6,15.6,5.7v0l0.5,9.6
	c0.1,2.1,1.1,4,3.3,3.9l17.1-0.4c2.2-0.1,4.1-2,4-4.1l-0.7-9.6c6.1-1.5,11.8-3.7,14.6-6.6v0l7.5,6.6c1.6,1.5,4.3,1.4,5.8-0.1
	l11.8-12.1c1.5-1.5,1.5-4-0.1-5.4l-7.1-7c2.8-4.8,4.8-10.1,5.9-15.5h0l9.8,0.1c2.2-0.1,4.4-1.5,4.4-3.7l-0.4-16.5
	C676.6,649.6,674.3,648.6,672.1,648.7z M601.7,684.1c-0.2-0.1-0.5-0.2-0.7-0.3c-0.7-0.3-1.4-0.7-2.1-1.1c-0.3-0.2-0.7-0.4-1-0.6
	c-0.3-0.2-0.7-0.4-1-0.6c-0.2-0.1-0.3-0.2-0.5-0.3c-0.9-0.7-1.8-1.4-2.6-2.2c-0.8-0.8-1.6-1.6-2.2-2.5c-0.3-0.4-0.5-0.7-0.8-1.1
	c-0.8-1.1-1.4-2.3-2-3.5c-1.3-2.9-2.1-6-2.2-9.4c-0.2-7,2.7-13.4,7.6-17.9c0.4-0.4,0.9-0.8,1.3-1.1c0.2-0.1,0.3-0.2,0.5-0.4
	c0.3-0.2,0.6-0.5,0.9-0.7c1-0.7,2-1.3,3-1.8c0.4-0.2,0.7-0.3,1.1-0.5c2.9-1.3,6.1-2,9.5-2.1c4-0.1,7.8,0.7,11.2,2.3
	c0.4,0.2,0.7,0.3,1.1,0.5c0.5,0.3,1,0.6,1.5,0.9c0.3,0.2,0.7,0.4,1,0.6c0.2,0.1,0.3,0.2,0.5,0.3c0.3,0.2,0.6,0.5,0.9,0.7
	c0.5,0.4,0.9,0.7,1.3,1.1c0.3,0.3,0.6,0.5,0.8,0.8c0.7,0.7,1.3,1.4,1.9,2.2c0.2,0.3,0.5,0.6,0.7,0.9c0.2,0.3,0.4,0.6,0.6,1
	c0.3,0.5,0.6,1,0.9,1.5c1.6,3.1,2.6,6.6,2.7,10.3c0.1,2.1-0.2,4.1-0.6,6c-0.1,0.4-0.2,0.8-0.3,1.1c-0.2,0.6-0.3,1.1-0.6,1.7
	c-0.1,0.4-0.3,0.7-0.4,1.1c-0.1,0.2-0.2,0.5-0.3,0.7c-0.2,0.5-0.5,0.9-0.7,1.4c-0.2,0.3-0.4,0.7-0.6,1c-0.2,0.3-0.3,0.5-0.5,0.8
	c-0.2,0.2-0.3,0.4-0.5,0.7c-0.1,0.2-0.2,0.3-0.3,0.5c-0.2,0.3-0.5,0.6-0.7,0.9c-0.1,0.1-0.3,0.3-0.4,0.4c-0.3,0.3-0.5,0.6-0.8,0.9
	c-0.1,0.1-0.3,0.3-0.4,0.4c-0.6,0.5-1.1,1.1-1.7,1.5c-0.2,0.1-0.3,0.2-0.5,0.4c-0.3,0.2-0.6,0.5-0.9,0.7c-0.3,0.2-0.6,0.4-1,0.6
	c-0.2,0.1-0.3,0.2-0.5,0.3c-0.3,0.2-0.7,0.4-1,0.6c-3.3,1.8-7.1,2.8-11.1,2.9c-3.2,0.1-6.3-0.5-9.2-1.5
	C602.3,684.3,602,684.2,601.7,684.1z"/>
<path class="st7" d="M1487.2,478.6l-7.4,0.2c-1.1-4.6-2.9-8-5.2-11.4l0-0.1l5.1-5.3c1.1-1.2,1.1-3-0.1-4.2l-9.4-8.7
	c-1.2-1.1-3.1-1.1-4.2,0.1l-4.7,5.3c-3.7-2.1-5.8-3.5-11.3-4.4v0l-0.5-7.3c0-1.6-1.8-2.7-3.4-2.7l-13,0.3c-1.7,0-2.3,1.2-2.2,2.8
	l0.2,7.3c-4.7,1.1-8.4,2.8-11.8,5l-0.2,0l-5.5-5c-1.2-1.1-3.1-1.1-4.3,0.1l-8.9,9.2c-1.1,1.2-1.1,3,0.1,4.1l5.4,4.8
	c-2.1,3.6-3.6,8.5-4.5,11.2h0l-7.4,0.6c-1.7,0-2.5,1.2-2.5,2.8l0.3,12.7c0,1.6,1,2.8,2.6,2.8l7.4-0.2c1.1,4.6,2.9,7.9,5.2,11.3
	l0,0.1l-5.1,5.3c-1.1,1.2-1.1,3,0.1,4.1l9.4,8.7c1.2,1.1,3.1,1.1,4.2-0.1l5.7-5.3c3.7,2.1,6.8,3.5,12.3,4.3v0l0,7.3
	c0,1.6,0.6,3,2.3,3l12.9-0.3c1.7,0,3-1.5,3-3.1l0.4-7.3c4.7-1.1,9.2-2.8,12-5v0l4.8,5c1.2,1.1,2.8,1.1,3.9-0.1l8.8-9.2
	c1.1-1.2,1-3-0.2-4.1l-5.4-5.4c2.1-3.6,3.6-6.4,4.4-11.8h0l7.4,0.1c1.7,0,3.4-1.1,3.3-2.8l-0.3-12.6
	C1490.6,479.3,1488.9,478.6,1487.2,478.6z M1433.7,505.5c-0.2-0.1-0.4-0.1-0.5-0.2c-0.5-0.2-1.1-0.5-1.6-0.8
	c-0.3-0.1-0.5-0.3-0.8-0.5c-0.2-0.2-0.5-0.3-0.7-0.5c-0.1-0.1-0.2-0.2-0.4-0.3c-0.7-0.5-1.3-1.1-2-1.6c-0.6-0.6-1.2-1.2-1.7-1.9
	c-0.2-0.3-0.4-0.5-0.6-0.8c-0.6-0.8-1.1-1.7-1.5-2.7c-1-2.2-1.6-4.6-1.7-7.1c-0.1-5.3,2.1-10.2,5.7-13.6c0.3-0.3,0.7-0.6,1-0.9
	c0.1-0.1,0.2-0.2,0.3-0.3c0.2-0.2,0.5-0.4,0.7-0.5c0.7-0.5,1.5-1,2.3-1.4c0.3-0.1,0.5-0.3,0.8-0.4c2.2-1,4.6-1.5,7.2-1.6
	c3.1-0.1,6,0.6,8.5,1.8c0.3,0.1,0.5,0.3,0.8,0.4c0.4,0.2,0.8,0.4,1.2,0.7c0.3,0.2,0.5,0.3,0.7,0.5c0.1,0.1,0.2,0.2,0.4,0.3
	c0.2,0.2,0.5,0.4,0.7,0.5c0.3,0.3,0.7,0.6,1,0.9c0.2,0.2,0.4,0.4,0.6,0.6c0.5,0.5,1,1.1,1.4,1.7c0.2,0.2,0.4,0.5,0.5,0.7
	c0.2,0.2,0.3,0.5,0.5,0.7c0.2,0.4,0.5,0.8,0.7,1.2c1.2,2.4,2,5,2,7.8c0,1.6-0.1,3.1-0.5,4.6c-0.1,0.3-0.1,0.6-0.2,0.9
	c-0.1,0.4-0.3,0.9-0.4,1.3c-0.1,0.3-0.2,0.6-0.3,0.8c-0.1,0.2-0.2,0.4-0.2,0.5c-0.2,0.4-0.3,0.7-0.5,1.1c-0.1,0.3-0.3,0.5-0.4,0.8
	c-0.1,0.2-0.3,0.4-0.4,0.6c-0.1,0.2-0.2,0.3-0.4,0.5c-0.1,0.1-0.2,0.2-0.3,0.4c-0.2,0.2-0.4,0.5-0.6,0.7c-0.1,0.1-0.2,0.2-0.3,0.3
	c-0.2,0.2-0.4,0.4-0.6,0.6c-0.1,0.1-0.2,0.2-0.3,0.3c-0.4,0.4-0.9,0.8-1.3,1.2c-0.1,0.1-0.2,0.2-0.3,0.3c-0.2,0.2-0.5,0.4-0.7,0.5
	c-0.2,0.2-0.5,0.3-0.7,0.5c-0.1,0.1-0.3,0.2-0.4,0.2c-0.3,0.2-0.5,0.3-0.8,0.4c-2.5,1.3-5.4,2.1-8.4,2.2c-2.5,0.1-4.8-0.3-7-1.1
	C1434.1,505.7,1433.9,505.6,1433.7,505.5z"/>
<path class="st7" d="M1594.5,844.6l-12.6,0.3c-1.9-7.7-4.9-13.6-8.7-19.3l0-0.2l8.7-9c1.9-2,1.8-5.2-0.2-7.1l-15.9-14.8
	c-2-1.9-5.2-1.8-7.2,0.2l-8.5,8.9c-6.3-3.5-11.4-6-19.7-7.4v-0.1l-0.3-12.3c-0.1-2.7-2.7-4.6-5.5-4.6l-21.9,0.5
	c-2.8,0.1-3.8,2.1-3.7,4.8l0.3,12.3c-7.9,1.9-14.1,4.8-20,8.5l-0.3,0l-9.3-8.5c-2-1.9-5.3-1.8-7.2,0.2l-15.1,15.5
	c-1.9,2-1.9,5.1,0.2,7l9.1,8.5c-3.6,6.1-6.1,11.3-7.5,19.4h-0.1l-12.6,0.7c-2.8,0.1-4.3,1.9-4.2,4.6l0.6,21.5
	c0.1,2.7,1.7,4.7,4.5,4.6l12.6-0.3c1.9,7.7,4.9,13.3,8.7,19.1l0,0.1l-8.7,9c-1.9,2-1.8,5.1,0.2,7l15.9,14.8c2,1.9,5.2,1.8,7.2-0.2
	l9.2-8.9c6.3,3.5,12.1,6,20.4,7.4v0.1l0.3,12.3c0.1,2.7,1.3,5.2,4.1,5.1l21.9-0.5c2.8-0.1,5.2-2.6,5.1-5.3l-0.6-12.3
	c7.9-1.9,13.5-4.7,19-8.5v0l9.4,8.5c2,1.9,5.4,1.8,7.3-0.2l15.2-15.5c1.9-2,1.9-5.1-0.2-7l-9.1-8.9c3.6-6.1,6.1-11.7,7.6-19.9h0.1
	l12.6,0c2.8-0.1,5.7-2,5.6-4.8l-0.6-21.3C1600.3,845.8,1597.3,844.5,1594.5,844.6z M1503.8,890.2c-0.3-0.1-0.6-0.3-0.9-0.4
	c-0.9-0.4-1.8-0.9-2.7-1.4c-0.4-0.2-0.9-0.5-1.3-0.8c-0.4-0.3-0.8-0.5-1.3-0.8c-0.2-0.1-0.4-0.3-0.6-0.4c-1.2-0.9-2.3-1.8-3.3-2.8
	c-1-1-2-2.1-2.9-3.2c-0.4-0.5-0.7-0.9-1-1.4c-1-1.4-1.9-2.9-2.6-4.5c-1.7-3.7-2.7-7.8-2.9-12.1c-0.2-9,3.5-17.3,9.7-23.1
	c0.5-0.5,1.1-1,1.7-1.5c0.2-0.2,0.4-0.3,0.6-0.5c0.4-0.3,0.8-0.6,1.2-0.9c1.2-0.9,2.5-1.6,3.9-2.3c0.5-0.2,0.9-0.4,1.4-0.7
	c3.7-1.7,7.9-2.6,12.2-2.7c5.2-0.1,10.1,1,14.5,3c0.5,0.2,0.9,0.4,1.4,0.7c0.7,0.4,1.3,0.7,2,1.1c0.4,0.3,0.8,0.5,1.3,0.8
	c0.2,0.1,0.4,0.3,0.6,0.4c0.4,0.3,0.8,0.6,1.2,0.9c0.6,0.5,1.2,1,1.7,1.5c0.4,0.3,0.7,0.7,1.1,1c0.9,0.9,1.7,1.8,2.4,2.8
	c0.3,0.4,0.6,0.8,0.9,1.2c0.3,0.4,0.6,0.8,0.8,1.3c0.4,0.6,0.8,1.3,1.1,2c2.1,4,3.3,8.5,3.5,13.3c0.1,2.7-0.2,5.2-0.8,7.7
	c-0.1,0.5-0.2,1-0.4,1.5c-0.2,0.7-0.5,1.4-0.7,2.2c-0.2,0.5-0.4,0.9-0.6,1.4c-0.1,0.3-0.3,0.6-0.4,0.9c-0.3,0.6-0.6,1.2-0.9,1.8
	c-0.2,0.4-0.5,0.9-0.8,1.3c-0.2,0.3-0.4,0.7-0.6,1c-0.2,0.3-0.4,0.6-0.6,0.9c-0.1,0.2-0.3,0.4-0.4,0.6c-0.3,0.4-0.6,0.8-0.9,1.2
	c-0.2,0.2-0.3,0.4-0.5,0.6c-0.3,0.4-0.7,0.7-1,1.1c-0.2,0.2-0.3,0.4-0.5,0.5c-0.7,0.7-1.5,1.4-2.2,2c-0.2,0.2-0.4,0.3-0.6,0.5
	c-0.4,0.3-0.8,0.6-1.2,0.9c-0.4,0.3-0.8,0.6-1.3,0.8c-0.2,0.1-0.4,0.3-0.6,0.4c-0.4,0.3-0.9,0.5-1.3,0.7c-4.2,2.3-9.1,3.6-14.3,3.7
	c-4.2,0.1-8.2-0.6-11.8-1.9C1504.5,890.4,1504.2,890.3,1503.8,890.2z"/>
<path class="st7" d="M725.7,468.3l-5.4,0.1c-0.8-3.3-2.1-5.8-3.7-8.3l0-0.1l3.7-3.9c0.8-0.9,0.8-2.2-0.1-3l-6.8-6.3
	c-0.9-0.8-2.2-0.8-3.1,0.1l-4.2,3.8c-2.7-1.5-6.2-2.6-9-3.2v0l0.4-5.3c0-1.2-0.9-2-2.1-2l-9.2,0.2c-1.2,0-1.6,0.9-1.5,2.1l0.2,5.3
	c-3.4,0.8-6,2-8.6,3.7l-0.1,0l-4-3.6c-0.9-0.8-2.3-0.8-3.1,0.1l-6.5,6.6c-0.8,0.8-0.8,2.2,0.1,3l3.9,3.4c-1.5,2.6-2.6,5.4-3.2,8.1h0
	l-5.4,0.5c-1.2,0-1.8,0.9-1.8,2.1l0.2,9.3c0,1.2,0.7,2,1.9,2l5.4-0.1c0.8,3.3,2.1,5.7,3.7,8.2l0,0.1l-3.7,3.8
	c-0.8,0.8-0.8,2.2,0.1,3l6.8,6.3c0.9,0.8,2.2,0.8,3.1-0.1l3.8-3.8c2.7,1.5,5.9,2.6,8.6,3.1v0l0.3,5.3c0,1.2,0.6,2.2,1.8,2.2l9.4-0.2
	c1.2,0,2.2-1.1,2.2-2.3l0-5.3c3.4-0.8,5.6-2,8.4-3.7v0l3.8,3.6c0.9,0.8,2.2,0.8,3-0.1l6.4-6.6c0.8-0.8,0.8-2.2-0.1-3l-3.9-3.1
	c1.5-2.6,2.6-5.1,3.2-7.8h0l5.4-0.7c1.2,0,2.4-1.2,2.4-2.4l-0.2-9.3C728.2,469,726.9,468.2,725.7,468.3z M686.9,487.8
	c-0.1-0.1-0.3-0.1-0.4-0.2c-0.4-0.2-0.8-0.4-1.2-0.6c-0.2-0.1-0.4-0.2-0.6-0.3c-0.2-0.1-0.4-0.2-0.5-0.4c-0.1-0.1-0.2-0.1-0.3-0.2
	c-0.5-0.4-1-0.8-1.4-1.2c-0.4-0.4-0.9-0.9-1.2-1.4c-0.2-0.2-0.3-0.4-0.4-0.6c-0.4-0.6-0.8-1.3-1.1-1.9c-0.7-1.6-1.2-3.3-1.2-5.2
	c-0.1-3.9,1.5-7.4,4.2-9.9c0.2-0.2,0.5-0.4,0.7-0.6c0.1-0.1,0.2-0.1,0.3-0.2c0.2-0.1,0.3-0.3,0.5-0.4c0.5-0.4,1.1-0.7,1.7-1
	c0.2-0.1,0.4-0.2,0.6-0.3c1.6-0.7,3.4-1.1,5.2-1.2c2.2-0.1,4.3,0.4,6.2,1.3c0.2,0.1,0.4,0.2,0.6,0.3c0.3,0.2,0.6,0.3,0.8,0.5
	c0.2,0.1,0.4,0.2,0.5,0.4c0.1,0.1,0.2,0.1,0.3,0.2c0.2,0.1,0.3,0.3,0.5,0.4c0.3,0.2,0.5,0.4,0.7,0.6c0.2,0.1,0.3,0.3,0.5,0.4
	c0.4,0.4,0.7,0.8,1.1,1.2c0.1,0.2,0.3,0.3,0.4,0.5c0.1,0.2,0.2,0.4,0.4,0.5c0.2,0.3,0.3,0.5,0.5,0.8c0.9,1.7,1.4,3.6,1.5,5.7
	c0,1.1-0.1,2.2-0.3,3.3c-0.1,0.2-0.1,0.4-0.2,0.6c-0.1,0.3-0.2,0.6-0.3,0.9c-0.1,0.2-0.2,0.4-0.2,0.6c-0.1,0.1-0.1,0.3-0.2,0.4
	c-0.1,0.3-0.3,0.5-0.4,0.8c-0.1,0.2-0.2,0.4-0.3,0.6c-0.1,0.1-0.2,0.3-0.3,0.4c-0.1,0.1-0.2,0.3-0.3,0.4c-0.1,0.1-0.1,0.2-0.2,0.3
	c-0.1,0.2-0.3,0.3-0.4,0.5c-0.1,0.1-0.1,0.2-0.2,0.2c-0.1,0.2-0.3,0.3-0.4,0.5c-0.1,0.1-0.1,0.2-0.2,0.2c-0.3,0.3-0.6,0.6-1,0.9
	c-0.1,0.1-0.2,0.1-0.3,0.2c-0.2,0.1-0.3,0.3-0.5,0.4c-0.2,0.1-0.4,0.2-0.5,0.4c-0.1,0.1-0.2,0.1-0.3,0.2c-0.2,0.1-0.4,0.2-0.6,0.3
	c-1.8,1-3.9,1.5-6.1,1.6c-1.8,0-3.5-0.3-5.1-0.8C687.2,487.9,687.1,487.8,686.9,487.8z"/>
<path class="st7" d="M564.6,502.8l-3,0.1c-0.5-1.8-1.2-3.2-2.1-4.6l0-0.1l2.1-2.1c0.5-0.5,0.4-1.2,0-1.7l-3.8-3.5
	c-0.5-0.4-1.2-0.4-1.7,0l-2.8,2.1c-1.5-0.8-2.7-1.4-5.5-1.8v0l0.7-2.9c0-0.7-0.3-1.1-0.9-1.1l-5,0.1c-0.7,0-0.8,0.5-0.8,1.1l0.1,2.9
	c-1.9,0.4-3.3,1.1-4.7,2l-0.1,0l-2.2-2c-0.5-0.4-1.3-0.4-1.7,0l-3.6,3.7c-0.5,0.5-0.4,1.2,0,1.7l2.2,1c-0.9,1.5-1.5,3.6-1.8,3.6h0
	l-3,1.2c-0.7,0-1,0.9-1,1.6l0.1,5.4c0,0.7,0.4,1.2,1.1,1.2l3,0c0.5,1.8,1.2,3.2,2.1,4.6l0,0l-2.1,2.1c-0.5,0.5-0.4,1.2,0,1.7
	l3.8,3.5c0.5,0.4,1.2,0.4,1.7,0l1.9-2.1c1.5,0.8,1.8,1.4,4.6,1.7v0l0.3,2.9c0,0.7,0.4,1.2,1.1,1.2l5.3-0.1c0.7,0,1.3-0.6,1.2-1.3
	l-0.8-2.9c1.9-0.4,3.9-1.1,3.9-2v0l2.9,2c0.5,0.4,1.6,0.4,2.1,0l3.8-3.7c0.5-0.5,0.5-1.2,0-1.7l-2.1-2.3c0.9-1.5,1.5-2.2,1.8-4.9h0
	l3,0.2c0.7,0,1.4-0.4,1.3-1.1l-0.1-5C565.9,503.1,565.2,502.8,564.6,502.8z M543,513.7c-0.1,0-0.1-0.1-0.2-0.1
	c-0.2-0.1-0.4-0.2-0.6-0.3c-0.1-0.1-0.2-0.1-0.3-0.2c-0.1-0.1-0.2-0.1-0.3-0.2c0,0-0.1-0.1-0.1-0.1c-0.3-0.2-0.5-0.4-0.8-0.7
	c-0.2-0.2-0.5-0.5-0.7-0.8c-0.1-0.1-0.2-0.2-0.2-0.3c-0.2-0.3-0.4-0.7-0.6-1.1c-0.4-0.9-0.7-1.8-0.7-2.9c-0.1-2.2,0.8-4.1,2.3-5.5
	c0.1-0.1,0.3-0.2,0.4-0.4c0,0,0.1-0.1,0.1-0.1c0.1-0.1,0.2-0.1,0.3-0.2c0.3-0.2,0.6-0.4,0.9-0.6c0.1-0.1,0.2-0.1,0.3-0.2
	c0.9-0.4,1.9-0.6,2.9-0.6c1.2,0,2.4,0.2,3.4,0.7c0.1,0.1,0.2,0.1,0.3,0.2c0.2,0.1,0.3,0.2,0.5,0.3c0.1,0.1,0.2,0.1,0.3,0.2
	c0,0,0.1,0.1,0.1,0.1c0.1,0.1,0.2,0.1,0.3,0.2c0.1,0.1,0.3,0.2,0.4,0.4c0.1,0.1,0.2,0.2,0.3,0.2c0.2,0.2,0.4,0.4,0.6,0.7
	c0.1,0.1,0.1,0.2,0.2,0.3c0.1,0.1,0.1,0.2,0.2,0.3c0.1,0.2,0.2,0.3,0.3,0.5c0.5,0.9,0.8,2,0.8,3.2c0,0.6,0,1.2-0.2,1.8
	c0,0.1-0.1,0.2-0.1,0.3c0,0.2-0.1,0.3-0.2,0.5c0,0.1-0.1,0.2-0.1,0.3c0,0.1-0.1,0.1-0.1,0.2c-0.1,0.1-0.1,0.3-0.2,0.4
	c-0.1,0.1-0.1,0.2-0.2,0.3c0,0.1-0.1,0.2-0.2,0.2c0,0.1-0.1,0.1-0.1,0.2c0,0-0.1,0.1-0.1,0.1c-0.1,0.1-0.1,0.2-0.2,0.3
	c0,0-0.1,0.1-0.1,0.1c-0.1,0.1-0.2,0.2-0.2,0.3c0,0-0.1,0.1-0.1,0.1c-0.2,0.2-0.3,0.3-0.5,0.5c0,0-0.1,0.1-0.1,0.1
	c-0.1,0.1-0.2,0.1-0.3,0.2c-0.1,0.1-0.2,0.1-0.3,0.2c-0.1,0-0.1,0.1-0.2,0.1c-0.1,0.1-0.2,0.1-0.3,0.2c-1,0.5-2.2,0.9-3.4,0.9
	c-1,0-1.9-0.1-2.8-0.5C543.2,513.7,543.1,513.7,543,513.7z"/>
<path class="st7" d="M1393.4,693.9l-5.4,0.1c-0.8-3.3-2.1-5.8-3.7-8.3l0-0.1l3.7-3.9c0.8-0.8,0.8-2.2-0.1-3l-6.8-6.3
	c-0.9-0.8-2.2-0.8-3.1,0.1l-4.5,3.8c-2.7-1.5-6.5-2.6-9.3-3.2v0l0.7-5.3c0-1.2-0.7-2-1.9-2l-9.2,0.2c-1.2,0-1.5,0.9-1.5,2.1l0.2,5.3
	c-3.4,0.8-6,2-8.5,3.7l-0.1,0l-4-3.6c-0.9-0.8-2.3-0.8-3.1,0.1l-6.5,6.6c-0.8,0.8-0.8,2.2,0.1,3l3.9,2.8c-1.5,2.6-2.6,4.8-3.2,7.5h0
	l-5.4,1.1c-1.2,0-1.8,1.2-1.8,2.4l0.2,9.4c0,1.2,0.7,2.1,1.9,2.1l5.4-0.1c0.8,3.3,2.1,5.7,3.7,8.2l0,0.1l-3.7,3.8
	c-0.8,0.8-0.8,2.2,0.1,3l6.8,6.3c0.9,0.8,2.2,0.8,3.1-0.1l3.5-3.8c2.7,1.5,5.5,2.6,8.3,3.2v0l0.6,5.3c0,1.2,0.8,2.2,2,2.2l9.5-0.2
	c1.2,0,2.3-1.1,2.2-2.3l-0.3-5.3c3.4-0.8,5.3-2,8.1-3.7v0l4.1,3.6c0.9,0.8,2.3,0.8,3.2-0.1l6.5-6.6c0.8-0.9,0.8-2.2-0.1-3l-3.9-3.7
	c1.5-2.6,2.6-5.7,3.2-8.4h0l5.4-0.1c1.2,0,2.4-0.9,2.4-2.1l-0.2-9.2C1395.9,694.5,1394.6,693.9,1393.4,693.9z M1354.6,713.4
	c-0.1-0.1-0.3-0.1-0.4-0.2c-0.4-0.2-0.8-0.4-1.2-0.6c-0.2-0.1-0.4-0.2-0.6-0.3c-0.2-0.1-0.4-0.2-0.5-0.4c-0.1-0.1-0.2-0.1-0.3-0.2
	c-0.5-0.4-1-0.8-1.4-1.2c-0.4-0.4-0.9-0.9-1.2-1.4c-0.2-0.2-0.3-0.4-0.4-0.6c-0.4-0.6-0.8-1.3-1.1-1.9c-0.7-1.6-1.2-3.3-1.2-5.2
	c-0.1-3.9,1.5-7.4,4.2-9.9c0.2-0.2,0.5-0.4,0.7-0.6c0.1-0.1,0.2-0.1,0.3-0.2c0.2-0.1,0.3-0.3,0.5-0.4c0.5-0.4,1.1-0.7,1.7-1
	c0.2-0.1,0.4-0.2,0.6-0.3c1.6-0.7,3.4-1.1,5.2-1.2c2.2-0.1,4.3,0.4,6.2,1.3c0.2,0.1,0.4,0.2,0.6,0.3c0.3,0.2,0.6,0.3,0.8,0.5
	c0.2,0.1,0.4,0.2,0.5,0.4c0.1,0.1,0.2,0.1,0.3,0.2c0.2,0.1,0.3,0.3,0.5,0.4c0.3,0.2,0.5,0.4,0.7,0.6c0.2,0.1,0.3,0.3,0.5,0.4
	c0.4,0.4,0.7,0.8,1.1,1.2c0.1,0.2,0.3,0.3,0.4,0.5c0.1,0.2,0.2,0.4,0.4,0.5c0.2,0.3,0.3,0.6,0.5,0.8c0.9,1.7,1.4,3.6,1.5,5.7
	c0,1.1-0.1,2.2-0.3,3.3c-0.1,0.2-0.1,0.4-0.2,0.6c-0.1,0.3-0.2,0.6-0.3,0.9c-0.1,0.2-0.2,0.4-0.2,0.6c-0.1,0.1-0.1,0.3-0.2,0.4
	c-0.1,0.3-0.3,0.5-0.4,0.8c-0.1,0.2-0.2,0.4-0.3,0.6c-0.1,0.1-0.2,0.3-0.3,0.4c-0.1,0.1-0.2,0.2-0.3,0.4c-0.1,0.1-0.1,0.2-0.2,0.3
	c-0.1,0.2-0.3,0.3-0.4,0.5c-0.1,0.1-0.1,0.2-0.2,0.2c-0.1,0.2-0.3,0.3-0.4,0.5c-0.1,0.1-0.2,0.2-0.2,0.2c-0.3,0.3-0.6,0.6-1,0.9
	c-0.1,0.1-0.2,0.1-0.3,0.2c-0.2,0.1-0.3,0.3-0.5,0.4s-0.4,0.2-0.5,0.4c-0.1,0.1-0.2,0.1-0.3,0.2c-0.2,0.1-0.4,0.2-0.6,0.3
	c-1.8,1-3.9,1.5-6.1,1.6c-1.8,0-3.5-0.3-5.1-0.8C1354.9,713.5,1354.7,713.5,1354.6,713.4z"/>
</svg>
