<?xml version="1.0" encoding="utf-8"?>
<!-- Generator: Adobe Illustrator 16.0.0, SVG Export Plug-In . SVG Version: 6.00 Build 0)  -->
<!DOCTYPE svg PUBLIC "-//W3C//DTD SVG 1.1//EN" "http://www.w3.org/Graphics/SVG/1.1/DTD/svg11.dtd">
<svg version="1.1" id="Layer_1" xmlns="http://www.w3.org/2000/svg" xmlns:xlink="http://www.w3.org/1999/xlink" x="0px" y="0px"
	 width="2000px" height="1600px" viewBox="0 0 2000 1600" style="enable-background:new 0 0 2000 1600;" xml:space="preserve">
<style type="text/css">
<![CDATA[
	.st0{fill:#E2E9F2;}
	.st1{fill:#E55957;}
	.st2{fill:#B2B8BF;}
	.st3{fill:#1F8BC3;}
	.st4{opacity:0.16;fill:#DDE4E8;}
	.st5{fill:#25A1D8;}
	.st6{fill:#F5D4B2;}
	.st7{fill:#F6F4F4;}
	.st8{fill:#FFB74D;}
	.st9{fill:#CC5050;}
	.st10{fill:#31363D;}
	.st11{fill:#CFD4D7;}
	.st12{fill:#D69445;}
	.st13{fill:#DDE4E8;}
	.st14{fill:#DFC2A9;}
]]>
</style>
<path class="st9" d="M1818,386.1c12.1-7.7,19.1-16.6,19.5-26.2c1.5-36-88.7-69.1-201.6-73.9c-42.6-1.8-82.4,0.7-115.4,6.4
	c-26.5-10.6-59.5-18.3-95.6-21.2c-91.7-7.3-168.6,18.8-171.8,58.4c-0.1,0.7,0,1.3,0,2c-15.4-2.6-31.5-4.7-48.2-6
	c-110.6-8.8-202.9,16.1-206,55.7c-2.3,28.2,41.4,56.2,106.7,73.2c-0.4,1.4-0.7,2.8-0.8,4.2c-2.6,32.6,74.4,65.3,171.9,73.1
	c54.6,4.4,104.1-0.1,137.5-10.5c17.6,1.9,36.2,3.3,55.4,4.1c75.5,3.2,142.4-3.4,181.9-16.2c16.4,1.6,33.3,2.8,50.7,3.5
	c143.3,6.1,260.8-19.8,262.4-57.9C1965.7,427.3,1905.7,400.9,1818,386.1z"/>
<path class="st1" d="M1818,386.1c12.1-7.7,19.1-16.6,19.5-26.2c0-1,0-2-0.1-3c-0.3-3.5-1.8-8.5-5.7-13.6
	c-21.5-29.1-100.6-53.2-195.8-57.3c-42.6-1.8-82.4,0.7-115.5,6.4c-26.5-10.6-59.5-18.3-95.6-21.2c-91.7-7.3-168.6,18.8-171.8,58.4
	c-0.1,0.7,0,1.3,0,2c-15.4-2.6-31.5-4.7-48.2-6c-96.3-7.7-178.7,10.3-200.4,41.2c11.1,22.8,50,44.1,103.5,58
	c-0.4,1.4-0.7,2.8-0.8,4.2c-2.6,32.6,74.4,65.3,171.9,73.1c58,4.6,110.2-0.6,143.5-12.5c15.5,1.5,31.7,2.7,48.4,3.4
	c8.8,0.4,17.5,0.6,26.1,0.7c19.3,0.6,37.9,0.2,55.4-1.1l0-0.1c41-2.3,76-7.9,100.5-15.8c16.4,1.6,33.3,2.8,50.7,3.5
	c122.2,5.2,225.5-12.9,254.4-41.9C1940.1,417.1,1887.9,397.9,1818,386.1z"/>
<circle class="st3" cx="1471.8" cy="280.5" r="75"/>
<path class="st7" d="M559.4,373.5L559.4,373.5c-4.6-1.9-9.8,0.4-11.7,5l-7,17.3c-34.2-13.5-129.9-57.4-208.3-38.7
	c4-33-9.9-44.3-32.3-54.8c106.8-50.6,36.2-153.1,36.2-153.1c25.2,97-21.5,108.9-56.4,108.4c-11.9-0.5-23.3-0.5-34.2-14l-3.6-9.5
	c1.7-1.2,3.3-2.6,4.7-4.2c9.9-11.4,8.8-28.7-2.6-38.7c-11.7-10.2-29.6-8.7-39.4,3.5c-8.8,11-7.7,27.3,2.5,37
	c6.1,5.8,14.2,8.2,21.9,7.3l2.6,7.5C106.4,307.5,125,402.5,125,402.5c43.1-106.4,78.2-87,78.2-87c15.2,21.6,32.2,49.5,42.6,74
	c-4.4,25.8-13,57.1,13.8,119.3c2.8,6.4-0.3,13.8-6.9,16.3c-17.2,6.4-47.8,17.8-59.2,22.1c-2.8,1-4.7,3.5-5.1,6.5l-3.5,31.6
	c-0.5,4.9,3.1,9.3,8,9.7l0,0c4.8,0.4,9-3.2,9.4-8l1.6-20.7c24.9,3.7,70.8,4.4,97-32.5c21.9-30.9,22.9-67.9,21.4-92.8
	c43-54.5,188.6-31.1,222.5-24.8c4.1,0.8,8.2-1.5,9.7-5.4l9.9-25.6C566.2,380.4,563.9,375.3,559.4,373.5z"/>
<polygon class="st1" points="76.2,970 314.1,970 314.1,734.3 549.8,734.3 549.8,503.2 785.5,503.2 785.5,278.8 921.5,278.8 
	921.5,247.1 751.5,247.1 751.5,469.2 518.1,469.2 518.1,702.6 280.1,702.6 280.1,936 42.2,936 42.2,1065.2 76.2,1065.2 "/>
<polygon class="st13" points="786.9,504.7 549.1,504.7 549.1,732.8 313.7,732.8 313.7,970.7 75.9,970.7 75.9,1065.3 920.4,1065.3 
	920.4,279 786.9,279 "/>
<path class="st12" d="M737.3,1181.2l-49.2,1.3c-7.5-30.9-19.1-54.3-34.2-77.3l0.1-0.9l33.9-36.1c7.5-7.9,7.2-20.7-0.7-28.2
	l-62.1-59.1c-7.9-7.5-20.5-7.3-28,0.7l-33.3,35.7c-24.5-14.1-46-24-77.2-29.5l0-0.2l-1.3-49.2c-0.3-10.9-10.5-18.6-21.5-18.3
	l-85.6,2.2c-10.9,0.3-14.8,8.2-14.5,19.2l1.3,49.2c-30.9,7.5-55.2,19.1-78.2,34.2l-1.4-0.1l-36.3-33.9c-7.9-7.5-20.8-7.2-28.3,0.7
	l-59.1,62.1c-7.5,7.9-7.3,20.5,0.6,28l35.7,35.2c-14.1,24.5-24,47.8-29.5,79l-0.2,0l-49.2,1.3c-10.9,0.3-16.9,6.8-16.6,17.7
	l2.2,85.6c0.3,10.9,6.6,18.6,17.5,18.3l49.2-1.3c7.5,30.9,19,53.4,34.1,76.3l-0.2,0.4l-33.9,35.8c-7.5,7.9-7.2,20.6,0.7,28.1
	l62.1,59c7.9,7.5,20.5,7.2,28-0.7l36.1-35.8c24.5,14.1,48.7,24,79.9,29.4l0,0.2l1.3,49.2c0.3,10.9,5.1,20.6,16,20.3l85.6-2.2
	c10.9-0.3,20.3-10.3,20-21.3l-1.3-49.2c30.9-7.5,52.5-19,75.4-34.1l0,0.2l35.6,33.9c7.9,7.5,20.4,7.2,28-0.7l59-62.1
	c7.5-7.9,7.2-20.5-0.7-28l-35.7-34.2c14.1-24.5,23.8-53.1,29.5-78l0.2,0l49.2-1.3c10.9-0.3,22.3-8.8,22-19.8l-2.2-85.6
	C760,1186.5,748.2,1181,737.3,1181.2z M382.9,1363.7c-1.2-0.5-2.4-1-3.6-1.5c-3.6-1.6-7.2-3.4-10.6-5.4c-1.7-1-3.4-2-5.1-3.1
	c-1.7-1.1-3.3-2.2-4.9-3.3c-0.8-0.6-1.6-1.2-2.4-1.7c-4.6-3.4-8.9-7.1-13-11.1c-4.1-4-7.8-8.3-11.3-12.8c-1.4-1.8-2.7-3.7-4-5.6
	c-3.9-5.7-7.3-11.7-10.2-18c-6.8-14.7-10.7-31-11.2-48.3c-0.9-36.2,13.8-69.1,38.1-92.3c2.1-2,4.4-4,6.6-5.9
	c0.8-0.6,1.5-1.3,2.3-1.9c1.6-1.2,3.1-2.4,4.7-3.6c4.8-3.4,9.9-6.6,15.3-9.3c1.8-0.9,3.6-1.8,5.4-2.6c14.6-6.6,30.7-10.5,47.7-10.9
	c20.2-0.5,39.4,3.9,56.5,12.1c1.8,0.9,3.6,1.8,5.3,2.7c2.6,1.4,5.2,2.9,7.7,4.5c1.7,1.1,3.3,2.2,4.9,3.3c0.8,0.6,1.6,1.2,2.4,1.7
	c1.6,1.2,3.1,2.4,4.7,3.7c2.3,1.9,4.5,3.8,6.7,5.9c1.4,1.4,2.8,2.8,4.2,4.2c3.4,3.6,6.6,7.3,9.6,11.3c1.2,1.6,2.3,3.2,3.5,4.8
	c1.1,1.6,2.2,3.3,3.2,5c1.5,2.5,3,5.1,4.4,7.8c8.2,16,13,34,13.5,53.1c0.3,10.6-0.8,21-3.1,30.9c-0.5,2-1,3.9-1.5,5.9
	c-0.8,2.9-1.8,5.8-2.8,8.6c-0.7,1.9-1.4,3.8-2.2,5.6c-0.5,1.2-1.1,2.4-1.6,3.6c-1.1,2.4-2.3,4.8-3.6,7.1c-0.9,1.8-1.9,3.5-3,5.2
	c-0.8,1.3-1.7,2.7-2.5,4c-0.8,1.2-1.5,2.3-2.4,3.5c-0.6,0.8-1.2,1.6-1.7,2.4c-1.2,1.6-2.4,3.1-3.7,4.7c-0.6,0.8-1.3,1.5-1.9,2.3
	c-1.3,1.5-2.6,3-4,4.4c-0.7,0.7-1.4,1.4-2.1,2.1c-2.8,2.8-5.7,5.5-8.7,8c-0.8,0.6-1.5,1.3-2.3,1.9c-1.6,1.2-3.1,2.4-4.7,3.6
	c-1.6,1.1-3.3,2.3-4.9,3.3c-0.8,0.5-1.7,1.1-2.5,1.6c-1.7,1-3.4,2-5.2,3c-16.6,9.1-35.6,14.4-55.8,14.9c-16.3,0.4-31.9-2.3-46.2-7.7
	C385.5,1364.7,384.2,1364.2,382.9,1363.7z"/>
<path class="st8" d="M351.3,1153.4c0.8-0.7,1.5-1.3,2.3-1.9c1.5-1.2,3.1-2.4,4.7-3.6c4.8-3.4,9.9-6.6,15.3-9.3
	c1.8-0.9,3.6-1.8,5.4-2.6c14.6-6.6,30.8-10.5,47.8-10.9c1.9,0,3.3,0,5.8,0V919.7l-54.3,1.4c-10.9,0.3-14.9,8.2-14.6,19.2l1.2,49.2
	c-30.8,7.5-55.2,19.1-78.2,34.2l-1.4-0.1l-36.3-33.9c-7.9-7.5-20.8-7.2-28.3,0.7l-59.2,62.1c-7.5,7.9-7.3,20.5,0.7,28l35.7,35.2
	c-14.1,24.5-24,47.8-29.5,79l-0.2,0L119,1196c-10.9,0.3-16.8,6.8-16.6,17.7l2.2,85.6c0.3,10.9,6.5,18.6,17.5,18.3l49.2-1.3
	c7.5,30.8,19,53.4,34.1,76.3l-0.1,0.4l-33.9,35.8c-7.5,7.9-7.2,20.6,0.7,28.1l62.1,59c8,7.5,20.5,7.2,28-0.7l36.1-35.8
	c24.5,14.1,48.7,24,79.9,29.4l0,0.2l1.3,49.2c0.3,10.9,5.2,20.6,16.1,20.3l37-0.9v-206.2c-17,0.3-31.5-2.4-45.7-7.7
	c-1.3-0.5-2.7-1-4-1.5c-1.2-0.5-2.4-1-3.6-1.5c-3.6-1.6-7.2-3.4-10.6-5.4c-1.7-1-3.4-2-5.1-3.1c-1.7-1.1-3.3-2.2-4.9-3.3
	c-0.8-0.6-1.6-1.2-2.4-1.7c-4.6-3.4-8.9-7.1-13-11.1c-4-4-7.8-8.3-11.3-12.8c-1.4-1.8-2.7-3.7-4-5.5c-3.9-5.7-7.3-11.7-10.2-18
	c-6.8-14.7-10.7-31-11.2-48.2c-0.9-36.2,13.8-69.1,38.1-92.3C346.8,1157.3,349,1155.3,351.3,1153.4z"/>
<path class="st3" d="M870.7,777.2l-22.9,0.6c-3.5-14.3-8.9-25.2-15.9-35.9l0.1-0.4l15.8-16.8c3.5-3.7,3.4-9.6-0.3-13.1l-28.9-27.5
	c-3.7-3.5-9.5-3.4-13,0.3L790,701c-11.4-6.5-21.4-11.2-35.8-13.7l0-0.1l-0.6-22.9c-0.1-5.1-4.9-8.6-10-8.5l-39.8,1
	c-5.1,0.1-6.9,3.8-6.8,8.9l0.6,22.9c-14.3,3.5-25.7,8.9-36.3,15.9l-0.6-0.1l-16.9-15.8c-3.7-3.5-9.7-3.4-13.2,0.3l-27.5,28.9
	c-3.5,3.7-3.4,9.5,0.3,13l16.6,16.4c-6.5,11.4-11.2,22.2-13.7,36.7l-0.1,0l-22.9,0.6c-5.1,0.1-7.8,3.1-7.7,8.2l1,39.8
	c0.1,5.1,3,8.6,8.1,8.5l22.9-0.6c3.5,14.3,8.8,24.8,15.9,35.5l-0.1,0.2l-15.8,16.7c-3.5,3.7-3.4,9.5,0.3,13.1l28.9,27.4
	c3.7,3.5,9.5,3.4,13-0.3l16.8-16.6c11.4,6.5,22.6,11.1,37.1,13.7l0,0.1l0.6,22.9c0.1,5.1,2.4,9.6,7.4,9.4l39.8-1
	c5.1-0.1,9.4-4.8,9.3-9.9l-0.6-22.9c14.3-3.5,24.4-8.8,35.1-15.8l0,0.1l16.5,15.8c3.7,3.5,9.5,3.4,13-0.3l27.4-28.9
	c3.5-3.7,3.3-9.5-0.3-13l-16.6-15.9c6.5-11.4,11.1-24.7,13.7-36.3l0.1,0l22.9-0.6c5.1-0.1,10.4-4.1,10.2-9.2l-1-39.8
	C881.2,779.7,875.7,777.1,870.7,777.2z M706,861.9c-0.6-0.2-1.1-0.5-1.7-0.7c-1.7-0.8-3.3-1.6-4.9-2.5c-0.8-0.5-1.6-0.9-2.4-1.4
	c-0.8-0.5-1.5-1-2.3-1.5c-0.4-0.3-0.7-0.5-1.1-0.8c-2.1-1.6-4.1-3.3-6-5.2c-1.9-1.9-3.6-3.8-5.3-6c-0.6-0.8-1.3-1.7-1.9-2.6
	c-1.8-2.6-3.4-5.4-4.7-8.4c-3.1-6.8-5-14.4-5.2-22.4c-0.4-16.8,6.4-32.1,17.7-42.9c1-1,2-1.9,3.1-2.7c0.4-0.3,0.7-0.6,1.1-0.9
	c0.7-0.6,1.5-1.1,2.2-1.7c2.2-1.6,4.6-3,7.1-4.3c0.8-0.4,1.7-0.8,2.5-1.2c6.8-3.1,14.3-4.9,22.2-5.1c9.4-0.2,18.3,1.8,26.2,5.6
	c0.8,0.4,1.7,0.8,2.5,1.3c1.2,0.7,2.4,1.4,3.6,2.1c0.8,0.5,1.5,1,2.3,1.5c0.4,0.3,0.7,0.5,1.1,0.8c0.7,0.5,1.5,1.1,2.2,1.7
	c1.1,0.9,2.1,1.8,3.1,2.7c0.7,0.6,1.3,1.3,1.9,1.9c1.6,1.7,3.1,3.4,4.5,5.2c0.6,0.7,1.1,1.5,1.6,2.2c0.5,0.8,1,1.5,1.5,2.3
	c0.7,1.2,1.4,2.4,2,3.6c3.8,7.4,6.1,15.8,6.3,24.7c0.1,4.9-0.4,9.8-1.4,14.4c-0.2,0.9-0.4,1.8-0.7,2.7c-0.4,1.4-0.8,2.7-1.3,4
	c-0.3,0.9-0.7,1.7-1,2.6c-0.2,0.6-0.5,1.1-0.8,1.7c-0.5,1.1-1.1,2.2-1.7,3.3c-0.4,0.8-0.9,1.6-1.4,2.4c-0.4,0.6-0.8,1.2-1.2,1.9
	c-0.4,0.5-0.7,1.1-1.1,1.6c-0.3,0.4-0.5,0.7-0.8,1.1c-0.5,0.7-1.1,1.5-1.7,2.2c-0.3,0.4-0.6,0.7-0.9,1.1c-0.6,0.7-1.2,1.4-1.8,2
	c-0.3,0.3-0.6,0.7-1,1c-1.3,1.3-2.6,2.5-4.1,3.7c-0.4,0.3-0.7,0.6-1.1,0.9c-0.7,0.6-1.5,1.1-2.2,1.7c-0.7,0.5-1.5,1.1-2.3,1.6
	c-0.4,0.2-0.8,0.5-1.2,0.7c-0.8,0.5-1.6,0.9-2.4,1.4c-7.7,4.2-16.5,6.7-25.9,6.9c-7.6,0.2-14.8-1.1-21.5-3.6
	C707.2,862.4,706.6,862.2,706,861.9z"/>
<path class="st0" d="M1061.1,1062.8l-21.4,0.5c-3.3-13.4-8.3-23.6-14.9-33.6l0.1-0.4l14.7-15.7c3.3-3.4,3.1-9-0.3-12.3l-27-25.7
	c-3.5-3.3-8.9-3.2-12.2,0.3l-14.5,15.5c-10.7-6.1-20-10.5-33.5-12.8l0-0.1l-0.5-21.4c-0.1-4.8-4.6-8.1-9.3-7.9l-37.2,1
	c-4.8,0.1-6.4,3.6-6.3,8.3l0.5,21.4c-13.4,3.2-24,8.3-34,14.9l-0.6-0.1l-15.8-14.7c-3.4-3.3-9-3.1-12.3,0.3l-25.7,27
	c-3.3,3.4-3.2,8.9,0.3,12.2l15.5,15.3c-6.1,10.7-10.4,20.8-12.8,34.3l-0.1,0l-21.4,0.5c-4.8,0.1-7.3,2.9-7.2,7.7l1,37.2
	c0.1,4.8,2.8,8.1,7.6,8l21.4-0.5c3.2,13.4,8.3,23.2,14.8,33.2l-0.1,0.2l-14.7,15.6c-3.3,3.4-3.1,8.9,0.3,12.2l27,25.7
	c3.4,3.3,8.9,3.1,12.2-0.3l15.7-15.5c10.7,6.1,21.2,10.4,34.7,12.8l0,0.1l0.5,21.4c0.1,4.8,2.2,9,7,8.8l37.2-1
	c4.8-0.1,8.8-4.5,8.7-9.2l-0.6-21.4c13.4-3.2,22.8-8.3,32.8-14.8l0,0.1l15.5,14.7c3.4,3.3,8.9,3.1,12.2-0.3l25.6-27
	c3.3-3.5,3.1-8.9-0.3-12.2l-15.5-14.9c6.1-10.7,10.4-23.1,12.8-33.9h0.1l21.4-0.6c4.8-0.1,9.7-3.8,9.6-8.6l-1-37.2
	C1070.9,1065.1,1065.8,1062.7,1061.1,1062.8z M907.1,1142.1c-0.5-0.2-1-0.4-1.6-0.7c-1.6-0.7-3.1-1.5-4.6-2.4
	c-0.7-0.4-1.5-0.9-2.2-1.3c-0.7-0.5-1.4-0.9-2.1-1.4c-0.4-0.3-0.7-0.5-1-0.8c-2-1.5-3.9-3.1-5.6-4.8c-1.8-1.7-3.4-3.6-4.9-5.6
	c-0.6-0.8-1.2-1.6-1.7-2.4c-1.7-2.5-3.2-5.1-4.4-7.8c-2.9-6.4-4.7-13.5-4.8-21c-0.4-15.7,6-30,16.5-40.1c0.9-0.9,1.9-1.7,2.9-2.6
	c0.3-0.3,0.7-0.5,1-0.8c0.7-0.5,1.4-1.1,2.1-1.6c2.1-1.5,4.3-2.9,6.6-4c0.8-0.4,1.6-0.8,2.3-1.1c6.3-2.9,13.4-4.6,20.7-4.7
	c8.8-0.2,17.1,1.7,24.5,5.2c0.8,0.4,1.5,0.8,2.3,1.2c1.1,0.6,2.3,1.3,3.3,2c0.7,0.5,1.4,0.9,2.1,1.4c0.4,0.3,0.7,0.5,1,0.8
	c0.7,0.5,1.4,1,2,1.6c1,0.8,2,1.7,2.9,2.6c0.6,0.6,1.2,1.2,1.8,1.8c1.5,1.6,2.9,3.2,4.2,4.9c0.5,0.7,1,1.4,1.5,2.1
	c0.5,0.7,1,1.4,1.4,2.2c0.7,1.1,1.3,2.2,1.9,3.4c3.6,6.9,5.7,14.8,5.9,23.1c0.1,4.6-0.4,9.1-1.3,13.4c-0.2,0.9-0.4,1.7-0.7,2.6
	c-0.4,1.3-0.8,2.5-1.2,3.7c-0.3,0.8-0.6,1.6-1,2.4c-0.2,0.5-0.5,1.1-0.7,1.6c-0.5,1.1-1,2.1-1.5,3.1c-0.4,0.8-0.8,1.5-1.3,2.2
	c-0.4,0.6-0.7,1.2-1.1,1.7c-0.3,0.5-0.7,1-1,1.5c-0.2,0.3-0.5,0.7-0.8,1c-0.5,0.7-1,1.4-1.6,2c-0.3,0.3-0.6,0.7-0.8,1
	c-0.6,0.6-1.1,1.3-1.7,1.9c-0.3,0.3-0.6,0.6-0.9,0.9c-1.2,1.2-2.5,2.4-3.8,3.5c-0.3,0.3-0.7,0.5-1,0.8c-0.7,0.5-1.4,1.1-2.1,1.5
	c-0.7,0.5-1.4,1-2.1,1.4c-0.4,0.2-0.7,0.5-1.1,0.7c-0.7,0.4-1.5,0.9-2.2,1.3c-7.2,3.9-15.5,6.3-24.2,6.5c-7.1,0.2-13.9-1-20.1-3.3
	C908.2,1142.6,907.6,1142.3,907.1,1142.1z"/>
<g>
	<path class="st13" d="M914.8,1398.4l-0.2,9.7c-5.5-0.5-11-1.1-16.4-1.9l0.6-9.6C904,1397.3,909.4,1397.9,914.8,1398.4z"/>
	<path class="st13" d="M1516.5,668.5c-0.1,11.7-0.5,23.3-0.9,32.1l-9.7-1.1c0.4-8.7,0.8-20.2,0.9-31.8L1516.5,668.5z M1514.2,732.4
		l-0.1,3.7c-0.3,9.5-0.5,18.9-0.9,28.2l-9.8-1c0.3-9.3,0.6-18.7,0.9-28.2l0.1-3.8L1514.2,732.4z M1511.8,796.3
		c-0.6,11.4-1.3,21.8-2.1,31.9l-9.7-1.5c0.8-10,1.5-20.4,2.1-31.6L1511.8,796.3z M1506.5,860c-0.9,7.7-2,15.4-3.2,22.8
		c-0.5,2.9-0.9,5.8-1.4,8.7l-9.6-2.3c0.5-2.9,1-5.7,1.4-8.6c1.1-7.3,2.2-14.9,3.1-22.6L1506.5,860z M1495.6,922.9
		c-2.3,10.2-5,20.5-8,30.7l-9.4-3.3c2.9-10.1,5.5-20.2,7.9-30.2L1495.6,922.9z M1478.1,983.7c-3.4,9.9-7.1,19.8-11,29.6l-9.1-4.1
		c3.9-9.6,7.5-19.5,10.8-29.2L1478.1,983.7z M1454.7,1042.3c-4.3,9.5-8.9,19-13.7,28.3l-8.8-4.9c4.7-9.2,9.2-18.6,13.5-27.9
		L1454.7,1042.3z M1426.1,1098.1c-5.1,9-10.6,18.1-16.1,26.9l-8.4-5.6c5.5-8.7,10.8-17.6,15.9-26.5L1426.1,1098.1z M1392.8,1151.1
		c-5.9,8.5-12.1,17-18.3,25.3l-7.9-6.2c6.2-8.1,12.3-16.5,18.1-25L1392.8,1151.1z M1355,1200.8c-6.6,8-13.5,15.9-20.5,23.5l-7.4-6.8
		c6.9-7.5,13.7-15.4,20.2-23.2L1355,1200.8z M1305.8,1239.8l7.2,7.1c-7.4,7.4-15,14.6-22.6,21.5l-6.9-7.4
		C1291.1,1254.2,1298.6,1247.1,1305.8,1239.8z M1260.3,1281.2l6.5,7.7c-8.1,6.7-16.4,13.1-24.6,19.3l-6.2-7.9
		C1244.2,1294.2,1252.3,1287.8,1260.3,1281.2z M1210.8,1317.9l5.8,8.2c-8.7,5.8-17.7,11.4-26.6,16.6l-5.4-8.5
		C1193.4,1329.1,1202.2,1323.6,1210.8,1317.9z M1157.4,1349.1l4.9,8.7c-9.4,4.8-19,9.3-28.5,13.5l-4.4-9
		C1138.8,1358.3,1148.2,1353.8,1157.4,1349.1z M1100.6,1373.8l3.9,9.2c-10,3.6-20.2,6.9-30.2,9.8l-3.3-9.4
		C1080.8,1380.6,1090.8,1377.4,1100.6,1373.8z M1040.6,1391l2.7,9.5c-10.5,2.2-21.1,4.1-31.6,5.5l-2-9.6
		C1019.9,1394.9,1030.3,1393.1,1040.6,1391z M978.3,1399.4l1.3,9.7c-10.8,0.7-21.7,0.9-32.4,0.7l-0.5-9.7
		C957.1,1400.3,967.7,1400.1,978.3,1399.4z"/>
	<path class="st13" d="M1513.7,619.5c0.8,5.2,1.4,10.7,1.8,16.5l-9.7,0.1c-0.4-5.6-1-10.9-1.7-15.9L1513.7,619.5z"/>
	<g>
		<polygon class="st13" points="864.8,1395.6 910.3,1422.4 900.9,1401.5 914,1384.2 		"/>
	</g>
	<g>
		<polygon class="st13" points="1500.1,586.8 1530.6,630 1509,622.4 1492.9,636.9 		"/>
	</g>
</g>
<path class="st13" d="M1511.3,103.1h-85.2c-2.8,0-5.1-2.3-5.1-5.1v-0.9c0-2.8,2.3-5.1,5.1-5.1h85.2c2.8,0,5.1,2.3,5.1,5.1V98
	C1516.4,100.8,1514.1,103.1,1511.3,103.1z"/>
<path class="st13" d="M1416.8,54.5c0,0,9.7,19,13.9,32.2h73.9c0,0-10.1-40.3,28.7-53.2c0,0-16.9,5.4-37.1,2.5
	c-3.7-0.5-16.6-7.6-20.4-9.9c-7.3-4.4-5.7-7.8-21.6-8.1c-16.5-0.3-11.8,11.6-10.8,13.7c0.2,0.4,0.4,0.8,0.5,1.2
	c0.8,1.9,2.5,6.4,4,11.5c2,6.8-0.3,9.1-0.3,9.1s-4,3.6-17.8,1.7c-13.8-1.9-19.6-11.7-19.6-11.7L1416.8,54.5z"/>
<path class="st13" d="M1611.9,300.4c-1.6-14.2-7.3-46.1-11.5-55.8c-0.4-1-1-2-1.4-3.1c-3.5-9.4-19.7-51.4-40.3-78.5
	c-23.4-30.8-31.8-41.7-41.1-51.4h-94.2c0,0-42.8,41.1-69.1,98.1c-1.9,4.1-3.5,8.6-4.8,12.9c-1.9,6-6.5,15.8-9.7,27
	c-6,21.2-10.9,47.4-10,59.2c0,0,0,12.2,4.1,26.5c4.8,16.4,14.6,36.2,29.8,49.9c31.1,28.3,29.5,24.2,58.1,35.5
	c43.1,17.1,99.4-0.6,99.4-0.6s40.5-13.3,64.9-44.6c22.1-28.3,23.5-41.7,25.9-61.7C1612.4,309.4,1612.4,304.8,1611.9,300.4z
	 M1471.3,352.6c-39.8,0-72.1-32.3-72.1-72.1c0-39.8,32.3-72.1,72.1-72.1c39.8,0,72.1,32.3,72.1,72.1
	C1543.4,320.3,1511.1,352.6,1471.3,352.6z"/>
<g>
	<rect x="1462" y="220.8" class="st10" width="5.4" height="119.3"/>
	<rect x="1471.8" y="220.8" class="st10" width="5.4" height="119.3"/>
	<g>
		<path class="st10" d="M1446.3,308.3c2.9,3.2,6.5,6.1,10.7,8.6c4.2,2.5,9.1,3.7,14.6,3.7c6.3,0,11.4-1.5,15.2-4.4
			c3.8-3,5.7-7.2,5.7-12.8c0-5.4-1.7-9.4-5.2-12.1c-3.5-2.6-8.7-5.2-15.6-7.8l-5.3-2.2c-7.4-2.6-13.6-6.2-18.6-10.6
			c-5-4.4-7.5-10.3-7.5-17.6c0-7.4,2.9-13.3,8.6-17.7c5.7-4.4,12.9-6.6,21.6-6.6c6.7,0,12.2,1,16.6,3c4.4,2,8.5,4.9,12.2,8.6l-6.1,7
			c-2.7-2.5-5.8-4.7-9.3-6.7c-3.6-2-8-3-13.2-3c-5.6,0-10.3,1.3-14.1,4c-3.8,2.7-5.6,6.1-5.6,10.3c0,5.1,2.1,9.1,6.3,12
			c4.2,2.9,8.5,5.2,13,6.9l9.1,3.8c9.4,3.5,15.8,7.3,19.1,11.4c3.3,4,5,9.4,5,15.9c0,8.7-3.1,15.5-9.2,20.3
			c-6.2,4.8-13.7,7.1-22.7,7.1c-3.7,0-7-0.3-10.1-0.8c-3.1-0.5-5.9-1.3-8.6-2.4c-2.7-1.1-5.2-2.5-7.6-4.3c-2.4-1.7-4.7-3.8-7-6.2
			L1446.3,308.3z"/>
	</g>
</g>
<g>
	<g>
		<path class="st6" d="M1855.3,1258.7c-3,1.8-6,3.4-9.4,4.3c-3.7,1-4.6,6.9-1.6,9.7c5.1,4.8,8,10.8,9.2,17.5
			c2.3,12.3-2.5,22.2-11.5,30.2c-3.7,3.3-7.9,5.9-12.5,7.9c-4.8,2.1-5.8,8.5-1.8,11.8c9,7.7,11.6,18.5,6.9,30.1
			c-3.8,9.4-10,16.9-19,21.8c-1.2,0.7-2.5,1.2-3.8,1.6c-3.2,1-4.5,2.5-4.7,5.8c-0.2,2.5,0.5,4.5,2.5,6.2c4.9,4.3,8.4,9.4,9.3,16
			c0.7,5-0.4,9.8-2.5,14.4c-3.3,6.9-8.2,12.5-14,17.4c-2.7,2.3-9.7,5.8-15.2,8.2c-3,1.3-12.2,3.2-14.9,3.8
			c-133.3,27.1-227-8-238.9-12.3c-2.5-0.9-10.8-6.3-13.1-6.3c-0.4,0-3.2-0.7-3.2-1v-199.6c5-3.5,9.9-7,14.9-10.5
			c0.5-0.3,0.9-0.7,1.3-1.2c0.2-0.2,0.3-0.3,0.4-0.5c26.5-33.3,43.5-68.7,63.2-106.3c13.2-25.2,16.5-78.9,16.4-99.2
			c0-8.1,6.1-21.4,21.9-21.4c4,0.1,12.4,0.3,17.4,2.2c6,2.2,11.1,10,16.2,20c7,13.6,11.4,28.4,15.5,43.2c1.6,5.6,2.9,11.2,3.7,16.9
			c0.6,4.2,0.6,8.4,0.3,12.6c-0.3,4.8-0.6,9.6-1.1,14.4c-0.9,9.4-2.3,18.8-3.9,28.2c-1.7,10.1-3.7,20.2-5.7,30.3
			c0,0.1,0,0.2-0.1,0.3c0,0.7-0.1,1.6-0.4,2.5c-3.3,12.9,9.9,20.5,17.7,23.8c2.1,0.9,10.6,1.9,12.9,1.9c42.6,0,114.1-0.2,122.8-0.2
			c5.8,0,11.6-0.1,17.3,0.2c9.5,0.5,19.9,6.6,22.9,19.2C1874.2,1236.2,1867.8,1250.9,1855.3,1258.7z"/>
		<path class="st5" d="M1517.5,1458.6c0,10.3-8.3,18.7-18.6,18.7h-68.5c-10.2,0-18.6-8.4-18.6-18.7v-228.4
			c0-10.3,8.3-18.7,18.6-18.7h68.5c10.3,0,18.6,8.4,18.6,18.7V1458.6z"/>
		<g>
			<path class="st13" d="M1451.8,1389.6c-0.8,0-1.5,0.3-1.5,0.6v5.7c0,0.3,0.7,0.6,1.5,0.6c0.8,0,1.5-0.3,1.5-0.6v-5.7
				C1453.3,1389.8,1452.7,1389.6,1451.8,1389.6z"/>
			<path class="st13" d="M1451.8,1374.8c-0.8,0-1.5,0.3-1.5,0.6v5.7c0,0.3,0.7,0.6,1.5,0.6c0.8,0,1.5-0.3,1.5-0.6v-5.7
				C1453.3,1375,1452.7,1374.8,1451.8,1374.8z"/>
			<path class="st13" d="M1451.8,1359.9c-0.8,0-1.5,0.3-1.5,0.6v5.7c0,0.3,0.7,0.6,1.5,0.6c0.8,0,1.5-0.3,1.5-0.6v-5.7
				C1453.3,1360.2,1452.7,1359.9,1451.8,1359.9z"/>
			<path class="st13" d="M1451.8,1345.1c-0.8,0-1.5,0.3-1.5,0.6v5.7c0,0.3,0.7,0.6,1.5,0.6c0.8,0,1.5-0.3,1.5-0.6v-5.7
				C1453.3,1345.4,1452.7,1345.1,1451.8,1345.1z"/>
			<path class="st13" d="M1451.8,1434c-0.8,0-1.5,0.3-1.5,0.6v5.7c0,0.3,0.7,0.6,1.5,0.6c0.8,0,1.5-0.3,1.5-0.6v-5.7
				C1453.3,1434.2,1452.7,1434,1451.8,1434z"/>
			<path class="st13" d="M1451.8,1404.4c-0.8,0-1.5,0.3-1.5,0.6v5.7c0,0.3,0.7,0.6,1.5,0.6c0.8,0,1.5-0.3,1.5-0.6v-5.7
				C1453.3,1404.6,1452.7,1404.4,1451.8,1404.4z"/>
			<path class="st13" d="M1451.8,1419.2c-0.8,0-1.5,0.3-1.5,0.6v5.7c0,0.3,0.7,0.6,1.5,0.6c0.8,0,1.5-0.3,1.5-0.6v-5.7
				C1453.3,1419.4,1452.7,1419.2,1451.8,1419.2z"/>
			<path class="st13" d="M1451.8,1256.3c-0.8,0-1.5,0.3-1.5,0.6v5.7c0,0.3,0.7,0.6,1.5,0.6c0.8,0,1.5-0.3,1.5-0.6v-5.7
				C1453.3,1256.6,1452.7,1256.3,1451.8,1256.3z"/>
			<path class="st13" d="M1451.8,1241.5c-0.8,0-1.5,0.3-1.5,0.6v5.7c0,0.3,0.7,0.6,1.5,0.6c0.8,0,1.5-0.3,1.5-0.6v-5.7
				C1453.3,1241.8,1452.7,1241.5,1451.8,1241.5z"/>
			<path class="st13" d="M1451.8,1226.7c-0.8,0-1.5,0.3-1.5,0.6v5.7c0,0.3,0.7,0.6,1.5,0.6c0.8,0,1.5-0.3,1.5-0.6v-5.7
				C1453.3,1227,1452.7,1226.7,1451.8,1226.7z"/>
			<path class="st13" d="M1451.8,1271.1c-0.8,0-1.5,0.3-1.5,0.6v5.7c0,0.3,0.7,0.6,1.5,0.6c0.8,0,1.5-0.3,1.5-0.6v-5.7
				C1453.3,1271.4,1452.7,1271.1,1451.8,1271.1z"/>
			<path class="st13" d="M1451.8,1300.7c-0.8,0-1.5,0.3-1.5,0.6v5.7c0,0.3,0.7,0.6,1.5,0.6c0.8,0,1.5-0.3,1.5-0.6v-5.7
				C1453.3,1301,1452.7,1300.7,1451.8,1300.7z"/>
			<path class="st13" d="M1451.8,1285.9c-0.8,0-1.5,0.3-1.5,0.6v5.7c0,0.3,0.7,0.6,1.5,0.6c0.8,0,1.5-0.3,1.5-0.6v-5.7
				C1453.3,1286.2,1452.7,1285.9,1451.8,1285.9z"/>
			<path class="st13" d="M1451.8,1315.5c-0.8,0-1.5,0.3-1.5,0.6v5.7c0,0.3,0.7,0.6,1.5,0.6c0.8,0,1.5-0.3,1.5-0.6v-5.7
				C1453.3,1315.8,1452.7,1315.5,1451.8,1315.5z"/>
			<path class="st13" d="M1451.8,1330.3c-0.8,0-1.5,0.3-1.5,0.6v5.7c0,0.3,0.7,0.6,1.5,0.6c0.8,0,1.5-0.3,1.5-0.6v-5.7
				C1453.3,1330.6,1452.7,1330.3,1451.8,1330.3z"/>
		</g>
		<path class="st13" d="M1467.5,1443.9c0,8.7-7,15.7-15.6,15.7c-8.6,0-15.6-7.1-15.6-15.7c0-8.7,7-15.7,15.6-15.7
			C1460.5,1428.2,1467.5,1435.2,1467.5,1443.9z"/>
	</g>
	<g>
		<path class="st14" d="M1855.3,1257.6c-2.9,1.8-6,3.4-9.4,4.3c-3.7,1-4.7,6.9-1.6,9.7c5.1,4.8,8,10.8,9.2,17.5
			c2.3,12.3-2.5,22.2-11.5,30.2c-3.7,3.3-7.9,5.9-12.5,7.9c-1.4,0.6-2.5,1.6-3.2,2.8h-309.1v-84.8c0.1-0.1,0.3-0.2,0.4-0.3
			c4.8-3.4,9.7-6.8,14.5-10.2c0.5-0.4,0.9-0.7,1.3-1.2c0.1-0.1,0.3-0.3,0.4-0.5c26.5-33.3,43.5-68.7,63.2-106.4
			c13.2-25.2,16.5-78.9,16.4-99.1c0-8.1,6.1-21.4,21.9-21.4c4,0.1,12.4,0.3,17.4,2.2c6,2.2,11.1,10,16.2,20
			c7,13.6,11.4,28.4,15.5,43.2c1.5,5.5,2.9,11.2,3.7,16.9c0.6,4.1,0.6,8.4,0.3,12.6c-0.3,4.8-0.6,9.6-1.1,14.4
			c-0.9,9.4-2.3,18.8-3.9,28.2c-1.7,10.1-3.7,20.2-5.7,30.3c0,0.1,0,0.2-0.1,0.4c0,0.7-0.1,1.6-0.4,2.5
			c-3.3,12.9,9.9,20.5,17.7,23.8c2,0.9,10.6,1.9,12.9,1.9c42.6,0,114.1-0.2,122.7-0.2c5.8,0,11.6-0.1,17.3,0.2
			c9.5,0.5,19.9,6.6,22.9,19.2C1874.2,1235.1,1867.8,1249.8,1855.3,1257.6z"/>
		<path class="st3" d="M1517.4,1229v100.8h-104.4V1229c0-10.3,7.2-18.1,17.4-18.1h68.4C1509.2,1210.9,1517.4,1218.7,1517.4,1229z"/>
		<g>
			<path class="st11" d="M1451.8,1255.2c-0.8,0-1.5,0.3-1.5,0.6v5.7c0,0.3,0.7,0.6,1.5,0.6c0.8,0,1.5-0.3,1.5-0.6v-5.7
				C1453.3,1255.5,1452.7,1255.2,1451.8,1255.2z"/>
			<path class="st11" d="M1451.8,1240.4c-0.8,0-1.5,0.3-1.5,0.6v5.7c0,0.3,0.7,0.6,1.5,0.6c0.8,0,1.5-0.3,1.5-0.6v-5.7
				C1453.3,1240.7,1452.7,1240.4,1451.8,1240.4z"/>
			<path class="st11" d="M1451.8,1225.6c-0.8,0-1.5,0.3-1.5,0.6v5.7c0,0.3,0.7,0.6,1.5,0.6c0.8,0,1.5-0.3,1.5-0.6v-5.7
				C1453.3,1225.9,1452.7,1225.6,1451.8,1225.6z"/>
			<path class="st11" d="M1451.8,1270c-0.8,0-1.5,0.3-1.5,0.6v5.7c0,0.3,0.7,0.6,1.5,0.6c0.8,0,1.5-0.3,1.5-0.6v-5.7
				C1453.3,1270.3,1452.7,1270,1451.8,1270z"/>
			<path class="st11" d="M1451.8,1299.6c-0.8,0-1.5,0.3-1.5,0.6v5.7c0,0.3,0.7,0.6,1.5,0.6c0.8,0,1.5-0.3,1.5-0.6v-5.7
				C1453.3,1299.9,1452.7,1299.6,1451.8,1299.6z"/>
			<path class="st11" d="M1451.8,1284.8c-0.8,0-1.5,0.3-1.5,0.6v5.7c0,0.3,0.7,0.6,1.5,0.6c0.8,0,1.5-0.3,1.5-0.6v-5.7
				C1453.3,1285.1,1452.7,1284.8,1451.8,1284.8z"/>
			<path class="st11" d="M1451.8,1314.4c-0.8,0-1.5,0.3-1.5,0.6v5.7c0,0.3,0.7,0.6,1.5,0.6c0.8,0,1.5-0.3,1.5-0.6v-5.7
				C1453.3,1314.7,1452.7,1314.4,1451.8,1314.4z"/>
			<path class="st11" d="M1453.3,1329.8v0.1h-3v-0.1c0-0.3,0.7-0.6,1.5-0.6C1452.7,1329.3,1453.3,1329.5,1453.3,1329.8z"/>
		</g>
	</g>
</g>
<ellipse class="st4" cx="1247.4" cy="751.6" rx="190.1" ry="193.6"/>
<path class="st2" d="M1336,858.1c-4.3-3.1-5.9-8.8-3.6-12.7l10.8-17.6c2.4-3.9,7.8-4.5,12.1-1.4l31.3,22.5c1.4-16-5-34.2-18.7-48.5
	c-3.3-3.4-6.7-6.4-10.4-9c0,0-0.1-0.1-0.1-0.1c-2.2-1.8-4.6-3.2-6.9-4.2c-2.4-1.1-5-1.8-7.5-2.2l0,0c-1.7-0.2-3.2-0.4-4.8-0.3
	c-4.5-0.3-11-0.7-14.9-1.4c-6.5-1.1-15.2-5.4-15.2-5.4l-39.9-41.7l0.1-0.1l-39.3-41.2c0,0-8.7-10.1-9.4-20.6
	c-0.8-10.5-0.6-18.8-0.6-18.8l0,0c0.2-5.1-1.4-10.5-4.4-15.4c-1.8-2.9-4-5.5-6.8-7.8c0,0,0,0,0,0c-19.6-19.4-47-24.8-65.8-13.9
	l31.3,22.5c4.3,3.1,5.9,8.8,3.5,12.7l-10.8,17.6c-2.4,3.9-7.8,4.5-12.1,1.4l-31.3-22.5c-1.4,16,5,34.2,18.7,48.5
	c3.2,3.4,6.7,6.4,10.4,9c0,0,0.1,0.1,0.1,0.1c2.2,1.8,4.5,3.2,6.9,4.3c2.4,1.1,5,1.8,7.5,2.2l0,0c1.7,0.2,3.2,0.4,4.8,0.3
	c4.5,0.3,11,0.7,14.9,1.4c6.5,1.1,15.2,5.4,15.2,5.4l39.8,41.8l-0.1,0.1l39.3,41.2c0,0,8.7,10.1,9.5,20.6s0.7,18.8,0.7,18.8l0,0
	c-0.2,5.1,1.4,10.5,4.4,15.3c1.8,2.9,4,5.5,6.8,7.8c0,0,0,0,0,0c19.7,19.4,47,24.7,65.8,13.8L1336,858.1z"/>
<path class="st13" d="M1336,615.3l-2.4,2.2l-20.3,18.9c-5.9,5.5-7.6,12.7-6,18.7l-90.9,106.5l12.5,10.7l91-106.7
	c6.3,0.6,13.3-2.3,17.7-8.7l14.8-23.4l1.8-2.8L1336,615.3z"/>
<path class="st3" d="M1218.1,759.6l-8.2-7c-1.9-1.6-5-1.4-7.1,1l-0.9,1.1c-0.1,0.1-0.2,0.3-0.3,0.5c0,0,0,0.1-0.1,0.2
	c-0.1,0.1-0.1,0.2-0.2,0.3c0,0.1-0.1,0.1-0.1,0.2c0,0.1-0.1,0.2-0.1,0.2c0,0.1-0.1,0.1-0.1,0.2c0,0,0,0,0,0
	c-0.1,0.2-0.2,0.5-0.3,0.7c0,0,0,0,0,0.1c0,0.1-0.1,0.2-0.1,0.4l0,0c0,0,0,0,0,0.1c0,0.1,0,0.1,0,0.2c0,0-0.1,0.1-0.1,0.1
	c0,0-0.2,0.2-0.1,0.3l-1.1-1c-1.1-0.9-2.8-0.9-3.9,0.5l-75.9,89.1c-9,10.6-9.8,25.7-1.3,32.9l9.9,8.4c8.5,7.2,23.2,4,32.2-6.6
	l75.9-89.1c1.1-1.3,1-3-0.1-3.9l-1.6-1.4l0,0c0,0,0.3-0.2,0.4-0.2c0,0,0.1-0.1,0.2-0.1c0.1,0,0.2-0.1,0.3-0.2c0,0,0.1-0.1,0.1-0.1
	c0.1-0.1,0.2-0.1,0.4-0.2c0.1-0.1,0.2-0.1,0.3-0.2c0.1,0,0.1-0.1,0.2-0.1c0.1-0.1,0.2-0.1,0.2-0.2c0.1,0,0.1-0.1,0.2-0.1
	c0.1-0.1,0.2-0.2,0.3-0.2c0,0,0-0.2,0-0.2c0.1-0.1,0.2-0.3,0.3-0.5l0.9-1.1c1.9-2.3,2.1-4.9,0.5-6.6l-4.9-4.2l-3-2.5l0,0
	L1218.1,759.6L1218.1,759.6z"/>
<path class="st5" d="M1132.2,863.1c-2.3,2.7-5.9,3.3-8.1,1.5c-2.1-1.8-2.1-5.5,0.2-8.2l69.1-81.2c2.3-2.7,5.9-3.3,8.1-1.5
	c2.1,1.8,2.1,5.5-0.2,8.2L1132.2,863.1z"/>
<path class="st5" d="M1149.9,878.2c-2.3,2.7-5.8,3.4-7.9,1.6s-2-5.4,0.3-8.1l69.1-81.2c2.3-2.7,5.8-3.4,7.9-1.6
	c2.1,1.8,2,5.4-0.3,8.1L1149.9,878.2z"/>
<g>
	<path class="st5" d="M707.4,863.4c-0.6-0.2-1.2-0.5-1.8-0.7c-0.6-0.2-1.1-0.5-1.7-0.7c-1.7-0.8-3.3-1.6-4.9-2.5
		c-0.8-0.5-1.6-0.9-2.4-1.4c-0.8-0.5-1.5-1-2.3-1.5c-0.4-0.3-0.7-0.5-1.1-0.8c-2.1-1.6-4.1-3.3-6-5.2c-1.9-1.9-3.6-3.8-5.3-6
		c-0.6-0.8-1.3-1.7-1.9-2.6c-1.8-2.6-3.4-5.4-4.7-8.4c-3.1-6.8-5-14.4-5.2-22.4c-0.4-16.8,6.4-32.1,17.7-42.9c1-1,2-1.9,3.1-2.7
		c0.4-0.3,0.7-0.6,1.1-0.9c0.7-0.6,1.5-1.1,2.2-1.7c2.2-1.6,4.6-3,7.1-4.3c0.8-0.4,1.7-0.8,2.5-1.2c6.8-3.1,14.3-4.9,22.2-5.1
		c0.6,0,1.3,0,1.9,0l-0.2-95.5l-24.2,0.6c-5.1,0.1-6.9,3.8-6.8,8.9l0.6,22.9c-14.3,3.5-25.7,8.9-36.3,15.9l-0.6-0.1l-16.9-15.8
		c-3.7-3.5-9.7-3.4-13.2,0.3l-27.5,28.9c-3.5,3.7-3.4,9.5,0.3,13l16.6,16.4c-6.5,11.4-11.2,22.2-13.7,36.7l-0.1,0l-22.9,0.6
		c-5.1,0.1-7.8,3.1-7.7,8.2l1,39.8c0.1,5.1,3,8.6,8.1,8.5l22.9-0.6c3.5,14.3,8.8,24.8,15.9,35.5l-0.1,0.2l-15.8,16.7
		c-3.5,3.7-3.4,9.5,0.3,13.1l28.9,27.4c3.7,3.5,9.5,3.4,13-0.3l16.8-16.6c11.4,6.5,22.6,11.1,37.1,13.7l0,0.1l0.6,22.9
		c0.1,5.1,2.4,9.6,7.4,9.4l16.9-0.4l-0.2-95.8C720.9,867,713.9,865.8,707.4,863.4z"/>
</g>
<g>
	<path class="st2" d="M928.9,1146.9c-7.1,0.2-13.9-1-20.1-3.3c-0.6-0.2-1.1-0.4-1.7-0.7c-0.5-0.2-1-0.4-1.6-0.7
		c-1.6-0.7-3.1-1.5-4.6-2.4c-0.7-0.4-1.5-0.9-2.2-1.3c-0.7-0.5-1.4-0.9-2.1-1.4c-0.3-0.3-0.7-0.5-1-0.8c-2-1.5-3.9-3.1-5.6-4.8
		c-1.8-1.7-3.4-3.6-4.9-5.6c-0.6-0.8-1.2-1.6-1.7-2.4c-1.7-2.5-3.2-5.1-4.4-7.8c-2.9-6.4-4.7-13.5-4.8-21c-0.4-15.7,6-30,16.5-40.1
		c0.9-0.9,1.9-1.7,2.9-2.6c0.3-0.3,0.7-0.5,1-0.8c0.7-0.5,1.4-1,2.1-1.5c2.1-1.5,4.3-2.9,6.6-4c0.8-0.4,1.6-0.8,2.3-1.1
		c6.3-2.9,13.4-4.6,20.8-4.7c0.9,0,1.9,0,2.8,0l-0.8-89.3l-23,0.6c-4.8,0.1-6.4,3.6-6.3,8.3l0.5,21.4c-13.4,3.3-24,8.3-34,14.9
		l-0.6-0.1l-15.8-14.7c-3.4-3.3-9-3.1-12.3,0.3l-25.7,27c-3.3,3.4-3.2,8.9,0.3,12.2l15.5,15.3c-6.1,10.7-10.4,20.8-12.8,34.3l-0.1,0
		l-21.4,0.6c-4.8,0.1-7.3,2.9-7.2,7.7l1,37.2c0.1,4.8,2.8,8.1,7.6,8l21.4-0.6c3.2,13.4,8.3,23.2,14.8,33.2l-0.1,0.2l-14.7,15.6
		c-3.3,3.5-3.1,8.9,0.3,12.2l27,25.7c3.4,3.3,8.9,3.1,12.2-0.3l14.9-15.5c10.7,6.1,21.8,10.4,33.9,12.8v0.1l1.4,21.4
		c0.1,4.8,2.6,9,7.4,8.8l18.4-0.5l-0.8-89.6C929.5,1146.8,929.2,1146.9,928.9,1146.9z"/>
</g>
</svg>
