<?xml version="1.0" encoding="utf-8"?>
<!-- Generator: Adobe Illustrator 16.0.0, SVG Export Plug-In . SVG Version: 6.00 Build 0)  -->
<!DOCTYPE svg PUBLIC "-//W3C//DTD SVG 1.1//EN" "http://www.w3.org/Graphics/SVG/1.1/DTD/svg11.dtd">
<svg version="1.1" id="Layer_1" xmlns="http://www.w3.org/2000/svg" xmlns:xlink="http://www.w3.org/1999/xlink" x="0px" y="0px"
	 width="2000px" height="2000px" viewBox="0 0 2000 2000" style="enable-background:new 0 0 2000 2000;" xml:space="preserve">
<style type="text/css">
<![CDATA[
	.st0{fill:#475263;}
	.st1{opacity:0.18;fill:#FFFFFF;}
	.st2{opacity:0.15;}
	.st3{opacity:0.18;}
	.st4{fill:#EC8457;}
	.st5{fill:#1F8BC3;}
	.st6{fill:#F4F4F4;}
	.st7{fill:#26A3DB;}
	.st8{fill:#5B6375;}
	.st9{fill:#F7D29E;}
	.st10{fill:#FFFFFF;}
	.st11{fill:#656E7F;}
	.st12{fill:#CCCCCC;}
	.st13{fill-rule:evenodd;clip-rule:evenodd;fill:url(#SVGID_1_);}
	.st14{fill-rule:evenodd;clip-rule:evenodd;fill:url(#SVGID_2_);}
	.st15{fill:#DBDBDB;}
	.st16{fill:#A8A8A8;}
]]>
</style>
<g>
	<rect x="1272.8" y="248.5" class="st15" width="703.2" height="840.9"/>
	<rect x="1434" y="430.8" class="st16" width="33.7" height="8.4"/>
	<rect x="1486.6" y="430.8" class="st16" width="33.7" height="8.4"/>
	<rect x="1539.2" y="430.8" class="st16" width="33.7" height="8.4"/>
	<rect x="1591.9" y="430.8" class="st16" width="33.7" height="8.4"/>
	<rect x="1644.5" y="430.8" class="st16" width="33.7" height="8.4"/>
	<rect x="1465.5" y="468.7" class="st16" width="153.7" height="8.4"/>
	<rect x="1650.8" y="468.7" class="st16" width="155.8" height="8.4"/>
	<rect x="1434" y="504.5" class="st16" width="69.5" height="8.4"/>
	<rect x="1511.9" y="504.5" class="st16" width="69.5" height="8.4"/>
	<rect x="1636.1" y="504.5" class="st16" width="67.4" height="8.4"/>
	<rect x="1714" y="504.5" class="st16" width="67.4" height="8.4"/>
	<rect x="1524.5" y="540.3" class="st16" width="25.3" height="8.4"/>
	<rect x="1566.6" y="540.3" class="st16" width="25.3" height="8.4"/>
	<rect x="1608.7" y="540.3" class="st16" width="25.3" height="8.4"/>
	<rect x="1648.7" y="540.3" class="st16" width="27.4" height="8.4"/>
	<rect x="1690.8" y="540.3" class="st16" width="25.3" height="8.4"/>
	<rect x="1732.9" y="540.3" class="st16" width="25.3" height="8.4"/>
	<rect x="1775" y="540.3" class="st16" width="25.3" height="8.4"/>
	<rect x="1817.1" y="540.3" class="st16" width="25.3" height="8.4"/>
	<rect x="1434" y="576.1" class="st16" width="117.9" height="8.4"/>
	<rect x="1562.4" y="576.1" class="st16" width="117.9" height="8.4"/>
	<rect x="1690.8" y="576.1" class="st16" width="117.9" height="8.4"/>
	<rect x="1434" y="611.9" class="st16" width="44.2" height="8.4"/>
	<rect x="1492.9" y="611.9" class="st16" width="44.2" height="8.4"/>
	<rect x="1554" y="611.9" class="st16" width="44.2" height="8.4"/>
	<rect x="1612.9" y="611.9" class="st16" width="44.2" height="8.4"/>
	<rect x="1703.5" y="611.9" class="st16" width="44.2" height="8.4"/>
	<rect x="1764.5" y="611.9" class="st16" width="42.1" height="8.4"/>
	<rect x="1434" y="647.7" class="st16" width="82.1" height="8.4"/>
	<rect x="1589.8" y="647.7" class="st16" width="82.1" height="8.4"/>
	<rect x="1745.6" y="647.7" class="st16" width="82.1" height="8.4"/>
	<rect x="1528.7" y="683.5" class="st16" width="130.5" height="8.4"/>
	<rect x="1686.6" y="683.5" class="st16" width="130.5" height="8.4"/>
	<rect x="1505.5" y="719.2" class="st16" width="248.4" height="8.4"/>
	<rect x="1524.5" y="755" class="st16" width="59" height="8.4"/>
	<rect x="1598.2" y="755" class="st16" width="59" height="8.4"/>
	<rect x="1669.8" y="755" class="st16" width="59" height="8.4"/>
	<rect x="1741.3" y="755" class="st16" width="61.1" height="8.4"/>
	<rect x="1448.7" y="792.9" class="st16" width="200" height="8.4"/>
	<rect x="1659.2" y="792.9" class="st16" width="107.4" height="8.4"/>
	<rect x="1476.1" y="828.7" class="st16" width="82.1" height="8.4"/>
	<rect x="1568.7" y="828.7" class="st16" width="31.6" height="8.4"/>
	<rect x="1606.6" y="828.7" class="st16" width="31.6" height="8.4"/>
	<rect x="1644.5" y="828.7" class="st16" width="31.6" height="8.4"/>
	<rect x="1682.4" y="828.7" class="st16" width="31.6" height="8.4"/>
	<rect x="1720.3" y="828.7" class="st16" width="33.7" height="8.4"/>
	<rect x="1758.2" y="828.7" class="st16" width="33.7" height="8.4"/>
	<rect x="1796.1" y="828.7" class="st16" width="33.7" height="8.4"/>
	<rect x="1560.3" y="864.5" class="st16" width="73.7" height="8.4"/>
	<rect x="1646.6" y="864.5" class="st16" width="71.6" height="8.4"/>
	<rect x="1730.8" y="864.5" class="st16" width="73.7" height="8.4"/>
	<rect x="1507.6" y="898.2" class="st16" width="139" height="8.4"/>
	<rect x="1779.2" y="898.2" class="st16" width="52.6" height="8.4"/>
</g>
<g>
	<rect x="924.9" y="438.7" class="st10" width="703.2" height="840.9"/>
	<rect x="1073.9" y="622.4" class="st12" width="33.7" height="8.4"/>
	<rect x="1126.6" y="622.4" class="st12" width="33.7" height="8.4"/>
	<rect x="1179.2" y="622.4" class="st12" width="33.7" height="8.4"/>
	<rect x="1231.8" y="622.4" class="st12" width="33.7" height="8.4"/>
	<rect x="1284.5" y="622.4" class="st12" width="33.7" height="8.4"/>
	<rect x="1103.4" y="658.2" class="st12" width="155.8" height="8.4"/>
	<rect x="1290.8" y="658.2" class="st12" width="153.7" height="8.4"/>
	<rect x="1073.9" y="694" class="st12" width="67.4" height="8.4"/>
	<rect x="1151.8" y="694" class="st12" width="67.4" height="8.4"/>
	<rect x="1273.9" y="694" class="st12" width="69.5" height="8.4"/>
	<rect x="1351.8" y="694" class="st12" width="69.5" height="8.4"/>
	<rect x="1164.5" y="729.8" class="st12" width="25.3" height="8.4"/>
	<rect x="1206.6" y="729.8" class="st12" width="25.3" height="8.4"/>
	<rect x="1246.6" y="729.8" class="st12" width="25.3" height="8.4"/>
	<rect x="1288.7" y="729.8" class="st12" width="25.3" height="8.4"/>
	<rect x="1330.8" y="729.8" class="st12" width="25.3" height="8.4"/>
	<rect x="1372.9" y="729.8" class="st12" width="25.3" height="8.4"/>
	<rect x="1415" y="729.8" class="st12" width="25.3" height="8.4"/>
	<rect x="1455" y="729.8" class="st12" width="25.3" height="8.4"/>
	<rect x="1073.9" y="767.7" class="st12" width="117.9" height="8.4"/>
	<rect x="1202.3" y="767.7" class="st12" width="117.9" height="8.4"/>
	<rect x="1330.8" y="767.7" class="st12" width="117.9" height="8.4"/>
	<rect x="1073.9" y="801.4" class="st12" width="42.1" height="8.4"/>
	<rect x="1132.9" y="801.4" class="st12" width="44.2" height="8.4"/>
	<rect x="1193.9" y="801.4" class="st12" width="42.1" height="8.4"/>
	<rect x="1252.9" y="801.4" class="st12" width="44.2" height="8.4"/>
	<rect x="1343.4" y="801.4" class="st12" width="44.2" height="8.4"/>
	<rect x="1402.4" y="801.4" class="st12" width="44.2" height="8.4"/>
	<rect x="1073.9" y="837.2" class="st12" width="80" height="8.4"/>
	<rect x="1229.7" y="837.2" class="st12" width="82.1" height="8.4"/>
	<rect x="1385.5" y="837.2" class="st12" width="82.1" height="8.4"/>
	<rect x="1168.7" y="872.9" class="st12" width="128.4" height="8.4"/>
	<rect x="1324.5" y="872.9" class="st12" width="130.5" height="8.4"/>
	<rect x="1145.5" y="910.8" class="st12" width="246.3" height="8.4"/>
	<rect x="1164.5" y="946.6" class="st12" width="59" height="8.4"/>
	<rect x="1236" y="946.6" class="st12" width="61.1" height="8.4"/>
	<rect x="1309.7" y="946.6" class="st12" width="59" height="8.4"/>
	<rect x="1381.3" y="946.6" class="st12" width="59" height="8.4"/>
	<rect x="1088.7" y="982.4" class="st12" width="200" height="8.4"/>
	<rect x="1297.1" y="982.4" class="st12" width="109.5" height="8.4"/>
	<rect x="1116" y="1018.2" class="st12" width="80" height="8.4"/>
	<rect x="1206.6" y="1018.2" class="st12" width="33.7" height="8.4"/>
	<rect x="1246.6" y="1018.2" class="st12" width="31.6" height="8.4"/>
	<rect x="1284.5" y="1018.2" class="st12" width="31.6" height="8.4"/>
	<rect x="1322.4" y="1018.2" class="st12" width="31.6" height="8.4"/>
	<rect x="1360.3" y="1018.2" class="st12" width="31.6" height="8.4"/>
	<rect x="1398.2" y="1018.2" class="st12" width="31.6" height="8.4"/>
	<rect x="1436.1" y="1018.2" class="st12" width="31.6" height="8.4"/>
	<rect x="1200.2" y="1054" class="st12" width="71.6" height="8.4"/>
	<rect x="1284.5" y="1054" class="st12" width="73.7" height="8.4"/>
	<rect x="1370.8" y="1054" class="st12" width="71.6" height="8.4"/>
	<rect x="1147.6" y="1089.8" class="st12" width="136.9" height="8.4"/>
	<rect x="1419.2" y="1089.8" class="st12" width="50.5" height="8.4"/>
</g>
<linearGradient id="SVGID_1_" gradientUnits="userSpaceOnUse" x1="5302.8896" y1="4165.0293" x2="5374.771" y2="4097.9985" gradientTransform="matrix(4.630000e-002 0.9989 -0.9989 4.630000e-002 4656.9414 -4535.877)">
	<stop  offset="0" style="stop-color:#BBBDBF"/>
	<stop  offset="9.139780e-002" style="stop-color:#F2F2F2"/>
	<stop  offset="0.1151" style="stop-color:#E4E4E5"/>
	<stop  offset="0.1569" style="stop-color:#D2D3D4"/>
	<stop  offset="0.2067" style="stop-color:#C5C6C8"/>
	<stop  offset="0.2718" style="stop-color:#BDBFC1"/>
	<stop  offset="0.41" style="stop-color:#BBBDBF"/>
	<stop  offset="0.73" style="stop-color:#BBBDBF"/>
	<stop  offset="0.85" style="stop-color:#FFFFFF"/>
	<stop  offset="0.92" style="stop-color:#BBBDBF"/>
	<stop  offset="1" style="stop-color:#BBBDBF"/>
</linearGradient>
<polygon class="st13" points="682.7,1017.4 752,1084 871.7,959.4 802.3,892.8 "/>
<path class="st5" d="M1244.6,1001.8c43.2-20.7,81.5-49.1,113.8-84.7c32.4-35.5,57.2-76.3,73.8-121.2c11.6-31.5,18.8-64,21.6-97.3
	c1.3-15.9,1.6-31.9,0.8-48c-1.2-26.9-5.3-53.2-12.1-78.7c-5.8-21.9-13.7-43.2-23.6-63.8c-20.7-43.2-49.1-81.5-84.7-113.8
	c-35.5-32.4-76.3-57.2-121.2-73.8c-46.5-17.2-95.4-24.7-145.3-22.4c-49.9,2.3-97.9,14.3-142.6,35.7c-43.2,20.7-81.5,49.1-113.8,84.7
	c-32.4,35.5-57.2,76.3-73.8,121.2c-17.2,46.5-24.7,95.4-22.4,145.2c2.3,49.9,14.3,97.9,35.7,142.6c4.7,9.8,9.8,19.4,15.3,28.7
	c15.7,26.5,34.6,50.9,56.5,72.9c4.2,4.2,8.5,8.3,12.8,12.3c35.5,32.4,76.3,57.2,121.2,73.8c46.5,17.2,95.3,24.7,145.2,22.4
	C1152,1035.2,1199.9,1023.2,1244.6,1001.8z M854.3,931.1c-27.8-24.4-51.8-53.1-70.8-85.1c-28.3-47.7-45.7-102.8-48.4-161.9
	c-8.9-192.9,140.7-357.1,333.6-366c170-7.9,317.8,107.5,356.5,267.1c5.2,21.4,8.4,43.6,9.5,66.5c1.1,24.5-0.3,48.5-4,71.9
	c-25.8,160.2-161.2,286.3-329.6,294.1C1007.2,1022,920,988.7,854.3,931.1z"/>
<linearGradient id="SVGID_2_" gradientUnits="userSpaceOnUse" x1="1873.3213" y1="5654.0352" x2="1989.5587" y2="5653.9155" gradientTransform="matrix(0.7104 0.7038 -0.7038 0.7104 3096.6426 -4092.3643)">
	<stop  offset="0" style="stop-color:#2D3C51"/>
	<stop  offset="8.602150e-002" style="stop-color:#FFFFFF"/>
	<stop  offset="8.988480e-002" style="stop-color:#F3F4F5"/>
	<stop  offset="0.1045" style="stop-color:#CACDD3"/>
	<stop  offset="0.121" style="stop-color:#A4ABB4"/>
	<stop  offset="0.1388" style="stop-color:#848C99"/>
	<stop  offset="0.1586" style="stop-color:#687382"/>
	<stop  offset="0.1809" style="stop-color:#525F70"/>
	<stop  offset="0.207" style="stop-color:#414F62"/>
	<stop  offset="0.2393" style="stop-color:#364458"/>
	<stop  offset="0.2845" style="stop-color:#2F3E53"/>
	<stop  offset="0.41" style="stop-color:#2D3C51"/>
	<stop  offset="0.6977" style="stop-color:#2D3C51"/>
	<stop  offset="0.8231" style="stop-color:#FFFFFF"/>
	<stop  offset="0.877" style="stop-color:#838487"/>
	<stop  offset="1" style="stop-color:#2D3C51"/>
</linearGradient>
<path class="st14" d="M273.9,1553.4l-55.6-55.1c-8.7-8.7-8.8-22.9-0.1-31.6l452-456.1c8.7-8.7,22.9-8.8,31.6-0.1l55.6,55.1
	c8.7,8.7,8.8,22.9,0.1,31.6l-452,456.1C296.9,1562,282.6,1562.1,273.9,1553.4z"/>
<path class="st7" d="M1005.8,999.7c-13.2-3.1-26.1-7-38.9-11.8c-41.4-15.3-78.9-38.2-111.7-68c-32.8-29.9-59-65.2-78-104.9
	c-10.8-22.6-19-46.1-24.6-70.4c-9.8,0.8-22.1,5.2-33.9,19.1c34.2,131.3,136.8,233.7,265.9,269.2
	C999.1,1021.6,1004.4,1009.6,1005.8,999.7z"/>
<path class="st9" d="M211.4,1343.7c27.2-25,54.7-50.3,74.5-81.5c17.6-27.6,28.6-58.8,42.7-88.3c39.2-82.1,106.2-153.2,190.2-187.1
	c11.7-4.8,24.5-6.7,37.1-5.2c31,3.6,65.6-1,94.2-10.5c6.6-2.2,13.7-4.8,20.4,0c6.4,4.6,8.8,12.9,6.7,20.5
	c-4.2,15.6-13.6,25.7-24.6,35.8c-12.6,11.6-26.3,24.5-40,34.7c-27.9,21-72.3,17.6-90.7,48.8c-1.6,2.7-2.1,6.1-1.2,9.1
	c2.1,7,10,7.6,16.5,7.4c88.1-2.4,135.6-2.1,223.7-4.5c15.9-0.4,35.7,1.5,41,17.1c2,6,1.1,12.6-2,18.3c-6,11.1-17,16.9-28,22
	c-39,18-40.3,27-83,31.7c34.4,3.2,34.9-4.8,69.4-3.9c11.1,0.3,18.9,0.5,25.3,8.5c8.7,10.9,5.3,23-2.4,34.6
	c-15.1,22.9-45.2,30.4-72.5,31.5s-19.6-0.4-45.4,4.8c30.5,2.9,15.5,3.9,44.6,3.5c11.2-0.2,22.9,3.6,29.7,14.7
	c4.5,7.4,4.5,16.6,0.8,24.4c-7.8,16.6-25,23.4-41.5,28.6c-41.7,13.2-42.3,8.9-86,10.7c24.5-1,31.6-2.7,54.6,5.9
	c7.7,2.9,24.4,12,28.2,19.4c6.1,12.1,0.2,27.2-11.4,34.2c-30.2,18.2-57.2,12.4-90.3,11.1c-57.8-2.2-113.5,22.4-160.6,55.9
	c-44.5,31.7-69.5,84.6-111.1,119.9c-58.9-56.8-117.8-113.7-176.7-170.5C171.9,1417.3,181.9,1370.8,211.4,1343.7z"/>
<rect x="297.3" y="1255.9" transform="matrix(0.6787 -0.7345 0.7345 0.6787 -941.9718 702.4323)" class="st6" width="69" height="343.6"/>
<polygon class="st0" points="455.7,1580.6 319.5,1726.1 34.3,1462.4 171.4,1317.8 "/>
<polygon class="st11" points="312.7,1448.4 176.5,1593.8 34.3,1462.4 170.5,1317 "/>
<g>
	<path class="st10" d="M1337.1,708.7h103.4c1.6-12.6,2.4-27.1,2.4-41.2c0-0.7,0-1.1,0-1.8c0-2.4,0-5.2-0.1-7.6
		c-0.4-14.1-1.6-27.3-3.5-42.1h-72.7v-8.4h71.3c-2.4-14.7-5.7-27.4-9.7-42.1h-147.9V555h144.5c-14.4-42.1-36.7-82-65.3-115.8
		c-0.2-0.2-0.4-0.4-0.6-0.6c-65-76.6-162-125.2-270.3-125.2c-195.7,0-354.4,158.7-354.4,354.4c0,138.1,79,257.8,194.3,316.2
		c0,0,0.1,0,0.1,0c1.5,0.8,3,1.4,4.5,2.2c22.3,10.9,46,19.2,70.6,25.5h169.8c21.7-4.2,42.5-12.5,62.4-21.6c5-2.3,10-4.8,14.9-7.4
		c6.6-3.4,13.2-6.8,19.5-11h-65.9v-10.5h82.1v0.1c4.2-2.4,7.3-4.8,10.7-7.3c0.8-0.5,1.7-1.2,2.5-1.7c12.8-9.5,25-20.5,36.3-31H1076
		v-10.5h270.8c8.7-8.4,16.8-19,24.5-29.1c1.8-2.4,3.6-5,5.3-7.4c1.3-1.8,2.6-3.5,3.8-5.6h-53.9v-8.4h60c3.1-4.2,6-9.8,8.9-14.7
		c1.4-2.4,3.1-4.9,4.4-7.4c4.6-8.4,8.9-17.1,13.1-25.9v-2.5h0.8c1.1-2.1,2.1-5.1,3.1-7.6c3.6-8.9,6.9-18.1,9.8-27.3
		c0.8-2.4,1.5-4.9,2.2-7.3c2.8-9.5,5.2-19.2,7.2-29c0.5-2.4,0.9-4.5,1.4-6.9c0.8-4.2,1.4-8.1,2-12.3h-102.3V708.7z M1101.3,961.4
		h84.2v10.5h-84.2V961.4z M1353.9,759.3h61.1v8.4h-61.1V759.3z M1393.9,658.2h35.8v10.5h-35.8V658.2z M1370.8,658.2v10.5h-33.7
		v-10.5H1370.8z M1269.7,504.5h48.4V515h-48.4V504.5z M1082.3,616.1v-8.4h99v8.4H1082.3z M1141.3,759.3h63.2v8.4h-63.2V759.3z
		 M1137.1,658.2v10.5h-35.8v-10.5H1137.1z M1160.2,658.2h33.7v10.5h-33.7V658.2z M1017.1,565.5V555h216.9v10.5H1017.1z
		 M1219.2,658.2h35.8v10.5h-35.8V658.2z M1193.9,504.5h50.5V515h-50.5V504.5z M1122.3,504.5h46.3V515h-46.3V504.5z M1048.6,504.5
		h46.3V515h-46.3V504.5z M972.9,504.5h50.5V515h-50.5V504.5z M972.9,607.7h96.9v8.4h-96.9V607.7z M972.9,708.7h166.3v10.5H972.9
		V708.7z M1118.1,759.3v8.4h-61.1v-8.4H1118.1z M972.9,759.3h63.2v8.4h-63.2V759.3z M1088.7,818.2H972.9v-8.4h115.8V818.2z
		 M1288.7,868.7h-183.2v-8.4h183.2V868.7z M1307.6,818.2h-113.7v-8.4h113.7V818.2z M1225.5,767.7v-8.4h61.1v8.4H1225.5z
		 M1320.3,719.2h-166.3v-10.5h166.3V719.2z M1276,668.7v-10.5h35.8v10.5H1276z M1257.1,616.1v-8.4h96.9v8.4H1257.1z"/>
	<rect x="972.9" y="504.5" class="st8" width="50.5" height="10.5"/>
	<rect x="1048.6" y="504.5" class="st8" width="46.3" height="10.5"/>
	<rect x="1122.3" y="504.5" class="st8" width="46.3" height="10.5"/>
	<rect x="1193.9" y="504.5" class="st8" width="50.5" height="10.5"/>
	<rect x="1269.7" y="504.5" class="st8" width="48.4" height="10.5"/>
	<rect x="1017.1" y="555" class="st4" width="216.9" height="10.5"/>
	<path class="st8" d="M1280.3,565.5h147.9c-1.1-2.1-2.2-6.3-3.4-10.5h-144.5V565.5z"/>
	<rect x="972.9" y="607.7" class="st8" width="96.9" height="8.4"/>
	<rect x="1082.3" y="607.7" class="st8" width="99" height="8.4"/>
	<rect x="1257.1" y="607.7" class="st4" width="96.9" height="8.4"/>
	<path class="st8" d="M1366.6,616.1h72.7c0,0-0.1-0.2-0.1-0.4c-0.4-2.8-0.9-5.9-1.3-8h-71.3V616.1z"/>
	<rect x="1101.3" y="658.2" class="st8" width="35.8" height="10.5"/>
	<rect x="1160.2" y="658.2" class="st8" width="33.7" height="10.5"/>
	<rect x="1219.2" y="658.2" class="st8" width="35.8" height="10.5"/>
	<rect x="1276" y="658.2" class="st8" width="35.8" height="10.5"/>
	<rect x="1337.1" y="658.2" class="st8" width="33.7" height="10.5"/>
	<rect x="1393.9" y="658.2" class="st8" width="35.8" height="10.5"/>
	<rect x="972.9" y="708.7" class="st8" width="166.3" height="10.5"/>
	<rect x="1153.9" y="708.7" class="st8" width="166.3" height="10.5"/>
	<path class="st8" d="M1337.1,708.7v10.5h102.3c0.4-4.2,0.8-6.3,1.2-10.5H1337.1z"/>
	<rect x="972.9" y="759.3" class="st8" width="63.2" height="8.4"/>
	<rect x="1057.1" y="759.3" class="st8" width="61.1" height="8.4"/>
	<rect x="1141.3" y="759.3" class="st8" width="63.2" height="8.4"/>
	<rect x="1225.5" y="759.3" class="st4" width="61.1" height="8.4"/>
	<rect x="1353.9" y="759.3" class="st8" width="61.1" height="8.4"/>
	<rect x="972.9" y="809.8" class="st4" width="115.8" height="8.4"/>
	<rect x="1193.9" y="809.8" class="st8" width="113.7" height="8.4"/>
	<path class="st8" d="M1412.3,812.3c0.5-1.1,1-2.1,1.4-3.2h-1.4V812.3z"/>
	<rect x="1105.5" y="860.3" class="st8" width="183.2" height="8.4"/>
	<path class="st8" d="M1326.6,868.7h53.9c2.1-2.1,4.1-6.3,6.1-8.4h-60V868.7z"/>
	<path class="st4" d="M1076,921.4h260.1c1.2-2.1,2.5-2.2,3.7-3.5c2.4-2.4,4.7-5,7-7.1H1076V921.4z"/>
	<rect x="1101.3" y="961.4" class="st8" width="84.2" height="10.5"/>
	<path class="st8" d="M1204.5,961.4v10.5h65.9c5.8-2.1,12-6.7,16.2-10.5v-0.1H1204.5z"/>
	<path class="st4" d="M1038.5,1018.7c2.5,0.3,5,0.7,7.5,1c14,1.7,28.1,2.5,42.6,2.5c10.1,0,20.2-0.4,30.1-1.3
		c5.4-0.5,10.7-1.1,16.1-1.8c13.1-1.7,26-3.1,38.7-7.3h-169.8C1015.1,1014,1026.7,1017.1,1038.5,1018.7z"/>
</g>
<circle class="st1" cx="1090.4" cy="666" r="355.3"/>
<path class="st3" d="M1435.8,752.8c0,0-290.1-439.8-693.6-8.9c0,0-50.5-187.7,107-336C1086.2,184.9,1522.4,375.5,1435.8,752.8z"/>
<path class="st2" d="M1656.9,1066.3c-115,0-208.2,71.5-208.2,159.7c0,64.5,49.9,120.1,121.6,145.3c-8.3,20-27.5,54.3-64.3,62.3
	c0,0,47.1,33,143.4-48c2.5,0.1,5,0.1,7.5,0.1c115,0,208.2-71.5,208.2-159.7C1865.1,1137.8,1771.9,1066.3,1656.9,1066.3z"/>
<path class="st5" d="M1669.6,1078.9c-115,0-208.2,71.5-208.2,159.7c0,64.5,49.9,120.1,121.6,145.3c-8.3,20-27.5,54.3-64.3,62.3
	c0,0,47.1,33,143.4-48c2.5,0.1,5,0.1,7.5,0.1c115,0,208.2-71.5,208.2-159.7C1877.8,1150.5,1784.6,1078.9,1669.6,1078.9z"/>
<g>
	<path class="st10" d="M1621.8,1297.5c-6,3-18.1,6-33.6,6c-35.8,0-62.8-22.6-62.8-64.3c0-39.8,27-66.8,66.4-66.8
		c15.8,0,25.8,3.4,30.2,5.7l-4,13.4c-6.2-3-15.1-5.3-25.7-5.3c-29.8,0-49.6,19.1-49.6,52.4c0,31.1,17.9,51.1,48.9,51.1
		c10,0,20.2-2.1,26.8-5.3L1621.8,1297.5z"/>
	<path class="st10" d="M1640.1,1281.7c7.4,4.5,18.1,8.3,29.4,8.3c16.8,0,26.6-8.9,26.6-21.7c0-11.9-6.8-18.7-24-25.3
		c-20.8-7.4-33.6-18.1-33.6-36c0-19.8,16.4-34.5,41.1-34.5c13,0,22.4,3,28.1,6.2l-4.5,13.4c-4.1-2.3-12.6-6-24.1-6
		c-17.4,0-24,10.4-24,19.1c0,11.9,7.7,17.7,25.3,24.5c21.5,8.3,32.4,18.7,32.4,37.4c0,19.6-14.5,36.6-44.5,36.6
		c-12.3,0-25.7-3.6-32.5-8.1L1640.1,1281.7z"/>
	<path class="st10" d="M1733.1,1281.7c7.4,4.5,18.1,8.3,29.4,8.3c16.8,0,26.6-8.9,26.6-21.7c0-11.9-6.8-18.7-24-25.3
		c-20.8-7.4-33.6-18.1-33.6-36c0-19.8,16.4-34.5,41.1-34.5c13,0,22.4,3,28.1,6.2l-4.5,13.4c-4.1-2.3-12.6-6-24.1-6
		c-17.4,0-24,10.4-24,19.1c0,11.9,7.7,17.7,25.3,24.5c21.5,8.3,32.5,18.7,32.5,37.4c0,19.6-14.5,36.6-44.5,36.6
		c-12.3,0-25.7-3.6-32.4-8.1L1733.1,1281.7z"/>
</g>
<path class="st2" d="M462.6,475.4c115,0,208.2,71.5,208.2,159.7c0,64.5-49.9,120.1-121.6,145.3c8.3,20,27.5,54.3,64.3,62.3
	c0,0-47.1,33-143.4-48c-2.5,0.1-5,0.1-7.5,0.1c-115,0-208.2-71.5-208.2-159.7C254.4,547,347.6,475.4,462.6,475.4z"/>
<path class="st5" d="M449.9,488.1c115,0,208.2,71.5,208.2,159.7c0,64.5-49.9,120.1-121.6,145.3c8.3,20,27.5,54.3,64.3,62.3
	c0,0-47.1,33-143.4-48c-2.5,0.1-5,0.1-7.5,0.1c-115,0-208.2-71.5-208.2-159.7C241.7,559.6,334.9,488.1,449.9,488.1z"/>
<g>
	<path class="st10" d="M310.7,580.4c7.5-1.3,17.4-2.3,30-2.3c15.4,0,26.7,3.6,33.9,10c6.6,5.7,10.6,14.5,10.6,25.3
		c0,10.9-3.2,19.6-9.3,25.8c-8.3,8.8-21.7,13.3-37,13.3c-4.7,0-9-0.2-12.6-1.1v48.5h-15.6V580.4z M326.3,638.7
		c3.4,0.9,7.7,1.3,12.9,1.3c18.8,0,30.3-9.2,30.3-25.8c0-16-11.3-23.7-28.5-23.7c-6.8,0-12,0.5-14.7,1.3V638.7z"/>
	<path class="st10" d="M421.7,579v50.6h58.5V579H496v120.9h-15.8v-56.7h-58.5v56.7h-15.6V579H421.7z"/>
	<path class="st10" d="M523.1,580.4c7.5-1.3,17.4-2.3,30-2.3c15.4,0,26.7,3.6,33.9,10c6.6,5.7,10.6,14.5,10.6,25.3
		c0,10.9-3.2,19.6-9.3,25.8c-8.3,8.8-21.7,13.3-37,13.3c-4.7,0-9-0.2-12.6-1.1v48.5h-15.6V580.4z M538.7,638.7
		c3.4,0.9,7.7,1.3,12.9,1.3c18.8,0,30.3-9.2,30.3-25.8c0-16-11.3-23.7-28.5-23.7c-6.8,0-12,0.5-14.7,1.3V638.7z"/>
</g>
<path class="st2" d="M1011.7,1262c115,0,208.2,71.5,208.2,159.7c0,64.5-49.9,120.1-121.6,145.3c8.3,20,27.5,54.3,64.3,62.3
	c0,0-47.1,33-143.4-48c-2.5,0.1-5,0.1-7.5,0.1c-115,0-208.2-71.5-208.2-159.7C803.6,1333.5,896.8,1262,1011.7,1262z"/>
<path class="st10" d="M999,1274.7c115,0,208.2,71.5,208.2,159.7c0,64.5-49.9,120.1-121.6,145.3c8.3,20,27.5,54.3,64.3,62.3
	c0,0-47.1,33-143.4-48c-2.5,0.1-5,0.1-7.5,0.1c-115,0-208.2-71.5-208.2-159.7C790.9,1346.2,884.1,1274.7,999,1274.7z"/>
<g>
	<path class="st8" d="M875.6,1378.4h12.7v65.7c0,26.1-12.8,34.1-29.7,34.1c-4.7,0-10.3-1-13.5-2.3l1.9-10.3c2.6,1,6.4,1.9,10.6,1.9
		c11.4,0,18.1-5.1,18.1-24.3V1378.4z"/>
	<path class="st8" d="M925.2,1445.7l-10.2,30.9h-13.1l33.3-98.2h15.3l33.5,98.2h-13.5l-10.5-30.9H925.2z M957.4,1435.8l-9.6-28.3
		c-2.2-6.4-3.6-12.2-5.1-17.9h-0.3c-1.5,5.8-3.1,11.8-4.9,17.8l-9.6,28.4H957.4z"/>
	<path class="st8" d="M1012.3,1476.6l-32-98.2H994l15.3,48.3c4.2,13.3,7.9,25.2,10.5,36.7h0.3c2.8-11.4,6.8-23.7,11.2-36.6
		l16.6-48.5h13.5l-35.1,98.2H1012.3z"/>
	<path class="st8" d="M1079.6,1445.7l-10.2,30.9h-13.1l33.3-98.2h15.3l33.5,98.2h-13.5l-10.5-30.9H1079.6z M1111.8,1435.8l-9.6-28.3
		c-2.2-6.4-3.6-12.2-5.1-17.9h-0.3c-1.5,5.8-3.1,11.8-4.9,17.8l-9.6,28.4H1111.8z"/>
</g>
</svg>
