<?xml version="1.0" encoding="utf-8"?>
<!-- Generator: Adobe Illustrator 16.0.0, SVG Export Plug-In . SVG Version: 6.00 Build 0)  -->
<!DOCTYPE svg PUBLIC "-//W3C//DTD SVG 1.1//EN" "http://www.w3.org/Graphics/SVG/1.1/DTD/svg11.dtd">
<svg version="1.1" id="Layer_1" xmlns="http://www.w3.org/2000/svg" xmlns:xlink="http://www.w3.org/1999/xlink" x="0px" y="0px"
	 width="1400px" height="1400px" viewBox="0 0 1400 1400" enable-background="new 0 0 1400 1400" xml:space="preserve">
<g>
	<path fill-rule="evenodd" clip-rule="evenodd" fill="#FCC326" d="M271.098,936.91c-63.552,0.138-127.104,0.125-190.654,0.557
		c-10.13,0.068-7.643-6.486-7.649-11.769c-0.076-69.002-0.037-138.001-0.025-207.001c0.053-0.846,0.104-1.691,0.157-2.537
		c11.256-0.036,22.618,0.912,33.751-0.281c42.031-4.498,83.95-9.876,125.68-16.801c57.809-9.597,114.98-21.698,171.1-38.767
		c44.037-13.394,85.429-32.665,125.755-54.503c0.192,57.361,0.385,114.723,0.577,172.084
		c-31.125,57.412-84.453,83.511-143.939,98.355c-50.698,12.65-102.709,10.108-154.354,4.127
		c-43.93-5.086-87.243-13.396-129.681-25.953c-6.199-1.836-12.63-1.493-15.549,3.904c-3.048,5.633,5.5,5.705,7.386,9.482
		c-9.913,10.736-9.918,10.74,2.88,19.35c32.48,21.848,68.995,33.175,106.996,40.035C225.905,931.236,248.565,933.724,271.098,936.91
		z"/>
	<path fill-rule="evenodd" clip-rule="evenodd" fill="#FAC228" d="M73.522,667.859c-0.264-31.67-0.615-63.34-0.764-95.012
		c-0.128-27.527-0.031-55.057-0.021-82.586c0.003-4.91-1.201-9.916,7.013-9.889c71.325,0.23,142.651,0.143,213.977,0.174
		c2.036,0,4.254,0.008,4.452,2.932c-30.009,14.133-59.866,28.616-90.113,42.227c-11.69,5.261-21.452,12.572-30.186,21.586
		c-2.439,2.517-7.062,4.63-4.808,9.108c2.352,4.672,6.631,1.115,10.066,1.167c-2.02,7.457-12.131,9.54-12.158,18.315
		c-12.824,9.297-27.505,15.21-41.315,22.713c-15.85,8.611-25.955,23.226-39.416,34.342c0.677,0.954,1.353,1.907,2.028,2.86
		c3.428-0.779,6.856-1.562,10.284-2.338c0.826,4.54-2.829,6.567-5.143,9.417c-2.249,2.775-7.852,5.155-5.618,8.714
		c3.101,4.942,7.438-0.093,10.828-1.549c32.196-13.834,64.496-27.456,96.339-42.068c20.849-9.567,43.521-15.977,62.208-29.287
		c23.36-16.639,45.611-35.045,66.923-54.26c10.782-9.722,18.75-8.859,29.469-1.427c21.943,15.212,44.877,29.025,66.502,44.661
		c13.88,10.038,28.195,8.849,45.384,7.305c-7.961-6.175-14.146-10.969-20.329-15.764c6.311-0.448,12.623-0.897,21.062-1.498
		c-5.856-4.268-9.786-7.145-13.728-10.006c-29.839-21.649-59.679-43.298-89.519-64.945c2.75-3.952,6.878-2.167,10.348-2.177
		c47.175-0.13,94.353,0.157,141.524-0.299c9.006-0.088,11.153,2.682,10.956,11.271c-0.575,25.035-0.248,50.093-0.275,75.14
		c-11.105,5.596-21.971,11.744-33.357,16.7c-71.361,31.059-145.817,51.649-222.359,65.097
		C207.522,660.123,141.03,669.22,73.522,667.859z"/>
	<path fill-rule="evenodd" clip-rule="evenodd" fill="#040504" d="M73.522,667.859c67.508,1.36,134-7.736,200.254-19.375
		c76.542-13.447,150.998-34.038,222.359-65.097c11.386-4.957,22.252-11.104,33.357-16.7c12.769-4.977,22.154-14.558,32.152-23.378
		c7.036-6.206,11.495-7.645,14.309,4.712c9.155,40.209,18.981,80.214,17.981,121.867c-2.535,3.349-1.175,7.224-1.259,10.844
		c-0.751,32.601-6.981,64.029-18.99,94.402c-10.567,26.726-28.14,48.521-47.225,69.364c-35.029,26.802-72.903,48.206-115.533,60.433
		c-50.03,14.352-101.244,16.348-152.594,12.014c-58.117-4.902-114.591-16.693-164.684-49.137c-1.885-3.777-10.434-3.85-7.386-9.482
		c2.919-5.397,9.35-5.74,15.549-3.904c42.438,12.558,85.751,20.867,129.681,25.953c51.646,5.981,103.656,8.523,154.354-4.127
		c59.486-14.845,112.814-40.943,143.938-98.354c26.942-44.539,34.636-93.103,30.164-144.213c0.376-20.607-3.988-40.472-8.747-61.736
		c-9.589,7.292-19.57,11.349-27.123,19.07c-80.397,44.853-168.123,67.306-257.628,84.347
		c-59.068,11.246-118.681,18.406-178.52,23.872c-16.421,0.233-32.888-1.526-49.249,1.18c-4.241,0.07-8.48,0.142-12.708,0.223
		c0.011,0.01,0.245-0.649,0.245-0.649l-0.681,0.159c7.681-8.055,15.443-16.033,23.019-24.186
		C55.427,668.57,64.58,668.634,73.522,667.859z"/>
	<path fill-rule="evenodd" clip-rule="evenodd" fill="#040706" d="M183.138,557.566c-3.435-0.052-7.714,3.505-10.066-1.167
		c-2.254-4.479,2.369-6.591,4.808-9.108c8.734-9.014,18.496-16.325,30.186-21.586c30.247-13.611,60.104-28.094,90.113-42.227
		c11.045-2.233,20.567-8.197,30.501-12.982c8.035-3.868,14.401-5.074,21.836,1.716c4.647,4.246,9.706,8.991,16.421,10.541
		c29.842,21.647,59.682,43.296,89.521,64.945c3.942,2.861,7.872,5.738,13.728,10.006c-8.439,0.601-14.751,1.05-21.057,1.498
		c-7.854,0.409-14.316-2.735-20.756-7.032c-25.705-17.159-51.824-33.705-77.386-51.069c-6.563-4.456-10.73-5.084-17.045,0.51
		c-14.066,12.465-29.431,23.468-43.438,35.994c-21.123,18.887-45.013,32.582-71.072,43.546
		c-37.608,15.825-74.575,33.172-111.816,49.87c-1.874,0.309-3.976,0.177-4.828,2.48l-0.227-0.044
		c-3.428,0.779-6.856,1.562-10.284,2.341c-0.675-0.953-1.352-1.907-2.028-2.86c13.461-11.116,23.566-25.73,39.416-34.342
		c13.81-7.503,28.492-13.416,41.313-22.71c40.183-18.595,81.653-35.094,114.106-69.559c-9.059,0.216-14.787,5.074-21.384,7.334
		c-13.792,7.066-28.135,13.109-40.968,21.968C209.399,542.697,194.54,547.011,183.138,557.566z"/>
	<path fill-rule="evenodd" clip-rule="evenodd" fill="#040404" d="M889.172,708.925c-9.886,0-18.546-0.36-27.159,0.13
		c-5.511,0.311-6.805-3.326-8.964-6.908c-7.097-11.768-14.734-23.218-21.568-35.133c-3.722-6.491-9.34-6.631-15.021-5.582
		c-7.011,1.295-3.182,7.4-3.506,11.234c-0.627,7.461-1.01,15.129,0.006,22.505c1.637,11.897-3.376,13.788-14.267,14.231
		c-13.141,0.534-16.333-3.348-15.962-16.227c0.987-34.209,0.666-68.472,0.107-102.702c-0.143-8.787,2.863-11.707,11.07-12.087
		c19.158-0.885,38.332-3.049,57.221,2.28c15.546,4.385,27.089,13.016,29.944,29.937c2.937,17.416-0.568,32.694-17.242,41.864
		c-6.444,3.544-4.01,6.05-1.101,10.173C872.751,676.835,882.127,691.44,889.172,708.925z M812.182,619.955
		c3.816,5.949-7.001,18.818,10.129,18.364c20.023-0.532,28.748-5.427,29-17.987c0.26-12.813-8.462-17.631-28.292-18.512
		C806,601.065,815.381,613.449,812.182,619.955z"/>
	<path fill-rule="evenodd" clip-rule="evenodd" fill="#040504" d="M1021.408,707.446c-9.751,3.307-19.799,0.618-29.67,1.466
		c-5.576,0.48-6.471-4.555-8.68-7.73c-11.623-16.718-24.586-32.163-42.271-46.971c0,16.791-0.35,31.229,0.15,45.639
		c0.244,6.959-1.574,9.244-8.913,9.285c-20.95,0.118-20.948,0.496-20.948-20.688c0-33.033,0.284-66.073-0.201-99.101
		c-0.122-8.33,1.302-12.597,10.6-11.077c3.664,0.598,7.56,0.478,11.264,0.017c6.966-0.87,8.395,2.336,8.177,8.629
		c-0.434,12.479-0.13,24.982-0.13,40.896c12.061-13.386,22.932-24.029,32.053-36.006c8.14-10.692,17.481-15.565,30.762-13.545
		c4.494,0.684,9.178,0.107,15.063,0.107c-6.163,11.192-15.254,18.948-22.901,27.765c-7.658,8.834-15.625,17.472-24.16,25.441
		c-5.568,5.202-5.878,7.827,0.199,13.347c19.889,18.063,36.295,39.121,49.58,62.538L1021.408,707.446z"/>
	<path fill-rule="evenodd" clip-rule="evenodd" fill="#040404" d="M1140.354,869.57c-24.661,0-49.323,0.138-73.982-0.083
		c-7.486-0.066-15.051-0.596-22.424-1.829c-21.181-3.539-30.383-14.636-29.831-36.189c0.2-7.886,1.816-15.734,2.789-23.601
		c0.633-5.091,3.321-6.101,8.481-6.425c11.528-0.723,15.104,2.498,12.824,14.651c-4.112,21.919,3.477,30.261,25.829,30.341
		c44.723,0.162,89.452-0.159,134.173,0.24c7.938,0.068,9.771-2.367,9.668-9.902c-0.404-29.672,0.431-59.369-0.456-89.021
		c-0.358-11.981,6.563-9.707,13.398-9.903c6.929-0.2,12.538-1.122,12.324,9.72c-0.74,37.604-0.583,75.235-0.054,112.847
		c0.115,8.327-2.785,9.413-9.979,9.313C1195.531,869.34,1167.94,869.57,1140.354,869.57z"/>
	<path fill-rule="evenodd" clip-rule="evenodd" fill="#050505" d="M763.503,708.464c-3.802,0.188-6.655,0.429-9.511,0.453
		c-20.937,0.196-21.245,0.289-28.066-19.482c-2.287-6.633-5.366-9.143-12.471-8.731c-11.249,0.649-22.566,0.311-33.85,0.11
		c-5.079-0.09-7.922,0.935-10.049,6.597c-8.754,23.311-9.084,23.188-37.309,20.767c14.633-42.752,30.367-84.839,49.778-125.468
		c3.107-6.505,28.725-6.643,31.79-0.14C732.984,623.257,748.85,665.249,763.503,708.464z M697.429,608.26
		c-3.61,9.05-6.365,15.779-8.986,22.557c-11.444,29.599-11.431,29.604,20.476,26.924c0.826-0.068,1.66-0.037,2.491-0.051
		c3.57-0.071,4.064-2.025,2.97-4.905C708.978,638.579,703.565,624.377,697.429,608.26z"/>
	<path fill-rule="evenodd" clip-rule="evenodd" fill="#DD8A0D" d="M93.65,867.809c50.093,32.443,106.567,44.234,164.684,49.137
		c51.35,4.334,102.564,2.338,152.594-12.014c42.629-12.227,80.503-33.631,115.535-60.435c5.514,3.187,2.177,8.712,3.44,13.021
		c-0.052,0.713-0.255,1.38-0.61,2c-25.156,23.201-55.814,37.387-86.126,51.961c-26.07,12.536-54.176,17.497-82.714,21.265
		c-13.066,1.726-26.461,0.118-39.22,4.209c-16.711-0.013-33.423-0.026-50.135-0.039c-22.533-3.189-45.193-5.677-67.572-9.72
		c-38.001-6.86-74.516-18.188-106.996-40.035C83.732,878.549,83.737,878.545,93.65,867.809z"/>
	<path fill-rule="evenodd" clip-rule="evenodd" fill="#FCC326" d="M321.233,936.952c12.759-4.091,26.153-2.483,39.22-4.209
		c28.539-3.768,56.644-8.729,82.714-21.265c30.312-14.574,60.97-28.76,86.126-51.961c0.091,22.969,0.054,45.937,0.359,68.899
		c0.078,5.896-0.786,9.079-7.984,9.042C454.858,937.1,388.046,937.074,321.233,936.952z"/>
	<path fill-rule="evenodd" clip-rule="evenodd" fill="#090909" d="M719.814,824.531c0.009-7.941,0.102-15.886-0.031-23.828
		c-0.066-3.937,0.848-6.076,5.51-6.18c5.108-0.115,5.138,2.772,5.131,6.324c-0.032,15.468,0.24,30.942-0.135,46.399
		c-0.145,5.927,1.546,7.569,7.615,7.822c35.104,1.461,35.095,1.647,35.097-32.903c0-5.016,0.071-10.033-0.022-15.048
		c-0.059-3.233,0.271-5.571,4.572-5.472c3.88,0.092,6.216,0.611,6.123,5.354c-0.232,12.119-0.375,24.256,0.086,36.361
		c0.166,4.391-3.766,11.693,6.138,11.593c8.173-0.084,16.293,0.556,18.507-10.195c2.221-10.785,0.36-21.688,1.208-32.488
		c0.326-4.146-3.213-10.822,5.905-10.594c9.477,0.237,4.878,7.31,5,11.008c0.358,10.813-0.127,21.691-0.955,32.491
		c-0.768,10.04,6.562,9.423,12.386,9.475c5.128,0.043,13.308,4.041,12.829-7.445c-0.604-14.59,0.253-29.223-1.399-43.811
		c-0.348-3.059-2.971-7.98,3.462-8.675c5.01-0.539,4.995,3.576,5.689,6.621c4.414,19.357,3.33,39.048,3.404,58.67
		c0.01,3.01-0.966,4.726-4.272,4.576c-2.503-0.112-5.052,0.26-7.519-0.054c-27.267-3.454-54.515,0.73-81.787,0.167
		c-27.578-0.566-55.18-0.108-82.771-0.143c-4.176-0.007-8.381,0.015-12.52-0.448c-20.061-2.253-26.153-9.739-24.261-29.891
		c0.545-5.812,1.521-11.594,2.555-17.345c0.573-3.187,0.862-6.881,5.865-6.312c5.749,0.651,3.42,4.748,3.213,7.594
		c-0.453,6.229-1.359,12.423-2.07,18.632c-1.266,11.06,4.376,16.861,14.787,17.356c15.435,0.738,30.917,0.43,46.375,0.795
		c4.888,0.115,6.541-1.777,6.359-6.582C719.589,840.426,719.807,832.477,719.814,824.531z"/>
	<path fill-rule="evenodd" clip-rule="evenodd" fill="#101010" d="M930.596,864.611c-15.455,0-30.91,0.099-46.363-0.08
		c-3.213-0.037-8.039,1.885-7.93-4.616c0.104-5.976,4.462-5.511,7.939-4.949c9.127,1.471,9.933-3.336,9.764-10.665
		c-0.406-17.533-0.182-35.084-0.093-52.625c0.02-3.858-1.584-8.783,5.402-8.766c6.897,0.017,5.464,4.838,5.479,8.768
		c0.065,17.96,0.286,35.928-0.103,53.878c-0.146,6.626,1.065,9.496,8.677,9.501c18.156,0.005,18.156,0.459,18.156-17.315
		c0-21.72-0.044-43.44,0.044-65.158c0.018-3.795-1.677-8.618,5.402-8.639c7.094-0.021,5.441,4.824,5.457,8.621
		c0.09,24.226,0.343,48.456-0.128,72.674c-0.147,7.595,1.777,9.933,9.66,9.78c22.23-0.429,22.235-0.036,22.235-21.926
		c0-9.606-0.152-19.218,0.073-28.819c0.099-4.073-2.13-9.837,5.741-9.704c7.123,0.12,5.018,5.375,5.055,9.014
		c0.176,17.541-0.17,35.089,0.211,52.622c0.137,6.403-1.555,8.766-8.322,8.558C961.513,864.283,946.051,864.611,930.596,864.611z"/>
	<path fill-rule="evenodd" clip-rule="evenodd" fill="#020202" d="M1302.669,830.66c0,13.366,0.015,26.735-0.002,40.102
		c-0.013,9.268-1.284,18.338-4.902,26.927c-6.358,15.093-20.059,21.841-35.717,18.144c-8.038-1.896-4.214-8.069-4.256-12.182
		c-0.034-3.415-4.083-10.098,3.962-10.286c14.344-0.336,15.587-10.477,15.697-20.828c0.304-28.402,0.656-56.826-0.182-85.209
		c-0.309-10.45,3.302-12.416,12.595-12.007c8.206,0.358,14.139-0.146,13.114,11.502
		C1301.701,801.331,1302.669,816.038,1302.669,830.66z"/>
	<path fill-rule="evenodd" clip-rule="evenodd" fill="#020202" d="M1355.381,812.481c0,16.313-0.621,32.657,0.201,48.929
		c0.637,12.582-8.077,7.564-13.434,7.957c-5.463,0.402-12.371,3.152-12.133-8.021c0.705-33.028,0.695-66.09,0.029-99.12
		c-0.256-12.565,8.105-7.555,13.457-7.949c5.461-0.4,12.722-3.189,12.113,8.025C1354.711,778.982,1355.381,795.752,1355.381,812.481
		z"/>
	<path fill-rule="evenodd" clip-rule="evenodd" fill="#101010" d="M1236.05,707.77c-11.275,4.018-12.18-4.188-13.332-9.503
		c-2.409-11.124-8.376-15.198-19.367-13.3c-3.647,0.63-7.579,0.608-11.236,0.007c-11.842-1.944-18.591,2.51-21.247,14.45
		c-1.138,5.104-2.496,12.415-12.32,8.24c10.564-26.645,21.027-53.255,31.761-79.753c1.101-2.716,1.777-6.54,6.462-6.554
		c5.047-0.02,6.24,3.75,7.581,7.072C1214.939,654.662,1225.365,680.963,1236.05,707.77z M1196.938,632.297
		c-2.896,6.922-4.683,11.106-6.397,15.317c-12.776,31.344-12.771,31.352,21.678,29.856c0.594-0.027,1.15-0.89,2.412-1.927
		C1209.17,662.194,1203.61,648.607,1196.938,632.297z"/>
	<path fill-rule="evenodd" clip-rule="evenodd" fill="#090909" d="M1021.408,707.446l-0.027,0.013
		c7.423-0.613,3.741-6.379,3.795-9.511c0.373-21.748,0.52-43.51,0.018-65.25c-0.17-7.339,1.804-10.8,9.355-11.172
		c10.041-0.495,20.013-1.272,29.861,1.669c12.785,3.816,19.786,12.965,19.471,25.763c-0.302,12.163-7.342,20.989-19.828,24.146
		c-4.422,1.118-9.077,1.51-13.654,1.785c-16.264,0.98-16.266,0.907-16.269,17.806c0,1.255-0.229,2.562,0.037,3.755
		C1036.766,708.115,1031.029,710.013,1021.408,707.446z M1033.657,648.848c4.402,5.608-7.792,19.342,10.272,18.916
		c21.576-0.51,30.445-5.479,30.736-19.034c0.294-13.631-9.106-19.257-28.388-20.404
		C1027.484,627.21,1036.206,640.599,1033.657,648.848z"/>
	<path fill-rule="evenodd" clip-rule="evenodd" fill="#101010" d="M1265.617,711.047c-2.758-0.59-8.921-1.64-14.911-3.304
		c-2.925-0.812-7.253-1.675-5.082-6.577c1.701-3.844,4.602-2.174,7.413-1.166c7.537,2.703,15.212,4.279,23.309,2.695
		c7.479-1.465,13.805-4.309,14.842-12.832c1.029-8.491-3.107-14.534-10.543-18.134c-6.363-3.079-13.092-5.397-19.489-8.415
		c-11.183-5.277-16.313-14.001-13.776-26.429c2.432-11.923,11.523-15.521,22.089-16.801c7.128-0.863,14.178-0.022,20.96,2.377
		c3.018,1.066,7.045,1.699,5.069,6.628c-1.813,4.524-4.795,1.708-7.229,0.89c-6.837-2.302-13.646-3.26-20.87-1.738
		c-6.589,1.385-10.553,5.314-11.567,11.565c-1.01,6.206,1.297,11.608,7.168,14.683c5.524,2.893,11.187,5.542,16.882,8.091
		c16.778,7.521,22.975,16.855,19.867,30.182C1297.007,704.51,1285.842,711.178,1265.617,711.047z"/>
	<path fill-rule="evenodd" clip-rule="evenodd" fill="#090909" d="M1335.254,668.34c-0.003-10.006-0.604-20.061,0.188-30.003
		c0.645-8.128-2.456-9.516-9.803-9.538c-5.896-0.017-17.061,3.753-16.911-2.927c0.201-8.896,11.134-3.719,17.154-4.14
		c12.858-0.902,25.83-0.321,38.754-0.238c2.688,0.017,6.432-1.118,6.774,3.282c0.429,5.491-3.937,4.113-7.011,4.319
		c-20.389,1.357-20.389,1.346-20.389,21.526c0,16.676,0.098,33.354-0.088,50.029c-0.035,3.214,2.024,8.141-4.349,8.261
		c-6.673,0.128-4.133-5.01-4.212-8.055C1335.079,690.025,1335.254,679.179,1335.254,668.34z"/>
	<path fill-rule="evenodd" clip-rule="evenodd" fill="#DFB33A" d="M529.903,857.518c-1.264-4.309,2.074-9.834-3.44-13.021
		c19.083-20.841,36.656-42.637,47.223-69.362c12.009-30.373,18.239-61.801,18.99-94.402c0.084-3.621-1.276-7.496,1.259-10.844
		c1.564,68.107-9.519,132.119-59.292,183.624C533.212,854.99,531.49,856.189,529.903,857.518z"/>
	<path fill-rule="evenodd" clip-rule="evenodd" fill="#101010" d="M1120.695,764.563c2.309,0.63,5.99,1.355,9.452,2.667
		c2.865,1.086,4.819,3.069,3.563,6.745c-1.105,3.248-1.635,6.523-6.564,4.839c-3.765-1.286-7.393-0.325-10.191,2.729
		c-2.829,3.086-3.263,6.763-1.647,10.418c1.667,3.77,4.896,3.826,8.427,2.724c3.162-0.988,6.457-1.564,9.595-2.618
		c4.826-1.626,6.432,0.573,7.652,4.98c1.349,4.881-1.358,5.881-4.839,6.571c-9.771,1.939-19.553,3.829-29.355,5.602
		c-2.312,0.417-5.282,1.566-6.626-1.373c-1.157-2.531-2.211-5.522,1.768-7.248c6.807-2.953,0.539-6-0.385-8.535
		C1096.598,778.471,1105.096,765.082,1120.695,764.563z"/>
	<path fill-rule="evenodd" clip-rule="evenodd" fill="#020202" d="M1100.742,664.697c0-10.864-0.274-21.738,0.149-32.584
		c0.149-3.775-3.054-10.702,4.574-10.292c7.224,0.385,3.679,7.101,3.75,10.81c0.386,19.63,0.675,39.291-0.046,58.9
		c-0.316,8.631,2.676,10.58,10.496,9.984c8.31-0.633,16.702-0.143,25.059-0.133c2.625,0.003,4.954,0.135,4.861,3.873
		c-0.099,3.743-2.563,3.643-5.074,3.647c-12.536,0.02-25.081-0.287-37.603,0.133c-6.586,0.223-6.221-3.606-6.191-7.986
		C1100.791,688.933,1100.742,676.813,1100.742,664.697z"/>
	<path fill-rule="evenodd" clip-rule="evenodd" fill="#090909" d="M1320.828,742.731c-0.088-8.292-6.814-13.055,0.024-18.626
		c5.983-4.876,12.021-6.158,19.666-3.275c7.116,2.684,14.286,10.305,22.721,1.969c2.309-2.282,3.865,0.357,4.179,2.232
		c0.694,4.143,4.712,8.199-0.142,12.602c-7.969,7.225-16.294,5.185-24.309,1.01C1335.648,734.829,1329.059,733.339,1320.828,742.731
		z"/>
	<path fill-rule="evenodd" clip-rule="evenodd" fill="#DFB33A" d="M38.685,700.414c16.361-2.706,32.828-0.946,49.245-1.177
		c-8.816,2.26-19.396,2.956-15.004,16.923c-0.053,0.846-0.104,1.691-0.157,2.537c-15.505,0-31.011,0-47.868,0
		C28.228,710.381,36.729,707.745,38.685,700.414z"/>
	<path fill-rule="evenodd" clip-rule="evenodd" fill="#101010" d="M985.096,882.096c0.618,4.902-2.498,5.136-6.194,5.148
		c-3.924,0.015-4.735-1.937-4.787-5.43c-0.062-4.128,1.229-6.064,5.643-6.055C984.365,875.768,985.49,878.128,985.096,882.096z"/>
	<path fill-rule="evenodd" clip-rule="evenodd" fill="#020202" d="M679.759,783.787c3.159-0.14,6.051-0.127,5.904,4.285
		c-0.112,3.363,0.501,6.925-4.771,6.67c-3.064-0.147-5.987,0.086-5.768-4.354C675.288,787.097,674.441,783.268,679.759,783.787z"/>
	<path fill-rule="evenodd" clip-rule="evenodd" fill="#020202" d="M703.104,788.988c0.699,4.903-1.727,5.739-5.636,5.801
		c-4.959,0.08-4.681-2.967-4.796-6.345c-0.13-3.816,1.699-4.77,5.151-4.745C701.857,783.729,704.141,784.92,703.104,788.988z"/>
	<path fill-rule="evenodd" clip-rule="evenodd" fill="#DFB33A" d="M25.541,700.146l0.681-0.159c0,0-0.234,0.659-0.245,0.649
		c-0.012-0.01-0.584,0.076-0.584,0.076L25.541,700.146z"/>
	<path fill-rule="evenodd" clip-rule="evenodd" fill="#DD8A0D" d="M72.926,716.16c-4.393-13.967,6.188-14.663,15.004-16.923
		c59.843-5.469,119.456-12.629,178.524-23.875c89.505-17.041,177.231-39.494,257.63-84.349c9.155,1.103,4.16,8.5,5.768,12.962
		c-0.104,0.649-0.317,1.26-0.64,1.833c-40.326,21.838-81.718,41.109-125.755,54.503c-56.12,17.068-113.291,29.17-171.1,38.767
		c-41.73,6.925-83.649,12.303-125.68,16.801C95.544,717.072,84.182,716.124,72.926,716.16z"/>
	<path fill-rule="evenodd" clip-rule="evenodd" fill="#DA8B0F" d="M107.616,631.02c37.241-16.698,74.208-34.045,111.816-49.87
		c26.059-10.964,49.949-24.659,71.072-43.546c14.007-12.526,29.372-23.529,43.438-35.994c6.314-5.594,10.481-4.966,17.045-0.51
		c25.563,17.365,51.682,33.91,77.386,51.069c6.439,4.297,12.902,7.441,20.756,7.032c6.178,4.795,12.363,9.589,20.324,15.764
		c-17.189,1.544-31.504,2.733-45.384-7.305c-21.625-15.636-44.559-29.449-66.502-44.661c-10.719-7.432-18.687-8.295-29.469,1.427
		c-21.312,19.215-43.563,37.621-66.923,54.26c-18.686,13.31-41.358,19.72-62.208,29.287c-31.844,14.612-64.144,28.233-96.339,42.068
		c-3.39,1.456-7.728,6.491-10.828,1.549c-2.233-3.559,3.369-5.939,5.618-8.714c2.314-2.851,5.969-4.878,5.143-9.417
		c0-0.002,0.227,0.042,0.227,0.04C104.827,633.508,106.761,633.314,107.616,631.02z"/>
	<path fill-rule="evenodd" clip-rule="evenodd" fill="#D28D18" d="M263.699,513.66c6.597-2.26,12.326-7.119,21.384-7.334
		c-32.453,34.464-73.923,50.963-114.106,69.559c0.03-8.778,10.141-10.861,12.161-18.318c11.402-10.555,26.261-14.869,39.595-21.941
		C237.342,530.083,252.445,525.46,263.699,513.66z"/>
	<path fill-rule="evenodd" clip-rule="evenodd" fill="#DFB33A" d="M559.952,633.682c-5.202-10.558-4.492-22.395-7.028-33.542
		c-1.9-8.361-4.474-8.236-10.332-3.814c-3.933,2.966-8.473,5.128-12.74,7.65c-1.607-4.462,3.388-11.859-5.768-12.962
		c7.551-7.719,17.531-11.776,27.121-19.068C555.964,593.209,560.328,613.074,559.952,633.682z"/>
	<path fill-rule="evenodd" clip-rule="evenodd" fill="#DFB33A" d="M263.699,513.66c-11.254,11.8-26.357,16.423-40.966,21.965
		C235.564,526.769,249.907,520.727,263.699,513.66z"/>
	<path fill-rule="evenodd" clip-rule="evenodd" fill="#FAC228" d="M107.616,631.02c-0.855,2.294-2.79,2.488-4.828,2.479
		C103.64,631.196,105.742,631.328,107.616,631.02z"/>
</g>
</svg>
