<?xml version="1.0" encoding="utf-8"?>
<!-- Generator: Adobe Illustrator 16.0.0, SVG Export Plug-In . SVG Version: 6.00 Build 0)  -->
<!DOCTYPE svg PUBLIC "-//W3C//DTD SVG 1.1//EN" "http://www.w3.org/Graphics/SVG/1.1/DTD/svg11.dtd">
<svg version="1.1" id="Layer_1" xmlns="http://www.w3.org/2000/svg" xmlns:xlink="http://www.w3.org/1999/xlink" x="0px" y="0px"
	 width="2000px" height="2000px" viewBox="0 0 2000 2000" style="enable-background:new 0 0 2000 2000;" xml:space="preserve">
<style type="text/css">
<![CDATA[
	.st0{fill-rule:evenodd;clip-rule:evenodd;fill:#FFFFFF;}
]]>
</style>
<g>
	<path class="st0" d="M95.4,1504.1c65.5,5.6,129.8-18,196.6-1.9c79.2,19.1,122.9,62.2,127.3,140c1.6,27.7,1.9,55.7,0.4,83.4
		c-5.2,95.6-62,151.1-162.8,156.4c-50.7,2.6-101.6-0.1-152.4-0.4c-3-2.7-6-5.3-9-8C95.4,1750.4,95.4,1627.2,95.4,1504.1z
		 M343.5,1695.6c-0.1-105.5-33.2-138.2-126.7-138.6c-31.9-0.1-38.6,10.9-37.7,38.2c1.8,56.8-0.7,113.8,1.3,170.6
		c0.6,18.1-13.4,42.4,13.1,53.9c28.2,12.3,54.8,13.5,86.2-1C340.8,1790.5,337.9,1738.9,343.5,1695.6z"/>
	<path class="st0" d="M95.4,1873.5c3,2.7,6,5.3,9,8l-4.5,1l-4.6-0.2C95.4,1879.4,95.4,1876.4,95.4,1873.5z"/>
	<path class="st0" d="M659.8,1082c-150-98.3-222.7-237.6-219.5-407.2c3.3-174,92.9-302.3,259.6-379.1c22.2-10.2,43.9-21.2,65.7-32.1
		c129-64.4,158.7-109.1,165.8-256.6c68.5,68.5,135.9,130.5,214.5,193.8c-110,3.7-193.1,39.9-245.4,125.4
		c-52.8,86.4-46.3,173.2,4.7,259C750.7,616.6,652.1,701.4,619,848.8c-14.9,66.5-3.6,130.8,25.9,192.6c6.1,12.9,18.6,23.9,15.2,40.1
		L659.8,1082z"/>
	<path class="st0" d="M1187.5,1143.6c58.8-65.7,102.9-136.9,104.7-227c1.7-85.9-27.1-160.3-87.5-228
		c124.6-51.9,190.1-139,177.5-273.3c149.3,133.1,183.1,295.7,116.8,446.6c-55.7,126.7-151.4,217.8-281.9,276.3
		c-9.7,4.3-19.3,9-30.5,4.8L1187.5,1143.6z"/>
	<path class="st0" d="M761,905.8c0-100,84.8-181.8,189.6-182.8c107.7-1.1,194.4,80.2,194.7,182.6c0.3,100.9-88,183.9-194.5,182.9
		C846,1087.4,761,1005.6,761,905.8z"/>
	<path class="st0" d="M1094.6,1979c-0.4-86.2-3.5-172.4-0.4-258.5c3-80.9,83.8-141.2,176.1-137.3c86,3.7,158,77.9,155.3,160.1
		c-2.6,78.9-73.9,147.8-151.1,149.3c-44.4,0.9-69.4-24.8-97.6-61c-13.5,53.8-1.3,101.4-8.6,147.5c-2.8,2.4-5.7,4.9-8.5,7.3
		c-18.8,0-37.5,0-56.2,0C1100.6,1984,1097.6,1981.5,1094.6,1979z M1344.4,1739.3c0.4-46.5-38.5-84.8-85.9-84.5
		c-46.7,0.3-89.3,40.2-89.2,83.8c0,46.4,38.2,81.9,88.1,82C1310.5,1820.8,1344,1789.4,1344.4,1739.3z"/>
	<path class="st0" d="M1271.1,449.8c-0.3,78.4-68.2,141.6-150.5,140c-76.2-1.5-142.8-66-143.6-139.3
		c-0.8-73.3,68.1-138.7,147.7-140.1C1204.1,309.1,1271.4,373.2,1271.1,449.8z"/>
	<path class="st0" d="M1788.8,1881.6c-6.1,0.6-12.2,1.4-18.3,1.8c-35.1,2.2-72.5,7-56.1-53.8c-37.6,55.5-83,76.3-141.6,56.4
		c-61.4-20.8-99.2-64.3-107.5-125.6c-9.1-66.9,18.7-120.8,79.9-155.4c109.4-61.9,244.1,6.8,251.9,128.8c3,46.5-0.3,93.4-0.7,140.1
		C1793.9,1876.4,1791.4,1879,1788.8,1881.6z M1630,1820.7c51.6,0.5,88.6-33.6,88-81.4c-0.5-46.1-41-84.9-87.8-84.3
		c-46.8,0.6-89.4,40.6-89.8,84.3C1540,1785.1,1578.6,1820.1,1630,1820.7z"/>
	<path class="st0" d="M983.9,1591.2c18.4,0.1,36.7,0.3,55,0.4c4.6,2.8,9.2,5.7,13.8,8.5c0.9,49.5,5.7,99.2,2,148.4
		c-7.1,94.3-73.1,149-166.3,143.1c-79.9-5-135.5-71-134.4-159.5c16.8-46.1,3-93.6,7.5-140.2c18.5,0,37,0,55.5,0.1
		c2.8,5,5.8,5.4,9.2,0.5c19,32.5,4.8,67.6,8.5,101.3c1.9,17.3-0.2,35,0.8,52.5c2.4,46,27,72.6,67.2,73.8c41.4,1.2,69.2-26.9,71-75
		c1.8-48.1,1.3-96.2,1.8-144.4C978.2,1597.5,981.1,1594.3,983.9,1591.2z"/>
	<path class="st0" d="M539.7,1881.5c-6.1,0.6-12.3,0.8-18.3,1.9c-47.6,8.9-59.9-10.5-57.1-54.2c4.2-64.2,0-128.9,1.8-193.2
		c0.5-16.4-16-44.8,22.6-45.6c27-0.5,58.4-7.5,57.2,34.7c-0.2,5.2,3.4,10.5,6.7,20c40.1-41.7,80.8-81.5,143.3-54.8
		c40.3,17.2,10.5,54.6,21.8,85.4c-25.3-6.1-46-13.6-67.3-15.8c-59.5-6.1-100.6,30.1-101.3,86.5c-0.5,42.4-1.2,84.9-1.8,127.3
		C544.8,1876.4,542.2,1879,539.7,1881.5z"/>
	<path class="st0" d="M1916.9,1503.8c0.1,123.3,0.3,246.6,0.4,370c-2.8,2.8-5.5,5.6-8.3,8.4c-18.6-0.1-37.2-0.2-55.7-0.3
		c-2.2-4.5-5-5.4-8.6-1.2c-15.1-11.4-7.1-27.1-7.3-40.6c-0.8-93.4-0.4-186.8-0.4-280.3c0-66.8,0-66.8,72.3-63.2
		C1911.8,1499,1914.4,1501.4,1916.9,1503.8z"/>
	<path class="st0" d="M761.6,1591.9c-4.5,46.6,9.2,94.2-7.5,140.2C755.6,1685.3,742.1,1637.8,761.6,1591.9z"/>
	<path class="st0" d="M660.1,1081.5c2.1,0.7,4.3,1.5,6.4,2.3c-0.5,1.3-1,2.6-1.5,3.9c-1.8-1.9-3.5-3.8-5.3-5.7L660.1,1081.5z"/>
	<path class="st0" d="M1186.6,1143c-0.2,1.9-0.5,3.8-0.7,5.7c-7.2-3.9,0.5-3.6,1.6-5.1L1186.6,1143z"/>
	<path class="st0" d="M1916.9,1503.8c-2.5-2.4-5.1-4.8-7.6-7.2C1915.1,1495.8,1917.6,1498.3,1916.9,1503.8z"/>
	<path class="st0" d="M826.2,1592.5c-3.3,4.9-6.4,4.5-9.2-0.5C820.1,1592.1,823.2,1592.3,826.2,1592.5z"/>
	<path class="st0" d="M983.9,1591.2c-2.9,3.1-5.7,6.3-8.6,9.4C974.9,1594.7,976.7,1590.7,983.9,1591.2z"/>
	<path class="st0" d="M1052.8,1600.1c-4.6-2.8-9.2-5.6-13.8-8.5C1046,1590.9,1051.1,1593.1,1052.8,1600.1z"/>
	<path class="st0" d="M539.7,1881.5c2.5-2.6,5.1-5.1,7.6-7.7C547.8,1879.1,545.7,1882.1,539.7,1881.5z"/>
	<path class="st0" d="M1788.8,1881.6c2.5-2.6,5.1-5.2,7.7-7.8C1797,1879.1,1794.9,1882.1,1788.8,1881.6z"/>
	<path class="st0" d="M1844.7,1880.6c3.6-4.2,6.3-3.3,8.6,1.2l-4.5,0.6L1844.7,1880.6z"/>
	<path class="st0" d="M1909,1882.1c2.8-2.8,5.5-5.6,8.3-8.4C1917.8,1879.4,1915.5,1882.6,1909,1882.1z"/>
	<path class="st0" d="M1094.6,1979c3,2.5,6,4.9,8.9,7.4C1097.8,1987,1094.2,1985.2,1094.6,1979z"/>
	<path class="st0" d="M1159.8,1986.4c2.8-2.4,5.7-4.9,8.5-7.3C1168.9,1985.1,1165.5,1987,1159.8,1986.4z"/>
</g>
</svg>
