<?xml version="1.0" encoding="utf-8"?>
<!-- Generator: Adobe Illustrator 16.0.0, SVG Export Plug-In . SVG Version: 6.00 Build 0)  -->
<!DOCTYPE svg PUBLIC "-//W3C//DTD SVG 1.1//EN" "http://www.w3.org/Graphics/SVG/1.1/DTD/svg11.dtd">
<svg version="1.1" id="Layer_1" xmlns="http://www.w3.org/2000/svg" xmlns:xlink="http://www.w3.org/1999/xlink" x="0px" y="0px"
	 width="2000px" height="2000px" viewBox="0 0 2000 2000" style="enable-background:new 0 0 2000 2000;" xml:space="preserve">
<style type="text/css">
<![CDATA[
	.st0{fill:#E6E9EE;}
	.st1{fill:#1F8BC3;}
	.st2{fill:#263238;}
	.st3{fill:#FFB74D;}
	.st4{fill:#FFFFFF;}
	.st5{fill:#324A5E;}
]]>
</style>
<circle class="st1" cx="1000" cy="1000" r="1000"/>
<path class="st0" d="M1512.3,767.9V645.2H1452c-6-25.4-15.9-49.6-29-71.4l42.9-43.7l-84.5-86.5l-42.9,43.7
	c-21.4-13.5-44.8-23.4-69.8-29.8v-61.9h-119.4v61.9c-25,6.3-48.4,16.3-69.8,29.8l-42.9-43.7L952,530.2l42.9,43.7
	c-13.1,21.8-22.6,46-29,71.4h-60.3v122.6h60.3c6,25.4,15.9,49.6,29,71.4L952,882.9l84.5,86.5l42.9-43.7
	c21.4,13.5,44.8,23.4,69.8,29.8v61.9h119.4v-61.9c25-6.3,48.4-16.3,69.8-29.8l42.9,43.7l84.5-86.5l-42.9-43.7
	c13.1-21.8,22.6-46,29-71.4H1512.3L1512.3,767.9z M1208.7,885.7c-23.4,0-45.2-4.8-65.5-13.1c-40.5-17.1-73.8-49.2-92.5-89.7
	c-10.7-23-16.7-48.8-16.7-76.2c0-98.8,78.2-179,174.6-179c96.4,0,174.6,80.2,174.6,179S1305.2,885.7,1208.7,885.7z"/>
<path class="st3" d="M799.6,736.1l118.7,402.4c4,13.9,16.7,23.4,31,23.4h519c14.3,0,26.6-9.5,31-23.4l118.7-402.4
	c6.3-21.4-9.1-42.5-31-42.5H830.6C809.1,693.7,793.7,715.1,799.6,736.1z"/>
<ellipse class="st5" cx="937.3" cy="1508.3" rx="133.7" ry="137.3"/>
<path class="st2" d="M937.3,1580.6c-38.9,0-70.6-32.5-70.6-72.6s31.7-72.6,70.6-72.6c38.9,0,70.6,32.5,70.6,72.6
	S976.6,1580.6,937.3,1580.6z"/>
<ellipse class="st5" cx="1327" cy="1508.3" rx="133.7" ry="137.3"/>
<path class="st2" d="M1327,1580.6c-38.9,0-70.6-32.5-70.6-72.6s31.7-72.6,70.6-72.6s70.6,32.5,70.6,72.6S1365.9,1580.6,1327,1580.6z
	"/>
<path class="st2" d="M1465.5,1311.9H794l-181-608.7c-20.2-67.9-81-113.9-150.4-113.9h-63.5c-16.7,0-30.2-13.9-30.2-30.6l0,0
	c0-17.1,13.5-30.6,30.2-30.6h63.1c95.6,0,179.8,63.9,207.5,157.5l167.9,565.1h627c16.7,0,30.2,13.9,30.2,30.6l0,0
	C1495.2,1298.4,1482.1,1311.9,1465.5,1311.9z"/>
<g>
	<rect x="915.9" y="775" class="st4" width="586.1" height="48.4"/>
	<rect x="978.6" y="903.6" class="st4" width="461.1" height="48.4"/>
	<rect x="1053.2" y="1032.1" class="st4" width="311.1" height="48.4"/>
</g>
</svg>
