<?xml version="1.0" encoding="utf-8"?>
<!-- Generator: Adobe Illustrator 16.0.0, SVG Export Plug-In . SVG Version: 6.00 Build 0)  -->
<!DOCTYPE svg PUBLIC "-//W3C//DTD SVG 1.1//EN" "http://www.w3.org/Graphics/SVG/1.1/DTD/svg11.dtd">
<svg version="1.1" xmlns="http://www.w3.org/2000/svg" xmlns:xlink="http://www.w3.org/1999/xlink" x="0px" y="0px" width="2000px"
	 height="1720.7px" viewBox="0 0 2000 1720.7" style="enable-background:new 0 0 2000 1720.7;" xml:space="preserve">
<style type="text/css">
<![CDATA[
	.st0{fill:#E3AE59;}
	.st1{fill:#E55957;}
	.st2{fill:#E7F5F7;}
	.st3{fill:#4E5E6D;}
	.st4{opacity:0.23;}
	.st5{opacity:0.58;}
	.st6{fill:#1D2C35;}
	.st7{fill:#1F8BC3;}
	.st8{fill:#20272D;}
	.st9{fill:#F46060;}
	.st10{fill:#262E3C;}
	.st11{fill:#263238;}
	.st12{fill:#F9E380;}
	.st13{fill:#C0902E;}
	.st14{fill:#C6E3E7;}
	.st15{fill:#FBCA47;}
	.st16{fill:#2E373A;}
	.st17{fill:#2F363E;}
	.st18{fill:#FFFFFF;}
	.st19{fill:#CC5050;}
	.st20{fill:#CED5E0;}
	.st21{fill:#334551;}
	.st22{fill:#6E8191;}
	.st23{fill:#3D4859;}
]]>
</style>
<g id="Layer_2">
	<g class="st5">
		<polygon class="st16" points="844.7,688.9 844.7,647.1 817.1,647.1 817.1,589.6 793.9,589.6 793.9,544.3 754.2,544.3 737.9,442.3 
			721.6,544.3 683.3,544.3 683.3,589.6 654.5,589.6 654.5,647.1 630.2,647.1 630.2,696.3 630.2,696.3 630.2,1608 844.7,1608 
			844.7,688.9 		"/>
		<path class="st16" d="M1178.7,529.4v-32.8l-119.4-24.9l-5.4-113.8c12.8-6,21.6-17,21.6-29.9c0-13.6-9.9-25.3-24.1-30.9l-8.5-154
			l-8.4-129.4l-9.7,125.3l-10,157.7c-14.7,5.5-24.9,17.4-24.9,31.3c0,12.9,8.9,24.1,22,30l-4.3,112.8L876.8,499v36.2l0,0V1608h301.9
			V529.4L1178.7,529.4z"/>
		<polygon class="st16" points="521.8,895.9 521.8,870.4 414.6,870.4 414.6,895.9 369.3,895.9 369.3,1608 566.1,1608 566.1,895.9 		
			"/>
		<polygon class="st16" points="1360,783.1 1360,772 1326.8,772 1326.8,719 1273.8,719 1273.8,772 1243.9,772 1243.9,783.1 
			1209.6,783.1 1209.6,1608 1396.5,1608 1396.5,783.1 		"/>
		<rect x="478.7" y="959.3" class="st12" width="27" height="27"/>
		<rect x="393.4" y="959.3" class="st20" width="27" height="27"/>
		<rect x="521.4" y="1000.7" class="st12" width="27" height="27"/>
		<rect x="436.1" y="1000.7" class="st20" width="27" height="27"/>
		<rect x="393.4" y="1000.7" class="st20" width="27" height="27"/>
		<rect x="521.4" y="1042.1" class="st12" width="27" height="27"/>
		<rect x="478.7" y="1042.1" class="st20" width="27" height="27"/>
		<rect x="521.4" y="1083.6" class="st12" width="27" height="27"/>
		<rect x="393.4" y="1083.6" class="st12" width="27" height="27"/>
		<rect x="436.1" y="1125" class="st12" width="27" height="27"/>
		<rect x="393.4" y="1125" class="st12" width="27" height="27"/>
		<rect x="521.4" y="1166.4" class="st12" width="27" height="27"/>
		<rect x="478.7" y="1166.4" class="st12" width="27" height="27"/>
		<rect x="436.1" y="1166.4" class="st12" width="27" height="27"/>
		<rect x="478.7" y="1207.8" class="st12" width="27" height="27"/>
		<rect x="393.4" y="1207.8" class="st12" width="27" height="27"/>
		<rect x="521.4" y="1249.3" class="st12" width="27" height="27"/>
		<rect x="478.7" y="1249.3" class="st12" width="27" height="27"/>
		<rect x="436.1" y="1249.3" class="st12" width="27" height="27"/>
		<rect x="521.4" y="1290.7" class="st12" width="27" height="27"/>
		<rect x="478.7" y="1332.1" class="st12" width="27" height="27"/>
		<rect x="436.1" y="1332.1" class="st12" width="27" height="27"/>
		<rect x="478.7" y="1383.1" class="st12" width="27" height="27"/>
		<rect x="393.4" y="1383.1" class="st12" width="27" height="27"/>
		<rect x="521.4" y="1424.5" class="st12" width="27" height="27"/>
		<rect x="436.1" y="1424.5" class="st12" width="27" height="27"/>
		<rect x="393.4" y="1424.5" class="st12" width="27" height="27"/>
		<rect x="521.4" y="1466" class="st12" width="27" height="27"/>
		<rect x="478.7" y="1466" class="st12" width="27" height="27"/>
		<rect x="521.4" y="1507.4" class="st12" width="27" height="27"/>
		<rect x="393.4" y="1507.4" class="st12" width="27" height="27"/>
		<rect x="436.1" y="1548.8" class="st12" width="27" height="27"/>
		<rect x="393.4" y="1548.8" class="st12" width="27" height="27"/>
		<rect x="918.9" y="594.3" class="st20" width="35.4" height="35.4"/>
		<rect x="980.9" y="594.3" class="st20" width="35.3" height="35.4"/>
		<rect x="1043" y="594.3" class="st20" width="35.3" height="35.4"/>
		<rect x="918.9" y="688.5" class="st12" width="35.4" height="35.3"/>
		<rect x="1043" y="688.5" class="st12" width="35.3" height="35.3"/>
		<rect x="918.9" y="782.8" class="st12" width="35.4" height="35.4"/>
		<rect x="980.9" y="782.8" class="st12" width="35.3" height="35.4"/>
		<rect x="1043" y="782.8" class="st12" width="35.3" height="35.4"/>
		<rect x="918.9" y="877.1" class="st12" width="35.4" height="35.4"/>
		<rect x="980.9" y="877.1" class="st12" width="35.3" height="35.4"/>
		<rect x="1043" y="877.1" class="st12" width="35.3" height="35.4"/>
		<rect x="918.9" y="971.3" class="st12" width="35.4" height="35.4"/>
		<rect x="980.9" y="971.3" class="st12" width="35.3" height="35.4"/>
		<rect x="918.9" y="1065.6" class="st12" width="35.4" height="35.3"/>
		<rect x="1043" y="1065.6" class="st12" width="35.3" height="35.3"/>
		<rect x="1105.1" y="688.5" class="st20" width="35.3" height="35.3"/>
		<rect x="1105.1" y="782.8" class="st20" width="35.3" height="35.4"/>
		<rect x="1105.1" y="877.1" class="st12" width="35.3" height="35.4"/>
		<rect x="1105.1" y="971.3" class="st12" width="35.3" height="35.4"/>
		<rect x="1105.1" y="1065.6" class="st12" width="35.3" height="35.3"/>
		<rect x="1236" y="884.7" class="st12" width="27.7" height="27.7"/>
		<rect x="1271.6" y="884.7" class="st12" width="27.7" height="27.7"/>
		<rect x="1307.2" y="884.7" class="st12" width="27.7" height="27.7"/>
		<rect x="1342.8" y="884.7" class="st12" width="27.7" height="27.7"/>
		<rect x="1236" y="919.8" class="st12" width="27.7" height="27.7"/>
		<rect x="1271.6" y="919.8" class="st12" width="27.7" height="27.7"/>
		<rect x="1307.2" y="919.8" class="st12" width="27.7" height="27.7"/>
		<rect x="1342.8" y="919.8" class="st12" width="27.7" height="27.7"/>
		<rect x="1236" y="954.9" class="st12" width="27.7" height="27.7"/>
		<rect x="1271.6" y="954.9" class="st12" width="27.7" height="27.7"/>
		<rect x="1307.2" y="954.9" class="st12" width="27.7" height="27.7"/>
		<rect x="1342.8" y="954.9" class="st12" width="27.7" height="27.7"/>
		<rect x="1236" y="990" class="st12" width="27.7" height="27.7"/>
		<rect x="1271.6" y="990" class="st12" width="27.7" height="27.7"/>
		<rect x="1307.2" y="990" class="st12" width="27.7" height="27.7"/>
		<rect x="1342.8" y="990" class="st12" width="27.7" height="27.7"/>
		<rect x="1236" y="1025" class="st12" width="27.7" height="27.7"/>
		<rect x="1271.6" y="1025" class="st12" width="27.7" height="27.7"/>
		<rect x="1307.2" y="1025" class="st12" width="27.7" height="27.7"/>
		<rect x="1342.8" y="1025" class="st12" width="27.7" height="27.7"/>
		<rect x="1236" y="1060.1" class="st12" width="27.7" height="27.7"/>
		<rect x="1271.6" y="1060.1" class="st12" width="27.7" height="27.7"/>
		<rect x="1307.2" y="1060.1" class="st12" width="27.7" height="27.7"/>
		<rect x="1342.8" y="1060.1" class="st12" width="27.7" height="27.7"/>
		<rect x="1236" y="1095.2" class="st12" width="27.7" height="27.7"/>
		<rect x="1271.6" y="1095.2" class="st12" width="27.7" height="27.7"/>
		<rect x="1307.2" y="1095.2" class="st12" width="27.7" height="27.7"/>
		<rect x="1342.8" y="1095.2" class="st12" width="27.7" height="27.7"/>
		<rect x="1236" y="1130.3" class="st12" width="27.7" height="27.7"/>
		<rect x="1271.6" y="1130.3" class="st12" width="27.7" height="27.7"/>
		<rect x="1307.2" y="1130.3" class="st12" width="27.7" height="27.7"/>
		<rect x="1342.8" y="1130.3" class="st12" width="27.7" height="27.7"/>
		<rect x="1236" y="1165.3" class="st12" width="27.7" height="27.7"/>
		<rect x="1271.6" y="1165.3" class="st12" width="27.7" height="27.7"/>
		<rect x="1307.2" y="1165.3" class="st12" width="27.7" height="27.7"/>
		<rect x="1342.8" y="1165.3" class="st12" width="27.7" height="27.7"/>
		<rect x="1236" y="1200.4" class="st12" width="27.7" height="27.7"/>
		<rect x="1271.6" y="1200.4" class="st12" width="27.7" height="27.7"/>
		<rect x="1307.2" y="1200.4" class="st12" width="27.7" height="27.7"/>
		<rect x="1342.8" y="1200.4" class="st12" width="27.7" height="27.7"/>
		<rect x="1236" y="1235.8" class="st12" width="27.7" height="27.7"/>
		<rect x="1271.6" y="1235.8" class="st12" width="27.7" height="27.7"/>
		<rect x="1307.2" y="1235.8" class="st12" width="27.7" height="27.7"/>
		<rect x="1342.8" y="1235.8" class="st12" width="27.7" height="27.7"/>
		<rect x="1236" y="1270.9" class="st12" width="27.7" height="27.7"/>
		<rect x="1271.6" y="1270.9" class="st12" width="27.7" height="27.7"/>
		<rect x="1307.2" y="1270.9" class="st12" width="27.7" height="27.7"/>
		<rect x="1342.8" y="1270.9" class="st12" width="27.7" height="27.7"/>
		<rect x="1236" y="1305.9" class="st12" width="27.7" height="27.7"/>
		<rect x="1271.6" y="1305.9" class="st12" width="27.7" height="27.7"/>
		<rect x="1307.2" y="1305.9" class="st12" width="27.7" height="27.7"/>
		<rect x="1342.8" y="1305.9" class="st12" width="27.7" height="27.7"/>
		<rect x="1236" y="1341" class="st12" width="27.7" height="27.7"/>
		<rect x="1271.6" y="1341" class="st12" width="27.7" height="27.7"/>
		<rect x="1307.2" y="1341" class="st12" width="27.7" height="27.7"/>
		<rect x="1342.8" y="1341" class="st12" width="27.7" height="27.7"/>
		<rect x="1236" y="1376.1" class="st12" width="27.7" height="27.7"/>
		<rect x="1271.6" y="1376.1" class="st12" width="27.7" height="27.7"/>
		<rect x="1307.2" y="1376.1" class="st12" width="27.7" height="27.7"/>
		<rect x="1342.8" y="1376.1" class="st12" width="27.7" height="27.7"/>
		<rect x="1236" y="1411.2" class="st12" width="27.7" height="27.7"/>
		<rect x="1271.6" y="1411.2" class="st12" width="27.7" height="27.7"/>
		<rect x="1307.2" y="1411.2" class="st12" width="27.7" height="27.7"/>
		<rect x="1342.8" y="1411.2" class="st12" width="27.7" height="27.7"/>
		<rect x="1236" y="1446.2" class="st12" width="27.7" height="27.7"/>
		<rect x="1271.6" y="1446.2" class="st12" width="27.7" height="27.7"/>
		<rect x="1307.2" y="1446.2" class="st12" width="27.7" height="27.7"/>
		<rect x="1342.8" y="1446.2" class="st12" width="27.7" height="27.7"/>
		<rect x="1236" y="1481.3" class="st12" width="27.7" height="27.7"/>
		<rect x="1271.6" y="1481.3" class="st12" width="27.7" height="27.7"/>
		<rect x="1307.2" y="1481.3" class="st12" width="27.7" height="27.7"/>
		<rect x="1342.8" y="1481.3" class="st12" width="27.7" height="27.7"/>
		<rect x="1236" y="1516.4" class="st12" width="27.7" height="27.7"/>
		<rect x="1271.6" y="1516.4" class="st12" width="27.7" height="27.7"/>
		<rect x="1307.2" y="1516.4" class="st12" width="27.7" height="27.7"/>
		<rect x="1342.8" y="1516.4" class="st12" width="27.7" height="27.7"/>
		<rect x="1236" y="1551.5" class="st12" width="27.7" height="27.7"/>
		<rect x="1271.6" y="1551.5" class="st12" width="27.7" height="27.7"/>
		<rect x="1307.2" y="1551.5" class="st12" width="27.7" height="27.7"/>
		<rect x="1342.8" y="1551.5" class="st12" width="27.7" height="27.7"/>
		<rect x="656.1" y="752.9" class="st12" width="165.8" height="16.1"/>
		<rect x="656.1" y="870.4" class="st12" width="165.8" height="16.1"/>
		<rect x="656.1" y="988" class="st12" width="165.8" height="16.1"/>
		<rect x="656.1" y="1105.6" class="st12" width="165.8" height="16.1"/>
		<rect x="656.1" y="1223.1" class="st12" width="165.8" height="16.1"/>
		<rect x="656.1" y="792.6" class="st12" width="72.4" height="16.1"/>
		<rect x="656.1" y="831.5" class="st12" width="72.4" height="16.1"/>
		<rect x="656.1" y="1295.1" class="st12" width="165.8" height="16.1"/>
		<rect x="656.1" y="1334.9" class="st12" width="72.4" height="16.1"/>
		<rect x="656.1" y="1373.8" class="st12" width="72.4" height="16.1"/>
		<rect x="918.9" y="1141.5" class="st12" width="30.8" height="30.8"/>
		<rect x="1105.1" y="1212.9" class="st12" width="35.3" height="35.3"/>
		<rect x="1043" y="1212.9" class="st12" width="35.3" height="35.3"/>
		<rect x="980.9" y="1212.9" class="st12" width="35.3" height="35.3"/>
		<rect x="1105.1" y="1307.2" class="st12" width="35.3" height="35.3"/>
		<rect x="980.9" y="1307.2" class="st12" width="35.3" height="35.3"/>
		<rect x="1105.1" y="1401.4" class="st12" width="35.3" height="35.4"/>
		<rect x="1043" y="1401.4" class="st12" width="35.3" height="35.4"/>
		<rect x="1105.1" y="1495.7" class="st12" width="35.3" height="35.4"/>
		<rect x="980.9" y="1495.7" class="st12" width="35.3" height="35.4"/>
		<rect x="918.9" y="1307.2" class="st12" width="35.4" height="35.3"/>
		<rect x="918.9" y="1401.4" class="st20" width="35.4" height="35.4"/>
	</g>
</g>
<g id="Layer_1">
	<ellipse class="st4" cx="1383.4" cy="1613.4" rx="597.4" ry="87.3"/>
	<rect x="988.5" y="810.7" class="st11" width="648.9" height="747.8"/>
	<path class="st3" d="M1637.4,810.7c0,0-83.3,38.8,0,80V810.7z"/>
	<path class="st6" d="M1600.3,852.6v46.3h77.7C1678,898.9,1606.7,885.7,1600.3,852.6z"/>
	<path class="st6" d="M1095.2,855.2l-0.6,41.5h-46.5C1048.1,896.8,1095.8,876.1,1095.2,855.2z"/>
	<path class="st3" d="M989.4,810.7v750.2c52.8,4.2,61.3,59.4,61.3,59.4l-1.9-721.4C1182.4,839.9,989.4,810.7,989.4,810.7z"/>
	<rect x="1048" y="898.9" class="st7" width="648.9" height="747.8"/>
	<path class="st21" d="M1533.1,1071.3h-10.7c-2.3,0-4,1.4-3.9,3c18.3,217.7-147,210-147,210l0,0.2l0-0.2c0,0-165.2,7.7-147-210
		c0.1-1.6-1.6-3-3.9-3H1210c-2.1,0-3.8,1.2-3.9,2.6c-2.5,25.3-16.6,222.7,163.1,224v0c1.7,0,1.2,0,1.7,0c0.5,0,1.7,0,1.7,0v0
		c181.3-1.3,167.1-198.7,164.6-224C1536.9,1072.4,1535.2,1071.3,1533.1,1071.3z"/>
	<rect x="1048" y="1524" class="st14" width="648.9" height="122.7"/>
	<rect x="1048" y="896.8" class="st14" width="648.9" height="61.4"/>
	<path class="st11" d="M1460.2,1397.9L1460.2,1397.9c-3.4-3.2-3.6-8.6-0.4-12l160.6-172.4c3.2-3.4,8.6-3.6,12-0.4l0,0
		c3.4,3.2,3.6,8.6,0.4,12l-160.6,172.4C1469,1400.9,1463.6,1401.1,1460.2,1397.9z"/>
	<path class="st11" d="M1808.6,1400.9l0.7-0.4c3.8-2.2,5.2-7.2,2.9-11l-117.7-203.8c-2.2-3.8-7.2-5.2-11-2.9l-0.7,0.4
		c-3.8,2.2-5.2,7.2-2.9,11l117.7,203.8C1799.8,1401.8,1804.7,1403.1,1808.6,1400.9z"/>
	<g>
		<path class="st1" d="M1843.2,1372.2c16.8,0,29,16,24.5,32.3l-62.3,223c-3.1,11.2-13.6,18.9-25.7,18.9h-280
			c-12,0-22.5-7.8-25.7-18.9l-62.3-223c-4.5-16.2,7.7-32.3,24.5-32.3H1843.2z"/>
	</g>
	<path class="st9" d="M1805.4,1627.5l62.3-223c4.5-16.2-7.7-32.2-24.5-32.2H1639v274.3h140.7
		C1791.7,1646.6,1802.3,1638.7,1805.4,1627.5z"/>
	<g>
		<g>
			<path class="st20" d="M1730.5,1586.2c-0.8,4.8,2.6,8.7,7.4,8.7h17.5c4.8,0,9.7-3.9,10.7-8.6l29.6-133.6c1-4.7-2.1-8.6-6.9-8.6
				h-26.6c-4.8,0-9.4,3.9-10.2,8.7L1730.5,1586.2z"/>
		</g>
		<g>
			<path class="st20" d="M1657.5,1586c-0.2,4.8,3.6,8.8,8.5,8.8h17.5c4.8,0,9.2-3.9,9.7-8.8l13.1-133.3c0.5-4.8-3.1-8.8-7.9-8.8
				h-26.6c-4.8,0-9,4-9.1,8.8L1657.5,1586z"/>
		</g>
		<g>
			<path class="st20" d="M1584.4,1586.1c0.4,4.8,4.7,8.8,9.6,8.8h17.5c4.8,0,8.7-4,8.6-8.8l-3.3-133.2c-0.1-4.8-4.2-8.8-9-8.8h-26.6
				c-4.8,0-8.5,4-8.1,8.8L1584.4,1586.1z"/>
		</g>
		<g>
			<path class="st20" d="M1511.4,1586.2c1,4.7,5.8,8.6,10.6,8.6h17.5c4.8,0,8.2-3.9,7.5-8.7l-19.8-133.4c-0.7-4.8-5.3-8.7-10.1-8.7
				h-26.6c-4.8,0-8,3.9-7,8.6L1511.4,1586.2z"/>
		</g>
	</g>
	<rect x="1403.3" y="1371.5" class="st17" width="472.7" height="57.2"/>
	<rect x="1403" y="1372.4" class="st11" width="236.4" height="56.3"/>
	<path class="st8" d="M1214.7,1096.5L1214.7,1096.5c-12.2,0-22.2-10-22.2-22.2v-2.7c0-12.2,10-22.2,22.2-22.2l0,0
		c12.2,0,22.2,10,22.2,22.2v2.7C1237,1086.5,1227,1096.5,1214.7,1096.5z"/>
	<path class="st8" d="M1528.2,1096.5L1528.2,1096.5c-12.2,0-22.3-10.6-22.3-23.6l0,0c0-13,10-23.6,22.3-23.6l0,0
		c12.2,0,22.3,10.6,22.3,23.6l0,0C1550.5,1085.9,1540.5,1096.5,1528.2,1096.5z"/>
</g>
<g id="Layer_3">
	<polygon class="st13" points="587.2,1523.9 449.2,1633.6 212.1,1647.2 38.7,1523.9 38.7,1193.8 587.2,1193.8 	"/>
	<path class="st0" d="M35.9,1225.7c93,171.8,485.4,160.5,553.4-5.1c11.9,60.4-12,103.5-59.7,135.9c-110.3,74.8-320.4,75.5-431.2,1.8
		C52.8,1327.9,25.2,1288.8,35.9,1225.7z"/>
	<path class="st0" d="M35.9,1314c93,171.8,485.4,160.5,553.4-5.1c11.9,60.4-12,103.5-59.7,135.9c-110.3,74.8-320.4,75.6-431.2,1.8
		C52.8,1416.2,25.2,1377.1,35.9,1314z"/>
	<path class="st0" d="M39.2,1494.5c64.6,99.1,167.1,118.9,273.9,118.3c108.8-0.5,213.9-19.4,276.9-126.5
		c9.6,55.4-10.2,97.8-55.4,130.1c-111.7,79.9-330.9,80.6-442.9,1C41.5,1581.7,23.6,1538.2,39.2,1494.5z"/>
	<path class="st0" d="M35.9,1402.2c93,171.8,485.4,160.5,553.4-5.1c11.9,60.4-12,103.5-59.7,135.9c-110.3,74.8-320.4,75.6-431.2,1.8
		C52.8,1504.4,25.2,1465.3,35.9,1402.2z"/>
	<ellipse class="st15" cx="313" cy="1171" rx="279.3" ry="154.5"/>
	<path class="st18" d="M313,1284.5c-62,0-120.4-11.9-164.4-33.4c-45.3-22.2-70.3-52.3-70.3-84.6c0-32.3,25-62.4,70.3-84.6
		c44-21.6,102.4-33.4,164.4-33.4c62,0,120.4,11.9,164.4,33.4c45.3,22.2,70.3,52.3,70.3,84.6c0,32.3-25,62.4-70.3,84.6
		C433.4,1272.6,375,1284.5,313,1284.5z M313,1060.2c-60.2,0-116.7,11.4-159.2,32.2c-41.1,20.1-63.7,46.4-63.7,74
		c0,27.6,22.6,53.8,63.7,74c42.4,20.8,98.9,32.2,159.2,32.2s116.7-11.4,159.2-32.2c41.1-20.1,63.7-46.4,63.7-74
		c0-27.6-22.6-53.8-63.7-74C429.8,1071.7,373.3,1060.2,313,1060.2z"/>
	<path class="st16" d="M1004.1,1676.8H587c-40.4,0-73.1-32.7-73.1-73.1V706.4c0-40.4,32.7-73.1,73.1-73.1h417.1
		c40.4,0,73.1,32.7,73.1,73.1v897.3C1077.2,1644.1,1044.5,1676.8,1004.1,1676.8z"/>
	<rect x="550.4" y="788.6" class="st20" width="488.4" height="729.1"/>
	<path class="st22" d="M839.5,1619h-86.1c-11.4,0-20.7-9.3-20.7-20.7v-4c0-11.4,9.3-20.7,20.7-20.7h86.1c11.4,0,20.7,9.3,20.7,20.7
		v4C860.3,1609.7,851,1619,839.5,1619z"/>
	<path class="st22" d="M839.5,732.8h-86.1c-11.4,0-20.7-9.3-20.7-20.7v-4c0-11.4,9.3-20.7,20.7-20.7h86.1c11.4,0,20.7,9.3,20.7,20.7
		v4C860.3,723.5,851,732.8,839.5,732.8z"/>
	<path class="st2" d="M872.2,843.7H717.4c-4.8,0-8.6-3.6-8.4-7.9l0,0c0.2-4.4,4.2-7.9,9-7.9h153.7c4.8,0,8.8,3.5,8.9,7.9l0,0
		C880.8,840.2,877,843.7,872.2,843.7z"/>
	<path class="st10" d="M592.1,943.8c-3.7,39-40,71.7-80.9,71.7c-40.9,0-68.8-32.7-62.6-71.7l0,0c0-0.1,0.1-0.2,0.1-0.3l28.7-48.2
		c14.3-11.7,32.6-18.9,51.5-18.9C567.4,876.4,595.7,906.1,592.1,943.8z"/>
	<path class="st19" d="M735.5,943.3c-1.2,39-35.4,71.7-76.2,71.7c-40.8,0-70.8-32.6-67.1-71.7c3.6-37.7,37.6-67.4,76-67.4
		C706.6,875.9,736.7,905.6,735.5,943.3z"/>
	<path class="st10" d="M878.5,943.3c1.2,39-30.9,71.7-71.7,71.7c-40.8,0-72.9-32.6-71.7-71.7c1.2-37.7,33.3-67.4,71.7-67.4
		C845.2,875.9,877.3,905.6,878.5,943.3z"/>
	<path class="st19" d="M1021.6,943.3c3.7,39-26.3,71.7-67.1,71.7c-40.8,0-75-32.6-76.2-71.7c-1.2-37.7,29-67.4,67.4-67.4
		C984,875.9,1018,905.6,1021.6,943.3z"/>
	<path class="st10" d="M1165.4,943.3C1165.4,943.3,1165.4,943.3,1165.4,943.3c6.2,39-21.6,71.7-62.5,71.7c-40.8,0-77-32.6-80.7-71.7
		c-3.6-37.7,24.7-67.4,63.1-67.4c13.1,0,25.8,3.4,37.2,9.4l42.9,57.7C1165.5,943.1,1165.4,943.2,1165.4,943.3z"/>
	<polygon class="st23" points="644.3,784.6 592.1,943.8 448.8,943.8 448.6,943.8 448.8,943.5 477.5,895.3 543.4,784.6 	"/>
	<polygon class="st23" points="878.3,943.8 735.2,943.8 744.6,784.6 845.8,784.6 	"/>
	<polygon class="st1" points="1022.3,943.3 878.8,943.3 845.8,784.6 946.9,784.6 	"/>
	<polygon class="st23" points="1165.8,943.3 1165.7,943.3 1022.3,943.3 946.5,784.2 1047.2,784.2 1122.6,885.3 1165.6,943 	"/>
	<polygon class="st1" points="735.7,943.3 592.1,943.8 644.3,784.6 744.6,784.6 	"/>
	<circle class="st7" cx="795.5" cy="1262.6" r="187.4"/>
	<g>
		<path class="st10" d="M920,1215.9c-8.7,28.6-17.7,57-26.6,85.6c-2.2,7.1-7.7,8.4-14.1,8.4c-37.8-0.1-75.7,0.2-113.5,0.2
			c-2.7,0-5.3,0-8.1,0c2.7,12.7,2.7,13.7,15.4,13.7c31.6,0,63.3-0.2,95-0.1c11.8,0,21.1,4.8,26.8,15.4c5.2,9.7,4.8,19.5-1,28.9
			c-6.7,10.9-20.1,16-32.2,12.4c-12.5-3.6-21-14.8-21.1-27.6c0-2.9,0.3-6.3,0.5-9.4c-19.2,0-38.1,0-56.8,0c-0.5,6.3-0.2,11.7-1.5,17
			c-3.1,12.1-13.8,20.4-25.9,20.9c-12.8,0.5-24.1-6.6-28.6-18.3c-4.4-11.4-1.5-24.7,8.3-32.2c4.9-3.7,4.7-6.7,2.8-11.6
			c-16.2-41.9-32.3-83.8-48.2-125.8c-1.9-4.9-4.2-6.9-9.5-6.5c-5.9,0.5-11.9,0.2-17.8,0.1c-6.1-0.1-9.7-3.4-10.2-9.5
			c-0.5-5.7,3.9-9.9,10.4-10c9.9-0.2,19.8,0.1,29.7-0.1c6.1-0.1,9.7,2.6,11.7,8.1c2.5,7,5.6,13.8,7.7,20.8c1.6,5.2,4.4,6.5,9.7,6.5
			c60.3-0.2,120.7-0.1,181-0.1c2.2,0,4.5-0.1,6.7,0.1C918.3,1203.2,922.3,1208.5,920,1215.9z"/>
		<path class="st20" d="M739,1262.6c3.3,9.5,6.1,16.5,9.3,24.1c0.5,1.2,2.5,2.5,3.8,2.6c10.3,0.2,20.6,0,31.9,0
			c-0.8-9.7-1.6-17.2-2.3-26.7C767.2,1262.6,753.6,1262.6,739,1262.6z"/>
		<path class="st18" d="M746.2,1352.4c0.3,5.3,3.4,8.6,8.7,9.2c4.9,0.5,9.6-4.2,9.6-9.4c-0.7-4.9-3.3-8.3-8.8-8.7
			C750.5,1343.1,745.9,1347.4,746.2,1352.4z"/>
		<path class="st18" d="M869.8,1361.6c5.4-0.5,8.5-3.8,8.8-9.1c0.3-5.1-4.3-9.3-9.5-9.1c-5.5,0.5-8.5,3.7-8.8,9
			C860,1357.3,864.9,1362.1,869.8,1361.6z"/>
		<path class="st20" d="M768.7,1253.1c4,0,8.1,0,12.4,0c-0.9-11.1-1.8-20.6-2.6-30.1c-18.6,0-36.3,0-55,0c3.4,7.9,6.7,16.7,9.4,24.9
			c1.4,4.1,3.7,5.2,7.7,5.2C750,1252.8,759.4,1253.1,768.7,1253.1z"/>
		<path class="st20" d="M794,1289.5c12.5,0,24.3,0,36.8,0c0.7-9.5,1.4-17.4,2.1-26.9c-13.9,0-27.3,0-41.1,0
			C792.5,1272.1,793.2,1280,794,1289.5z"/>
		<path class="st20" d="M791.2,1253.1H834l0.3-5.8c0,0,1.1-16.4,1.7-24.3c-16.1,0-31.4,0-47.2,0
			C789.4,1230.9,791.2,1253.1,791.2,1253.1z"/>
		<path class="st20" d="M843.7,1252.6c14,0,27.1,0.1,40.2-0.2c1.8,0,4.5-2.1,5.1-3.8c3-8.3,5.3-16.2,8.1-25.7c-17.6,0-34.2,0-51.2,0
			C845.1,1232.5,844.4,1242.5,843.7,1252.6z"/>
		<path class="st20" d="M840.7,1289.4c11.5,0,21.8,0.1,32.1,0c1.4,0,3.8-1.1,4.1-2.2c2.7-8,5.1-16.7,7.7-24.6c-14.5,0-27.7,0-41.7,0
			C842.2,1272.1,841.5,1279.9,840.7,1289.4z"/>
	</g>
	<path class="st18" d="M423.8,1164.8c3.4,19.3,2.7,39.7-2.7,61.1h-57.4c5.6-12.5,9.8-25.3,12.6-38.5c2.7-12.4,3.4-22.7,2.3-31.3
		c-0.9-6.8-2.5-11.6-4.8-14.6c-2.3-3-5.7-4.4-10.2-4.4c-3.1,0-5.7,1.1-7.7,3.2c-2,2.2-4.3,5.8-6.8,11c-2.6,5.3-5.7,12.8-9.5,22.5
		c-4.6,11.5-10.1,21.2-16.4,28.9c-6.6,7.9-14.1,13.9-22.5,17.7c-8.5,3.9-19.1,5.8-31.5,5.8c-19,0-32.9-5.8-41.2-17
		c-7.9-10.7-10.5-25.8-8.2-44.5h-33.6l8-24.7h31.3c4.6-14.4,12.2-27.9,22.6-40.5l35.3,11.1c-10.1,14-16.4,27.5-18.3,40.4
		c-0.9,6.4-0.6,11.1,1,13.8c1.6,2.8,4.3,4.2,8.2,4.2c3.4,0,6.2-1,8.6-3c2.4-2,5.1-5.4,8.1-10.1c3-4.6,6.4-10.9,10.2-18.7
		c7.6-14.9,15.5-24.9,23.8-30.7c8.1-5.6,18.4-8.4,31.1-8.4c14.3,0,26.4,3.2,36.6,9.9c10.6,6.9,18.8,17.4,24.4,32.1h38.1l8,24.7
		H423.8z"/>
</g>
</svg>
