<?xml version="1.0" encoding="utf-8"?>
<!-- Generator: Adobe Illustrator 16.0.0, SVG Export Plug-In . SVG Version: 6.00 Build 0)  -->
<!DOCTYPE svg PUBLIC "-//W3C//DTD SVG 1.1//EN" "http://www.w3.org/Graphics/SVG/1.1/DTD/svg11.dtd">
<svg version="1.1" id="Layer_1" xmlns="http://www.w3.org/2000/svg" xmlns:xlink="http://www.w3.org/1999/xlink" x="0px" y="0px"
	 width="2000px" height="1840px" viewBox="0 0 2000 1840" style="enable-background:new 0 0 2000 1840;" xml:space="preserve">
<style type="text/css">
<![CDATA[
	.st0{fill-rule:evenodd;clip-rule:evenodd;fill:#A37100;}
	.st1{fill:#E7F4F7;}
	.st2{fill:#E8EFF9;}
	.st3{opacity:0.1;fill:#A37100;}
	.st4{opacity:0.61;}
	.st5{fill:#EDF3FC;}
	.st6{fill:#1F8BC3;}
	.st7{fill:#263238;}
	.st8{opacity:0.1;}
	.st9{fill:#FFFFFF;}
	.st10{fill:#CED5E0;}
	.st11{fill:#333A44;}
	.st12{fill:#A37100;}
	.st13{opacity:0.34;fill:#020202;}
	.st14{fill:#797D82;}
]]>
</style>
<g>
	<g class="st8">
		<g>
			<path class="st12" d="M367.4,1556.8c-2.8,0-5.5-1-7.7-2.6C361.9,1555.8,364.6,1556.8,367.4,1556.8h187c2.6,0,5.1-0.8,7.2-2.2
				c-2.1,1.4-4.6,2.2-7.2,2.2H367.4z"/>
			<path class="st12" d="M367.4,1257h187c3.5,0,6.7,1.5,9.2,3.8c-2.5-2.4-5.7-3.8-9.2-3.8H367.4c-4,0-7.5,1.8-10.1,4.7
				C359.9,1258.8,363.5,1257,367.4,1257z"/>
			<path class="st12" d="M353.4,1542c0.1,5.2,2.6,9.7,6.3,12.4C356.1,1551.7,353.6,1547.2,353.4,1542z"/>
			<path class="st12" d="M561.5,1554.8c4.1-2.7,6.9-7.5,6.9-13.2v-187.8l0,0v187.5C568.5,1546.9,565.7,1552,561.5,1554.8z"/>
			<path class="st12" d="M353.3,1541.5c0,0.2,0,0.3,0,0.5c0.2,5.2,2.7,9.6,6.3,12.3c2.2,1.6,4.9,2.4,7.8,2.4h187
				c2.6,0,5-0.7,7.2-2.1c4.1-2.8,6.9-7.8,6.9-13.5v-188H353.3V1541.5z M553.7,1388.1c0,2.6-1.9,4.8-4.2,4.8h-24.1
				c-2.3,0-4.2-2.1-4.2-4.8v-16.5c0-2.6,1.9-4.8,4.2-4.8h24.1c2.3,0,4.2,2.1,4.2,4.8V1388.1z M553.7,1437.7c0,2.6-1.9,4.8-4.2,4.8
				h-24.1c-2.3,0-4.2-2.1-4.2-4.8v-16.5c0-2.6,1.9-4.8,4.2-4.8h24.1c2.3,0,4.2,2.1,4.2,4.8V1437.7z M553.7,1536.5
				c0,2.6-1.9,4.8-4.2,4.8h-24.1c-2.3,0-4.2-2.1-4.2-4.8v-65.7c0-2.6,1.9-4.8,4.2-4.8h24.1c2.3,0,4.2,2.1,4.2,4.8V1536.5z
				 M503.3,1487.3c0,2.6-1.9,4.8-4.3,4.8H475c-2.3,0-4.2-2.1-4.2-4.8v-16.5c0-2.6,1.9-4.8,4.2-4.8h24.1c2.3,0,4.3,2.1,4.3,4.8
				V1487.3z M502.4,1388.1c0,2.6-1.9,4.8-4.2,4.8h-24.1c-2.3,0-4.2-2.1-4.2-4.8v-16.5c0-2.6,1.9-4.8,4.2-4.8h24.1
				c2.3,0,4.2,2.1,4.2,4.8V1388.1z M502.4,1437.7c0,2.6-1.9,4.8-4.2,4.8h-24.1c-2.3,0-4.2-2.1-4.2-4.8v-16.5c0-2.6,1.9-4.8,4.2-4.8
				h24.1c2.3,0,4.2,2.1,4.2,4.8V1437.7z M502.4,1537c0,2.6-1.9,4.8-4.2,4.8h-24.1c-2.3,0-4.2-2.1-4.2-4.8v-16.5
				c0-2.6,1.9-4.8,4.2-4.8h24.1c2.3,0,4.2,2.1,4.2,4.8V1537z M452.4,1487.3c0,2.6-1.9,4.8-4.2,4.8h-24.1c-2.3,0-4.2-2.1-4.2-4.8
				v-16.5c0-2.6,1.9-4.8,4.2-4.8h24.1c2.3,0,4.2,2.1,4.2,4.8V1487.3z M452.4,1388.1c0,2.6-1.9,4.8-4.2,4.8h-24.1
				c-2.3,0-4.2-2.1-4.2-4.8v-16.5c0-2.6,1.9-4.8,4.2-4.8h24.1c2.3,0,4.2,2.1,4.2,4.8V1388.1z M452,1437.7c0,2.6-1.9,4.8-4.2,4.8
				h-24.1c-2.3,0-4.2-2.1-4.2-4.8v-16.5c0-2.6,1.9-4.8,4.2-4.8h24.1c2.3,0,4.2,2.1,4.2,4.8V1437.7z M452,1537c0,2.6-1.9,4.8-4.2,4.8
				h-24.1c-2.3,0-4.2-2.1-4.2-4.8v-16.5c0-2.6,1.9-4.8,4.2-4.8h24.1c2.3,0,4.2,2.1,4.2,4.8V1537z M401.5,1487.3
				c0,2.6-1.9,4.8-4.2,4.8h-24.1c-2.3,0-4.2-2.1-4.2-4.8v-16.5c0-2.6,1.9-4.8,4.2-4.8h24.1c2.3,0,4.2,2.1,4.2,4.8V1487.3z
				 M401.5,1388.1c0,2.6-1.9,4.8-4.2,4.8h-24.1c-2.3,0-4.2-2.1-4.2-4.8v-16.5c0-2.6,1.9-4.8,4.2-4.8h24.1c2.3,0,4.2,2.1,4.2,4.8
				V1388.1z M400.6,1437.7c0,2.6-1.9,4.8-4.2,4.8h-24.1c-2.3,0-4.2-2.1-4.2-4.8v-16.5c0-2.6,1.9-4.8,4.2-4.8h24.1
				c2.3,0,4.2,2.1,4.2,4.8V1437.7z M400.6,1537c0,2.6-1.9,4.8-4.2,4.8h-24.1c-2.3,0-4.2-2.1-4.2-4.8v-16.5c0-2.6,1.9-4.8,4.2-4.8
				h24.1c2.3,0,4.2,2.1,4.2,4.8V1537z"/>
			<path class="st12" d="M568.5,1272.7v69.8l0,0v-70.1c0-4.7-1.9-8.9-4.9-11.7C566.5,1263.6,568.5,1267.9,568.5,1272.7z"/>
			<path class="st12" d="M353.4,1271.8c0.2-3.9,1.7-7.5,4-10.1C355,1264.3,353.5,1267.8,353.4,1271.8z"/>
			<path class="st12" d="M353.3,1342.7h215.2v-70c0-4.8-1.9-9.1-4.9-12c-2.5-2.3-5.7-3.7-9.2-3.7h-187c-3.9,0-7.5,1.8-10.1,4.7
				c-2.3,2.7-3.8,6.2-4,10.1c0,0.2,0,0.4,0,0.6V1342.7z M368.9,1272.5h185.7v59.2H368.9V1272.5z"/>
			<polygon class="st12" points="536.3,1388.8 539.5,1388.8 539.5,1381.8 545.7,1381.8 545.7,1377.8 539.5,1377.8 539.5,1370.8 
				536.3,1370.8 536.3,1377.8 530.1,1377.8 530.1,1381.8 536.3,1381.8 			"/>
			<rect x="530.1" y="1427.4" class="st12" width="15.6" height="4.5"/>
			<rect x="530.1" y="1499.1" class="st12" width="15.6" height="3.5"/>
			<rect x="530.1" y="1504.6" class="st12" width="15.6" height="3.5"/>
		</g>
	</g>
	<g class="st8">
		<path class="st12" d="M1741.8,590.6c0-9.8-7.1-17.8-15.8-17.8h-92c-8.7,0-15.8,8-15.8,17.8v169c0,9.8,7.1,17.8,15.8,17.8h92
			c8.7,0,15.8-8,15.8-17.8V590.6z M1735.5,729.4c0,10.1-3.4,19.3-9.1,26.3c1.4,0.2,2.5,1.5,2.5,3.2c0,1.8-1.3,3.2-2.8,3.2
			c-1.5,0-2.7-1.2-2.8-2.8c-6.1,5.9-14.1,9.6-22.8,9.6h-42.4c-8.1,0-15.5-3.2-21.5-8.4c-0.5,1-1.4,1.6-2.5,1.6
			c-1.6,0-2.8-1.4-2.8-3.2c0-1.1,0.5-2.1,1.2-2.7c-5.8-7-9.5-16.5-9.5-26.8V621.1c0-21.6,15.8-39.2,35.1-39.2h42.4
			c19.2,0,35,17.6,35,39.2V729.4z"/>
		<path class="st12" d="M1680.3,658.7c-25.5,0-46.2,23.2-46.2,51.9c0,28.7,20.7,51.9,46.2,51.9c25.5,0,46.2-23.2,46.2-51.9
			C1726.6,682,1705.9,658.7,1680.3,658.7z M1680.3,758.9c-23.7,0-42.9-21.6-42.9-48.2c0-26.6,19.2-48.2,42.9-48.2
			c23.7,0,42.9,21.6,42.9,48.2C1723.3,737.3,1704,758.9,1680.3,758.9z"/>
		<path class="st12" d="M1680.4,649.2c14.1,0,25.5-12.8,25.5-28.6c0-15.8-11.4-28.6-25.5-28.6c-14.1,0-25.5,12.8-25.5,28.6
			C1654.9,636.4,1666.3,649.2,1680.4,649.2z M1680.4,595.3c12.4,0,22.5,11.3,22.5,25.3s-10.1,25.3-22.5,25.3s-22.5-11.3-22.5-25.3
			S1668,595.3,1680.4,595.3z"/>
		<ellipse class="st12" cx="1680.4" cy="710.2" rx="14.3" ry="16.1"/>
		<ellipse class="st12" cx="1680.4" cy="620.6" rx="6.9" ry="7.7"/>
		<ellipse class="st12" cx="1637.4" cy="597.1" rx="2.8" ry="3.2"/>
		<ellipse class="st12" cx="1723.3" cy="597.1" rx="2.8" ry="3.2"/>
		<path class="st12" d="M1723.3,759.2c0.1,1.6,1.4,2.9,2.8,2.9c1.6,0,2.8-1.4,2.8-3.2c0-1.6-1.1-3-2.5-3.2
			C1725.5,756.9,1724.4,758.1,1723.3,759.2z"/>
		<path class="st12" d="M1723.3,758.9c0,0.1,0,0.2,0,0.3c1.1-1.1,2.2-2.3,3.2-3.5c-0.1,0-0.2,0-0.4,0
			C1724.5,755.7,1723.3,757.1,1723.3,758.9z"/>
		<path class="st12" d="M1632.6,756.2c-0.8,0.6-1.3,1.6-1.3,2.7c0,1.8,1.3,3.2,2.8,3.2c1.1,0,2-0.7,2.5-1.7
			C1635.2,759.1,1633.8,757.7,1632.6,756.2z"/>
		<path class="st12" d="M1634.1,755.7c-0.6,0-1.1,0.2-1.6,0.5c1.3,1.5,2.6,2.9,4.1,4.2c0.2-0.5,0.3-1,0.3-1.5
			C1637,757.1,1635.7,755.7,1634.1,755.7z"/>
	</g>
	<g class="st8">
		<path class="st12" d="M1345.7,1282.2c0-9.8-7.1-17.8-15.8-17.8h-92c-8.7,0-15.8,8-15.8,17.8v169c0,9.8,7.1,17.8,15.8,17.8h92
			c8.7,0,15.8-8,15.8-17.8V1282.2z M1339.4,1421c0,10.1-3.4,19.3-9.1,26.3c1.4,0.2,2.5,1.5,2.5,3.2c0,1.8-1.3,3.2-2.8,3.2
			c-1.5,0-2.7-1.2-2.8-2.8c-6.1,5.9-14.1,9.6-22.8,9.6H1262c-8.1,0-15.5-3.2-21.5-8.4c-0.5,1-1.4,1.6-2.5,1.6
			c-1.6,0-2.8-1.5-2.8-3.2c0-1.1,0.5-2.1,1.2-2.7c-5.8-7-9.5-16.5-9.5-26.8v-108.3c0-21.6,15.8-39.2,35.1-39.2h42.4
			c19.2,0,35,17.6,35,39.2V1421z"/>
		<path class="st12" d="M1284.3,1350.4c-25.5,0-46.2,23.2-46.2,51.9c0,28.7,20.7,51.9,46.2,51.9c25.5,0,46.2-23.2,46.2-51.9
			C1330.5,1373.6,1309.8,1350.4,1284.3,1350.4z M1284.3,1450.5c-23.7,0-42.9-21.6-42.9-48.2c0-26.6,19.2-48.2,42.9-48.2
			c23.7,0,42.9,21.6,42.9,48.2C1327.2,1428.9,1308,1450.5,1284.3,1450.5z"/>
		<path class="st12" d="M1284.3,1340.8c14.1,0,25.5-12.8,25.5-28.6c0-15.8-11.4-28.6-25.5-28.6s-25.5,12.8-25.5,28.6
			C1258.8,1328,1270.3,1340.8,1284.3,1340.8z M1284.3,1286.9c12.4,0,22.5,11.3,22.5,25.3c0,14-10.1,25.3-22.5,25.3
			s-22.5-11.3-22.5-25.3C1261.8,1298.2,1271.9,1286.9,1284.3,1286.9z"/>
		<ellipse class="st12" cx="1284.4" cy="1401.8" rx="14.3" ry="16.1"/>
		<ellipse class="st12" cx="1284.3" cy="1312.2" rx="6.9" ry="7.7"/>
		<ellipse class="st12" cx="1241.3" cy="1288.7" rx="2.8" ry="3.2"/>
		<ellipse class="st12" cx="1327.2" cy="1288.7" rx="2.8" ry="3.2"/>
		<path class="st12" d="M1327.2,1450.8c0.1,1.6,1.4,2.9,2.8,2.9c1.6,0,2.8-1.4,2.8-3.2c0-1.6-1.1-3-2.5-3.2
			C1329.4,1448.5,1328.3,1449.7,1327.2,1450.8z"/>
		<path class="st12" d="M1327.2,1450.5c0,0.1,0,0.2,0,0.3c1.1-1.1,2.2-2.3,3.2-3.5c-0.1,0-0.2,0-0.3,0
			C1328.4,1447.3,1327.2,1448.7,1327.2,1450.5z"/>
		<path class="st12" d="M1236.5,1447.8c-0.8,0.6-1.3,1.5-1.3,2.7c0,1.8,1.3,3.2,2.8,3.2c1.1,0,2-0.7,2.5-1.7
			C1239.1,1450.7,1237.7,1449.3,1236.5,1447.8z"/>
		<path class="st12" d="M1238,1447.3c-0.6,0-1.1,0.2-1.6,0.5c1.3,1.5,2.6,2.9,4.1,4.2c0.2-0.5,0.3-1,0.3-1.5
			C1240.9,1448.7,1239.6,1447.3,1238,1447.3z"/>
	</g>
	<g class="st8">
		<path class="st12" d="M1571.5,1411.5h-23.3v9c0,1.9-1,3.5-2.7,3.5h-0.2c-1.6,0-3.2-1.6-3.2-3.5v-9h-116.4v9c0,1.9-1.2,3.5-2.8,3.5
			h-0.2c-1.6,0-2.8-1.6-2.8-3.5v-9h-23.6v115c0,9,6.8,16.7,14.8,16.7h146.1c8,0,14.3-7.6,14.3-16.7V1411.5z M1437.9,1514.6h-23.6
			v-17h23.6V1514.6z M1437.9,1484.8h-23.6v-17.3h23.6V1484.8z M1437.9,1454.4h-23.6v-17.3h23.6V1454.4z M1475.2,1514.6h-23.9v-17
			h23.9V1514.6z M1475.2,1484.8h-23.9v-17.3h23.9V1484.8z M1475.2,1454.4h-23.9v-17.3h23.9V1454.4z M1512.1,1514.6h-23.3v-17h23.3
			V1514.6z M1512.1,1484.8h-23.3v-17.3h23.3V1484.8z M1512.1,1454.4h-23.3v-17.3h23.3V1454.4z M1548.7,1514.6h-23.3v-17h23.3V1514.6
			z M1548.7,1484.8h-23.3v-17.3h23.3V1484.8z M1549.5,1454.4h-23.6v-17.3h23.6V1454.4z"/>
		<g>
			<path class="st12" d="M1548.5,1389c-0.1,0-0.1,0-0.2,0h0.4C1548.7,1389,1548.6,1389,1548.5,1389z"/>
			<path class="st12" d="M1548.2,1388.3v0.7c0.3,0,0.1,0,0.2,0C1549.8,1388.8,1548.2,1386.5,1548.2,1388.3z"/>
			<path class="st12" d="M1426.2,1389.2c1.6,0-0.6-2.8-0.6-0.9v0.7c0,0,0.3,0.3,0.4,0.3H1426.2z"/>
			<path class="st12" d="M1551.5,1364.2h-127.9c-13,0-27.4,7.9-27.4,22.6v23.6h23.6v-22.1c0-1.7,3.7,0.3,5.8,0.7v-0.7
				c0-1.9,2.2,0.9,0.6,0.9h-0.2c-0.1,0-0.4-0.2-0.4-0.3v21.4h116.4v-22.1c0-1.7,4.2,0.4,6.1,0.7v-0.7c0-1.8,1.7,0.6,0.3,0.8
				c0.1,0,0.2,0.1,0.3,0.1h-0.6v21.1h23.3v-23.6C1571.5,1372.1,1564.6,1364.2,1551.5,1364.2z M1568.1,1406.5h-16.2v-15.6
				c0.3-0.8,0.8-1.7,0.8-2.6c0-2.5-1.8-4.5-3.9-4.5c-0.7,0-1.4,0.3-2,0.7c-2.4-0.7-4.8-1.3-6.6,0.3c-1,0.8-1.7,2.1-1.7,3.5v18.2
				h-109.3v-15.1c0.8-0.8,1.2-1.9,1.2-3c0-2.5-1.9-4.7-4.2-4.7c-0.7,0-1.4,0.2-2,0.7c-2.2-0.7-4.4-1.2-6.2,0.3
				c-1,0.8-1.5,2.1-1.5,3.6v18.2h-16.2v-19.7c0-6.9,3.7-11.3,7-13.7c4.4-3.3,10.3-5.3,16.4-5.3h127.9c11.1,0,16.5,6.5,16.5,19
				V1406.5z"/>
			<path class="st12" d="M1548.3,1388.9L1548.3,1388.9c0.1,0,0.1,0,0.2,0C1548.5,1389,1548.4,1389,1548.3,1388.9z"/>
		</g>
	</g>
	<g class="st8">
		<path class="st12" d="M627.7,329.9c-5.4,6.6-15.5,6.1-22.5-1.2l0,0c-7-7.3-8.3-18.5-2.9-25.1l35.9-43.7
			c2.6-5.3,28.1,23.5,25.4,26.3L627.7,329.9z"/>
		<path class="st12" d="M634.7,336l0.1-0.1c1.2-1.5,1.3-3.7,0.1-4.9l-35.2-36.4c-1.2-1.2-3.1-1-4.4,0.5l-7.5,9.1c0,0,0,0,0,0
			l-53.5,65.2c-13.6,16.6-15.8,39.1-4.9,50.4c10.9,11.3,30.8,7,44.4-9.5L634.7,336L634.7,336z"/>
		<path class="st12" d="M767.2,129.5c-38.4-39.8-98.2-37.1-133.6,6c-35.4,43.1-33,110.3,5.4,150.1c38.4,39.8,98.2,37.1,133.6-6
			C808,236.5,805.6,169.3,767.2,129.5z M754.3,260.6c-26.1,31.8-70.2,33.8-98.5,4.5c-28.3-29.3-30.1-78.8-4-110.6
			c26.1-31.8,70.2-33.8,98.5-4.5C778.6,179.3,780.4,228.9,754.3,260.6z"/>
	</g>
	<path class="st3" d="M409.1,157.2c-67.2,0-121.6,47.9-121.6,106.9c0,32.6,16.6,61.7,42.7,81.3c-0.1,0.3-0.1,0.6-0.2,0.9l-4.5,36.7
		c-0.3,2.6,1.2,3.9,3.4,2.9l44.4-19.7c11.3,3.1,23.4,4.7,35.8,4.7c67.2,0,121.6-47.8,121.6-106.9C530.7,205,476.2,157.2,409.1,157.2
		z"/>
	<g class="st8">
		<path class="st12" d="M1718.4,1088.6v82.2h72.5c-0.3,44.1-32.5,80.1-72.1,80.1c-39.8,0-72.3-36.4-72.3-81.1
			S1679.1,1088.6,1718.4,1088.6z"/>
		<path class="st12" d="M1727.8,1078c39.3,0,70.8,36.1,70.8,80.7c0,0.2,0.2,0.5,0.2,0.5h-71V1078z"/>
	</g>
	<path class="st3" d="M789,1555.3c-7.3-31.1-26.8-49-28.5-50.6c0,0-24.2-23.2-57.7-23.5v-0.6c0,0-0.4,0-0.4,0c-0.1,0,0,0.6,0,0.6
		v-0.6c0,0-0.4,0-0.4,0c0.1,0,0.2,0.3,0.2,0.3c-33.9,0.1-58.2,23.7-58.2,23.7c-2.3,1.9-21.4,19.6-28.6,50.7
		c-7.3,31.1,6.3,57.1,6.3,57.1c11.4,26.2,34,43.6,44.9,56.5c3.8,4.4,10,13,12.7,18.2c9.5,18.3,20.9,43.9,23.1,49.6v1.1
		c0,0-0.1-0.2,0.1-0.6c0.2,0.4,0.3,0.6,0.3,0.6s0.1,0,0.1-0.1v-1.4c2.7-6.2,13.3-31.2,22.6-49.2c2.7-5.2,8.7-13.7,12.4-18.2
		c10.9-12.9,33.5-30.3,44.9-56.5C782.8,1612.4,796.3,1586.4,789,1555.3z M702.5,1617.9c0,0-0.1,0-0.2,0c-0.1,0-0.1,0-0.2,0
		c-24-0.2-44.3-22.1-44.5-47.9c-0.2-26.8,20-48.6,44.7-48.8c24.3,0.1,44.7,21.9,44.5,48.8C746.7,1595.8,726.4,1617.6,702.5,1617.9z"
		/>
	<g class="st8">
		<path class="st12" d="M670.9,1249.1c-46.4,0-84,42.2-84,94.3c0,52.1,37.6,94.3,84,94.3c46.4,0,84-42.2,84-94.3
			C754.9,1291.3,717.3,1249.1,670.9,1249.1z M633.5,1416.3v-145.8l112.5,72.9L633.5,1416.3z"/>
	</g>
	<path class="st3" d="M1081.3,1535.2h-15c-2-10-5.4-18.3-9.8-26.3l0-0.1l10.6-11.9c2.4-2.6,2.4-6.9,0-9.6l-18.5-20.7
		c-2.4-2.7-6.2-2.7-8.5,0l-10.7,11.9c-7.4-5-15.5-8.6-23.5-10.8v-0.1v-16.9c0-3.7-2.5-6.9-5.8-6.9H974c-3.3,0-6,3.1-6,6.9v16.9
		c-8.9,2.3-16.2,6-23.4,11l-0.1-0.1l-10.6-11.9c-2.4-2.7-6.2-2.7-8.5,0l-18.5,20.7c-2.4,2.6-2.4,6.9,0,9.6l10.6,11.9
		c-4.5,8.3-7.7,16.8-9.6,26.3h-0.1h-15c-3.3,0-6.2,3.1-6.2,6.8v29.3c0,3.7,2.8,6.5,6.2,6.5h15c2,9.5,5.4,18.4,9.8,26.4l0,0.1
		l-10.6,12c-2.4,2.7-2.4,7,0,9.6l18.5,20.7c2.4,2.6,6.2,2.7,8.5,0l10.6-11.9c7.4,5,14.9,8.6,23.4,10.8v0.1v16.9
		c0,3.7,2.8,7.1,6.2,7.1h26.1c3.3,0,5.7-3.4,5.7-7.1v-16.9c8.5-2.3,16.4-6,23.5-11l0.1,0.1l10.7,11.9c2.4,2.6,6.2,2.7,8.6,0
		l18.5-20.7c2.4-2.6,2.4-6.9,0-9.6l-10.6-12c4.5-8.3,7.7-17.4,9.6-26.4h0.1h15c3.3,0,5.8-2.9,5.8-6.6v-29.3
		C1087.2,1538.1,1084.6,1535.2,1081.3,1535.2z M972,1595.4c-0.4-0.2-0.7-0.4-1.1-0.6c-1.1-0.6-2.2-1.2-3.2-1.9
		c-0.5-0.4-1-0.7-1.5-1.1c-0.5-0.4-1-0.8-1.5-1.2c-0.2-0.2-0.5-0.4-0.7-0.6c-1.4-1.2-2.7-2.5-3.9-3.9c-1.2-1.4-2.3-2.9-3.3-4.5
		c-0.4-0.6-0.8-1.3-1.2-1.9c-1.1-2-2.1-4.1-3-6.2c-1.9-5.1-3-10.7-3-16.6c0-12.4,4.7-23.5,12.3-31.2c0.7-0.7,1.4-1.3,2.1-2
		c0.2-0.2,0.5-0.4,0.7-0.6c0.5-0.4,1-0.8,1.5-1.2c1.5-1.1,3.1-2.2,4.7-3c0.5-0.3,1.1-0.6,1.7-0.8c4.5-2.1,9.4-3.3,14.6-3.3
		c6.2,0,12,1.7,17.1,4.6c0.5,0.3,1.1,0.6,1.6,1c0.8,0.5,1.6,1,2.3,1.6c0.5,0.4,1,0.8,1.5,1.2c0.2,0.2,0.5,0.4,0.7,0.6
		c0.5,0.4,0.9,0.8,1.4,1.3c0.7,0.7,1.3,1.4,2,2.1c0.4,0.5,0.8,1,1.2,1.5c1,1.2,2,2.6,2.8,3.9c0.3,0.6,0.7,1.1,1,1.7
		c0.3,0.6,0.6,1.2,0.9,1.7c0.5,0.9,0.9,1.8,1.3,2.7c2.4,5.5,3.7,11.7,3.7,18.3c0,3.6-0.4,7.2-1.2,10.5c-0.2,0.7-0.3,1.3-0.5,2
		c-0.3,1-0.6,2-0.9,2.9c-0.2,0.6-0.5,1.3-0.7,1.9c-0.2,0.4-0.3,0.8-0.5,1.2c-0.4,0.8-0.7,1.6-1.1,2.4c-0.3,0.6-0.6,1.2-0.9,1.7
		c-0.3,0.5-0.5,0.9-0.8,1.3c-0.2,0.4-0.5,0.8-0.7,1.2c-0.2,0.3-0.4,0.5-0.5,0.8c-0.4,0.5-0.8,1.1-1.1,1.6c-0.2,0.3-0.4,0.5-0.6,0.8
		c-0.4,0.5-0.8,1-1.2,1.5c-0.2,0.2-0.4,0.5-0.6,0.7c-0.9,0.9-1.8,1.8-2.7,2.7c-0.2,0.2-0.5,0.4-0.7,0.6c-0.5,0.4-1,0.8-1.5,1.2
		c-0.5,0.4-1,0.7-1.5,1.1c-0.3,0.2-0.5,0.4-0.8,0.5c-0.5,0.3-1.1,0.7-1.6,1c-5.1,3-10.9,4.6-17.1,4.6c-5,0-9.7-1.1-14-3
		C972.7,1595.8,972.3,1595.6,972,1595.4z"/>
	<g class="st8">
		<path class="st12" d="M125.7,839.8c-52.4,0-94.9,47.7-94.9,106.5s42.5,106.5,94.9,106.5c52.4,0,94.9-47.7,94.9-106.5
			S178.1,839.8,125.7,839.8z M191.2,940.2c-0.9,1.3-2.2,2.2-3.5,2.5c-0.1,0.1-0.2,0.1-0.4,0.1l-51.8,7.4c-0.8,2.6-2.4,4.8-4.5,6.2
			l32.6,63.5l-4.4,2.8L126,958c-0.1,0-0.2,0-0.3,0c-5.7,0-10.4-5.2-10.4-11.7c0-0.2,0-0.4,0-0.6l-37.2-43.3
			c-1.1-1.2-1.8-2.9-1.8-4.7c0-3.5,2.6-6.4,5.7-6.4c1.8,0,3.4,0.9,4.4,2.4l35.9,41.7c1.1-0.4,2.2-0.7,3.4-0.7c2.7,0,5.1,1.1,6.9,3
			l53.2-7.6c0,0,0,0,0,0l0,0c1.4-0.2,2.9,0.2,4.2,1.2C192.6,933.4,193.1,937.4,191.2,940.2z"/>
	</g>
	<g class="st8">
		<path class="st12" d="M1695.9,1454.2c-31.9,0-57.7,29-57.7,64.8c0,35.8,25.8,64.8,57.7,64.8c31.9,0,57.7-29,57.7-64.8
			C1753.6,1483.2,1727.8,1454.2,1695.9,1454.2z M1735.8,1515.3c-0.5,0.8-1.3,1.3-2.1,1.5c-0.1,0-0.1,0.1-0.2,0.1l-31.5,4.5
			c-0.5,1.6-1.5,2.9-2.7,3.8l19.9,38.6l-2.7,1.7l-20.2-39.4c-0.1,0-0.1,0-0.2,0c-3.5,0-6.3-3.2-6.3-7.1c0-0.1,0-0.3,0-0.4
			l-22.7-26.3c-0.7-0.7-1.1-1.7-1.1-2.9c0-2.2,1.6-3.9,3.5-3.9c1.1,0,2.1,0.6,2.7,1.4l21.8,25.4c0.7-0.3,1.4-0.4,2.1-0.4
			c1.6,0,3.1,0.7,4.2,1.8l32.4-4.6c0,0,0,0,0,0h0c0.9-0.1,1.8,0.1,2.5,0.7C1736.6,1511.1,1736.9,1513.6,1735.8,1515.3z"/>
	</g>
	<g class="st8">
		<path class="st12" d="M242.6,743.8c-5.9,2.7-11.2,6.5-16,11.3c-5.2,5.2-9.5,12-13,19.4c-0.5,1.1-1,1.7-1.5,3.7h-49l5.2-34.5
			c2.6-20,12.2-35.4,26.9-41.2c3.3,3.5,7.1,6.1,11.3,8c4.4,2,9.1,3,13.9,3c4.8,0,9.4-1,13.8-3c-0.2,1.7-0.2,3.3-0.2,5
			c0,3.8,0.4,7.5,1.2,11.2c0.8,3.6,1.9,7,3.4,10.3C239.9,739.3,241.1,741.6,242.6,743.8z"/>
		<path class="st12" d="M250,675.2c0,1.1-0.1,2.3-0.2,3.4c-0.8,0.7-1.6,1.5-2.3,2.3c-4.2,4.5-7.5,9.7-9.8,15.6
			c-0.7,1.9-1.4,3.8-1.9,5.7c-4.5,2.9-9.7,4.6-15.3,4.6c-7,0-13.4-2.6-18.5-6.9c-6.7-5.8-11-14.6-11-24.6
			c0-17.4,13.2-31.5,29.5-31.5C236.8,643.6,250,657.8,250,675.2z"/>
		<path class="st12" d="M396.6,778.2h-48.9c-0.5-2-1-2.8-1.6-4c-6.6-14.1-16.6-24.7-28.9-30.3c1.4-2.1,2.7-4.5,3.7-6.8
			c1.5-3.3,2.7-6.8,3.4-10.4c0.8-3.7,1.2-7.4,1.2-11.2c0-1.7-0.1-3.4-0.2-5c4.4,2,9,3,13.8,3c4.8,0,9.5-1,13.9-3
			c4.2-1.9,8-4.7,11.3-8.1c14.7,5.8,24.3,21.5,26.9,41.4L396.6,778.2z"/>
		<path class="st12" d="M368.8,675.2c0,9.9-4.3,18.8-11,24.6c-5.1,4.3-11.5,6.9-18.5,6.9c-5.6,0-10.8-1.7-15.3-4.6
			c-0.5-1.9-1.1-3.8-1.9-5.7c-2.3-5.8-5.6-11.1-9.8-15.6c-0.8-0.8-1.5-1.6-2.3-2.3c-0.1-1.1-0.2-2.2-0.2-3.4
			c0-17.4,13.2-31.5,29.5-31.5C355.6,643.6,368.8,657.8,368.8,675.2z"/>
		<path class="st12" d="M353.2,847.9H206.6l6.6-43.8c1.2-9.3,3.6-17.9,7.1-25.3c0-0.1,0.1-0.1,0.1-0.2c6.1-12.8,15.3-22.4,27.2-27.1
			c0,0,0-0.1,0-0.1c0.8,0.9,1.7,1.7,2.5,2.5c0.1,0.1,0.2,0.2,0.3,0.3c0.1,0.1,0.2,0.2,0.4,0.3c0.1,0.1,0.3,0.2,0.4,0.3
			c0.1,0.1,0.3,0.2,0.4,0.4c0.1,0.1,0.3,0.2,0.4,0.3c3,2.5,6.3,4.5,9.9,6.2c0,0,0.1,0,0.1,0.1c1.7,0.8,3.4,1.4,5.1,1.9
			c0.1,0,0.3,0.1,0.4,0.1c0.1,0,0.3,0.1,0.4,0.1c0.1,0,0.1,0,0.2,0.1c0.1,0,0.1,0,0.2,0.1c0.2,0,0.3,0.1,0.5,0.1
			c0,0,0.1,0.1,0.1,0.1c2.3,0.6,4.5,1.3,6.9,1.3c0,0,0,0,0,0c1.3,0,2.7,0.1,4,0.1c1.4,0,2.7-0.1,4-0.2c0,0,0,0,0,0
			c1.9-0.2,3.8-0.5,5.7-0.9c0,0,0,0,0,0c0.4-0.1,0.9-0.2,1.3-0.3c0.4-0.1,0.9-0.2,1.3-0.4c0.2-0.1,0.5-0.2,0.7-0.2
			c0.1,0,0.1,0,0.2-0.1c0.7-0.2,1.4-0.5,2-0.7c0.4-0.2,0.8-0.3,1.3-0.5c0.4-0.2,0.8-0.4,1.2-0.5c5.4-2.4,10.3-5.9,14.5-10.4l0,0
			c0,0,0,0,0,0c11.9,4.7,21.2,14.3,27.3,27.3c3.5,7.4,5.9,16.1,7.1,25.4L353.2,847.9z"/>
		<path class="st12" d="M317.6,715.4c0,12.7-5.5,24-14.1,31.4c-5.1,4.4-11.4,7.4-18.2,8.5c-1.8,0.3-3.6,0.4-5.4,0.4
			c-1.8,0-3.6-0.1-5.4-0.4c-6.8-1-13.1-4.1-18.2-8.5c-8.6-7.4-14.1-18.7-14.1-31.4c0-3.8,0.5-7.6,1.4-11.1
			c4.5-16.9,19-29.2,36.3-29.2s31.8,12.4,36.3,29.2C317.1,707.9,317.6,711.6,317.6,715.4z"/>
	</g>
	<g class="st8">
		<path class="st0" d="M156.3,292l3.4,0.9c0.7,0.2,1.3,0.4,1.9,0.8l5.7,3.9c0.3,0.2,0.6,0.5,0.9,0.8l7.9,8.1
			c0.2,0.2,0.3,0.4,0.5,0.6l10.4,13.5l9.5,13.4c0.1,0.2,0.3,0.4,0.4,0.6l5.3,9.6c0.3,0.6,0.6,1.3,0.7,2l1.2,5.3
			c0.2,1.1,0.2,2.2,0,3.2l0,0c-0.3,1.5-1.1,2.8-2.1,3.7l-6,5.2c-0.1,0.1-0.2,0.2-0.3,0.3l-8.3,6.3c-1.3,1-2.3,2.6-2.6,4.4l-1,6.4
			c-0.2,0.9-0.1,1.9,0.1,2.8l2.9,13.4c0.1,0.7,0.4,1.3,0.7,1.9l10,18.5c0.1,0.1,0.2,0.3,0.3,0.4l15.4,24.2c0.1,0.2,0.3,0.4,0.4,0.6
			l17,20.9c0.2,0.2,0.4,0.5,0.6,0.7l13.8,12.8c0.5,0.5,1.1,0.8,1.7,1.1l8.4,3.6c1.2,0.5,2.6,0.6,3.8,0.2l5.4-1.8
			c1-0.3,1.9-0.9,2.6-1.7l7.3-8.3c0.2-0.3,0.5-0.5,0.8-0.7l0.8-0.6c1.5-1.2,3.4-1.6,5.2-1l2.5,0.8c0.5,0.2,0.9,0.4,1.4,0.7l7.6,5
			c0.4,0.3,0.8,0.6,1.1,0.9l10.6,11.2c0.1,0.1,0.2,0.2,0.3,0.3l10.2,12.4c0.2,0.2,0.3,0.4,0.4,0.6l6.5,10c0.2,0.3,0.4,0.6,0.5,0.9
			l2.5,5.4c0.6,1.3,0.8,2.7,0.6,4.1l-0.3,1.9c-0.2,1.7-1.1,3.3-2.3,4.3l-10.5,8.8c-0.4,0.3-0.8,0.6-1.2,0.8l-16.1,8.3
			c-0.6,0.3-4.6,2-8.1,2.7l-5.1,0.5c-1.4,0.2-2.8,0.2-4.2,0c-1.2-0.2-2.6-0.3-6-1.5c-0.1-0.1-0.3-0.1-0.4-0.2l-10.6-4.8
			c-0.5-0.2-3.1-1.7-3.5-2.1l-21.1-15.9c-0.2-0.2-0.5-0.4-0.7-0.6l-25-25.8c-0.1-0.1-0.3-0.3-0.4-0.5l-24-30.1
			c-0.1-0.2-0.3-0.3-0.4-0.5l-18.9-29.1c-0.1-0.1-0.2-0.3-0.3-0.5l-14.5-26.7c-0.2-0.3-0.3-0.6-0.4-1l-9.4-25.7
			c-0.1-0.3-0.2-0.6-0.3-0.9l-5-22.7c0-0.2-0.1-0.4-0.1-0.6l-2.5-18.6c-0.1-0.5-0.1-0.9-0.1-1.4l0.8-14.1c0-0.6,0.2-1.3,0.3-1.9
			l2.8-8.8c0.2-0.7,0.5-1.3,0.9-1.9l8.5-12.2c0.4-0.5,0.8-1,1.3-1.4L156.3,292L156.3,292z"/>
		<path class="st0" d="M170.4,276.4h3.7c0.4,0,0.8,0.1,1.1,0.3l5.2,2.4c0.4,0.2,0.7,0.4,1,0.8l5.6,6.4l7.9,8.9l7.7,8.6
			c0.1,0.1,0.2,0.3,0.3,0.5l5.9,9.6l6.3,10.8l4.9,9.3c0.2,0.3,0.3,0.6,0.3,1l1.3,6.7c0.2,1,0,2-0.6,2.8l-2.9,4.1
			c-0.3,0.4-0.7,0.8-1.1,1l-3.6,1.7c-1.1,0.5-2.3,0.3-3.1-0.6l0,0c-0.4-0.4-0.6-0.8-0.8-1.3l-1.4-4c-0.1-0.2-0.1-0.3-0.2-0.4
			l-3.3-6.6l-4.2-7.7c0-0.1-0.1-0.2-0.2-0.3l-5.2-7.8l-5.2-7.8c0,0-0.1-0.1-0.1-0.1l-5-6.7c-0.1-0.1-0.1-0.2-0.2-0.2l-5.1-5.6
			c-0.1-0.1-0.1-0.1-0.2-0.2l-5.1-4.8c-0.1-0.1-0.1-0.1-0.2-0.2l-3.9-4.4c-0.2-0.3-0.5-0.5-0.8-0.7l-4.4-2.4
			c-0.3-0.2-0.6-0.4-0.8-0.6l-0.9-1c-0.8-0.9-1.1-2.2-0.7-3.4l0.1-0.2c0.1-0.5,0.4-0.9,0.7-1.3l2.8-3.2c0.2-0.2,0.4-0.4,0.6-0.5
			L170.4,276.4L170.4,276.4z"/>
		<path class="st0" d="M342.9,504.4l-0.8-5.5c0-0.2-0.1-0.4-0.1-0.5l-1.6-5.3c-0.1-0.3-0.2-0.6-0.4-0.8l-4-6.4
			c-0.1-0.1-0.1-0.2-0.2-0.3l-5.2-6.7l-6.9-8.8c-0.1-0.1-0.2-0.2-0.3-0.3l-7.6-7.5c-0.1-0.1-0.1-0.1-0.2-0.2l-9.3-7.7
			c-0.2-0.1-0.4-0.3-0.6-0.4l-8.9-4.5c-0.3-0.1-0.6-0.2-0.9-0.3l-6.3-0.8c-0.8-0.1-1.6,0.2-2.2,0.8l-3.7,3.5
			c-0.3,0.3-0.6,0.7-0.8,1.1l-1.4,3.3c-0.5,1.3-0.3,2.8,0.6,3.8l0.8,0.9c0.2,0.2,0.4,0.4,0.6,0.5l4,2.7l6.1,3.8
			c0.1,0.1,0.2,0.1,0.3,0.2l5.7,4.5c0.1,0.1,0.3,0.2,0.4,0.4l5.1,5.9l5.3,5.8l5.1,5.7c0.1,0.1,0.1,0.1,0.2,0.2l5.1,6.8
			c0.1,0.1,0.1,0.2,0.2,0.3l3.4,5.6l3.3,5.6c0.2,0.3,0.3,0.5,0.4,0.8l1.5,5c0.1,0.3,0.2,0.6,0.4,0.8l0,0.1c0.8,1.4,2.5,1.9,3.8,1.2
			l2.4-1.3c0.4-0.2,0.7-0.5,1-0.9l3.7-4.9c0.2-0.3,0.4-0.7,0.6-1.1L342.9,504.4L342.9,504.4L342.9,504.4z"/>
	</g>
	<g class="st8">
		<path class="st12" d="M308.5,925.2c-1.7-5.4-19.1-2.2-20,3.9l20.1,69.2L308.5,925.2z"/>
		<path class="st12" d="M308.7,1071.5c1.7,5.4,19.1,2.2,20-3.9l-20.1-69.2L308.7,1071.5z"/>
		<path class="st12" d="M280.2,932.5c-3.6-4-18,7.3-16.5,13.3l44.9,52.6L280.2,932.5z"/>
		<path class="st12" d="M336.9,1064.2c3.6,4,18-7.3,16.5-13.3l-44.9-52.6L336.9,1064.2z"/>
		<path class="st12" d="M257.6,952.8c-4.8-1.9-13.4,15.4-9.8,20l60.8,25.5L257.6,952.8z"/>
		<path class="st12" d="M359.6,1043.9c4.8,1.9,13.4-15.4,9.8-20l-60.8-25.5L359.6,1043.9z"/>
		<path class="st12" d="M245.1,982.2c-5.1,0.7-6.2,20.4-1.1,22.8l64.6-6.6L245.1,982.2z"/>
		<path class="st12" d="M372.1,1014.5c5.1-0.7,6.2-20.4,1.1-22.8l-64.6,6.6L372.1,1014.5z"/>
		<path class="st12" d="M245.1,1014.7c-4.3,3.1,2.3,21.4,7.9,21.1l55.6-37.4L245.1,1014.7z"/>
		<path class="st12" d="M372.1,982c4.3-3.1-2.3-21.4-7.9-21.1l-55.6,37.4L372.1,982z"/>
		<path class="st12" d="M257.7,1044.1c-2.7,4.9,10.3,18.1,15.2,15.1l35.6-60.8L257.7,1044.1z"/>
		<path class="st12" d="M359.4,952.7c2.7-4.9-10.3-18.1-15.2-15.2l-35.6,60.8L359.4,952.7z"/>
		<path class="st12" d="M280.4,1064.3c-0.6,5.7,16.3,11.3,19.6,6.2l8.6-72.2L280.4,1064.3z"/>
		<path class="st12" d="M336.8,932.4c0.6-5.7-16.3-11.3-19.6-6.2l-8.6,72.2L336.8,932.4z"/>
		<polygon class="st12" points="299.9,1005.3 272.8,1052.4 257.5,1239 282.4,1209.5 302,1243.6 319.3,1032.6 		"/>
		<polygon class="st12" points="321.9,1239.3 339.7,1203.9 366.1,1231.6 336.6,1017.9 302.4,1020.3 306.3,1126.1 		"/>
		<ellipse class="st12" cx="308.6" cy="998.4" rx="57.6" ry="64.6"/>
	</g>
	<g class="st8">
		<path class="st12" d="M1792.5,910v88.3c0,12.5-8.8,23-19.9,23h-190.7c-11.2,0-20.2-10.5-20.2-23V910h102.4c-2,3-3.6,6.3-4.9,9.7
			c-1.6,4.2-2.6,8.6-3.1,13.1c-0.2,2.1-0.3,4.1-0.3,6.2c0,2.7,0.2,5.4,0.6,8.1c0.1,0.4,0.1,0.8,0.2,1.2c0,0.2,0,0.4,0,0.6
			c0.2,1.2,0.7,2.4,0.7,3.6v0c0.4,0.4,0.3,0.8,0.4,1.2c0.1,0.4,0.3,0.8,0.4,1.2c0.4,1.2,0.8,2.3,1.3,3.5c0.7,1.9,1.6,3.6,2.5,5.4
			l0,0c0,0.9,0.8,1.7,1.3,2.5c0.6,1,1.1,2,1.7,2.9c0.2,0.3,0.5,0.6,0.5,0.9c0,0,0,0,0,0c0,0.3,0.4,0.6,0.9,0.9v0
			c0.4,0.3,0.4,0.6,0.4,0.9v0c0.9,0.4,0.9,0.9,1.3,1.3c0.2,0.3,0.9,0.6,0.9,0.9v0c0,0.7,1.2,1.4,1.9,2.1c0.4,0.4,0.8,0.8,1.2,1.2
			c0.3,0.3,0.5,0.5,0.8,0.8c0.3,0.2,0.5,0.5,0.8,0.7c0.1,0.1,0.3,0.2,0.4,0.4c1.7,1.4,3.5,2.7,5.4,3.8c0.2,0.1,0.3,0.2,0.5,0.3
			c0.3,0.2,0.6,0.4,1,0.5c0.6,0.3,1.3,0.7,2,1c5.5,2.6,11.3,3.9,17.2,3.9c6,0,11.8-1.3,17.2-3.9c5.3-2.5,10-6.1,14.1-10.6
			c4.1-4.6,7.3-9.9,9.5-15.8c2.3-6.1,3.5-12.6,3.5-19.4c0-6.7-1.2-13.2-3.5-19.3c-1.3-3.5-3-6.7-4.9-9.7H1792.5z"/>
		<path class="st12" d="M1792.5,875v29.5h-60.2c-0.3-1-0.7-0.5-1-0.9c-4.1-4.6-8.8-8-14.1-10.5c-5.5-2.6-11.3-3.8-17.2-3.8
			c-6,0-11.8,1.4-17.2,3.9c-5.3,2.5-10,5.8-14.1,10.4c-0.4,0.4-0.7-0.1-1,0.9h-105.9V875c0-12.1,8.6-21.6,19.3-21.6h192.4
			C1784.2,853.4,1792.5,862.9,1792.5,875z"/>
		<path class="st12" d="M1733,939.2c0,1,0,1.9-0.1,2.9c-1.1,16-11.1,29.1-24.5,33.2c-0.4,0.1-0.8,0.2-1.2,0.3
			c-0.3,0.1-0.5,0.1-0.8,0.2c-0.3,0.1-0.5,0.1-0.8,0.2c-1.2,0.2-2.5,0.4-3.8,0.5c-0.3,0-0.6,0-0.9,0c-0.4,0-0.9,0-1.3,0
			c-17.5,0-31.9-15.2-33.2-34.5c-0.1-0.9-0.1-1.9-0.1-2.9c0-0.9,0-1.8,0.1-2.7c0.3-5.3,1.6-10.2,3.7-14.6c0.1-0.2-0.1-0.3-0.1-0.5
			c0.2-0.5,0.4-0.9,0.4-1.3v0c0-0.4,0.8-0.9,1-1.3c0.2-0.3,0.5-0.6,0.7-0.9c1.8-3,4.1-5.6,6.6-7.8c2.1-1.9,4.4-3.5,6.9-4.8
			c4.2-2.2,9-3.4,13.9-3.4c5,0,9.7,1.2,13.9,3.4c0.3,0.2,0.6,0.3,0.9,0.5c2.1,1.2,4.1,2.6,6,4.3c0,0,0,0,0,0
			c2.5,2.2,4.7,4.9,6.5,7.8c0.2,0.3,0.3,0.6,0.5,0.9c0.3,0.4,0.7,0.9,0.7,1.3c0,0,0,0,0,0c0,0.4,0.5,0.9,0.7,1.3
			c0.1,0.2,0.2,0.3,0.2,0.5c2.1,4.4,3.4,9.4,3.7,14.6C1733,937.4,1733,938.3,1733,939.2z"/>
		<path class="st12" d="M1720.6,910c-1.8-1.7-3.8-3.1-6-4.3C1716.7,906.9,1718.7,908.5,1720.6,910L1720.6,910
			C1720.6,910,1720.6,910,1720.6,910z"/>
		<polygon class="st12" points="1654.7,833.3 1604.1,833.3 1578.9,861.4 1679.9,861.4 		"/>
	</g>
	<g class="st8">
		<path class="st12" d="M1865.8,506.7c0,0-0.1-29.5-23.7-48.6c0,0-13.2-12.7-37.1-12.9c-23.9,0.2-37.1,12.9-37.1,12.9
			c-23.6,19.1-23.7,48.6-23.7,48.6c-2.8,24.1,21.5,66.4,21.5,66.4c13,21.5,16.4,49.4,16.4,49.4h22.8h22.9c0,0,3.4-27.8,16.4-49.4
			C1844.3,573.1,1868.6,530.8,1865.8,506.7z"/>
		<path class="st12" d="M1827.3,627h-44.5c-0.9,0-1.7,1.4-1.7,2.4v5.8c0,1,0.8,2.4,1.7,2.4h3.6v4.5h-1.6c-0.7,0-1,0.5-1,1.3v2.7
			c0,0.8,0.4,1,1,1h1.6v5.5h-1.6c-0.7,0-1,0.4-1,1.1v2.7c0,0.8,0.4,1.7,1,1.7h1.6v5h-1.6c-0.7,0-1,0.2-1,1v2.7c0,0.2-0.1,0.4,0,0.4
			h-0.6c0,0-1.5,1.7,2.3,4.8c3.8,3.1,16.5,8.8,16.5,8.8s1.6,1,3.8,1.1v-0.2h-0.2h0.2v0.2c2.2-0.1,3.6-1.1,3.6-1.1s12.5-5.9,16.2-9.1
			c3.7-3.2,1.9-4.2,1.9-4.2l-0.9,0c0.1-0.2,0.2-0.5,0.2-0.7v-2.7c0-0.8-0.5-1-1.2-1h-0.6v-5h0.6c0.7,0,1.2-0.9,1.2-1.7v-2.7
			c0-0.8-0.5-1.1-1.2-1.1h-0.6v-5.5h0.6c0.7,0,1.2-0.3,1.2-1v-2.7c0-0.8-0.5-1.3-1.2-1.3h-0.6v-4.5h2.5c0.9,0,1.5-1.4,1.5-2.4v-5.8
			C1828.8,628.4,1828.2,627,1827.3,627z"/>
	</g>
	<g class="st8">
		<path class="st12" d="M1236.6,1553.2v-22.9c0-4.1-3.2-7.6-7.5-7.6h-18.5h-52.9h-18.5c-4.3,0-8.1,3.5-8.1,7.6v22.9V1668
			c0,4.1,3.6,7,7.9,7l0.1-0.4h89.7v0.7c4,0,7.3-2.9,7.7-6.6c0-0.3-0.1-0.5-0.1-0.7v-114.6
			C1236.6,1553.3,1236.6,1553.2,1236.6,1553.2z M1147.3,1553.3h52.7v2.5h-52.7V1553.3z M1147.3,1567.8h46.9v2.5h-46.9V1567.8z
			 M1147.3,1574.4h61.6v3h-61.6V1574.4z M1147.3,1580.4h69.6v1.5h-69.6V1580.4z M1147.3,1586.4h54v3h-54V1586.4z M1147.3,1592.9
			h66.5v2.5h-66.5V1592.9z M1147.3,1606.4h46.9v2h-46.9V1606.4z M1147.3,1612.5h61.6v3h-61.6V1612.5z M1147.3,1625h54v3h-54V1625z
			 M1213.8,1646.5h-66.5v-2.5h66.5V1646.5z M1213.8,1640h-66.5v-3h66.5V1640z M1213.8,1633.5h-66.5v-2h66.5V1633.5z M1216.9,1621.5
			h-69.6v-3h69.6V1621.5z M1219.2,1601.9h-71.9v-3h71.9V1601.9z M1219.2,1563.3h-71.9v-2.5h71.9V1563.3z"/>
		<line class="st12" x1="1236.7" y1="1553.2" x2="1236.7" y2="1553.2"/>
		<line class="st12" x1="1210.7" y1="1522.7" x2="1210.7" y2="1524.2"/>
	</g>
	<g class="st8">
		<path class="st12" d="M1797,333.8l54.8,45.6c1.7,1.4,4.3,1.4,6,0l54.8-45.4L1797,333.8z"/>
		<path class="st12" d="M1836.2,371.4l-38,40c-0.6-1.2-0.9-2.5-0.9-3.9v-68.5L1836.2,371.4z"/>
		<path class="st12" d="M1870.1,374.2l38.4,40.3c-1.1,0.6-2.3,0.9-3.6,0.9h-100.3c-1.2,0-2.3-0.3-3.3-0.8l38.4-40.3l15.1,12.5
			L1870.1,374.2z"/>
		<path class="st12" d="M1912.7,338.9v68.5c0,1.3-0.3,2.5-0.9,3.6l-38-39.9L1912.7,338.9z"/>
	</g>
	<g class="st8">
		<path class="st12" d="M1055.3,62.2l54.8,45.6c1.7,1.4,4.3,1.4,6,0l54.8-45.4L1055.3,62.2z"/>
		<path class="st12" d="M1094.5,99.8l-38,40c-0.6-1.2-0.9-2.5-0.9-3.9V67.3L1094.5,99.8z"/>
		<path class="st12" d="M1128.5,102.7l38.4,40.3c-1.1,0.6-2.3,0.9-3.6,0.9H1063c-1.2,0-2.3-0.3-3.3-0.8l38.4-40.3l15.1,12.6
			L1128.5,102.7z"/>
		<path class="st12" d="M1171,67.3v68.5c0,1.3-0.3,2.5-0.9,3.6l-38-39.9L1171,67.3z"/>
	</g>
	<g class="st8">
		<g>
			<path class="st12" d="M861.1,67.5c-0.2-0.2-0.4-0.4-0.6-0.7c0,0-0.1-0.1-0.1-0.1c-8.2-9.2-19.1-14.2-30.7-14.2
				c-11.1,0-21.7,4.7-29.7,13.2c-0.2,0.2-0.5,0.5-0.7,0.7c-0.1,0.1-0.2,0.3-0.3,0.4c-8.2,9.2-12.7,21.5-12.7,34.6
				c0,13.1,4.5,25.3,12.7,34.6c8.2,9.2,19.1,14.3,30.8,14.3c11.6,0,22.6-5.1,30.8-14.3c8.2-9.2,12.7-21.5,12.7-34.6
				C873.3,88.6,869,76.6,861.1,67.5z M836.6,148.6c-1.6,0.3-3.2,0.5-4.8,0.6c-0.7,0-1.3,0.1-2,0.1c-0.7,0-1.3,0-2-0.1
				c-1.6-0.1-3.2-0.3-4.8-0.6c-20.1-3.6-35.6-23.2-35.8-46.7c0-0.2,0-0.3,0-0.5c0-0.2,0-0.3,0-0.5c0.1-13.2,5-25.1,12.8-33.7
				c0.2-0.2,0.4-0.5,0.7-0.7c6.1-6.4,13.8-10.8,22.3-12.3c1.6-0.3,3.2-0.5,4.8-0.6c0.7,0,1.3-0.1,2-0.1c0.7,0,1.3,0,2,0.1
				c1.6,0.1,3.2,0.3,4.8,0.6c9,1.6,17,6.4,23.2,13.3c0.2,0.2,0.4,0.5,0.7,0.7c7.3,8.5,11.8,20,11.9,32.7c0,0.2,0,0.3,0,0.5
				c0,0.2,0,0.3,0,0.5C872.2,125.4,856.7,145,836.6,148.6z"/>
			<path class="st12" d="M829.8,152.4c-12.1,0-23.6-5.3-32.2-15c-8.6-9.6-13.3-22.5-13.3-36.1c0-13.6,4.7-26.5,13.3-36.1
				c0.1-0.1,0.2-0.3,0.4-0.4c0.2-0.3,0.5-0.5,0.7-0.8c8.4-8.9,19.5-13.8,31.1-13.8c12.1,0,23.5,5.3,32.1,14.8c0,0,0.1,0.1,0.1,0.1
				c0.2,0.2,0.4,0.5,0.6,0.7l0,0c8.2,9.6,12.7,22.1,12.7,35.4c0,13.6-4.7,26.5-13.3,36.1C853.4,147.1,841.9,152.4,829.8,152.4z
				 M829.8,55.7c-0.6,0-1.3,0-1.9,0.1c-1.5,0.1-3.1,0.3-4.6,0.5c-8,1.4-15.3,5.5-21.3,11.7c-0.2,0.2-0.4,0.5-0.6,0.7
				c-7.8,8.5-12.1,20-12.2,32.1c0,0.2,0,0.3,0,0.5c0,0.2,0,0.3,0,0.5c0.2,22.3,14.6,41,34.1,44.6c1.5,0.3,3,0.5,4.6,0.5
				c1.3,0.1,2.6,0.1,3.8,0c1.5-0.1,3.1-0.3,4.6-0.5h0c19.6-3.5,33.9-22.3,34.1-44.6c0-0.2,0-0.3,0-0.5c0-0.2,0-0.3,0-0.5
				c-0.1-11.7-4.2-22.7-11.4-31.2c-0.2-0.2-0.4-0.5-0.6-0.7c-6.1-6.8-13.7-11.2-22.1-12.7c-1.5-0.3-3-0.5-4.6-0.5
				C831.1,55.7,830.4,55.7,829.8,55.7z"/>
		</g>
		<path class="st12" d="M861.9,66.7c-0.2-0.2-0.4-0.4-0.6-0.7c0,0-0.1-0.1-0.1-0.1l-0.7-0.8l-0.7,0.8c-0.2,0.3-0.4,0.5-0.7,0.7
			c-2.4,2.5-5.1,4.7-8,6.6c-0.3,0.2-0.5,0.3-0.8,0.5c-3.9,2.4-8.2,4-12.6,4.9c-0.3,0.1-0.6,0.1-0.9,0.2c-2,0.3-4.1,0.5-6.2,0.5
			c-2.7,0-5.3-0.3-7.9-0.9c-0.3-0.1-0.6-0.1-0.9-0.2c-4.3-1.1-8.5-2.9-12.3-5.4c-0.3-0.2-0.5-0.4-0.8-0.5c-2.7-1.9-5.2-4.1-7.4-6.6
			c-0.2-0.3-0.4-0.5-0.6-0.7l-0.7-0.8l-0.7,0.8c-0.2,0.2-0.4,0.5-0.7,0.7l-0.7,0.8l0.7,0.8c0.2,0.2,0.4,0.4,0.6,0.7
			c0,0,0.1,0.1,0.1,0.1c2.5,2.7,5.2,5.1,8.1,7.2c0.3,0.2,0.6,0.4,0.8,0.6c4.1,2.7,8.5,4.6,13.2,5.7c0.3,0.1,0.6,0.2,0.9,0.2
			c2.8,0.6,5.6,0.9,8.4,0.9c2.2,0,4.4-0.2,6.6-0.5c0.4-0.1,0.7-0.1,0.9-0.2c4.7-0.9,9.2-2.6,13.5-5.2c0.3-0.2,0.6-0.3,0.8-0.5
			c3.1-2,6-4.4,8.6-7.1c0.2-0.2,0.5-0.5,0.7-0.7l0.7-0.8L861.9,66.7z"/>
		<path class="st12" d="M861.8,134.5c-0.2-0.3-0.5-0.5-0.7-0.7c-2.6-2.8-5.5-5.2-8.6-7.1c-0.3-0.2-0.5-0.3-0.8-0.5
			c-4.2-2.5-8.7-4.3-13.5-5.2c-0.3-0.1-0.6-0.1-0.9-0.2c-2.2-0.4-4.4-0.5-6.6-0.5c-2.8,0-5.7,0.3-8.4,0.9c-0.3,0.1-0.6,0.1-0.9,0.2
			c-4.6,1.1-9.1,3-13.2,5.7c-0.3,0.2-0.5,0.4-0.8,0.6c-2.9,2-5.6,4.4-8.1,7.2c0,0-0.1,0.1-0.1,0.1c-0.2,0.2-0.4,0.4-0.6,0.7
			l-0.7,0.8l0.7,0.8c0.2,0.3,0.5,0.5,0.7,0.7l0.7,0.8l0.7-0.8c0.2-0.2,0.4-0.4,0.6-0.7c2.2-2.5,4.7-4.7,7.4-6.6
			c0.3-0.2,0.5-0.4,0.8-0.5c3.8-2.5,8-4.4,12.3-5.4c0.3-0.1,0.6-0.1,0.9-0.2c2.6-0.6,5.3-0.9,7.9-0.9c2.1,0,4.2,0.2,6.2,0.5
			c0.3,0.1,0.6,0.1,0.9,0.2c4.4,0.8,8.6,2.5,12.6,4.9c0.2,0.1,0.5,0.3,0.8,0.5c2.9,1.8,5.5,4,8,6.6c0.2,0.2,0.4,0.5,0.7,0.7l0.7,0.8
			l0.7-0.8c0,0,0.1-0.1,0.1-0.1c0.2-0.2,0.4-0.4,0.6-0.7l0.7-0.8L861.8,134.5z"/>
		<path class="st12" d="M846.3,66.3c-4.4-9.7-10.2-15-16.5-15c-6.3,0-12.1,5.3-16.5,15c-4.2,9.4-6.6,21.8-6.6,35
			c0,13.2,2.3,25.7,6.6,35c4.4,9.7,10.2,15,16.5,15c6.3,0,12.1-5.3,16.5-15c4.2-9.4,6.6-21.8,6.6-35
			C852.9,88.2,850.5,75.7,846.3,66.3z M829.8,148.1c-5.4,0-10.5-4.8-14.4-13.5c-4-8.9-6.2-20.7-6.2-33.2s2.2-24.4,6.2-33.2
			c3.9-8.7,9-13.5,14.4-13.5c5.4,0,10.5,4.8,14.4,13.5c4,8.9,6.2,20.7,6.2,33.2c0,12.6-2.2,24.4-6.2,33.2
			C840.3,143.3,835.2,148.1,829.8,148.1z"/>
		<path class="st12" d="M872.9,99.9h-86.1c-0.8,0-1.5,0.7-1.5,1.6c0,0.9,0.7,1.6,1.5,1.6h86.1c0.8,0,1.5-0.7,1.5-1.6
			C874.3,100.6,873.7,99.9,872.9,99.9z"/>
		<path class="st12" d="M831.4,149.8V53.1c0-0.9-0.7-1.6-1.5-1.6c-0.8,0-1.5,0.7-1.5,1.6v96.7c0,0.9,0.7,1.6,1.5,1.6
			C830.7,151.5,831.4,150.7,831.4,149.8z"/>
	</g>
	<g class="st8">
		<g>
			<path class="st12" d="M863.6,308.5L863.6,308.5c0-3.5,2.4-6,5.6-6h14.9v-8h-14.9c-3.2,0-5.7-3-5.7-6.5c0-3.5,2.6-6.5,5.7-6.5
				h14.9v-8h-14.9c-3.2,0-5.6-2.9-5.7-6.4c0,0,0.1-0.1,0.1-0.1v0c0,0-0.1,0.4-0.1,0.5c0-3.5,2.5-5.9,5.7-5.9h13.2
				c-4.6-18.6-19.1-30.6-36.4-30.6c-17.3,0-31.8,12.1-36.4,30.6h13.7c3.1,0,5.8,2.4,5.8,5.9c0,0,0.1-0.5,0.1-0.5v0
				c0,0-0.1,0.1-0.1,0.1c0,3.5-2.6,6.4-5.8,6.4h-15.6v8h15.6c3.2,0,5.7,3,5.7,6.5c0,3.5-2.6,6.5-5.7,6.5h-15.6v8h15.6
				c3.1,0,5.8,2.5,5.8,6.1c0,0,0,0,0,0v0c0,0,0,0,0,0c0,3.5-2.7,7-5.8,7h-15.6v2.4c0,23.5,17.2,42.6,38.2,42.6s38.2-19.1,38.2-42.6
				v-2.4h-14.9C866,315.5,863.6,312,863.6,308.5z"/>
		</g>
		<path class="st12" d="M845.9,442.8L845.9,442.8c-3.2,0-5.8-2.9-5.8-6.5V385c0-3.6,2.6-6.5,5.8-6.5l0,0c3.2,0,5.8,2.9,5.8,6.5v51.3
			C851.7,439.9,849.1,442.8,845.9,442.8z"/>
		<path class="st12" d="M846,375.6c-28.1,0-50.9-25.6-50.9-57.1h-10.8c0,38.1,27.6,69.3,61.7,69.3c34.1,0,61.7-31.2,61.7-69.3h-10.8
			C896.9,350.1,874.1,375.6,846,375.6z"/>
		<path class="st12" d="M871.5,446.7h-51.2c-2.9,0-5.3-2.6-5.3-5.9l0,0c0-3.3,2.4-5.9,5.3-5.9h51.2c2.9,0,5.3,2.6,5.3,5.9l0,0
			C876.8,444.1,874.4,446.7,871.5,446.7z"/>
	</g>
	<path class="st3" d="M539.9,57.3l-0.1-3c-0.5,0.2-1.1,0.3-1.8,0.5C527.7,57.1,499,58,499,58l0.1,3.4c-0.6,0.1-1.2,0.2-1.8,0.3
		c-7.7,1.9-13.5,9.6-13.5,18.8l0,4.5c0,9.3,5.8,17,13.5,18.9c0.6,0.1,1.2,0.2,1.8,0.3l0,2.7c0,0,0,0,0.1,0c0,0,0,0,0.1,0
		c0.1,0,0.3,0,0.5,0c0.8,0,2.1,0.1,3.8,0.1l-5,43.3c-0.9,8,3.8,8.1,6.9,8.1l10.1-0.3c1.6,0,4.8-1.1,5.1-6.7l3.1-43.2
		c5.6,0.5,10.9,1,14.3,1.8c0.7,0.1,1.3,0.3,1.8,0.5l0.1-3.2c23.6,5.1,60.3,15.1,79.4,31.2l0.2-55.9l0.1-55.9
		C600.4,42.5,563.5,52.3,539.9,57.3z"/>
	<path class="st3" d="M1570.6,1684.1c0,19.7-10.7,36.5-25.9,43.6c-3.4,2.3-7.4,3.6-11.7,3.6h-126.1c-1,0-2.1-0.1-3.1-0.2
		c-21.3-2.4-37.8-22.5-37.8-47c0-23.9,15.7-43.6,36.2-46.8c3.1-18.7,17.6-32.8,35.1-32.8c5.8,0,11.3,1.6,16.2,4.4
		c9.3-12.9,23.5-21.1,39.4-21.1c23.9,0,43.9,18.6,49.2,43.6c7.3,1,12.9,7.8,13.1,16.1C1564.6,1656.2,1570.6,1669.3,1570.6,1684.1z"
		/>
	<g class="st8">
		<path class="st12" d="M790.3,1689.1c3.4-3.2,4.3-8.7,1.9-13.1c-2.6-4.7-8.2-6.2-12.4-3.2c-4.2,2.9-5.5,9.2-2.9,13.9
			c2.6,4.7,8.2,6.2,12.4,3.2C789.7,1689.6,790,1689.3,790.3,1689.1z"/>
		<path class="st12" d="M820.1,1662.1c1.1,4.9,5.3,8.1,9.7,7.5c0.4-0.1,0.8-0.1,1.2-0.3c4.8-1.4,7.7-6.9,6.5-12.3
			c-1.2-5.4-6.1-8.6-10.9-7.3C821.8,1651.2,818.9,1656.7,820.1,1662.1z"/>
		<polygon class="st12" points="820.6,1695.7 823.2,1708.7 821.9,1710.8 832.3,1712.7 835,1718.6 832.3,1701.4 832.3,1701.4 		"/>
		<path class="st12" d="M837,1790.5c0,0.1,0,0.2,0.1,0.2c0.8,2.4,3.5,6.5,5.7,5.9c2.2-0.6,3.2-5.8,2.9-8.3c0-0.1,0-0.2,0-0.3
			l-3.7-24.8l-23.9-36.4L837,1790.5z"/>
		<path class="st12" d="M824.9,1642.4c-8.5,2.5-13.6,12.2-11.4,21.7l7.2,31.6l0,0l-2.5-12.8l11-3.1l3.3,21.7l-1.9-24.2
			c0.7-0.1,1.4-0.2,2.2-0.4c8.5-2.5,13.6-12.2,11.4-21.7C842,1645.6,833.3,1639.9,824.9,1642.4z M837.5,1657.1
			c1.2,5.4-1.7,10.9-6.5,12.3c-0.4,0.1-0.8,0.2-1.2,0.3c-4.4,0.6-8.6-2.6-9.7-7.5c-1.2-5.4,1.6-10.9,6.5-12.3
			C831.4,1648.4,836.3,1651.7,837.5,1657.1z"/>
		<polygon class="st12" points="818.2,1682.9 820.6,1695.7 832.3,1701.4 832.3,1701.4 829.1,1679.8 		"/>
		<path class="st12" d="M855.2,1783.6c0,0.1,0.1,0.1,0.1,0.2c1.4,2,5.3,4.6,7.3,3.2c2-1.4,1.2-6.2,0.3-8.5c0-0.1-0.1-0.1-0.1-0.2
			l-27.6-59.7l6.8,44.7L855.2,1783.6z"/>
		<polygon class="st12" points="821.9,1710.8 819.8,1710.4 813.4,1699.7 809,1713.4 817.9,1726.9 816,1720.4 		"/>
		<path class="st12" d="M821.9,1710.8l-6,9.6l1.9,6.5l23.9,36.4l-6.8-44.7l-2.8-6L821.9,1710.8z M829.9,1719.3
			c1.3,2.3,0.7,5.3-1.4,6.7c-2,1.4-4.7,0.7-6-1.6c-1.3-2.3-0.7-5.3,1.4-6.7C826,1716.3,828.7,1717,829.9,1719.3z"/>
		<path class="st12" d="M806.7,1688.4l6.6,11.2l0-0.1l-15.4-27.7c-4.6-8.3-14.4-10.9-21.8-5.7c-7.4,5.2-9.7,16.2-5,24.5
			c4.6,8.3,14.4,10.9,21.8,5.7c0.6-0.4,1.2-0.9,1.8-1.5l14.3,18.4l0,0l-12-18.2L806.7,1688.4z M776.9,1686.7
			c-2.6-4.7-1.3-11,2.9-13.9c4.2-3,9.8-1.5,12.4,3.2c2.4,4.3,1.5,9.9-1.9,13.1c-0.3,0.3-0.7,0.6-1,0.8
			C785.1,1692.8,779.6,1691.4,776.9,1686.7z"/>
		<polygon class="st12" points="806.7,1688.4 797.1,1695.2 809,1713.4 813.4,1699.7 		"/>
	</g>
	<path class="st3" d="M130.5,703l-1.5-0.9l0,0c0,0,0.2-0.2,0.3-0.3c0,0,0.1-0.1,0.1-0.1c0.1-0.1,0.1-0.1,0.2-0.2
		c0,0,0.1-0.1,0.1-0.1c0.1-0.1,0.2-0.2,0.2-0.3c0.1-0.1,0.1-0.1,0.2-0.2c0,0,0.1-0.1,0.1-0.1c0.1-0.1,0.1-0.1,0.2-0.2
		c0,0,0.1-0.1,0.1-0.1c0.1-0.1,0.1-0.2,0.2-0.3c0,0,0-0.1,0-0.2c0.1-0.1,0.1-0.3,0.1-0.5l0.5-1.2c1.1-2.5,0.7-5-1.1-6l-7-4
		l35.5-77.8c5-0.8,9.9-4.7,12.1-11.2l7.1-23.4l0.9-2.8l-16.9-9.7l-1.5,2.4l-12.2,20.5c-3.6,6-3.6,12.6-1.2,17.5l-35.5,77.7l-7.6-4.4
		c-1.8-1-4.1-0.2-5.3,2.3l-0.5,1.1c-0.1,0.1-0.1,0.3-0.1,0.5c0,0.1,0,0.1,0,0.2c0,0.1,0,0.2-0.1,0.3c0,0.1,0,0.1,0,0.2
		c0,0.1,0,0.2-0.1,0.2c0,0.1,0,0.1,0,0.2c0,0,0,0,0,0c0,0.2-0.1,0.4-0.1,0.7c0,0,0,0,0,0.1c0,0.1,0,0.2,0,0.3l0,0c0,0,0,0,0,0
		c0,0.1,0,0.1,0,0.2c0,0-0.1,0.1-0.1,0.1c0,0-0.1,0.2-0.1,0.2l-1.1-0.6c-1-0.6-2.3-0.2-3,1.2l-42.3,92.9c-5,11-2.9,24.3,5,28.8
		l9.2,5.3c7.9,4.5,18.6-1.3,23.7-12.3l42.3-92.9C132,704.9,131.5,703.5,130.5,703z M97.6,683.7C97.6,683.7,97.6,683.7,97.6,683.7
		C97.6,683.7,97.6,683.7,97.6,683.7L97.6,683.7z M65.7,787.1c-1.3,2.8-4,4.1-6,2.9c-2-1.1-2.6-4.4-1.4-7.1L97,698.3
		c1.3-2.8,4-4.1,6-2.9c2,1.1,2.6,4.4,1.3,7.1L65.7,787.1z M82.1,796.5c-1.3,2.8-3.9,4.2-5.8,3c-2-1.1-2.5-4.3-1.2-7.1l38.6-84.6
		c1.3-2.8,3.8-4.2,5.8-3c2,1.1,2.5,4.3,1.2,7.1L82.1,796.5z"/>
	<path class="st3" d="M523.4,1601.9C523.4,1601.9,523.4,1601.9,523.4,1601.9c-15.5-15.4-36.1-18.7-49.7-8.7l24.3,17.5
		c3.4,2.4,4.8,7.1,3.2,10.5l-7.3,15.3c-1.6,3.4-5.7,4.1-9,1.7l-24.3-17.5c-0.4,13.5,5.1,28.4,15.9,39.9c2.6,2.7,5.3,5.1,8.1,7.1
		c0,0,0.1,0,0.1,0.1c1.7,1.4,3.5,2.5,5.3,3.3c1.9,0.8,3.8,1.3,5.7,1.5l0,0c1.3,0.1,2.4,0.2,3.6,0c3.4,0,8.2,0.1,11.2,0.5
		c4.9,0.6,11.6,3.8,11.6,3.8l98.8,104.7c6.9,7.3,16.9,7.8,22.3,1.4c5.4-6.5,4.3-17.6-2.5-24.9l-98.8-104.7c0,0-6.9-8.1-7.9-16.8
		c-1-8.7-1.2-15.7-1.2-15.7l0,0c-0.1-4.3-1.4-8.8-3.9-12.7C527.3,1605.8,525.6,1603.7,523.4,1601.9z M634.1,1760.6
		c3.9,4.1,4.6,10.5,1.5,14.2c-3.1,3.7-8.8,3.3-12.7-0.8l-83.2-88.2c-3.9-4.2-4.6-10.5-1.5-14.2c3.1-3.7,8.8-3.3,12.7,0.8
		L634.1,1760.6z"/>
	<path class="st3" d="M993.1,183.6l-19.4-55.1c-0.7-2-2.6-3.1-4.4-2.3l-4.5,2l-71.4,31.7l-6.2,2.7c-1.8,0.8-2.7,3.1-2,5.1l19.4,55.1
		c-1.9,2.3-2.7,5.9-1.6,9l56.8,161.3c1.2,3.5,4.9,5.3,8,3.9l85.3-37.9c3.1-1.4,4.6-5.4,3.4-8.9L999.7,189
		C998.6,185.8,996.2,183.7,993.1,183.6z M967.2,142.8l10.5,29.7l-13.5,6l-10.5-29.7L967.2,142.8z M900.2,172.5l13.2-5.9l10.5,29.7
		l-13.2,5.9L900.2,172.5z M1006.9,267.1l-5.3,2.3l7.4,21c0.9,2.6,0.7,5.6-0.7,7.9l0,0.1l-15.9,23.7l3.8,10.9
		c5-1.3,10.2,1.7,12.2,7.2c2.1,6.1-0.5,13-6,15.4c-5.4,2.4-11.6-0.6-13.7-6.7c-2-5.7,0.1-11.9,4.8-14.8l-0.5-1.5l-25.9-6.5
		c-2.7-0.7-4.9-2.8-5.9-5.6l-3.5-9.9c-4.4,1-8.9-1.6-10.6-6.4c-1.9-5.4,0.5-11.5,5.3-13.7c4.8-2.1,10.2,0.5,12.1,5.9
		c1.7,4.8,0,10.2-3.9,12.9l3.5,9.9c0.6,1.7,2,3,3.6,3.4l23.8,6l-30.3-86l-8.6,3.8l3.1-23.2l16.3,14.6l-8.2,3.6l27,76.7l14.7-21.9
		c0.8-1.3,0.9-3,0.4-4.5l-7.4-21l-5.3,2.3l-5.5-15.5l13.5-6L1006.9,267.1z"/>
	<path class="st3" d="M259.6,1391.3c5-2.8,9.1-7,12.6-12c1.5-0.5,2.8-1,4.2-1.6c35.3-14.8,35.6-59.2,35.6-59.2c0-5.9-5-7.4-5-7.4
		h-16.7c0.5-7,0.4-12.2,0.4-12.2c0-4.8-5.1-5.8-5.1-5.8h-33.4h-33.4c0,0-5.1,1-5.1,5.8c0,0-0.1,5.2,0.4,12.2h-15.6c0,0-5,1.5-5,7.4
		c0,0,0.3,42.3,33.1,58.1c1.7,0.8,3.4,1.5,5.2,2.2c3.6,5.2,7.8,9.6,12.9,12.5c0,0,4.1,1.3,3.7,5.1v4.4c0,0,0.1,13.2-24.7,18.5
		c-0.4,0-0.8,0.1-1.2,0.3c0,0,0,0,0,0v0c-1.3,0.6-2.3,2.1-2.3,3.8c0,2.2,1.6,4.1,3.5,4.1h28.3h28.3c2,0,3.6-1.8,3.6-4.1
		c0-1.7-0.9-3.2-2.2-3.8v0c0,0-0.1,0-0.1,0c-0.4-0.2-0.7-0.3-1.1-0.3c-24.8-5.4-24.7-18.5-24.7-18.5v-4.4
		C255.5,1392.5,259.6,1391.3,259.6,1391.3z M289.6,1319.1h9.8c5.6,0.5,4.9,5.5,4.9,5.5c-3,23.9-12.9,35.3-21.7,40.9
		c-1.4,0.9-2.8,1.6-4.1,2.2C285.3,1352.2,288.3,1334.2,289.6,1319.1z M220.3,1363.8c-8.1-6-16.5-17.5-19.2-39.2c0,0-0.8-5,4.9-5.5
		h8.7c1.3,14.5,4.2,32.5,10.8,47.9C223.8,1366.2,222,1365.1,220.3,1363.8z"/>
	<path class="st3" d="M1428,401.8c5-2.8,9.1-7,12.6-12c1.5-0.5,2.8-1,4.2-1.6c35.3-14.8,35.6-59.2,35.6-59.2c0-5.9-5-7.4-5-7.4
		h-16.7c0.5-7,0.4-12.2,0.4-12.2c0-4.8-5.1-5.8-5.1-5.8h-33.4h-33.4c0,0-5.1,1-5.1,5.8c0,0-0.1,5.2,0.4,12.2h-15.6c0,0-5,1.5-5,7.4
		c0,0,0.3,42.3,33.1,58.1c1.7,0.8,3.4,1.5,5.2,2.2c3.6,5.2,7.8,9.6,12.9,12.5c0,0,4.1,1.3,3.7,5.1v4.4c0,0,0.1,13.2-24.7,18.5
		c-0.4,0-0.8,0.1-1.2,0.3c0,0,0,0,0,0v0c-1.3,0.6-2.3,2.1-2.3,3.8c0,2.2,1.6,4.1,3.5,4.1h28.3h28.3c2,0,3.6-1.8,3.6-4.1
		c0-1.7-0.9-3.2-2.2-3.8v0c0,0-0.1,0-0.1,0c-0.4-0.2-0.7-0.3-1.1-0.3c-24.8-5.4-24.7-18.5-24.7-18.5v-4.4
		C1424,403,1428,401.8,1428,401.8z M1458,329.6h9.8c5.6,0.5,4.9,5.5,4.9,5.5c-3,23.9-12.9,35.3-21.7,40.9c-1.4,0.9-2.8,1.6-4.1,2.2
		C1453.8,362.7,1456.7,344.6,1458,329.6z M1388.7,374.3c-8.1-6-16.5-17.5-19.2-39.2c0,0-0.8-5,4.9-5.5h8.7
		c1.3,14.5,4.2,32.5,10.8,47.9C1392.2,376.6,1390.5,375.6,1388.7,374.3z"/>
	<path class="st3" d="M1093.7,196.4c-19.1,29.9-17.5,41.5,9.1,63.1c-26.6-21.6-36.9-19.7-56,10.2c19.1-29.9,17.5-41.5-9.1-63.1
		C1064.3,228.2,1074.6,226.3,1093.7,196.4z"/>
	<path class="st3" d="M204.1,1081.9c-19.1,29.9-17.5,41.5,9.1,63.1c-26.6-21.6-36.9-19.7-56,10.2c19.1-29.9,17.5-41.5-9.1-63.1
		C174.7,1113.7,184.9,1111.8,204.1,1081.9z"/>
	<path class="st3" d="M1333.3,1520.1c-19.1,29.9-17.5,41.5,9.1,63.1c-26.6-21.6-36.9-19.7-56,10.2c19.1-29.9,17.5-41.5-9.1-63.1
		C1303.9,1551.9,1314.2,1550,1333.3,1520.1z"/>
	<g class="st8">
		<polygon class="st12" points="1906.4,1055.8 1906.3,1055.8 1877.6,1055.8 1852.6,1055.7 1852.6,1088 1906.4,1088 		"/>
		<path class="st12" d="M1860,1031.2l-0.1-5.5c0,0-7.3-0.6-12.3-10.4l-23.4-53.4c0,0-1.4-3-1.3-4.8c0,0-0.3-5.9,4.3-8.6
			c0,0,4.6-1.9,7.7,2c0,0,2.4,1.9,4.6,7.3l5.2,10.6l2.5,4.4l-1-44l-0.8-41.8c0,0,1.1-7.1,5-8.7c0,0,4.5-2,7.1,1.1
			c0,0,3.4,2.4,3.7,7.7l0.6,26.5l0.8,50.3c0,0-0.1-18.4,0.8-21.3c0,0,2.5-7.5,7.8-7c0,0,5.5-0.4,7.9,5.7c0,0,2.2,2.9,1.3,12.4
			l0.3,9.8c0,0-0.5-16.3,0.2-17.6c0.7-1.4,1.6-5.8,7.4-6.2c0,0,5.1,0.1,7.1,5.7c0,0,0.8,0.3,0.9,5.5l0.5,10.7c0,0-0.5-10.8,0-11.7
			c0,0,1.9-5.6,5.4-5.7c0,0,4-1.6,6.4,2.6c0,0,2.3,1.6,2.2,8.2l-0.3,31.3c0,0-1,26.5-10.3,38l0.1,5.7L1860,1031.2z"/>
		<path class="st12" d="M1855.1,1057.2l48.8,0.1c3.1,0,5.7-2.9,5.7-6.4l0-17.1c0-3.5-2.6-6.4-5.7-6.4l-48.8-0.1
			c-3.2,0-5.7,2.9-5.7,6.4l0,17.1C1849.4,1054.3,1852,1057.2,1855.1,1057.2z"/>
	</g>
	<g class="st8">
		<polygon class="st12" points="157.5,1299.4 157.4,1299.4 128.7,1299.4 103.7,1299.4 103.7,1331.7 157.4,1331.7 		"/>
		<path class="st12" d="M111,1274.8l-0.1-5.5c0,0-7.3-0.6-12.3-10.4l-23.4-53.4c0,0-1.4-3-1.3-4.8c0,0-0.3-5.9,4.3-8.6
			c0,0,4.6-1.9,7.7,2c0,0,2.4,1.9,4.6,7.3l5.2,10.6l2.5,4.4l-1-44l-0.8-41.8c0,0,1.1-7.1,5-8.7c0,0,4.5-2,7.1,1.1
			c0,0,3.4,2.4,3.7,7.7l0.6,26.5l0.8,50.3c0,0-0.1-18.4,0.8-21.3c0,0,2.5-7.5,7.8-7c0,0,5.5-0.4,7.9,5.7c0,0,2.2,2.9,1.3,12.4
			l0.3,9.8c0,0-0.5-16.3,0.2-17.6c0.7-1.4,1.6-5.8,7.4-6.2c0,0,5.1,0.1,7.1,5.7c0,0,0.8,0.3,0.9,5.5l0.5,10.7c0,0-0.5-10.8,0-11.7
			c0,0,1.9-5.6,5.4-5.7c0,0,4-1.6,6.4,2.6c0,0,2.3,1.6,2.2,8.2l-0.3,31.3c0,0-1,26.5-10.3,38l0.1,5.7L111,1274.8z"/>
		<path class="st12" d="M106.2,1300.9l48.8,0.1c3.1,0,5.7-2.9,5.7-6.4l0-17.1c0-3.5-2.6-6.4-5.7-6.4l-48.8-0.1
			c-3.1,0-5.7,2.9-5.7,6.4l0,17.1C100.5,1298,103.1,1300.9,106.2,1300.9z"/>
	</g>
	<g class="st8">
		<path class="st12" d="M1962.5,710.9c0-4.8-1.4-9.1-3.7-12.7c-1.2-1.8-2.6-3.4-4.3-4.7c-3.1-2.5-6.9-3.9-11-3.9l-74.3,0
			c-4.1,0-7.9,1.5-11,3.9c-1.6,1.3-3.1,2.9-4.3,4.7c-2.3,3.5-3.7,7.9-3.7,12.7l0,89.6c0,4.8,1.4,9.1,3.7,12.7
			c1.2,1.8,2.6,3.4,4.3,4.7c3.1,2.5,6.9,3.9,11,3.9l74.3,0c4.1,0,7.9-1.5,11-3.9c1.6-1.3,3.1-2.9,4.3-4.7c2.3-3.5,3.7-7.9,3.7-12.7
			L1962.5,710.9z M1906.4,794c-18.9,0-34.2-17.2-34.2-38.4c0-21.2,15.3-38.4,34.2-38.4c18.9,0,34.2,17.2,34.2,38.4
			C1940.6,776.9,1925.3,794,1906.4,794z"/>
		<polygon class="st12" points="1897.1,773.7 1925,755.7 1897.1,737.6 		"/>
	</g>
	<g class="st8">
		<path class="st12" d="M1631.6,200.7c0.6,0,1.1,0,1.7,0c11.8,0.2,23.4,2.2,34.4,5.9c0.7,0.2,1.4,0.5,2.1,0.7
			c34.3,12.1,63,40.3,78.1,77.6c2.3,5.6,4.3,11.5,5.9,17.5c0.1,0.5,0.3,1,0.4,1.5c1.8,7,3.2,14.2,4.1,21.6
			c1.3,10.7,1.4,21.2,0.6,31.5c-0.9,12.2-3.3,24-6.8,35.3c-5.7,18-14.5,34.5-25.8,48.6c-0.3,0.4-0.6,0.7-0.9,1.1
			c-4.8,5.9-10.1,11.3-15.7,16.2c-17.3,15-38.2,25.3-61.4,28.7c-5.7,0.9-11.4,1.3-17,1.3c-16.1,0-31.7-3.4-46.1-9.7
			c-1-0.4-1.9-0.9-2.9-1.3c-35.7-16.7-63.7-51.2-74.2-95c-1.5-6.1-2.6-12.3-3.3-18.7c-1.3-10.6-1.4-21.1-0.7-31.3
			c0-0.4,0.1-0.8,0.1-1.2c0.4-4.9,1.1-9.8,1.9-14.6c0.2-1.2,0.4-2.4,0.7-3.6c2.2-10.7,5.4-21.1,9.7-30.8c1.2-2.8,2.5-5.5,3.9-8.2
			c4.2-8.4,9.2-16.2,14.8-23.5c0.4-0.5,0.8-1,1.2-1.5c1.4-1.7,2.8-3.4,4.3-5.1c10.3-11.8,22.5-21.6,36.1-28.8
			c0.4-0.2,0.8-0.5,1.3-0.7c11.3-5.9,23.6-9.9,36.6-11.9c2.9-0.4,5.8-0.8,8.7-1C1626.1,200.8,1628.9,200.7,1631.6,200.7 M1631.6,199
			c-2.8,0-5.6,0.1-8.4,0.3c-2.9,0.2-5.8,0.5-8.8,1c-12.9,1.9-25.4,6-37.1,12c-0.4,0.2-0.9,0.4-1.3,0.7c-13.6,7.2-25.9,17-36.6,29.1
			c-1.5,1.7-2.9,3.4-4.3,5.1c-0.4,0.4-0.7,0.9-1.2,1.5c-5.7,7.3-10.7,15.3-15,23.7c-1.4,2.7-2.7,5.5-3.9,8.3
			c-4.3,9.9-7.6,20.4-9.8,31.2c-0.2,1.2-0.5,2.4-0.7,3.6c-0.9,4.9-1.5,9.9-2,14.8c0,0.4-0.1,0.9-0.1,1.3
			c-0.8,10.5-0.6,21.1,0.7,31.7c0.8,6.4,1.9,12.8,3.4,18.9c5.2,21.5,14.8,41.6,28,58.3c12.9,16.3,29.2,29.4,47.1,37.8
			c0.9,0.4,1.9,0.9,2.9,1.3c14.9,6.5,30.6,9.8,46.7,9.8c5.7,0,11.5-0.4,17.2-1.3c22.7-3.4,44.1-13.4,62.1-29.1
			c5.6-4.9,11-10.4,15.9-16.4c0.3-0.4,0.6-0.7,0.9-1.1c11.6-14.4,20.4-30.9,26.1-49.2c3.6-11.5,5.9-23.5,6.9-35.7
			c0.8-10.5,0.6-21.2-0.7-31.8c-0.9-7.4-2.3-14.7-4.1-21.8c-0.1-0.5-0.3-1-0.4-1.5c-1.6-6-3.6-12-6-17.7c-15.2-37.5-44-66.1-79-78.5
			c-0.8-0.3-1.5-0.5-2.1-0.7c-11.3-3.8-23-5.7-34.8-5.9C1632.8,199,1632.2,199,1631.6,199L1631.6,199z"/>
		<path class="st12" d="M1748.5,284.5c-15.2-37.5-44-65.8-78.5-78c-4.5,0.5-8.7,2-12.3,6c-5.5,6-2.1,15.2-1.6,22.7
			c-7.8,1.6-21.8-0.6-25.5,8.1c-1.2,2.7-1.3,5.1-3.1,7.7c-1.9,2.7-3.1,4.4-4.7,7.6c-1,1.9-1.3,3.4-3,4.2c-0.7,8.5,14.2,2.4,18.6,1.8
			c4.6-0.7,12.9,0.7,16.6-2c2.2-1.6,2-6.1,4-7.1c2.8-1.4,4.5,3.5,5.9,5.1c3.1,3.6,5.7,4.5,9.9,4.1c3.1-0.3,6.2-1.4,9.3-1.4
			c2.2,0,3.8,1.2,5.6,1.8c-1.9,1.4-2.6,5-5,6.3c-3.5,1.8-9,2.3-12.8,3c-5.1,1-4.9-2-8.5-4.6c-4.1-3-6.6-2.5-11.5-2.1
			c-7.8,0.7-22.4,1.3-28,7.8c-2.7,3.2-1.2,7-3.7,10.1c-4.2,5.1-13.4,5.5-16,12.2c-2.2,5.9,1.3,16.8,2.6,22.2c2,8,2.7,15.1,10.5,17.2
			c7.3,2,16,1.2,23.5,1.7c4.1,0.3,8.9-1.3,10.7,3.3c0.9,2.3,0.6,5.7,1.4,8.1c1.6,5.2,5.2,7.1,9,10.2c4,3.2,3.9,5.7,4.6,11.6
			c1,8.6,2.3,13.4,6.2,20.8c1.7,3.2,2.9,7.1,3.3,11c0.8,6.7-0.3,12.2-4.2,16.6c-4.8,5.4-9.3,11.5-4.7,18.2c4.9,3,13.9-1.1,17.7-4.7
			c6.5-6.2,11.6-10,19.9-13.2c14.8-5.7,4-20.9,8-33.3c1.2-3.7,4.2-5.8,5.4-9.2c1.4-4.1,1-9.1,0.5-13.4c-0.9-7.6-3-14.7-3.9-22.3
			c-0.8-7,0.8-6.7,4.5-10.4c4.3-4.4,2.9-9.7,2.2-16c-0.2-1.7-0.4-3.5-0.7-5.2c-3.1-0.8-6-1.5-9.2-2.3c-1.9-0.4-6.1-0.6-7.6-1.8
			c-4.5-3.7-7.9-17.5-8.1-23.5c9.6-3.9,10.7,17.2,20.6,16.2c10.9-1.1,11-8.7,9.4-18.4c-7.4,0.7-9.2,1.1-9.9-8.2
			c3.6-1.3,7.3,1.2,10.2,3c2,1.2,5,1.5,6.8,2.7c4.5,3.1,3.1,10.9,7.1,14.9c1.7,0.2,3,1.3,3.6,3.1c4.1,1.8,7.1,9.5,10.9,12.6
			c-0.2-2.3-0.2-4.7-0.2-7.1C1752.8,296.1,1750.8,290.2,1748.5,284.5z"/>
		<path class="st12" d="M1670,206.5c34.5,12.2,63.4,40.5,78.5,78c2.3,5.7,4.3,11.6,5.9,17.6c0,2.4,0,4.7,0.2,7.1
			c-3.8-3.1-6.8-10.8-10.9-12.6c-0.6-1.8-1.9-2.9-3.6-3.1c-4-4-2.6-11.8-7.1-14.9c-1.8-1.3-4.8-1.5-6.8-2.7
			c-2.4-1.5-5.3-3.4-8.2-3.4c-0.7,0-1.4,0.1-2.1,0.3c0.5,7,1.7,8.5,5.4,8.5c1.2,0,2.6-0.1,4.4-0.3c1.6,9.7,1.6,17.2-9.4,18.4
			c-0.2,0-0.5,0-0.7,0c-8.4,0-10.2-16.7-17.6-16.7c-0.7,0-1.5,0.2-2.3,0.5c0.2,6,3.6,19.8,8.1,23.5c1.5,1.2,5.7,1.4,7.6,1.8
			c3.2,0.8,6.1,1.5,9.2,2.3c0.3,1.7,0.5,3.5,0.7,5.2c0.7,6.3,2.1,11.6-2.2,16c-3.7,3.8-5.3,3.4-4.5,10.4c0.9,7.6,2.9,14.7,3.9,22.3
			c0.5,4.3,1,9.3-0.5,13.4c-1.2,3.4-4.2,5.6-5.4,9.2c-4,12.4,6.8,27.6-8,33.3c-8.3,3.2-13.4,7-19.9,13.2c-2.9,2.7-8.7,5.8-13.5,5.8
			c-1.5,0-3-0.3-4.1-1c-4.6-6.7,0-12.8,4.8-18.2c3.9-4.4,5-10,4.2-16.6c-0.5-3.9-1.7-7.8-3.3-11c-3.9-7.4-5.1-12.2-6.2-20.8
			c-0.7-5.9-0.7-8.4-4.6-11.6c-3.8-3.1-7.4-5-9-10.2c-0.7-2.4-0.4-5.8-1.4-8.1c-1.2-2.9-3.5-3.4-6.1-3.4c-1.2,0-2.4,0.1-3.6,0.1
			c-0.4,0-0.7,0-1.1,0c-7.4-0.5-16.2,0.3-23.5-1.7c-7.8-2.1-8.5-9.2-10.5-17.2c-1.3-5.4-4.9-16.4-2.6-22.2c2.6-6.7,11.8-7.1,16-12.2
			c2.6-3.1,1-6.9,3.7-10.1c5.6-6.5,20.2-7.1,28-7.8c1.8-0.2,3.2-0.3,4.6-0.3c2.3,0,4.3,0.5,6.9,2.4c3.1,2.3,3.4,4.8,6.8,4.8
			c0.5,0,1.1-0.1,1.8-0.2c3.7-0.7,9.3-1.1,12.8-3c2.4-1.3,3.1-4.9,5-6.3c-1.8-0.6-3.4-1.8-5.6-1.8c-0.1,0-0.1,0-0.2,0
			c-3,0-6.1,1.1-9.1,1.4c-0.6,0.1-1.2,0.1-1.7,0.1c-3.3,0-5.5-1.1-8.2-4.2c-1.2-1.4-2.7-5.3-4.9-5.3c-0.3,0-0.6,0.1-1,0.2
			c-2,1-1.8,5.5-4,7.1c-2.3,1.7-6.3,1.8-10.1,1.8c-0.6,0-1.2,0-1.8,0c-1.7,0-3.4,0-4.7,0.2c-2.6,0.4-9,2.7-13.6,2.7
			c-3.1,0-5.3-1.1-5-4.5c1.7-0.7,2.1-2.2,3-4.2c1.6-3.2,2.8-4.9,4.7-7.6c1.8-2.7,2-5.1,3.1-7.7c3.8-8.7,17.8-6.5,25.5-8.1
			c-0.5-7.5-3.9-16.7,1.6-22.7C1661.3,208.5,1665.5,207,1670,206.5 M1670.2,204.8l-0.3,0c-5.5,0.6-9.8,2.7-13.2,6.5
			c-4.7,5.2-3.7,12.4-2.7,18.7c0.2,1.3,0.4,2.6,0.5,3.8c-1.7,0.2-3.6,0.4-5.6,0.5c-7.7,0.5-16.5,1-19.6,8.3
			c-0.5,1.1-0.8,2.1-1.1,3.1c-0.5,1.6-0.9,2.9-1.9,4.3l-0.3,0.4c-1.7,2.5-3,4.3-4.5,7.4c-0.2,0.4-0.4,0.8-0.5,1.1
			c-0.6,1.4-0.9,1.9-1.7,2.3l-0.9,0.4l-0.1,1.1c-0.1,1.8,0.2,3.2,1.1,4.3c1.1,1.4,2.9,2,5.4,2c3.2,0,7.1-1,10.2-1.9
			c1.5-0.4,2.8-0.7,3.6-0.9c1.3-0.2,2.9-0.2,4.5-0.2l0.9,0l0.9,0c4.3,0,8.3-0.2,11-2c1.5-1.1,2.1-3,2.7-4.6c0.3-0.9,0.7-2.1,1.1-2.3
			c0.1-0.1,0.3-0.1,0.4-0.1c0.8,0,1.8,1.7,2.5,2.9c0.4,0.7,0.9,1.4,1.3,1.9c2.9,3.4,5.5,4.7,9.3,4.7c0.6,0,1.2,0,1.9-0.1
			c1.4-0.1,2.7-0.4,4-0.7c1.7-0.4,3.3-0.7,4.9-0.7l0.2,0c1.1,0,2,0.4,3,0.8c-0.2,0.4-0.5,0.8-0.7,1.2c-0.7,1.2-1.3,2.3-2.3,2.8
			c-2.4,1.3-6,1.8-9.2,2.3c-1.1,0.2-2.2,0.3-3.1,0.5c-0.6,0.1-1.1,0.2-1.5,0.2c-1.5,0-2-0.6-3.1-1.8c-0.7-0.8-1.6-1.8-2.8-2.7
			c-2.6-1.9-4.9-2.7-7.8-2.7c-1.2,0-2.4,0.1-3.9,0.3l-0.8,0.1c-0.8,0.1-1.6,0.1-2.4,0.2c-8.4,0.7-21,1.8-26.5,8.1
			c-1.7,2-2.1,4.2-2.4,6.1c-0.3,1.6-0.5,2.9-1.4,4c-1.6,1.9-4.1,3.1-6.7,4.4c-3.9,1.9-7.8,3.8-9.5,8.3c-2.1,5.6,0.3,14.7,1.9,20.7
			c0.3,1,0.5,1.9,0.7,2.6c0.2,0.9,0.4,1.8,0.6,2.7c1.6,7,3.1,13.7,11,15.8c5.2,1.4,10.9,1.4,16.5,1.5c2.6,0,5,0,7.3,0.2
			c0.4,0,0.7,0,1.1,0c0.6,0,1.3,0,1.9,0c0.6,0,1.2,0,1.7,0c2.8,0,4,0.6,4.7,2.4c0.4,1,0.5,2.4,0.7,3.8c0.1,1.4,0.3,2.8,0.7,4.1
			c1.5,4.8,4.4,7.1,7.6,9.5c0.6,0.5,1.3,1,2,1.5c3.1,2.5,3.3,4.2,3.8,9c0,0.4,0.1,0.9,0.2,1.4c1.1,9.3,2.5,14.1,6.4,21.5
			c1.6,3,2.7,6.7,3.1,10.4c0.8,6.6-0.4,11.4-3.7,15.2c-3.7,4.2-10.6,12-4.9,20.5l0.2,0.3l0.3,0.2c1.3,0.8,3,1.2,4.9,1.2
			c5.2,0,11.4-3.2,14.5-6.2c6.2-5.9,11.1-9.7,19.4-12.9c4.7-1.8,7.5-4.8,8.6-9c0.9-3.6,0.5-7.6,0-11.9c-0.5-4.6-1-9.3,0.3-13.6
			c0.5-1.6,1.5-2.9,2.5-4.3c1.1-1.4,2.2-2.9,2.8-4.8c1.6-4.5,1.1-9.7,0.6-14.3c-0.5-3.8-1.2-7.6-1.9-11.2c-0.7-3.6-1.5-7.3-1.9-11.1
			c-0.6-4.7-0.1-5.2,2-7.1c0.6-0.5,1.2-1.1,2-1.9c4.4-4.5,3.7-9.7,3-15.3c-0.1-0.7-0.2-1.5-0.3-2.2l-0.1-0.5
			c-0.2-1.6-0.4-3.2-0.6-4.8l-0.2-1.1l-1-0.3c-2.8-0.8-5.5-1.4-8.3-2.1l-0.9-0.2c-0.6-0.1-1.4-0.3-2.3-0.4c-1.5-0.2-4-0.6-4.7-1.2
			c-3.7-3-6.8-14.6-7.4-20.8c0.2,0,0.4-0.1,0.7-0.1c2.7,0,4.8,3.5,6.9,7.2c2.6,4.5,5.5,9.6,10.7,9.6c0.3,0,0.6,0,0.8,0
			c4.6-0.5,7.7-2.1,9.5-4.8c2.5-3.7,2.3-8.9,1.2-15.6l-0.3-1.5l-1.4,0.1l-0.6,0.1c-1.5,0.1-2.7,0.2-3.7,0.2c-2.2,0-3.3,0-3.8-5.4
			c0.1,0,0.3,0,0.4,0c2.3,0,4.8,1.5,6.9,2.9l0.5,0.3c1.1,0.7,2.4,1.1,3.7,1.5c1.2,0.4,2.3,0.7,3,1.2c1.9,1.3,2.5,3.7,3.2,6.5
			c0.7,2.8,1.5,5.9,3.7,8.2l0.4,0.4l0.5,0.1c1.1,0.1,1.9,0.8,2.3,2l0.2,0.7l0.6,0.3c1.9,0.8,3.8,3.6,5.5,6.2c1.5,2.3,3.1,4.7,5,6.2
			l2.8,2.2l-0.4-3.8c-0.2-2.3-0.2-4.8-0.2-6.9v-0.3l-0.1-0.2c-1.6-6-3.7-12-6-17.8c-15.3-37.7-44.2-66.5-79.5-78.9L1670.2,204.8
			L1670.2,204.8z"/>
		<path class="st12" d="M1587.3,457.1c0.1-6.9-7.4-9.8-8.8-15.6c-1.6-7,3.8-11.7,5-17.7c0.7-3.3-0.7-7.9-0.6-11.4
			c3.6-1.3,4.8-2.1,7.1-5.3c2.7-3.9,5-4.6,8.3-7.6c5.9-5.2,9-12,7.2-20.6c-1.8-8.7-5.8-19.4-14-22.2c-4-1.3-5,0.5-6.8-3.8
			c-1.1-2.8-1-6.2-1.9-9.1c-4.5-2.3-9.5-5.2-14.3-7.2c-4.9-2-11.3-5.6-16.8-5.6c-2.7,0-4.9,0.6-7,2c-0.7,0.4-0.3,1.9-1.3,2.4
			c-1.1,0.6-3.4,0.4-4.6,0.2c-5.9-0.9-14.6-7.1-16.7-13.1c-0.7-2-0.6-4.4-1.6-6.2c-0.8-1.4-2.6-2.1-3.6-3.5c-2.2-3-4-7.6,0.3-10.3
			c3.8-2.3,5.4,0.9,8.8,1.6c4.8,1,9.3-2,13.3-4.5c-0.3-4.1,3.1-9.6,5.4-12.5c3-4,7.1-6.6,10.4-10.1c2.2-2.3,4.2-4.9,6.6-6.9
			c3.8-3.1,20.7-8.7,13.5-16.2c-2.7-2.8-7-4-9.5-7.8c-0.9-1.4-1.2-2.9-2-4.4c-3.4-6.4-7.1-4.9-12.6-1.9c-4.9,2.7-6.1,8.5-12.4,8.4
			c-1.1,0-2.1-0.1-3.1-0.3c-0.4,0.5-0.8,1-1.2,1.5c-5.7,7.3-10.7,15.2-14.9,23.6c-1.4,2.7-2.7,5.5-3.9,8.3c-4.3,9.8-7.5,20.2-9.7,31
			c-0.2,1.2-0.5,2.4-0.7,3.6c-0.9,4.8-1.5,9.8-1.9,14.7c0,0.4-0.1,0.8-0.1,1.3c2.7,0.7,4.5-3.4,7.8-2.1c3.5,1.4,5,9.4,8.4,12.1
			c5.4,4.2,13.7-2.2,18.2,5.1c6.3,10,0.1,31,10.3,37.8c4.2,2.8,5.1,1.3,5.4,8.3c0.3,6,0.1,12,2.1,17.7c2.2,6.1,6.5,9.6,7.7,16.1
			c1,5.5,1.8,8.3,4.7,12.7c3.3,4.8,6.4,9.3,9.4,14.3C1580.7,459.3,1581.5,458.1,1587.3,457.1z"/>
		<path class="st12" d="M1558.3,237.1c2.1,0,3.9,1.2,5.6,4.5c0.8,1.5,1.1,3,2,4.4c2.5,3.8,6.8,5,9.5,7.8c7.2,7.5-9.7,13.1-13.5,16.2
			c-2.4,2-4.4,4.6-6.6,6.9c-3.3,3.5-7.4,6.1-10.4,10.1c-2.2,2.9-5.6,8.5-5.4,12.5c-3.5,2.1-7.3,4.7-11.4,4.7c-0.6,0-1.3-0.1-1.9-0.2
			c-2.6-0.5-4.1-2.4-6.2-2.4c-0.8,0-1.6,0.2-2.6,0.8c-4.3,2.6-2.6,7.3-0.3,10.3c1,1.4,2.8,2.1,3.6,3.5c1.1,1.9,0.9,4.2,1.6,6.2
			c2.1,6,10.8,12.3,16.7,13.1c0.6,0.1,1.5,0.2,2.4,0.2c0.8,0,1.7-0.1,2.2-0.4c1-0.6,0.6-2,1.3-2.4c2.1-1.3,4.2-2,6.9-2
			c0.1,0,0.1,0,0.2,0c5.5,0.1,11.9,3.6,16.8,5.6c4.8,2,9.8,4.9,14.3,7.2c0.9,2.8,0.7,6.3,1.9,9.1c1.8,4.3,2.8,2.5,6.8,3.8
			c8.1,2.8,12.1,13.5,14,22.2c1.8,8.5-1.3,15.4-7.2,20.6c-3.3,2.9-5.6,3.6-8.3,7.6c-2.3,3.3-3.5,4.1-7.1,5.3
			c-0.1,3.5,1.3,8.1,0.6,11.4c-1.2,6-6.6,10.7-5,17.7c1.3,5.8,8.9,8.8,8.8,15.6c-2.3,0.4-3.8,0.8-5,0.8c-1.8,0-2.9-1-4.9-4.3
			c-3-5-6.1-9.5-9.4-14.3c-3-4.4-3.7-7.2-4.7-12.7c-1.2-6.5-5.6-10-7.7-16.1c-2-5.6-1.8-11.6-2.1-17.7c-0.3-6.9-1.1-5.4-5.4-8.3
			c-10.2-6.8-4-27.8-10.3-37.8c-2-3.1-4.6-3.7-7.4-3.7c-1.7,0-3.5,0.2-5.3,0.2c-2,0-3.9-0.3-5.6-1.6c-3.4-2.7-4.9-10.8-8.4-12.1
			c-0.5-0.2-0.9-0.3-1.3-0.3c-2.3,0-3.9,2.5-5.9,2.5c-0.2,0-0.4,0-0.6-0.1c0-0.4,0.1-0.8,0.1-1.3c0.4-5,1.1-9.9,1.9-14.7
			c0.2-1.2,0.4-2.4,0.7-3.6c2.2-10.8,5.5-21.2,9.7-31c1.2-2.8,2.5-5.6,3.9-8.3c4.3-8.4,9.3-16.3,14.9-23.6c0.4-0.5,0.8-1,1.2-1.5
			c1,0.2,2,0.3,3.1,0.3c0.1,0,0.1,0,0.2,0c6.2,0,7.4-5.7,12.2-8.4C1554,238.2,1556.2,237.1,1558.3,237.1 M1558.3,235.4L1558.3,235.4
			c-2.4,0-5,1.3-7.7,2.8c-2.1,1.2-3.6,2.8-4.9,4.3c-2,2.2-3.5,3.9-6.7,3.9c-0.1,0-0.1,0-0.2,0c-0.9,0-1.8-0.1-2.9-0.3l-0.8-0.1
			l-0.6,0.7c-0.4,0.5-0.8,0.9-1.2,1.5c-5.7,7.4-10.8,15.4-15.1,23.9c-1.4,2.7-2.7,5.5-3.9,8.4c-4.3,10-7.6,20.6-9.8,31.4
			c-0.2,1.2-0.5,2.4-0.7,3.7c-0.9,4.9-1.5,9.9-2,14.9c0,0.4-0.1,0.9-0.1,1.3l-0.1,1.5l1.3,0.3c0.3,0.1,0.6,0.1,1,0.1
			c1.4,0,2.5-0.7,3.5-1.4c0.9-0.6,1.6-1.1,2.4-1.1c0.3,0,0.5,0.1,0.8,0.2c1.3,0.5,2.5,3,3.7,5.3c1.2,2.5,2.5,5.1,4.4,6.6
			c2.2,1.7,4.6,1.9,6.4,1.9c0.9,0,1.8-0.1,2.7-0.1c0.9-0.1,1.7-0.1,2.6-0.1c2.6,0,4.6,0.5,6.1,3c2.5,3.9,2.8,10.2,3.2,16.2
			c0.5,8.7,1.1,17.7,7.5,22c1,0.7,1.8,1.1,2.5,1.5c1,0.5,1.4,0.7,1.6,1.1c0.3,0.6,0.5,1.9,0.6,4.2c0,1,0.1,2,0.1,3
			c0.2,5,0.3,10.2,2.1,15.2c1,2.8,2.4,5.1,3.8,7.2c1.7,2.7,3.3,5.2,3.9,8.6c1.1,5.8,1.9,8.8,5,13.3c0.6,0.8,1.1,1.6,1.7,2.4
			c2.7,3.9,5.3,7.7,7.7,11.8c2,3.4,3.5,5.1,6.1,5.1c0.9,0,2-0.2,3.2-0.5c0.6-0.1,1.3-0.3,2-0.4l1.3-0.2l0-1.4
			c0.1-4.6-2.6-7.6-5-10.3c-1.7-1.9-3.3-3.7-3.8-5.8c-0.9-3.7,0.7-6.8,2.3-10.1c1.1-2.1,2.2-4.3,2.7-6.8c0.5-2.3,0.1-4.9-0.2-7.4
			c-0.1-1.1-0.3-2.2-0.3-3.2c3-1.1,4.5-2.3,6.7-5.5c1.6-2.4,3.1-3.4,4.9-4.8c0.9-0.7,2-1.5,3.1-2.5c6.9-6.1,9.5-13.8,7.7-22.3
			c-1.9-9-6-20.4-15-23.4c-1.4-0.5-2.5-0.6-3.3-0.7c-1.4-0.2-1.7-0.2-2.5-2.2c-0.5-1.3-0.7-2.8-1-4.5c-0.2-1.5-0.4-3-0.9-4.5
			l-0.2-0.7l-0.6-0.3c-1.1-0.6-2.3-1.2-3.5-1.9c-3.6-1.9-7.3-3.9-10.9-5.4c-1-0.4-2-0.9-3.2-1.4c-4.5-2-9.5-4.3-14.1-4.4l-0.2,0
			c-2.9,0-5.3,0.7-7.6,2.2c-0.9,0.6-1.1,1.5-1.2,2.1c0,0.1-0.1,0.3-0.1,0.3c-0.2,0.1-0.6,0.2-1.4,0.2c-0.8,0-1.6-0.1-2.2-0.2
			c-5.3-0.8-13.6-6.6-15.5-12.1c-0.2-0.7-0.4-1.5-0.5-2.3c-0.2-1.4-0.5-2.9-1.2-4.3c-0.6-1-1.4-1.7-2.3-2.3
			c-0.6-0.4-1.1-0.9-1.5-1.3c-1.4-1.9-2.1-3.9-1.9-5.3c0.2-0.9,0.7-1.7,1.8-2.4c0.7-0.4,1.3-0.6,1.9-0.6c0.8,0,1.6,0.4,2.5,1
			c1,0.5,2.1,1.2,3.5,1.4c0.7,0.1,1.5,0.2,2.2,0.2c4.2,0,8.1-2.4,11.5-4.5l0.7-0.4l0.9-0.5l-0.1-1.1c-0.2-3,2.4-7.8,5-11.3
			c1.7-2.3,3.8-4.1,6-6c1.4-1.2,2.9-2.5,4.3-4c0.8-0.8,1.5-1.6,2.2-2.5c1.4-1.6,2.7-3.1,4.2-4.3c0.8-0.6,2.4-1.5,4-2.4
			c5-2.7,11.2-6,11.8-10.7c0.3-2-0.5-3.9-2.2-5.7c-1.2-1.3-2.7-2.2-4.2-3.2c-2-1.3-3.8-2.4-5.1-4.4c-0.5-0.7-0.7-1.4-1-2.2
			c-0.3-0.7-0.5-1.3-0.9-2.1C1563.3,237.1,1561,235.4,1558.3,235.4L1558.3,235.4L1558.3,235.4z"/>
		<path class="st12" d="M1580.6,237.8c2.7,3.7,11.4,4.9,15,1.9c3.3-2.8,3.5-7.8,8.7-10.2c4-1.8,13.2-0.9,15.7-5.4
			c2.1-3.9-2.2-9.8,0.2-13.3c1.9-2.7,7.1-1.3,9.4-3.8c0.7-0.7,3.3-5.7,3.6-6.7c0-0.2,0.1-0.3,0.1-0.5c-3.3-0.1-6.7,0-10.1,0.3
			c-2.9,0.2-5.8,0.5-8.7,1c-13.1,2-25.5,6-36.9,11.9c-0.4,0.2-0.9,0.4-1.3,0.7c0.9,1.4,1.8,2.9,2.4,4.9
			C1580.7,224.9,1576.3,231.9,1580.6,237.8z"/>
		<path class="st12" d="M1631.6,199.9c0.6,0,1.1,0,1.7,0c0,0.1-0.1,0.3-0.1,0.5c-0.3,1-2.9,6-3.6,6.7c-2.3,2.4-7.5,1.1-9.4,3.8
			c-2.5,3.4,1.9,9.4-0.2,13.3c-2.5,4.5-11.6,3.6-15.7,5.4c-5.2,2.4-5.3,7.4-8.7,10.2c-1.4,1.2-3.6,1.7-5.9,1.7
			c-3.6,0-7.5-1.3-9.2-3.6c-4.3-5.9,0.1-12.9-1.7-19.1c-0.6-2-1.5-3.5-2.4-4.9c0.4-0.2,0.9-0.5,1.3-0.7c11.4-5.9,23.8-10,36.9-11.9
			c2.9-0.4,5.8-0.8,8.7-1C1626.1,200,1628.8,199.9,1631.6,199.9 M1631.6,198.2c-2.8,0-5.6,0.1-8.4,0.3c-2.9,0.2-5.9,0.5-8.8,1
			c-13,1.9-25.5,6-37.3,12.1c-0.4,0.2-0.9,0.5-1.3,0.7l-1.6,0.9l1.1,1.7l0,0.1c0.9,1.4,1.7,2.6,2.2,4.4c0.7,2.2,0.4,4.7,0.1,7.3
			c-0.5,3.9-1,8.3,1.9,12.3c2.1,2.9,6.7,4.2,10.3,4.2c2.8,0,5.2-0.7,6.8-2c1.6-1.3,2.5-3,3.4-4.6c1.2-2.1,2.3-4.1,4.9-5.3
			c1.3-0.6,3.2-0.9,5.3-1.2c4.3-0.6,9.1-1.4,11.1-4.9c1.4-2.5,0.8-5.4,0.2-8c-0.5-2.5-0.8-4.1-0.1-5.1c0.6-0.9,2.2-1.1,3.8-1.4
			c1.9-0.3,4-0.7,5.5-2.2c0.9-0.9,3.7-6.2,4-7.4l0.1-0.2l0.1-0.2l0.6-2.2l-2,0C1632.8,198.2,1632.2,198.2,1631.6,198.2L1631.6,198.2
			z"/>
		<path class="st12" d="M1683.5,452.5c-5.1,1.6-10.2,1.9-15.3,1.8c-5.2-0.1-14,0.3-18.4,3.5c-2.8,2.1-2.5,6.1-4.9,8.6
			c-2.2,2.2-6.8,2.1-9.7,3.5c0.1,3,2.2,4.9,2.1,8.3c-8.7,1.8-20,4.3-28.1-0.4c-7.7-4.5-1.1-10.9-4.3-17.8c-2.2-4.8-5.9-4.5-9.3-1.7
			c-3.9,3.3-4.5,8.3-6.6,12.4c-1.4,2.7-5.7,2.6-6.7,5.6c-0.1,0.4-0.2,0.9-0.2,1.3c1,0.5,2,0.9,2.9,1.3c19.5,8.5,41.2,11.8,63.5,8.5
			c23.3-3.5,44.4-13.8,61.7-28.9c5.7-4.9,10.9-10.4,15.8-16.3c-1.2-0.6-2.7-0.6-4.7-0.5C1708,442.3,1695.7,448.6,1683.5,452.5z"/>
		<path class="st12" d="M1722.8,441.8c1.2,0,2.2,0.1,3.1,0.5c-4.8,5.9-10.1,11.3-15.8,16.3c-17.4,15.1-38.4,25.4-61.7,28.9
			c-5.7,0.9-11.4,1.3-17.1,1.3c-16.2,0-31.9-3.4-46.4-9.8c-1-0.4-2-0.9-2.9-1.3c0-0.4,0.1-0.9,0.2-1.3c1-3,5.3-2.9,6.7-5.6
			c2.2-4.1,2.7-9.2,6.6-12.4c1.5-1.3,3.2-2,4.7-2c1.8,0,3.5,1.1,4.7,3.7c3.2,6.9-3.4,13.3,4.3,17.8c3.4,2,7.5,2.7,11.6,2.7
			c5.6,0,11.5-1.3,16.5-2.3c0.1-3.3-2-5.3-2.1-8.3c2.8-1.4,7.4-1.2,9.7-3.5c2.4-2.5,2.1-6.5,4.9-8.6c4-3,11.8-3.5,17-3.5
			c0.5,0,0.9,0,1.4,0c0.6,0,1.1,0,1.7,0c4.6,0,9.1-0.4,13.6-1.8c12.2-3.9,24.5-10.2,37.7-10.7
			C1721.7,441.8,1722.3,441.8,1722.8,441.8 M1722.8,440.1c-0.5,0-1.1,0-1.7,0c-9.8,0.4-19.1,3.8-28.1,7.2c-3.3,1.2-6.7,2.5-10,3.6
			c-3.8,1.2-8,1.8-13.2,1.8c-0.6,0-1.1,0-1.7,0c-0.4,0-0.9,0-1.4,0c-5.8,0-13.6,0.7-17.9,3.8c-1.9,1.4-2.6,3.5-3.3,5.3
			c-0.5,1.4-0.9,2.6-1.8,3.5c-1,1-3,1.5-5,1.9c-1.5,0.3-3,0.7-4.3,1.3l-1,0.5l0.1,1.2c0.1,1.7,0.6,3.1,1.2,4.4
			c0.3,0.8,0.7,1.6,0.8,2.4c-4.7,1-9.8,2-14.8,2c-4.5,0-8-0.8-10.9-2.5c-3.6-2.1-3.3-4.3-2.8-7.9c0.3-2.7,0.7-5.9-0.8-9.2
			c-1.8-3.8-4.3-4.6-6-4.6c-1.8,0-3.7,0.8-5.6,2.4c-3,2.5-4.2,5.8-5.4,8.9c-0.5,1.4-1,2.8-1.7,4c-0.4,0.8-1.5,1.3-2.6,1.8
			c-1.6,0.8-3.5,1.7-4.3,4c-0.2,0.6-0.3,1.2-0.3,1.8l0,1.2l1,0.5c1,0.4,2,0.9,3,1.3c15,6.6,30.8,9.9,46.9,9.9
			c5.7,0,11.6-0.4,17.3-1.3c22.8-3.4,44.4-13.5,62.5-29.2c5.7-4.9,11.1-10.5,16-16.5l1.4-1.8l-1.9-1
			C1725.3,440.2,1724,440.1,1722.8,440.1L1722.8,440.1z"/>
	</g>
	<g class="st8">
		<path class="st12" d="M1919.5,544.7c0,0,13-6.9,3.3-15.4c-8.7-7.6-4-12,0.9-16.4c0,0-22.7,8.9-5.2,21
			C1925.7,538.9,1919.5,544.7,1919.5,544.7z"/>
		<path class="st12" d="M1939.7,556.5c0,0,13-6.9,3.3-15.4c-8.7-7.6-4-12,0.9-16.4c0,0-22.7,8.9-5.2,21
			C1945.9,550.7,1939.7,556.5,1939.7,556.5z"/>
		<g>
			<g>
				<path class="st12" d="M1974.8,563.8h-44.6h-44.6c-2.1,6-3.4,12.5-3.4,19.2c0,29,21.3,52.7,48,53.7c26.7-0.9,48-24.6,48-53.7
					C1978.2,576.2,1976.9,569.8,1974.8,563.8z"/>
				<g>
					<path class="st12" d="M1976.4,570.4c-8.4,0-15.2,7.2-15.2,16c0,8.9,6.8,16,15.2,16c8.4,0,15.2-7.2,15.2-16
						C1991.6,577.5,1984.8,570.4,1976.4,570.4z M1976.4,597.6c-5.9,0-10.6-5-10.6-11.2c0-6.2,4.7-11.2,10.6-11.2
						c5.9,0,10.6,5,10.6,11.2C1987,592.6,1982.3,597.6,1976.4,597.6z"/>
				</g>
			</g>
		</g>
	</g>
	<path class="st3" d="M1715.6,1318.6c-3-13.3-11.5-22-11.7-21.6c0,0-10-10.1-23.9-10c-13.9-0.1-24,10-24,10
		c-0.3-0.5-8.8,8.3-11.7,21.6c-3,13.3,2.6,24.4,2.6,24.4c6.2,15.5,13.6,25.7,13.6,25.7c4.6,8,19.5,27.8,19.5,27.8
		s14.9-19.8,19.5-27.8c0,0,7.4-10.1,13.6-25.7C1713.1,1342.9,1718.6,1331.8,1715.6,1318.6z M1679.9,1345.3
		c-10.1,0-18.4-9.2-18.4-20.6c0-11.4,8.2-20.6,18.4-20.6c10.1,0,18.4,9.2,18.4,20.6C1698.3,1336,1690.1,1345.3,1679.9,1345.3z"/>
	<path class="st3" d="M132.7,473.3c-3.5-15.8-13.7-26.3-14-25.7c0,0-11.9-12.1-28.5-11.9c-16.6-0.1-28.5,11.9-28.5,11.9
		c-0.3-0.5-10.4,9.9-14,25.7c-3.5,15.8,3.1,29,3.1,29c7.3,18.5,16.2,30.6,16.2,30.6c5.5,9.5,23.2,33.1,23.2,33.1
		s17.7-23.6,23.2-33.1c0,0,8.9-12.1,16.2-30.6C129.6,502.4,136.2,489.1,132.7,473.3z M90.2,505.1c-12.1,0-21.9-11-21.9-24.6
		c0-13.6,9.8-24.6,21.9-24.6c12.1,0,21.9,11,21.9,24.6C112.1,494.1,102.3,505.1,90.2,505.1z"/>
	<path class="st3" d="M1580.2,81.3c-3.5-15.8-13.7-26.3-14-25.7c0,0-11.9-12.1-28.5-12c-16.6-0.1-28.5,12-28.5,12
		c-0.3-0.5-10.4,9.9-14,25.7c-3.5,15.8,3.1,29,3.1,29c7.3,18.5,16.2,30.6,16.2,30.6c5.5,9.5,23.2,33.1,23.2,33.1
		s17.7-23.6,23.2-33.1c0,0,8.9-12.1,16.2-30.6C1577.1,110.3,1583.7,97.1,1580.2,81.3z M1537.7,113.1c-12.1,0-21.9-11-21.9-24.6
		c0-13.6,9.8-24.6,21.9-24.6c12.1,0,21.9,11,21.9,24.6C1559.6,102.1,1549.8,113.1,1537.7,113.1z"/>
</g>
<g>
	<g>
		<g>
			<g>
				<line class="st6" x1="1412.5" y1="1110.8" x2="1611.5" y2="854.3"/>
				<g>
					
						<rect x="1497.7" y="854.2" transform="matrix(0.7901 0.613 -0.613 0.7901 926.4623 -710.3088)" class="st6" width="5.4" height="286.7"/>
					<g>
						<polygon class="st6" points="1611.5,854.3 1596,910 1586.5,886.6 1561.4,883.2 						"/>
					</g>
				</g>
			</g>
		</g>
		<g>
			<g>
				<line class="st6" x1="1491.7" y1="1095.7" x2="1690.7" y2="839.2"/>
				<g>
					
						<rect x="1576.9" y="839.1" transform="matrix(0.79 0.6131 -0.6131 0.79 934.1061 -762.1639)" class="st6" width="5.4" height="286.7"/>
					<g>
						<polygon class="st6" points="1690.7,839.2 1675.2,894.9 1665.7,871.4 1640.7,868 						"/>
					</g>
				</g>
			</g>
		</g>
		<g>
			<g>
				<line class="st6" x1="1567" y1="1085.9" x2="1766" y2="829.4"/>
				<g>
					
						<rect x="1652.2" y="829.3" transform="matrix(0.7899 0.6132 -0.6132 0.7899 944.1235 -810.4681)" class="st6" width="5.4" height="286.7"/>
					<g>
						<polygon class="st6" points="1766,829.4 1750.5,885.1 1741,861.6 1716,858.3 						"/>
					</g>
				</g>
			</g>
		</g>
	</g>
</g>
<g>
	<g>
		<g>
			<g>
				<polygon class="st6" points="403.9,970.7 205.7,970.7 205.7,778.2 209.7,778.2 209.7,968.3 403.9,968.3 				"/>
				<g>
					<path class="st6" d="M208.4,750.4c-4.5,12.2-12.3,27.4-20.4,36.8l20.4-7.4l20.4,7.4C220.7,777.7,212.9,762.6,208.4,750.4z"/>
				</g>
				<g>
					<path class="st6" d="M428.5,968.9c-12.2,4.5-27.4,12.3-36.8,20.4l7.4-20.4l-7.4-20.4C401.1,956.6,416.3,964.3,428.5,968.9z"/>
				</g>
			</g>
		</g>
		<g>
			<rect x="235.3" y="865.3" class="st6" width="24.3" height="100.4"/>
		</g>
		<g>
			<rect x="291.9" y="837.3" class="st6" width="24.3" height="128.4"/>
		</g>
		<g>
			<rect x="351.2" y="812.1" class="st6" width="24.3" height="153.5"/>
		</g>
	</g>
</g>
<g>
	<g>
		<g>
			<rect x="225.6" y="1284.7" class="st6" width="299.8" height="8"/>
		</g>
		<g>
			<rect x="225.6" y="1312.9" class="st6" width="299.8" height="8"/>
		</g>
		<g>
			<rect x="225.6" y="1341" class="st6" width="299.8" height="8"/>
		</g>
		<g>
			<rect x="225.6" y="1369.1" class="st6" width="299.8" height="8"/>
		</g>
		<g>
			<rect x="225.6" y="1397.2" class="st6" width="299.8" height="8"/>
		</g>
	</g>
</g>
<g>
	<g>
		<g>
			<rect x="977.2" y="1122.2" class="st6" width="8" height="299.8"/>
		</g>
		<g>
			<rect x="1005.3" y="1122.2" class="st6" width="8" height="299.8"/>
		</g>
		<g>
			<rect x="1033.4" y="1122.2" class="st6" width="8" height="299.8"/>
		</g>
		<g>
			<rect x="1061.5" y="1122.2" class="st6" width="8" height="299.8"/>
		</g>
		<g>
			<rect x="1089.6" y="1122.2" class="st6" width="8" height="299.8"/>
		</g>
	</g>
</g>
<g>
	<g>
		<g>
			<rect x="455.4" y="270.6" class="st6" width="2.1" height="151"/>
		</g>
		<g>
			<rect x="553.1" y="233.1" class="st6" width="2.1" height="151"/>
		</g>
		<g>
			<rect x="650.8" y="280.1" class="st6" width="2.1" height="151"/>
		</g>
		<g>
			<rect x="765.6" y="273.1" class="st6" width="2.1" height="151"/>
		</g>
		<g>
			<path class="st6" d="M564,372.1c0.3,1.8-1,3.6-2.8,3.8l-185.8,71.9c-1.8,0.3-3.6-1-3.8-2.8l0,0c-0.3-1.8,1-3.6,2.8-3.8
				l185.8-71.9C562,369,563.7,370.3,564,372.1L564,372.1z"/>
		</g>
		<g>
			<path class="st6" d="M651.6,429.2c-1,1.6-2.6,2.4-3.5,1.8l-94-59.6c-0.9-0.6-0.9-2.3,0.1-3.9l0,0c1-1.6,2.6-2.4,3.5-1.8l94,59.6
				C652.7,425.8,652.6,427.6,651.6,429.2L651.6,429.2z"/>
		</g>
		<g>
			<path class="st6" d="M766.6,413.3c0.2,1.8-0.6,3.4-1.7,3.5L654.1,427c-1.1,0.1-2.1-1.3-2.3-3.2l0,0c-0.2-1.8,0.6-3.4,1.7-3.5
				l110.8-10.1C765.4,410.1,766.4,411.5,766.6,413.3L766.6,413.3z"/>
		</g>
		<g>
			<path class="st6" d="M675.7,421.7c0,13-10.5,23.5-23.5,23.5c-13,0-23.5-10.5-23.5-23.5c0-13,10.5-23.5,23.5-23.5
				C665.2,398.2,675.7,408.7,675.7,421.7z"/>
		</g>
		<g>
			<circle class="st6" cx="554.1" cy="375.9" r="23.4"/>
		</g>
		<g>
			<circle class="st6" cx="457.5" cy="413.9" r="23.5"/>
		</g>
		<g>
			<rect x="365.8" y="315.4" class="st6" width="2.1" height="151"/>
		</g>
		<g>
			<circle class="st6" cx="367.1" cy="447.1" r="23"/>
		</g>
		<g>
			<path class="st6" d="M789.5,415.1c0,13.3-10.8,24-24,24c-13.3,0-24-10.8-24-24c0-13.3,10.8-24,24-24
				C778.8,391.1,789.5,401.8,789.5,415.1z"/>
		</g>
	</g>
</g>
<path class="st6" d="M1505.5,850.9h-234.8c-17.2,0-31.2-14-31.2-31.2V357.7c0-17.2,14-31.2,31.2-31.2h234.8
	c17.2,0,31.2,14,31.2,31.2v462.1C1536.7,837,1522.7,850.9,1505.5,850.9z"/>
<path class="st13" d="M1536.8,357.6v462.1c0,17.2-14.1,31.1-31.3,31.1h-32l-106.5-524.3l138.5,0
	C1522.7,326.6,1536.8,340.4,1536.8,357.6z"/>
<rect x="1248.1" y="383.8" class="st2" width="280.2" height="408.2"/>
<path class="st1" d="M1427.5,360.4h-78.1c-2.4,0-4.4-2-4.4-4.4l0,0c0-2.4,2-4.4,4.4-4.4h78.1c2.4,0,4.4,2,4.4,4.4l0,0
	C1431.9,358.5,1429.9,360.4,1427.5,360.4z"/>
<path class="st1" d="M1418.5,832.8H1358c-3.4,0-6.1-2.7-6.1-6.1v-9.9c0-3.4,2.7-6.1,6.1-6.1h60.5c3.4,0,6.1,2.7,6.1,6.1v9.9
	C1424.6,830.1,1421.8,832.8,1418.5,832.8z"/>
<rect x="1313.3" y="447.1" class="st11" width="27.8" height="3.7"/>
<rect x="1348.3" y="447.1" class="st11" width="27.8" height="3.7"/>
<rect x="1383.2" y="447.1" class="st11" width="27.8" height="3.7"/>
<rect x="1418.2" y="447.1" class="st11" width="27.8" height="3.7"/>
<rect x="1313.3" y="462.7" class="st11" width="27.8" height="3.7"/>
<rect x="1348.3" y="462.7" class="st11" width="27.8" height="3.7"/>
<rect x="1383.2" y="462.7" class="st11" width="27.8" height="3.7"/>
<rect x="1418.2" y="462.7" class="st11" width="27.8" height="3.7"/>
<rect x="1348.3" y="476.4" class="st11" width="27.8" height="3.7"/>
<rect x="1383.2" y="476.4" class="st11" width="27.8" height="3.7"/>
<rect x="1418.2" y="476.4" class="st11" width="27.8" height="3.7"/>
<rect x="1453.2" y="476.4" class="st11" width="27.8" height="3.7"/>
<rect x="1348.3" y="490.1" class="st11" width="27.8" height="3.7"/>
<rect x="1383.2" y="490.1" class="st11" width="27.8" height="3.7"/>
<rect x="1418.2" y="490.1" class="st11" width="27.8" height="3.7"/>
<rect x="1453.2" y="490.1" class="st11" width="27.8" height="3.7"/>
<rect x="1348.3" y="503.8" class="st11" width="27.8" height="3.7"/>
<rect x="1383.2" y="503.8" class="st11" width="27.8" height="3.7"/>
<rect x="1418.2" y="503.8" class="st11" width="27.8" height="3.7"/>
<rect x="1453.2" y="503.8" class="st11" width="27.8" height="3.7"/>
<rect x="1348.3" y="517.5" class="st11" width="27.8" height="3.7"/>
<rect x="1383.2" y="517.5" class="st11" width="27.8" height="3.7"/>
<rect x="1418.2" y="517.5" class="st11" width="27.8" height="3.7"/>
<rect x="1453.2" y="517.5" class="st11" width="27.8" height="3.7"/>
<rect x="1313.4" y="531.2" class="st11" width="27.8" height="3.7"/>
<rect x="1348.4" y="531.2" class="st11" width="27.7" height="3.7"/>
<rect x="1383.4" y="531.2" class="st11" width="27.7" height="3.7"/>
<rect x="1418.3" y="531.2" class="st11" width="27.8" height="3.7"/>
<rect x="1313.3" y="544.9" class="st11" width="27.8" height="3.7"/>
<rect x="1348.3" y="544.9" class="st11" width="27.8" height="3.7"/>
<rect x="1383.3" y="544.9" class="st11" width="27.7" height="3.7"/>
<rect x="1418.2" y="544.9" class="st11" width="27.8" height="3.7"/>
<rect x="1313.3" y="558.6" class="st11" width="27.8" height="3.7"/>
<rect x="1348.2" y="558.6" class="st11" width="27.8" height="3.7"/>
<rect x="1383.2" y="558.6" class="st11" width="27.8" height="3.7"/>
<rect x="1418.2" y="558.6" class="st11" width="27.8" height="3.7"/>
<rect x="1313.2" y="572.3" class="st11" width="27.8" height="3.7"/>
<rect x="1348.1" y="572.3" class="st11" width="27.8" height="3.7"/>
<rect x="1383.1" y="572.3" class="st11" width="27.8" height="3.7"/>
<rect x="1418.1" y="572.3" class="st11" width="27.7" height="3.7"/>
<rect x="1313.6" y="586.6" class="st11" width="27.8" height="3.7"/>
<rect x="1348.5" y="586.6" class="st11" width="27.8" height="3.7"/>
<rect x="1383.5" y="586.6" class="st11" width="27.8" height="3.7"/>
<rect x="1418.4" y="586.6" class="st11" width="27.8" height="3.7"/>
<rect x="1313.6" y="602.1" class="st11" width="27.8" height="3.7"/>
<rect x="1348.5" y="602.1" class="st11" width="27.8" height="3.7"/>
<rect x="1383.5" y="602.1" class="st11" width="27.8" height="3.7"/>
<rect x="1418.4" y="602.1" class="st11" width="27.8" height="3.7"/>
<rect x="1348.5" y="615.9" class="st11" width="27.8" height="3.7"/>
<rect x="1383.5" y="615.9" class="st11" width="27.8" height="3.7"/>
<rect x="1418.4" y="615.9" class="st11" width="27.8" height="3.7"/>
<rect x="1453.4" y="615.9" class="st11" width="27.7" height="3.7"/>
<rect x="1348.5" y="629.6" class="st11" width="27.8" height="3.7"/>
<rect x="1383.5" y="629.6" class="st11" width="27.8" height="3.7"/>
<rect x="1418.4" y="629.6" class="st11" width="27.8" height="3.7"/>
<rect x="1453.4" y="629.6" class="st11" width="27.7" height="3.7"/>
<rect x="1348.5" y="643.3" class="st11" width="27.8" height="3.7"/>
<rect x="1383.5" y="643.3" class="st11" width="27.8" height="3.7"/>
<rect x="1418.4" y="643.3" class="st11" width="27.8" height="3.7"/>
<rect x="1453.4" y="643.3" class="st11" width="27.7" height="3.7"/>
<rect x="1348.5" y="657" class="st11" width="27.8" height="3.7"/>
<rect x="1383.5" y="657" class="st11" width="27.8" height="3.7"/>
<rect x="1418.4" y="657" class="st11" width="27.8" height="3.7"/>
<rect x="1453.4" y="657" class="st11" width="27.7" height="3.7"/>
<rect x="1313.7" y="670.7" class="st11" width="27.8" height="3.7"/>
<rect x="1348.6" y="670.7" class="st11" width="27.7" height="3.7"/>
<rect x="1383.6" y="670.7" class="st11" width="27.8" height="3.7"/>
<rect x="1418.6" y="670.7" class="st11" width="27.8" height="3.7"/>
<rect x="1313.6" y="684.4" class="st11" width="27.7" height="3.7"/>
<rect x="1348.6" y="684.4" class="st11" width="27.7" height="3.7"/>
<rect x="1383.5" y="684.4" class="st11" width="27.7" height="3.7"/>
<rect x="1418.5" y="684.4" class="st11" width="27.7" height="3.7"/>
<rect x="1313.5" y="698.1" class="st11" width="27.8" height="3.7"/>
<rect x="1348.5" y="698.1" class="st11" width="27.7" height="3.7"/>
<rect x="1383.4" y="698.1" class="st11" width="27.7" height="3.7"/>
<rect x="1418.4" y="698.1" class="st11" width="27.8" height="3.7"/>
<rect x="1313.4" y="711.8" class="st11" width="27.8" height="3.7"/>
<rect x="1348.4" y="711.8" class="st11" width="27.7" height="3.7"/>
<rect x="1383.4" y="711.8" class="st11" width="27.7" height="3.7"/>
<rect x="1418.3" y="711.8" class="st11" width="27.8" height="3.7"/>
<path class="st6" d="M1490.2,1343.9H357.5c-12.6,0-25.9-6.3-27.2-24.8v-17l124-229.1c6.7-13.4,20.4-21.9,35.3-21.9h866.8
	c16.2,0,51.8,31.9,59.1,46.3l102.3,208.5v7.5C1518,1335.1,1504,1343.9,1490.2,1343.9z"/>
<path class="st10" d="M1490.3,1319.9H357.6c-12.6,0-33.3-11-25.5-24.6L454.4,1049c6.7-13.4,20.4-21.9,35.3-21.9h866.8
	c16.2,0,31,9.1,38.2,23.6l121,242.2C1524.2,1308.3,1504.1,1319.9,1490.3,1319.9z"/>
<rect x="480.8" y="471.6" class="st6" width="879.7" height="555.9"/>
<rect x="497.7" y="491.9" class="st5" width="845.7" height="501.8"/>
<path class="st14" d="M1088.1,1309.2H754.4c-3.7,0-6.5-3.3-5.9-7l14.1-87.9c0.8-4.7,4.8-8.2,9.7-8.2h301c4.3,0,7.9,3.1,8.5,7.4
	l12.9,88.4C1095.1,1305.8,1092.1,1309.2,1088.1,1309.2z"/>
<path class="st14" d="M540.1,1079.7h-36.2c-5.1,0-8.5-1.5-7.8-3.3l2.2-5.4c0.7-1.8,5.4-3.3,10.4-3.3h35.8c5,0,8.5,1.5,7.9,3.3
	l-1.9,5.4C549.7,1078.2,545.1,1079.7,540.1,1079.7z"/>
<path class="st14" d="M601.1,1079.7h-36.2c-5,0-8.6-1.5-8-3.3l1.9-5.4c0.6-1.8,5.2-3.3,10.2-3.3h35.8c5,0,8.6,1.5,8.1,3.3l-1.6,5.4
	C610.7,1078.2,606.2,1079.7,601.1,1079.7z"/>
<path class="st14" d="M662.2,1079.7H626c-5.1,0-8.7-1.5-8.2-3.3l1.6-5.4c0.5-1.8,5-3.3,10-3.3h35.8c5,0,8.7,1.5,8.3,3.3l-1.3,5.4
	C671.7,1078.2,667.3,1079.7,662.2,1079.7z"/>
<path class="st14" d="M723.3,1079.7h-36.2c-5.1,0-8.8-1.5-8.4-3.3l1.3-5.4c0.4-1.8,4.8-3.3,9.8-3.3h35.8c5,0,8.8,1.5,8.5,3.3l-1,5.4
	C732.7,1078.2,728.3,1079.7,723.3,1079.7z"/>
<path class="st14" d="M784.3,1079.7h-36.2c-5,0-8.9-1.5-8.6-3.3l0.9-5.4c0.3-1.8,4.6-3.3,9.6-3.3h35.8c5,0,8.9,1.5,8.6,3.3l-0.6,5.4
	C793.7,1078.2,789.4,1079.7,784.3,1079.7z"/>
<path class="st14" d="M845.4,1079.7h-36.2c-5.1,0-9-1.5-8.8-3.3l0.6-5.4c0.2-1.8,4.4-3.3,9.4-3.3h35.8c5,0,9,1.5,8.8,3.3l-0.3,5.4
	C854.7,1078.2,850.5,1079.7,845.4,1079.7z"/>
<path class="st14" d="M906.5,1079.7h-36.2c-5.1,0-9.1-1.5-9-3.3l0.3-5.4c0.1-1.8,4.2-3.3,9.2-3.3h35.8c5,0,9,1.5,9,3.3l0,5.4
	C915.6,1078.2,911.5,1079.7,906.5,1079.7z"/>
<path class="st14" d="M967.6,1079.7h-36.2c-5,0-9.2-1.5-9.2-3.3l0-5.4c0-1.8,4-3.3,9-3.3H967c5,0,9.1,1.5,9.2,3.3l0.3,5.4
	C976.6,1078.2,972.6,1079.7,967.6,1079.7z"/>
<path class="st14" d="M1028.6,1079.7h-36.2c-5.1,0-9.2-1.5-9.4-3.3l-0.3-5.4c-0.1-1.8,3.8-3.3,8.8-3.3h35.8c5,0,9.2,1.5,9.4,3.3
	l0.6,5.4C1037.6,1078.2,1033.7,1079.7,1028.6,1079.7z"/>
<path class="st14" d="M1089.7,1079.7h-36.2c-5.1,0-9.3-1.5-9.6-3.3l-0.7-5.4c-0.2-1.8,3.6-3.3,8.6-3.3h35.8c5,0,9.3,1.5,9.6,3.3
	l0.9,5.4C1098.6,1078.2,1094.8,1079.7,1089.7,1079.7z"/>
<path class="st14" d="M1150.8,1079.7h-36.2c-5,0-9.4-1.5-9.7-3.3l-1-5.4c-0.3-1.8,3.5-3.3,8.4-3.3h35.8c5,0,9.4,1.5,9.8,3.3l1.3,5.4
	C1159.6,1078.2,1155.8,1079.7,1150.8,1079.7z"/>
<path class="st14" d="M1211.8,1079.7h-36.2c-5.1,0-9.5-1.5-9.9-3.3l-1.3-5.4c-0.4-1.8,3.3-3.3,8.3-3.3h35.8c5,0,9.5,1.5,10,3.3
	l1.6,5.4C1220.6,1078.2,1216.9,1079.7,1211.8,1079.7z"/>
<path class="st14" d="M1272.9,1079.7h-36.2c-5.1,0-9.6-1.5-10.1-3.3l-1.6-5.4c-0.5-1.8,3.1-3.3,8.1-3.3h35.8c5,0,9.6,1.5,10.2,3.3
	l1.9,5.4C1281.5,1078.2,1278,1079.7,1272.9,1079.7z"/>
<path class="st14" d="M1334,1079.7h-36.2c-5,0-9.7-1.5-10.3-3.3l-1.9-5.4c-0.6-1.8,2.9-3.3,7.9-3.3h35.8c5,0,9.6,1.5,10.4,3.3
	l2.2,5.4C1342.5,1078.2,1339,1079.7,1334,1079.7z"/>
<path class="st14" d="M536.7,1100h-46.2c-1.2,0-1.9-0.3-1.8-0.8l6.9-16.9c0.2-0.4,1.2-0.8,2.4-0.8h45.4c1.1,0,1.9,0.3,1.8,0.8
	l-6,16.9C538.9,1099.6,537.9,1100,536.7,1100z"/>
<path class="st14" d="M622,1122.2h-47.2c-1.2,0-2-0.4-1.9-0.8l5.6-17.6c0.1-0.4,1.2-0.8,2.3-0.8h46.3c1.2,0,2,0.3,1.9,0.8l-4.8,17.6
	C624.3,1121.8,623.2,1122.2,622,1122.2z"/>
<path class="st14" d="M629.8,1145.3h-48.2c-1.2,0-2.1-0.4-1.9-0.8l5.6-18.4c0.1-0.5,1.2-0.8,2.4-0.8H635c1.2,0,2,0.4,1.9,0.8
	l-4.8,18.4C632,1144.9,630.9,1145.3,629.8,1145.3z"/>
<path class="st14" d="M656.9,1169.4h-49.2c-1.2,0-2.1-0.4-2-0.9l5.3-19.2c0.1-0.5,1.2-0.8,2.4-0.8h48.3c1.2,0,2.1,0.4,2,0.8
	l-4.4,19.2C659.2,1169,658.1,1169.4,656.9,1169.4z"/>
<path class="st14" d="M501.5,1197.5h-50.2c-1.3,0-2.2-0.4-2-1l9.2-22.8c0.2-0.5,1.4-0.9,2.7-0.9h49.1c1.3,0,2.2,0.4,2,0.9l-8.1,22.8
	C504.1,1197,502.9,1197.5,501.5,1197.5z"/>
<path class="st14" d="M568.5,1197.5h-50.2c-1.3,0-2.3-0.4-2.1-1l7.9-22.8c0.2-0.5,1.4-0.9,2.7-0.9H576c1.3,0,2.2,0.4,2.1,0.9
	l-6.8,22.8C571.1,1197,569.9,1197.5,568.5,1197.5z"/>
<path class="st14" d="M633.5,1197.5h-50.2c-1.3,0-2.3-0.4-2.1-1l6.6-22.8c0.2-0.5,1.3-0.9,2.6-0.9h49.1c1.3,0,2.3,0.4,2.1,0.9
	l-5.5,22.8C636.1,1197,634.9,1197.5,633.5,1197.5z"/>
<path class="st14" d="M715.5,1197.5h-66.2c-1.5,0-2.6-0.5-2.5-1.1l5.3-22.5c0.1-0.6,1.5-1.1,3-1.1h64.8c1.5,0,2.6,0.5,2.5,1.1
	l-3.9,22.5C718.3,1197,717,1197.5,715.5,1197.5z"/>
<path class="st14" d="M1122.8,1197.5h-66.2c-1.5,0-2.8-0.5-2.9-1.1l-2.7-22.5c-0.1-0.6,1.1-1.1,2.6-1.1h64.8c1.5,0,2.8,0.5,2.9,1.1
	l4.1,22.5C1125.5,1197,1124.4,1197.5,1122.8,1197.5z"/>
<path class="st14" d="M1189.9,1197.5h-49.5c-1.3,0-2.5-0.4-2.6-1l-4.3-22.8c-0.1-0.5,0.9-0.9,2.2-0.9h48.4c1.3,0,2.4,0.4,2.6,0.9
	l5.4,22.8C1192.2,1197.1,1191.2,1197.5,1189.9,1197.5z"/>
<path class="st14" d="M1040.1,1197.5H734.5c-3.2,0-5.6-1.1-5.4-2.4l3.3-20.1c0.2-1.3,2.9-2.3,6-2.3h299c3.1,0,5.8,1,5.9,2.3
	l2.2,20.1C1045.8,1196.4,1043.3,1197.5,1040.1,1197.5z"/>
<path class="st14" d="M720.8,1169.4h-49.2c-1.2,0-2.1-0.4-2-0.9l4.2-19.2c0.1-0.5,1.2-0.8,2.4-0.8h48.3c1.2,0,2.1,0.4,2,0.8
	l-3.3,19.2C723.1,1169,722.1,1169.4,720.8,1169.4z"/>
<path class="st14" d="M784.8,1169.4h-49.2c-1.2,0-2.2-0.4-2.1-0.9l3.1-19.2c0.1-0.5,1.1-0.8,2.3-0.8h48.3c1.2,0,2.1,0.4,2.1,0.8
	l-2.2,19.2C787,1169,786,1169.4,784.8,1169.4z"/>
<path class="st14" d="M848.7,1169.4h-49.2c-1.2,0-2.2-0.4-2.1-0.9l2-19.2c0-0.5,1.1-0.8,2.3-0.8H850c1.2,0,2.2,0.4,2.1,0.8
	l-1.1,19.2C851,1169,849.9,1169.4,848.7,1169.4z"/>
<path class="st14" d="M912.7,1169.4h-49.2c-1.2,0-2.2-0.4-2.2-0.9l1-19.2c0-0.5,1-0.8,2.2-0.8h48.3c1.2,0,2.2,0.4,2.2,0.8l0,19.2
	C914.9,1169,913.9,1169.4,912.7,1169.4z"/>
<path class="st14" d="M976.6,1169.4h-49.2c-1.2,0-2.2-0.4-2.2-0.9l-0.1-19.2c0-0.5,1-0.8,2.2-0.8h48.3c1.2,0,2.2,0.4,2.2,0.8l1,19.2
	C978.8,1169,977.8,1169.4,976.6,1169.4z"/>
<path class="st14" d="M1040.6,1169.4h-49.2c-1.2,0-2.2-0.4-2.3-0.9l-1.2-19.2c0-0.5,0.9-0.8,2.1-0.8h48.3c1.2,0,2.2,0.4,2.3,0.8
	l2.1,19.2C1042.7,1169,1041.8,1169.4,1040.6,1169.4z"/>
<path class="st14" d="M1104.5,1169.4h-49.2c-1.2,0-2.3-0.4-2.3-0.9l-2.3-19.2c-0.1-0.5,0.9-0.8,2.1-0.8h48.3c1.2,0,2.2,0.4,2.3,0.8
	l3.2,19.2C1106.7,1169,1105.7,1169.4,1104.5,1169.4z"/>
<path class="st14" d="M1168.5,1169.4h-49.2c-1.2,0-2.3-0.4-2.4-0.9l-3.4-19.2c-0.1-0.5,0.8-0.8,2-0.8h48.3c1.2,0,2.3,0.4,2.4,0.8
	l4.3,19.2C1170.6,1169,1169.7,1169.4,1168.5,1169.4z"/>
<path class="st14" d="M1249.2,1197.9h-38.4c-4.9,0-9.2-1.6-9.7-3.6l-1.4-5.8c-0.5-2,3-3.5,7.9-3.5h38c4.8,0,9.2,1.6,9.8,3.5l1.7,5.8
	C1257.5,1196.3,1254,1197.9,1249.2,1197.9z"/>
<path class="st14" d="M1314.9,1197.9h-38.4c-4.9,0-9.3-1.6-9.9-3.6l-1.7-5.8c-0.6-2,2.8-3.5,7.7-3.5h38c4.8,0,9.3,1.6,10,3.5l2,5.8
	C1323.2,1196.3,1319.8,1197.9,1314.9,1197.9z"/>
<path class="st14" d="M1310,1183.5h-37.9c-4.8,0-9.2-1.6-9.8-3.5l-1.7-5.6c-0.6-1.9,2.8-3.4,7.6-3.4h37.5c4.8,0,9.2,1.5,9.8,3.4
	l2,5.6C1318.2,1181.9,1314.8,1183.5,1310,1183.5z"/>
<path class="st14" d="M1380.7,1197.9h-38.4c-4.9,0-9.4-1.6-10.1-3.6l-2.1-5.8c-0.7-2,2.6-3.5,7.5-3.5h38c4.8,0,9.4,1.6,10.2,3.5
	l2.3,5.8C1388.9,1196.3,1385.6,1197.9,1380.7,1197.9z"/>
<path class="st14" d="M692.9,1145.3h-48.2c-1.2,0-2.1-0.4-2-0.8l4.6-18.4c0.1-0.5,1.2-0.8,2.3-0.8H697c1.2,0,2.1,0.4,2,0.8
	l-3.7,18.4C695.2,1144.9,694.1,1145.3,692.9,1145.3z"/>
<path class="st14" d="M756.1,1145.3h-48.2c-1.2,0-2.1-0.4-2-0.8l3.5-18.4c0.1-0.5,1.1-0.8,2.3-0.8H759c1.2,0,2.1,0.4,2,0.8
	l-2.6,18.4C758.3,1144.9,757.3,1145.3,756.1,1145.3z"/>
<path class="st14" d="M819.2,1145.3H771c-1.2,0-2.1-0.4-2.1-0.8l2.5-18.4c0.1-0.5,1.1-0.8,2.2-0.8H821c1.2,0,2.1,0.4,2.1,0.8
	l-1.6,18.4C821.4,1144.9,820.4,1145.3,819.2,1145.3z"/>
<path class="st14" d="M882,1145.3h-48.2c-1.2,0-2.1-0.4-2.1-0.8l1.4-18.4c0-0.5,1-0.8,2.2-0.8h47.3c1.2,0,2.1,0.4,2.1,0.8l-0.6,18.4
	C884.2,1144.9,883.2,1145.3,882,1145.3z"/>
<path class="st14" d="M945.2,1145.3H897c-1.2,0-2.2-0.4-2.2-0.8l0.4-18.4c0-0.5,1-0.8,2.2-0.8h47.3c1.2,0,2.1,0.4,2.2,0.8l0.5,18.4
	C947.3,1144.9,946.4,1145.3,945.2,1145.3z"/>
<path class="st14" d="M1005.6,1145.3h-48.2c-1.2,0-2.2-0.4-2.2-0.8l-0.6-18.4c0-0.5,0.9-0.8,2.1-0.8h47.3c1.2,0,2.2,0.4,2.2,0.8
	l1.5,18.4C1007.7,1144.9,1006.8,1145.3,1005.6,1145.3z"/>
<path class="st14" d="M1068.2,1145.3H1020c-1.2,0-2.2-0.4-2.2-0.8l-1.7-18.4c0-0.5,0.9-0.8,2.1-0.8h47.3c1.2,0,2.2,0.4,2.2,0.8
	l2.5,18.4C1070.3,1144.9,1069.4,1145.3,1068.2,1145.3z"/>
<path class="st14" d="M1130.8,1145.3h-48.2c-1.2,0-2.2-0.4-2.3-0.8l-2.7-18.4c-0.1-0.5,0.8-0.8,2-0.8h47.3c1.2,0,2.2,0.4,2.3,0.8
	l3.6,18.4C1132.9,1144.9,1132,1145.3,1130.8,1145.3z"/>
<path class="st14" d="M1193,1145.3h-48.2c-1.2,0-2.3-0.4-2.3-0.8l-3.8-18.4c-0.1-0.5,0.8-0.8,2-0.8h47.3c1.2,0,2.2,0.4,2.3,0.8
	l4.6,18.4C1195,1144.9,1194.2,1145.3,1193,1145.3z"/>
<path class="st14" d="M1255.2,1145.3H1207c-1.2,0-2.3-0.4-2.4-0.8l-4.8-18.4c-0.1-0.5,0.7-0.8,1.9-0.8h47.3c1.2,0,2.2,0.4,2.4,0.8
	l5.7,18.4C1257.2,1144.9,1256.4,1145.3,1255.2,1145.3z"/>
<path class="st14" d="M1231.8,1169.4h-49.2c-1.2,0-2.3-0.4-2.4-0.9l-4.5-19.2c-0.1-0.5,0.8-0.8,2-0.8h48.3c1.2,0,2.3,0.4,2.4,0.8
	l5.4,19.2C1233.9,1169,1233,1169.4,1231.8,1169.4z"/>
<path class="st14" d="M1365.3,1145.3h-93.1c-1.6,0-3.1-0.5-3.4-1.2l-5.7-17.8c-0.2-0.6,1-1.1,2.6-1.1h91.4c1.6,0,3.1,0.5,3.4,1.1
	l7.3,17.8C1368.1,1144.8,1367,1145.3,1365.3,1145.3z"/>
<path class="st14" d="M1374.7,1169.4h-127.5c-1.9,0-3.7-0.6-3.9-1.4l-5.3-18.2c-0.2-0.7,1.2-1.3,3.1-1.3h125.1c1.9,0,3.7,0.6,4,1.3
	l7.4,18.2C1377.9,1168.8,1376.6,1169.4,1374.7,1169.4z"/>
<path class="st14" d="M567.1,1145.3h-94.1c-1.7,0-2.8-0.5-2.5-1.2l7.2-17.7c0.3-0.6,1.8-1.1,3.4-1.1h92.3c1.6,0,2.8,0.5,2.6,1.1
	l-5.6,17.7C570.3,1144.8,568.8,1145.3,567.1,1145.3z"/>
<path class="st14" d="M592.1,1169.4H462.8c-2,0-3.3-0.6-3-1.4l7.4-18.1c0.3-0.7,2.1-1.4,4-1.4h127c1.9,0,3.3,0.6,3.1,1.4l-5.2,18.1
	C595.9,1168.8,594.1,1169.4,592.1,1169.4z"/>
<path class="st14" d="M683.6,1122.2h-47.2c-1.2,0-2-0.4-1.9-0.8l4.6-17.6c0.1-0.4,1.1-0.8,2.3-0.8h46.3c1.2,0,2,0.3,1.9,0.8
	l-3.8,17.6C685.8,1121.8,684.7,1122.2,683.6,1122.2z"/>
<path class="st14" d="M744.7,1122.2h-47.2c-1.2,0-2.1-0.4-2-0.8l3.6-17.6c0.1-0.4,1.1-0.8,2.2-0.8h46.3c1.2,0,2,0.3,2,0.8l-2.8,17.6
	C746.9,1121.8,745.9,1122.2,744.7,1122.2z"/>
<path class="st14" d="M806.2,1122.2H759c-1.2,0-2.1-0.4-2-0.8l2.6-17.6c0.1-0.4,1.1-0.8,2.2-0.8h46.3c1.2,0,2.1,0.3,2,0.8l-1.8,17.6
	C808.4,1121.8,807.4,1122.2,806.2,1122.2z"/>
<path class="st14" d="M867.7,1122.2h-47.2c-1.2,0-2.1-0.4-2.1-0.8l1.6-17.6c0-0.4,1-0.8,2.2-0.8h46.3c1.2,0,2.1,0.3,2.1,0.8
	l-0.8,17.6C869.9,1121.8,868.9,1122.2,867.7,1122.2z"/>
<path class="st14" d="M928.9,1122.2h-47.2c-1.2,0-2.1-0.4-2.1-0.8l0.6-17.6c0-0.4,1-0.8,2.1-0.8h46.3c1.2,0,2.1,0.3,2.1,0.8
	l0.2,17.6C931,1121.8,930.1,1122.2,928.9,1122.2z"/>
<path class="st14" d="M988.6,1122.2h-47.2c-1.2,0-2.1-0.4-2.1-0.8l-0.4-17.6c0-0.4,0.9-0.8,2.1-0.8h46.3c1.2,0,2.1,0.3,2.1,0.8
	l1.2,17.6C990.7,1121.8,989.8,1122.2,988.6,1122.2z"/>
<path class="st14" d="M1050.7,1122.2h-47.2c-1.2,0-2.2-0.4-2.2-0.8l-1.4-17.6c0-0.4,0.9-0.8,2-0.8h46.3c1.2,0,2.1,0.3,2.2,0.8
	l2.2,17.6C1052.7,1121.8,1051.8,1122.2,1050.7,1122.2z"/>
<path class="st14" d="M1111.9,1122.2h-47.2c-1.2,0-2.2-0.4-2.2-0.8l-2.4-17.6c-0.1-0.4,0.8-0.8,2-0.8h46.3c1.2,0,2.2,0.3,2.2,0.8
	l3.2,17.6C1114,1121.8,1113.1,1122.2,1111.9,1122.2z"/>
<path class="st14" d="M1172.2,1122.2H1125c-1.2,0-2.2-0.4-2.3-0.8l-3.3-17.6c-0.1-0.4,0.8-0.8,1.9-0.8h46.3c1.2,0,2.2,0.3,2.3,0.8
	l4.2,17.6C1174.2,1121.8,1173.4,1122.2,1172.2,1122.2z"/>
<path class="st14" d="M1235,1122.2h-47.2c-1.2,0-2.2-0.4-2.3-0.8l-4.4-17.6c-0.1-0.4,0.7-0.8,1.9-0.8h46.3c1.2,0,2.2,0.3,2.3,0.8
	l5.2,17.6C1237,1121.8,1236.1,1122.2,1235,1122.2z"/>
<path class="st14" d="M1295,1122.2h-47.2c-1.2,0-2.2-0.4-2.4-0.8l-5.4-17.6c-0.1-0.4,0.7-0.8,1.9-0.8h46.3c1.2,0,2.2,0.3,2.4,0.8
	l6.2,17.6C1297,1121.8,1296.1,1122.2,1295,1122.2z"/>
<path class="st14" d="M1356.7,1122.2h-47.2c-1.2,0-2.3-0.4-2.4-0.8l-6.4-17.6c-0.2-0.4,0.7-0.8,1.8-0.8h46.3c1.2,0,2.2,0.3,2.4,0.8
	l7.2,17.6C1358.7,1121.8,1357.9,1122.2,1356.7,1122.2z"/>
<path class="st14" d="M597.8,1100h-46.2c-1.2,0-2-0.3-1.8-0.8l5.9-16.9c0.1-0.4,1.2-0.8,2.3-0.8h45.4c1.1,0,1.9,0.3,1.8,0.8
	l-5.1,16.9C600,1099.6,599,1100,597.8,1100z"/>
<path class="st14" d="M657.1,1100h-46.2c-1.2,0-2-0.3-1.9-0.8l4.9-16.9c0.1-0.4,1.1-0.8,2.3-0.8h45.4c1.1,0,2,0.3,1.9,0.8l-4.1,16.9
	C659.3,1099.6,658.3,1100,657.1,1100z"/>
<path class="st14" d="M717.9,1100h-46.2c-1.2,0-2-0.3-1.9-0.8l4-16.9c0.1-0.4,1.1-0.8,2.2-0.8h45.4c1.1,0,2,0.3,1.9,0.8l-3.2,16.9
	C720,1099.6,719,1100,717.9,1100z"/>
<path class="st14" d="M777.1,1100h-46.2c-1.1,0-2-0.3-1.9-0.8l3-16.9c0.1-0.4,1-0.8,2.2-0.8h45.4c1.1,0,2,0.3,2,0.8l-2.2,16.9
	C779.2,1099.6,778.3,1100,777.1,1100z"/>
<path class="st14" d="M838.2,1100H792c-1.2,0-2-0.3-2-0.8l2-16.9c0-0.4,1-0.8,2.1-0.8h45.4c1.1,0,2,0.3,2,0.8l-1.2,16.9
	C840.3,1099.6,839.3,1100,838.2,1100z"/>
<path class="st14" d="M896.9,1100h-46.2c-1.2,0-2.1-0.3-2-0.8l1.1-16.9c0-0.4,1-0.8,2.1-0.8h45.4c1.1,0,2,0.3,2,0.8l-0.3,16.9
	C899,1099.6,898.1,1100,896.9,1100z"/>
<path class="st14" d="M957.9,1100h-46.2c-1.1,0-2.1-0.3-2.1-0.8l0.1-16.9c0-0.4,0.9-0.8,2.1-0.8h45.4c1.1,0,2.1,0.3,2.1,0.8
	l0.7,16.9C960,1099.6,959.1,1100,957.9,1100z"/>
<path class="st14" d="M1017.2,1100H971c-1.2,0-2.1-0.3-2.1-0.8l-0.8-16.9c0-0.4,0.9-0.8,2-0.8h45.4c1.1,0,2.1,0.3,2.1,0.8l1.6,16.9
	C1019.2,1099.6,1018.3,1100,1017.2,1100z"/>
<path class="st14" d="M1078,1100h-46.2c-1.2,0-2.1-0.3-2.2-0.8l-1.8-16.9c0-0.4,0.8-0.8,2-0.8h45.4c1.1,0,2.1,0.3,2.2,0.8l2.6,16.9
	C1080.1,1099.6,1079.2,1100,1078,1100z"/>
<path class="st14" d="M1138.8,1100h-46.2c-1.2,0-2.1-0.3-2.2-0.8l-2.8-16.9c-0.1-0.4,0.8-0.8,1.9-0.8h45.4c1.1,0,2.1,0.3,2.2,0.8
	l3.6,16.9C1140.8,1099.6,1140,1100,1138.8,1100z"/>
<path class="st14" d="M1198.9,1100h-46.2c-1.2,0-2.2-0.3-2.3-0.8l-3.7-16.9c-0.1-0.4,0.8-0.8,1.9-0.8h45.4c1.1,0,2.1,0.3,2.2,0.8
	l4.5,16.9C1200.9,1099.6,1200.1,1100,1198.9,1100z"/>
<path class="st14" d="M1256.7,1100h-46.2c-1.2,0-2.2-0.3-2.3-0.8l-4.6-16.9c-0.1-0.4,0.7-0.8,1.8-0.8h45.4c1.1,0,2.2,0.3,2.3,0.8
	l5.5,16.9C1258.7,1099.6,1257.9,1100,1256.7,1100z"/>
<path class="st14" d="M1343.3,1100h-69.1c-3.2,0-6.1-1-6.5-2.2l-4.7-14.2c-0.4-1.2,1.9-2.1,5-2.1h67.9c3.1,0,6.1,0.9,6.5,2.1
	l5.8,14.2C1348.7,1099,1346.5,1100,1343.3,1100z"/>
<path class="st14" d="M555.9,1122.2h-70.6c-3.3,0-5.5-1-5-2.2l6-14.8c0.5-1.2,3.5-2.2,6.7-2.2h69.3c3.2,0,5.5,1,5.1,2.2l-4.9,14.8
	C562.2,1121.2,559.2,1122.2,555.9,1122.2z"/>
<g>
	<g>
		<g>
			<rect x="541.3" y="588.7" class="st11" width="378.5" height="10.5"/>
		</g>
		<g>
			<rect x="928.4" y="588.7" class="st11" width="367.7" height="10.5"/>
		</g>
		<g class="st4">
			<rect x="539.8" y="611.1" class="st11" width="115.8" height="70.9"/>
		</g>
		<g>
			<rect x="668.4" y="611.1" class="st7" width="115.8" height="70.9"/>
		</g>
		<g class="st4">
			<rect x="797.1" y="611.1" class="st11" width="115.8" height="70.9"/>
		</g>
		<g class="st4">
			<rect x="1180.3" y="610.3" class="st11" width="115.8" height="70.9"/>
		</g>
		<g class="st4">
			<rect x="923.4" y="611.1" class="st11" width="115.8" height="70.9"/>
		</g>
		<g>
			<rect x="1052" y="611.1" class="st7" width="115.8" height="70.9"/>
		</g>
		<g>
			<circle class="st7" cx="544.8" cy="539.3" r="13"/>
		</g>
		<g class="st4">
			<circle class="st11" cx="579.8" cy="539.3" r="13"/>
		</g>
		<g class="st4">
			<circle class="st11" cx="614.8" cy="539.3" r="13"/>
		</g>
		<g class="st4">
			<rect x="541.3" y="699.1" class="st11" width="157.3" height="6.5"/>
		</g>
		<g class="st4">
			<rect x="541.3" y="727.9" class="st11" width="376.6" height="5.8"/>
		</g>
		<g class="st4">
			<rect x="942.8" y="696.4" class="st11" width="133.3" height="6.5"/>
		</g>
		<g class="st4">
			<rect x="942.8" y="714.6" class="st11" width="353.3" height="5.8"/>
		</g>
		<g class="st4">
			<rect x="942.8" y="727.9" class="st11" width="353.3" height="5.8"/>
		</g>
		<g class="st4">
			<rect x="942.8" y="750.2" class="st11" width="353.3" height="5.8"/>
		</g>
		<g class="st4">
			<rect x="942.8" y="804.1" class="st11" width="319.2" height="5.8"/>
		</g>
		<g class="st4">
			<rect x="942.8" y="819.7" class="st11" width="319.2" height="5.8"/>
		</g>
		<g class="st4">
			<rect x="942.8" y="835.4" class="st11" width="319.2" height="5.8"/>
		</g>
		<g>
			<rect x="541.3" y="760.5" class="st11" width="376.6" height="5.8"/>
		</g>
		<g>
			<rect x="541.3" y="772.8" class="st11" width="376.6" height="5.8"/>
		</g>
		<g class="st4">
			<rect x="542.2" y="869.8" class="st11" width="376.6" height="5.8"/>
		</g>
		<g class="st4">
			<rect x="542.2" y="889.6" class="st11" width="376.6" height="5.8"/>
		</g>
		<g class="st4">
			<rect x="542.2" y="909.3" class="st11" width="376.6" height="5.8"/>
		</g>
		<g class="st4">
			<rect x="542.3" y="923.2" class="st11" width="753.8" height="5.8"/>
		</g>
		<g class="st4">
			<rect x="542.3" y="951.1" class="st11" width="753.8" height="5.8"/>
		</g>
		<g>
			<rect x="542.2" y="788.5" class="st11" width="376.6" height="5.8"/>
		</g>
		<g>
			<rect x="543" y="802.4" class="st11" width="115.4" height="5.8"/>
		</g>
		<g>
			<rect x="543" y="812.8" class="st11" width="115.4" height="5.8"/>
		</g>
		<g>
			<rect x="543" y="829.4" class="st7" width="117.6" height="28.5"/>
		</g>
		<g>
			<rect x="680.8" y="829.4" class="st7" width="117.6" height="28.5"/>
		</g>
		<g class="st4">
			<rect x="942.8" y="853.5" class="st11" width="117.6" height="45.5"/>
		</g>
		<g class="st4">
			<rect x="1073.2" y="853.5" class="st11" width="117.6" height="45.5"/>
		</g>
		<g>
			<rect x="1203.3" y="853.5" class="st7" width="58.8" height="45.5"/>
		</g>
		<g class="st4">
			<path class="st11" d="M1285.5,552.3H663.9c-6.5,0-11.7-5.1-11.7-11.5l0,0c0-6.3,5.3-11.5,11.7-11.5h621.6
				c6.5,0,11.7,5.1,11.7,11.5l0,0C1297.2,547.1,1291.9,552.3,1285.5,552.3z"/>
		</g>
	</g>
</g>
<path class="st6" d="M1801.3,1425.2h-611.4c-26.2,0-47.6-21.4-47.6-47.6v-359.4c0-26.2,21.4-47.6,47.6-47.6h611.4
	c26.2,0,47.6,21.4,47.6,47.6v359.4C1848.9,1403.8,1827.5,1425.2,1801.3,1425.2z"/>
<rect x="1198.3" y="981.4" class="st2" width="584.5" height="430.2"/>
<circle class="st9" cx="1817" cy="1201.9" r="18.1"/>
<g>
	<g>
		<g>
			<rect x="1226.3" y="1301.8" class="st7" width="15" height="76.3"/>
		</g>
		<g>
			<rect x="1251.7" y="1294" class="st7" width="15" height="84.1"/>
		</g>
		<g>
			<rect x="1277.1" y="1288.8" class="st7" width="15" height="89.3"/>
		</g>
		<g>
			<rect x="1302.6" y="1305.4" class="st7" width="15" height="72.7"/>
		</g>
		<g>
			<rect x="1328" y="1279.3" class="st7" width="15" height="98.8"/>
		</g>
		<g>
			<rect x="1353.4" y="1309.2" class="st7" width="15" height="68.9"/>
		</g>
		<g>
			<rect x="1378.8" y="1317.4" class="st7" width="15" height="60.6"/>
		</g>
		<g>
			<rect x="1404.3" y="1294" class="st7" width="15" height="84.1"/>
		</g>
		<g>
			<rect x="1429.7" y="1264.3" class="st7" width="15" height="113.8"/>
		</g>
		<g>
			<rect x="1455.1" y="1305.4" class="st7" width="15" height="72.7"/>
		</g>
		<g>
			<rect x="1480.6" y="1311.6" class="st7" width="15" height="66.5"/>
		</g>
		<g>
			<rect x="1634" y="1264.3" class="st7" width="15" height="113.8"/>
		</g>
		<g>
			<rect x="1659.4" y="1305.4" class="st7" width="15" height="72.7"/>
		</g>
		<g>
			<rect x="1684.8" y="1311.6" class="st7" width="15" height="66.5"/>
		</g>
		<g>
			<rect x="1709.9" y="1311.6" class="st7" width="15" height="66.5"/>
		</g>
		<g>
			<rect x="1735" y="1311.6" class="st11" width="15" height="66.5"/>
		</g>
		<g>
			<rect x="1506" y="1319.9" class="st11" width="15" height="58.2"/>
		</g>
		<g>
			<rect x="1531.4" y="1296.9" class="st11" width="15" height="81.2"/>
		</g>
		<g>
			<rect x="1556.8" y="1305.4" class="st11" width="15" height="72.7"/>
		</g>
		<g>
			<rect x="1582.3" y="1301.8" class="st11" width="15" height="76.3"/>
		</g>
		<g>
			<rect x="1607.7" y="1288.8" class="st11" width="15" height="89.3"/>
		</g>
		<g>
			<g>
				<g class="st4">
					<path class="st11" d="M1282,1136.5v57.1h56.7c-0.2,30.7-25.4,56-56.5,56c-31.2,0-56.6-25.4-56.6-56.6
						C1225.5,1161.9,1250.9,1136.5,1282,1136.5z"/>
				</g>
				<g class="st4">
					<path class="st11" d="M1289.5,1129.1c30.6,0,55.4,25.2,55.4,56.3c0,0.1,0,0.4,0,0.4h-55.4V1129.1z"/>
				</g>
			</g>
		</g>
		<g>
			<g>
				<g class="st4">
					<path class="st11" d="M1303.9,1030.2l15.8-10.1c-1.3-1.7-2.7-3.4-4.2-4.9c-4.1-4.1-8.9-7.3-14.2-9.6
						c-4.9-2.1-10.1-3.2-15.4-3.5v18.7C1293,1021.4,1299.5,1024.9,1303.9,1030.2z"/>
				</g>
				<g class="st4">
					<path class="st11" d="M1277,1029.4v-18.7c-5.3,0.2-10.6,1.4-15.5,3.5c-5.3,2.3-10.1,5.5-14.2,9.6c-1.5,1.5-2.9,3.2-4.2,4.9
						l15.8,10.1C1263.2,1033.4,1269.6,1029.9,1277,1029.4z"/>
				</g>
				<g class="st4">
					<path class="st11" d="M1305.1,1055.4c0,4-0.9,7.8-2.5,11.3l15.8,10.1c0.7-1.3,1.3-2.6,1.9-3.9c2.3-5.5,3.5-11.4,3.5-17.4
						c0-6-1.2-11.9-3.5-17.4c-0.9-2.1-1.9-4.1-3.1-6.1l-15.7,10C1303.7,1045.9,1305.1,1050.5,1305.1,1055.4z"/>
				</g>
				<g class="st4">
					<path class="st11" d="M1280.9,1081.5v18.7c5.3-0.2,10.5-1.4,15.4-3.5c5.3-2.3,10.1-5.5,14.2-9.6c2.1-2.1,4-4.5,5.7-6.9
						l-15.7-10C1296.2,1076.5,1289.1,1080.8,1280.9,1081.5z"/>
				</g>
				<g class="st4">
					<path class="st11" d="M1252.8,1055.4c0-4.9,1.4-9.5,3.7-13.5l-15.7-10c-1.2,1.9-2.2,4-3.1,6.1c-2.3,5.5-3.5,11.4-3.5,17.4
						c0,6,1.2,11.9,3.5,17.4c0.6,1.3,1.2,2.6,1.9,3.9l15.8-10.1C1253.7,1063.3,1252.8,1059.4,1252.8,1055.4z"/>
				</g>
				<g class="st4">
					<path class="st11" d="M1257.3,1070.1l-15.7,10c1.6,2.5,3.5,4.8,5.7,6.9c4.1,4.1,8.9,7.3,14.2,9.6c4.9,2.1,10.2,3.3,15.5,3.5
						v-18.7C1268.8,1080.9,1261.7,1076.5,1257.3,1070.1z"/>
				</g>
			</g>
		</g>
		<g>
			<g>
				<polygon class="st7" points="1675.2,1234.2 1477,1234.2 1477,1041.7 1481.1,1041.7 1481.1,1231.8 1675.2,1231.8 				"/>
				<g>
					<path class="st7" d="M1479.8,1013.9c-4.5,12.2-12.3,27.4-20.4,36.8l20.4-7.4l20.4,7.4C1492,1041.3,1484.3,1026.1,1479.8,1013.9
						z"/>
				</g>
				<g>
					<path class="st7" d="M1699.8,1232.4c-12.2,4.5-27.4,12.3-36.8,20.5l7.4-20.5l-7.4-20.4
						C1672.5,1220.2,1687.6,1227.9,1699.8,1232.4z"/>
				</g>
			</g>
		</g>
		<g>
			<rect x="1506.6" y="1128.8" class="st7" width="24.3" height="100.4"/>
		</g>
		<g>
			<rect x="1563.3" y="1100.8" class="st7" width="24.3" height="128.4"/>
		</g>
		<g>
			<rect x="1622.6" y="1075.7" class="st7" width="24.3" height="153.5"/>
		</g>
	</g>
</g>
</svg>
