<?xml version="1.0" encoding="utf-8"?>
<!-- Generator: Adobe Illustrator 16.0.0, SVG Export Plug-In . SVG Version: 6.00 Build 0)  -->
<!DOCTYPE svg PUBLIC "-//W3C//DTD SVG 1.1//EN" "http://www.w3.org/Graphics/SVG/1.1/DTD/svg11.dtd">
<svg version="1.1" id="Layer_1" xmlns="http://www.w3.org/2000/svg" xmlns:xlink="http://www.w3.org/1999/xlink" x="0px" y="0px"
	 width="1400px" height="1400px" viewBox="0 0 1400 1400" enable-background="new 0 0 1400 1400" xml:space="preserve">
<g>
	<path fill-rule="evenodd" clip-rule="evenodd" fill="#9F1F24" d="M130.1,850c0-115.5,0-231,0-346.5c0.4-0.5,1.1-1,1.2-1.6
		c3-29.5,30.9-58.8,71-58.6c161.8,0.7,323.5,0.3,485.3,0.3c2.9,0,5.8,0.2,8.7,0.3c0,155.3,0,310.5,0,465.8c-1,0.1-1.9,0.3-2.9,0.3
		c-165.6,0-331.3,0.1-496.9-0.1c-29.5,0-55.8-21.2-63.5-49.7C132,856.8,132.7,852.9,130.1,850z M350.2,665.7c0-0.1,0-0.2,0-0.3
		c17,0,34-0.1,50.9,0c4.2,0,6.5-1,7.3-5.8c1.3-7.8,4-15.4,5.2-23.3c0.6-3.7,4.7-9.5,0.4-11.1c-5.4-2.1-6.8,4.7-8.7,8.6
		c-4.2,9-10.4,16-19.9,19c-14.8,4.6-30,4.6-45.2,2.2c-3.9-0.6-6.2-2.7-6.2-6.7c0-18.9,0-37.8-0.1-56.8c0-2.6,0.7-4.1,3.7-4.2
		c10.6-0.2,21.3-0.8,31.9-0.8c10.3,0,14.9,4.3,16.8,14.4c0.4,1.9,0.9,3.7,1.3,5.6c0.4,2.2,1.6,3.6,3.9,3.3c2.4-0.4,1.9-2.5,1.9-4
		c0.1-4.6,0.1-9.2,0.1-13.8c0-10.4,0-20.9-0.1-31.3c0-2.4,0.4-5.6-2.5-6.1c-3.9-0.7-3,3.6-4.3,5.6c-0.2,0.4-0.2,0.9-0.3,1.4
		c-2.5,11.6-6.1,15-17.6,15c-10.6,0-21.3-1.1-31.9-1.4c-3.6-0.1-3-2.4-3-4.5c0-15.5,0.1-31-0.1-46.6c-0.1-6.7,3-9,9.3-8.9
		c10.7,0.2,21.3-0.1,32,0.1c15.4,0.3,18.3,2.8,22.8,17.8c0.3,0.9,0.7,1.8,0.9,2.7c0.7,2.3,1.2,5.3,4.4,4.7c3.1-0.5,1.9-3.5,1.9-5.5
		c0.1-7.8-0.4-15.5,0.1-23.3c0.3-5.6-1.6-6.8-6.9-6.8c-32.3,0.3-64.5,0.1-96.8,0.1c-1.2,0-2.4,0-3.6,0c-1.8,0.1-3.5,0.7-3.6,2.8
		c-0.1,2.2,1.6,2.4,3.4,2.9c11.3,3.3,14.1,6.8,14.3,18.5c0.2,10.7,0.1,21.3,0.1,32c-0.1,26.2-0.2,52.4-0.3,78.6
		c-0.1,13.1-1.8,15.5-14,19.8c-1.9,0.6-3.9,1.3-3.3,3.9c0.6,2.4,2.7,2.2,4.7,2.1C316.2,665.6,333.2,665.7,350.2,665.7z M478.8,665.1
		c0,0.1,0,0.2,0,0.2c17.7,0,35.4,0,53.1,0c3.1,0,6.8,0.7,7.1-4c0.7-9.9,3.4-19.6,3-29.6c-0.1-2.8,2.2-7.5-1.7-8.2
		c-3.7-0.6-4,4.3-4.7,7.1c-3.8,16.1-12,25.2-35.2,25.6c-14.5,0.3-29.1-0.9-43.6-0.8c-5.9,0-6.1-1.4-3.3-5.9
		c10.9-17.5,21.5-35.1,32.3-52.6c16.9-27.7,33.9-55.3,50.8-83c3.9-6.3,3.2-8.8-2.7-8.8c-33.5-0.1-67,0-100.5-0.1
		c-3.4,0-4.7,1.3-5,4.7c-0.8,9.2-2.1,18.3-2.6,27.5c-0.2,3.2-2.7,8.6,1.5,9.6c5.8,1.3,4.5-5.2,5.3-8.3c4.3-15.9,11.7-22.7,27.9-23.3
		c13.1-0.5,26.2,0,39.3,0.3c3,0.1,7.2-1.7,8.6,1.1c1.4,2.7-2.2,5.5-3.8,8.1c-27.4,44.5-54.8,89-82.2,133.6c-4.1,6.7-4,6.9,3.8,6.9
		C443.9,665.1,461.4,665.1,478.8,665.1z M614.2,613.7c7,0,14.1,0.2,21.1-0.1c4.5-0.2,7.2,1.1,8.6,5.6c2.5,7.8,5.6,15.4,8.4,23.1
		c4.1,11.7,3.3,13.3-8.5,17.3c-0.7,0.2-1.3,0.6-2,0.9c-1.1,0.6-2,1.5-1.7,2.9c0.3,1.4,1.5,1.7,2.8,1.8c15.5,0.7,30.9,1.6,46.4,0
		c1.5-0.2,3-0.4,3.1-2.3c0.1-1.3-0.7-2.5-1.9-2.7c-9.4-1.8-11.2-9.9-14.1-16.9c-13-31.4-25-63.2-36.6-95.2
		c-4.8-13.2-9.4-26.3-14.2-39.5c-1-2.7-1.5-6.3-5.1-6.2c-3.2,0.1-3.5,3.5-4.4,5.9c-1.3,3.6-2.8,7.2-4.1,10.8
		c-14.6,39.6-29,79.3-43.7,118.8c-3.4,9-7.1,18.2-17.1,22.4c-1.3,0.6-1.9,1.4-1.8,2.7c0.1,2.1,1.6,2,3,2.2c11.6,2,23.1-1.2,34.7,0.3
		c1.3,0.2,2.9-0.4,3.1-2.3c0.3-2.9-2-2.9-3.7-3.5c-9.5-3.2-11.4-6.5-8.6-16c2.5-8.3,5.6-16.5,8.1-24.8c1.3-4.3,3.7-5.5,8-5.4
		C600.6,613.9,607.4,613.7,614.2,613.7z M310.8,752.2c-7.5,13.4-11.8,30.2-11.4,42.5c0.8,24.9,15.5,38.2,40.3,36.4
		c7.9-0.6,14.8-3.8,21.9-7c20.3-9.3,28.6-27.9,36.4-46.7c3.2-7.8,2.4-10.8-5.1-14.9c-8.5-4.6-17.2-8.7-26.1-12.6
		c-4.4-2-4.7-4-1.9-7.5c7.9-9.6,17.8-14.1,30.1-11.1c4.4,1.1,6.4,0,7.5-4c0.8-2.8,2-5.4,2.6-8.2c1.6-7.7-1.4-11.4-9.4-11.7
		c-9.3-0.3-17.6,2.9-24.8,8.6c-12.1,9.5-20.4,21.9-26.5,35.8c-4.1,9.3-2.4,13.5,6.9,18c7.6,3.7,15.3,7.2,22.9,10.8
		c2.8,1.3,4.6,2.6,1.6,5.8c-9.2,9.9-19.7,17.9-33.2,21.1c-15.9,3.8-27.1-3.5-30.8-19.3C309.3,776.7,310.6,765.4,310.8,752.2z
		 M495.2,698.5c-5.2,6.7-9.2,12-13.4,17.3c-4.2,5.2-5.6,10.9-4.6,17.6c1.2,7.9,1.6,15.9,2.4,23.8c2.4,26.1,1.3,52.2,1.5,78.3
		c0,1.6-1.2,3.8,1.4,5.1c1.5-2.3,3-4.5,4.3-6.8c1.2-2.1,2.2-4.3,3.2-6.5c9.8-22,9-45.1,7.8-68.4c-0.5-8.6-3.6-17.5-0.1-25.7
		c1.8-4.4,2.4-8.2,1.8-12.5C498.3,713.9,496.8,707,495.2,698.5z M462.1,772.8c-0.1-14.7-4.1-25.9-10.4-36.4
		c-1.9-3.2-3.2-3.3-5.8-0.5c-9.3,10.3-9.6,11.3-2.8,23.5c9.7,17.4,9.3,24.1-2.6,38.6c-6.6,8.1-14.4,14.1-25.6,14.4
		c-3.8,0.1-9.4-3.6-10.5-0.5c-1.4,3.9,3.4,8,6.1,11.6c10.6,14.1,22.2,14.6,32.5,0.9C455,808.6,461.1,790.4,462.1,772.8z
		 M503.1,815.1c4.4,5.9,7.6,10.8,11.3,15.1c11.2,13,21.1,12.6,31.5-1.3c9.1-12.2,14.4-26.1,17.1-41.1c3-16.5,0.1-31.8-9.1-45.7
		c-0.9-1.4-1.3-5.4-5-1.9c-9.5,9.1-10.2,12.8-4,24.2c2.2,4,4,8.3,6.2,12.3c1.8,3.2,1.9,6.5,1,9.9
		C546.7,808.2,526.3,820.6,503.1,815.1z M581.5,795.4c1.5-0.8,2-1,2.3-1.3c0.6-0.7,1.2-1.5,1.7-2.3c10-14.3,11.3-30.5,10.6-47.2
		c-0.4-9.4-3.5-19.6-0.9-28.1c3-9.8-0.6-17.6-1.9-26.5c-6,8.8-17.2,14.2-14.6,27.8c2.6,13.8,2.9,27.9,2.8,41.9
		C581.5,771.3,581.5,782.9,581.5,795.4z M604.7,833c-3.6-1.2-6.6,0.5-9.6,0.7c-5.9,0.3-14.9-4.1-13.9-6.8c2.2-5.5,7.2-6.6,12.6-6.1
		c0.2,0,0.5,0,0.7,0c5.6,0.5,6.5-4.1,6.8-7.6c0.3-4-3-5.4-6.9-5.5c-12.7-0.3-27.2,18-20.7,28.5c4.5,7.3,4.2,12.3,1.8,18.9
		c-0.2,0.5,0.3,1.2,0.6,2.3c5.3-4.8,10.1-10.2,16.8-11.3C600.7,844.9,603.5,840.4,604.7,833z M340.7,856.4c2.2,0.4,3.9,0.8,4.9,2.3
		c3.7,5.5,6.5,3,10.6-0.2c6.2-4.7,5.9-8.3,0.4-12.8c-1.9-1.5-3.7-3.2-5.1-5.1c-2.9-3.8-5.5-3-7.9,0.2c-3.6,4.9-7.1,4-10.3-0.1
		c-2.7-3.5-4.8-3.4-8-0.3c-7.5,7.2-7.7,7-0.9,14.6c1,1.1,2.1,2.1,2.9,3.3c3.3,4.8,6.6,5.6,10.4,0.5
		C338.5,857.7,339.9,857,340.7,856.4z M530.7,703.8c-2.7,3-5.3,6-8,9c-1.7,2-1.4,4,0.2,5.9c2.7,3.1,5.4,6.1,8.2,9.1
		c2,2.1,4.7,2.2,6.5,0.4c2.8-3,8.4-5.8,6.7-9.9C541.8,712.4,536.6,707.9,530.7,703.8z"/>
	<path fill-rule="evenodd" clip-rule="evenodd" fill="#275DA8" d="M696.2,443.9c2.9-0.1,5.8-0.3,8.7-0.3c164.3,0,328.5,0,492.8,0
		c41.2,0,70.6,29.2,70.6,70.5c0.1,108.5,0.1,216.9,0,325.4c0,41.3-29.4,70.5-70.6,70.5c-164.3,0-328.5,0-492.8,0
		c-2.9,0-5.8-0.2-8.7-0.3C696.2,754.4,696.2,599.1,696.2,443.9z M1030.9,599.1c0.5,4-1.6,5.7-2.9,7.6c-7.4,11.1-15.6,21.7-22.1,33.3
		c-7.8,13.8-18.3,21.8-33.5,28.2c-60,25-99,72.1-126.7,129.3c-6.4,13.2-8.8,28.2-5.1,43.2c2.2,9,7.7,12.2,16.8,10
		c6-1.4,11.2-4.5,16.1-8c16.9-12.1,30.8-27.4,44-43.2c31-36.8,57.4-76.9,84.4-116.6c7.7-11.3,15.6-18.3,29.8-16.5
		c4.4,0.6,9.6-0.6,9.5-6.4c-0.1-6.3-5.8-3-9.1-3.9c-0.5-0.1-1,0-1.5,0c-2.3-0.1-5.3,1.6-6.6-1c-1.2-2.4,1.4-4.4,2.7-6.4
		c18.3-29.5,37.7-58.1,58.2-86.1c11.9-16.2,24.2-32.1,36.3-48.2c3-4.1,6.5-8.2,5.4-13.7c-1.1-5.1-4.5-8.7-9.5-10.1
		c-5.7-1.6-9.7,1.6-13,5.8c-23,29.1-47.3,57.1-72.1,84.8c-18.6,20.8-37.3,41.5-59.4,58.7c-3.6,2.8-7.2,5.8-12,6.4
		c-6.7,0.8-8.4-0.9-7.5-7.6c1.3-9.6,5.8-17.8,10.5-26c18.7-32.2,41.9-61.1,64.4-90.6c6.1-7.9,3.6-17.3-5.6-21.5
		c-8.1-3.7-14,0.5-19.4,5.7c-31.7,30.4-62.3,61.9-94.7,91.5c-24.2,22.1-48.5,43.9-79.6,56.4c-5.9,2.4-8.6,1.2-11.8-3.4
		c-13-18.7-26-37.4-39.4-55.8c-4.1-5.7-2.4-7.2,3.6-8.9c10.8-2.9,20.2-8.1,25.3-18.9c11.8-24.9-1-53.1-27.7-59.3
		c-24.6-5.7-49.8-2.1-74.7-2.8c-1.7,0-3.5,0.5-3.5,2.7c0,2.1,1.5,2.8,3.3,3.1c6.3,1.3,11.6,3.8,12.6,11.1c0.6,4.1,1.3,8.2,1.3,12.3
		c-0.3,36.1-0.7,72.2-1.1,108.4c-0.1,8.6-2.8,15.2-12.4,16.9c-1.9,0.3-4,1.2-3.6,3.8c0.3,2.3,2.4,2,4.1,2c16,0,32,0.1,48,0
		c1.7,0,4.3,0.6,4.3-2.4c0-2.4-2.2-2.1-3.7-2.5c-12.7-3.7-14.9-6.3-14.9-19.9c0.1-13.6,0.5-27.1,1.1-40.7c0.1-2.7-2.2-6.8,2.7-7.8
		c4.1-0.9,7.7-0.9,10.6,3.6c11.3,17.5,23.8,34.3,34.2,52.2c7.5,12.9,15.1,22.5,31.7,17.3c0.2-0.1,0.5,0,0.7,0
		c11.2,1.9,20.9-2.3,30.3-7.6c7.8-4.4,15.4-9.1,22.5-14.7c32.7-26,62.4-55.3,92.7-83.9c2.3-2.2,4.1-5.2,8.2-5.9
		c0,3.1-1.9,4.7-3.2,6.5c-8.3,11.7-17.1,22.9-23.8,35.6c-6.9,13.2-12,27-11.5,42.2c0.3,9,0.7,18.7,10,23.4
		c9.4,4.7,17.3-0.9,24.7-6.1c17.3-12.3,32.3-27.1,47-42.3C1021.1,607.9,1025.1,603,1030.9,599.1z M1223.8,606
		c-0.2-35-27.1-62.2-61.3-62c-33.7,0.2-59.9,28.3-59.7,63.7c0.3,33.8,27.8,61.1,61.8,61.3C1196.3,669.2,1224,639.7,1223.8,606z"/>
	<path fill-rule="evenodd" clip-rule="evenodd" fill="#FCFAFA" d="M350.2,665.7c-17,0-33.9,0-50.9,0c-2,0-4,0.3-4.7-2.1
		c-0.7-2.6,1.4-3.3,3.3-3.9c12.2-4.3,13.9-6.7,14-19.8c0.1-26.2,0.3-52.4,0.3-78.6c0-10.7,0.1-21.3-0.1-32
		c-0.3-11.8-3-15.2-14.3-18.5c-1.7-0.5-3.5-0.7-3.4-2.9c0.1-2.1,1.8-2.7,3.6-2.8c1.2-0.1,2.4,0,3.6,0c32.3,0,64.5,0.1,96.8-0.1
		c5.4,0,7.3,1.2,6.9,6.8c-0.5,7.7,0,15.5-0.1,23.3c0,2,1.2,4.9-1.9,5.5c-3.2,0.6-3.7-2.4-4.4-4.7c-0.3-0.9-0.7-1.8-0.9-2.7
		c-4.5-15-7.5-17.5-22.8-17.8c-10.7-0.2-21.3,0.1-32-0.1c-6.3-0.1-9.4,2.2-9.3,8.9c0.2,15.5,0.1,31,0.1,46.6c0,2.1-0.6,4.4,3,4.5
		c10.6,0.4,21.3,1.4,31.9,1.4c11.5,0,15.1-3.4,17.6-15c0.1-0.5,0.1-1,0.3-1.4c1.3-2,0.5-6.3,4.3-5.6c2.8,0.5,2.5,3.7,2.5,6.1
		c0.1,10.4,0.1,20.9,0.1,31.3c0,4.6,0,9.2-0.1,13.8c0,1.6,0.5,3.7-1.9,4c-2.4,0.3-3.5-1.1-3.9-3.3c-0.4-1.9-1-3.7-1.3-5.6
		c-1.9-10-6.5-14.3-16.8-14.4c-10.6-0.1-21.3,0.6-31.9,0.8c-2.9,0.1-3.7,1.6-3.7,4.2c0,18.9,0,37.8,0.1,56.8c0,4,2.3,6.1,6.2,6.7
		c15.2,2.5,30.4,2.4,45.2-2.2c9.5-2.9,15.7-10,19.9-19c1.8-3.9,3.3-10.7,8.7-8.6c4.3,1.7,0.1,7.4-0.4,11.1
		c-1.2,7.8-3.9,15.5-5.2,23.3c-0.8,4.8-3.1,5.8-7.3,5.8c-17-0.1-34,0-50.9,0C350.2,665.5,350.2,665.6,350.2,665.7z"/>
	<path fill-rule="evenodd" clip-rule="evenodd" fill="#FCFAFA" d="M478.8,665.1c-17.5,0-34.9,0-52.4,0c-7.8,0-7.9-0.2-3.8-6.9
		c27.4-44.5,54.8-89,82.2-133.6c1.6-2.6,5.2-5.4,3.8-8.1c-1.4-2.8-5.7-1-8.6-1.1c-13.1-0.3-26.2-0.8-39.3-0.3
		c-16.3,0.6-23.7,7.4-27.9,23.3c-0.8,3.1,0.5,9.6-5.3,8.3c-4.1-0.9-1.7-6.3-1.5-9.6c0.5-9.2,1.8-18.3,2.6-27.5
		c0.3-3.3,1.6-4.7,5-4.7c33.5,0.1,67,0,100.5,0.1c5.9,0,6.5,2.5,2.7,8.8c-16.9,27.7-33.9,55.3-50.8,83
		c-10.7,17.5-21.4,35.1-32.3,52.6c-2.8,4.5-2.6,5.9,3.3,5.9c14.5,0,29.1,1.1,43.6,0.8c23.2-0.4,31.3-9.5,35.2-25.6
		c0.7-2.8,1-7.8,4.7-7.1c4,0.7,1.6,5.4,1.7,8.2c0.5,10-2.3,19.7-3,29.6c-0.3,4.7-4,4-7.1,4c-17.7,0-35.4,0-53.1,0
		C478.8,665.3,478.8,665.2,478.8,665.1z"/>
	<path fill-rule="evenodd" clip-rule="evenodd" fill="#FCFAFA" d="M614.2,613.7c-6.8,0-13.6,0.2-20.4-0.1c-4.2-0.2-6.7,1.1-8,5.4
		c-2.5,8.3-5.5,16.5-8.1,24.8c-2.9,9.5-1,12.8,8.6,16c1.7,0.6,4,0.6,3.7,3.5c-0.2,1.9-1.8,2.5-3.1,2.3c-11.6-1.5-23.2,1.7-34.7-0.3
		c-1.5-0.3-3-0.2-3-2.2c0-1.4,0.5-2.2,1.8-2.7c10-4.2,13.7-13.4,17.1-22.4c14.8-39.5,29.2-79.2,43.7-118.8c1.3-3.6,2.8-7.2,4.1-10.8
		c0.9-2.4,1.2-5.9,4.4-5.9c3.6-0.1,4.1,3.6,5.1,6.2c4.8,13.1,9.4,26.3,14.2,39.5c11.6,32,23.6,63.8,36.6,95.2
		c2.9,6.9,4.8,15.1,14.1,16.9c1.3,0.2,2,1.4,1.9,2.7c-0.1,1.9-1.6,2.2-3.1,2.3c-15.5,1.6-30.9,0.7-46.4,0c-1.3-0.1-2.5-0.4-2.8-1.8
		c-0.3-1.4,0.6-2.2,1.7-2.9c0.6-0.4,1.3-0.7,2-0.9c11.7-4,12.6-5.6,8.5-17.3c-2.7-7.7-5.9-15.3-8.4-23.1c-1.5-4.6-4.1-5.8-8.6-5.6
		C628.3,613.9,621.3,613.7,614.2,613.7z M614.2,540.1c-7.2,20.3-14,39.3-20.7,58.2c-1.3,3.6,0,4.7,3.7,4.6c9-0.2,18-0.1,26.9,0
		c14,0,14.1,0,9.6-13C628.1,573.5,622.5,557.1,614.2,540.1z"/>
	<path fill-rule="evenodd" clip-rule="evenodd" fill="#FCFAFA" d="M310.8,752.2c-0.2,13.2-1.5,24.5,1.2,35.8
		c3.7,15.8,14.9,23.1,30.8,19.3c13.5-3.2,23.9-11.2,33.2-21.1c2.9-3.2,1.2-4.4-1.6-5.8c-7.7-3.6-15.3-7.2-22.9-10.8
		c-9.3-4.4-11-8.7-6.9-18c6.1-13.9,14.4-26.3,26.5-35.8c7.3-5.7,15.5-8.9,24.8-8.6c8,0.3,11,3.9,9.4,11.7c-0.6,2.8-1.8,5.5-2.6,8.2
		c-1.1,4-3.1,5.1-7.5,4c-12.3-3.1-22.2,1.5-30.1,11.1c-2.9,3.5-2.5,5.6,1.9,7.5c8.8,3.9,17.6,8,26.1,12.6c7.5,4,8.3,7.1,5.1,14.9
		c-7.9,18.9-16.1,37.4-36.4,46.7c-7.1,3.2-14.1,6.5-21.9,7c-24.8,1.8-39.5-11.5-40.3-36.4C299.1,782.4,303.3,765.6,310.8,752.2z"/>
	<path fill-rule="evenodd" clip-rule="evenodd" fill="#FCFAFA" d="M495.2,698.5c1.6,8.5,3.1,15.3,4.1,22.2c0.7,4.2,0.1,8.1-1.8,12.5
		c-3.4,8.2-0.3,17.1,0.1,25.7c1.2,23.3,2,46.4-7.8,68.4c-1,2.2-2,4.4-3.2,6.5c-1.3,2.3-2.8,4.5-4.3,6.8c-2.6-1.3-1.3-3.5-1.4-5.1
		c-0.2-26.1,0.9-52.3-1.5-78.3c-0.7-7.9-1.2-15.9-2.4-23.8c-1-6.7,0.4-12.4,4.6-17.6C486,710.6,490,705.2,495.2,698.5z"/>
	<path fill-rule="evenodd" clip-rule="evenodd" fill="#FCFAFA" d="M462.1,772.8c-1,17.6-7.1,35.8-19.1,51.6
		c-10.4,13.7-22,13.2-32.5-0.9c-2.7-3.6-7.5-7.7-6.1-11.6c1.1-3.1,6.7,0.6,10.5,0.5c11.2-0.4,19-6.3,25.6-14.4
		c11.8-14.6,12.2-21.3,2.6-38.6c-6.7-12.1-6.5-13.2,2.8-23.5c2.5-2.8,3.8-2.8,5.8,0.5C458,746.9,462.1,758.1,462.1,772.8z"/>
	<path fill-rule="evenodd" clip-rule="evenodd" fill="#FCFAFA" d="M503.1,815.1c23.3,5.5,43.6-6.9,49.2-28.5c0.9-3.3,0.7-6.7-1-9.9
		c-2.2-4-4-8.3-6.2-12.3c-6.2-11.4-5.5-15,4-24.2c3.7-3.5,4,0.4,5,1.9c9.2,14,12.1,29.2,9.1,45.7c-2.7,15-8,28.9-17.1,41.1
		c-10.3,13.8-20.2,14.2-31.5,1.3C510.7,825.9,507.5,821,503.1,815.1z"/>
	<path fill-rule="evenodd" clip-rule="evenodd" fill="#FCFAFA" d="M581.5,795.4c0-12.5,0-24,0-35.6c0.1-14.1-0.3-28.2-2.8-41.9
		c-2.5-13.7,8.6-19.1,14.6-27.8c1.3,8.9,4.9,16.7,1.9,26.5c-2.6,8.5,0.5,18.6,0.9,28.1c0.7,16.7-0.6,32.9-10.6,47.2
		c-0.6,0.8-1.1,1.6-1.7,2.3C583.6,794.4,583.1,794.5,581.5,795.4z"/>
	<path fill-rule="evenodd" clip-rule="evenodd" fill="#FCFAFA" d="M604.7,833c-1.1,7.3-4,11.8-11.7,13.1
		c-6.7,1.1-11.5,6.5-16.8,11.3c-0.3-1.2-0.8-1.9-0.6-2.3c2.3-6.6,2.7-11.6-1.8-18.9c-6.5-10.5,8-28.8,20.7-28.5
		c3.9,0.1,7.2,1.4,6.9,5.5c-0.3,3.5-1.1,8.1-6.8,7.6c-0.2,0-0.5,0-0.7,0c-5.5-0.5-10.4,0.6-12.6,6.1c-1.1,2.7,8,7.1,13.9,6.8
		C598.1,833.6,601.1,831.8,604.7,833z"/>
	<path fill-rule="evenodd" clip-rule="evenodd" fill="#FCFAFA" d="M340.7,856.4c-0.8,0.6-2.2,1.3-3,2.4c-3.8,5.1-7.1,4.4-10.4-0.5
		c-0.8-1.2-1.9-2.2-2.9-3.3c-6.8-7.6-6.6-7.4,0.9-14.6c3.3-3.1,5.3-3.1,8,0.3c3.3,4.1,6.8,5,10.3,0.1c2.4-3.3,5-4.1,7.9-0.2
		c1.4,1.9,3.2,3.6,5.1,5.1c5.5,4.5,5.8,8.1-0.4,12.8c-4.2,3.2-6.9,5.7-10.6,0.2C344.6,857.2,342.9,856.8,340.7,856.4z"/>
	<path fill-rule="evenodd" clip-rule="evenodd" fill="#FCFAFA" d="M530.7,703.8c5.9,4.1,11.1,8.6,13.6,14.4c1.7,4.1-3.9,7-6.7,9.9
		c-1.8,1.8-4.5,1.7-6.5-0.4c-2.8-3-5.6-6-8.2-9.1c-1.6-1.8-1.9-3.9-0.2-5.9C525.3,709.8,528,706.8,530.7,703.8z"/>
	<path fill-rule="evenodd" clip-rule="evenodd" fill="#FCFAFA" d="M1030.9,599.1c-5.9,3.9-9.8,8.8-14.1,13.3
		c-14.7,15.2-29.7,30-47,42.3c-7.4,5.2-15.3,10.8-24.7,6.1c-9.3-4.7-9.7-14.3-10-23.4c-0.5-15.2,4.5-29,11.5-42.2
		c6.7-12.7,15.5-24,23.8-35.6c1.3-1.9,3.2-3.5,3.2-6.5c-4.1,0.6-5.9,3.7-8.2,5.9c-30.3,28.6-60,57.9-92.7,83.9
		c-7,5.6-14.6,10.3-22.5,14.7c-9.4,5.3-19.1,9.5-30.3,7.6c-0.2,0-0.5-0.1-0.7,0c-16.6,5.2-24.2-4.4-31.7-17.3
		c-10.5-18-23-34.7-34.2-52.2c-2.9-4.5-6.5-4.4-10.6-3.6c-4.8,1-2.6,5.1-2.7,7.8c-0.6,13.5-1,27.1-1.1,40.7
		c-0.1,13.6,2.1,16.2,14.9,19.9c1.6,0.4,3.8,0.1,3.7,2.5c0,3-2.6,2.4-4.3,2.4c-16,0.1-32,0.1-48,0c-1.6,0-3.7,0.2-4.1-2
		c-0.4-2.5,1.7-3.4,3.6-3.8c9.6-1.7,12.3-8.2,12.4-16.9c0.4-36.1,0.8-72.2,1.1-108.4c0-4.1-0.7-8.2-1.3-12.3
		c-1-7.3-6.3-9.8-12.6-11.1c-1.8-0.4-3.3-1.1-3.3-3.1c0-2.3,1.8-2.8,3.5-2.7c24.9,0.7,50-3,74.7,2.8c26.7,6.2,39.5,34.4,27.7,59.3
		c-5.1,10.8-14.5,16-25.3,18.9c-6,1.6-7.7,3.2-3.6,8.9c13.3,18.4,26.4,37.1,39.4,55.8c3.2,4.6,5.9,5.8,11.8,3.4
		c31-12.6,55.4-34.3,79.6-56.4c32.4-29.6,63-61.1,94.7-91.5c5.5-5.2,11.3-9.4,19.4-5.7c9.2,4.2,11.7,13.6,5.6,21.5
		c-22.5,29.5-45.7,58.4-64.4,90.6c-4.8,8.2-9.2,16.4-10.5,26c-0.9,6.7,0.8,8.4,7.5,7.6c4.8-0.6,8.4-3.6,12-6.4
		c22.2-17.2,40.8-37.9,59.4-58.7c24.8-27.6,49.1-55.6,72.1-84.8c3.4-4.2,7.3-7.5,13-5.8c4.9,1.4,8.4,5,9.5,10.1
		c1.2,5.6-2.3,9.7-5.4,13.7c-12.1,16.1-24.4,32-36.3,48.2c-20.5,27.9-39.9,56.6-58.2,86.1c-1.2,2-3.8,4-2.7,6.4
		c1.3,2.6,4.3,0.8,6.6,1c0.5,0,1-0.1,1.5,0c3.3,0.8,9-2.4,9.1,3.9c0.1,5.7-5.2,6.9-9.5,6.4c-14.2-1.8-22.1,5.2-29.8,16.5
		c-26.9,39.7-53.4,79.8-84.4,116.6c-13.3,15.8-27.1,31-44,43.2c-4.9,3.5-10.1,6.5-16.1,8c-9.1,2.2-14.6-0.9-16.8-10
		c-3.7-15-1.3-30,5.1-43.2c27.7-57.1,66.7-104.2,126.7-129.3c15.2-6.3,25.7-14.4,33.5-28.2c6.6-11.6,14.8-22.2,22.1-33.3
		C1029.3,604.7,1031.4,603.1,1030.9,599.1z M975.3,552.4c0.1-0.6,0.2-1.2,0.3-1.8c-0.5,0.1-1.1,0.2-1.6,0.3
		c-0.7,0.8-2.3,1.4-0.8,2.6C973.4,553.8,974.6,552.8,975.3,552.4z M979.3,675.1c-2.2,0.9-4.4,1.6-6.5,2.6
		c-36.1,16.1-64.1,42.1-88.6,72.3c-15.6,19.1-28.5,39.6-34,64c-1,4.5-1.6,9.1-0.8,13.7c0.9,5.4,3.9,7.5,9.3,5.4
		c5.6-2.2,9.8-6.2,14-10.2c17.9-17.5,33-37.5,47.7-57.6C941.4,736.4,960.7,706.2,979.3,675.1z M739.7,564.9c-0.3,0-0.5,0-0.8,0
		c0,3.9,0.2,7.8,0,11.6c-0.3,4.6,1.8,6.1,6.1,5.6c4.8-0.6,9.6-0.9,14.4-1.6c18.2-2.7,27.2-12.6,27.7-30.4
		c0.7-19.9-6.8-30.4-24.6-34.4c-5.2-1.2-10.6-0.8-15.9-0.3c-4.9,0.5-7,3.1-6.9,8.2C739.9,537.4,739.7,551.1,739.7,564.9z"/>
	<path fill-rule="evenodd" clip-rule="evenodd" fill="#FCFAFA" d="M1223.8,606c0.2,33.7-27.5,63.2-59.2,63
		c-34-0.2-61.5-27.5-61.8-61.3c-0.3-35.5,26-63.5,59.7-63.7C1196.6,543.8,1223.6,571,1223.8,606z M1213.7,606.7
		c0.1-28.9-21.7-51.4-49.1-52.6c-23.7-1-51.3,18.6-51.7,50.6c-0.4,31,20.8,53.2,50.8,53.4C1191.2,658.4,1213.6,635.3,1213.7,606.7z"
		/>
	<path fill-rule="evenodd" clip-rule="evenodd" fill="#9F1F24" d="M614.2,540.1c8.3,17,13.9,33.4,19.5,49.8c4.4,13,4.3,13-9.6,13
		c-9,0-18-0.1-26.9,0c-3.6,0.1-4.9-1.1-3.7-4.6C600.2,579.4,607,560.4,614.2,540.1z"/>
	<path fill-rule="evenodd" clip-rule="evenodd" fill="#275DA8" d="M979.3,675.1c-18.5,31.1-37.8,61.3-59,90.2
		c-14.8,20.1-29.8,40.1-47.7,57.6c-4.2,4.1-8.4,8.1-14,10.2c-5.4,2.1-8.5,0-9.3-5.4c-0.7-4.6-0.2-9.2,0.8-13.7
		c5.5-24.4,18.4-44.9,34-64c24.6-30.2,52.5-56.3,88.6-72.3C974.9,676.7,977.1,675.9,979.3,675.1z"/>
	<path fill-rule="evenodd" clip-rule="evenodd" fill="#275DA8" d="M739.7,564.9c0-13.8,0.1-27.5-0.1-41.3c-0.1-5.1,2.1-7.8,6.9-8.2
		c5.3-0.5,10.6-0.9,15.9,0.3c17.9,4.1,25.3,14.5,24.6,34.4c-0.6,17.8-9.5,27.7-27.7,30.4c-4.8,0.7-9.6,1-14.4,1.6
		c-4.3,0.5-6.4-1-6.1-5.6c0.2-3.9,0-7.7,0-11.6C739.2,564.9,739.5,564.9,739.7,564.9z"/>
	<path fill-rule="evenodd" clip-rule="evenodd" fill="#275DA8" d="M974,551c0.5-0.1,1.1-0.2,1.6-0.3c-0.1,0.6-0.2,1.2-0.3,1.8
		C974.9,551.9,974.4,551.4,974,551z"/>
	<path fill-rule="evenodd" clip-rule="evenodd" fill="#275DA8" d="M975.3,552.4c-0.7,0.4-1.9,1.4-2.1,1.2c-1.4-1.3,0.1-1.9,0.8-2.6
		C974.4,551.4,974.9,551.9,975.3,552.4z"/>
	<path fill-rule="evenodd" clip-rule="evenodd" fill="#275DA8" d="M1213.7,606.7c-0.1,28.6-22.5,51.7-49.9,51.5
		c-30-0.2-51.2-22.4-50.8-53.4c0.4-32,28-51.6,51.7-50.6C1192,555.3,1213.8,577.8,1213.7,606.7z M1176.6,605.9
		c8.9-4.9,13.9-11.4,11.9-21.1c-1.8-8.4-8.4-12.1-16.1-13.8c-8.3-1.9-16.8-1.9-25.2-0.4c-4,0.7-4.8,3.5-4.8,6.9
		c0,18.6,0,37.3,0,55.9c0,3.9,1.3,5.6,5.5,5.6c4.2,0,4.8-2,4.7-5.4c-0.1-4.6-0.3-9.2,0.1-13.8c0.3-3.6-2.2-8.3,2.6-10.4
		c5.1-2.2,10-0.4,14.3,2.6c3.3,2.2,5.2,5.7,6.2,9.5c1.3,4.6,2.8,9.2,3.9,13.9c1.1,4.6,4.7,3.3,7.6,3.4c2.9,0.1,3.2-2,2.5-4
		C1186.6,624.9,1186.3,613.7,1176.6,605.9z"/>
	<path fill-rule="evenodd" clip-rule="evenodd" fill="#FCFAFA" d="M1176.6,605.9c9.8,7.7,10.1,19,13.3,29c0.6,2,0.4,4.1-2.5,4
		c-2.9-0.1-6.5,1.2-7.6-3.4c-1.2-4.7-2.7-9.3-3.9-13.9c-1.1-3.8-2.9-7.3-6.2-9.5c-4.3-2.9-9.2-4.8-14.3-2.6
		c-4.8,2.1-2.3,6.8-2.6,10.4c-0.4,4.6-0.2,9.2-0.1,13.8c0.1,3.4-0.5,5.4-4.7,5.4c-4.2,0-5.5-1.7-5.5-5.6c0.1-18.6,0-37.3,0-55.9
		c0-3.4,0.8-6.2,4.8-6.9c8.4-1.5,16.9-1.5,25.2,0.4c7.6,1.8,14.3,5.4,16.1,13.8C1190.4,594.6,1185.5,601,1176.6,605.9z
		 M1152.5,590.7c1.7,3.9-4.3,12.4,7.1,11.9c11.8-0.5,18.9-5,18.8-13.2c-0.1-7.9-6.1-12-17.2-12
		C1152.5,577.4,1152.5,577.4,1152.5,590.7z"/>
	<path fill-rule="evenodd" clip-rule="evenodd" fill="#275DA8" d="M1152.5,590.7c0-13.3,0-13.3,8.7-13.3c11.1,0,17.1,4.1,17.2,12
		c0.1,8.2-7,12.7-18.8,13.2C1148.2,603,1154.1,594.5,1152.5,590.7z"/>
</g>
</svg>
