<?xml version="1.0" encoding="utf-8"?>
<!-- Generator: Adobe Illustrator 16.0.0, SVG Export Plug-In . SVG Version: 6.00 Build 0)  -->
<!DOCTYPE svg PUBLIC "-//W3C//DTD SVG 1.1//EN" "http://www.w3.org/Graphics/SVG/1.1/DTD/svg11.dtd">
<svg version="1.1" id="Layer_1" xmlns="http://www.w3.org/2000/svg" xmlns:xlink="http://www.w3.org/1999/xlink" x="0px" y="0px"
	 width="2000px" height="1408.3px" viewBox="0 0 2000 1408.3" style="enable-background:new 0 0 2000 1408.3;" xml:space="preserve"
	>
<style type="text/css">
<![CDATA[
	.st0{fill:#E0E0E0;}
	.st1{fill:#E55957;}
	.st2{fill:#4C525E;}
	.st3{fill:#1E2226;}
	.st4{fill:#1F8BC3;}
	.st5{fill:#518488;}
	.st6{fill:#263238;}
	.st7{fill:#5B6375;}
	.st8{fill:#F6F4F4;}
	.st9{fill:#5E9BA3;}
	.st10{fill:#C4C3C3;}
	.st11{fill:#2E5A77;}
	.st12{fill:#2F363E;}
	.st13{fill:#CCCCCC;}
	.st14{display:none;fill:#EC8457;}
	.st15{fill:#D5D5D5;}
	.st16{fill:#0E303F;}
	.st17{fill:#414B54;}
]]>
</style>
<rect y="-214" class="st14" width="2001" height="2001"/>
<g>
	<path class="st13" d="M882.6,135.8c-7.3,5.5-14.5,11.3-21.6,17.1l5.2,6.3c7-5.8,14.2-11.5,21.3-16.9L882.6,135.8z"/>
	<path class="st13" d="M1028.3,60.2l-3.2-7.5c-8.4,3.6-16.8,7.4-25.1,11.4l3.5,7.4C1011.7,67.6,1020,63.8,1028.3,60.2z"/>
	<path class="st13" d="M932.2,111.2l-4.4-6.9c-7.7,4.9-15.4,10.1-22.9,15.3l4.7,6.7C917,121.2,924.6,116.1,932.2,111.2z"/>
	<path class="st13" d="M1131.3,25.6l-2-8c-8.9,2.2-17.8,4.6-26.6,7.2l2.3,7.9C1113.7,30.1,1122.5,27.7,1131.3,25.6z"/>
	<path class="st13" d="M1184.7,14.7l-1.3-8.1c-9,1.5-18.2,3.1-27.1,5l1.6,8C1166.7,17.8,1175.7,16.1,1184.7,14.7z"/>
	<path class="st13" d="M979.2,83.7l-3.8-7.2c-8.1,4.3-16.2,8.8-24.1,13.4l4.1,7.1C963.3,92.4,971.3,88,979.2,83.7z"/>
	<path class="st13" d="M1079.1,40.8l-2.6-7.8c-8.7,2.9-17.4,6-25.9,9.3l2.9,7.7C1061.9,46.8,1070.5,43.7,1079.1,40.8z"/>
	<path class="st13" d="M1959.7,661.6l8.2-0.1c-0.2-9.1-0.5-18.4-1-27.6l-8.2,0.5C1959.2,643.4,1959.5,652.5,1959.7,661.6z"/>
	<path class="st13" d="M1958.4,716l8.2,0.5c0.6-9.1,1-18.4,1.2-27.5l-8.2-0.2C1959.4,697.8,1959,707,1958.4,716z"/>
	<path class="st13" d="M1238.8,8.2l-0.6-8.2c-9.1,0.7-18.4,1.6-27.4,2.7l1,8.1C1220.6,9.8,1229.7,8.9,1238.8,8.2z"/>
	<path class="st13" d="M1956.5,607.2l8.2-0.8c-0.9-9.1-2-18.3-3.3-27.4l-8.1,1.1C1954.5,589.1,1955.6,598.2,1956.5,607.2z"/>
	<path class="st13" d="M806.5,215.1l-6-5.6c-6.3,6.6-12.5,13.5-18.6,20.4l6.2,5.4C794.1,228.4,800.3,221.7,806.5,215.1z"/>
	<path class="st13" d="M845.6,177.1l-5.5-6.1c-6.8,6.1-13.6,12.5-20.2,18.8l5.7,5.9C832.1,189.4,838.8,183.1,845.6,177.1z"/>
	<path class="st13" d="M738.3,300l-6.8-4.6c-5.1,7.6-10.2,15.4-15,23.2l7,4.3C728.2,315.3,733.2,307.5,738.3,300z"/>
	<path class="st13" d="M770.7,256.2l-6.4-5.1c-5.8,7.2-11.4,14.5-16.9,21.9l6.6,4.9C759.4,270.5,765,263.2,770.7,256.2z"/>
	<path class="st13" d="M1794.9,1113.5l6.2,5.4c6-6.9,12-14,17.7-21.1l-6.4-5.1C1806.8,1099.6,1800.9,1106.7,1794.9,1113.5z"/>
	<path class="st13" d="M1868.8,321.6l-7,4.3c4.7,7.7,9.3,15.6,13.7,23.5l7.2-4C1878.2,337.4,1873.5,329.4,1868.8,321.6z"/>
	<path class="st13" d="M1757.4,1153l5.7,5.9c6.6-6.4,13.1-13,19.4-19.6l-5.9-5.6C1770.4,1140.2,1763.9,1146.7,1757.4,1153z"/>
	<path class="st13" d="M1829.1,1071l6.6,4.9c5.5-7.4,10.8-15,16-22.5l-6.8-4.6C1839.9,1056.2,1834.5,1063.7,1829.1,1071z"/>
	<path class="st13" d="M1895.6,369.7l-7.3,3.7c4.1,8.1,8,16.3,11.8,24.5l7.5-3.4C1903.7,386.2,1899.7,377.9,1895.6,369.7z"/>
	<path class="st13" d="M1803.8,232.6l-6.2,5.4c5.9,6.8,11.7,13.9,17.4,21l6.4-5.1C1815.7,246.7,1809.8,239.5,1803.8,232.6z"/>
	<path class="st13" d="M1766.2,192.3l-5.8,5.8c6.4,6.3,12.8,12.9,19,19.5l6-5.6C1779.2,205.4,1772.7,198.7,1766.2,192.3z"/>
	<path class="st13" d="M1838.1,275.8l-6.6,4.8c5.3,7.3,10.6,14.8,15.6,22.3l6.8-4.6C1848.8,290.8,1843.5,283.2,1838.1,275.8z"/>
	<path class="st13" d="M1928.1,877.6l7.8,2.5c2.8-8.7,5.4-17.6,7.8-26.4l-7.9-2.2C1933.5,860.2,1930.9,869,1928.1,877.6z"/>
	<path class="st13" d="M1909.4,928.8l7.6,3.1c3.5-8.5,6.8-17.1,10-25.7l-7.7-2.8C1916.2,911.8,1912.9,920.4,1909.4,928.8z"/>
	<path class="st13" d="M1942.5,825l8,1.8c2.1-8.9,4-18,5.6-27l-8.1-1.5C1946.4,807.3,1944.5,816.2,1942.5,825z"/>
	<path class="st13" d="M1965.3,744.1l-8.2-0.8l-0.1,1.3c-1,9-2.6,18-3.9,27l8.4,1.2c1.3-9,2.7-18.2,3.7-27.3L1965.3,744.1z"/>
	<path class="st13" d="M1918.4,419.8l-7.6,3.1c3.4,8.4,6.7,16.9,9.7,25.4l7.7-2.8C1925.2,436.9,1921.9,428.3,1918.4,419.8z"/>
	<path class="st13" d="M1859.8,1025.8l7,4.3c4.8-7.8,9.6-15.8,14.1-23.8l-7.1-4C1869.2,1010.2,1864.6,1018.1,1859.8,1025.8z"/>
	<path class="st13" d="M1937,471.6l-7.8,2.5c2.7,8.6,5.3,17.4,7.6,26.1l7.9-2.1C1942.4,489.2,1939.8,480.3,1937,471.6z"/>
	<path class="st13" d="M1951.4,524.8l-8,1.8c2,8.8,3.8,17.8,5.5,26.7l8.1-1.5C1955.3,542.8,1953.4,533.7,1951.4,524.8z"/>
	<path class="st13" d="M1886.6,978.3l7.3,3.7c4.2-8.2,8.2-16.5,12.1-24.9l-7.4-3.4C1894.8,962,1890.8,970.2,1886.6,978.3z"/>
	<path class="st13" d="M1320.8-1.4l-0.4,8.2c9,0.4,18.2,1,27.2,1.7l0.7-8.2C1339.1-0.4,1329.9-1,1320.8-1.4z"/>
	<path class="st13" d="M1428.5,20.3c8.9,1.8,17.8,3.9,26.6,6.1l2-8c-8.9-2.2-17.9-4.3-26.9-6.2L1428.5,20.3z"/>
	<path class="st13" d="M1535.8,43.4l-3,7.6c8.5,3.3,16.9,6.7,25.2,10.3l3.3-7.5C1553,50.2,1544.4,46.7,1535.8,43.4z"/>
	<path class="st13" d="M1483.6,25.6l-2.3,7.9c8.7,2.6,17.4,5.3,26,8.2l2.6-7.8C1501.2,31,1492.4,28.2,1483.6,25.6z"/>
	<path class="st13" d="M1265.6-1.6l0.3,8.2c9-0.3,18.2-0.5,27.2-0.5l0-8.2C1284.1-2.1,1274.8-1.9,1265.6-1.6z"/>
	<path class="st13" d="M1374.7,11.4c9,1.1,18.1,2.4,27,3.9l1.3-8.1c-9-1.5-18.2-2.8-27.3-4L1374.7,11.4z"/>
	<path class="st13" d="M1681.6,121.5l-4.7,6.7c7.4,5.2,14.8,10.7,22,16.2l5-6.5C1696.6,132.3,1689.1,126.8,1681.6,121.5z"/>
	<path class="st13" d="M1725.3,155.2l-5.3,6.3c6.9,5.8,13.9,11.8,20.5,17.9l5.5-6.1C1739.3,167.2,1732.4,161.1,1725.3,155.2z"/>
	<path class="st13" d="M1635.2,91.5l-4.2,7.1c7.8,4.6,15.6,9.4,23.2,14.4l4.5-6.9C1651,101.1,1643.1,96.2,1635.2,91.5z"/>
	<path class="st13" d="M1586.5,65.4l-3.6,7.4c8.1,3.9,16.3,8.1,24.3,12.4l3.9-7.2C1603,73.6,1594.7,69.4,1586.5,65.4z"/>
</g>
<rect x="664.9" y="795.1" class="st4" width="117.7" height="189.2"/>
<path class="st9" d="M781.6,1018.5H666c-8.5,0-15.5-7-15.5-15.5v-3.4c0-8.5,7-15.5,15.5-15.5h115.7c8.5,0,15.5,7,15.5,15.5v3.4
	C797.1,1011.6,790.1,1018.5,781.6,1018.5z"/>
<path class="st7" d="M1194.8,1147.8h-942c-24.4,0-44.4-20-44.4-44.4v-26.9c0-24.4,20-44.4,44.4-44.4h942c24.4,0,44.4,20,44.4,44.4
	v26.9C1239.2,1127.9,1219.2,1147.8,1194.8,1147.8z"/>
<path class="st2" d="M1239.7,1074.7v11.6H207v-11.6c0-24.5,20.4-44.7,44.9-44.7h942C1218.3,1030,1239.7,1050.2,1239.7,1074.7z"/>
<path class="st6" d="M1386.7,149h-14.9c-2-9.8-5.3-17.5-9.7-24.6l0-0.8l10.5-10.9c2.3-2.3,2.3-6.3,0-8.6l-18.3-18.4
	c-2.3-2.3-6.1-2.4-8.5,0l-10.1,10.5c-7.3-4.4-15.5-7.6-22.8-9.5V71.8c0-3.3-3.5-3.6-6.8-3.6h-25.8c-3.3,0-9,0.3-9,3.6v14.9
	c-7.3,2-14.6,5.3-21.6,9.7l0.7-0.1l-10.1-10.5c-2.3-2.3-5.9-2.3-8.3,0l-18.2,18.3c-2.3,2.3-2.3,6.1,0,8.5l10.5,11.9
	c-4.4,7.3-7.6,14.8-9.5,24.6h-14.9c-3.3,0-4.5-0.1-4.5,3.2v25.8c0,3.3,1.2,7.6,4.5,7.6h14.9c2,7.3,5.3,15.2,9.7,22.3l-0.1-0.4
	l-10.5,10.3c-2.3,2.3-2.3,6,0,8.4l18.3,18.2c2.3,2.3,6.1,2.3,8.5,0l8.9-10.5c7.3,4.4,14.3,7.6,21.7,9.5v14.9c0,3.3,5.8,8.1,9.1,8.1
	h25.8c3.3,0,6.7-4.8,6.7-8.1v-14.9c7.3-2,15.7-5.3,22.8-9.7l-0.1,0l10.4,10.5c2.3,2.3,6.1,2.3,8.4,0l18.2-18.3
	c2.3-2.3,2.3-6.1,0-8.5l-10.5-9.6c4.4-7.3,7.6-17.4,9.5-22.3h14.9c3.3,0,2.2-4.5,2.2-7.8v-25.8C1389,148.8,1390,149,1386.7,149z
	 M1293.6,222.6c-31.1,0-56.3-25.2-56.3-56.3c0-31.1,25.2-56.3,56.3-56.3c31.1,0,56.3,25.2,56.3,56.3
	C1349.8,197.4,1324.6,222.6,1293.6,222.6z"/>
<path class="st12" d="M1415.2,623.8h-8c-1.1-2.4-2.9-9-5.2-12.8l0-0.2l5.6-5.7c1.3-1.3,1.3-3.3,0-4.6l-9.8-9.8
	c-1.3-1.3-3.3-1.3-4.5,0l-4.9,5.6c-3.9-2.4-9.3-4.1-11.7-5.1v-8c0-1.8-2.9-0.9-4.7-0.9h-13.9c-1.8,0-5.9-0.9-5.9,0.9v8
	c-2.4,1.1-7.3,2.9-11.1,5.2l0.7,0l-5.3-5.6c-1.3-1.3-3.1-1.3-4.4,0l-9.7,9.8c-1.3,1.3-1.2,3.3,0,4.5l5.7,6
	c-2.4,3.9-4.1,10.4-5.1,12.8h-8c-1.8,0-2,0.7-2,2.5v13.9c0,1.8,0.2,5.7,2,5.7h8c1.1,2.4,2.9,7.4,5.2,11.2l0-0.6l-5.6,5.3
	c-1.3,1.3-1.3,3.1,0,4.4l9.8,9.7c1.3,1.3,3.3,1.2,4.5,0l4.2-5.7c3.9,2.4,8.6,4.1,11.1,5.1v8c0,1.8,4.2,4.2,6,4.2h13.9
	c1.8,0,4.6-2.4,4.6-4.2v-8c2.4-1.1,7.9-2.9,11.7-5.2l-0.3,0l5.5,5.6c1.3,1.3,3.2,1.3,4.5,0l9.8-9.8c1.3-1.3,1.2-3.3,0-4.5l-5.6-4.4
	c2.4-3.9,4.1-8.7,5.1-11.2h8c1.8,0,0.6-4,0.6-5.8v-13.9C1415.9,624.4,1417,623.8,1415.2,623.8z M1365.2,664
	c-16.7,0-30.2-13.5-30.2-30.2c0-16.7,13.5-30.2,30.2-30.2c16.7,0,30.2,13.5,30.2,30.2C1395.4,650.5,1381.9,664,1365.2,664z"/>
<path class="st10" d="M1201.7,552.8c0,100.8-61.6,187.2-149.1,223.7c-19.7,11.8-42.7,18.6-67.3,18.6h-726c-6,0-11.9-0.4-17.8-1.2
	C119.2,781.6,23.7,678.3,23.7,552.8c0-122.3,90.5-223.3,208.2-239.9c17.6-95.6,101.4-168.1,202.1-168.1c33.6,0,65.2,8.1,93.2,22.4
	c53.5-66,135.1-108.3,226.7-108.3c137.5,0,252.7,95.3,283.3,223.5c41.8,5.1,74.2,39.9,75.4,82.7C1167,409.4,1201.7,477,1201.7,552.8
	z"/>
<path class="st0" d="M1284.6,601.2c0,100.8-61.6,187.2-149.1,223.7c-19.7,11.8-42.7,18.6-67.3,18.6h-726c-6,0-11.9-0.4-17.8-1.2
	C202.1,830,106.6,726.7,106.6,601.2c0-122.3,90.5-223.3,208.2-239.9c17.6-95.6,101.4-168.1,202.1-168.1c33.6,0,65.2,8.1,93.2,22.4
	c53.5-66,135.1-108.3,226.7-108.3c137.5,0,252.7,95.3,283.3,223.5c41.8,5,74.2,39.9,75.4,82.7
	C1249.8,457.9,1284.6,525.4,1284.6,601.2z"/>
<path class="st12" d="M843,1164.1H606.7c-9.2,0-16.7-7.5-16.7-16.7v-112.3c0-9.2,7.5-16.7,16.7-16.7H843c9.2,0,16.7,7.5,16.7,16.7
	v112.3C859.7,1156.6,852.2,1164.1,843,1164.1z"/>
<path class="st17" d="M1782.4,932.3h-668c-19.3,0-35.1-15.8-35.1-35.2V742.5c0-19.3,15.8-35.1,35.1-35.1h668
	c19.3,0,35.1,15.8,35.1,35.1v154.6C1817.6,916.5,1801.8,932.3,1782.4,932.3z"/>
<path class="st6" d="M1448.4,932.3h-334.1c-19.3,0-35-15.8-35-35V742.4c0-19.3,15.8-35,35-35h334.1V932.3z"/>
<path class="st6" d="M1782.4,1162h-668c-19.3,0-35.1-15.8-35.1-35.1V972.2c0-19.3,15.8-35.2,35.1-35.2h668
	c19.3,0,35.1,15.8,35.1,35.2v154.6C1817.6,1146.2,1801.8,1162,1782.4,1162z"/>
<path class="st17" d="M1782.4,1391.7h-668c-19.3,0-35.1-15.8-35.1-35.2v-154.6c0-19.3,15.8-35.1,35.1-35.1h668
	c19.3,0,35.1,15.8,35.1,35.1v154.6C1817.6,1375.9,1801.8,1391.7,1782.4,1391.7z"/>
<path class="st17" d="M1448.4,1162h-334.1c-19.3,0-35-15.8-35-35V972.1c0-19.3,15.8-35,35-35h334.1V1162z"/>
<path class="st6" d="M1448.4,1391.7h-334.1c-19.3,0-35-15.8-35-35v-154.9c0-19.3,15.8-35,35-35h334.1V1391.7z"/>
<path class="st4" d="M1341,795.1h-186.7c-8.8,0-16-7.2-16-16l0,0c0-8.8,7.2-16,16-16H1341c8.8,0,16,7.2,16,16l0,0
	C1357,787.9,1349.8,795.1,1341,795.1z"/>
<path class="st1" d="M1763.5,785.5h-19.8c-3.4,0-6.1-2.8-6.1-6.1v-19.8c0-3.4,2.8-6.1,6.1-6.1h19.8c3.4,0,6.1,2.8,6.1,6.1v19.8
	C1769.6,782.8,1766.9,785.5,1763.5,785.5z"/>
<path class="st1" d="M1763.5,830.6h-19.8c-3.4,0-6.1-2.8-6.1-6.1v-19.8c0-3.4,2.8-6.1,6.1-6.1h19.8c3.4,0,6.1,2.8,6.1,6.1v19.8
	C1769.6,827.8,1766.9,830.6,1763.5,830.6z"/>
<path class="st1" d="M1763.5,875.5h-19.8c-3.4,0-6.1-2.8-6.1-6.1v-19.8c0-3.4,2.8-6.1,6.1-6.1h19.8c3.4,0,6.1,2.8,6.1,6.1v19.8
	C1769.6,872.7,1766.9,875.5,1763.5,875.5z"/>
<path class="st1" d="M1763.5,1250.2h-19.8c-3.4,0-6.1-2.8-6.1-6.1v-19.8c0-3.4,2.8-6.1,6.1-6.1h19.8c3.4,0,6.1,2.8,6.1,6.1v19.8
	C1769.6,1247.5,1766.9,1250.2,1763.5,1250.2z"/>
<path class="st1" d="M1763.5,1295.3h-19.8c-3.4,0-6.1-2.8-6.1-6.1v-19.8c0-3.4,2.8-6.1,6.1-6.1h19.8c3.4,0,6.1,2.8,6.1,6.1v19.8
	C1769.6,1292.6,1766.9,1295.3,1763.5,1295.3z"/>
<path class="st1" d="M1763.5,1340.2h-19.8c-3.4,0-6.1-2.8-6.1-6.1v-19.8c0-3.4,2.8-6.1,6.1-6.1h19.8c3.4,0,6.1,2.8,6.1,6.1v19.8
	C1769.6,1337.4,1766.9,1340.2,1763.5,1340.2z"/>
<path class="st1" d="M1164.2,1025.3h-19.8c-3.4,0-6.1-2.8-6.1-6.1v-19.8c0-3.4,2.8-6.1,6.1-6.1h19.8c3.4,0,6.1,2.8,6.1,6.1v19.8
	C1170.4,1022.6,1167.6,1025.3,1164.2,1025.3z"/>
<path class="st1" d="M1164.2,1070.4h-19.8c-3.4,0-6.1-2.8-6.1-6.1v-19.8c0-3.4,2.8-6.1,6.1-6.1h19.8c3.4,0,6.1,2.8,6.1,6.1v19.8
	C1170.4,1067.7,1167.6,1070.4,1164.2,1070.4z"/>
<path class="st1" d="M1164.2,1115.3h-19.8c-3.4,0-6.1-2.8-6.1-6.1v-19.8c0-3.4,2.8-6.1,6.1-6.1h19.8c3.4,0,6.1,2.8,6.1,6.1v19.8
	C1170.4,1112.5,1167.6,1115.3,1164.2,1115.3z"/>
<path class="st4" d="M1341,875.5h-186.7c-8.8,0-16-7.2-16-16l0,0c0-8.8,7.2-16,16-16H1341c8.8,0,16,7.2,16,16l0,0
	C1357,868.3,1349.8,875.5,1341,875.5z"/>
<path class="st4" d="M1332.6,1247.4h-186.7c-8.8,0-16-7.2-16-16l0,0c0-8.8,7.2-16,16-16h186.7c8.8,0,16,7.2,16,16l0,0
	C1348.6,1240.2,1341.4,1247.4,1332.6,1247.4z"/>
<path class="st4" d="M1332.6,1327.8h-186.7c-8.8,0-16-7.2-16-16l0,0c0-8.8,7.2-16,16-16h186.7c8.8,0,16,7.2,16,16l0,0
	C1348.6,1320.6,1341.4,1327.8,1332.6,1327.8z"/>
<path class="st4" d="M1737.6,1025.3H1551c-8.8,0-16-7.2-16-16l0,0c0-8.8,7.2-16,16-16h186.7c8.8,0,16,7.2,16,16l0,0
	C1753.6,1018.1,1746.4,1025.3,1737.6,1025.3z"/>
<path class="st4" d="M1737.6,1105.7H1551c-8.8,0-16-7.2-16-16l0,0c0-8.8,7.2-16,16-16h186.7c8.8,0,16,7.2,16,16l0,0
	C1753.6,1098.5,1746.4,1105.7,1737.6,1105.7z"/>
<path class="st4" d="M1627.8,364.4H1604c-3.2-14.7-8.5-27.3-15.5-38.5l0.1-0.9l16.8-17.2c3.7-3.7,3.7-10,0-13.7l-29.2-29.3
	c-3.7-3.7-9.8-3.8-13.5,0l-15.6,16.7c-11.6-7.1-23.6-12.2-35.8-15.2v-23.8c0-5.3-6.7-10.3-12-10.3h-41.2c-5.3,0-5.5,5-5.5,10.3v23.7
	c-14.7,3.2-27.7,8.5-38.9,15.5l-1.1-0.1l-17.3-16.8c-3.7-3.7-10-3.7-13.8,0l-29.3,29.2c-3.7,3.7-3.8,9.8-0.1,13.5l16.7,18.3
	c-7.1,11.6-12.2,23.9-15.2,38.6h-23.8c-5.3,0-9.4,1.3-9.4,6.5v41.3c0,5.3,4.2,13.4,9.4,13.4h23.7c3.2,12.2,8.5,23.7,15.5,35
	l-0.1-0.9l-16.8,16.3c-3.7,3.7-3.7,9.5,0,13.3l29.2,29c3.7,3.7,9.8,3.7,13.5-0.1l18.7-16.8c11.6,7.1,24.3,12.1,39,15.1v23.8
	c0,5.3,0.4,14.9,5.7,14.9h41.3c5.3,0,11.8-9.6,11.8-14.9v-23.7c12.2-3.2,24.6-8.5,35.8-15.5l-0.5,0.1l16.5,16.8
	c3.7,3.7,9.6,3.7,13.4,0l29.1-29.2c3.7-3.7,3.7-9.8,0-13.5l-16.8-14.7c7.1-11.6,12.1-25.2,15.1-35h23.8c5.3,0,15.7-8.3,15.7-13.6
	v-41.2C1643.5,365.4,1633,364.4,1627.8,364.4z M1479,483.2c-49.6,0-89.9-40.2-89.9-89.9c0-49.6,40.2-89.9,89.9-89.9
	c49.6,0,89.9,40.2,89.9,89.9C1568.9,443,1528.6,483.2,1479,483.2z"/>
<g>
	<path class="st5" d="M666.6,1020.2h114.1c8.4,0,16.4-7.9,16.4-16.4l0-0.8H649.9v0.9C649.9,1012.5,658.2,1020.2,666.6,1020.2z"/>
</g>
<path class="st3" d="M860.4,1033.4v52.9H591.2v-52.9c0-9.2,6.5-15.6,15.7-15.6h236.3C852.4,1017.8,860.4,1024.2,860.4,1033.4z"/>
<path class="st8" d="M1881.7,477.2c0-48.8-39.6-88.4-88.4-88.4c-48.8,0-88.4,39.6-88.4,88.4c0,34.6,19.9,64.6,48.8,79.1v20.2
	c0,4.8,3.8,8.7,8.4,8.7h65.3c4.6,0,8.4-3.9,8.4-8.7v-21.7C1863.1,539.8,1881.7,510.6,1881.7,477.2z"/>
<path class="st15" d="M1797.6,388.4v196.2h-36.7c-2.6,0-4.9-1.1-6.5-3.1c0,0-0.1-0.1-0.1-0.1c-0.7-0.9-1.4-2-1.7-3.2
	c0,0-0.5,0-0.5-0.1c-0.2-0.7-1-1.4-1-2.1v-20.2c-29.4-14.5-48-44.5-48-79.1c0-48.8,41.5-88.4,90.4-88.4
	C1794.3,388.4,1797.6,388.4,1797.6,388.4z"/>
<rect x="1753.6" y="563.9" class="st11" width="81.9" height="80.1"/>
<path class="st16" d="M1749.5,641.3c3.2,16.5,22.1,29.2,44.9,29.2c22.8,0,41.6-12.7,44.9-29.2H1749.5z"/>
<path class="st16" d="M1850.1,571.3c0,4.1-4.5,7.3-10.1,7.3h-90.5c-5.6,0-10.1-3.3-10.1-7.3l0,0c0-4.1,4.5-7.3,10.1-7.3h90.5
	C1845.6,563.9,1850.1,567.2,1850.1,571.3L1850.1,571.3z"/>
<path class="st16" d="M1849.7,595.9c0,4.1-4.5,7.3-10.1,7.3h-90.5c-5.6,0-10.1-3.3-10.1-7.3l0,0c0-4.1,4.5-7.3,10.1-7.3h90.5
	C1845.2,588.5,1849.7,591.8,1849.7,595.9L1849.7,595.9z"/>
<path class="st16" d="M1850.7,621.9c0,4.1-4.5,7.3-10.1,7.3H1750c-5.6,0-10.1-3.3-10.1-7.3l0,0c0-4.1,4.5-7.3,10.1-7.3h90.5
	C1846.2,614.5,1850.7,617.8,1850.7,621.9L1850.7,621.9z"/>
<path class="st16" d="M1824.3,473.1c0.2-0.2,0.3-0.6,0.3-0.9c0-0.8-0.6-1.5-1.5-1.5c-2.6,0-3.8,2.1-4.8,3.8
	c-0.8,1.4-1.4,2.3-2.2,2.3c-0.8,0-1.4-0.9-2.2-2.4c-0.9-1.7-2.1-3.9-4.7-3.9h0c-2.6,0-3.8,2.1-4.8,3.8c-0.8,1.4-1.4,2.3-2.2,2.3
	c-0.8,0-1.4-0.9-2.2-2.4c-0.9-1.7-2.1-3.9-4.7-3.9c-2.6,0-3.8,2.1-4.8,3.8c-0.8,1.4-1.4,2.3-2.2,2.3c-0.8,0-1.4-0.9-2.2-2.3
	c-0.9-1.7-2.1-3.9-4.7-3.9c-2.6,0-3.8,2.1-4.8,3.8c-0.8,1.4-1.4,2.3-2.2,2.3c-0.8,0-1.4-1.2-2.2-2.7c-0.9-1.7-2.1-4.2-4.7-4.2h0h0h0
	c-0.8,0-1.5,1-1.5,1.8c0,0.4,0.1,0.8,0.3,1.1c1.4,3.4,11.9,29.4,14.8,56.1c2.1,19.7-1,45.5-1.1,45.8c0,0.4,0.1,0.8,0.3,1.1
	c0.2,0.3,0.6,1.1,0.9,1.2l0.1,0.7h0.1c0.7,0,1.3-1.2,1.4-1.9c0-0.3,3.2-26.6,1.1-46.7c-2.2-20.2-8.6-40.1-12.4-50.3
	c0.7,0.7,1.6,1.1,2.8,1.1c2.6,0,3.8-2.1,4.8-3.8c0.8-1.4,1.4-2.3,2.2-2.3c0.8,0,1.4,0.9,2.2,2.3c0.9,1.7,2.1,3.8,4.7,3.9
	c2.6,0,3.8-2.1,4.8-3.8c0.8-1.4,1.4-2.3,2.2-2.3c0.8,0,1.4,0.9,2.2,2.3c0.9,1.7,2.1,3.9,4.7,3.9c2.6,0,3.8-2.1,4.8-3.8
	c0.8-1.4,1.4-2.3,2.2-2.3c0.8,0,1.4,0.9,2.2,2.3c0.9,1.7,2.1,3.9,4.7,3.9c1.3,0,2.2-0.5,3-1.2c-3.8,10.1-10.4,29.8-12.7,50.1
	c-2.5,21.5-0.5,46.6-0.5,46.9c0.1,0.7,0.7,1.8,1.4,1.8h0l0.1-0.5c0.4,0,0.7-0.5,1-0.8c0.2-0.3,0.4-0.8,0.3-1.2
	c0-0.2-2-24.7,0.5-45.8C1812.3,502.4,1822.9,476.5,1824.3,473.1z M1821.8,474.6L1821.8,474.6c0,0.1-0.1,0.2-0.1,0.4
	C1821.8,474.8,1821.8,474.7,1821.8,474.6z M1821.7,472.2L1821.7,472.2c-1,0.6-1.7,1.7-2.3,2.8c-0.1,0.1-0.1,0.2-0.2,0.3
	c0.1-0.1,0.1-0.2,0.2-0.3C1820,473.9,1820.7,472.8,1821.7,472.2z M1820.8,474.2c0,0.1-0.1,0.1-0.1,0.2
	C1820.7,474.3,1820.8,474.3,1820.8,474.2z M1820.5,474.7c-0.2,0.3-0.3,0.5-0.5,0.8C1820.2,475.2,1820.3,474.9,1820.5,474.7z
	 M1819.5,476.3c-0.1,0.1-0.1,0.2-0.2,0.3C1819.4,476.5,1819.5,476.4,1819.5,476.3z M1816.2,477.9L1816.2,477.9L1816.2,477.9
	c-0.4,0-0.7-0.1-1-0.3C1815.5,477.8,1815.8,477.9,1816.2,477.9z M1804.2,476.9c-0.5,0.5-1.1,0.9-1.8,0.9l0,0
	C1803.2,477.8,1803.7,477.4,1804.2,476.9z M1802.4,477.8C1802.4,477.8,1802.4,477.8,1802.4,477.8
	C1802.4,477.8,1802.4,477.8,1802.4,477.8c-0.9,0-1.6-0.6-2.1-1.3C1800.8,477.3,1801.5,477.8,1802.4,477.8z M1794.2,471.8
	c-0.4,0.2-0.7,0.4-1,0.7C1793.5,472.3,1793.8,472,1794.2,471.8z M1789.6,477.4c-0.3,0.2-0.6,0.2-1,0.2l0,0
	C1789,477.6,1789.3,477.6,1789.6,477.4z M1787.6,477.4c-0.4-0.2-0.8-0.6-1.1-1.1C1786.8,476.8,1787.1,477.2,1787.6,477.4z
	 M1784,472.5c-0.6-0.6-1.3-1.1-2.3-1.1c0,0,0,0,0,0c0,0,0,0,0,0C1782.7,471.4,1783.4,471.9,1784,472.5z M1781.7,471.4L1781.7,471.4
	c-0.5,0-0.9,0.1-1.3,0.3C1780.8,471.5,1781.2,471.4,1781.7,471.4z M1771.7,474c0.8,1.5,0.4,3.2,1.9,3.2c0,0,1.2-0.9,1.2-0.9
	c0,0,0,0,0,0C1773.2,476.3,1772.5,475.5,1771.7,474 M1777.1,500.4c-0.8-3.1-1.7-6.1-2.5-8.8C1775.4,494.3,1776.3,497.3,1777.1,500.4
	c2.3,8.6,4.4,18.3,5.4,28.1c0.7,6.2,0.8,13,0.7,19.4c0,1.3-0.1,2.5-0.1,3.8c0-1.2,0.1-2.5,0.1-3.8c0.1-6.4,0-13.2-0.7-19.4
	C1781.5,518.7,1779.4,509,1777.1,500.4z M1781.8,574.9L1781.8,574.9c0.1,0,0.1,0,0.2,0C1781.9,574.9,1781.9,574.9,1781.8,574.9
	C1781.8,574.9,1781.8,574.9,1781.8,574.9z M1782.2,574.6c0,0.1-0.1,0.2-0.1,0.2C1782.1,574.8,1782.1,574.7,1782.2,574.6
	c0,0,0.1-0.7,0.2-1.9C1782.2,573.9,1782.2,574.6,1782.2,574.6z M1782.4,572c0.1-0.5,0.1-1.2,0.2-1.9
	C1782.6,570.8,1782.5,571.4,1782.4,572z M1770.2,473.7c0,0.1,0.1,0.1,0.1,0.2C1770.3,473.9,1770.3,473.8,1770.2,473.7L1770.2,473.7z
	 M1774.7,478.3c-0.7,0-1.3-0.2-1.8-0.6C1773.4,478.1,1774,478.3,1774.7,478.3C1774.7,478.3,1774.7,478.3,1774.7,478.3L1774.7,478.3
	C1774.7,478.3,1774.7,478.3,1774.7,478.3z M1779.5,473.5c-0.2,0.3-0.4,0.6-0.6,1c-0.1,0.2-0.2,0.4-0.3,0.5c-0.2,0.4-0.5,0.8-0.7,1.2
	c0.2-0.4,0.5-0.8,0.7-1.2c0.1-0.2,0.2-0.4,0.3-0.5C1779.1,474.2,1779.3,473.8,1779.5,473.5c0.2-0.3,0.5-0.6,0.7-0.8
	C1780,473,1779.8,473.2,1779.5,473.5z M1781.7,472.2L1781.7,472.2c-0.2,0-0.4,0-0.5,0.1C1781.3,472.2,1781.5,472.2,1781.7,472.2z
	 M1783.5,473.1c-0.2-0.3-0.5-0.5-0.8-0.6C1783,472.6,1783.3,472.9,1783.5,473.1c0.5,0.5,0.9,1.3,1.3,2
	C1784.4,474.4,1784,473.7,1783.5,473.1z M1788.6,478.4c-0.2,0-0.5,0-0.7-0.1C1788.1,478.4,1788.3,478.4,1788.6,478.4
	C1788.6,478.4,1788.6,478.4,1788.6,478.4L1788.6,478.4C1788.6,478.4,1788.6,478.4,1788.6,478.4z M1789.9,478.2
	c0.4-0.2,0.7-0.4,1-0.7C1790.6,477.7,1790.2,478,1789.9,478.2z M1791.3,476.9c0.3-0.3,0.5-0.7,0.7-1.1
	C1791.8,476.2,1791.6,476.6,1791.3,476.9z M1798.6,475.6c-0.8-1.5-1.6-2.5-3.1-2.5c0,0,0,0,0,0c0,0,0,0,0,0
	C1797,473.1,1797.8,474.1,1798.6,475.6c0.3,0.6,0.7,1.2,1.1,1.8C1799.3,476.8,1798.9,476.2,1798.6,475.6z M1802.4,478.6
	C1802.4,478.6,1802.4,478.6,1802.4,478.6L1802.4,478.6C1802.4,478.6,1802.4,478.6,1802.4,478.6z M1809.4,473.1
	C1809.3,473.1,1809.3,473.1,1809.4,473.1c-0.7,0-1.2,0.3-1.6,0.7C1808.2,473.3,1808.7,473.1,1809.4,473.1
	C1809.3,473.1,1809.3,473.1,1809.4,473.1c1.3,0,2.1,1.1,2.8,2.4C1811.4,474.2,1810.7,473.1,1809.4,473.1z M1816.2,477.8
	c-0.7,0-1.3,0.2-1.8-0.2c0.5,0.4,1.1,0.8,1.8,0.8c0.1,0,0.3-0.4,0.4-0.4C1816.5,478.1,1816.4,477.8,1816.2,477.8
	C1816.2,477.8,1816.2,477.8,1816.2,477.8z M1817.8,478.2c-0.1,0.1-0.2,0.1-0.3,0.2C1817.6,478.4,1817.7,478.3,1817.8,478.2z
	 M1817.2,478.5c-0.1,0-0.2,0.1-0.3,0.1C1817,478.6,1817.1,478.6,1817.2,478.5z M1818,478.1c0.1-0.1,0.2-0.2,0.3-0.2
	C1818.2,477.9,1818.1,478,1818,478.1z M1818.5,477.7c0.1-0.1,0.2-0.2,0.3-0.3C1818.7,477.5,1818.6,477.6,1818.5,477.7z
	 M1819.2,476.9c-0.1,0.1-0.2,0.2-0.2,0.3C1819,477.1,1819.1,477,1819.2,476.9z M1820.4,478.2c-0.5,1.3-1,2.7-1.6,4.3
	C1819.4,481,1819.9,479.5,1820.4,478.2z M1818.3,484.2c-0.6,1.7-1.2,3.6-1.9,5.5C1817,487.8,1817.7,485.9,1818.3,484.2z M1807,574.8
	c0,0.1,0.1,0.2,0.1,0.2C1807,575,1807,574.9,1807,574.8z M1807.3,575.2c-0.1,0-0.1,0-0.1-0.1
	C1807.2,575.1,1807.3,575.2,1807.3,575.2L1807.3,575.2C1807.3,575.2,1807.3,575.2,1807.3,575.2z"/>
<g>
	<line class="st6" x1="682.6" y1="1284.5" x2="1001.4" y2="1283.7"/>
	<g>
		
			<rect x="838.6" y="1274.3" transform="matrix(1 -2.351827e-003 2.351827e-003 1 -3.017 2.1671)" class="st6" width="162.8" height="19.1"/>
		<g>
			<path class="st6" d="M872.9,1284l42.1,68.8l-2.3,1.6L800.2,1310c-39.2-8.5-78.4-17-117.5-25.6c39.1-8.7,78.3-17.4,117.4-26.1
				l112.3-44.9l2.4,1.2L872.9,1284z"/>
		</g>
	</g>
</g>
</svg>
