<?xml version="1.0" encoding="utf-8"?>
<!-- Generator: Adobe Illustrator 16.0.0, SVG Export Plug-In . SVG Version: 6.00 Build 0)  -->
<!DOCTYPE svg PUBLIC "-//W3C//DTD SVG 1.1//EN" "http://www.w3.org/Graphics/SVG/1.1/DTD/svg11.dtd">
<svg version="1.1" xmlns="http://www.w3.org/2000/svg" xmlns:xlink="http://www.w3.org/1999/xlink" x="0px" y="0px" width="5000px"
	 height="3520px" viewBox="0 0 5000 3520" style="enable-background:new 0 0 5000 3520;" xml:space="preserve">
<style type="text/css">
<![CDATA[
	.st0{opacity:0.16;fill:#020202;}
	.st1{fill:#E55957;}
	.st2{fill:#E7F5F7;}
	.st3{opacity:0.12;}
	.st4{fill:#B5D7D6;}
	.st5{fill:#1F8BC3;}
	.st6{fill:#EFEFEF;}
	.st7{opacity:0.38;fill:#FFFFFF;}
	.st8{fill:#22272B;}
	.st9{fill:#262626;}
	.st10{fill:#263238;}
	.st11{fill:#F4F4F4;}
	.st12{fill:#26A5DD;}
	.st13{fill:#F7F8F9;}
	.st14{fill:#F9F9F9;}
	.st15{fill:#C6C6C6;}
	.st16{fill:#FCFCFC;}
	.st17{fill:#FDFEFF;}
	.st18{fill:#FFB74D;}
	.st19{fill:#FFFFFF;}
	.st20{fill:#CECECC;}
	.st21{fill:#CED5E0;}
	.st22{fill:#336372;}
	.st23{fill:#353D42;}
	.st24{opacity:0.2;fill:#070707;}
	.st25{fill:#013852;}
	.st26{opacity:0.36;fill:#231F20;}
	.st27{fill:#D6D6D6;}
	.st28{fill:#D8D8D8;}
	.st29{fill:#3F3F3F;}
	.st30{fill:#A04033;}
	.st31{fill:#A5A4A4;}
	.st32{opacity:0.51;fill:#FFFFFF;}
	.st33{opacity:0.34;fill:#020202;}
	.st34{fill:#DDDDDD;}
	.st35{fill:#DEDEDE;}
	.st36{fill:#DFF1F1;}
]]>
</style>
<g id="Layer_7">
	<polygon class="st18" points="3716.5,1473.5 3696.8,1516.9 3696.7,1543 3628.2,1543 3628.2,1516.9 3608.5,1473.4 3659.9,1376.1 
		3660,1376 3662.5,1371.2 3665,1376.1 3665.1,1376.1 	"/>
	<circle class="st8" cx="3662.5" cy="1489.2" r="8.3"/>
	<rect x="3697" y="2092.5" class="st9" width="10.6" height="22.8"/>
	<rect x="3697" y="2036.4" class="st9" width="10.6" height="21.7"/>
	<rect x="3629.3" y="1560.7" class="st12" width="65.5" height="334.6"/>
	<rect x="3622.4" y="1541.1" class="st36" width="79.3" height="20.7"/>
	<path class="st5" d="M3661.9,2147.4L3661.9,2147.4c21.3,0,38.6-17.3,38.6-38.6V1889h-77.2v219.8
		C3623.3,2130.1,3640.6,2147.4,3661.9,2147.4z"/>
	<rect x="3707.6" y="1929.8" class="st9" width="8.3" height="188.1"/>
	<polygon class="st8" points="3665,1375.1 3665,1490 3660,1490 3660,1375.7 3662.7,1371.2 	"/>
	<path class="st3" d="M1200.7,2151.6h-803c-16.7,0-30.2-14.3-30.2-31.9V1007.3c0-17.6,13.5-31.9,30.2-31.9h803
		c16.7,0,30.2,14.3,30.2,31.9v1112.4C1231,2137.3,1217.4,2151.6,1200.7,2151.6z"/>
	<path class="st1" d="M1166.3,2119.7h-803c-16.7,0-30.2-14.3-30.2-31.9V975.4c0-17.6,13.5-31.9,30.2-31.9h803
		c16.7,0,30.2,14.3,30.2,31.9v1112.4C1196.5,2105.4,1183,2119.7,1166.3,2119.7z"/>
	<path class="st16" d="M1130.2,2066.9H399.4c-15.2,0-27.5-13-27.5-29.1V1025.4c0-16.1,12.3-29.1,27.5-29.1h730.8
		c15.2,0,27.5,13,27.5,29.1v1012.4C1157.7,2053.9,1145.4,2066.9,1130.2,2066.9z"/>
	<ellipse class="st22" cx="423.8" cy="1115.3" rx="26.1" ry="27.5"/>
	<ellipse class="st22" cx="423.8" cy="1216.6" rx="26.1" ry="27.5"/>
	<ellipse class="st22" cx="423.8" cy="1317.9" rx="26.1" ry="27.5"/>
	<ellipse class="st22" cx="423.8" cy="1419.3" rx="26.1" ry="27.5"/>
	<ellipse class="st22" cx="423.8" cy="1520.6" rx="26.1" ry="27.5"/>
	<ellipse class="st22" cx="423.8" cy="1621.9" rx="26.1" ry="27.5"/>
	<ellipse class="st22" cx="423.8" cy="1723.2" rx="26.1" ry="27.5"/>
	<ellipse class="st22" cx="423.8" cy="1824.6" rx="26.1" ry="27.5"/>
	<ellipse class="st22" cx="423.8" cy="1925.9" rx="26.1" ry="27.5"/>
	<path class="st20" d="M411.6,1129.3h-79.5c-6.6,0-12-5.7-12-12.7v-2.7c0-7,5.4-12.7,12-12.7h79.5c6.6,0,12,5.7,12,12.7v2.7
		C423.6,1123.6,418.2,1129.3,411.6,1129.3z"/>
	<path class="st20" d="M411.6,1230.6h-79.5c-6.6,0-12-5.7-12-12.7v-2.7c0-7,5.4-12.7,12-12.7h79.5c6.6,0,12,5.7,12,12.7v2.7
		C423.6,1224.9,418.2,1230.6,411.6,1230.6z"/>
	<path class="st20" d="M411.6,1332h-79.5c-6.6,0-12-5.7-12-12.7v-2.7c0-7,5.4-12.7,12-12.7h79.5c6.6,0,12,5.7,12,12.7v2.7
		C423.6,1326.3,418.2,1332,411.6,1332z"/>
	<path class="st20" d="M411.6,1433.3h-79.5c-6.6,0-12-5.7-12-12.7v-2.7c0-7,5.4-12.7,12-12.7h79.5c6.6,0,12,5.7,12,12.7v2.7
		C423.6,1427.6,418.2,1433.3,411.6,1433.3z"/>
	<path class="st20" d="M411.6,1534.6h-79.5c-6.6,0-12-5.7-12-12.7v-2.7c0-7,5.4-12.7,12-12.7h79.5c6.6,0,12,5.7,12,12.7v2.7
		C423.6,1528.9,418.2,1534.6,411.6,1534.6z"/>
	<path class="st20" d="M411.6,1636h-79.5c-6.6,0-12-5.7-12-12.7v-2.7c0-7,5.4-12.7,12-12.7h79.5c6.6,0,12,5.7,12,12.7v2.7
		C423.6,1630.2,418.2,1636,411.6,1636z"/>
	<path class="st20" d="M411.6,1737.3h-79.5c-6.6,0-12-5.7-12-12.7v-2.7c0-7,5.4-12.7,12-12.7h79.5c6.6,0,12,5.7,12,12.7v2.7
		C423.6,1731.6,418.2,1737.3,411.6,1737.3z"/>
	<path class="st20" d="M411.6,1838.6h-79.5c-6.6,0-12-5.7-12-12.7v-2.7c0-7,5.4-12.7,12-12.7h79.5c6.6,0,12,5.7,12,12.7v2.7
		C423.6,1832.9,418.2,1838.6,411.6,1838.6z"/>
	<path class="st20" d="M411.6,1939.9h-79.5c-6.6,0-12-5.7-12-12.7v-2.7c0-7,5.4-12.7,12-12.7h79.5c6.6,0,12,5.7,12,12.7v2.7
		C423.6,1934.2,418.2,1939.9,411.6,1939.9z"/>
	<rect x="3897.6" y="1048.3" class="st3" width="954" height="840.6"/>
	<rect x="3865.6" y="1016.5" class="st19" width="954.6" height="845.1"/>
	<rect x="3865.6" y="1016.5" class="st1" width="954.6" height="106.1"/>
	<rect x="4054.8" y="1192.5" class="st4" width="106.6" height="64.7"/>
	<rect x="4367.9" y="1192.5" class="st4" width="106.6" height="64.7"/>
	<rect x="4524.4" y="1192.5" class="st4" width="106.6" height="64.7"/>
	<rect x="4211.3" y="1192.5" class="st4" width="106.6" height="64.7"/>
	<rect x="3898.3" y="1192.5" class="st4" width="106.6" height="64.7"/>
	<rect x="4680.9" y="1192.5" class="st4" width="106.6" height="64.7"/>
	<rect x="4054.1" y="1305.5" class="st4" width="106.6" height="64.7"/>
	<rect x="4367.2" y="1305.5" class="st4" width="106.6" height="64.7"/>
	<rect x="4523.7" y="1305.5" class="st4" width="106.6" height="64.7"/>
	<rect x="4210.6" y="1305.5" class="st10" width="106.6" height="64.7"/>
	<rect x="3897.6" y="1305.5" class="st4" width="106.6" height="64.7"/>
	<rect x="4680.2" y="1305.5" class="st4" width="106.6" height="64.7"/>
	<rect x="4053.4" y="1418.6" class="st4" width="106.6" height="64.7"/>
	<rect x="4366.5" y="1418.6" class="st4" width="106.6" height="64.7"/>
	<rect x="4523" y="1418.6" class="st4" width="106.6" height="64.7"/>
	<rect x="4209.9" y="1418.6" class="st4" width="106.6" height="64.7"/>
	<rect x="3896.9" y="1418.6" class="st4" width="106.6" height="64.7"/>
	<rect x="4679.5" y="1418.6" class="st4" width="106.6" height="64.7"/>
	<rect x="4052.7" y="1531.6" class="st4" width="106.6" height="64.7"/>
	<rect x="4365.8" y="1531.6" class="st4" width="106.6" height="64.7"/>
	<rect x="4522.3" y="1531.6" class="st10" width="106.6" height="64.7"/>
	<rect x="4209.2" y="1531.6" class="st4" width="106.6" height="64.7"/>
	<rect x="3896.2" y="1531.6" class="st4" width="106.6" height="64.7"/>
	<rect x="4678.8" y="1531.6" class="st4" width="106.6" height="64.7"/>
	<rect x="4052" y="1644.6" class="st4" width="106.6" height="64.7"/>
	<rect x="4365.1" y="1644.6" class="st4" width="106.6" height="64.7"/>
	<rect x="4521.6" y="1644.6" class="st4" width="106.6" height="64.7"/>
	<rect x="4208.5" y="1644.6" class="st4" width="106.6" height="64.7"/>
	<rect x="3895.5" y="1644.6" class="st4" width="106.6" height="64.7"/>
	<rect x="4678.1" y="1644.6" class="st4" width="106.6" height="64.7"/>
	<rect x="3865.6" y="1825.4" class="st1" width="954.6" height="36.2"/>
	<g>
		<g>
			<path class="st29" d="M4788.7,1081.2c-9.3,0-16.8-6.3-16.7-14.1c0-7.7,7.5-14,16.8-14c9.3,0,16.8,6.3,16.7,14.1
				S4797.9,1081.3,4788.7,1081.2z"/>
			<path class="st29" d="M4736.5,1081.1c-9.3,0-16.8-6.3-16.7-14.1c0-7.7,7.5-14,16.8-14c9.3,0,16.8,6.3,16.7,14.1
				C4753.2,1074.9,4745.7,1081.1,4736.5,1081.1z"/>
			<path class="st29" d="M4684.3,1080.9c-9.3,0-16.8-6.3-16.7-14.1s7.5-14,16.8-14s16.8,6.3,16.7,14.1
				C4701,1074.7,4693.5,1081,4684.3,1080.9z"/>
			<path class="st29" d="M4634.2,1080.8c-9.3,0-16.8-6.3-16.7-14.1c0-7.7,7.5-14,16.8-14c9.3,0,16.8,6.3,16.7,14.1
				S4643.4,1080.8,4634.2,1080.8z"/>
			<path class="st29" d="M4584.1,1078.9c-9.3,0-16.8-6.3-16.7-14.1c0-7.7,7.5-14,16.8-14c9.3,0,16.8,6.3,16.7,14.1
				C4600.9,1072.7,4593.4,1078.9,4584.1,1078.9z"/>
			<path class="st29" d="M4531.9,1080.5c-9.3,0-16.8-6.3-16.7-14.1c0-7.7,7.5-14,16.8-14c9.3,0,16.8,6.3,16.7,14.1
				C4548.7,1074.3,4541.2,1080.5,4531.9,1080.5z"/>
			<path class="st29" d="M4479.7,1082.7c-9.3,0-16.8-6.3-16.7-14.1s7.5-14,16.8-14c9.3,0,16.8,6.3,16.7,14.1
				S4488.9,1082.7,4479.7,1082.7z"/>
			<path class="st29" d="M4429.6,1082.6c-9.3,0-16.8-6.3-16.7-14.1c0-7.7,7.5-14,16.8-14c9.3,0,16.8,6.3,16.7,14.1
				C4446.4,1076.3,4438.9,1082.6,4429.6,1082.6z"/>
			<path class="st29" d="M4379.5,1082.4c-9.3,0-16.8-6.3-16.7-14.1c0-7.7,7.5-14,16.8-14c9.3,0,16.8,6.3,16.7,14.1
				C4396.3,1076.2,4388.8,1082.5,4379.5,1082.4z"/>
			<path class="st29" d="M4329.5,1082.3c-9.3,0-16.8-6.3-16.7-14.1c0-7.7,7.5-14,16.8-14c9.3,0,16.8,6.3,16.7,14.1
				S4338.7,1082.3,4329.5,1082.3z"/>
			<path class="st29" d="M4279.4,1082.1c-9.3,0-16.8-6.3-16.7-14.1c0-7.7,7.5-14,16.8-14c9.3,0,16.8,6.3,16.7,14.1
				S4288.7,1082.2,4279.4,1082.1z"/>
			<path class="st29" d="M4229.3,1082c-9.3,0-16.8-6.3-16.7-14.1c0-7.7,7.5-14,16.8-14c9.3,0,16.8,6.3,16.7,14.1
				C4246.1,1075.8,4238.6,1082,4229.3,1082z"/>
			<path class="st29" d="M4179.3,1081.9c-9.3,0-16.8-6.3-16.7-14.1c0-7.7,7.5-14,16.8-14s16.8,6.3,16.7,14.1
				S4188.5,1081.9,4179.3,1081.9z"/>
			<path class="st29" d="M4124.8,1081.7c-9.3,0-16.8-6.3-16.7-14.1c0-7.7,7.5-14,16.8-14c9.3,0,16.8,6.3,16.7,14.1
				S4134,1081.7,4124.8,1081.7z"/>
			<path class="st29" d="M4070.3,1081.6c-9.3,0-16.8-6.3-16.7-14.1s7.5-14,16.8-14c9.3,0,16.8,6.3,16.7,14.1
				C4087,1075.3,4079.5,1081.6,4070.3,1081.6z"/>
			
				<ellipse transform="matrix(-2.578657e-003 1 -1 -2.578657e-003 5098.0068 -2950.0532)" class="st29" cx="4020.2" cy="1067.4" rx="14" ry="16.8"/>
			<path class="st29" d="M3967.9,1081.3c-9.3,0-16.8-6.3-16.7-14.1c0-7.7,7.5-14,16.8-14c9.3,0,16.8,6.3,16.7,14.1
				C3984.7,1075.1,3977.2,1081.3,3967.9,1081.3z"/>
			<path class="st29" d="M3913.4,1081.1c-9.3,0-16.8-6.3-16.7-14.1c0-7.7,7.5-14,16.8-14c9.3,0,16.8,6.3,16.7,14.1
				C3930.2,1074.9,3922.7,1081.2,3913.4,1081.1z"/>
		</g>
	</g>
	<path class="st19" d="M4792.9,1065.4l0.2-96.3c0-1.8,1.4-3.4,3.2-3.3l0,0c1.8,0,3.2,1.5,3.2,3.4l-0.2,96.3c0,1.8-1.4,3.4-3.2,3.3
		l0,0C4794.3,1068.7,4792.9,1067.2,4792.9,1065.4z"/>
	<path class="st19" d="M4776.3,1064.5l0.2-96.3c0-1.8,1.4-3.4,3.2-3.3l0,0c1.7,0,3.2,1.5,3.2,3.4l-0.2,96.3c0,1.8-1.4,3.4-3.2,3.3
		l0,0C4777.7,1067.8,4776.3,1066.3,4776.3,1064.5z"/>
	<path class="st19" d="M4742.3,1064.2l0.2-96.3c0-1.8,1.4-3.4,3.2-3.3l0,0c1.7,0,3.2,1.5,3.2,3.4l-0.2,96.3c0,1.8-1.4,3.4-3.2,3.3
		l0,0C4743.8,1067.6,4742.3,1066.1,4742.3,1064.2z"/>
	<path class="st19" d="M4726.5,1065.7l0.2-96.3c0-1.8,1.4-3.4,3.2-3.3l0,0c1.7,0,3.2,1.5,3.2,3.4l-0.2,96.3c0,1.8-1.4,3.4-3.2,3.3
		l0,0C4727.9,1069.1,4726.5,1067.5,4726.5,1065.7z"/>
	<path class="st19" d="M4688.9,1064.9l0.2-96.3c0-1.8,1.4-3.4,3.2-3.3l0,0c1.7,0,3.2,1.5,3.2,3.4l-0.2,96.3c0,1.8-1.4,3.4-3.2,3.3
		l0,0C4690.4,1068.2,4688.9,1066.7,4688.9,1064.9z"/>
	<path class="st19" d="M4672.9,1064.8l0.2-96.3c0-1.8,1.4-3.4,3.2-3.3l0,0c1.8,0,3.2,1.5,3.2,3.4l-0.2,96.3c0,1.8-1.4,3.4-3.2,3.3
		l0,0C4674.3,1068.2,4672.8,1066.7,4672.9,1064.8z"/>
	<path class="st19" d="M4639,1064.8l0.2-96.3c0-1.8,1.4-3.4,3.2-3.3l0,0c1.8,0,3.2,1.5,3.2,3.4l-0.2,96.3c0,1.8-1.4,3.4-3.2,3.3l0,0
		C4640.4,1068.1,4639,1066.6,4639,1064.8z"/>
	<path class="st19" d="M4623,1064.7l0.2-96.3c0-1.8,1.4-3.4,3.2-3.3l0,0c1.7,0,3.2,1.5,3.2,3.4l-0.2,96.3c0,1.8-1.4,3.4-3.2,3.3l0,0
		C4624.4,1068.1,4622.9,1066.6,4623,1064.7z"/>
	<path class="st19" d="M4588.7,1062.8l0.2-96.3c0-1.8,1.4-3.4,3.2-3.3l0,0c1.7,0,3.2,1.5,3.2,3.4l-0.2,96.3c0,1.8-1.4,3.4-3.2,3.3
		l0,0C4590.1,1066.1,4588.7,1064.6,4588.7,1062.8z"/>
	<path class="st19" d="M4572.7,1062.7l0.2-96.3c0-1.8,1.4-3.4,3.2-3.3l0,0c1.7,0,3.2,1.5,3.2,3.4l-0.2,96.3c0,1.8-1.4,3.4-3.2,3.3v0
		C4574.1,1066.1,4572.7,1064.6,4572.7,1062.7z"/>
	<path class="st19" d="M4536.5,1064.5l0.2-96.3c0-1.8,1.4-3.4,3.2-3.3l0,0c1.8,0,3.2,1.5,3.2,3.4l-0.2,96.3c0,1.8-1.4,3.4-3.2,3.3
		l0,0C4538,1067.9,4536.5,1066.3,4536.5,1064.5z"/>
	<path class="st19" d="M4520.5,1064.5l0.2-96.3c0-1.8,1.4-3.4,3.2-3.3l0,0c1.7,0,3.2,1.5,3.2,3.4l-0.2,96.3c0,1.8-1.4,3.4-3.2,3.3
		l0,0C4521.9,1067.8,4520.5,1066.3,4520.5,1064.5z"/>
	<path class="st19" d="M4484.4,1066.6l0.2-96.3c0-1.8,1.4-3.4,3.2-3.3l0,0c1.7,0,3.2,1.5,3.2,3.4l-0.2,96.3c0,1.8-1.4,3.4-3.2,3.3
		l0,0C4485.8,1069.9,4484.3,1068.4,4484.4,1066.6z"/>
	<path class="st19" d="M4468.3,1066.5l0.2-96.3c0-1.8,1.4-3.4,3.2-3.3l0,0c1.7,0,3.2,1.5,3.2,3.4l-0.2,96.3c0,1.8-1.4,3.4-3.2,3.3
		l0,0C4469.7,1069.9,4468.3,1068.4,4468.3,1066.5z"/>
	<path class="st19" d="M4434.2,1066.5l0.2-96.3c0-1.8,1.4-3.4,3.2-3.3l0,0c1.7,0,3.2,1.5,3.2,3.4l-0.2,96.3c0,1.8-1.4,3.4-3.2,3.3
		l0,0C4435.7,1069.9,4434.2,1068.4,4434.2,1066.5z"/>
	<path class="st19" d="M4418.2,1066.5l0.2-96.3c0-1.8,1.4-3.4,3.2-3.3l0,0c1.8,0,3.2,1.5,3.2,3.4l-0.2,96.3c0,1.8-1.4,3.4-3.2,3.3
		l0,0C4419.6,1069.9,4418.2,1068.3,4418.2,1066.5z"/>
	<path class="st19" d="M4384.2,1066.3l0.2-96.3c0-1.8,1.4-3.4,3.2-3.3l0,0c1.7,0,3.2,1.5,3.2,3.4l-0.2,96.3c0,1.8-1.4,3.4-3.2,3.3
		l0,0C4385.6,1069.7,4384.2,1068.2,4384.2,1066.3z"/>
	<path class="st19" d="M4368.2,1066.3l0.2-96.3c0-1.8,1.4-3.4,3.2-3.3l0,0c1.7,0,3.2,1.5,3.2,3.4l-0.2,96.3c0,1.8-1.4,3.4-3.2,3.3
		l0,0C4369.6,1069.6,4368.2,1068.1,4368.2,1066.3z"/>
	<path class="st19" d="M4334.1,1066.2l0.2-96.3c0-1.8,1.4-3.4,3.2-3.3l0,0c1.7,0,3.2,1.5,3.2,3.4l-0.2,96.3c0,1.8-1.4,3.4-3.2,3.3
		l0,0C4335.5,1069.5,4334.1,1068,4334.1,1066.2z"/>
	<path class="st19" d="M4318.1,1066.1l0.2-96.3c0-1.8,1.4-3.4,3.2-3.3l0,0c1.7,0,3.2,1.5,3.2,3.4l-0.2,96.3c0,1.8-1.4,3.4-3.2,3.3
		l0,0C4319.5,1069.5,4318.1,1068,4318.1,1066.1z"/>
	<path class="st19" d="M4284,1066.1l0.2-96.3c0-1.8,1.4-3.4,3.2-3.3l0,0c1.7,0,3.2,1.5,3.2,3.4l-0.2,96.3c0,1.8-1.4,3.4-3.2,3.3l0,0
		C4285.4,1069.5,4284,1067.9,4284,1066.1z"/>
	<path class="st19" d="M4267.9,1066.1l0.2-96.3c0-1.8,1.4-3.4,3.2-3.3l0,0c1.7,0,3.2,1.5,3.2,3.4l-0.2,96.3c0,1.8-1.4,3.4-3.2,3.3
		l0,0C4269.4,1069.4,4267.9,1067.9,4267.9,1066.1z"/>
	<path class="st19" d="M4234.1,1065.7l0.2-96.3c0-1.8,1.4-3.4,3.2-3.3l0,0c1.7,0,3.2,1.5,3.2,3.4l-0.2,96.3c0,1.8-1.4,3.4-3.2,3.3
		l0,0C4235.5,1069.1,4234.1,1067.6,4234.1,1065.7z"/>
	<path class="st19" d="M4218.1,1065.7l0.2-96.3c0-1.8,1.4-3.4,3.2-3.3l0,0c1.7,0,3.2,1.5,3.2,3.4l-0.2,96.3c0,1.8-1.4,3.4-3.2,3.3
		l0,0C4219.5,1069.1,4218.1,1067.6,4218.1,1065.7z"/>
	<path class="st19" d="M4183.9,1065.8l0.2-96.3c0-1.8,1.4-3.4,3.2-3.3l0,0c1.7,0,3.2,1.5,3.2,3.4l-0.2,96.3c0,1.8-1.4,3.4-3.2,3.3
		l0,0C4185.3,1069.1,4183.9,1067.6,4183.9,1065.8z"/>
	<path class="st19" d="M4167.9,1065.7l0.2-96.3c0-1.8,1.4-3.4,3.2-3.3l0,0c1.8,0,3.2,1.5,3.2,3.4l-0.2,96.3c0,1.8-1.4,3.4-3.2,3.3
		l0,0C4169.3,1069.1,4167.9,1067.6,4167.9,1065.7z"/>
	<path class="st19" d="M4129.5,1065.6l0.2-96.3c0-1.8,1.4-3.4,3.2-3.3l0,0c1.7,0,3.2,1.5,3.2,3.4l-0.2,96.3c0,1.8-1.4,3.4-3.2,3.3
		l0,0C4130.9,1069,4129.5,1067.5,4129.5,1065.6z"/>
	<path class="st19" d="M4113.4,1065.6l0.2-96.3c0-1.8,1.4-3.4,3.2-3.3l0,0c1.8,0,3.2,1.5,3.2,3.4l-0.2,96.3c0,1.8-1.4,3.4-3.2,3.3
		l0,0C4114.9,1069,4113.4,1067.4,4113.4,1065.6z"/>
	<path class="st19" d="M4074.9,1065.5l0.2-96.3c0-1.8,1.4-3.4,3.2-3.3l0,0c1.7,0,3.2,1.5,3.2,3.4l-0.2,96.3c0,1.8-1.4,3.4-3.2,3.3
		l0,0C4076.3,1068.8,4074.9,1067.3,4074.9,1065.5z"/>
	<path class="st19" d="M4058.9,1065.4l0.2-96.3c0-1.8,1.4-3.4,3.2-3.3l0,0c1.8,0,3.2,1.5,3.2,3.4l-0.2,96.3c0,1.8-1.4,3.4-3.2,3.3
		l0,0C4060.3,1068.8,4058.9,1067.3,4058.9,1065.4z"/>
	<path class="st19" d="M4024.8,1065.3l0.2-96.3c0-1.8,1.4-3.4,3.2-3.3l0,0c1.7,0,3.2,1.5,3.2,3.4l-0.2,96.3c0,1.8-1.4,3.4-3.2,3.3
		l0,0C4026.3,1068.7,4024.8,1067.2,4024.8,1065.3z"/>
	<path class="st19" d="M4008.8,1065.3l0.2-96.3c0-1.8,1.4-3.4,3.2-3.3l0,0c1.7,0,3.2,1.5,3.2,3.4l-0.2,96.3c0,1.8-1.4,3.4-3.2,3.3
		l0,0C4010.2,1068.6,4008.8,1067.1,4008.8,1065.3z"/>
	<path class="st19" d="M3972.6,1065.1l0.2-96.3c0-1.8,1.4-3.4,3.2-3.3l0,0c1.7,0,3.2,1.5,3.2,3.4l-0.2,96.3c0,1.8-1.4,3.4-3.2,3.3
		l0,0C3974,1068.4,3972.6,1066.9,3972.6,1065.1z"/>
	<path class="st19" d="M3956.5,1065l0.2-96.3c0-1.8,1.4-3.4,3.2-3.3l0,0c1.8,0,3.2,1.5,3.2,3.4l-0.2,96.3c0,1.8-1.4,3.4-3.2,3.3l0,0
		C3958,1068.4,3956.5,1066.9,3956.5,1065z"/>
	<path class="st19" d="M3918.1,1065.1l0.2-96.3c0-1.8,1.4-3.4,3.2-3.3l0,0c1.8,0,3.2,1.5,3.2,3.4l-0.2,96.3c0,1.8-1.4,3.4-3.2,3.3
		l0,0C3919.5,1068.4,3918.1,1066.9,3918.1,1065.1z"/>
	<path class="st19" d="M3902.1,1065l0.2-96.3c0-1.8,1.4-3.4,3.2-3.3l0,0c1.7,0,3.2,1.5,3.2,3.4l-0.2,96.3c0,1.8-1.4,3.4-3.2,3.3l0,0
		C3903.5,1068.4,3902,1066.9,3902.1,1065z"/>
	<path class="st3" d="M4863,2131.2c-0.7-1.5-1.4-2.7-2.3-3.7l0-0.4l-0.3,0.1c-8.6-9-26.7,6.5-73.9-14.5c-144.5-64.3-338.7-2-338.7-2
		c-14.2-6.4-34.3-9.9-55.2-9.8c-20.9-0.4-41.1,2.8-55.4,8.9c0,0-193.3-65.4-338.7-3.5c-52.8,22.5-69.1,0.4-76.8,17.3
		c-4.8,10.5-12.7,50.5-5.3,63.9c4.2,7.7,26.3,7.3,29.9,15.2c18.7,40.4,4,118.2,66.5,162.3l-26.3,16.8c-8.9,5.7-14.3,16.2-13.1,27.1
		c1.1,9.6,7.3,20.4,27,19.5c7.5-0.3,17-5.3,23.1-9.9l39.7-30.8c104,29.7,219.7-6.1,252.9-87.5c4.8-13.4,8.6-26.7,12-39.3l99.3-13.2
		l24.3,3.1c3.9,15.9,8.3,33.1,14.2,50.7c33.3,85.1,156.1,122.4,263.5,88.1c4.1-1.3,7.9-2.7,11.7-4.2l29.6,22.7
		c6.1,4.6,15.7,9.5,23.1,9.7c19.6,0.8,25.8-10,26.9-19.7c1.2-10.9-4.4-21.4-13.3-27l-22.3-14.1c43.8-44.4,34.6-111,51.9-147.1
		c3.8-7.8,25.8-7.1,30.1-14.7C4874.9,2181.9,4867.6,2141.8,4863,2131.2z"/>
	<path class="st27" d="M3969.7,2137.2c-0.6-4.5-13.4-6.3-28.6-4c-15.2,2.3-27,7.8-26.4,12.3c0.6,4.5,13.4,6.3,28.6,4
		C3958.5,2147.2,3970.3,2141.7,3969.7,2137.2z"/>
	<path class="st27" d="M4817,2153.6c0.6-4.3-10.6-9.7-25.1-12.1c-14.5-2.4-26.7-0.9-27.4,3.4s10.6,9.7,25.1,12.1
		S4816.3,2157.9,4817,2153.6z"/>
	<path class="st25" d="M4841.6,2115l-639.9,113.3c-12,2.1-23.4,6.6-33.8,13.3l-200.3,128.2c-8.9,5.7-14.3,16.2-13.1,27.1
		c1.1,9.6,7.3,20.4,27,19.5c7.5-0.3,17-5.3,23.1-9.9l162.6-126c13.1-10.1,28.4-16.4,44.5-18.6l630.8-83.9L4841.6,2115z"/>
	<path class="st25" d="M3913,2110.1l640.6,109c12,2,23.5,6.5,33.9,13l201,126.8c8.9,5.6,14.4,16.1,13.3,27
		c-1,9.6-7.2,20.4-26.9,19.7c-7.5-0.3-17.1-5.1-23.1-9.7L4588.4,2271c-13.2-10-28.5-16.3-44.6-18.3l-631.3-79.7L3913,2110.1z"/>
	<path class="st5" d="M4818.1,2197.9c3.8-7.8,25.8-7.1,30.1-14.7c7.6-13.3,0.3-53.4-4.4-64c-7.4-17-24,4.8-76.5-18.5
		c-144.5-64.3-338.6-2-338.6-2c-14.2-6.4-34.3-9.9-55.2-9.8c-20.9-0.4-41.1,2.8-55.4,8.9c0,0-193.3-65.4-338.7-3.5
		c-52.8,22.5-69.1,0.4-76.7,17.3c-4.8,10.5-12.7,50.5-5.3,63.9c4.2,7.7,26.3,7.3,29.9,15.2c21.9,47.2-1.9,145.3,105,181.3
		c107,36,230.3,0.7,264.8-83.8c24.5-69.3,24-133.4,71.2-133.8c1.6-0.1,3.4-0.1,4.7-0.1c1.3,0,3,0.1,4.6,0.2
		c47.2,1.2,45.7,65.2,69.2,134.9c33.3,85.1,156.1,122.4,263.5,88.1C4817.9,2343.2,4795.6,2244.7,4818.1,2197.9z M4128,2359.9
		c-13.1-0.1-26.2-0.8-38.9-2.3c-11.4-1.3-22.5-3.3-33-6.2c-5-1.4-9.8-2.9-14.5-4.7c-17.8-6.7-33.3-16.5-45.2-30.5
		c-7.1-8.3-12.5-19-16.7-30.7c-7.8-22.1-10.8-48-10.6-69.3c0.2-32.4,2.9-57.8,23.5-81.6c17.7-20.4,45-29.9,75.3-34.2
		c20-2.8,41.3-3.4,62-3.2c9.5,0.1,19.4,0.5,29.3,1.3c4.9,0.4,9.8,0.9,14.7,1.5c10.2,1.2,20.4,2.9,30.3,5c40,8.7,76.1,25.3,92.3,54.2
		c6.2,11.1-0.4,48.1-2.8,64C4281.9,2301.1,4216.3,2360.6,4128,2359.9z M4615.1,2364.1c-14.9-0.1-29.2-1.9-42.6-5.3
		c-10.8-2.7-21.1-6.3-30.7-10.9c-4.1-1.9-8-3.9-11.8-6.1c-26.2-15-47.2-36.7-61.2-62.7c-9-16.7-15-35.1-17.7-54.7
		c-2.2-15.9-8.3-53.1-1.9-64.2c17.9-30.8,58.5-47.1,102.1-54.5c22-3.7,44.7-5.1,65.7-5c8.8,0.1,17.8,0.3,26.7,0.7
		c5.2,0.3,10.3,0.6,15.4,1.1c10.5,0.9,20.9,2.3,30.8,4.4c25.8,5.4,48.7,15.3,64,33.5c20.3,24.1,22.6,49.7,22.4,82.1
		c-0.2,32.6-8,75.8-28.8,99.7C4718,2356.3,4667,2364.5,4615.1,2364.1z"/>
	<path class="st7" d="M4296.5,2159.3c-26.1-46.6-104.2-61.5-166.6-62c-51.9-0.4-107.8,3.5-137.2,37.4
		c-20.6,23.8-23.3,49.2-23.5,81.6c-0.2,32.5,6.9,75.8,27.3,99.9c29,34.2,79.8,43.3,131.6,43.7c88.3,0.7,153.9-58.7,165.7-136.6
		C4296.1,2207.4,4302.7,2170.4,4296.5,2159.3z"/>
	<path class="st7" d="M4776.3,2222.8c0.2-32.5-2-58-22.4-82.1c-29-34.4-84.9-39.3-137-39.7c-62.6-0.5-141,13.1-167.9,59.4
		c-6.4,11.1-0.3,48.2,1.9,64.2c10.7,78.2,75.6,138.8,164.1,139.5c51.9,0.4,102.9-7.8,132.4-41.6
		C4768.4,2298.6,4776.1,2255.4,4776.3,2222.8z"/>
	<path class="st32" d="M4041.6,2346.7c-17.8-6.7-33.3-16.5-45.2-30.5c-7.1-8.3-12.5-19-16.7-30.7l88.2-185c20-2.8,41.3-3.4,62-3.2
		c9.5,0.1,19.4,0.5,29.3,1.3L4041.6,2346.7z"/>
	<path class="st32" d="M4089.1,2357.6c-11.4-1.3-22.5-3.3-33-6.2l117.8-251.4c10.2,1.2,20.4,2.9,30.3,5L4089.1,2357.6z"/>
	<path class="st32" d="M4529.9,2341.9c-26.2-15-47.2-36.7-61.2-62.7l82.6-173.3c22-3.7,44.7-5.1,65.7-5c8.8,0.1,17.8,0.3,26.7,0.7
		L4529.9,2341.9z"/>
	<path class="st32" d="M4572.5,2358.8c-10.8-2.7-21.1-6.3-30.7-10.9l117.4-245.2c10.5,0.9,20.9,2.3,30.8,4.4L4572.5,2358.8z"/>
	<path class="st3" d="M1090.2,3336.8H675.8c-30.4,0-55-26-55-58.1v-861.3c0-32.1,24.6-58.1,55-58.1h414.4c30.4,0,55,26,55,58.1
		v861.3C1145.2,3310.8,1120.6,3336.8,1090.2,3336.8z"/>
	<path class="st10" d="M1053.2,3301.2H638.8c-30.4,0-55-26-55-58.1v-861.3c0-32.1,24.6-58.1,55-58.1h414.4c30.4,0,55,26,55,58.1
		v861.3C1108.2,3275.2,1083.6,3301.2,1053.2,3301.2z"/>
	<path class="st33" d="M1108.4,2381.8V3243c0,32.1-24.8,58-55.2,58h-56.4l-188-977.3l244.4,0.1
		C1083.6,2323.9,1108.4,2349.7,1108.4,2381.8z"/>
	<rect x="598.9" y="2430.5" class="st21" width="494.5" height="760.9"/>
	<path class="st2" d="M915.4,2386.9H777.6c-4.3,0-7.8-3.7-7.8-8.2l0,0c0-4.5,3.5-8.2,7.8-8.2h137.8c4.3,0,7.8,3.7,7.8,8.2l0,0
		C923.2,2383.3,919.7,2386.9,915.4,2386.9z"/>
	<path class="st2" d="M899.6,3267.5H792.8c-6,0-10.8-5.1-10.8-11.4v-18.5c0-6.3,4.8-11.4,10.8-11.4h106.8c6,0,10.8,5.1,10.8,11.4
		v18.5C910.3,3262.4,905.5,3267.5,899.6,3267.5z"/>
	<g class="st3">
		<g>
			<g>
				<polygon points="164.6,1617.2 164.6,1586 87.9,1586 87.9,1617.2 65.8,1668.9 122.1,1781.6 122.1,1784.4 125,1789.8 
					125.6,1788.6 126.2,1789.8 129.1,1784 186.7,1668.9 				"/>
			</g>
			<g>
				<g>
					<path d="M75.7,997.8h8v174.3H90v388.4H76.7v24.5h98.7v-24.5h-12v-388.4h6.7v-260c0-25.2-19.3-45.6-43.2-45.6l0,0
						c-21.4,0-39.1,16.4-42.6,37.9h-8.6v-3h-9.3v222.5h9.3V997.8z M75.7,931.3h8v40.8h-8V931.3z"/>
				</g>
			</g>
		</g>
	</g>
	<rect x="53.6" y="882.2" class="st25" width="11.8" height="27"/>
	<rect x="53.6" y="950" class="st25" width="11.8" height="25.6"/>
	<rect x="67.9" y="1142.5" class="st1" width="73.4" height="395.8"/>
	<rect x="54.6" y="1538.3" class="st22" width="98.7" height="24.5"/>
	<polygon class="st19" points="164.6,1646.7 107,1761.9 104.2,1767.6 101.3,1761.9 43.7,1646.7 65.8,1595.1 65.8,1563.9 
		142.5,1563.9 142.6,1595.1 	"/>
	<polygon class="st22" points="106.7,1623.3 106.7,1760.4 102.9,1767.6 100.1,1762.2 100.1,1623.3 	"/>
	<ellipse class="st22" cx="103.7" cy="1621.6" rx="9.2" ry="9.8"/>
	<path class="st10" d="M104.8,844.3L104.8,844.3c-23.9,0-43.2,20.4-43.2,45.6v260H148v-260C148,864.7,128.7,844.3,104.8,844.3z"/>
	<rect x="44.4" y="879.1" class="st25" width="9.3" height="222.5"/>
	<path class="st3" d="M2362.8,2700.4c-180.3,0.2-329.2,141.9-352.6,325.5l-125.5,0.1l0-35.9c0-5.7-6.2-10.4-13.8-10.4h-1.1v0
		l-376.4,0.4c-84.1,0.1-152.2,43-152.1,95.8c0.1,52.8,68.4,95.5,152.5,95.4l331.1-0.4c0.1,0,0.1,0,0.2,0l46.2-0.1
		c7.6,0,13.8-4.6,13.8-10.4l0-35.6l125.1-0.1c22.5,185.2,172.3,328.2,353.7,328c196.7-0.2,356.1-168.9,355.9-376.7
		C2719.2,2868.4,2559.6,2700.2,2362.8,2700.4z M2335.2,2760.1c165.5-16.3,312.3,112.2,327.7,287s-106.2,329.8-271.7,346.1
		c-165.5,16.3-312.3-112.2-327.7-287C2048,2931.4,2169.6,2776.4,2335.2,2760.1z"/>
	<path class="st11" d="M1811.9,3009.1c-30.1,0-54.5,22.2-54.5,49.6l0,0c0,27.4,24.5,49.5,54.6,49.5l199.5-0.2
		c19.7,3.8,13.8-100-0.1-99.1L1811.9,3009.1z"/>
	<path class="st5" d="M1844.9,2962.9h0.7c7.6,0,13.8,4.6,13.8,10.3l0.2,170.4c0,5.7-6.2,10.4-13.8,10.4l-46.1,0.1
		c-0.1,0-0.1,0-0.2,0l-331,0.4c-84.1,0.1-152.4-42.6-152.4-95.4c-0.1-52.8,68.1-95.7,152.2-95.8L1844.9,2962.9L1844.9,2962.9z"/>
	<g>
		<path class="st1" d="M1981.7,3060.1c0.2,207.8,159.9,376.1,356.6,375.9c196.7-0.2,356.1-168.9,355.9-376.7
			c-0.2-207.8-159.9-376.1-356.6-375.9C2140.8,2683.7,1981.5,2852.3,1981.7,3060.1z M2310,2743.2c165.5-16.3,312.3,112.2,327.7,287
			c15.5,174.8-106.2,329.8-271.7,346.1c-165.5,16.3-312.3-112.2-327.7-287C2022.8,2914.5,2144.5,2759.5,2310,2743.2z"/>
	</g>
	<path class="st30" d="M2077.8,3241.8c25.5,38.8,156.6,215.9,376.8,124c45.1-18.8,85.4-48.7,116.9-87.6
		c53.6-66.2,114.9-186.6,52.6-352.6c-2-5.2-4.2-10.3-6.7-15.2c-9.4-18.5-35.1-64.8-70.1-95.6c0,0,1.4-27,19.5-26.1
		c0,0,77.1,56.6,107.2,193.5c0,0,48.8,212.9-126.4,363.8c0,0-145.9,136.8-348.7,47.5c0,0-87.1-34.1-148.3-129.5
		c-3.7-5.7-5.5-12.7-4.8-19.6c0.7-6.7,3.9-13.3,13.6-13.1C2066.8,3231.3,2073.6,3235.4,2077.8,3241.8z"/>
	<rect x="3037.7" y="2778.2" class="st3" width="842.5" height="499"/>
	<rect x="3006.8" y="2740.5" class="st21" width="842.5" height="499"/>
	<polygon class="st6" points="3422,2790.1 3006.8,3239.5 3849.3,3239.5 	"/>
	<polygon class="st24" points="3837.3,2740.5 3006.8,2740.5 3425.1,3095.8 	"/>
	<polygon class="st28" points="3837.3,2740.5 3006.8,2740.5 3422,3047.3 	"/>
	<polygon class="st24" points="3275.5,2968.7 3006.8,3239.5 3265.1,2959.9 	"/>
	<polygon class="st24" points="3572,2968.7 3849.3,3239.5 3582.4,2959.9 	"/>
	<g class="st3">
		<g>
			<g>
				<g>
					<path d="M4468.1,2725.1c-3.7-22.3-29.6-25.7-40.5-19.5c-10.8,6.2-12,12.2-12.3,12.5c-0.3,0.2-24.1,56.3-31.3,72.2
						c-0.3,0.7-0.9,1.5-0.6,1.8c0.5,0.6,1,1.2,1.4,1.7c0.6,0.8,1.1,1.4,1.2,1.5c0,0,0.1,0.1,0.1,0.1c0.7-0.1,2.7-4.8,5.7-10.9
						c9-18.9,25.5-57.7,29.4-65.1c3.8-7.3,18.1-13.5,27.6-9.1c14.3,6.6,14.5,14.8,14.1,21.9c-0.5,8.6-5.7,21.1-11.9,35.9
						c-6.7,15.9-14.8,34.4-23.7,53.1c-7.8,16.3-41.1,87.3-46.7,93.6c-4.2,4.7-15.1,7.8-23.3-0.1c-8.2-7.9-9.3-17-8.1-21.6
						c0.4-1.4,6.6-15.4,15.3-34c4.9,3.4,17.1,8.3,31.1-1.1c14.5-9.7,9.9-25.5,7.9-29.8c-1.1-2.3-6.6-11-13.8-22
						c0.3-0.7,0.7-1.4,1-2.1c9.6-19.7,15.3-36.2,22.3-45.4c3.9-5.1,10.6-6.5,17.6-3.5c7,3.1,10.8,9.6,9.5,18.6
						c-1.3,9-25.7,57.3-25.7,57.3l3.8,4.7c0,0,26.1-53,27.4-62.4c1.6-11.5-4.8-19.8-11.8-23.5c-7.5-4-17.8-2.7-23.1,3
						c-3.1,3.3-10.7,19.4-19.5,37c-1.7,3.4-3.4,6.9-5.2,10.4c-16.1-24.4-37.2-55.6-37.2-55.6s-31.5-50.9-53-73.4
						c-5.3-5.6-10-7.3-13.5-8.6c-20.3-7-35.4,15.5-35.3,28.5c0.1,13,4.6,16.9,4.6,17.4c0.1,0.4,35.7,49,45.6,63.1
						c0.4,0.6,0.8,1.6,1.2,1.5c0.7-0.2,1.4-0.3,2.1-0.5c1-0.2,1.7-0.4,1.9-0.4c0.1,0,0.1,0,0.2-0.1c0.3-0.7-2.7-4.8-6.4-10.4
						c-11.5-17.3-36.2-50.9-40.6-58.1c-4.3-7-2.8-23.2,5.4-30c12.3-10.2,19.2-6.6,25-2.9c7,4.5,15,15.2,24.4,28
						c10.1,13.8,21.8,30,33.2,47c6.2,9.3,25.5,37.8,39.8,59.9c-6.8,13.8-13.8,28.5-20,41.9c-8.8-12.3-31.7-45.8-51.3-75.8
						c-11.9-18.2-23.1-31.3-27.5-42.1c-2.4-6-0.5-12.9,5.4-18c5.9-5.1,13.1-5.5,20-0.1c6.9,5.4,35.8,50.9,35.8,50.9l5.7-1.3
						c0,0-32-49.2-39.2-54.9c-8.8-6.9-18.8-4.8-25.2,0c-6.9,5.1-10.6,15.3-8.3,22.9c1.3,4.4,11.2,19.1,21.7,35.6
						c20.4,32,49.6,74.7,60,88.8c-9.9,21.2-17.2,37.7-17.4,39.4c-0.7,5.9,0.6,20.1,15.5,29c14.9,8.9,26-2.8,28.6-6.6
						c4.7-6.8,43.9-90.3,43.9-90.3s27.7-53.3,36.4-83.9C4469.5,2734.1,4468.8,2728.9,4468.1,2725.1z M4399.7,2833.7
						c2,6.1-0.6,17.7-11,21.7c-9.9,3.8-17.8,1-21.4-2.1c6-12.8,12.9-27.3,19.7-41.3C4393.7,2822.7,4398.8,2831.1,4399.7,2833.7z"/>
				</g>
			</g>
			<g>
				<path d="M4318.1,2820.7c-9-8.8-14.8-8-15.2-8.3c-0.3-0.2-58.2-5.9-74.8-8c-0.7-0.1-1.6-0.4-1.9,0c-0.4,0.6-0.8,1.3-1.1,1.9
					c-0.5,0.9-0.9,1.5-1,1.7c0,0.1-0.1,0.1-0.1,0.2c0.3,0.7,5.2,1.2,11.6,2.1c19.8,2.9,59.9,6.9,67.9,8.4c7.8,1.5,18,13.7,17.1,24.6
					c-1.3,16.4-8.6,19.3-15.1,21.2c-7.9,2.3-20.8,1.1-36-0.3c-16.4-1.6-35.6-3.7-55.2-6.5c-17.2-2.5-91.5-12.9-99-16.4
					c-5.6-2.7-11.9-12.6-7.5-23.3c4.4-10.8,12.2-14.8,16.8-15.1c2.7-0.2,51.5,6.2,93.2,12.8c20.7,3.3,37.4,3.6,47.9,7.6
					c5.8,2.2,9.3,8.5,8.8,16.5c-0.5,8-5.1,13.9-13.6,15.5c-8.5,1.6-59.7-7.1-59.7-7.1l-3,5.3c0,0,55.9,9,64.7,7.3
					c10.8-2.1,16.2-11.2,17.2-19.4c1.1-8.8-3.3-18.6-10.2-22.1c-4-2-20.8-4.4-39.4-7.6c-43.1-7.3-105.2-15.5-108.2-14.8
					c-5.5,1.2-17.8,7.1-21,24.9c-3.2,17.8,10.9,25,15.2,26.5c7.6,2.5,95.1,14.7,95.1,14.7s56.7,10.5,86.9,9.3
					c7.5-0.3,11.9-2.7,15.2-4.6C4332.5,2856.6,4327.2,2829.6,4318.1,2820.7z"/>
			</g>
		</g>
	</g>
	<path class="st10" d="M4286.8,2764.6c0.4,0.6,0.8,1.6,1.2,1.5c0.7-0.2,1.4-0.3,2.1-0.5c1-0.2,1.7-0.4,1.9-0.4c0.1,0,0.1,0,0.2-0.1
		c0.3-0.7-2.7-4.8-6.4-10.4c-11.5-17.3-36.2-50.9-40.6-58.1c-4.3-7-2.8-23.2,5.4-30c12.3-10.2,19.2-6.6,25-2.9
		c7,4.5,15,15.2,24.4,28c10.1,13.8,21.8,30,33.2,47c10,14.9,53.6,79.4,56.3,87.5c2,6.1-0.6,17.7-11,21.7c-10.4,4-18.6,0.7-21.9-2.6
		c-1.9-1.9-30.9-43.9-54.9-80.6c-11.9-18.2-23.1-31.3-27.5-42.1c-2.4-6-0.5-12.9,5.4-18c5.9-5.1,13.1-5.5,20-0.1
		c6.9,5.4,35.8,50.9,35.8,50.9l5.7-1.3c0,0-32-49.2-39.2-54.9c-8.8-6.9-18.8-4.8-25.2,0c-6.9,5.1-10.6,15.3-8.3,22.9
		c1.3,4.4,11.2,19.1,21.7,35.6c24.4,38.2,61.2,91.7,63.7,93.6c4.6,3.4,17.1,8.9,31.6-0.8c14.5-9.7,9.9-25.5,7.9-29.8
		c-3.5-7.6-54.8-83.3-54.8-83.3s-31.5-50.9-53-73.4c-5.3-5.6-10-7.3-13.5-8.6c-20.3-7-35.4,15.5-35.3,28.5c0.1,13,4.6,16.9,4.6,17.4
		C4241.3,2701.8,4276.9,2750.4,4286.8,2764.6z"/>
	<path class="st10" d="M4373.7,2782.8c-0.3,0.7-0.9,1.5-0.6,1.8c0.5,0.6,1,1.2,1.4,1.7c0.6,0.8,1.1,1.4,1.2,1.5c0,0,0.1,0.1,0.1,0.1
		c0.8-0.1,2.7-4.8,5.7-10.9c9-18.9,25.5-57.7,29.4-65.1c3.8-7.3,18.1-13.5,27.6-9.1c14.3,6.6,14.5,14.8,14.1,21.9
		c-0.5,8.6-5.7,21.1-11.9,35.9c-6.7,15.9-14.8,34.4-23.7,53.1c-7.8,16.3-41.1,87.3-46.7,93.6c-4.2,4.7-15.1,7.8-23.3-0.1
		c-8.2-7.9-9.3-17-8.1-21.6c0.7-2.7,22.2-49.5,41.5-89c9.6-19.7,15.3-36.2,22.3-45.4c3.9-5.1,10.6-6.5,17.6-3.5
		c7,3.1,10.8,9.6,9.5,18.6c-1.3,9-25.7,57.3-25.7,57.3l3.8,4.7c0,0,26.1-53,27.4-62.4c1.6-11.5-4.8-19.8-11.8-23.5
		c-7.5-4-17.8-2.7-23.1,3c-3.1,3.3-10.7,19.4-19.5,37c-20.5,40.7-47.8,100.2-48.2,103.4c-0.7,5.9,0.6,20.1,15.5,29
		c14.9,8.9,26-2.8,28.6-6.6c4.7-6.8,43.9-90.3,43.9-90.3s27.7-53.3,36.4-83.9c2.2-7.6,1.4-12.8,0.8-16.6
		c-3.7-22.3-29.6-25.7-40.5-19.5c-10.8,6.2-12,12.2-12.3,12.5C4404.7,2710.9,4380.9,2767,4373.7,2782.8z"/>
	<path class="st10" d="M4217.8,2797.1c-0.7-0.1-1.6-0.4-1.9,0c-0.4,0.6-0.8,1.3-1.1,1.9c-0.5,0.9-0.9,1.5-1,1.7
		c0,0.1-0.1,0.1-0.1,0.2c0.3,0.7,5.2,1.2,11.6,2.1c19.8,2.9,59.9,6.9,67.9,8.4c7.8,1.5,18,13.7,17.1,24.6
		c-1.3,16.4-8.6,19.3-15.1,21.2c-7.9,2.3-20.8,1.1-36-0.3c-16.4-1.6-35.6-3.7-55.2-6.5c-17.2-2.5-91.5-12.9-99-16.4
		c-5.6-2.7-11.9-12.6-7.5-23.3c4.4-10.8,12.2-14.8,16.8-15.1c2.6-0.2,51.5,6.2,93.2,12.8c20.7,3.3,37.4,3.6,47.9,7.6
		c5.8,2.2,9.3,8.5,8.8,16.5c-0.5,8-5.1,13.9-13.6,15.5c-8.5,1.6-59.7-7.1-59.7-7.1l-3,5.3c0,0,55.9,9,64.7,7.3
		c10.8-2.1,16.2-11.2,17.2-19.4c1.1-8.8-3.3-18.6-10.2-22.1c-4-2-20.8-4.4-39.4-7.6c-43.1-7.3-105.2-15.5-108.2-14.8
		c-5.5,1.2-17.8,7.1-21,24.9c-3.2,17.8,10.9,25.1,15.2,26.5c7.6,2.5,95.1,14.7,95.1,14.7s56.7,10.5,86.9,9.3
		c7.5-0.3,11.9-2.7,15.2-4.6c18.8-10.9,13.5-37.9,4.4-46.7c-9-8.8-14.8-8-15.2-8.3C4292.3,2804.8,4234.4,2799.1,4217.8,2797.1z"/>
</g>
<g id="Layer_1">
</g>
<g id="Layer_2_1_">
	<circle class="st0" cx="2512.2" cy="1260" r="1146.7"/>
</g>
<g id="Layer_3_1_">
	<path class="st17" d="M2039.2,858.2h316v8.3h-315.5c-3.6,0.5-43.2,6.4-43.2,47.1l0,0.2c-0.1,1.4-0.9,35.2,32.6,42.8h116.2l0.2,0
		c0.4,0,42,3.9,42.1,50.5c0.2,2.7,1.8,25.8-13.3,42.5c-10,11.1-24.9,16.7-44.2,16.7h-341.5c-9.3,0-18.2,2.4-25.8,6.9
		c-14.2,8.4-21.2,21.8-20.9,39.8l-0.4,181.9h-8.3l0.4-181.8c-0.4-26.3,13.4-40.1,25-47c8.8-5.3,19.2-8,30-8H2130
		c16.9,0,29.7-4.7,38-14c13.3-14.7,11.2-36.1,11.2-36.3l0-0.4c0-16.5-5.8-28.7-17.3-36.1c-8-5.2-16-6.2-17.1-6.3h-116.7l-0.4-0.1
		c-39.6-8.7-39.5-48.5-39.5-51.2c0-49.2,50.3-55.3,50.8-55.3L2039.2,858.2z"/>
	<path class="st17" d="M2159.6,1480.3h316v8.3H2160c-3.6,0.5-43.2,6.4-43.2,47.1l0,0.2c-0.1,1.4-0.9,35.2,32.6,42.8h116.2l0.2,0
		c0.4,0,42,3.9,42.1,50.5c0.2,2.7,1.8,25.8-13.3,42.5c-10,11.1-24.9,16.7-44.2,16.7h-341.5c-9.3,0-18.2,2.4-25.8,6.9
		c-14.2,8.4-21.2,21.8-20.9,39.8l-0.4,181.9h-8.3l0.4-181.8c-0.4-26.3,13.4-40.1,25-47c8.8-5.3,19.2-8,30-8h341.5
		c16.9,0,29.7-4.7,38-14c13.2-14.7,11.2-36.1,11.2-36.3l0-0.4c0-16.5-5.8-28.7-17.3-36.1c-8-5.2-16-6.2-17.1-6.3h-116.7l-0.4-0.1
		c-39.6-8.7-39.5-48.5-39.5-51.2c0-49.2,50.3-55.3,50.8-55.3L2159.6,1480.3z"/>
	<path class="st8" d="M1750.3,1694.3h-26.1c-57.2,0-103.9-46.8-103.9-103.9v-112h233.9v112
		C1854.2,1647.5,1807.5,1694.3,1750.3,1694.3z"/>
	<path class="st18" d="M1721.6,1294.8c-55.7,0-101.5,45.3-101.5,101.1v76.1h112.6v-30.5c-12.3-1.8-21.1-11.8-21.1-23.9V1349
		c0-12.1,8.7-22.1,21.1-23.9v-30.2H1721.6z"/>
	<path class="st18" d="M1752.9,1294.8h-11.5v30.4c10.2,2.2,19.6,12,19.6,23.7v68.7c0,11.7-9.4,21.4-19.6,23.7v30.7H1854v-76.1
		C1854,1340.2,1808.6,1294.8,1752.9,1294.8z"/>
	<path class="st8" d="M1754.5,1349v68.7c0,1.3-0.4,2.6-0.7,3.9c-0.1,0.3-0.2,0.6-0.3,0.8c-0.1,0.3-0.2,0.5-0.3,0.8
		c0,0.1-0.1,0.3-0.2,0.4c-0.1,0.3-0.2,0.5-0.3,0.8c-0.1,0.1-0.1,0.3-0.2,0.4c-0.1,0.3-0.2,0.5-0.4,0.8c-0.3,0.6-0.7,1.2-1.1,1.8
		c-0.3,0.5-0.6,0.9-1,1.3c-0.2,0.2-0.4,0.4-0.5,0.6c-2.1,2.3-4.8,4.1-7.9,5c-1.5,0.5-3.2,0.7-4.8,0.7c-1.2,0-2.4-0.1-3.6-0.4
		c-7.8-1.7-13.6-8.6-13.6-16.8V1349c0-8.3,5.8-15.2,13.6-16.8c1.2-0.3,2.4-0.4,3.6-0.4c1.7,0,3.3,0.2,4.8,0.7c3.1,0.9,5.8,2.6,7.9,5
		c0.2,0.2,0.4,0.4,0.5,0.6c0.4,0.4,0.7,0.9,1,1.3c0.4,0.6,0.7,1.2,1.1,1.8c0.1,0.2,0.2,0.5,0.4,0.8c0.1,0.1,0.1,0.3,0.2,0.4
		c0.1,0.3,0.2,0.5,0.3,0.8c0,0.1,0.1,0.3,0.1,0.4c0.1,0.3,0.2,0.5,0.3,0.8c0.1,0.3,0.4,0.5,0.4,0.8
		C1754.1,1346.3,1754.5,1347.6,1754.5,1349z"/>
</g>
<g id="Layer_4_1_">
	<polygon class="st14" points="3107.7,1753.3 1962.5,1753.3 1962.5,130.3 2751.8,130.4 2875.3,393.7 3107.7,494.5 	"/>
	<path class="st26" d="M2751.8,149.6l18.5,343.1c0,0-6.1,46.1,42.5,49c48.5,2.9,295-47.2,295-47.2L2751.8,149.6z"/>
	<path class="st35" d="M2751.8,130.4l0.2,316.3c0,0-6.1,46.1,42.5,49c48.5,2.9,313.3-1.1,313.3-1.1L2751.8,130.4z"/>
</g>
<g id="Layer_5_1_">
	<rect x="2459.4" y="1333.3" class="st8" width="175.8" height="38.2"/>
	<polygon class="st5" points="2540.4,769.5 2735.7,1153.3 2643.2,1252.4 2626.9,1334.2 2547.7,1334.2 	"/>
	<polygon class="st12" points="2540.2,769.7 2354,1156.5 2448.5,1253.7 2466.5,1333.9 2547.7,1334.2 	"/>
	<g>
		<line class="st8" x1="2545" y1="1116.2" x2="2540.2" y2="813.2"/>
		<polygon class="st8" points="2536.3,1116.3 2531.1,788.5 2540.4,769.5 2548.5,785.4 2553.7,1116 		"/>
	</g>
	<circle class="st8" cx="2545.3" cy="1094.6" r="42.3"/>
	<g>
		<path class="st9" d="M2535.1,701.2c252.8,0,457.7,204.9,457.7,457.7c0,252.8-204.9,457.7-457.7,457.7
			c-252.8,0-457.7-204.9-457.7-457.7C2077.4,906.1,2282.3,701.2,2535.1,701.2 M2535.1,690.2c-31.8,0-63.6,3.2-94.5,9.5
			c-30.1,6.2-59.7,15.3-88,27.3c-27.8,11.7-54.6,26.3-79.6,43.2c-24.8,16.8-48.2,36-69.4,57.2c-21.2,21.2-40.5,44.5-57.2,69.4
			c-16.9,25.1-31.5,51.8-43.2,79.6c-12,28.3-21.2,57.9-27.3,88c-6.3,30.9-9.5,62.7-9.5,94.5c0,31.8,3.2,63.6,9.5,94.5
			c6.2,30.1,15.3,59.7,27.3,88c11.7,27.8,26.3,54.6,43.2,79.6c16.8,24.8,36,48.2,57.2,69.4c21.2,21.2,44.5,40.5,69.4,57.2
			c25.1,16.9,51.8,31.5,79.6,43.2c28.3,12,57.9,21.2,88,27.3c30.9,6.3,62.7,9.5,94.5,9.5c31.8,0,63.6-3.2,94.5-9.5
			c30.1-6.2,59.7-15.3,88-27.3c27.8-11.7,54.6-26.3,79.6-43.2c24.8-16.8,48.2-36,69.4-57.2c21.2-21.2,40.5-44.5,57.2-69.4
			c16.9-25.1,31.5-51.8,43.2-79.6c12-28.3,21.2-57.9,27.3-88c6.3-30.9,9.5-62.7,9.5-94.5c0-31.8-3.2-63.6-9.5-94.5
			c-6.2-30.1-15.3-59.7-27.3-88c-11.7-27.8-26.3-54.6-43.2-79.6c-16.8-24.8-36-48.2-57.2-69.4c-21.2-21.2-44.5-40.5-69.4-57.2
			c-25.1-16.9-51.8-31.5-79.6-43.2c-28.3-12-57.9-21.2-88-27.3C2598.7,693.4,2566.9,690.2,2535.1,690.2L2535.1,690.2z"/>
	</g>
	<rect x="2124" y="675.3" class="st9" width="828.6" height="15"/>
	<g>
		
			<rect x="2503.4" y="649.3" transform="matrix(-2.854308e-004 1 -1 -2.854308e-004 3226.6089 -1855.9409)" class="st13" width="75.3" height="71.2"/>
		<path class="st8" d="M2498.6,729.3l0-88.9l84.9,0l0,88.9L2498.6,729.3z M2512.2,654.1l0,61.6l57.6,0l0-61.6L2512.2,654.1z"/>
	</g>
	<g>
		
			<rect x="2112" y="870.6" transform="matrix(0.7071 0.7071 -0.7071 0.7071 1270.4337 -1254.6057)" class="st13" width="75.3" height="71.2"/>
		<path class="st8" d="M2151.1,967.7l-62.9-62.9l60-60l62.9,62.9L2151.1,967.7z M2107.5,904.8l43.6,43.6l40.7-40.7l-43.6-43.6
			L2107.5,904.8z"/>
	</g>
	<g>
		
			<rect x="2888.3" y="870.6" transform="matrix(0.7071 0.7071 -0.7071 0.7071 1497.8137 -1803.5464)" class="st13" width="75.3" height="71.2"/>
		<path class="st8" d="M2927.4,967.7l-62.9-62.9l60-60l62.9,62.9L2927.4,967.7z M2883.8,904.8l43.6,43.6l40.7-40.7l-43.6-43.6
			L2883.8,904.8z"/>
	</g>
	<g>
		
			<rect x="2196.8" y="1480.3" transform="matrix(0.7071 0.7071 -0.7071 0.7071 1726.3489 -1135.9539)" class="st13" width="75.3" height="71.2"/>
		<path class="st8" d="M2235.8,1577.4l-62.9-62.9l60-60l62.9,62.9L2235.8,1577.4z M2192.3,1514.5l43.6,43.6l40.7-40.7l-43.6-43.6
			L2192.3,1514.5z"/>
	</g>
	<g>
		
			<rect x="2797.3" y="1480.3" transform="matrix(0.7071 0.7071 -0.7071 0.7071 1902.2084 -1560.6089)" class="st13" width="75.3" height="71.2"/>
		<path class="st8" d="M2836.4,1577.4l-62.9-62.9l60-60l62.9,62.9L2836.4,1577.4z M2792.8,1514.5l43.6,43.6l40.7-40.7l-43.6-43.6
			L2792.8,1514.5z"/>
	</g>
	<rect x="2438.2" y="1369.8" class="st10" width="225.6" height="881.9"/>
	<rect x="2551" y="1369.8" class="st23" width="112.8" height="881.9"/>
	<circle class="st9" cx="2114.5" cy="682.7" r="21.3"/>
	<circle class="st9" cx="2956.5" cy="682.7" r="21.3"/>
</g>
<g id="Layer_6_1_">
	<path class="st18" d="M2746.7,1821.4l362.8,364.1v-364.1H2746.7z M3033.6,1998.1l-100.6-99.2h100.6V1998.1z"/>
	<path class="st8" d="M3091.1,2126.1c0.7,0,1.5,0.3,2,0.8c1.1,1.1,1.1,3,0,4.1l-12.7,12.7c-1.1,1.1-3,1.1-4.1,0
		c-1.1-1.1-1.1-3,0-4.1l12.7-12.7C3089.6,2126.4,3090.3,2126.1,3091.1,2126.1z"/>
	<path class="st8" d="M3063.3,2100.7c0.7,0,1.5,0.3,2,0.8c1.1,1.1,1.1,3,0,4.1l-12.7,12.7c-1.1,1.1-3,1.1-4.1,0
		c-1.1-1.1-1.1-3,0-4.1l12.7-12.7C3061.8,2101,3062.6,2100.7,3063.3,2100.7z"/>
	<path class="st8" d="M3037.9,2075.2c0.7,0,1.5,0.3,2,0.8c1.1,1.1,1.1,3,0,4.1l-12.7,12.7c-1.1,1.1-3,1.1-4.1,0
		c-1.1-1.1-1.1-3,0-4.1l12.7-12.7C3036.4,2075.5,3037.1,2075.2,3037.9,2075.2z"/>
	<path class="st8" d="M3011.3,2048.6c0.7,0,1.5,0.3,2,0.8c1.1,1.1,1.1,3,0,4.1l-12.7,12.7c-1.1,1.1-3,1.1-4.1,0
		c-1.1-1.1-1.1-3,0-4.1l12.7-12.7C3009.8,2048.9,3010.5,2048.6,3011.3,2048.6z"/>
	<path class="st8" d="M2985.8,2023.2c0.7,0,1.5,0.3,2,0.8c1.1,1.1,1.1,3,0,4.1l-12.7,12.7c-1.1,1.1-3,1.1-4.1,0
		c-1.1-1.1-1.1-3,0-4.1l12.7-12.7C2984.3,2023.4,2985.1,2023.2,2985.8,2023.2z"/>
	<path class="st8" d="M2960.3,1996.5c0.7,0,1.5,0.3,2,0.8c1.1,1.1,1.1,3,0,4.1l-12.7,12.7c-1.1,1.1-3,1.1-4.1,0
		c-1.1-1.1-1.1-3,0-4.1l12.7-12.7C2958.9,1996.8,2959.6,1996.5,2960.3,1996.5z"/>
	<path class="st8" d="M2934.9,1972.2c0.7,0,1.5,0.3,2,0.8c1.1,1.1,1.1,3,0,4.1l-12.7,12.7c-1.1,1.1-3,1.1-4.1,0
		c-1.1-1.1-1.1-3,0-4.1l12.7-12.7C2933.4,1972.5,2934.1,1972.2,2934.9,1972.2z"/>
	<path class="st8" d="M2908.3,1945.6c0.7,0,1.5,0.3,2,0.8c1.1,1.1,1.1,3,0,4.1l-12.7,12.7c-1.1,1.1-3,1.1-4.1,0
		c-1.1-1.1-1.1-3,0-4.1l12.7-12.7C2906.8,1945.9,2907.5,1945.6,2908.3,1945.6z"/>
	<path class="st8" d="M2881.7,1919c0.7,0,1.5,0.3,2,0.8c1.1,1.1,1.1,3,0,4.1l-12.7,12.7c-1.1,1.1-3,1.1-4.1,0c-1.1-1.1-1.1-3,0-4.1
		l12.7-12.7C2880.2,1919.3,2880.9,1919,2881.7,1919z"/>
	<path class="st8" d="M2855.1,1892.4c0.7,0,1.5,0.3,2,0.8c1.1,1.1,1.1,3,0,4.1l-12.7,12.7c-1.1,1.1-3,1.1-4.1,0
		c-1.1-1.1-1.1-3,0-4.1l12.7-12.7C2853.6,1892.7,2854.3,1892.4,2855.1,1892.4z"/>
	<path class="st8" d="M2826.1,1856c0.8,0,1.6,0.3,2.1,0.9c1.2,1.2,1.2,3.1,0,4.3l-13.4,13.4c-1.2,1.2-3.1,1.2-4.3,0s-1.2-3.1,0-4.3
		l13.4-13.4C2824.6,1856.3,2825.3,1856,2826.1,1856z"/>
	<path class="st8" d="M2799.4,1829.2c0.8,0,1.6,0.3,2.2,0.9c1.2,1.2,1.2,3.1,0,4.3l-13.4,13.4c-1.2,1.2-3.1,1.2-4.3,0
		c-1.2-1.2-1.2-3.1,0-4.3l13.4-13.4C2797.8,1829.5,2798.6,1829.2,2799.4,1829.2z"/>
	<path class="st8" d="M3089,2101.6c0.7,0,1.5,0.3,2,0.8c1.1,1.1,1.1,3,0,4.1l-24.5,24.5c-1.1,1.1-3,1.1-4.1,0c-1.1-1.1-1.1-3,0-4.1
		l24.5-24.5C3087.5,2101.9,3088.2,2101.6,3089,2101.6z"/>
	<path class="st8" d="M3062.4,2076.2c0.7,0,1.5,0.3,2,0.8c1.1,1.1,1.1,3,0,4.1l-24.5,24.5c-1.1,1.1-3,1.1-4.1,0
		c-1.1-1.1-1.1-3,0-4.1l24.5-24.5C3060.9,2076.5,3061.6,2076.2,3062.4,2076.2z"/>
	<path class="st8" d="M3035.7,2050.7c0.7,0,1.5,0.3,2,0.8c1.1,1.1,1.1,3,0,4.1l-24.5,24.5c-1.1,1.1-3,1.1-4.1,0
		c-1.1-1.1-1.1-3,0-4.1l24.5-24.5C3034.3,2051,3035,2050.7,3035.7,2050.7z"/>
	<path class="st8" d="M3010.3,2024.1c0.7,0,1.5,0.3,2,0.8c1.1,1.1,1.1,3,0,4.1l-24.5,24.5c-1.1,1.1-3,1.1-4.1,0
		c-1.1-1.1-1.1-3,0-4.1l24.5-24.5C3008.8,2024.4,3009.5,2024.1,3010.3,2024.1z"/>
	<path class="st8" d="M2984.8,1997.5c0.7,0,1.5,0.3,2,0.8c1.1,1.1,1.1,3,0,4.1l-24.5,24.5c-1.1,1.1-3,1.1-4.1,0
		c-1.1-1.1-1.1-3,0-4.1l24.5-24.5C2983.4,1997.8,2984.1,1997.5,2984.8,1997.5z"/>
	<path class="st8" d="M2959.4,1970.9c0.7,0,1.5,0.3,2,0.8c1.1,1.1,1.1,3,0,4.1l-24.5,24.5c-1.1,1.1-3,1.1-4.1,0
		c-1.1-1.1-1.1-3,0-4.1l24.5-24.5C2957.9,1971.2,2958.6,1970.9,2959.4,1970.9z"/>
	<path class="st8" d="M2932.8,1945.4c0.7,0,1.5,0.3,2,0.8c1.1,1.1,1.1,3,0,4.1l-24.5,24.5c-1.1,1.1-3,1.1-4.1,0
		c-1.1-1.1-1.1-3,0-4.1l24.5-24.5C2931.3,1945.7,2932,1945.4,2932.8,1945.4z"/>
	<path class="st8" d="M2907.3,1918.8c0.7,0,1.5,0.3,2,0.8c1.1,1.1,1.1,3,0,4.1l-24.5,24.5c-1.1,1.1-3,1.1-4.1,0
		c-1.1-1.1-1.1-3,0-4.1l24.5-24.5C2905.8,1919.1,2906.6,1918.8,2907.3,1918.8z"/>
	<path class="st8" d="M2880.7,1894.5c0.7,0,1.5,0.3,2,0.8c1.1,1.1,1.1,3,0,4.1l-24.5,24.5c-1.1,1.1-3,1.1-4.1,0
		c-1.1-1.1-1.1-3,0-4.1l24.5-24.5C2879.2,1894.8,2880,1894.5,2880.7,1894.5z"/>
	<path class="st8" d="M2854.1,1869.1c0.7,0,1.5,0.3,2,0.8c1.1,1.1,1.1,3,0,4.1l-24.5,24.5c-1.1,1.1-3,1.1-4.1,0
		c-1.1-1.1-1.1-3,0-4.1l24.5-24.5C2852.6,1869.4,2853.3,1869.1,2854.1,1869.1z"/>
	<path class="st8" d="M2826.3,1831.5c0.8,0,1.6,0.3,2.2,0.9c1.2,1.2,1.2,3.1,0,4.3l-25.7,25.7c-1.2,1.2-3.1,1.2-4.3,0
		c-1.2-1.2-1.2-3.1,0-4.3l25.7-25.7C2824.8,1831.8,2825.5,1831.5,2826.3,1831.5z"/>
	<rect x="3172.2" y="794" class="st14" width="150.5" height="1459.7"/>
	<path class="st8" d="M3220,1458.6c0.8,0.8,1.4,2,1.4,3.3c0,2.6-2.1,4.7-4.7,4.7l-29.1-0.1c-2.6,0-4.7-2.1-4.7-4.7
		c0-2.6,2.1-4.7,4.7-4.7l29.1,0.1C3218,1457.3,3219.1,1457.8,3220,1458.6z"/>
	<path class="st8" d="M3219.8,1517.6c0.8,0.8,1.4,2,1.4,3.3c0,2.6-2.1,4.7-4.7,4.7l-29.1-0.1c-2.6,0-4.7-2.1-4.7-4.7
		c0-2.6,2.1-4.7,4.7-4.7l29.1,0.1C3217.8,1516.3,3219,1516.8,3219.8,1517.6z"/>
	<path class="st8" d="M3215.9,1399.8c0.8,0.8,1.3,1.9,1.3,3.1c0,2.5-2,4.4-4.5,4.4l-27.7-0.1c-2.5,0-4.4-2-4.4-4.5
		c0-2.5,2-4.4,4.5-4.4l27.7,0.1C3214,1398.5,3215.1,1399,3215.9,1399.8z"/>
	<path class="st8" d="M3216,1340.8c0.8,0.8,1.3,1.9,1.3,3.1c0,2.5-2,4.4-4.5,4.4l-27.7-0.1c-2.5,0-4.4-2-4.4-4.5s2-4.4,4.5-4.4
		l27.7,0.1C3214.1,1339.5,3215.2,1340,3216,1340.8z"/>
	<path class="st8" d="M3216.2,1281.9c0.8,0.8,1.3,1.9,1.3,3.1c0,2.5-2,4.4-4.5,4.4l-27.7-0.1c-2.5,0-4.4-2-4.4-4.5
		c0-2.5,2-4.4,4.5-4.4l27.7,0.1C3214.2,1280.5,3215.4,1281,3216.2,1281.9z"/>
	<path class="st8" d="M3216.3,1222.9c0.8,0.8,1.3,1.9,1.3,3.1c0,2.5-2,4.4-4.5,4.4l-27.7-0.1c-2.5,0-4.4-2-4.4-4.5
		c0-2.5,2-4.4,4.5-4.4l27.7,0.1C3214.4,1221.6,3215.5,1222.1,3216.3,1222.9z"/>
	<path class="st8" d="M3217.7,1163.9c0.8,0.8,1.3,1.9,1.3,3.1c0,2.5-2,4.4-4.5,4.4l-27.7-0.1c-2.5,0-4.4-2-4.4-4.5s2-4.4,4.5-4.4
		l27.7,0.1C3215.8,1162.6,3216.9,1163.1,3217.7,1163.9z"/>
	<path class="st8" d="M3216.5,1104.9c0.8,0.8,1.3,1.9,1.3,3.1c0,2.5-2,4.4-4.5,4.4l-27.7-0.1c-2.5,0-4.4-2-4.4-4.5
		c0-2.5,2-4.4,4.5-4.4l27.7,0.1C3214.6,1103.6,3215.7,1104.1,3216.5,1104.9z"/>
	<path class="st8" d="M3216.6,1045.9c0.8,0.8,1.3,1.9,1.3,3.1c0,2.5-2,4.4-4.5,4.4l-27.7-0.1c-2.5,0-4.4-2-4.4-4.5
		c0-2.5,2-4.4,4.5-4.4l27.7,0.1C3214.7,1044.6,3215.8,1045.1,3216.6,1045.9z"/>
	<path class="st8" d="M3216.8,986.9c0.8,0.8,1.3,1.9,1.3,3.1c0,2.5-2,4.4-4.5,4.4l-27.7-0.1c-2.5,0-4.4-2-4.4-4.5
		c0-2.5,2-4.4,4.5-4.4l27.7,0.1C3214.9,985.6,3216,986.1,3216.8,986.9z"/>
	<path class="st8" d="M3216.9,927.9c0.8,0.8,1.3,1.9,1.3,3.1c0,2.5-2,4.4-4.5,4.4l-27.7-0.1c-2.5,0-4.4-2-4.4-4.5
		c0-2.5,2-4.4,4.5-4.4l27.7,0.1C3215,926.6,3216.1,927.1,3216.9,927.9z"/>
	<path class="st8" d="M3217,869c0.8,0.8,1.3,1.9,1.3,3.1c0,2.5-2,4.4-4.5,4.4l-27.7-0.1c-2.5,0-4.4-2-4.4-4.5c0-2.5,2-4.4,4.5-4.4
		l27.7,0.1C3215.1,867.7,3216.2,868.2,3217,869z"/>
	<path class="st8" d="M3217.1,810c0.8,0.8,1.3,1.9,1.3,3.1c0,2.5-2,4.4-4.5,4.4l-27.7-0.1c-2.5,0-4.4-2-4.4-4.5c0-2.5,2-4.4,4.5-4.4
		l27.7,0.1C3215.2,808.7,3216.3,809.2,3217.1,810z"/>
	<path class="st8" d="M3242.7,1429.3c0.8,0.8,1.3,1.9,1.3,3.1c0,2.5-2,4.4-4.5,4.4l-53.2-0.1c-2.5,0-4.4-2-4.4-4.5
		c0-2.5,2-4.4,4.5-4.4l53.2,0.1C3240.8,1428,3241.9,1428.5,3242.7,1429.3z"/>
	<path class="st8" d="M3245.5,1488.2c0.8,0.8,1.4,2,1.4,3.3c0,2.6-2.1,4.7-4.7,4.7l-56-0.1c-2.6,0-4.7-2.1-4.7-4.7s2.1-4.7,4.7-4.7
		l56,0.1C3243.4,1486.8,3244.6,1487.3,3245.5,1488.2z"/>
	<path class="st8" d="M3244,1547.2c0.8,0.8,1.4,2,1.4,3.3c0,2.6-2.1,4.7-4.7,4.7l-56-0.1c-2.6,0-4.7-2.1-4.7-4.7
		c0-2.6,2.1-4.7,4.7-4.7l56,0.1C3242,1545.8,3243.1,1546.3,3244,1547.2z"/>
	<path class="st8" d="M3241.5,1370.4c0.8,0.8,1.3,1.9,1.3,3.1c0,2.5-2,4.4-4.5,4.4l-53.2-0.1c-2.5,0-4.4-2-4.4-4.5
		c0-2.5,2-4.4,4.5-4.4l53.2,0.1C3239.6,1369.1,3240.7,1369.5,3241.5,1370.4z"/>
	<path class="st8" d="M3240.4,1311.4c0.8,0.8,1.3,1.9,1.3,3.1c0,2.5-2,4.4-4.5,4.4l-53.2-0.1c-2.5,0-4.4-2-4.4-4.5
		c0-2.5,2-4.4,4.5-4.4l53.2,0.1C3238.5,1310.1,3239.6,1310.6,3240.4,1311.4z"/>
	<path class="st8" d="M3241.8,1252.4c0.8,0.8,1.3,1.9,1.3,3.1c0,2.5-2,4.4-4.5,4.4l-53.2-0.1c-2.5,0-4.4-2-4.4-4.5
		c0-2.5,2-4.4,4.5-4.4l53.2,0.1C3239.9,1251.1,3241,1251.6,3241.8,1252.4z"/>
	<path class="st8" d="M3243.2,1193.4c0.8,0.8,1.3,1.9,1.3,3.1c0,2.5-2,4.4-4.5,4.4l-53.2-0.1c-2.5,0-4.4-2-4.4-4.5
		c0-2.5,2-4.4,4.5-4.4l53.2,0.1C3241.3,1192.1,3242.4,1192.6,3243.2,1193.4z"/>
	<path class="st8" d="M3244.6,1134.4c0.8,0.8,1.3,1.9,1.3,3.1c0,2.5-2,4.4-4.5,4.4l-53.2-0.1c-2.5,0-4.4-2-4.4-4.5s2-4.4,4.5-4.4
		l53.2,0.1C3242.6,1133.1,3243.8,1133.6,3244.6,1134.4z"/>
	<path class="st8" d="M3243.4,1075.4c0.8,0.8,1.3,1.9,1.3,3.1c0,2.5-2,4.4-4.5,4.4l-53.2-0.1c-2.5,0-4.4-2-4.4-4.5
		c0-2.5,2-4.4,4.5-4.4l53.2,0.1C3241.5,1074.1,3242.6,1074.6,3243.4,1075.4z"/>
	<path class="st8" d="M3244.8,1016.5c0.8,0.8,1.3,1.9,1.3,3.1c0,2.5-2,4.4-4.5,4.4l-53.2-0.1c-2.5,0-4.4-2-4.4-4.5
		c0-2.5,2-4.4,4.5-4.4l53.2,0.1C3242.9,1015.1,3244,1015.6,3244.8,1016.5z"/>
	<path class="st8" d="M3242.4,957.5c0.8,0.8,1.3,1.9,1.3,3.1c0,2.5-2,4.4-4.5,4.4l-53.2-0.1c-2.5,0-4.4-2-4.4-4.5
		c0-2.5,2-4.4,4.5-4.4l53.2,0.1C3240.5,956.2,3241.6,956.7,3242.4,957.5z"/>
	<path class="st8" d="M3241.3,898.5c0.8,0.8,1.3,1.9,1.3,3.1c0,2.5-2,4.4-4.5,4.4l-53.2-0.1c-2.5,0-4.4-2-4.4-4.5
		c0-2.5,2-4.4,4.5-4.4l53.2,0.1C3239.4,897.2,3240.5,897.7,3241.3,898.5z"/>
	<path class="st8" d="M3242.7,839.5c0.8,0.8,1.3,1.9,1.3,3.1c0,2.5-2,4.4-4.5,4.4l-53.2-0.1c-2.5,0-4.4-2-4.4-4.5
		c0-2.5,2-4.4,4.5-4.4l53.2,0.1C3240.7,838.2,3241.8,838.7,3242.7,839.5z"/>
	<path class="st8" d="M3219.5,2224.4c0.8,0.8,1.4,2,1.4,3.3c0,2.6-2.1,4.7-4.7,4.7l-29.1-0.1c-2.6,0-4.7-2.1-4.7-4.7
		c0-2.6,2.1-4.7,4.7-4.7l29.1,0.1C3217.5,2223,3218.6,2223.5,3219.5,2224.4z"/>
	<path class="st8" d="M3215.4,2165.6c0.8,0.8,1.3,1.9,1.3,3.1c0,2.5-2,4.4-4.5,4.4l-27.7-0.1c-2.5,0-4.4-2-4.4-4.5
		c0-2.5,2-4.4,4.5-4.4l27.7,0.1C3213.5,2164.3,3214.6,2164.8,3215.4,2165.6z"/>
	<path class="st8" d="M3215.5,2106.6c0.8,0.8,1.3,1.9,1.3,3.1c0,2.5-2,4.4-4.5,4.4l-27.7-0.1c-2.5,0-4.4-2-4.4-4.5
		c0-2.5,2-4.4,4.5-4.4l27.7,0.1C3213.6,2105.3,3214.7,2105.8,3215.5,2106.6z"/>
	<path class="st8" d="M3215.7,2047.6c0.8,0.8,1.3,1.9,1.3,3.1c0,2.5-2,4.4-4.5,4.4l-27.7-0.1c-2.5,0-4.4-2-4.4-4.5
		c0-2.5,2-4.4,4.5-4.4l27.7,0.1C3213.8,2046.3,3214.9,2046.8,3215.7,2047.6z"/>
	<path class="st8" d="M3215.8,1988.6c0.8,0.8,1.3,1.9,1.3,3.1c0,2.5-2,4.4-4.5,4.4l-27.7-0.1c-2.5,0-4.4-2-4.4-4.5s2-4.4,4.5-4.4
		l27.7,0.1C3213.9,1987.3,3215,1987.8,3215.8,1988.6z"/>
	<path class="st8" d="M3217.2,1929.6c0.8,0.8,1.3,1.9,1.3,3.1c0,2.5-2,4.4-4.5,4.4l-27.7-0.1c-2.5,0-4.4-2-4.4-4.5
		c0-2.5,2-4.4,4.5-4.4l27.7,0.1C3215.3,1928.3,3216.4,1928.8,3217.2,1929.6z"/>
	<path class="st8" d="M3216,1870.6c0.8,0.8,1.3,1.9,1.3,3.1c0,2.5-2,4.4-4.5,4.4l-27.7-0.1c-2.5,0-4.4-2-4.4-4.5
		c0-2.5,2-4.4,4.5-4.4l27.7,0.1C3214.1,1869.3,3215.2,1869.8,3216,1870.6z"/>
	<path class="st8" d="M3216.2,1811.7c0.8,0.8,1.3,1.9,1.3,3.1c0,2.5-2,4.4-4.5,4.4l-27.7-0.1c-2.5,0-4.4-2-4.4-4.5
		c0-2.5,2-4.4,4.5-4.4l27.7,0.1C3214.2,1810.4,3215.3,1810.9,3216.2,1811.7z"/>
	<path class="st8" d="M3216.3,1752.7c0.8,0.8,1.3,1.9,1.3,3.1c0,2.5-2,4.4-4.5,4.4l-27.7-0.1c-2.5,0-4.4-2-4.4-4.5s2-4.4,4.5-4.4
		l27.7,0.1C3214.4,1751.4,3215.5,1751.9,3216.3,1752.7z"/>
	<path class="st8" d="M3216.4,1693.7c0.8,0.8,1.3,1.9,1.3,3.1c0,2.5-2,4.4-4.5,4.4l-27.7-0.1c-2.5,0-4.4-2-4.4-4.5s2-4.4,4.5-4.4
		l27.7,0.1C3214.5,1692.4,3215.6,1692.9,3216.4,1693.7z"/>
	<path class="st8" d="M3216.5,1634.7c0.8,0.8,1.3,1.9,1.3,3.1c0,2.5-2,4.4-4.5,4.4l-27.7-0.1c-2.5,0-4.4-2-4.4-4.5
		c0-2.5,2-4.4,4.5-4.4l27.7,0.1C3214.6,1633.4,3215.7,1633.9,3216.5,1634.7z"/>
	<path class="st8" d="M3216.6,1575.7c0.8,0.8,1.3,1.9,1.3,3.1c0,2.5-2,4.4-4.5,4.4l-27.7-0.1c-2.5,0-4.4-2-4.4-4.5
		c0-2.5,2-4.4,4.5-4.4l27.7,0.1C3214.7,1574.4,3215.8,1574.9,3216.6,1575.7z"/>
	<path class="st8" d="M3242.2,2195.1c0.8,0.8,1.3,1.9,1.3,3.1c0,2.5-2,4.4-4.5,4.4l-53.2-0.1c-2.5,0-4.4-2-4.4-4.5
		c0-2.5,2-4.4,4.5-4.4l53.2,0.1C3240.3,2193.8,3241.4,2194.3,3242.2,2195.1z"/>
	<path class="st8" d="M3241,2136.1c0.8,0.8,1.3,1.9,1.3,3.1c0,2.5-2,4.4-4.5,4.4l-53.2-0.1c-2.5,0-4.4-2-4.4-4.5
		c0-2.5,2-4.4,4.5-4.4l53.2,0.1C3239.1,2134.8,3240.2,2135.3,3241,2136.1z"/>
	<path class="st8" d="M3239.9,2077.1c0.8,0.8,1.3,1.9,1.3,3.1c0,2.5-2,4.4-4.5,4.4l-53.2-0.1c-2.5,0-4.4-2-4.4-4.5s2-4.4,4.5-4.4
		l53.2,0.1C3238,2075.8,3239.1,2076.3,3239.9,2077.1z"/>
	<path class="st8" d="M3241.3,2018.1c0.8,0.8,1.3,1.9,1.3,3.1c0,2.5-2,4.4-4.5,4.4l-53.2-0.1c-2.5,0-4.4-2-4.4-4.5
		c0-2.5,2-4.4,4.5-4.4l53.2,0.1C3239.4,2016.8,3240.5,2017.3,3241.3,2018.1z"/>
	<path class="st8" d="M3242.7,1959.2c0.8,0.8,1.3,1.9,1.3,3.1c0,2.5-2,4.4-4.5,4.4l-53.2-0.1c-2.5,0-4.4-2-4.4-4.5s2-4.4,4.5-4.4
		l53.2,0.1C3240.8,1957.8,3241.9,1958.3,3242.7,1959.2z"/>
	<path class="st8" d="M3244.1,1900.2c0.8,0.8,1.3,1.9,1.3,3.1c0,2.5-2,4.4-4.5,4.4l-53.2-0.1c-2.5,0-4.4-2-4.4-4.5
		c0-2.5,2-4.4,4.5-4.4l53.2,0.1C3242.1,1898.9,3243.3,1899.4,3244.1,1900.2z"/>
	<path class="st8" d="M3242.9,1841.2c0.8,0.8,1.3,1.9,1.3,3.1c0,2.5-2,4.4-4.5,4.4l-53.2-0.1c-2.5,0-4.4-2-4.4-4.5
		c0-2.5,2-4.4,4.5-4.4l53.2,0.1C3241,1839.9,3242.1,1840.4,3242.9,1841.2z"/>
	<path class="st8" d="M3244.3,1782.2c0.8,0.8,1.3,1.9,1.3,3.1c0,2.5-2,4.4-4.5,4.4l-53.2-0.1c-2.5,0-4.4-2-4.4-4.5s2-4.4,4.5-4.4
		l53.2,0.1C3242.4,1780.9,3243.5,1781.4,3244.3,1782.2z"/>
	<path class="st8" d="M3241.9,1723.2c0.8,0.8,1.3,1.9,1.3,3.1c0,2.5-2,4.4-4.5,4.4l-53.2-0.1c-2.5,0-4.4-2-4.4-4.5
		c0-2.5,2-4.4,4.5-4.4l53.2,0.1C3240,1721.9,3241.1,1722.4,3241.9,1723.2z"/>
	<path class="st8" d="M3240.8,1664.2c0.8,0.8,1.3,1.9,1.3,3.1c0,2.5-2,4.4-4.5,4.4l-53.2-0.1c-2.5,0-4.4-2-4.4-4.5
		c0-2.5,2-4.4,4.5-4.4l53.2,0.1C3238.9,1662.9,3240,1663.4,3240.8,1664.2z"/>
	<path class="st8" d="M3242.2,1605.2c0.8,0.8,1.3,1.9,1.3,3.1c0,2.5-2,4.4-4.5,4.4l-53.2-0.1c-2.5,0-4.4-2-4.4-4.5
		c0-2.5,2-4.4,4.5-4.4l53.2,0.1C3240.2,1603.9,3241.4,1604.4,3242.2,1605.2z"/>
</g>
<g id="Layer_8_1_">
	<g>
		<path class="st15" d="M2378.6,2250.4h-994v-407.5c0-11.6,9.4-21,21-21h951.9c11.6,0,21,9.4,21,21V2250.4z"/>
		<path class="st11" d="M1457.8,1892.6h-56.6v-20.8c0-4.1,3.3-7.4,7.4-7.4h41.8c4.1,0,7.4,3.3,7.4,7.4V1892.6z"/>
		<path class="st11" d="M1527.2,1892.6h-56.6v-20.8c0-4.1,3.3-7.4,7.4-7.4h41.8c4.1,0,7.4,3.3,7.4,7.4V1892.6z"/>
		<path class="st11" d="M1596.6,1892.6H1540v-20.8c0-4.1,3.3-7.4,7.4-7.4h41.8c4.1,0,7.4,3.3,7.4,7.4V1892.6z"/>
		<path class="st11" d="M1666,1892.6h-56.6v-20.8c0-4.1,3.3-7.4,7.4-7.4h41.8c4.1,0,7.4,3.3,7.4,7.4V1892.6z"/>
		<path class="st11" d="M1735.4,1892.6h-56.6v-20.8c0-4.1,3.3-7.4,7.4-7.4h41.8c4.1,0,7.4,3.3,7.4,7.4V1892.6z"/>
		<path class="st11" d="M1804.8,1892.6h-56.6v-20.8c0-4.1,3.3-7.4,7.4-7.4h41.8c4.1,0,7.4,3.3,7.4,7.4V1892.6z"/>
		<path class="st11" d="M1874.1,1892.6h-56.6v-20.8c0-4.1,3.3-7.4,7.4-7.4h41.8c4.1,0,7.4,3.3,7.4,7.4V1892.6z"/>
		<path class="st11" d="M1943.5,1892.6H1887v-20.8c0-4.1,3.3-7.4,7.4-7.4h41.8c4.1,0,7.4,3.3,7.4,7.4V1892.6z"/>
		<path class="st11" d="M2012.9,1892.6h-56.6v-20.8c0-4.1,3.3-7.4,7.4-7.4h41.8c4.1,0,7.4,3.3,7.4,7.4V1892.6z"/>
		<path class="st11" d="M2082.3,1892.6h-56.6v-20.8c0-4.1,3.3-7.4,7.4-7.4h41.8c4.1,0,7.4,3.3,7.4,7.4V1892.6z"/>
		<path class="st11" d="M2151.7,1892.6h-56.6v-20.8c0-4.1,3.3-7.4,7.4-7.4h41.8c4.1,0,7.4,3.3,7.4,7.4V1892.6z"/>
		<path class="st11" d="M2221.1,1892.6h-56.6v-20.8c0-4.1,3.3-7.4,7.4-7.4h41.8c4.1,0,7.4,3.3,7.4,7.4V1892.6z"/>
		<path class="st11" d="M2290.5,1892.6h-56.6v-20.8c0-4.1,3.3-7.4,7.4-7.4h41.8c4.1,0,7.4,3.3,7.4,7.4V1892.6z"/>
		<path class="st11" d="M2359.9,1892.6h-56.6v-20.8c0-4.1,3.3-7.4,7.4-7.4h41.8c4.1,0,7.4,3.3,7.4,7.4V1892.6z"/>
		<rect x="1401.3" y="1910.1" class="st11" width="56.6" height="51"/>
		<rect x="1505.3" y="1975" class="st11" width="56.6" height="51"/>
		<rect x="1521.9" y="2039.9" class="st11" width="56.6" height="51"/>
		<rect x="1533.5" y="2107.5" class="st11" width="56.6" height="51"/>
		<rect x="1601.5" y="2107.5" class="st11" width="56.6" height="51"/>
		<rect x="1403.3" y="2176.1" class="st11" width="56.6" height="51"/>
		<rect x="1470.7" y="2176.1" class="st11" width="56.6" height="51"/>
		<rect x="1540" y="2176.1" class="st11" width="56.6" height="51"/>
		<rect x="1609.4" y="2176.1" class="st11" width="56.6" height="51"/>
		<rect x="1669.4" y="2107.5" class="st11" width="56.6" height="51"/>
		<rect x="1737.4" y="2107.5" class="st11" width="56.6" height="51"/>
		<rect x="1681.6" y="2176.1" class="st11" width="333.6" height="51"/>
		<rect x="1805.3" y="2107.5" class="st11" width="56.6" height="51"/>
		<rect x="1873.2" y="2107.5" class="st11" width="56.6" height="51"/>
		<rect x="1941.2" y="2107.5" class="st11" width="56.6" height="51"/>
		<rect x="2009.1" y="2107.5" class="st11" width="56.6" height="51"/>
		<rect x="2030.8" y="2176.1" class="st11" width="70.8" height="51"/>
		<rect x="2077.1" y="2107.5" class="st11" width="56.6" height="51"/>
		<rect x="2115.4" y="2176.1" class="st11" width="56.6" height="51"/>
		<path class="st11" d="M2235.1,2227.1h-52.9v-22.5c0-2.4,1.9-4.3,4.3-4.3h44.2c2.4,0,4.3,1.9,4.3,4.3V2227.1z"/>
		<path class="st11" d="M2299.3,2197.5h-56.6v-16.6c0-2.7,2.2-4.8,4.8-4.8h46.9c2.7,0,4.8,2.2,4.8,4.8V2197.5z"/>
		<rect x="2242.7" y="2204.5" class="st11" width="56.6" height="22.5"/>
		<path class="st11" d="M2359.8,2227.1h-52.9v-21.7c0-2.9,2.3-5.2,5.2-5.2h42.6c2.9,0,5.2,2.3,5.2,5.2V2227.1z"/>
		<rect x="2145" y="2107.5" class="st11" width="56.6" height="51"/>
		<rect x="2212.9" y="2107.5" class="st11" width="146.9" height="51"/>
		<rect x="1403" y="2107.5" class="st11" width="115.6" height="51"/>
		<rect x="1590.2" y="2039.9" class="st11" width="56.6" height="51"/>
		<rect x="1658.5" y="2039.9" class="st11" width="56.6" height="51"/>
		<rect x="1726.8" y="2039.9" class="st11" width="56.6" height="51"/>
		<rect x="1795.1" y="2039.9" class="st11" width="56.6" height="51"/>
		<rect x="1863.4" y="2039.9" class="st11" width="56.6" height="51"/>
		<rect x="1931.7" y="2039.9" class="st11" width="56.6" height="51"/>
		<rect x="2000" y="2039.9" class="st11" width="56.6" height="51"/>
		<rect x="2068.3" y="2039.9" class="st11" width="56.6" height="51"/>
		<rect x="2136.6" y="2039.9" class="st11" width="56.6" height="51"/>
		<rect x="2204.9" y="2039.9" class="st11" width="56.6" height="51"/>
		<rect x="2272.6" y="2039.9" class="st11" width="87.3" height="51"/>
		<rect x="1573.2" y="1975" class="st11" width="56.6" height="51"/>
		<rect x="1641.1" y="1975" class="st11" width="56.6" height="51"/>
		<rect x="1709.1" y="1975" class="st11" width="56.6" height="51"/>
		<rect x="1777" y="1975" class="st11" width="56.6" height="51"/>
		<rect x="1845" y="1975" class="st11" width="56.6" height="51"/>
		<rect x="1912.9" y="1975" class="st11" width="56.6" height="51"/>
		<rect x="1980.8" y="1975" class="st11" width="56.6" height="51"/>
		<rect x="2048.8" y="1975" class="st11" width="56.6" height="51"/>
		<rect x="2116.7" y="1975" class="st11" width="56.6" height="51"/>
		<rect x="2184.7" y="1975" class="st11" width="56.6" height="51"/>
		<rect x="2255.1" y="1975" class="st11" width="104.7" height="51"/>
		<rect x="1470.7" y="1910.1" class="st11" width="56.6" height="51"/>
		<rect x="1540" y="1910.1" class="st11" width="56.6" height="51"/>
		<rect x="1609.4" y="1910.1" class="st11" width="56.6" height="51"/>
		<rect x="1678.8" y="1910.1" class="st11" width="56.6" height="51"/>
		<rect x="1748.2" y="1910.1" class="st11" width="56.6" height="51"/>
		<rect x="1817.6" y="1910.1" class="st11" width="56.6" height="51"/>
		<rect x="1887" y="1910.1" class="st11" width="56.6" height="51"/>
		<rect x="1956.4" y="1910.1" class="st11" width="56.6" height="51"/>
		<rect x="2025.7" y="1910.1" class="st11" width="56.6" height="51"/>
		<rect x="2095.1" y="1910.1" class="st11" width="56.6" height="51"/>
		<rect x="2164.5" y="1910.1" class="st11" width="56.6" height="51"/>
		<rect x="2233.9" y="1910.1" class="st11" width="125.9" height="51"/>
		<rect x="1401.3" y="1975.5" class="st11" width="90.2" height="50.4"/>
		<rect x="1401.3" y="2039.9" class="st11" width="108.6" height="50.7"/>
		<rect x="1401.3" y="1889.6" class="st34" width="56.6" height="3"/>
		<rect x="1401.3" y="1958.1" class="st31" width="56.6" height="3"/>
		<rect x="1401.3" y="2022.9" class="st31" width="90.2" height="3.1"/>
		<rect x="1401.3" y="2087.4" class="st31" width="108.6" height="3.1"/>
		<rect x="1403" y="2155.3" class="st31" width="115.6" height="3.1"/>
		<rect x="1470.7" y="1958.1" class="st31" width="56.6" height="3"/>
		<rect x="1505.3" y="2022.9" class="st31" width="56.6" height="3"/>
		<rect x="1521.9" y="2087.8" class="st31" width="56.6" height="3"/>
		<rect x="1533.5" y="2155.4" class="st31" width="56.6" height="3"/>
		<rect x="1403.3" y="2224.1" class="st31" width="56.6" height="3"/>
		<rect x="1470.7" y="2224.1" class="st31" width="56.6" height="3"/>
		<rect x="1540" y="2224.1" class="st31" width="56.6" height="3"/>
		<rect x="1609.4" y="2224.1" class="st31" width="56.6" height="3"/>
		<rect x="1601.5" y="2155.4" class="st31" width="56.6" height="3"/>
		<rect x="1669.4" y="2155.4" class="st31" width="56.6" height="3"/>
		<rect x="1737.4" y="2155.4" class="st31" width="56.6" height="3"/>
		<rect x="1805.3" y="2155.4" class="st31" width="56.6" height="3"/>
		<rect x="1873.2" y="2155.4" class="st31" width="56.6" height="3"/>
		<rect x="1941.2" y="2155.4" class="st31" width="56.6" height="3"/>
		<rect x="2009.1" y="2155.4" class="st31" width="56.6" height="3"/>
		<rect x="2115.4" y="2224.1" class="st31" width="56.6" height="3"/>
		<rect x="2182.2" y="2224.1" class="st31" width="52.9" height="3"/>
		<rect x="2306.9" y="2224.1" class="st31" width="52.9" height="3"/>
		<rect x="2242.7" y="2224.1" class="st31" width="56.6" height="3"/>
		<rect x="2030.8" y="2224.1" class="st31" width="70.8" height="3"/>
		<rect x="2077.1" y="2155.4" class="st31" width="56.6" height="3"/>
		<rect x="2145" y="2155.4" class="st31" width="56.6" height="3"/>
		<rect x="2212.9" y="2155.4" class="st31" width="146.9" height="3"/>
		<rect x="1590.2" y="2087.8" class="st31" width="56.6" height="3"/>
		<rect x="1658.5" y="2087.8" class="st31" width="56.6" height="3"/>
		<rect x="1726.8" y="2087.8" class="st31" width="56.6" height="3"/>
		<rect x="1795.1" y="2087.8" class="st31" width="56.6" height="3"/>
		<rect x="1863.4" y="2087.8" class="st31" width="56.6" height="3"/>
		<rect x="1931.7" y="2087.8" class="st31" width="56.6" height="3"/>
		<rect x="2000" y="2087.8" class="st31" width="56.6" height="3"/>
		<rect x="2068.3" y="2087.8" class="st31" width="56.6" height="3"/>
		<rect x="2136.6" y="2087.8" class="st31" width="56.6" height="3"/>
		<rect x="2204.9" y="2087.8" class="st31" width="56.6" height="3"/>
		<rect x="2272.6" y="2087.8" class="st31" width="87.3" height="3"/>
		<rect x="1573.2" y="2022.9" class="st31" width="56.6" height="3"/>
		<rect x="1641.1" y="2022.9" class="st31" width="56.6" height="3"/>
		<rect x="1709.1" y="2022.9" class="st31" width="56.6" height="3"/>
		<rect x="1777" y="2022.9" class="st31" width="56.6" height="3"/>
		<rect x="1845" y="2022.9" class="st31" width="56.6" height="3"/>
		<rect x="1912.9" y="2022.9" class="st31" width="56.6" height="3"/>
		<rect x="1980.8" y="2022.9" class="st31" width="56.6" height="3"/>
		<rect x="2048.8" y="2022.9" class="st31" width="56.6" height="3"/>
		<rect x="2116.7" y="2022.9" class="st31" width="56.6" height="3"/>
		<rect x="2184.7" y="2022.9" class="st31" width="56.6" height="3"/>
		<rect x="2255.1" y="2022.9" class="st31" width="104.7" height="3"/>
		<rect x="1540" y="1958.1" class="st31" width="56.6" height="3"/>
		<rect x="1609.4" y="1958.1" class="st31" width="56.6" height="3"/>
		<rect x="1678.8" y="1958.1" class="st31" width="56.6" height="3"/>
		<rect x="1748.2" y="1958.1" class="st31" width="56.6" height="3"/>
		<rect x="1817.6" y="1958.1" class="st31" width="56.6" height="3"/>
		<rect x="1887" y="1958.1" class="st31" width="56.6" height="3"/>
		<rect x="1956.4" y="1958.1" class="st31" width="56.6" height="3"/>
		<rect x="2025.7" y="1958.1" class="st31" width="56.6" height="3"/>
		<rect x="2095.1" y="1958.1" class="st31" width="56.6" height="3"/>
		<rect x="2164.5" y="1958.1" class="st31" width="56.6" height="3"/>
		<rect x="2233.9" y="1958.1" class="st31" width="125.9" height="3"/>
		<rect x="1470.7" y="1889.6" class="st34" width="56.6" height="3"/>
		<rect x="1540" y="1889.6" class="st34" width="56.6" height="3"/>
		<rect x="1609.4" y="1889.6" class="st34" width="56.6" height="3"/>
		<rect x="1678.8" y="1889.6" class="st34" width="56.6" height="3"/>
		<rect x="1748.2" y="1889.6" class="st34" width="56.6" height="3"/>
		<rect x="1817.6" y="1889.6" class="st34" width="56.6" height="3"/>
		<rect x="1887" y="1889.6" class="st34" width="56.6" height="3"/>
		<rect x="1956.4" y="1889.6" class="st34" width="56.6" height="3"/>
		<rect x="2025.7" y="1889.6" class="st34" width="56.6" height="3"/>
		<rect x="2095.1" y="1889.6" class="st34" width="56.6" height="3"/>
		<rect x="2164.5" y="1889.6" class="st34" width="56.6" height="3"/>
		<rect x="2233.9" y="1889.6" class="st34" width="56.6" height="3"/>
		<rect x="2303.3" y="1889.6" class="st34" width="56.6" height="3"/>
		<rect x="1384.6" y="2250.4" class="st31" width="994" height="6.7"/>
	</g>
</g>
<g id="Layer_9">
</g>
</svg>
