<?xml version="1.0" encoding="utf-8"?>
<!-- Generator: Adobe Illustrator 16.0.0, SVG Export Plug-In . SVG Version: 6.00 Build 0)  -->
<!DOCTYPE svg PUBLIC "-//W3C//DTD SVG 1.1//EN" "http://www.w3.org/Graphics/SVG/1.1/DTD/svg11.dtd">
<svg version="1.1" id="Layer_1" xmlns="http://www.w3.org/2000/svg" xmlns:xlink="http://www.w3.org/1999/xlink" x="0px" y="0px"
	 width="2000px" height="1537.9px" viewBox="0 0 2000 1537.9" style="enable-background:new 0 0 2000 1537.9;" xml:space="preserve"
	>
<style type="text/css">
<![CDATA[
	.st0{fill:#E55957;}
	.st1{fill:#E8AB31;}
	.st2{fill:#1F8BC3;}
	.st3{fill:#BFBFBF;}
	.st4{fill:#242C2D;}
	.st5{fill:#F9BF3A;}
	.st6{opacity:0.3;}
	.st7{fill:#FF6543;}
	.st8{fill:#FFB74D;}
	.st9{fill:#FFFFFF;}
	.st10{fill:#323C3E;}
	.st11{fill:#0082BC;}
	.st12{fill:#009BDE;}
	.st13{fill:#DBDBDB;}
]]>
</style>
<g>
	<polygon class="st13" points="1121.7,1230.9 950.5,1230.9 886,1514.4 1186.2,1514.4 	"/>
	<path class="st3" d="M1036.1,1400.3c43.3,0,85.2,2,125.5,5.8l-39.9-175.1H950.5l-39.9,175.1
		C950.9,1402.3,992.9,1400.3,1036.1,1400.3z"/>
	<path class="st9" d="M1593.3,1354H478.9c-25.4,0-45.9-20.6-45.9-45.9V565.4c0-25.4,20.6-45.9,45.9-45.9h1114.4
		c25.4,0,45.9,20.5,45.9,45.9v742.7C1639.2,1333.4,1618.7,1354,1593.3,1354z"/>
	<rect x="474.1" y="567.8" class="st8" width="1124" height="616.1"/>
	<path class="st13" d="M1619.5,527.7c5.2,7.4,8.3,16.5,8.3,26.2v742.7c0,25.4-20.6,45.9-45.9,45.9H467.5c-9.8,0-18.8-3.1-26.2-8.3
		c8.3,11.9,22,19.7,37.6,19.7h1114.4c25.4,0,45.9-20.6,45.9-45.9V565.4C1639.2,549.8,1631.4,536,1619.5,527.7z"/>
	<path class="st13" d="M433,1230.9v77.2c0,25.4,20.6,45.9,45.9,45.9h1114.4c25.4,0,45.9-20.6,45.9-45.9v-77.2H433z"/>
	<path class="st3" d="M1628.1,1308.1c0,25.4-20.6,45.9-45.9,45.9h11.1c25.4,0,45.9-20.6,45.9-45.9v-77.2h-11.1V1308.1z"/>
	<path class="st9" d="M1209,1487.8H863.2c-7.3,0-13.2,5.9-13.2,13.2v0.3c0,7.3,5.9,13.2,13.2,13.2H1209c7.3,0,13.2-5.9,13.2-13.2
		v-0.3C1222.2,1493.7,1216.3,1487.8,1209,1487.8z"/>
	<path class="st13" d="M850,1501.2c0,7.3,5.9,13.2,13.2,13.2H1209c7.3,0,13.2-5.9,13.2-13.2v-0.1H850V1501.2z"/>
	<path class="st9" d="M1164.6,1016.9H559c-6.6,0-12-5.4-12-12V689.2c0-6.6,5.4-12,12-12h605.6c6.6,0,12,5.4,12,12v315.7
		C1176.6,1011.5,1171.2,1016.9,1164.6,1016.9z"/>
	<path class="st0" d="M808.6,774.3l114.3,66c5.2,3,5.2,10.6,0,13.6l-114.3,66c-5.2,3-11.8-0.8-11.8-6.8v-132
		C796.8,775.1,803.4,771.3,808.6,774.3z"/>
	<rect x="547" y="983.5" class="st13" width="629.6" height="6.2"/>
	<rect x="547" y="983.5" class="st7" width="84.8" height="6.2"/>
	<g>
		<path class="st7" d="M643.8,986.6c0,6.7-5.4,12.1-12.1,12.1s-12.1-5.4-12.1-12.1c0-6.7,5.4-12.1,12.1-12.1
			S643.8,979.9,643.8,986.6z"/>
		<path class="st9" d="M638.7,986.6c0,3.8-3.1,6.9-6.9,6.9c-3.8,0-6.9-3.1-6.9-6.9c0-3.8,3.1-6.9,6.9-6.9
			C635.6,979.7,638.7,982.8,638.7,986.6z"/>
	</g>
	<rect x="547" y="1039.6" class="st9" width="625.1" height="144.3"/>
	<rect x="547" y="1169" class="st13" width="625.1" height="14.9"/>
	<rect x="559.9" y="1056.5" class="st10" width="78.7" height="10.7"/>
	<rect x="559.9" y="1083.6" class="st3" width="193.4" height="5.3"/>
	<rect x="559.9" y="1099" class="st3" width="443.5" height="5.3"/>
	<rect x="559.9" y="1114.3" class="st3" width="443.5" height="5.3"/>
	<rect x="559.9" y="1129.6" class="st3" width="443.5" height="5.3"/>
	<rect x="559.9" y="1145" class="st3" width="443.5" height="5.3"/>
	<rect x="474.1" y="567.8" class="st10" width="1124" height="38.3"/>
	<path class="st7" d="M1513.1,586.9c0,5.1-4.1,9.2-9.2,9.2c-5.1,0-9.2-4.1-9.2-9.2c0-5.1,4.1-9.2,9.2-9.2
		C1508.9,577.7,1513.1,581.9,1513.1,586.9z"/>
	<circle class="st12" cx="1531" cy="586.9" r="9.2"/>
	<path class="st5" d="M1567.3,586.9c0,5.1-4.1,9.2-9.2,9.2c-5.1,0-9.2-4.1-9.2-9.2c0-5.1,4.1-9.2,9.2-9.2
		C1563.2,577.7,1567.3,581.9,1567.3,586.9z"/>
	<rect x="547" y="622.1" class="st9" width="462.4" height="16"/>
	<rect x="547" y="650.1" class="st9" width="118.3" height="12.4"/>
	<rect x="1224.3" y="677.2" class="st9" width="324.6" height="506.7"/>
	<rect x="1224.3" y="677.2" class="st12" width="324.6" height="19.6"/>
	<rect x="1375" y="710.6" class="st3" width="146.7" height="12.6"/>
	<rect x="1453.7" y="734.3" class="st3" width="68" height="6.3"/>
	<rect x="1251.4" y="908.6" class="st3" width="270.3" height="5.2"/>
	<rect x="1251.4" y="758.2" class="st3" width="106.6" height="8.9"/>
	<rect x="1251.4" y="921.8" class="st3" width="270.3" height="5.2"/>
	<rect x="1251.4" y="934.9" class="st3" width="270.3" height="5.2"/>
	<rect x="1251.4" y="948.1" class="st3" width="270.3" height="5.2"/>
	<rect x="1251.4" y="961.2" class="st3" width="270.3" height="5.2"/>
	<rect x="1251.4" y="974.4" class="st3" width="185.3" height="5.2"/>
	<rect x="1251.4" y="777.7" class="st2" width="270.3" height="115.6"/>
	<rect x="1251.4" y="1006.3" class="st3" width="106.6" height="8.9"/>
	<rect x="1251.4" y="1025.8" class="st0" width="270.3" height="115.6"/>
	<rect x="1224.3" y="1169" class="st13" width="324.6" height="14.9"/>
	<g>
		<rect x="1023.7" y="1083.6" class="st10" width="134.1" height="66.7"/>
		<g>
			<path class="st9" d="M1090.7,1138.5c-11.9,0-21.6-9.7-21.6-21.6c0-11.9,9.7-21.6,21.6-21.6c11.9,0,21.6,9.7,21.6,21.6
				C1112.3,1128.9,1102.6,1138.5,1090.7,1138.5z M1090.7,1099.9c-9.4,0-17.1,7.7-17.1,17.1c0,9.4,7.7,17.1,17.1,17.1
				c9.4,0,17.1-7.7,17.1-17.1C1107.8,1107.5,1100.1,1099.9,1090.7,1099.9z"/>
		</g>
	</g>
	<g class="st6">
		<polygon class="st9" points="474.1,567.8 474.1,1183.9 584.7,1183.9 733.1,567.8 		"/>
		<polygon class="st9" points="889.5,567.8 741,1183.9 772.3,1183.9 920.7,567.8 		"/>
		<polygon class="st9" points="1105.1,567.8 956.6,1183.9 984.6,1183.9 1133,567.8 		"/>
		<polygon class="st9" points="1007.2,567.8 858.7,1183.9 921.2,1183.9 1069.6,567.8 		"/>
		<polygon class="st9" points="1240.2,567.8 1091.8,1183.9 1180.6,1183.9 1329.1,567.8 		"/>
	</g>
</g>
<g>
	<path class="st2" d="M1902.9,728.7H1277c-7.8,0-14.2-6.4-14.2-14.2V340.9c0-7.8,6.4-14.2,14.2-14.2h625.8c7.8,0,14.2,6.4,14.2,14.2
		v373.6C1917.1,722.4,1910.7,728.7,1902.9,728.7z"/>
	<path class="st0" d="M1527,441.6l135.3,78.1c6.2,3.6,6.2,12.5,0,16.1L1527,613.9c-6.2,3.6-13.9-0.9-13.9-8V449.6
		C1513,442.5,1520.8,438,1527,441.6z"/>
	<rect x="1262.8" y="689.1" class="st9" width="654.3" height="7.4"/>
	<rect x="1262.8" y="689.1" class="st0" width="344.5" height="7.4"/>
	<g>
		<circle class="st7" cx="1607.3" cy="692.8" r="14.3"/>
		<circle class="st9" cx="1607.3" cy="692.8" r="8.1"/>
	</g>
</g>
<g>
	<g>
		<circle class="st9" cx="219.9" cy="948.1" r="196.5"/>
		<circle class="st0" cx="219.9" cy="948.1" r="157.5"/>
		<circle class="st9" cx="219.9" cy="948.1" r="118.5"/>
		<circle class="st0" cx="219.9" cy="948.1" r="79.5"/>
		<circle class="st9" cx="219.9" cy="948.1" r="40.4"/>
	</g>
	<g>
		
			<rect x="200.1" y="822.4" transform="matrix(0.7071 -0.7071 0.7071 0.7071 -485.6372 483.0415)" class="st10" width="280.3" height="10.7"/>
		<polygon class="st10" points="242.2,899.6 219.9,948.1 268.4,925.8 249,919 		"/>
		<polygon class="st10" points="452.8,689 418.9,723 418.9,749.1 445,749.1 479,715.2 452.8,715.2 		"/>
	</g>
	<path class="st3" d="M362.5,1083.2l-108-108l13.8-4.8l-48.5-22.3l22.3,48.5l4.8-13.8l108,108
		C357.6,1088.3,360.1,1085.7,362.5,1083.2z"/>
</g>
<g>
	<rect x="240.5" y="444.8" class="st9" width="273.3" height="176.6"/>
	<g>
		<path class="st0" d="M389.1,385.9c30.2,0,49.6,20.6,49.6,49.8c0,25.6-17.2,38.5-31.9,38.5c-8,0-14.6-3.9-16.1-10.6h-0.3
			c-3.9,5.5-11.1,9.2-16.8,9.2c-11.1,0-18.5-8.1-18.5-21c0-17.1,12.2-34.3,28.3-34.3c4.6,0,8.3,2,10.6,7h0.3l2-5.9H409l-6.4,30.8
			c-2,8.1,0.1,12,6.4,12c8.4,0,16.7-9.8,16.7-25.2c0-20-10.8-37.9-38.2-37.9c-23.9,0-47.6,20.4-47.6,51.9c0,27.6,19,40.9,40.9,40.9
			c7.3,0,15.4-2.4,21.3-5.5l4.5,11.2c-8.5,4.6-17.5,6.7-27.4,6.7c-28,0-53.1-17.1-53.1-52.8C326,411.7,354.7,385.9,389.1,385.9z
			 M377.9,460c2.9,0,5.7-1.7,9.2-6.3l3.4-18.9c-1.4-2.7-3.6-4.1-6.4-4.1c-8.4,0-13.4,11.5-13.4,19.9
			C370.6,456.9,373.3,460,377.9,460z"/>
	</g>
	<polygon class="st13" points="514.3,444.8 377.2,540 514.3,621.4 	"/>
	<polygon class="st9" points="240.5,444.8 377.6,540 240.5,621.4 	"/>
</g>
<g>
	<g>
		<rect x="1509.2" y="1241.4" class="st8" width="56.4" height="174.2"/>
		<rect x="1585.8" y="1298.7" class="st0" width="56.4" height="116.9"/>
		<rect x="1662.3" y="1219.8" class="st10" width="56.4" height="195.8"/>
		<rect x="1738.9" y="1252.2" class="st8" width="56.4" height="163.4"/>
		<rect x="1815.5" y="1132.4" class="st0" width="56.4" height="283.2"/>
	</g>
	<rect x="1492.2" y="1426.7" class="st11" width="396.8" height="8.7"/>
</g>
<g>
	<path class="st2" d="M1894.6,1012.5v-21.8l-20.7-3.2c-1.7-7.8-4.8-15-8.9-21.5l12.4-16.9l-15.4-15.4l-16.9,12.4
		c-6.5-4.2-13.7-7.3-21.5-8.9l-3.2-20.7h-21.8l-3.2,20.7c-7.8,1.7-15,4.8-21.5,8.9l-16.9-12.4l-15.4,15.4L1754,966
		c-4.2,6.5-7.3,13.7-8.9,21.5l-20.7,3.2v21.8l20.7,3.2c1.7,7.8,4.8,15,8.9,21.5l-12.4,16.9l15.4,15.4l16.9-12.4
		c6.5,4.2,13.7,7.3,21.5,8.9l3.2,20.7h21.8l3.2-20.7c7.8-1.7,15-4.8,21.5-8.9l16.9,12.4l15.4-15.4l-12.4-16.9
		c4.2-6.5,7.3-13.7,8.9-21.5L1894.6,1012.5z M1809.5,1036.8c-19.4,0-35.1-15.7-35.1-35.1c0-19.4,15.7-35.1,35.1-35.1
		c19.4,0,35.1,15.7,35.1,35.1C1844.6,1021,1828.9,1036.8,1809.5,1036.8z"/>
	<path class="st9" d="M1966.5,938.1l7.3-14.1l-12.4-9c1.5-5.6,1.9-11.4,1.4-17l13.7-6.8l-4.8-15.2l-15.1,2.4c-2.8-4.9-6.5-9.3-11-13
		l4.9-14.5l-14.1-7.3l-9,12.4c-5.6-1.5-11.4-1.9-17-1.4l-6.8-13.7l-15.2,4.8l2.4,15.1c-4.9,2.8-9.3,6.5-13,11l-14.5-4.9l-7.3,14.1
		l12.4,9c-1.5,5.6-1.9,11.4-1.4,17l-13.7,6.8l4.8,15.2l15.1-2.4c2.8,4.9,6.5,9.3,11,13l-4.9,14.5l14.1,7.3l9-12.4
		c5.6,1.5,11.4,1.9,17,1.4l6.8,13.7l15.2-4.8l-2.4-15.1c4.9-2.8,9.3-6.5,13-11L1966.5,938.1z M1903.2,925.3
		c-12.6-6.5-17.5-22-11-34.5c6.5-12.6,22-17.5,34.5-11c12.6,6.5,17.5,22,11,34.5C1931.2,926.8,1915.8,931.8,1903.2,925.3z"/>
</g>
<g>
	<path class="st0" d="M1218.1,62c-57.8,0-104.7,46.9-104.7,104.7c0,27.4,10.5,52.2,27.7,70.9l-11,41.1l51.7-13.8
		c11.3,4.2,23.6,6.5,36.3,6.5c57.8,0,104.7-46.9,104.7-104.7C1322.7,108.9,1275.9,62,1218.1,62z"/>
	<g>
		<g>
			<path class="st9" d="M1244.4,222.3h-92.6V210c0-25.3,20.5-45.9,45.9-45.9h0.9c25.3,0,45.9,20.5,45.9,45.9V222.3z"/>
			<path class="st9" d="M1221.1,134.1c0,12.7-10.3,23-23,23c-12.7,0-23-10.3-23-23c0-12.7,10.3-23,23-23
				C1210.8,111,1221.1,121.3,1221.1,134.1z"/>
		</g>
		<g>
			<path class="st9" d="M1243.9,149.9h-9v-5.3h9v-9.4h5.5v9.4h9v5.3h-9v9.4h-5.5V149.9z"/>
			<path class="st9" d="M1263.8,158h7.1v-18.8h-6.1v-4.7c3.5-0.7,5.8-1.6,8.1-3h5.5V158h6.1v6.1h-20.6V158z"/>
		</g>
	</g>
</g>
<g>
	<path class="st9" d="M395.9,1493.9c57.8,0,104.7-46.9,104.7-104.7c0-27.4-10.5-52.2-27.7-70.9l11-41.1l-51.7,13.8
		c-11.3-4.2-23.6-6.5-36.3-6.5c-57.8,0-104.7,46.9-104.7,104.7C291.2,1447.1,338.1,1493.9,395.9,1493.9z"/>
	<path class="st0" d="M447.7,1357.2l-0.4-0.4c-11.1-11.1-29-11.1-40,0l-11.3,11.3l-11.3-11.3c-11.1-11.1-29-11.1-40,0l-0.4,0.4
		c-11.1,11.1-11.1,29,0,40l11.3,11.3l0,0l40.4,40.4l40.4-40.4l0,0l11.3-11.3C458.7,1386.2,458.7,1368.3,447.7,1357.2z"/>
	<path class="st0" d="M460,1426.3l-0.1-0.1c-3.1-3.1-8.2-3.1-11.4,0l-3.2,3.2l-3.2-3.2c-3.1-3.1-8.2-3.1-11.4,0l-0.1,0.1
		c-3.1,3.1-3.1,8.2,0,11.4l3.2,3.2l0,0l11.5,11.5l11.5-11.5l0,0l3.2-3.2C463.1,1434.6,463.1,1429.5,460,1426.3z"/>
</g>
<g>
	<path class="st10" d="M1061.3,400.4l-0.4,0.1c-11.1,3.4-22.9-2.9-26.2-14L935.7,60.2c-3.4-11.1,2.9-22.9,14-26.2l0.4-0.1
		c11.1-3.4,22.9,2.9,26.2,14l98.9,326.3C1078.7,385.3,1072.4,397,1061.3,400.4z"/>
	<path class="st4" d="M1050.1,363.6l-0.4,0.1c-11.1,3.4-22.9-2.9-26.2-14l11.1,36.8c3.4,11.1,15.1,17.4,26.2,14l0.4-0.1
		c11.1-3.4,17.4-15.1,14-26.2l-11.1-36.8C1067.5,348.5,1061.3,360.2,1050.1,363.6z"/>
	<g>
		<path class="st10" d="M676.9,404.8l-54.5,9c-6.7,1.1-13.1-2.9-15.1-9.4l-36.9-121.8c-2-6.5,1.2-13.4,7.3-16.1l50.3-22.8
			L676.9,404.8z"/>
		<path class="st4" d="M604.9,254.2c0,0.2,0.1,0.4,0.1,0.6l46.6,153.6c0.1,0.2,0.2,0.4,0.2,0.6l25.1-4.2l-48.9-161.1L604.9,254.2z"
			/>
		<path class="st9" d="M936.1,61.5L897.5,106c-33.2,38.4-76.6,66.5-125.1,81.2l-136.9,41.5c-8.5,2.6-13.2,11.5-10.7,20l46.6,153.6
			c2.6,8.5,11.5,13.2,20,10.7l136.9-41.5c48.5-14.7,100.3-15.4,149.2-1.9l56.8,15.6L936.1,61.5z"/>
		<path class="st13" d="M817.3,335.5l-136.9,41.5c-8.5,2.6-17.4-2.2-20-10.7l10.9,36c2.6,8.5,11.5,13.2,20,10.7l136.9-41.5
			c48.5-14.7,100.3-15.4,149.2-1.9l56.8,15.6l-10.9-36l-56.9-15.6C917.6,320.1,865.9,320.8,817.3,335.5z"/>
		<path class="st8" d="M747.7,194.8l-112.2,34c-8.5,2.6-13.2,11.5-10.7,20l46.6,153.6c2.6,8.5,11.5,13.2,20,10.7l112.2-34
			L747.7,194.8z"/>
		<path class="st10" d="M812.4,520.3l-32.2,9.8c-6.8,2.1-14.1-0.6-18-6.6l-71-110.4l62-18.8l62.3,118.5
			C817,515.7,815.5,519.3,812.4,520.3z"/>
		<polygon class="st4" points="703.8,432.7 763.9,414.5 753.2,394.3 691.2,413.1 		"/>
		<path class="st1" d="M680.4,377.1c-8.5,2.6-17.4-2.2-20-10.7l10.9,36c2.6,8.5,11.5,13.2,20,10.7l112.2-34l-10.9-36L680.4,377.1z"
			/>
	</g>
</g>
<g>
	<path class="st9" d="M1139.2,432.4v14.8c18.3,0,33.1,14.9,33.1,33.1h14.8C1187.1,453.9,1165.6,432.4,1139.2,432.4z"/>
	<path class="st9" d="M1139.2,457.8v22.6h22.6C1161.8,467.9,1151.7,457.8,1139.2,457.8z"/>
	<path class="st9" d="M1197.7,480.3h20.5c0-43.6-35.3-78.9-78.9-78.9v20.5C1171.4,421.9,1197.7,448.1,1197.7,480.3z"/>
</g>
<g>
	<path class="st9" d="M637.4,1429.8v10.5c12.9,0,23.4,10.5,23.4,23.4h10.5C671.3,1445,656.1,1429.8,637.4,1429.8z"/>
	<path class="st9" d="M637.4,1447.7v16h16C653.4,1454.9,646.2,1447.7,637.4,1447.7z"/>
	<path class="st9" d="M678.7,1463.7h14.5c0-30.8-25-55.8-55.8-55.8v14.5C660.2,1422.3,678.7,1440.9,678.7,1463.7z"/>
</g>
<g>
	<path class="st9" d="M434.4,312.3v10.5c12.9,0,23.4,10.5,23.4,23.4h10.5C468.3,327.5,453.1,312.3,434.4,312.3z"/>
	<path class="st9" d="M434.4,330.2v16h16C450.4,337.4,443.2,330.2,434.4,330.2z"/>
	<path class="st9" d="M475.8,346.2h14.5c0-30.8-25-55.8-55.8-55.8v14.5C457.2,304.8,475.8,323.4,475.8,346.2z"/>
</g>
<path class="st9" d="M290.3,1217.5h-4.6c3.6,0,6.6-2.9,6.6-6.6v-0.1c0-3.6-2.9-6.6-6.6-6.6h-1.1h-7.4h-14.4
	c2.4-4.1,3.7-8.7,3.7-13.4v-7.1c0-4-3.2-7.2-7.2-7.2h-0.1c-4,0-7.2,3.2-7.2,7.2v1c0,5.1-1.8,9.6-3.7,13c-1.9,3.4-5.1,5.8-8.6,7.5
	c-0.8,0.4-1.4,0.9-2.1,1.4c-3.2,3-7.7,4.2-12.1,4.2h-1.7v39.2c0,0.4,0.3,0.7,0.7,0.7h0.1c4.8,0,9.6,1.4,13.3,4.5
	c1.6,1.3,3.6,2.1,5.9,2.1h15.5v0h16.4v0h8.5c0,0,0,0,0,0h0.5v-0.1c3.4-0.3,6-3.1,6-6.5v-0.1c0-3.4-2.7-6.3-6-6.5v-0.1h3.1
	c3.6,0,6.6-2.9,6.6-6.6v-0.1c0-3.6-2.9-6.6-6.6-6.6h2.5c3.6,0,6.6-2.9,6.6-6.6v-0.1C296.9,1220.4,293.9,1217.5,290.3,1217.5z"/>
<path class="st9" d="M1457.3,250.5h-3.4c2.7,0,4.9-2.2,4.9-4.9v-0.1c0-2.7-2.2-4.9-4.9-4.9h-0.8h-5.5h-10.7c1.8-3,2.7-6.4,2.7-9.9
	v-5.3c0-3-2.4-5.4-5.4-5.4h-0.1c-3,0-5.4,2.4-5.4,5.4v0.8c0,3.8-1.3,7.1-2.7,9.6c-1.4,2.5-3.8,4.3-6.4,5.6c-0.6,0.3-1.1,0.6-1.5,1.1
	c-2.4,2.2-5.7,3.1-9,3.1h-1.2v29.1c0,0.3,0.2,0.5,0.5,0.5h0.1c3.6,0,7.1,1.1,9.8,3.3c1.2,1,2.7,1.6,4.4,1.6h11.5v0h12.2v0h6.3
	c0,0,0,0,0,0h0.4v0c2.5-0.2,4.5-2.3,4.5-4.8v-0.1c0-2.6-2-4.6-4.5-4.8v0h2.3c2.7,0,4.9-2.2,4.9-4.9v-0.1c0-2.7-2.2-4.9-4.9-4.9h1.9
	c2.7,0,4.9-2.2,4.9-4.9v-0.1C1462.2,252.7,1460,250.5,1457.3,250.5z"/>
<path class="st9" d="M1961.8,1128h-3.6c2.9,0,5.2-2.3,5.2-5.2v-0.1c0-2.9-2.3-5.2-5.2-5.2h-0.9h-5.8H1940c1.9-3.2,2.9-6.8,2.9-10.6
	v-5.6c0-3.2-2.6-5.7-5.7-5.7h-0.1c-3.2,0-5.7,2.6-5.7,5.7v0.8c0,4-1.4,7.6-2.9,10.3c-1.5,2.7-4,4.6-6.8,6c-0.6,0.3-1.1,0.7-1.6,1.1
	c-2.6,2.3-6.1,3.3-9.6,3.3h-1.3v31c0,0.3,0.2,0.6,0.6,0.6h0.1c3.8,0,7.6,1.1,10.5,3.6c1.3,1.1,2.9,1.7,4.7,1.7h12.2v0h13v0h6.7
	c0,0,0,0,0,0h0.4v0c2.7-0.2,4.8-2.4,4.8-5.2v-0.1c0-2.7-2.1-4.9-4.8-5.2v0h2.5c2.9,0,5.2-2.3,5.2-5.2v-0.1c0-2.9-2.3-5.2-5.2-5.2h2
	c2.9,0,5.2-2.3,5.2-5.2v-0.1C1967,1130.3,1964.7,1128,1961.8,1128z"/>
<path class="st9" d="M1412.2,1440.2c0-5.5-3.7-10-8.7-11.4c-2.6-5.8-8.4-9.8-15.1-9.8c-1.7,0-3.3,0.3-4.9,0.8
	c-2.6-12.2-13.3-21.3-26.2-21.3s-23.7,9.1-26.2,21.3c-1.6-0.5-3.2-0.8-4.9-0.8c-9.2,0-16.6,7.4-16.6,16.6c0,1.6,0.3,3.2,0.7,4.7
	H1412.2z"/>
<path class="st9" d="M271.3,698.1c0-3.1-2.1-5.6-4.9-6.4c-1.5-3.3-4.7-5.5-8.5-5.5c-1,0-1.9,0.2-2.7,0.5c-1.4-6.8-7.5-12-14.8-12
	c-7.3,0-13.3,5.1-14.8,12c-0.9-0.3-1.8-0.5-2.7-0.5c-5.2,0-9.3,4.2-9.3,9.3c0,0.9,0.2,1.8,0.4,2.6H271.3z"/>
<path class="st9" d="M1823.1,829.7c0-4-2.7-7.4-6.4-8.4c-1.9-4.3-6.2-7.2-11.1-7.2c-1.3,0-2.4,0.2-3.6,0.6
	c-1.9-8.9-9.8-15.7-19.3-15.7c-9.5,0-17.4,6.7-19.3,15.7c-1.1-0.4-2.3-0.6-3.6-0.6c-6.7,0-12.2,5.5-12.2,12.2c0,1.2,0.2,2.3,0.6,3.4
	H1823.1z"/>
</svg>
