<?xml version="1.0" encoding="utf-8"?>
<!-- Generator: Adobe Illustrator 16.0.0, SVG Export Plug-In . SVG Version: 6.00 Build 0)  -->
<!DOCTYPE svg PUBLIC "-//W3C//DTD SVG 1.1//EN" "http://www.w3.org/Graphics/SVG/1.1/DTD/svg11.dtd">
<svg version="1.1" id="Layer_1" xmlns="http://www.w3.org/2000/svg" xmlns:xlink="http://www.w3.org/1999/xlink" x="0px" y="0px"
	 width="2000px" height="1372px" viewBox="0 0 2000 1372" style="enable-background:new 0 0 2000 1372;" xml:space="preserve">
<style type="text/css">
<![CDATA[
	.st0{fill:#E2AF5B;}
	.st1{fill:#E55957;}
	.st2{fill:#E78E52;}
	.st3{fill:#EAC78E;}
	.st4{fill:#1F8BC3;}
	.st5{opacity:7.000000e-002;fill:#231F20;}
	.st6{fill:#BA7545;}
	.st7{fill:#22272B;}
	.st8{fill:#25A1D8;}
	.st9{fill:#F46060;}
	.st10{fill:#5B6375;}
	.st11{fill:#F6F4F4;}
	.st12{fill:#F76161;}
	.st13{fill:#F8BD36;}
	.st14{fill:#F96262;}
	.st15{fill:#F9AC76;}
	.st16{fill:#C1CDD2;}
	.st17{opacity:0.1;fill:#1F8BC3;}
	.st18{fill:#FCED99;}
	.st19{fill:#2F363E;}
	.st20{fill:#FFFFFF;}
	.st21{opacity:0.11;fill:#FFFFFF;}
	.st22{fill:#DDE4E8;}
]]>
</style>
<g>
	<path class="st20" d="M1617.8,408.9c-0.2,2.3-2.3,4-4.6,4h-11.7c-2.5,0-4.4-2.1-4.3-4.6c20-327.8-160.9-316.1-160.9-316.1l0-0.3
		l0,0.3c0,0-22.4-1.4-50.6,11c-3.3,1.5-6.7,3.1-10.2,5c-50.5,27.4-112.3,101.4-100.2,300.2c0.1,2.5-1.8,4.6-4.3,4.6h-11.7
		c-2.3,0-4.1-1.7-4.3-4c-2.3-31.2-13.1-237.3,92.1-311c2.8-1.9,5.4-3.8,8.3-5.6c21.3-12.7,45.9-20.3,77.6-20.6v0c0,0,1.9,0,2.4,0
		c0.5,0,2.4,0,2.4,0v0C1635.3,73.7,1620.6,370.9,1617.8,408.9z"/>
	<rect x="1090.3" y="227.5" class="st6" width="710.6" height="771.4"/>
	<path class="st15" d="M1801.1,227.5c0,0-92.6,44.2,0,81.5V227.5z"/>
	<path class="st2" d="M1759.6,271.4v47.1l83.9,0.1C1843.6,318.6,1766.9,305.6,1759.6,271.4z"/>
	<path class="st2" d="M1207.1,275l-0.6,42.8h-50.9C1155.5,317.9,1207.7,296.6,1207.1,275z"/>
	<path class="st15" d="M1091.9,227.5v773.9c53.6,4.3,66.8,61.3,66.8,61.3l-2-744.2C1303,257.6,1091.9,227.5,1091.9,227.5z"/>
	<rect x="1155.4" y="318.5" class="st3" width="710.6" height="771.4"/>
	<path class="st19" d="M1338,522.4L1338,522.4c-13.4,0-24.4-11-24.4-24.4l0,0c0-13.4,11-24.4,24.4-24.4l0,0
		c13.4,0,24.4,11,24.4,24.4l0,0C1362.4,511.4,1351.4,522.4,1338,522.4z"/>
	<path class="st19" d="M1681.3,522.4L1681.3,522.4c-13.4,0-24.4-11-24.4-24.4l0,0c0-13.4,11-24.4,24.4-24.4l0,0
		c13.4,0,24.4,11,24.4,24.4l0,0C1705.7,511.4,1694.7,522.4,1681.3,522.4z"/>
	<rect x="1155.4" y="381.5" class="st19" width="710.6" height="12.9"/>
	<rect x="1155.4" y="413.1" class="st19" width="710.6" height="12.9"/>
	<path class="st20" d="M1686.7,506.4H1675c-2.5,0-4.4-2.1-4.3-4.6c20-327.8-161-316.1-161-316.1l0-0.3l0,0.3
		c0,0-180.9-11.6-160.9,316.1c0.2,2.5-1.8,4.6-4.3,4.6h-11.7c-2.3,0-4.1-1.7-4.3-4c-2.8-38-18.2-335.3,178.6-337.1v0
		c1.8,0,1.3,0,1.8,0c0.5,0,1.8,0,1.8,0v0c198.5,1.9,183,299.1,180.2,337.1C1690.8,504.7,1688.9,506.4,1686.7,506.4z"/>
</g>
<g>
	<g>
		<path class="st10" d="M1880.8,1131.4l80.6,192.5c0.2,0.5,0.4,1,0.5,1.6c2.8,10.2-9.6,18.2-28.7,18.2L1158,1345
			c-19.2,0-31-7.9-27.5-18.1c0.2-0.5,0.4-1,0.7-1.6l94.8-192.6c0.1-0.2,0.2-0.4,0.3-0.7c5.7-10.6,22-19.1,36.8-19.1l582.1-1.2
			c14.8,0,30.4,8.4,35.3,19C1880.6,1131,1880.7,1131.2,1880.8,1131.4z"/>
	</g>
	<g>
		<path class="st8" d="M1880.5,1124.1c-4.9-10.6-20.5-19-35.3-19l-89.3,0.2l-403.3,0.9l-89.5,0.2c-14.8,0-31.1,8.5-36.8,19.1
			c-0.1,0.2-0.2,0.4-0.3,0.7l-26,52.8l-42.8,86.9l0,0l-26,52.8c-0.1,0.2-0.2,0.4-0.3,0.7c0,0,0,0,0,0c-0.1,0.3-0.2,0.6-0.3,0.9
			c0,0,0,0,0,0.1c0,0,0,0.1,0,0.1c-0.1,0.3-0.2,0.5-0.2,0.8c0,0.1,0,0.2-0.1,0.3c-0.1,0.2-0.1,0.5-0.1,0.7c0,0.1,0,0.2,0,0.3
			c0,0.2-0.1,0.4-0.1,0.6c0,0.1,0,0.2,0,0.4c0,0.2,0,0.4,0,0.5c0,0.1,0,0.3,0,0.4c0,0.2,0,0.3,0,0.5c0,0.1,0,0.3,0.1,0.4
			c0,0.2,0.1,0.3,0.1,0.5c0,0.1,0.1,0.3,0.1,0.4c0,0.1,0.1,0.3,0.1,0.4c0,0.1,0.1,0.3,0.2,0.4c0.1,0.1,0.1,0.3,0.2,0.4
			c0.1,0.1,0.1,0.3,0.2,0.4c0.1,0.1,0.1,0.3,0.2,0.4c0.1,0.1,0.2,0.3,0.2,0.4c0.1,0.1,0.2,0.3,0.2,0.4c0.1,0.1,0.2,0.3,0.3,0.4
			c0.1,0.1,0.2,0.2,0.3,0.4c0.1,0.1,0.2,0.3,0.3,0.4c0.1,0.1,0.2,0.2,0.3,0.3c0.1,0.1,0.2,0.3,0.4,0.4c0.1,0.1,0.2,0.2,0.3,0.3
			c0.1,0.1,0.3,0.2,0.4,0.4c0.1,0.1,0.2,0.2,0.4,0.3c0.1,0.1,0.3,0.2,0.4,0.4c0.1,0.1,0.3,0.2,0.4,0.3c0.2,0.1,0.3,0.2,0.5,0.3
			c0.1,0.1,0.3,0.2,0.4,0.3c0.2,0.1,0.3,0.2,0.5,0.3c0.2,0.1,0.3,0.2,0.5,0.3c0.2,0.1,0.4,0.2,0.5,0.3c0.2,0.1,0.3,0.2,0.5,0.3
			c0.2,0.1,0.4,0.2,0.6,0.3c0.2,0.1,0.4,0.2,0.6,0.3c0.2,0.1,0.4,0.2,0.6,0.3c0.2,0.1,0.4,0.2,0.6,0.2c0.2,0.1,0.4,0.2,0.6,0.2
			c0.2,0.1,0.4,0.1,0.6,0.2c0.2,0.1,0.4,0.1,0.7,0.2c0.2,0.1,0.4,0.1,0.7,0.2c0.2,0.1,0.4,0.1,0.7,0.2c0.2,0.1,0.5,0.1,0.7,0.2
			c0.2,0.1,0.5,0.1,0.7,0.2c0.2,0.1,0.5,0.1,0.7,0.2c0.2,0.1,0.5,0.1,0.7,0.2c0.3,0.1,0.5,0.1,0.8,0.1c0.2,0,0.5,0.1,0.7,0.1
			c0.3,0,0.6,0.1,0.8,0.1c0.2,0,0.5,0.1,0.7,0.1c0.3,0,0.6,0.1,0.9,0.1c0.2,0,0.5,0.1,0.7,0.1c0.3,0,0.6,0.1,0.9,0.1
			c0.2,0,0.5,0,0.7,0.1c0.3,0,0.7,0,1,0.1c0.2,0,0.5,0,0.7,0c0.4,0,0.8,0,1.2,0c0.2,0,0.4,0,0.6,0c0.6,0,1.2,0,1.8,0h0l0,0
			l119.1-0.2l537.2-0.9l119-0.2c0.6,0,1.2,0,1.8,0c0.2,0,0.4,0,0.6,0c0.4,0,0.8,0,1.2,0c0.2,0,0.5,0,0.7,0c0.3,0,0.7,0,1-0.1
			c0.2,0,0.5,0,0.7-0.1c0.3,0,0.6-0.1,0.9-0.1c0.3,0,0.5-0.1,0.7-0.1c0.3,0,0.6-0.1,0.9-0.1c0.2,0,0.5-0.1,0.7-0.1
			c0.3,0,0.6-0.1,0.9-0.1c0.2,0,0.5-0.1,0.7-0.1c0.3,0,0.5-0.1,0.8-0.2c0.2,0,0.5-0.1,0.7-0.2c0.3-0.1,0.5-0.1,0.8-0.2
			c0.2-0.1,0.5-0.1,0.7-0.2c0.2-0.1,0.5-0.1,0.7-0.2c0.2-0.1,0.4-0.1,0.7-0.2c0.2-0.1,0.5-0.1,0.7-0.2c0.2-0.1,0.4-0.1,0.6-0.2
			c0.2-0.1,0.4-0.2,0.7-0.2c0.2-0.1,0.4-0.2,0.6-0.2c0.2-0.1,0.4-0.2,0.6-0.3c0.2-0.1,0.4-0.2,0.6-0.3c0.2-0.1,0.4-0.2,0.6-0.3
			c0.2-0.1,0.4-0.2,0.6-0.3c0.2-0.1,0.4-0.2,0.6-0.3c0.2-0.1,0.4-0.2,0.5-0.3c0.2-0.1,0.3-0.2,0.5-0.3c0.2-0.1,0.3-0.2,0.5-0.3
			c0.2-0.1,0.3-0.2,0.5-0.3c0.2-0.1,0.3-0.2,0.5-0.3c0.2-0.1,0.3-0.2,0.4-0.3c0.2-0.1,0.3-0.2,0.4-0.3c0.1-0.1,0.3-0.2,0.4-0.3
			c0.1-0.1,0.3-0.2,0.4-0.3c0.1-0.1,0.3-0.2,0.4-0.4c0.1-0.1,0.3-0.2,0.4-0.4c0.1-0.1,0.2-0.2,0.3-0.4c0.1-0.1,0.2-0.2,0.3-0.4
			c0.1-0.1,0.2-0.3,0.3-0.4c0.1-0.1,0.2-0.3,0.3-0.4c0.1-0.1,0.2-0.3,0.3-0.4c0.1-0.1,0.2-0.3,0.3-0.4c0.1-0.1,0.2-0.3,0.2-0.4
			c0.1-0.1,0.1-0.3,0.2-0.4c0.1-0.1,0.1-0.3,0.2-0.4c0.1-0.1,0.1-0.3,0.2-0.4c0.1-0.2,0.1-0.3,0.2-0.5c0-0.1,0.1-0.3,0.1-0.4
			c0-0.2,0.1-0.3,0.1-0.5c0-0.1,0.1-0.3,0.1-0.4c0-0.2,0.1-0.3,0.1-0.5c0-0.1,0-0.2,0-0.4c0-0.2,0-0.4,0-0.6c0-0.1,0-0.2,0-0.3
			c0-0.2,0-0.4,0-0.6c0-0.1,0-0.2,0-0.3c0-0.2-0.1-0.5-0.1-0.7c0-0.1,0-0.2,0-0.2c-0.1-0.3-0.1-0.5-0.2-0.8c0,0,0-0.1,0-0.1
			c0,0,0,0,0-0.1c-0.1-0.3-0.2-0.6-0.3-0.9c0,0,0,0,0,0c-0.1-0.2-0.2-0.4-0.3-0.7l0,0l-22.2-52.8l-36.4-86.8l-22.1-52.8
			C1880.7,1124.5,1880.6,1124.3,1880.5,1124.1z M1906,1269.2c-12.3,2.7-24.3,6.5-35.4,11.4c-23.5,10.1-40.1,23.3-48.9,37.4l-550.5,1
			c-7.9-14.1-23.5-27.2-46.3-37.2c-12.9-5.8-27.2-10.1-41.9-12.8l43-93.3c15.5-2.8,31.5-7.1,47.3-12.9
			c26.8-10.1,48.6-23.4,63.7-37.5l433.4-0.9c14,14.1,34.8,27.3,60.8,37.3c12.8,4.8,25.7,8.6,38.5,11.3L1906,1269.2z"/>
	</g>
	<g>
		<path class="st10" d="M1861.8,1115l80.6,192.5c0.2,0.5,0.4,1,0.5,1.6c2.8,10.2-9.6,18.2-28.7,18.2l-775.2,1.4
			c-19.2,0-31-7.9-27.5-18.1c0.2-0.5,0.4-1,0.7-1.6l94.8-192.6c0.1-0.2,0.2-0.4,0.3-0.7c5.7-10.6,22-19.1,36.8-19.1l582.1-1.2
			c14.8,0,30.4,8.4,35.3,19C1861.7,1114.6,1861.8,1114.8,1861.8,1115z"/>
	</g>
	<g>
		<path class="st8" d="M1861.5,1107.7c-4.9-10.6-20.5-19-35.3-19l-89.3,0.2l-403.3,0.9l-89.5,0.2c-14.8,0-31.1,8.5-36.8,19.1
			c-0.1,0.2-0.2,0.4-0.4,0.7l-26,52.8l-42.8,86.9l0,0l-26,52.8c-0.1,0.2-0.2,0.4-0.3,0.7c0,0,0,0,0,0c-0.1,0.3-0.2,0.6-0.3,0.9
			c0,0,0,0.1,0,0.1c0,0.1,0,0.1,0,0.1c-0.1,0.3-0.2,0.5-0.2,0.8c0,0.1,0,0.2-0.1,0.3c-0.1,0.2-0.1,0.5-0.1,0.7c0,0.1,0,0.2,0,0.3
			c0,0.2-0.1,0.4-0.1,0.6c0,0.1,0,0.2,0,0.4c0,0.2,0,0.4,0,0.5c0,0.1,0,0.3,0,0.4c0,0.2,0,0.3,0,0.5c0,0.1,0,0.3,0.1,0.4
			c0,0.2,0,0.3,0.1,0.5c0,0.1,0.1,0.3,0.1,0.4c0,0.1,0.1,0.3,0.1,0.4c0,0.1,0.1,0.3,0.1,0.4c0.1,0.1,0.1,0.3,0.2,0.4
			c0.1,0.1,0.1,0.3,0.2,0.4c0.1,0.1,0.1,0.3,0.2,0.4c0.1,0.1,0.2,0.3,0.2,0.4c0.1,0.1,0.2,0.3,0.2,0.4c0.1,0.1,0.2,0.3,0.3,0.4
			c0.1,0.1,0.2,0.2,0.3,0.4c0.1,0.1,0.2,0.3,0.3,0.4c0.1,0.1,0.2,0.2,0.3,0.3c0.1,0.1,0.2,0.3,0.4,0.4c0.1,0.1,0.2,0.2,0.3,0.3
			c0.1,0.1,0.3,0.2,0.4,0.4c0.1,0.1,0.2,0.2,0.4,0.3c0.1,0.1,0.3,0.2,0.4,0.4c0.1,0.1,0.3,0.2,0.4,0.3c0.2,0.1,0.3,0.2,0.5,0.3
			c0.1,0.1,0.3,0.2,0.4,0.3c0.2,0.1,0.3,0.2,0.5,0.3c0.2,0.1,0.3,0.2,0.5,0.3c0.2,0.1,0.4,0.2,0.5,0.3c0.2,0.1,0.3,0.2,0.5,0.3
			c0.2,0.1,0.4,0.2,0.6,0.3c0.2,0.1,0.4,0.2,0.6,0.3c0.2,0.1,0.4,0.2,0.6,0.3c0.2,0.1,0.4,0.2,0.6,0.2c0.2,0.1,0.4,0.2,0.6,0.2
			c0.2,0.1,0.4,0.1,0.6,0.2c0.2,0.1,0.4,0.2,0.7,0.2c0.2,0.1,0.4,0.1,0.7,0.2c0.2,0.1,0.4,0.1,0.7,0.2c0.2,0.1,0.5,0.1,0.7,0.2
			c0.2,0.1,0.5,0.1,0.7,0.2c0.2,0.1,0.5,0.1,0.7,0.2c0.2,0.1,0.5,0.1,0.7,0.2c0.3,0.1,0.5,0.1,0.8,0.2c0.2,0,0.5,0.1,0.7,0.1
			c0.3,0,0.6,0.1,0.8,0.1c0.2,0,0.5,0.1,0.7,0.1c0.3,0,0.6,0.1,0.9,0.1c0.2,0,0.5,0.1,0.7,0.1c0.3,0,0.6,0.1,0.9,0.1
			c0.2,0,0.5,0,0.7,0.1c0.3,0,0.7,0,1,0.1c0.2,0,0.5,0,0.7,0c0.4,0,0.8,0,1.2,0c0.2,0,0.4,0,0.6,0c0.6,0,1.2,0,1.8,0h0l0,0
			l119.1-0.2l537.2-0.9l119-0.2c0.6,0,1.2,0,1.8,0c0.2,0,0.4,0,0.6,0c0.4,0,0.8,0,1.2-0.1c0.2,0,0.5,0,0.7,0c0.3,0,0.7,0,1-0.1
			c0.2,0,0.5,0,0.7-0.1c0.3,0,0.6-0.1,0.9-0.1c0.2,0,0.5-0.1,0.7-0.1c0.3,0,0.6-0.1,0.9-0.1c0.2,0,0.5-0.1,0.7-0.1
			c0.3,0,0.6-0.1,0.9-0.1c0.2,0,0.5-0.1,0.7-0.1c0.3,0,0.5-0.1,0.8-0.2c0.2,0,0.5-0.1,0.7-0.2c0.3-0.1,0.5-0.1,0.8-0.2
			c0.2-0.1,0.5-0.1,0.7-0.2c0.2-0.1,0.5-0.1,0.7-0.2c0.2-0.1,0.4-0.1,0.7-0.2c0.2-0.1,0.5-0.1,0.7-0.2c0.2-0.1,0.4-0.1,0.6-0.2
			c0.2-0.1,0.4-0.1,0.7-0.2c0.2-0.1,0.4-0.2,0.6-0.2c0.2-0.1,0.4-0.2,0.6-0.3c0.2-0.1,0.4-0.2,0.6-0.3c0.2-0.1,0.4-0.2,0.6-0.3
			c0.2-0.1,0.4-0.2,0.6-0.3c0.2-0.1,0.4-0.2,0.6-0.3c0.2-0.1,0.4-0.2,0.5-0.3c0.2-0.1,0.3-0.2,0.5-0.3c0.2-0.1,0.3-0.2,0.5-0.3
			c0.2-0.1,0.3-0.2,0.5-0.3c0.2-0.1,0.3-0.2,0.5-0.3c0.2-0.1,0.3-0.2,0.4-0.3c0.2-0.1,0.3-0.2,0.4-0.3c0.1-0.1,0.3-0.2,0.4-0.3
			c0.1-0.1,0.3-0.2,0.4-0.4c0.1-0.1,0.3-0.2,0.4-0.4c0.1-0.1,0.3-0.2,0.4-0.4c0.1-0.1,0.2-0.2,0.3-0.4c0.1-0.1,0.2-0.3,0.3-0.4
			c0.1-0.1,0.2-0.3,0.3-0.4c0.1-0.1,0.2-0.3,0.3-0.4c0.1-0.1,0.2-0.3,0.3-0.4c0.1-0.1,0.2-0.3,0.3-0.4c0.1-0.1,0.2-0.3,0.2-0.4
			c0.1-0.1,0.1-0.3,0.2-0.4c0.1-0.1,0.1-0.3,0.2-0.4c0.1-0.1,0.1-0.3,0.2-0.4c0.1-0.1,0.1-0.3,0.2-0.5c0-0.1,0.1-0.3,0.1-0.4
			c0-0.2,0.1-0.3,0.1-0.5c0-0.1,0.1-0.3,0.1-0.4c0-0.2,0.1-0.3,0.1-0.5c0-0.1,0-0.2,0-0.4c0-0.2,0-0.4,0-0.6c0-0.1,0-0.2,0-0.3
			c0-0.2,0-0.4,0-0.6c0-0.1,0-0.2,0-0.3c0-0.2-0.1-0.5-0.1-0.7c0-0.1,0-0.2,0-0.2c-0.1-0.3-0.1-0.5-0.2-0.8c0-0.1,0-0.1,0-0.1
			c0,0,0,0,0-0.1c-0.1-0.3-0.2-0.6-0.3-0.9c0,0,0,0,0,0c-0.1-0.2-0.2-0.4-0.3-0.7l0,0l-22.2-52.8l-36.4-86.8l-22.1-52.8
			C1861.7,1108.1,1861.7,1107.9,1861.5,1107.7z M1887,1252.8c-12.3,2.7-24.3,6.5-35.4,11.4c-23.5,10.1-40.1,23.3-48.9,37.4l-550.5,1
			c-7.9-14.1-23.5-27.2-46.3-37.2c-12.9-5.8-27.2-10.1-42-12.8l43-93.3c15.5-2.8,31.5-7.1,47.3-12.9c26.8-10.1,48.6-23.4,63.7-37.5
			l433.4-0.9c14,14.1,34.8,27.3,60.8,37.3c12.8,4.8,25.7,8.6,38.5,11.3L1887,1252.8z"/>
	</g>
	<g>
		<path class="st10" d="M1880.8,1099.8l80.6,192.5c0.2,0.5,0.4,1,0.5,1.6c2.8,10.2-9.6,18.2-28.7,18.2l-775.2,1.4
			c-19.2,0-31-7.9-27.5-18.1c0.2-0.5,0.4-1,0.7-1.6l94.8-192.6c0.1-0.2,0.2-0.4,0.3-0.7c5.7-10.6,22-19.1,36.8-19.1l582.1-1.2
			c14.8,0,30.4,8.4,35.3,19C1880.6,1099.4,1880.7,1099.6,1880.8,1099.8z"/>
	</g>
	<g>
		<path class="st8" d="M1880.5,1092.5c-4.9-10.6-20.5-19-35.3-19l-89.3,0.2l-403.3,0.9l-89.5,0.2c-14.8,0-31.1,8.5-36.8,19.1
			c-0.1,0.2-0.2,0.4-0.3,0.7l-26,52.8l-42.8,86.9l0,0l-26,52.8c-0.1,0.2-0.2,0.4-0.3,0.7c0,0,0,0,0,0c-0.1,0.3-0.2,0.6-0.3,0.9
			c0,0,0,0.1,0,0.1c0,0.1,0,0.1,0,0.1c-0.1,0.3-0.2,0.5-0.2,0.8c0,0.1,0,0.2-0.1,0.3c-0.1,0.2-0.1,0.5-0.1,0.7c0,0.1,0,0.2,0,0.3
			c0,0.2-0.1,0.4-0.1,0.6c0,0.1,0,0.2,0,0.4c0,0.2,0,0.4,0,0.5c0,0.1,0,0.3,0,0.4c0,0.2,0,0.3,0,0.5c0,0.1,0,0.3,0.1,0.4
			c0,0.2,0.1,0.3,0.1,0.5c0,0.1,0.1,0.3,0.1,0.4c0,0.1,0.1,0.3,0.1,0.4c0,0.1,0.1,0.3,0.2,0.4c0.1,0.1,0.1,0.3,0.2,0.4
			c0.1,0.1,0.1,0.3,0.2,0.4c0.1,0.1,0.1,0.3,0.2,0.4c0.1,0.1,0.2,0.3,0.2,0.4c0.1,0.1,0.2,0.3,0.2,0.4c0.1,0.1,0.2,0.3,0.3,0.4
			c0.1,0.1,0.2,0.2,0.3,0.4c0.1,0.1,0.2,0.3,0.3,0.4c0.1,0.1,0.2,0.2,0.3,0.3c0.1,0.1,0.2,0.3,0.4,0.4c0.1,0.1,0.2,0.2,0.3,0.3
			c0.1,0.1,0.3,0.2,0.4,0.4c0.1,0.1,0.2,0.2,0.4,0.3c0.1,0.1,0.3,0.2,0.4,0.4c0.1,0.1,0.3,0.2,0.4,0.3c0.2,0.1,0.3,0.2,0.5,0.3
			c0.1,0.1,0.3,0.2,0.4,0.3c0.2,0.1,0.3,0.2,0.5,0.3c0.2,0.1,0.3,0.2,0.5,0.3c0.2,0.1,0.4,0.2,0.5,0.3c0.2,0.1,0.3,0.2,0.5,0.3
			c0.2,0.1,0.4,0.2,0.6,0.3c0.2,0.1,0.4,0.2,0.6,0.3c0.2,0.1,0.4,0.2,0.6,0.3c0.2,0.1,0.4,0.2,0.6,0.2c0.2,0.1,0.4,0.2,0.6,0.2
			c0.2,0.1,0.4,0.1,0.6,0.2c0.2,0.1,0.4,0.2,0.7,0.2c0.2,0.1,0.4,0.1,0.7,0.2c0.2,0.1,0.4,0.1,0.7,0.2c0.2,0.1,0.5,0.1,0.7,0.2
			c0.2,0.1,0.5,0.1,0.7,0.2c0.2,0.1,0.5,0.1,0.7,0.2c0.2,0.1,0.5,0.1,0.7,0.2c0.3,0.1,0.5,0.1,0.8,0.2c0.2,0,0.5,0.1,0.7,0.1
			c0.3,0,0.6,0.1,0.8,0.1c0.2,0,0.5,0.1,0.7,0.1c0.3,0,0.6,0.1,0.9,0.1c0.2,0,0.5,0.1,0.7,0.1c0.3,0,0.6,0.1,0.9,0.1
			c0.2,0,0.5,0,0.7,0.1c0.3,0,0.7,0,1,0.1c0.2,0,0.5,0,0.7,0c0.4,0,0.8,0,1.2,0c0.2,0,0.4,0,0.6,0c0.6,0,1.2,0,1.8,0h0l0,0
			l119.1-0.2l537.2-0.9l119-0.2c0.6,0,1.2,0,1.8,0c0.2,0,0.4,0,0.6,0c0.4,0,0.8,0,1.2,0c0.2,0,0.5,0,0.7,0c0.3,0,0.7,0,1-0.1
			c0.2,0,0.5,0,0.7-0.1c0.3,0,0.6-0.1,0.9-0.1c0.3,0,0.5-0.1,0.7-0.1c0.3,0,0.6-0.1,0.9-0.1c0.2,0,0.5-0.1,0.7-0.1
			c0.3,0,0.6-0.1,0.9-0.1c0.2,0,0.5-0.1,0.7-0.1c0.3,0,0.5-0.1,0.8-0.2c0.2,0,0.5-0.1,0.7-0.2c0.3-0.1,0.5-0.1,0.8-0.2
			c0.2-0.1,0.5-0.1,0.7-0.2c0.2-0.1,0.5-0.1,0.7-0.2c0.2-0.1,0.4-0.1,0.7-0.2c0.2-0.1,0.5-0.1,0.7-0.2c0.2-0.1,0.4-0.1,0.6-0.2
			c0.2-0.1,0.4-0.1,0.7-0.2c0.2-0.1,0.4-0.2,0.6-0.2c0.2-0.1,0.4-0.2,0.6-0.3c0.2-0.1,0.4-0.2,0.6-0.3c0.2-0.1,0.4-0.2,0.6-0.3
			c0.2-0.1,0.4-0.2,0.6-0.3c0.2-0.1,0.4-0.2,0.6-0.3c0.2-0.1,0.4-0.2,0.5-0.3c0.2-0.1,0.3-0.2,0.5-0.3c0.2-0.1,0.3-0.2,0.5-0.3
			c0.2-0.1,0.3-0.2,0.5-0.3c0.2-0.1,0.3-0.2,0.5-0.3c0.2-0.1,0.3-0.2,0.4-0.3c0.2-0.1,0.3-0.2,0.4-0.3c0.1-0.1,0.3-0.2,0.4-0.3
			c0.1-0.1,0.3-0.2,0.4-0.3c0.1-0.1,0.3-0.2,0.4-0.4c0.1-0.1,0.3-0.2,0.4-0.4c0.1-0.1,0.2-0.2,0.3-0.4c0.1-0.1,0.2-0.3,0.3-0.4
			c0.1-0.1,0.2-0.3,0.3-0.4c0.1-0.1,0.2-0.3,0.3-0.4c0.1-0.1,0.2-0.3,0.3-0.4c0.1-0.1,0.2-0.3,0.3-0.4c0.1-0.1,0.2-0.3,0.2-0.4
			c0.1-0.1,0.1-0.3,0.2-0.4c0.1-0.1,0.1-0.3,0.2-0.4c0.1-0.1,0.1-0.3,0.2-0.4c0.1-0.1,0.1-0.3,0.2-0.5c0-0.1,0.1-0.3,0.1-0.4
			c0-0.2,0.1-0.3,0.1-0.5c0-0.1,0.1-0.3,0.1-0.4c0-0.2,0.1-0.3,0.1-0.5c0-0.1,0-0.2,0-0.4c0-0.2,0-0.4,0-0.6c0-0.1,0-0.2,0-0.3
			c0-0.2,0-0.4,0-0.6c0-0.1,0-0.2,0-0.3c0-0.2-0.1-0.5-0.1-0.7c0-0.1,0-0.2,0-0.2c-0.1-0.3-0.1-0.5-0.2-0.8c0-0.1,0-0.1,0-0.1
			c0,0,0,0,0-0.1c-0.1-0.3-0.2-0.6-0.3-0.9c0,0,0,0,0,0c-0.1-0.2-0.2-0.4-0.3-0.7l0,0l-22.2-52.8l-36.4-86.8l-22.1-52.8
			C1880.7,1093,1880.6,1092.7,1880.5,1092.5z M1906,1237.7c-12.3,2.7-24.3,6.5-35.4,11.4c-23.5,10.1-40.1,23.3-48.9,37.4l-550.5,1
			c-7.9-14.1-23.5-27.2-46.3-37.2c-12.9-5.8-27.2-10.1-41.9-12.8l43-93.3c15.5-2.8,31.5-7.1,47.3-12.9
			c26.8-10.1,48.6-23.4,63.7-37.5l433.4-0.9c14,14.1,34.8,27.3,60.8,37.3c12.8,4.8,25.7,8.6,38.5,11.3L1906,1237.7z"/>
	</g>
	<g>
		<path class="st10" d="M1874.5,1083.4l80.6,192.5c0.2,0.5,0.4,1,0.5,1.6c2.8,10.2-9.6,18.2-28.7,18.2l-775.2,1.4
			c-19.2,0-31-7.9-27.5-18.1c0.2-0.5,0.4-1,0.7-1.6l94.8-192.6c0.1-0.2,0.2-0.4,0.3-0.7c5.7-10.6,22-19.1,36.8-19.1l582.1-1.2
			c14.8,0,30.4,8.4,35.3,19C1874.3,1083,1874.4,1083.2,1874.5,1083.4z"/>
	</g>
	<g>
		<path class="st8" d="M1874.2,1076.1c-4.9-10.6-20.5-19-35.3-19l-89.3,0.2l-403.3,0.9l-89.5,0.2c-14.8,0-31.1,8.5-36.8,19.1
			c-0.1,0.2-0.2,0.4-0.4,0.7l-26,52.8l-42.8,86.9l0,0l-26,52.8c-0.1,0.2-0.2,0.4-0.3,0.7c0,0,0,0,0,0c-0.1,0.3-0.2,0.6-0.3,0.9
			c0,0,0,0.1,0,0.1c0,0.1,0,0.1,0,0.1c-0.1,0.3-0.2,0.5-0.2,0.8c0,0.1,0,0.2-0.1,0.3c-0.1,0.2-0.1,0.5-0.1,0.7c0,0.1,0,0.2,0,0.3
			c0,0.2-0.1,0.4-0.1,0.6c0,0.1,0,0.2,0,0.4c0,0.2,0,0.4,0,0.5c0,0.1,0,0.3,0,0.4c0,0.2,0,0.3,0,0.5c0,0.1,0,0.3,0.1,0.4
			c0,0.2,0.1,0.3,0.1,0.5c0,0.1,0.1,0.3,0.1,0.4c0,0.1,0.1,0.3,0.1,0.4c0,0.1,0.1,0.3,0.1,0.4c0.1,0.1,0.1,0.3,0.2,0.4
			c0.1,0.1,0.1,0.3,0.2,0.4s0.1,0.3,0.2,0.4c0.1,0.1,0.2,0.3,0.2,0.4c0.1,0.1,0.2,0.3,0.2,0.4c0.1,0.1,0.2,0.3,0.3,0.4
			c0.1,0.1,0.2,0.2,0.3,0.4c0.1,0.1,0.2,0.3,0.3,0.4c0.1,0.1,0.2,0.2,0.3,0.3c0.1,0.1,0.2,0.3,0.4,0.4c0.1,0.1,0.2,0.2,0.3,0.3
			c0.1,0.1,0.3,0.2,0.4,0.4c0.1,0.1,0.2,0.2,0.4,0.3c0.1,0.1,0.3,0.2,0.4,0.4c0.1,0.1,0.3,0.2,0.4,0.3c0.2,0.1,0.3,0.2,0.5,0.3
			c0.1,0.1,0.3,0.2,0.4,0.3c0.2,0.1,0.3,0.2,0.5,0.3c0.2,0.1,0.3,0.2,0.5,0.3c0.2,0.1,0.4,0.2,0.5,0.3c0.2,0.1,0.3,0.2,0.5,0.3
			c0.2,0.1,0.4,0.2,0.6,0.3c0.2,0.1,0.4,0.2,0.6,0.3c0.2,0.1,0.4,0.2,0.6,0.3c0.2,0.1,0.4,0.2,0.6,0.2c0.2,0.1,0.4,0.2,0.6,0.2
			c0.2,0.1,0.4,0.1,0.6,0.2c0.2,0.1,0.4,0.1,0.7,0.2c0.2,0.1,0.4,0.1,0.7,0.2c0.2,0.1,0.4,0.1,0.7,0.2c0.2,0.1,0.5,0.1,0.7,0.2
			c0.2,0.1,0.5,0.1,0.7,0.2c0.2,0.1,0.5,0.1,0.7,0.2c0.2,0.1,0.5,0.1,0.7,0.2c0.3,0.1,0.5,0.1,0.8,0.2c0.2,0,0.5,0.1,0.7,0.1
			c0.3,0,0.6,0.1,0.8,0.1c0.2,0,0.5,0.1,0.7,0.1c0.3,0,0.6,0.1,0.9,0.1c0.2,0,0.5,0.1,0.7,0.1c0.3,0,0.6,0.1,0.9,0.1
			c0.2,0,0.5,0,0.7,0.1c0.3,0,0.7,0,1,0.1c0.2,0,0.5,0,0.7,0c0.4,0,0.8,0,1.2,0c0.2,0,0.4,0,0.6,0c0.6,0,1.2,0,1.8,0h0l0,0
			l119.1-0.2l537.2-0.9l119-0.2c0.6,0,1.2,0,1.8,0c0.2,0,0.4,0,0.6,0c0.4,0,0.8,0,1.2,0c0.2,0,0.5,0,0.7,0c0.3,0,0.7,0,1-0.1
			c0.2,0,0.5,0,0.7-0.1c0.3,0,0.6-0.1,0.9-0.1c0.2,0,0.5-0.1,0.7-0.1c0.3,0,0.6-0.1,0.9-0.1c0.2,0,0.5-0.1,0.7-0.1
			c0.3,0,0.6-0.1,0.9-0.1c0.2,0,0.5-0.1,0.7-0.1c0.3-0.1,0.5-0.1,0.8-0.2c0.2,0,0.5-0.1,0.7-0.2c0.3-0.1,0.5-0.1,0.8-0.2
			c0.2-0.1,0.5-0.1,0.7-0.2c0.2-0.1,0.5-0.1,0.7-0.2c0.2-0.1,0.4-0.1,0.7-0.2c0.2-0.1,0.5-0.1,0.7-0.2c0.2-0.1,0.4-0.1,0.6-0.2
			c0.2-0.1,0.4-0.2,0.7-0.2c0.2-0.1,0.4-0.2,0.6-0.2c0.2-0.1,0.4-0.2,0.6-0.3c0.2-0.1,0.4-0.2,0.6-0.3c0.2-0.1,0.4-0.2,0.6-0.3
			c0.2-0.1,0.4-0.2,0.6-0.3c0.2-0.1,0.4-0.2,0.6-0.3c0.2-0.1,0.4-0.2,0.5-0.3c0.2-0.1,0.3-0.2,0.5-0.3c0.2-0.1,0.3-0.2,0.5-0.3
			c0.2-0.1,0.3-0.2,0.5-0.3c0.2-0.1,0.3-0.2,0.5-0.3c0.2-0.1,0.3-0.2,0.4-0.3c0.2-0.1,0.3-0.2,0.4-0.3c0.1-0.1,0.3-0.2,0.4-0.3
			c0.1-0.1,0.3-0.2,0.4-0.3c0.1-0.1,0.3-0.2,0.4-0.4s0.3-0.2,0.4-0.4c0.1-0.1,0.2-0.2,0.3-0.4c0.1-0.1,0.2-0.2,0.3-0.4
			c0.1-0.1,0.2-0.3,0.3-0.4c0.1-0.1,0.2-0.3,0.3-0.4c0.1-0.1,0.2-0.3,0.3-0.4c0.1-0.1,0.2-0.3,0.3-0.4c0.1-0.1,0.2-0.3,0.2-0.4
			c0.1-0.1,0.1-0.3,0.2-0.4c0.1-0.1,0.1-0.3,0.2-0.4c0.1-0.1,0.1-0.3,0.2-0.4c0.1-0.2,0.1-0.3,0.2-0.5c0-0.1,0.1-0.3,0.1-0.4
			c0-0.2,0.1-0.3,0.1-0.5c0-0.1,0.1-0.3,0.1-0.4c0-0.2,0.1-0.3,0.1-0.5c0-0.1,0-0.2,0-0.4c0-0.2,0-0.4,0-0.6c0-0.1,0-0.2,0-0.3
			c0-0.2,0-0.4,0-0.6c0-0.1,0-0.2,0-0.3c0-0.2-0.1-0.5-0.1-0.7c0-0.1,0-0.2,0-0.2c-0.1-0.3-0.1-0.5-0.2-0.8c0,0,0-0.1,0-0.1
			c0,0,0,0,0-0.1c-0.1-0.3-0.2-0.6-0.3-0.9c0,0,0,0,0,0c-0.1-0.2-0.2-0.4-0.3-0.7l0,0l-22.2-52.8l-36.4-86.8l-22.1-52.8
			C1874.4,1076.6,1874.3,1076.3,1874.2,1076.1z M1899.6,1221.2c-12.3,2.7-24.3,6.5-35.4,11.4c-23.5,10.1-40.1,23.3-48.9,37.4
			l-550.5,1c-7.9-14.1-23.5-27.2-46.3-37.2c-12.9-5.8-27.2-10.1-42-12.8l43-93.3c15.5-2.8,31.5-7.1,47.3-12.9
			c26.8-10.1,48.6-23.4,63.7-37.5l433.4-0.9c14,14.1,34.8,27.3,60.8,37.3c12.8,4.8,25.7,8.6,38.5,11.3L1899.6,1221.2z"/>
	</g>
	<g>
		<path class="st10" d="M1892.2,1067l80.6,192.5c0.2,0.5,0.4,1,0.5,1.6c2.8,10.2-9.6,18.2-28.7,18.2l-775.2,1.4
			c-19.2,0-31-7.9-27.5-18.1c0.2-0.5,0.4-1,0.7-1.6l94.8-192.6c0.1-0.2,0.2-0.4,0.3-0.7c5.7-10.6,22-19.1,36.8-19.1l582.1-1.2
			c14.8,0,30.4,8.4,35.3,19C1892,1066.6,1892.1,1066.8,1892.2,1067z"/>
	</g>
	<g>
		<path class="st8" d="M1891.9,1059.7c-4.9-10.6-20.5-19-35.3-19l-89.3,0.2l-403.3,0.9l-89.5,0.2c-14.8,0-31.1,8.5-36.8,19.1
			c-0.1,0.2-0.2,0.4-0.3,0.7l-26,52.8l-42.8,86.9l0,0l-26,52.8c-0.1,0.2-0.2,0.4-0.3,0.7c0,0,0,0,0,0c-0.1,0.3-0.2,0.6-0.3,0.9
			c0,0,0,0.1,0,0.1c0,0.1,0,0.1,0,0.1c-0.1,0.3-0.2,0.5-0.2,0.8c0,0.1,0,0.2-0.1,0.3c-0.1,0.2-0.1,0.5-0.1,0.7c0,0.1,0,0.2,0,0.3
			c0,0.2-0.1,0.4-0.1,0.6c0,0.1,0,0.2,0,0.4c0,0.2,0,0.4,0,0.5c0,0.1,0,0.3,0,0.4c0,0.2,0,0.3,0,0.5c0,0.1,0,0.3,0.1,0.4
			c0,0.2,0.1,0.3,0.1,0.5c0,0.1,0.1,0.3,0.1,0.4c0,0.1,0.1,0.3,0.1,0.4c0,0.1,0.1,0.3,0.2,0.4c0.1,0.1,0.1,0.3,0.2,0.4
			c0.1,0.1,0.1,0.3,0.2,0.4c0.1,0.1,0.1,0.3,0.2,0.4c0.1,0.1,0.2,0.3,0.2,0.4c0.1,0.1,0.2,0.3,0.2,0.4c0.1,0.1,0.2,0.3,0.3,0.4
			c0.1,0.1,0.2,0.2,0.3,0.4c0.1,0.1,0.2,0.3,0.3,0.4c0.1,0.1,0.2,0.2,0.3,0.3c0.1,0.1,0.2,0.3,0.4,0.4c0.1,0.1,0.2,0.2,0.3,0.3
			c0.1,0.1,0.3,0.2,0.4,0.4c0.1,0.1,0.2,0.2,0.4,0.3c0.1,0.1,0.3,0.2,0.4,0.4c0.1,0.1,0.3,0.2,0.4,0.3c0.2,0.1,0.3,0.2,0.5,0.3
			c0.1,0.1,0.3,0.2,0.4,0.3c0.2,0.1,0.3,0.2,0.5,0.3c0.2,0.1,0.3,0.2,0.5,0.3c0.2,0.1,0.4,0.2,0.5,0.3c0.2,0.1,0.3,0.2,0.5,0.3
			c0.2,0.1,0.4,0.2,0.6,0.3c0.2,0.1,0.4,0.2,0.6,0.3c0.2,0.1,0.4,0.2,0.6,0.3c0.2,0.1,0.4,0.2,0.6,0.2c0.2,0.1,0.4,0.2,0.6,0.2
			c0.2,0.1,0.4,0.1,0.6,0.2c0.2,0.1,0.4,0.2,0.6,0.2c0.2,0.1,0.4,0.1,0.7,0.2c0.2,0.1,0.4,0.1,0.7,0.2c0.2,0.1,0.5,0.1,0.7,0.2
			c0.2,0.1,0.5,0.1,0.7,0.2c0.2,0.1,0.5,0.1,0.7,0.2c0.2,0.1,0.5,0.1,0.7,0.2c0.3,0.1,0.5,0.1,0.8,0.2c0.2,0,0.5,0.1,0.7,0.1
			c0.3,0,0.6,0.1,0.8,0.1c0.2,0,0.5,0.1,0.7,0.1c0.3,0,0.6,0.1,0.9,0.1c0.2,0,0.5,0.1,0.7,0.1c0.3,0,0.6,0.1,0.9,0.1
			c0.2,0,0.5,0,0.7,0.1c0.3,0,0.7,0,1,0.1c0.2,0,0.5,0,0.7,0c0.4,0,0.8,0,1.2,0c0.2,0,0.4,0,0.6,0c0.6,0,1.2,0,1.8,0h0l0,0
			l119.1-0.2l537.2-0.9l119-0.2c0.6,0,1.2,0,1.8,0c0.2,0,0.4,0,0.6,0c0.4,0,0.8,0,1.2-0.1c0.2,0,0.5,0,0.7,0c0.3,0,0.7,0,1-0.1
			c0.2,0,0.5,0,0.7-0.1c0.3,0,0.6-0.1,0.9-0.1c0.3,0,0.5-0.1,0.7-0.1c0.3,0,0.6-0.1,0.9-0.1c0.2,0,0.5-0.1,0.7-0.1
			c0.3,0,0.6-0.1,0.9-0.1c0.2,0,0.5-0.1,0.7-0.1c0.3-0.1,0.5-0.1,0.8-0.2c0.2,0,0.5-0.1,0.7-0.2c0.3-0.1,0.5-0.1,0.8-0.2
			c0.2-0.1,0.5-0.1,0.7-0.2c0.2-0.1,0.5-0.1,0.7-0.2c0.2-0.1,0.4-0.1,0.7-0.2c0.2-0.1,0.5-0.1,0.7-0.2c0.2-0.1,0.4-0.1,0.6-0.2
			c0.2-0.1,0.4-0.2,0.7-0.2c0.2-0.1,0.4-0.2,0.6-0.2c0.2-0.1,0.4-0.2,0.6-0.2c0.2-0.1,0.4-0.2,0.6-0.3c0.2-0.1,0.4-0.2,0.6-0.3
			c0.2-0.1,0.4-0.2,0.6-0.3s0.4-0.2,0.6-0.3c0.2-0.1,0.4-0.2,0.5-0.3c0.2-0.1,0.3-0.2,0.5-0.3c0.2-0.1,0.3-0.2,0.5-0.3
			c0.2-0.1,0.3-0.2,0.5-0.3c0.2-0.1,0.3-0.2,0.5-0.3c0.2-0.1,0.3-0.2,0.4-0.3c0.2-0.1,0.3-0.2,0.4-0.3c0.1-0.1,0.3-0.2,0.4-0.3
			c0.1-0.1,0.3-0.2,0.4-0.3c0.1-0.1,0.3-0.2,0.4-0.4c0.1-0.1,0.3-0.2,0.4-0.4c0.1-0.1,0.2-0.2,0.3-0.4c0.1-0.1,0.2-0.2,0.3-0.4
			c0.1-0.1,0.2-0.3,0.3-0.4c0.1-0.1,0.2-0.3,0.3-0.4c0.1-0.1,0.2-0.3,0.3-0.4c0.1-0.1,0.2-0.3,0.3-0.4c0.1-0.1,0.2-0.3,0.2-0.4
			c0.1-0.1,0.2-0.3,0.2-0.4c0.1-0.1,0.1-0.3,0.2-0.4c0.1-0.1,0.1-0.3,0.2-0.4c0.1-0.1,0.1-0.3,0.2-0.5c0-0.1,0.1-0.3,0.1-0.4
			c0-0.2,0.1-0.3,0.1-0.5c0-0.1,0.1-0.3,0.1-0.4c0-0.2,0.1-0.3,0.1-0.5c0-0.1,0-0.2,0-0.4c0-0.2,0-0.4,0-0.6c0-0.1,0-0.2,0-0.3
			c0-0.2,0-0.4,0-0.6c0-0.1,0-0.2,0-0.3c0-0.2-0.1-0.5-0.1-0.7c0-0.1,0-0.2,0-0.2c-0.1-0.3-0.1-0.5-0.2-0.8c0-0.1,0-0.1,0-0.1
			c0,0,0,0,0-0.1c-0.1-0.3-0.2-0.6-0.3-0.9c0,0,0,0,0,0c-0.1-0.2-0.2-0.4-0.3-0.7l0,0l-22.2-52.8l-36.4-86.8l-22.1-52.8
			C1892.1,1060.1,1892,1059.9,1891.9,1059.7z M1917.3,1204.8c-12.3,2.7-24.3,6.5-35.4,11.4c-23.5,10.1-40.1,23.3-48.9,37.4l-550.5,1
			c-7.9-14.1-23.5-27.2-46.3-37.2c-12.9-5.8-27.2-10-41.9-12.8l43-93.3c15.5-2.8,31.5-7.1,47.3-12.9c26.8-10.1,48.6-23.4,63.7-37.5
			l433.4-0.9c14,14.1,34.8,27.3,60.8,37.3c12.8,4.8,25.7,8.6,38.5,11.3L1917.3,1204.8z"/>
	</g>
	<g>
		<path class="st10" d="M1878.3,1049.3l80.6,192.5c0.2,0.5,0.4,1,0.5,1.6c2.8,10.2-9.6,18.2-28.7,18.2l-775.2,1.4
			c-19.2,0-31-7.9-27.5-18.1c0.2-0.5,0.4-1,0.7-1.6l94.8-192.6c0.1-0.2,0.2-0.4,0.3-0.7c5.7-10.6,22-19.1,36.8-19.1l582.1-1.2
			c14.8,0,30.4,8.4,35.3,19C1878.1,1048.9,1878.2,1049.1,1878.3,1049.3z"/>
	</g>
	<g>
		<path class="st8" d="M1878,1042c-4.9-10.6-20.5-19-35.3-19l-89.3,0.2l-403.3,0.9l-89.5,0.2c-14.8,0-31.1,8.5-36.8,19.1
			c-0.1,0.2-0.2,0.4-0.3,0.7l-26,52.8l-42.8,86.9l0,0l-26,52.8c-0.1,0.2-0.2,0.4-0.3,0.7c0,0,0,0,0,0c-0.1,0.3-0.2,0.6-0.3,0.9
			c0,0,0,0.1,0,0.1c0,0.1,0,0.1,0,0.1c-0.1,0.3-0.2,0.5-0.2,0.8c0,0.1,0,0.2-0.1,0.3c-0.1,0.2-0.1,0.5-0.1,0.7c0,0.1,0,0.2,0,0.3
			c0,0.2-0.1,0.4-0.1,0.6c0,0.1,0,0.2,0,0.4c0,0.2,0,0.4,0,0.5c0,0.1,0,0.3,0,0.4c0,0.2,0,0.3,0,0.5c0,0.1,0,0.3,0.1,0.4
			c0,0.2,0,0.3,0.1,0.5c0,0.1,0.1,0.3,0.1,0.4c0,0.1,0.1,0.3,0.1,0.4c0,0.1,0.1,0.3,0.1,0.4c0.1,0.1,0.1,0.3,0.2,0.4
			c0.1,0.1,0.1,0.3,0.2,0.4c0.1,0.1,0.1,0.3,0.2,0.4c0.1,0.1,0.2,0.3,0.2,0.4c0.1,0.1,0.2,0.3,0.2,0.4c0.1,0.1,0.2,0.3,0.3,0.4
			c0.1,0.1,0.2,0.2,0.3,0.4c0.1,0.1,0.2,0.3,0.3,0.4c0.1,0.1,0.2,0.2,0.3,0.3c0.1,0.1,0.2,0.3,0.4,0.4c0.1,0.1,0.2,0.2,0.3,0.3
			c0.1,0.1,0.3,0.2,0.4,0.4c0.1,0.1,0.2,0.2,0.4,0.3c0.1,0.1,0.3,0.2,0.4,0.3c0.1,0.1,0.3,0.2,0.4,0.3c0.2,0.1,0.3,0.2,0.5,0.3
			c0.1,0.1,0.3,0.2,0.4,0.3c0.2,0.1,0.3,0.2,0.5,0.3c0.2,0.1,0.3,0.2,0.5,0.3c0.2,0.1,0.4,0.2,0.5,0.3c0.2,0.1,0.3,0.2,0.5,0.3
			c0.2,0.1,0.4,0.2,0.6,0.3c0.2,0.1,0.4,0.2,0.6,0.3c0.2,0.1,0.4,0.2,0.6,0.3c0.2,0.1,0.4,0.2,0.6,0.2c0.2,0.1,0.4,0.2,0.6,0.2
			c0.2,0.1,0.4,0.1,0.6,0.2c0.2,0.1,0.4,0.1,0.6,0.2c0.2,0.1,0.4,0.1,0.7,0.2c0.2,0.1,0.4,0.1,0.7,0.2c0.2,0.1,0.5,0.1,0.7,0.2
			c0.2,0.1,0.5,0.1,0.7,0.2c0.2,0.1,0.5,0.1,0.7,0.2c0.2,0.1,0.5,0.1,0.7,0.2c0.3,0.1,0.5,0.1,0.8,0.2c0.2,0,0.5,0.1,0.7,0.1
			c0.3,0,0.6,0.1,0.8,0.1c0.2,0,0.5,0.1,0.7,0.1c0.3,0,0.6,0.1,0.9,0.1c0.2,0,0.5,0.1,0.7,0.1c0.3,0,0.6,0.1,0.9,0.1
			c0.2,0,0.5,0,0.7,0.1c0.3,0,0.7,0,1,0.1c0.2,0,0.5,0,0.7,0c0.4,0,0.8,0,1.2,0c0.2,0,0.4,0,0.6,0c0.6,0,1.2,0,1.8,0h0l0,0
			l119.1-0.2l537.2-0.9l119-0.2c0.6,0,1.2,0,1.8,0c0.2,0,0.4,0,0.6,0c0.4,0,0.8,0,1.2,0c0.2,0,0.5,0,0.7,0c0.3,0,0.7,0,1-0.1
			c0.2,0,0.5,0,0.7-0.1c0.3,0,0.6-0.1,0.9-0.1c0.2,0,0.5-0.1,0.7-0.1c0.3,0,0.6-0.1,0.9-0.1c0.2,0,0.5-0.1,0.7-0.1
			c0.3,0,0.6-0.1,0.9-0.1c0.2,0,0.5-0.1,0.7-0.1c0.3,0,0.5-0.1,0.8-0.2c0.2,0,0.5-0.1,0.7-0.2c0.3-0.1,0.5-0.1,0.8-0.2
			c0.2-0.1,0.5-0.1,0.7-0.2c0.2-0.1,0.5-0.1,0.7-0.2c0.2-0.1,0.4-0.1,0.7-0.2c0.2-0.1,0.5-0.1,0.7-0.2c0.2-0.1,0.4-0.1,0.6-0.2
			c0.2-0.1,0.4-0.2,0.7-0.2c0.2-0.1,0.4-0.2,0.6-0.2c0.2-0.1,0.4-0.2,0.6-0.3c0.2-0.1,0.4-0.2,0.6-0.3c0.2-0.1,0.4-0.2,0.6-0.3
			c0.2-0.1,0.4-0.2,0.6-0.3c0.2-0.1,0.4-0.2,0.6-0.3c0.2-0.1,0.4-0.2,0.5-0.3c0.2-0.1,0.4-0.2,0.5-0.3c0.2-0.1,0.3-0.2,0.5-0.3
			c0.2-0.1,0.3-0.2,0.5-0.3c0.2-0.1,0.3-0.2,0.5-0.3c0.2-0.1,0.3-0.2,0.5-0.3c0.1-0.1,0.3-0.2,0.4-0.3c0.1-0.1,0.3-0.2,0.4-0.3
			c0.1-0.1,0.3-0.2,0.4-0.3c0.1-0.1,0.3-0.2,0.4-0.4c0.1-0.1,0.2-0.2,0.4-0.4c0.1-0.1,0.2-0.2,0.3-0.4c0.1-0.1,0.2-0.2,0.3-0.4
			c0.1-0.1,0.2-0.3,0.3-0.4c0.1-0.1,0.2-0.3,0.3-0.4c0.1-0.1,0.2-0.3,0.3-0.4c0.1-0.1,0.2-0.3,0.3-0.4c0.1-0.1,0.2-0.3,0.2-0.4
			c0.1-0.1,0.1-0.3,0.2-0.4c0.1-0.1,0.1-0.3,0.2-0.4c0.1-0.1,0.1-0.3,0.2-0.4c0.1-0.2,0.1-0.3,0.2-0.5c0-0.1,0.1-0.3,0.1-0.4
			c0-0.2,0.1-0.3,0.1-0.5c0-0.1,0.1-0.3,0.1-0.4c0-0.2,0.1-0.3,0.1-0.5c0-0.1,0-0.2,0.1-0.4c0-0.2,0-0.4,0-0.6c0-0.1,0-0.2,0-0.3
			c0-0.2,0-0.4,0-0.6c0-0.1,0-0.2,0-0.3c0-0.2-0.1-0.5-0.1-0.7c0-0.1,0-0.2,0-0.2c0-0.3-0.1-0.5-0.2-0.8c0,0,0-0.1,0-0.1
			c0,0,0-0.1,0-0.1c-0.1-0.3-0.2-0.6-0.3-0.9c0,0,0,0,0,0c-0.1-0.2-0.2-0.4-0.3-0.7l0,0l-22.2-52.8l-36.4-86.8l-22.1-52.8
			C1878.2,1042.5,1878.1,1042.2,1878,1042z M1903.4,1187.1c-12.3,2.7-24.3,6.5-35.4,11.4c-23.5,10.1-40.1,23.3-48.9,37.4l-550.5,1
			c-7.9-14.1-23.5-27.2-46.3-37.2c-12.9-5.8-27.2-10.1-42-12.8l43-93.3c15.5-2.8,31.5-7.1,47.3-12.9c26.8-10.1,48.6-23.4,63.7-37.5
			l433.4-0.9c14,14.1,34.8,27.3,60.8,37.3c12.7,4.8,25.7,8.6,38.5,11.3L1903.4,1187.1z"/>
	</g>
	<g>
		<path class="st10" d="M1885.8,1030.4l80.6,192.5c0.2,0.5,0.4,1,0.5,1.6c2.8,10.1-9.6,18.2-28.7,18.2L1163,1244
			c-19.2,0-31-7.9-27.5-18.1c0.2-0.5,0.4-1,0.7-1.6l94.8-192.6c0.1-0.2,0.2-0.4,0.4-0.7c5.7-10.6,22-19.1,36.8-19.1l582.1-1.2
			c14.8,0,30.4,8.4,35.3,19C1885.7,1029.9,1885.8,1030.2,1885.8,1030.4z"/>
	</g>
	<g>
		<path class="st8" d="M1885.5,1023.1c-4.9-10.6-20.5-19-35.3-19l-89.3,0.2l-403.3,0.9l-89.5,0.2c-14.8,0-31.1,8.5-36.8,19.1
			c-0.1,0.2-0.2,0.4-0.3,0.7l-26,52.8l-42.8,86.9l0,0l-26,52.8c-0.1,0.2-0.2,0.4-0.3,0.7c0,0,0,0,0,0c-0.1,0.3-0.2,0.6-0.3,0.9
			c0,0,0,0.1,0,0.1c0,0.1,0,0.1,0,0.1c-0.1,0.3-0.2,0.5-0.2,0.8c0,0.1,0,0.2-0.1,0.3c-0.1,0.2-0.1,0.5-0.1,0.7c0,0.1,0,0.2,0,0.3
			c0,0.2-0.1,0.4-0.1,0.6c0,0.1,0,0.2,0,0.4c0,0.2,0,0.4,0,0.5c0,0.1,0,0.3,0,0.4c0,0.2,0,0.3,0,0.5c0,0.1,0,0.3,0.1,0.4
			c0,0.2,0.1,0.3,0.1,0.5c0,0.1,0.1,0.3,0.1,0.4c0,0.1,0.1,0.3,0.1,0.4c0,0.1,0.1,0.3,0.1,0.4c0.1,0.1,0.1,0.3,0.2,0.4
			c0.1,0.1,0.1,0.3,0.2,0.4c0.1,0.1,0.1,0.3,0.2,0.4c0.1,0.1,0.2,0.3,0.2,0.4c0.1,0.1,0.2,0.3,0.2,0.4c0.1,0.1,0.2,0.3,0.3,0.4
			c0.1,0.1,0.2,0.2,0.3,0.4c0.1,0.1,0.2,0.3,0.3,0.4c0.1,0.1,0.2,0.2,0.3,0.3c0.1,0.1,0.2,0.3,0.4,0.4c0.1,0.1,0.2,0.2,0.3,0.3
			c0.1,0.1,0.3,0.2,0.4,0.4c0.1,0.1,0.2,0.2,0.4,0.3c0.1,0.1,0.3,0.2,0.4,0.4c0.1,0.1,0.3,0.2,0.4,0.3c0.2,0.1,0.3,0.2,0.5,0.3
			c0.1,0.1,0.3,0.2,0.4,0.3c0.2,0.1,0.3,0.2,0.5,0.3c0.2,0.1,0.3,0.2,0.5,0.3c0.2,0.1,0.4,0.2,0.5,0.3c0.2,0.1,0.3,0.2,0.5,0.3
			c0.2,0.1,0.4,0.2,0.6,0.3c0.2,0.1,0.4,0.2,0.6,0.3c0.2,0.1,0.4,0.2,0.6,0.3c0.2,0.1,0.4,0.2,0.6,0.2c0.2,0.1,0.4,0.2,0.6,0.2
			c0.2,0.1,0.4,0.1,0.6,0.2c0.2,0.1,0.4,0.2,0.7,0.2c0.2,0.1,0.4,0.1,0.7,0.2c0.2,0.1,0.4,0.1,0.7,0.2c0.2,0.1,0.5,0.1,0.7,0.2
			c0.2,0.1,0.5,0.1,0.7,0.2c0.2,0.1,0.5,0.1,0.7,0.2c0.2,0.1,0.5,0.1,0.7,0.2c0.3,0.1,0.5,0.1,0.8,0.1c0.2,0,0.5,0.1,0.7,0.1
			c0.3,0,0.6,0.1,0.8,0.1c0.2,0,0.5,0.1,0.7,0.1c0.3,0,0.6,0.1,0.9,0.1c0.2,0,0.5,0.1,0.7,0.1c0.3,0,0.6,0.1,0.9,0.1
			c0.2,0,0.5,0,0.7,0.1c0.3,0,0.7,0,1,0.1c0.2,0,0.5,0,0.7,0c0.4,0,0.8,0,1.2,0c0.2,0,0.4,0,0.6,0c0.6,0,1.2,0,1.8,0h0l0,0
			l119.1-0.2l537.2-0.9l119-0.2c0.6,0,1.2,0,1.8,0c0.2,0,0.4,0,0.6,0c0.4,0,0.8,0,1.2-0.1c0.2,0,0.5,0,0.7,0c0.3,0,0.7,0,1-0.1
			c0.2,0,0.5,0,0.7-0.1c0.3,0,0.6-0.1,0.9-0.1c0.2,0,0.5-0.1,0.7-0.1c0.3,0,0.6-0.1,0.9-0.1c0.2,0,0.5-0.1,0.7-0.1
			c0.3,0,0.6-0.1,0.9-0.1c0.2,0,0.5-0.1,0.7-0.1c0.3,0,0.5-0.1,0.8-0.2c0.2,0,0.5-0.1,0.7-0.2c0.3-0.1,0.5-0.1,0.8-0.2
			c0.2-0.1,0.5-0.1,0.7-0.2c0.2-0.1,0.5-0.1,0.7-0.2c0.2-0.1,0.4-0.1,0.7-0.2c0.2-0.1,0.5-0.1,0.7-0.2c0.2-0.1,0.4-0.1,0.6-0.2
			c0.2-0.1,0.4-0.2,0.7-0.2c0.2-0.1,0.4-0.2,0.6-0.2c0.2-0.1,0.4-0.2,0.6-0.3c0.2-0.1,0.4-0.2,0.6-0.3c0.2-0.1,0.4-0.2,0.6-0.3
			c0.2-0.1,0.4-0.2,0.6-0.3c0.2-0.1,0.4-0.2,0.6-0.3s0.4-0.2,0.5-0.3c0.2-0.1,0.3-0.2,0.5-0.3c0.2-0.1,0.3-0.2,0.5-0.3
			c0.2-0.1,0.3-0.2,0.5-0.3c0.2-0.1,0.3-0.2,0.5-0.3c0.2-0.1,0.3-0.2,0.5-0.3c0.1-0.1,0.3-0.2,0.4-0.3c0.1-0.1,0.3-0.2,0.4-0.3
			c0.1-0.1,0.3-0.2,0.4-0.3c0.1-0.1,0.3-0.2,0.4-0.4c0.1-0.1,0.3-0.2,0.4-0.4c0.1-0.1,0.2-0.2,0.3-0.4c0.1-0.1,0.2-0.2,0.3-0.4
			c0.1-0.1,0.2-0.3,0.3-0.4c0.1-0.1,0.2-0.3,0.3-0.4c0.1-0.1,0.2-0.3,0.3-0.4c0.1-0.1,0.2-0.3,0.3-0.4c0.1-0.1,0.2-0.3,0.2-0.4
			c0.1-0.1,0.1-0.3,0.2-0.4c0.1-0.1,0.1-0.3,0.2-0.4c0.1-0.1,0.1-0.3,0.2-0.4c0.1-0.2,0.1-0.3,0.2-0.5c0-0.1,0.1-0.3,0.1-0.4
			c0-0.2,0.1-0.3,0.1-0.5c0-0.1,0.1-0.3,0.1-0.4c0-0.2,0.1-0.3,0.1-0.5c0-0.1,0-0.2,0.1-0.4c0-0.2,0-0.4,0-0.6c0-0.1,0-0.2,0-0.3
			c0-0.2,0-0.4,0-0.6c0-0.1,0-0.2,0-0.3c0-0.2-0.1-0.5-0.1-0.7c0-0.1,0-0.2,0-0.2c0-0.3-0.1-0.5-0.2-0.8c0,0,0-0.1,0-0.1
			c0,0,0-0.1,0-0.1c-0.1-0.3-0.2-0.6-0.3-0.9c0,0,0,0,0,0c-0.1-0.2-0.2-0.4-0.3-0.7l0,0l-22.2-52.8l-36.4-86.8l-22.1-52.8
			C1885.7,1023.5,1885.6,1023.3,1885.5,1023.1z M1911,1168.2c-12.3,2.7-24.3,6.5-35.4,11.4c-23.5,10.1-40.1,23.3-48.9,37.4l-550.5,1
			c-7.9-14.1-23.5-27.2-46.3-37.2c-12.9-5.8-27.2-10.1-41.9-12.8l43-93.3c15.5-2.8,31.5-7.1,47.3-12.9
			c26.8-10.1,48.6-23.4,63.7-37.5l433.4-0.9c14,14.1,34.8,27.3,60.8,37.3c12.7,4.8,25.7,8.6,38.5,11.3L1911,1168.2z"/>
	</g>
	<g>
		<g>
			<path class="st10" d="M1865.6,1011.4l80.6,192.5c0.2,0.5,0.4,1,0.5,1.6c2.8,10.2-9.6,18.2-28.7,18.2l-775.2,1.4
				c-19.2,0-31-7.9-27.5-18.1c0.2-0.5,0.4-1,0.7-1.6l94.8-192.6c0.1-0.2,0.2-0.4,0.3-0.7c5.7-10.6,22-19.1,36.8-19.1l582.1-1.2
				c14.8,0,30.4,8.4,35.3,19C1865.4,1011,1865.5,1011.2,1865.6,1011.4z"/>
		</g>
	</g>
	<g>
		<path class="st8" d="M1865.6,1004.8l80.6,192.5c0.2,0.5,0.4,1,0.5,1.6c2.8,10.1-9.6,18.2-28.7,18.2l-775.3,1.4
			c-19.2,0-31-7.9-27.5-18.1c0.2-0.5,0.4-1,0.7-1.6l94.8-192.6c0.1-0.2,0.2-0.4,0.3-0.7c5.7-10.6,22-19.1,36.8-19.1l582.1-1.2
			c14.8,0,30.4,8.4,35.3,19C1865.4,1004.4,1865.5,1004.6,1865.6,1004.8z"/>
	</g>
	<g>
		<path class="st4" d="M1865.3,1004.1c-4.9-10.6-20.5-19-35.3-19l-89.3,0.2l-403.3,0.9l-89.5,0.2c-14.8,0-31.1,8.5-36.8,19.1
			c-0.1,0.2-0.2,0.4-0.3,0.7l-26,52.8l-42.8,86.9l0,0l-26,52.8c-0.1,0.2-0.2,0.4-0.3,0.7c0,0,0,0,0,0c-0.1,0.3-0.2,0.6-0.3,0.9
			c0,0,0,0.1,0,0.1c0,0.1,0,0.1,0,0.1c-0.1,0.3-0.2,0.5-0.2,0.8c0,0.1,0,0.2-0.1,0.3c-0.1,0.2-0.1,0.5-0.1,0.7c0,0.1,0,0.2,0,0.3
			c0,0.2-0.1,0.4-0.1,0.6c0,0.1,0,0.2,0,0.4c0,0.2,0,0.4,0,0.5c0,0.1,0,0.3,0,0.4c0,0.2,0,0.3,0,0.5c0,0.1,0,0.3,0.1,0.4
			c0,0.2,0.1,0.3,0.1,0.5c0,0.1,0.1,0.3,0.1,0.4c0,0.1,0.1,0.3,0.1,0.4c0,0.1,0.1,0.3,0.1,0.4c0.1,0.1,0.1,0.3,0.2,0.4
			c0.1,0.1,0.1,0.3,0.2,0.4c0.1,0.1,0.1,0.3,0.2,0.4c0.1,0.1,0.2,0.3,0.2,0.4c0.1,0.1,0.2,0.3,0.2,0.4c0.1,0.1,0.2,0.3,0.3,0.4
			c0.1,0.1,0.2,0.2,0.3,0.4c0.1,0.1,0.2,0.3,0.3,0.4c0.1,0.1,0.2,0.2,0.3,0.3c0.1,0.1,0.2,0.3,0.4,0.4c0.1,0.1,0.2,0.2,0.3,0.3
			c0.1,0.1,0.3,0.2,0.4,0.4c0.1,0.1,0.2,0.2,0.4,0.3c0.1,0.1,0.3,0.2,0.4,0.3c0.1,0.1,0.3,0.2,0.4,0.3c0.2,0.1,0.3,0.2,0.5,0.3
			c0.1,0.1,0.3,0.2,0.4,0.3c0.2,0.1,0.3,0.2,0.5,0.3c0.2,0.1,0.3,0.2,0.5,0.3c0.2,0.1,0.4,0.2,0.5,0.3c0.2,0.1,0.3,0.2,0.5,0.3
			c0.2,0.1,0.4,0.2,0.6,0.3c0.2,0.1,0.4,0.2,0.6,0.3c0.2,0.1,0.4,0.2,0.6,0.3c0.2,0.1,0.4,0.2,0.6,0.2c0.2,0.1,0.4,0.2,0.6,0.2
			c0.2,0.1,0.4,0.1,0.6,0.2c0.2,0.1,0.4,0.2,0.7,0.2c0.2,0.1,0.4,0.1,0.7,0.2c0.2,0.1,0.4,0.1,0.7,0.2c0.2,0.1,0.5,0.1,0.7,0.2
			c0.2,0.1,0.5,0.1,0.7,0.2c0.2,0.1,0.5,0.1,0.7,0.2c0.2,0.1,0.5,0.1,0.7,0.2c0.3,0.1,0.5,0.1,0.8,0.2c0.2,0,0.5,0.1,0.7,0.1
			c0.3,0,0.6,0.1,0.8,0.1c0.2,0,0.5,0.1,0.7,0.1c0.3,0,0.6,0.1,0.9,0.1c0.2,0,0.5,0.1,0.7,0.1c0.3,0,0.6,0.1,0.9,0.1
			c0.2,0,0.5,0,0.7,0.1c0.3,0,0.7,0,1,0.1c0.2,0,0.5,0,0.7,0c0.4,0,0.8,0,1.2,0c0.2,0,0.4,0,0.6,0c0.6,0,1.2,0,1.8,0h0l0,0
			l119.1-0.2l537.2-0.9l119-0.2c0.6,0,1.2,0,1.8,0c0.2,0,0.4,0,0.6,0c0.4,0,0.8,0,1.2,0c0.2,0,0.5,0,0.7,0c0.3,0,0.7,0,1-0.1
			c0.2,0,0.5,0,0.7-0.1c0.3,0,0.6-0.1,0.9-0.1c0.2,0,0.5-0.1,0.7-0.1c0.3,0,0.6-0.1,0.9-0.1c0.2,0,0.5-0.1,0.7-0.1
			c0.3,0,0.6-0.1,0.9-0.1c0.2,0,0.5-0.1,0.7-0.1c0.3,0,0.5-0.1,0.8-0.2c0.2-0.1,0.5-0.1,0.7-0.2c0.3-0.1,0.5-0.1,0.8-0.2
			c0.2-0.1,0.5-0.1,0.7-0.2c0.2-0.1,0.5-0.1,0.7-0.2c0.2-0.1,0.4-0.1,0.7-0.2c0.2-0.1,0.5-0.1,0.7-0.2c0.2-0.1,0.4-0.1,0.6-0.2
			c0.2-0.1,0.4-0.2,0.7-0.2c0.2-0.1,0.4-0.2,0.6-0.2c0.2-0.1,0.4-0.2,0.6-0.2c0.2-0.1,0.4-0.2,0.6-0.3c0.2-0.1,0.4-0.2,0.6-0.3
			c0.2-0.1,0.4-0.2,0.6-0.3c0.2-0.1,0.4-0.2,0.6-0.3c0.2-0.1,0.4-0.2,0.5-0.3c0.2-0.1,0.3-0.2,0.5-0.3c0.2-0.1,0.3-0.2,0.5-0.3
			c0.2-0.1,0.3-0.2,0.5-0.3c0.2-0.1,0.3-0.2,0.5-0.3c0.2-0.1,0.3-0.2,0.4-0.3c0.2-0.1,0.3-0.2,0.4-0.3c0.1-0.1,0.3-0.2,0.4-0.3
			c0.1-0.1,0.3-0.2,0.4-0.4c0.1-0.1,0.3-0.2,0.4-0.4c0.1-0.1,0.3-0.2,0.4-0.4c0.1-0.1,0.2-0.2,0.3-0.4c0.1-0.1,0.2-0.2,0.3-0.4
			c0.1-0.1,0.2-0.3,0.3-0.4c0.1-0.1,0.2-0.3,0.3-0.4c0.1-0.1,0.2-0.3,0.3-0.4c0.1-0.1,0.2-0.3,0.3-0.4c0.1-0.1,0.2-0.3,0.2-0.4
			c0.1-0.1,0.1-0.3,0.2-0.4c0.1-0.1,0.1-0.3,0.2-0.4c0.1-0.1,0.1-0.3,0.2-0.4c0.1-0.2,0.1-0.3,0.2-0.5c0-0.1,0.1-0.3,0.1-0.4
			c0-0.2,0.1-0.3,0.1-0.5c0-0.1,0.1-0.3,0.1-0.4c0-0.2,0.1-0.3,0.1-0.5c0-0.1,0-0.2,0.1-0.4c0-0.2,0-0.4,0-0.6c0-0.1,0-0.2,0-0.3
			c0-0.2,0-0.4,0-0.6c0-0.1,0-0.2,0-0.3c0-0.2-0.1-0.5-0.1-0.7c0-0.1,0-0.2,0-0.2c0-0.3-0.1-0.5-0.2-0.8c0,0,0-0.1,0-0.1
			c0,0,0-0.1,0-0.1c-0.1-0.3-0.2-0.6-0.3-0.9c0,0,0,0,0,0c-0.1-0.2-0.2-0.4-0.3-0.7l0,0l-22.2-52.8l-36.4-86.8l-22.1-52.8
			C1865.5,1004.6,1865.4,1004.4,1865.3,1004.1z M1890.8,1149.3c-12.3,2.7-24.3,6.5-35.4,11.4c-23.5,10.1-40.1,23.3-48.9,37.4
			l-550.5,1c-7.9-14.1-23.5-27.2-46.3-37.2c-12.9-5.8-27.2-10.1-42-12.8l43-93.3c15.5-2.8,31.5-7.1,47.3-12.9
			c26.8-10.1,48.6-23.4,63.7-37.5l433.4-0.9c14,14.1,34.8,27.3,60.8,37.3c12.7,4.8,25.7,8.6,38.5,11.3L1890.8,1149.3z"/>
	</g>
	<g>
		<ellipse class="st4" cx="1529.6" cy="1097" rx="89.7" ry="57"/>
		<path class="st4" d="M1381,1096.2c0.1,11.9-16.7,21.8-37.6,22.1c-20.9,0.3-38-9.2-38.1-21.1c-0.1-11.9,16.7-21.8,37.6-22.1
			C1363.8,1074.9,1380.8,1084.3,1381,1096.2z"/>
		<path class="st4" d="M1343,1068.8c-27.9,0.3-50.4,13.5-50.2,29.4c0.2,15.9,23,28.5,50.9,28.2c27.9-0.3,50.4-13.5,50.2-29.4
			C1393.6,1081,1370.9,1068.4,1343,1068.8z M1343.6,1124c-25.6,0.3-46.4-11.3-46.6-25.8c-0.2-14.6,20.4-26.7,46-27
			c25.6-0.3,46.4,11.3,46.6,25.8C1389.8,1111.6,1369.2,1123.7,1343.6,1124z"/>
		
			<ellipse transform="matrix(0.9991 4.214627e-002 -4.214627e-002 0.9991 47.7482 -70.7844)" class="st4" cx="1702.6" cy="1097" rx="37.9" ry="21.6"/>
		<path class="st4" d="M1704,1069.1c-27.9-1.2-51,10.8-51.7,26.7c-0.7,15.9,21.4,29.7,49.3,30.9c27.9,1.2,51-10.8,51.7-26.7
			C1753.9,1084.1,1731.9,1070.3,1704,1069.1z M1701.7,1124.3c-25.6-1.1-45.8-13.8-45.2-28.3c0.6-14.6,21.8-25.5,47.4-24.4
			c25.6,1.1,45.8,13.8,45.2,28.3C1748.4,1114.4,1727.2,1125.4,1701.7,1124.3z"/>
	</g>
</g>
<path class="st11" d="M606.9,892.9v412c0,12.6-3.9,24.5-11.2,32.5c-5.2,5.7-12.6,8.9-21.5,8.9H112.8c-21.5,0-39.6-19.9-39.6-41.4
	v-412c0-8.9,3.4-16.8,8.4-23.5c7-9.6,18.6-15.4,31.3-15.4h461.4c2.4,0,4.6-0.3,6.7,0.1c15.5,3.1,24.1,17,25.5,34
	C606.4,889.8,606.9,891.2,606.9,892.9z"/>
<g>
	<path class="st4" d="M172.4,1346.3h-59.6c-21.5,0-39.6-19.9-39.6-41.4V1213L172.4,1346.3z"/>
	<path class="st17" d="M172.4,1346.3h-59.6c-21.5,0-39.6-19.9-39.6-41.4V1213L172.4,1346.3z"/>
</g>
<g>
	<polygon class="st4" points="342.3,1346.3 262.1,1346.3 73.2,1090.3 73.2,980.8 	"/>
	<polygon class="st17" points="342.3,1346.3 262.1,1346.3 73.2,1090.3 73.2,980.8 	"/>
</g>
<g>
	<path class="st4" d="M512.3,1346.3h-80.2L82,869.1c7-9.6,18.1-15,30.8-15h37.8L512.3,1346.3z"/>
	<path class="st17" d="M512.3,1346.3h-80.2L82,869.1c7-9.6,18.1-15,30.8-15h37.8L512.3,1346.3z"/>
</g>
<g>
	<path class="st4" d="M606.9,1243v61.9c0,12.6-3.9,25.4-11.2,33.4L240.4,854h80.2L606.9,1243z"/>
	<path class="st17" d="M606.9,1243v61.9c0,12.6-3.9,25.4-11.2,33.4L240.4,854h80.2L606.9,1243z"/>
</g>
<g>
	<polygon class="st4" points="606.9,1010.8 606.9,1120.3 410.4,854 490.6,854 	"/>
	<polygon class="st17" points="606.9,1010.8 606.9,1120.3 410.4,854 490.6,854 	"/>
</g>
<rect x="309.7" y="954.6" class="st14" width="72" height="392.5"/>
<rect x="309.7" y="954.6" class="st1" width="36" height="392.5"/>
<path class="st5" d="M643.5,835.6v78.2c0,17.3-11.1,32.1-26.6,37.7c-1.1,0.4-1.9,0.8-3.1,1.1c-2.3,0.6-6.9,1-6.9,1.2V971H73.2v-18.5
	c-17.1-4.5-29.2-20.2-29.2-38.7v-78.2c0-22.1,18.2-40,40.4-40h518.8C625.2,795.5,643.5,813.5,643.5,835.6z"/>
<path class="st4" d="M643.5,835.6v78.2c0,17.3-11.1,32.1-26.6,37.7c-1.1,0.4-2.3,0.8-3.5,1.1c-2.3,0.6-4.8,2.3-7.3,2.4
	c-1,0.1-2,1.4-3,1.4H84.3c-2.3,0-4.6-1.5-6.9-1.9c-1.1-0.2-2.2-1.1-3.3-1.3c0,0-0.2-0.3-0.3-0.3c-17.2-4.5-30-20.5-30-39v-78.2
	c0-22.1,18.2-40,40.4-40h518.8C625.2,795.5,643.5,813.5,643.5,835.6z"/>
<path class="st9" d="M322,774.8l-109-77.1c0,0-64.3-53.7-80.6,9.5c0,0-21.3,37.2-12.6,93.3h213.3C333.1,800.4,321.2,792.4,322,774.8
	z"/>
<polygon class="st1" points="187.8,683.8 253.6,607.1 321.6,763.3 325.4,784.5 305,772.8 "/>
<path class="st12" d="M376,774.8l109-77.1c0,0,64.3-53.7,80.6,9.5c0,0,21.3,37.2,12.6,93.3H364.8C364.8,800.4,376.8,792.4,376,774.8
	z"/>
<polygon class="st1" points="510.2,683.8 444.3,607.1 376.3,763.3 372.5,784.5 392.9,772.8 "/>
<path class="st1" d="M262.4,798.4h4.6c0-0.1,0-0.3,0-0.4c0-2.6-2.1-4.7-4.7-4.7h-5.5H255h-50.4c-3.1,0-5.6,2.5-5.6,5.5l-16.3,119.8
	c0,3.1,2.3,4.6,5.1,3.3l20.3-8.8c2.8-1.2,7.4-1.3,10.2-0.1l22.5,9c2.8,1.1,5.2-0.4,5.2-3.5L262.4,798.4z"/>
<path class="st1" d="M422,798.4h-4.6c0-0.1,0-0.3,0-0.4c0-2.6,2.1-4.7,4.7-4.7h5.6h1.8h50.4c3.1,0,5.5,2.5,5.5,5.5l20.4,85.8
	c0,3.1-2.3,4.6-5.1,3.3l-20.3-8.8c-2.8-1.2-7.4-1.3-10.2-0.1l-22.5,9c-2.8,1.1-5.2-0.4-5.2-3.5L422,798.4z"/>
<path class="st16" d="M381.7,793.7c0,5.9-4.6,10.7-10.4,10.7h-51.3c-5.7,0-10.4-4.8-10.4-10.7v-36c0-5.9,4.6-10.7,10.4-10.7h51.3
	c5.7,0,10.4,4.8,10.4,10.7V793.7z"/>
<g>
	<path class="st13" d="M1599.4,883.3c0,138.6-112.4,251-251,251c-138.6,0-251-112.4-251-251c0-138.6,112.4-251,251-251
		C1487,632.2,1599.4,744.6,1599.4,883.3z"/>
	<path class="st18" d="M1348.4,645.3c-131.4,0-238,106.6-238,238c0,131.4,106.6,238,238,238c131.4,0,238-106.6,238-238
		C1586.4,751.8,1479.8,645.3,1348.4,645.3z M1348.4,1112.6c-126.7,0-229.4-102.7-229.4-229.4c0-126.7,102.7-229.4,229.4-229.4
		c126.7,0,229.4,102.7,229.4,229.4C1577.8,1010,1475.1,1112.6,1348.4,1112.6z"/>
	<path class="st21" d="M1128.4,762.2c-19.8,35.9-31.1,77.2-31.1,121.1c0,138.6,112.4,251,251,251c64.9,0,124.1-24.6,168.7-65.1
		L1128.4,762.2z"/>
	<circle class="st0" cx="1348.4" cy="883.3" r="171.4"/>
	<path class="st18" d="M1516,883.3c0,89-72.2,161.2-161.2,161.2c-89,0-161.2-72.2-161.2-161.2c0-89,72.2-161.2,161.2-161.2
		C1443.8,722.1,1516,794.3,1516,883.3z"/>
	<path class="st0" d="M1341.2,976.6c-19.9-0.9-39.1-5.4-57.6-13.4v-45.3c10.6,5.4,22,9.9,34.4,13.4c12.4,3.6,23.2,5.4,32.6,5.4
		c7.7,0,13.4-0.9,17-2.8c3.6-1.9,5.4-5,5.4-9.3c0-3-1.3-5.5-3.9-7.6c-2.6-2.1-6.9-4.5-13-7.1c-6.1-2.6-14.2-5.8-24.5-9.6
		c-11.6-4.3-20.9-9.1-28-14.4c-7.1-5.3-12.3-11.3-15.5-17.9c-3.2-6.6-4.8-14.8-4.8-24.6c0-15,4.8-26.8,14.5-35.2
		c9.6-8.5,24.1-13.7,43.4-15.7v-30.3h28.3v30c18.1,1,36.4,5.5,54.7,13.4l-16.2,38.9c-19-8.6-36.2-12.8-51.5-12.8
		c-7.3,0-12.4,0.9-15.4,2.7c-3,1.8-4.4,4.4-4.4,7.8c0,3,1.1,5.5,3.2,7.4c2.1,2,5.8,4.1,11.1,6.6c5.3,2.4,12.6,5.2,22,8.4
		c19,6.7,32.7,14.4,40.9,23c8.3,8.6,12.4,19.7,12.4,33.2c0,15.3-4.8,27.7-14.5,37.3c-9.7,9.6-23.8,15.5-42.4,17.7v36.5h-28.3V976.6z
		"/>
</g>
<path class="st19" d="M1225.9,128.2v1112.4c0,58.7-51.2,105.7-113.4,105.7h-458c-62.3,0-113.4-47-113.4-105.7V128.2
	c0-13.2,2.8-26.5,7.5-38.1c16.1-40.2,57.6-69.5,105.9-69.5h458c38.5,0,72.8,18.9,93.1,46.6C1218.2,84.3,1225.9,105.8,1225.9,128.2z"
	/>
<path class="st22" d="M966.7,94.6c0,9-6.4,16.3-14.4,16.3H810.6c-7.9,0-14.4-7.3-14.4-16.3l0,0c0-9,6.4-16.3,14.4-16.3h141.7
	C960.2,78.3,966.7,85.6,966.7,94.6L966.7,94.6z"/>
<path class="st22" d="M1135.7,93.9c0,10.4-8.6,18.8-19.2,18.8c-10.6,0-19.2-8.4-19.2-18.8c0-10.4,8.6-18.7,19.2-18.7
	C1127.1,75.2,1135.7,83.5,1135.7,93.9z"/>
<path class="st22" d="M1059.3,93.5c0.2,5.6-4.4,10.4-10.2,10.5c-5.8,0.2-10.6-4.3-10.8-9.9c-0.2-5.7,4.4-10.4,10.2-10.5
	C1054.3,83.5,1059.1,87.9,1059.3,93.5z"/>
<path class="st22" d="M1029.8,93.2c0.2,5.6-4.4,10.4-10.2,10.5c-5.8,0.2-10.6-4.3-10.8-9.9c-0.2-5.7,4.4-10.4,10.2-10.5
	C1024.9,83.2,1029.7,87.6,1029.8,93.2z"/>
<rect x="570" y="154.2" class="st22" width="626.9" height="1041.9"/>
<path class="st22" d="M956.4,1297.4H810.5c-11.2,0-20.4-9.2-20.4-20.4v-19.5c0-11.2,9.2-20.4,20.4-20.4h145.9
	c11.2,0,20.4,9.2,20.4,20.4v19.5C976.8,1288.2,967.6,1297.4,956.4,1297.4z"/>
<path class="st16" d="M797.1,92.5c0,9,6.4,15.8,14.4,15.8h70.8V76.6h-70.8C803.5,76.6,797.1,83.5,797.1,92.5z"/>
<rect x="570.3" y="152.2" class="st16" width="311.9" height="1043.1"/>
<path class="st16" d="M789.7,1256v19.5c0,11.2,10.5,19.6,21.7,19.6h70.9v-58.5h-70.9C800.2,1236.7,789.7,1244.8,789.7,1256z"/>
<path class="st7" d="M811.4,1297.6c-11.2,0-21.7-8.5-21.7-19.7v-19.5c0-11.2,10.5-19.3,21.7-19.3h70.9v-41.4H570.3V154.6h311.9
	v-43.9h-70.8c-7.9,0-14.4-6.8-14.4-15.8c0-9,6.4-15.9,14.4-15.9h70.8V20.6h-227c-62.3,0-114.2,49.8-114.2,108.5v1112.4
	c0,58.7,52,104.8,114.2,104.8h227v-48.7H811.4z"/>
<g>
	<rect x="753.3" y="674.9" class="st11" width="245.2" height="124.9"/>
	<g>
		<g>
			<path class="st19" d="M1040.8,635.2c4.8,0,7.7,3.8,6.4,8.5l-50.4,180.2c-2.3,8.2-10.1,14-19,14h-207c-8.9,0-16.7-5.7-19-14
				l-50.4-180.2c-1.3-4.7,1.6-8.5,6.4-8.5H1040.8z M945.4,791c-0.8,4.8,2.6,8.7,7.4,8.7h8.4c4.8,0,9.7-3.9,10.7-8.6l20.9-94.3
				c1-4.7-2.1-8.6-6.9-8.6h-15.1c-4.8,0-9.4,3.9-10.2,8.7L945.4,791z M891.2,790.9c-0.2,4.8,3.6,8.8,8.5,8.8h8.4
				c4.8,0,9.2-3.9,9.7-8.8l9.2-93.9c0.5-4.8-3.1-8.8-7.9-8.8h-15.1c-4.8,0-9,4-9.1,8.8L891.2,790.9z M836.9,790.9
				c0.4,4.8,4.7,8.8,9.6,8.8h8.4c4.8,0,8.7-4,8.6-8.8l-2.3-93.9c-0.1-4.8-4.2-8.8-9-8.8H837c-4.8,0-8.5,3.9-8.1,8.8L836.9,790.9z
				 M782.7,791.1c1,4.7,5.8,8.6,10.6,8.6h8.4c4.8,0,8.2-3.9,7.5-8.7l-13.9-94c-0.7-4.8-5.3-8.7-10.1-8.7H770c-4.8,0-8,3.9-7,8.6
				L782.7,791.1z"/>
		</g>
	</g>
	<path class="st19" d="M747.6,649.4L747.6,649.4c-1.9-2.4-1.8-6.2,0.3-8.4l121.8-127.9c2.1-2.2,5.4-2.1,7.4,0.3l0,0
		c1.9,2.4,1.8,6.2-0.3,8.4L754.9,649.8C752.8,652,749.5,651.8,747.6,649.4z"/>
	<path class="st19" d="M1008.3,648.2L1008.3,648.2c2.3-1.9,2.9-5.6,1.2-8.3L908.2,478c-1.7-2.7-4.9-3.3-7.3-1.4l0,0
		c-2.3,1.9-2.9,5.6-1.2,8.3l101.3,162C1002.7,649.5,1006,650.1,1008.3,648.2z"/>
</g>
</svg>
