<?xml version="1.0" encoding="utf-8"?>
<!-- Generator: Adobe Illustrator 16.0.0, SVG Export Plug-In . SVG Version: 6.00 Build 0)  -->
<!DOCTYPE svg PUBLIC "-//W3C//DTD SVG 1.1//EN" "http://www.w3.org/Graphics/SVG/1.1/DTD/svg11.dtd">
<svg version="1.1" xmlns="http://www.w3.org/2000/svg" xmlns:xlink="http://www.w3.org/1999/xlink" x="0px" y="0px"
	 width="3589.4px" height="3325.3px" viewBox="0 0 3589.4 3325.3" style="enable-background:new 0 0 3589.4 3325.3;"
	 xml:space="preserve">
<style type="text/css">
<![CDATA[
	.st0{fill:#13B0BF;}
	.st1{fill:#E55957;}
	.st2{fill:#E68D87;}
	.st3{fill:#E7EDF7;}
	.st4{opacity:0.18;}
	.st5{opacity:0.26;}
	.st6{fill:#EBFAFD;}
	.st7{fill:#1F8BC3;}
	.st8{fill:#539B59;}
	.st9{fill:#5898A1;}
	.st10{opacity:6.000000e-002;fill:#FCFCFC;}
	.st11{fill:#BF4B4B;}
	.st12{fill:#263238;}
	.st13{fill:#26A3DB;}
	.st14{fill:#F6F4F4;}
	.st15{fill:#F8F8F8;}
	.st16{fill:#F96262;}
	.st17{fill:#2B2B2B;}
	.st18{fill:#FCFCFC;}
	.st19{opacity:0.12;fill:#020202;}
	.st20{fill:#FFFFFF;}
	.st21{fill:#63BC6F;}
	.st22{fill:#CC5050;}
	.st23{fill:#CED5E0;}
	.st24{opacity:0.2;fill:#070707;}
	.st25{fill:#020202;}
	.st26{fill:#D3C8C1;}
	.st27{fill:#D54638;}
	.st28{fill:#3B4F56;}
	.st29{fill:#3C7883;}
	.st30{fill:#454547;}
]]>
</style>
<g id="Layer_2_1_">
	<path class="st30" d="M1455.8,2895.3c-10.7-2.5-21.5-5.2-32.1-8l1.9-7.1c10.6,2.8,21.3,5.5,31.9,8L1455.8,2895.3z"/>
	<path class="st30" d="M1391.8,2878.4c-10.5-3.1-21.2-6.3-31.7-9.7l2.2-7c10.4,3.3,21,6.6,31.5,9.6L1391.8,2878.4z"/>
	<path class="st30" d="M2142.3,2869l-2.2-7c10.4-3.3,20.9-6.8,31.2-10.4l2.4,6.9C2163.4,2862.2,2152.8,2865.7,2142.3,2869z"/>
	<path class="st30" d="M1328.6,2858.3c-10.4-3.6-20.9-7.4-31.2-11.3l2.6-6.9c10.3,3.9,20.7,7.7,31,11.3L1328.6,2858.3z"/>
	<path class="st30" d="M2204.9,2847.3l-2.6-6.9c10.2-3.8,20.5-7.9,30.7-12l2.8,6.8C2225.5,2839.4,2215.2,2843.4,2204.9,2847.3z"/>
	<path class="st30" d="M2266.1,2822.4l-2.9-6.7c10-4.4,20-8.9,29.9-13.5l3.1,6.6C2286.3,2813.4,2276.1,2818,2266.1,2822.4z"/>
	<path class="st30" d="M978.8,2671.4c-8.8-6.6-17.6-13.4-26.2-20.3l4.6-5.7c8.6,6.8,17.4,13.6,26.1,20.2L978.8,2671.4z"/>
	<path class="st30" d="M926.9,2630.2c-8.4-7-16.9-14.3-25.1-21.6l4.9-5.5c8.2,7.2,16.6,14.5,25,21.5L926.9,2630.2z"/>
	<path class="st30" d="M2599.5,2610.3l-4.8-5.5c8.2-7.2,16.4-14.6,24.5-22l5,5.4C2616,2595.6,2607.7,2603,2599.5,2610.3z"/>
	<path class="st30" d="M877.3,2586.4c-8-7.5-16.1-15.1-24-22.8l5.1-5.2c7.8,7.6,15.8,15.3,23.8,22.7L877.3,2586.4z"/>
	<path class="st30" d="M2648.1,2565.3l-5.1-5.3c7.8-7.6,15.7-15.5,23.3-23.3l5.3,5.1C2663.8,2549.8,2656,2557.7,2648.1,2565.3z"/>
	<path class="st30" d="M829.9,2540.1c-7.6-7.9-15.3-15.9-22.8-24l5.4-5c7.4,8,15,16.1,22.6,23.9L829.9,2540.1z"/>
	<path class="st30" d="M526.4,2034.3c-3.3-10.5-6.6-21.1-9.6-31.7l7-2c3,10.5,6.3,21.1,9.6,31.5L526.4,2034.3z"/>
	<path class="st30" d="M2986.3,2003.3l-7-2c3.1-10.5,6-21.2,8.8-31.7l7.1,1.9C2992.3,1982.1,2989.3,1992.8,2986.3,2003.3z"/>
	<path class="st30" d="M507.9,1970.7c-2.8-10.6-5.5-21.4-8-32.1l7.1-1.7c2.5,10.6,5.2,21.4,7.9,32L507.9,1970.7z"/>
	<path class="st30" d="M3003.1,1939.3l-7.1-1.7c2.5-10.6,4.9-21.5,7.1-32.1l7.2,1.5C3008,1917.7,3005.6,1928.6,3003.1,1939.3z"/>
	<path class="st30" d="M492.8,1906.2c-2.2-10.7-4.3-21.7-6.3-32.5l7.2-1.3c1.9,10.8,4,21.6,6.3,32.3L492.8,1906.2z"/>
	<path class="st30" d="M3016.6,1874.5l-7.2-1.3c1.9-10.8,3.8-21.7,5.4-32.5l7.3,1.1C3020.4,1852.7,3018.5,1863.6,3016.6,1874.5z"/>
	<path class="st30" d="M481.1,1841c-1.7-10.8-3.2-21.9-4.6-32.8l7.3-0.9c1.4,10.8,2.9,21.8,4.6,32.6L481.1,1841z"/>
	<path class="st30" d="M3026.7,1809l-7.3-0.9c1.4-10.8,2.7-21.8,3.8-32.7l7.3,0.7C3029.3,1787.1,3028.1,1798.1,3026.7,1809z"/>
	<path class="st30" d="M3026.2,1546.8c-0.8-10.9-1.8-22-2.9-32.8l7.3-0.7c1.1,10.9,2.1,22,2.9,33L3026.2,1546.8z"/>
	<path class="st30" d="M3019.6,1481.3c-1.4-10.8-2.9-21.8-4.6-32.6l7.3-1.1c1.7,10.9,3.2,21.9,4.6,32.8L3019.6,1481.3z"/>
	<path class="st30" d="M488.6,1446.3l-7.3-1.1c1.7-10.9,3.5-21.9,5.5-32.7l7.2,1.3C492.1,1424.6,490.2,1435.5,488.6,1446.3z"/>
	<path class="st30" d="M3009.6,1416.2c-1.9-10.7-4-21.6-6.2-32.3l7.2-1.5c2.2,10.8,4.3,21.7,6.3,32.5L3009.6,1416.2z"/>
	<path class="st30" d="M500.3,1381.6l-7.2-1.5c2.2-10.8,4.7-21.6,7.2-32.3l7.1,1.7C505,1360,502.6,1370.9,500.3,1381.6z"/>
	<path class="st30" d="M2996.3,1351.8c-2.5-10.6-5.2-21.4-7.9-32l7.1-1.9c2.8,10.6,5.5,21.4,8,32.1L2996.3,1351.8z"/>
	<path class="st30" d="M2979.6,1288.1c-3-10.5-6.2-21.1-9.6-31.5l7-2.2c3.3,10.5,6.6,21.2,9.6,31.7L2979.6,1288.1z"/>
	<path class="st30" d="M2959.7,1225.3c-3.6-10.3-7.3-20.7-11.2-31l6.9-2.6c3.9,10.3,7.7,20.8,11.2,31.1L2959.7,1225.3z"/>
	<path class="st30" d="M555.6,1191.9l-6.9-2.6c3.9-10.3,8-20.7,12.2-30.9l6.8,2.8C563.5,1171.3,559.5,1181.6,555.6,1191.9z"/>
	<path class="st30" d="M580.6,1130.7l-6.7-2.9c4.4-10.1,9-20.3,13.7-30.2l6.6,3.1C589.6,1110.6,585,1120.7,580.6,1130.7z"/>
	<path class="st30" d="M2645.4,730.1c-7.8-7.6-15.8-15.3-23.8-22.7l5-5.4c8,7.5,16.1,15.2,24,22.9L2645.4,730.1z"/>
	<path class="st30" d="M884.7,704.5l-5-5.4c8.1-7.5,16.4-14.9,24.6-22.1l4.8,5.5C901,689.7,892.8,697.1,884.7,704.5z"/>
	<path class="st30" d="M2597.1,685.3c-8.2-7.2-16.6-14.5-25-21.5l4.7-5.6c8.4,7.1,16.9,14.3,25.1,21.6L2597.1,685.3z"/>
	<path class="st30" d="M934.2,661.2l-4.7-5.6c8.4-7,17.1-14,25.7-20.8l4.6,5.8C951.2,647.2,942.6,654.2,934.2,661.2z"/>
	<path class="st30" d="M2546.7,643c-8.5-6.8-17.3-13.6-26-20.2l4.4-5.9c8.8,6.6,17.6,13.5,26.2,20.3L2546.7,643z"/>
	<path class="st30" d="M985.8,620.4l-4.4-5.9c8.8-6.6,17.8-13.1,26.7-19.5l4.2,6C1003.5,607.3,994.6,613.8,985.8,620.4z"/>
	<path class="st30" d="M2494.1,603.3c-8.9-6.3-18-12.7-27.1-18.8l4.1-6.1c9.1,6.2,18.3,12.5,27.2,18.9L2494.1,603.3z"/>
	<path class="st30" d="M1039.4,582.3l-4.1-6.1c9.1-6.1,18.4-12.2,27.7-18.1l3.9,6.2C1057.8,570.2,1048.5,576.2,1039.4,582.3z"/>
	<path class="st30" d="M1094.9,547l-3.8-6.3c9.4-5.6,19-11.2,28.6-16.6l3.6,6.4C1113.8,535.9,1104.3,541.4,1094.9,547z"/>
	<path class="st30" d="M1949.6,380.9c-10.8-1.7-21.8-3.2-32.6-4.6l0.9-7.3c10.9,1.4,21.9,3,32.8,4.7L1949.6,380.9z"/>
	<path class="st30" d="M1884.3,372.5c-10.9-1.1-21.9-2.1-32.8-3l0.6-7.3c11,0.8,22.1,1.8,33,3L1884.3,372.5z"/>
	<path class="st30" d="M1654.1,369.3l-0.6-7.3c10.9-0.8,22.1-1.5,33-2.1l0.4,7.3C1676.1,367.8,1665,368.5,1654.1,369.3z"/>
	<path class="st30" d="M1818.6,367.4c-10.9-0.6-22-1-32.9-1.3l0.2-7.3c11,0.3,22.1,0.7,33.1,1.3L1818.6,367.4z"/>
	<path class="st30" d="M1719.9,366.1l-0.2-7.3c10.6-0.3,21.3-0.4,31.9-0.4h1.2l0,7.3l-1.2,0C1741.1,365.7,1730.4,365.8,1719.9,366.1
		z"/>
	<path class="st30" d="M1495.7,3045.7c-12-2.2-24.1-4.5-36-7l1.7-8c11.8,2.5,23.9,4.8,35.8,7L1495.7,3045.7z"/>
	<path class="st30" d="M1423.8,3030.7c-11.8-2.8-23.8-5.8-35.6-8.9l2.1-7.9c11.7,3.1,23.6,6.1,35.4,8.8L1423.8,3030.7z"/>
	<path class="st30" d="M2114.2,3022.1l-2.1-7.9c11.7-3.1,23.5-6.3,35.2-9.7l2.3,7.8C2137.8,3015.7,2125.9,3019,2114.2,3022.1z"/>
	<path class="st30" d="M1352.8,3012.1c-11.7-3.4-23.5-7-35.1-10.7l2.5-7.7c11.6,3.7,23.3,7.3,34.9,10.6L1352.8,3012.1z"/>
	<path class="st30" d="M2184.6,3001.6l-2.5-7.8c11.5-3.7,23.2-7.6,34.6-11.5l2.7,7.7C2207.9,2994,2196.2,2997.9,2184.6,3001.6z"/>
	<path class="st30" d="M2254,2977.5l-2.9-7.6c11.3-4.3,22.7-8.7,34-13.3l3.1,7.5C2276.8,2968.7,2265.3,2973.2,2254,2977.5z"/>
	<path class="st30" d="M837.7,2736.9c-9.3-7.8-18.7-15.9-27.8-23.9l5.4-6.1c9.1,8,18.4,16,27.7,23.8L837.7,2736.9z"/>
	<path class="st30" d="M782.6,2688.4c-8.9-8.3-17.9-16.8-26.6-25.3l5.7-5.8c8.7,8.5,17.6,16.9,26.4,25.2L782.6,2688.4z"/>
	<path class="st30" d="M2745.1,2665.1l-5.7-5.8c8.7-8.5,17.4-17.1,25.8-25.8l5.8,5.7C2762.6,2647.8,2753.8,2656.6,2745.1,2665.1z"/>
	<path class="st30" d="M730.1,2637.1c-8.5-8.7-17-17.7-25.2-26.6l6-5.5c8.2,8.9,16.7,17.8,25.1,26.5L730.1,2637.1z"/>
	<path class="st30" d="M2796.4,2612.6l-6-5.5c8.2-8.9,16.5-18,24.5-27.1l6.1,5.4C2812.9,2594.5,2804.6,2603.6,2796.4,2612.6z"/>
	<path class="st30" d="M3097.5,2112.3l-7.7-2.7c4-11.5,7.9-23.1,11.6-34.7l7.8,2.5C3105.5,2089,3101.5,2100.8,3097.5,2112.3z"/>
	<path class="st30" d="M393.8,2076.5c-3.7-11.6-7.3-23.4-10.7-35.1l7.8-2.3c3.4,11.6,6.9,23.4,10.6,34.9L393.8,2076.5z"/>
	<path class="st30" d="M3119.9,2042.2l-7.8-2.3c3.4-11.6,6.7-23.5,9.7-35.2l7.9,2.1C3126.6,2018.6,3123.3,2030.5,3119.9,2042.2z"/>
	<path class="st30" d="M373.3,2006c-3.1-11.8-6.1-23.8-8.8-35.6l7.9-1.9c2.8,11.8,5.7,23.7,8.8,35.4L373.3,2006z"/>
	<path class="st30" d="M3138.5,1971.3l-7.9-1.9c2.8-11.8,5.4-23.8,7.9-35.6l8,1.7C3144,1947.4,3141.3,1959.4,3138.5,1971.3z"/>
	<path class="st30" d="M356.6,1934.6c-2.5-11.9-4.8-24-7-36l8-1.4c2.2,11.9,4.5,24,6.9,35.8L356.6,1934.6z"/>
	<path class="st30" d="M3153.5,1899.4l-8-1.4c2.2-11.9,4.2-24,6-36l8,1.2C3157.7,1875.3,3155.6,1887.4,3153.5,1899.4z"/>
	<path class="st30" d="M343.5,1862.4c-1.8-12-3.6-24.2-5.1-36.3l8.1-1c1.5,12,3.2,24.2,5.1,36.1L343.5,1862.4z"/>
	<path class="st30" d="M3164.7,1826.9l-8.1-1c1.5-12,2.9-24.2,4.2-36.2l8.1,0.8C3167.6,1802.6,3166.2,1814.8,3164.7,1826.9z"/>
	<path class="st30" d="M3172.1,1753.9l-8.1-0.6c0.9-12,1.7-24.3,2.3-36.4l8.1,0.4C3173.8,1729.5,3173.1,1741.8,3172.1,1753.9z"/>
	<path class="st30" d="M351.9,1425l-8-1.2c1.9-12,3.9-24.2,6.1-36.2l8,1.5C355.8,1400.9,353.7,1413,351.9,1425z"/>
	<path class="st30" d="M364.9,1353.2l-8-1.7c2.5-11.9,5.2-24,8-35.8l7.9,1.9C370,1329.3,367.4,1341.3,364.9,1353.2z"/>
	<path class="st30" d="M3131,1320.1c-2.8-11.8-5.7-23.7-8.8-35.4l7.9-2.1c3.1,11.8,6,23.8,8.8,35.6L3131,1320.1z"/>
	<path class="st30" d="M381.6,1282.1l-7.9-2.1c3.1-11.8,6.4-23.7,9.8-35.4l7.8,2.3C388,1258.6,384.7,1270.4,381.6,1282.1z"/>
	<path class="st30" d="M3112.6,1249.5c-3.4-11.6-6.9-23.3-10.6-34.9l7.8-2.5c3.7,11.6,7.3,23.5,10.7,35.1L3112.6,1249.5z"/>
	<path class="st30" d="M402.1,1212.1l-7.7-2.5c3.7-11.6,7.6-23.4,11.7-34.9l7.7,2.7C409.7,1188.8,405.8,1200.5,402.1,1212.1z"/>
	<path class="st30" d="M3090.5,1180c-4-11.4-8.1-23-12.4-34.3l7.6-2.9c4.3,11.4,8.5,23,12.5,34.5L3090.5,1180z"/>
	<path class="st30" d="M426.2,1143l-7.6-2.9c4.3-11.4,8.9-23,13.5-34.3l7.5,3.1C435,1120.1,430.5,1131.6,426.2,1143z"/>
	<path class="st30" d="M2742.1,631.2c-8.7-8.5-17.5-16.9-26.4-25.2l5.5-6c8.9,8.3,17.9,16.8,26.6,25.3L2742.1,631.2z"/>
	<path class="st30" d="M790.9,602.9l-5.5-6c8.9-8.3,18.1-16.5,27.3-24.5l5.4,6.1C808.9,586.4,799.8,594.7,790.9,602.9z"/>
	<path class="st30" d="M2688.7,581.5c-9.1-8-18.4-16-27.7-23.8l5.2-6.2c9.3,7.8,18.7,15.9,27.8,23.9L2688.7,581.5z"/>
	<path class="st30" d="M845.7,554.8l-5.2-6.3c9.4-7.8,18.9-15.6,28.5-23.1l5,6.4C864.6,539.3,855.1,547,845.7,554.8z"/>
	<path class="st30" d="M2632.7,534.6c-9.5-7.5-19.2-15.1-28.9-22.4l4.9-6.5c9.7,7.3,19.5,14.9,29,22.5L2632.7,534.6z"/>
	<path class="st30" d="M902.9,509.6l-4.9-6.5c9.7-7.3,19.7-14.6,29.6-21.6l4.7,6.6C922.5,495.1,912.6,502.3,902.9,509.6z"/>
	<path class="st30" d="M962.4,467.4l-4.5-6.8c10.1-6.8,20.4-13.5,30.7-20l4.4,6.9C982.7,453.9,972.4,460.7,962.4,467.4z"/>
	<path class="st30" d="M1023.8,428.3l-4.2-7c10.4-6.3,21.1-12.5,31.6-18.4l4,7.1C1044.8,415.9,1034.2,422.1,1023.8,428.3z"/>
	<path class="st30" d="M1087.2,392.5l-3.8-7.2c10.7-5.7,21.7-11.3,32.5-16.8l3.6,7.3C1108.8,381.2,1097.9,386.8,1087.2,392.5z"/>
	<path class="st30" d="M1152.3,360l-3.4-7.4c11-5.1,22.2-10.2,33.3-15.1l3.3,7.5C1174.4,349.8,1163.3,354.9,1152.3,360z"/>
	<path class="st30" d="M1971,244.2c-12-1.9-24.1-3.6-36.1-5.1l1-8.1c12.1,1.6,24.3,3.3,36.3,5.2L1971,244.2z"/>
	<path class="st30" d="M1898.6,234.9c-12-1.2-24.3-2.3-36.3-3.3l0.6-8.1c12.1,0.9,24.4,2,36.5,3.3L1898.6,234.9z"/>
	<path class="st30" d="M1825.9,229.3c-12.1-0.6-24.3-1.1-36.5-1.4l0.2-8.1c12.2,0.3,24.5,0.8,36.7,1.4L1825.9,229.3z"/>
	<path class="st30" d="M1716.5,227.8l-0.2-8.1c11.7-0.3,23.6-0.4,35.4-0.4l1.3,0l0,8.1l-1.3,0
		C1739.9,227.3,1728.1,227.5,1716.5,227.8z"/>
</g>
<g id="Layer_3_1_">
	<path class="st5" d="M1973.4,2424.3h-657.3c-47.7,0-86.3-38.6-86.3-86.3V1070.6c0-47.7,38.6-86.3,86.3-86.3h657.3
		c47.7,0,86.3,38.6,86.3,86.3V2338C2059.8,2385.7,2021.1,2424.3,1973.4,2424.3z"/>
	<path class="st18" d="M1937.5,2394.2h-678.8c-49.8,0-90.1-40.3-90.1-90.1v-1336c0-49.8,40.3-90.1,90.1-90.1h678.8
		c49.8,0,90.1,40.3,90.1,90.1v1336C2027.6,2353.8,1987.3,2394.2,1937.5,2394.2z"/>
	<rect x="1193.3" y="1043.4" class="st30" width="810.1" height="1180.3"/>
	<path class="st30" d="M1711.8,975.9H1486c-7,0-12.7-5.7-12.7-12.7l0,0c0-7,5.7-12.7,12.7-12.7h225.8c7,0,12.7,5.7,12.7,12.7l0,0
		C1724.5,970.2,1718.8,975.9,1711.8,975.9z"/>
	<path class="st30" d="M1685.8,2341.8h-174.9c-9.8,0-17.7-7.9-17.7-17.7v-28.6c0-9.8,7.9-17.7,17.7-17.7h174.9
		c9.8,0,17.7,7.9,17.7,17.7v28.6C1703.5,2333.9,1695.6,2341.8,1685.8,2341.8z"/>
	<path class="st10" d="M2027.9,967.9v1336c0,49.8-40.6,90-90.4,90h-92.4L1537.1,878l400.3,0.1
		C1987.3,878.1,2027.9,918.1,2027.9,967.9z"/>
</g>
<g id="Layer_4">
	<path class="st19" d="M2586.2,1588.4c-0.4-10.5-4.5-13.7-13.2-15.7c-144.2-32.8-403.2-188.6-406.5-188.4l0,0l0-0.4
		c-3.3,0.1-6.6,1.9-10.7,4.6c-42.1,27.3-83.7,55.9-127.4,80.2c-87.8,49-180.1,86.5-278.1,107.6c-6.9,1.5-11.9,3.5-12.1,13.4
		c-2.2,80.5,2.5,159.8,19,238.6c7.3,34.9,16.6,69.4,27.6,101.4h0.6l-0.6,0.9c37.4,112.5,95.6,213.9,171.9,305.7
		c59.1,71,125.9,132.8,203.2,184.5l0-0.4c128.9-86.2,231.6-198,309-334.3c28.6-50.3,51.6-100.9,69.6-155.4h0.3
		C2575.4,1821.8,2590.6,1707.5,2586.2,1588.4z"/>
	<path class="st1" d="M2550.7,1607.7c-0.3-9.6-4.1-12.6-12.1-14.4c-132.1-30-369.4-172.7-372.4-172.6l0,0l0-0.4
		c-3.1,0.1-6.1,1.8-9.8,4.2c-38.6,25-76.7,51.2-116.7,73.5c-80.5,44.9-165,79.2-254.7,98.5c-6.4,1.4-10.9,3.2-11.1,12.3
		c-2,73.7,2.3,146.4,17.4,218.6c6.7,32,15.2,63.6,25.3,92.9h0.6l-0.6,0.8c34.3,103,87.5,196,157.5,280
		c54.1,65.1,115.4,121.6,186.1,169l0-0.4c118.1-78.9,212.2-181.4,283.1-306.3c26.2-46.1,47.3-92.5,63.7-142.4h0.3
		C2540.8,1821.5,2554.6,1716.8,2550.7,1607.7z"/>
	<g>
		<g>
			<g>
				<path class="st11" d="M2156.3,1424.5c-38.6,25-76.7,51.2-116.7,73.5c-80.5,44.9-165,79.2-254.7,98.5
					c-6.4,1.4-10.9,3.2-11.1,12.3c-2,73.7,2.3,146.4,17.4,218.6c6.7,32,15.2,63.6,25.3,92.9h0.6l-0.6,0.8
					c34.3,103,87.5,196,157.5,280c54.1,65.1,115.4,121.6,186.1,169l0-0.4c0.8-0.5,1.5-1,2.2-1.5v-947
					C2160.5,1421.9,2158.5,1423,2156.3,1424.5z"/>
			</g>
		</g>
	</g>
</g>
<g id="Layer_5">
	<g class="st4">
		<path class="st25" d="M1569.4,1831.7c-0.7-14.9,10.9-27.6,25.8-28.3l46.7-2.2c14.9-0.7,27.6,10.9,28.3,25.8l0.5,10.1
			c0.7,14.9-10.9,27.6-25.8,28.3l-46.7,2.2c-14.9,0.7-27.6-10.9-28.3-25.8L1569.4,1831.7 M1545.2,1832.8l0.5,10.1
			c1.3,28.2,25.3,50.2,53.6,48.9l46.7-2.2c28.2-1.3,50.2-25.3,48.9-53.6l-0.5-10.1c-1.3-28.2-25.3-50.2-53.6-48.9l-46.7,2.2
			C1565.9,1780.5,1543.9,1804.6,1545.2,1832.8L1545.2,1832.8z"/>
		<path class="st25" d="M1410.1,1803.4c2.5-14.7,16.6-24.7,31.3-22.2l46.1,7.9c14.7,2.5,24.7,16.6,22.2,31.2l-1.7,9.9
			c-2.5,14.7-16.6,24.7-31.2,22.2l-46.1-7.9c-14.7-2.5-24.7-16.6-22.2-31.2L1410.1,1803.4 M1386.2,1799.4l-1.7,9.9
			c-4.7,27.9,14.1,54.4,41.9,59.2l46.1,7.9c27.9,4.7,54.4-14.1,59.2-41.9l1.7-9.9c4.7-27.9-14.1-54.4-41.9-59.2l-46.1-7.9
			C1417.5,1752.7,1391,1771.5,1386.2,1799.4L1386.2,1799.4z"/>
		<path class="st25" d="M1244.9,1788.5c1.6-14.8,15.1-25.6,29.9-24l46.5,5.1c14.8,1.6,25.6,15,24,29.9l-1.1,10
			c-1.6,14.8-15,25.6-29.9,24l-46.5-5.1c-14.8-1.6-25.6-15-24-29.9L1244.9,1788.5 M1220.8,1785.9l-1.1,10
			c-3.1,28.1,17.3,53.5,45.4,56.5l46.5,5.1c28.1,3.1,53.5-17.3,56.5-45.4l1.1-10c3.1-28.1-17.3-53.5-45.4-56.5l-46.5-5.1
			C1249.3,1737.4,1223.9,1757.7,1220.8,1785.9L1220.8,1785.9z"/>
		<path class="st25" d="M1737.1,1838.4c0.1-14.9,12.4-27,27.3-26.9l46.8,0.3c14.9,0.1,27,12.4,26.9,27.3l-0.1,10.1
			c-0.1,14.9-12.4,27-27.3,26.9l-46.8-0.3c-14.9-0.1-27-12.4-26.9-27.3L1737.1,1838.4 M1712.9,1838.2l-0.1,10.1
			c-0.2,28.3,22.7,51.4,50.9,51.6l46.8,0.3c28.3,0.2,51.4-22.7,51.6-50.9l0.1-10.1c0.2-28.3-22.7-51.4-50.9-51.6l-46.8-0.3
			C1736.3,1787.1,1713.1,1810,1712.9,1838.2L1712.9,1838.2z"/>
		<path class="st25" d="M1902.2,1836.1c0.1-14.9,12.4-27,27.3-26.9l46.8,0.3c14.9,0.1,27,12.4,26.9,27.3l-0.1,10.1
			c-0.1,14.9-12.4,27-27.3,26.9l-46.8-0.3c-14.9-0.1-27-12.4-26.9-27.3L1902.2,1836.1 M1878,1835.9l-0.1,10.1
			c-0.2,28.3,22.7,51.4,50.9,51.6l46.8,0.3c28.3,0.2,51.4-22.7,51.6-50.9l0.1-10.1c0.2-28.3-22.7-51.4-50.9-51.6l-46.8-0.3
			C1901.4,1784.8,1878.2,1807.6,1878,1835.9L1878,1835.9z"/>
		<path class="st25" d="M2073.2,1831.1c-0.5-14.9,11.3-27.5,26.1-28l46.8-1.6c14.9-0.5,27.5,11.2,28,26.1l0.3,10.1
			c0.5,14.9-11.2,27.5-26.1,28l-46.8,1.6c-14.9,0.5-27.5-11.2-28-26.1L2073.2,1831.1 M2049,1831.9l0.3,10.1
			c1,28.3,24.8,50.5,53,49.5l46.8-1.6c28.3-1,50.5-24.8,49.5-53l-0.3-10.1c-1-28.3-24.8-50.5-53-49.5l-46.8,1.6
			C2070.2,1779.9,2048,1803.7,2049,1831.9L2049,1831.9z"/>
		<path class="st25" d="M2239.4,1815.3c-2.1-14.8,8.3-28.5,23.1-30.6l46.3-6.4c14.8-2.1,28.5,8.3,30.6,23.1l1.4,10
			c2.1,14.8-8.3,28.5-23.1,30.6l-46.3,6.4c-14.8,2.1-28.5-8.3-30.6-23.1L2239.4,1815.3 M2215.4,1818.7l1.4,10
			c3.9,28,29.8,47.6,57.9,43.7l46.3-6.4c28-3.9,47.6-29.8,43.7-57.9l-1.4-10c-3.9-28-29.8-47.6-57.9-43.7l-46.3,6.4
			C2231.1,1764.7,2211.5,1790.7,2215.4,1818.7L2215.4,1818.7z"/>
		<path class="st25" d="M2405.6,1783.2c-3-14.6,6.5-29,21.1-32l45.8-9.3c14.6-3,29,6.5,32,21.1l2,9.9c3,14.6-6.5,29-21.1,32
			l-45.8,9.3c-14.6,3-29-6.5-32-21.1L2405.6,1783.2 M2381.9,1788l2,9.9c5.6,27.7,32.8,45.7,60.5,40l45.9-9.3
			c27.7-5.6,45.7-32.8,40-60.5l-2-9.9c-5.6-27.7-32.8-45.7-60.5-40l-45.9,9.3C2394.2,1733.2,2376.3,1760.3,2381.9,1788L2381.9,1788z
			"/>
		<path class="st25" d="M1757.5,1848.4l-0.3,2.5c-0.8,7-7.2,12.2-14.2,11.4l-82.1-8.9c-7-0.8-12.2-7.2-11.4-14.2l0.3-2.5
			c0.8-7,7.2-12.2,14.2-11.4l82.1,8.9C1753.1,1835,1758.3,1841.3,1757.5,1848.4z"/>
		<path class="st25" d="M1596,1830.5l-0.3,2.5c-0.8,7-7.2,12.2-14.2,11.4l-82.1-8.9c-7-0.8-12.2-7.2-11.4-14.2l0.3-2.5
			c0.8-7,7.2-12.2,14.2-11.4l82.1,8.9C1591.6,1817.1,1596.8,1823.5,1596,1830.5z"/>
		<path class="st25" d="M1922.2,1837.8v2.5c0,7.1-5.8,12.9-12.9,12.9h-82.6c-7.1,0-12.9-5.8-12.9-12.9v-2.5
			c0-7.1,5.8-12.9,12.9-12.9h82.6C1916.4,1824.9,1922.2,1830.7,1922.2,1837.8z"/>
		<path class="st25" d="M2094.7,1833.8l0.2,2.5c0.5,7.1-4.8,13.3-11.9,13.8l-82.3,6.1c-7.1,0.5-13.3-4.8-13.8-11.9l-0.2-2.5
			c-0.5-7.1,4.8-13.3,11.9-13.8l82.3-6.1C2087.9,1821.4,2094.2,1826.8,2094.7,1833.8z"/>
		<path class="st25" d="M2261.8,1816.1l0.4,2.5c1,7-3.9,13.6-11,14.6l-81.7,11.6c-7,1-13.6-3.9-14.6-11l-0.4-2.5
			c-1-7,3.9-13.6,11-14.6l81.8-11.6C2254.3,1804.1,2260.9,1809.1,2261.8,1816.1z"/>
		<path class="st25" d="M2427,1781.8l0.7,2.4c1.8,6.8-2.3,13.9-9.1,15.8l-79.8,21.3c-6.8,1.8-13.9-2.3-15.8-9.1l-0.7-2.4
			c-1.8-6.8,2.3-13.9,9.1-15.8l79.8-21.3C2418,1770.9,2425.1,1775,2427,1781.8z"/>
		<path class="st25" d="M2586.1,1741.8l0.7,2.4c1.8,6.8-2.3,13.9-9.1,15.8l-79.8,21.3c-6.8,1.8-13.9-2.3-15.8-9.1l-0.7-2.4
			c-1.8-6.8,2.3-13.9,9.1-15.8l79.8-21.3C2577.1,1730.9,2584.2,1735,2586.1,1741.8z"/>
		<path class="st25" d="M1431.8,1812.6l-0.3,2.5c-0.8,7-7.2,12.2-14.2,11.4l-82.1-8.9c-7-0.8-12.2-7.2-11.4-14.2l0.3-2.5
			c0.8-7,7.2-12.2,14.2-11.4l82.1,8.9C1427.4,1799.2,1432.6,1805.6,1431.8,1812.6z"/>
		<path class="st25" d="M1270.3,1794l-0.3,2.5c-0.8,7-7.2,12.2-14.2,11.4l-82.1-8.9c-7-0.8-12.2-7.2-11.4-14.2l0.3-2.5
			c0.8-7,7.2-12.2,14.2-11.4l82.1,8.9C1266,1780.6,1271.1,1787,1270.3,1794z"/>
	</g>
	<path class="st30" d="M1803.2,1796.6c-15.2,25.9-23.6,56.2-23.6,86.9v68.5l34.1-12.5v-75.6c0-16.9,4.1-33.8,12.3-48.5
		c28.7-51.7,83.7-48.3,83.7-48.3v-31.5C1854.3,1734.8,1821.4,1765.6,1803.2,1796.6z"/>
	<path class="st17" d="M1803.2,1796.6c18.2-31,51.1-61.8,106.5-61.1v-21c-64-0.9-102.2,32.4-123.5,65.9c-3.3,5.2-6.3,10.6-9,16.2
		c-3.6,7.4-6.6,15-9.1,22.8c-1.2,3.9-2.3,7.9-3.3,11.8c-1.4,6-2.3,12-3.1,18.2c-1.1,8.2-1.4,16.4-1.4,24.7v85.6l19.2-7.5v-68.5
		C1779.6,1852.9,1788,1822.5,1803.2,1796.6z"/>
	<g>
		<g>
			<path class="st26" d="M1562.4,1818.4c-0.7-14.9,10.9-27.6,25.8-28.3l46.7-2.2c14.9-0.7,27.6,10.9,28.3,25.8l0.5,10.1
				c0.7,14.9-10.9,27.6-25.8,28.3l-46.7,2.2c-14.9,0.7-27.6-10.9-28.3-25.8L1562.4,1818.4 M1538.2,1819.5l0.5,10.1
				c1.3,28.2,25.3,50.2,53.6,48.9l46.7-2.2c28.2-1.3,50.2-25.3,48.9-53.6l-0.5-10.1c-1.3-28.2-25.3-50.2-53.6-48.9l-46.7,2.2
				C1558.8,1767.2,1536.9,1791.3,1538.2,1819.5L1538.2,1819.5z"/>
			<path class="st26" d="M1403,1790.1c2.5-14.7,16.6-24.7,31.2-22.2l46.1,7.9c14.7,2.5,24.7,16.6,22.2,31.2l-1.7,9.9
				c-2.5,14.7-16.6,24.7-31.2,22.2l-46.1-7.9c-14.7-2.5-24.7-16.6-22.2-31.2L1403,1790.1 M1379.2,1786.1l-1.7,9.9
				c-4.7,27.9,14.1,54.4,41.9,59.2l46.1,7.9c27.9,4.7,54.4-14.1,59.2-41.9l1.7-9.9c4.7-27.9-14.1-54.4-41.9-59.2l-46.1-7.9
				C1410.5,1739.4,1383.9,1758.2,1379.2,1786.1L1379.2,1786.1z"/>
			<path class="st26" d="M1237.8,1775.2c1.6-14.8,15-25.6,29.9-24l46.5,5.1c14.8,1.6,25.6,15,24,29.9l-1.1,10
				c-1.6,14.8-15,25.6-29.9,24l-46.5-5.1c-14.8-1.6-25.6-15.1-24-29.9L1237.8,1775.2 M1213.8,1772.6l-1.1,10
				c-3.1,28.1,17.3,53.5,45.4,56.5l46.5,5.1c28.1,3.1,53.5-17.3,56.5-45.4l1.1-10c3.1-28.1-17.3-53.5-45.4-56.5l-46.5-5.1
				C1242.2,1724.1,1216.8,1744.5,1213.8,1772.6L1213.8,1772.6z"/>
			<path class="st26" d="M1730.1,1825.1c0.1-14.9,12.4-27,27.3-26.9l46.8,0.3c14.9,0.1,27,12.4,26.9,27.3l-0.1,10.1
				c-0.1,14.9-12.4,27-27.3,26.9l-46.8-0.3c-14.9-0.1-27-12.4-26.9-27.3L1730.1,1825.1 M1705.9,1825l-0.1,10.1
				c-0.2,28.3,22.7,51.4,50.9,51.6l46.8,0.3c28.3,0.2,51.4-22.7,51.6-50.9l0.1-10.1c0.2-28.3-22.7-51.4-50.9-51.6l-46.8-0.3
				C1729.2,1773.8,1706.1,1796.7,1705.9,1825L1705.9,1825z"/>
			<path class="st26" d="M1895.1,1822.8c0.1-14.9,12.4-27,27.3-26.9l46.8,0.3c14.9,0.1,27,12.4,26.9,27.3l-0.1,10.1
				c-0.1,14.9-12.4,27-27.3,26.9l-46.8-0.3c-14.9-0.1-27-12.4-26.9-27.3L1895.1,1822.8 M1871,1822.6l-0.1,10.1
				c-0.2,28.3,22.7,51.4,50.9,51.6l46.8,0.3c28.3,0.2,51.4-22.7,51.6-50.9l0.1-10.1c0.2-28.3-22.7-51.4-50.9-51.6l-46.8-0.3
				C1894.3,1771.5,1871.1,1794.3,1871,1822.6L1871,1822.6z"/>
			<path class="st26" d="M2066.1,1817.8c-0.5-14.9,11.3-27.5,26.1-28l46.8-1.6c14.9-0.5,27.5,11.2,28,26.1l0.3,10.1
				c0.5,14.9-11.2,27.5-26.1,28l-46.8,1.6c-14.9,0.5-27.5-11.2-28-26.1L2066.1,1817.8 M2042,1818.7l0.3,10.1
				c1,28.3,24.8,50.5,53,49.5l46.8-1.6c28.3-1,50.5-24.8,49.5-53l-0.3-10.1c-1-28.3-24.8-50.5-53-49.5l-46.8,1.6
				C2063.2,1766.6,2041,1790.4,2042,1818.7L2042,1818.7z"/>
			<path class="st26" d="M2232.3,1802.1c-2.1-14.8,8.3-28.5,23.1-30.6l46.3-6.4c14.8-2.1,28.5,8.3,30.6,23.1l1.4,10
				c2.1,14.8-8.3,28.5-23.1,30.6l-46.3,6.4c-14.8,2.1-28.5-8.3-30.6-23.1L2232.3,1802.1 M2208.3,1805.4l1.4,10
				c3.9,28,29.8,47.6,57.9,43.7l46.3-6.4c28-3.9,47.6-29.8,43.7-57.9l-1.4-10c-3.9-28-29.8-47.6-57.9-43.7l-46.3,6.4
				C2224.1,1751.4,2204.4,1777.4,2208.3,1805.4L2208.3,1805.4z"/>
			<path class="st26" d="M2398.6,1769.9c-3-14.6,6.5-29,21.1-32l45.9-9.3c14.6-3,29,6.5,32,21.1l2,9.9c3,14.6-6.5,29-21.1,32
				l-45.8,9.3c-14.6,3-29-6.5-32-21.1L2398.6,1769.9 M2374.9,1774.8l2,9.9c5.6,27.7,32.8,45.7,60.5,40l45.9-9.3
				c27.7-5.6,45.7-32.8,40-60.5l-2-9.9c-5.6-27.7-32.8-45.7-60.5-40l-45.9,9.3C2387.2,1719.9,2369.2,1747.1,2374.9,1774.8
				L2374.9,1774.8z"/>
			<path class="st26" d="M1750.4,1835.1l-0.3,2.5c-0.8,7-7.2,12.2-14.2,11.4l-82.1-8.9c-7-0.8-12.2-7.2-11.4-14.2l0.3-2.5
				c0.8-7,7.2-12.2,14.2-11.4l82.1,8.9C1746.1,1821.7,1751.2,1828.1,1750.4,1835.1z"/>
			<path class="st26" d="M1588.9,1817.2l-0.3,2.5c-0.8,7-7.2,12.2-14.2,11.4l-82.1-8.9c-7-0.8-12.2-7.2-11.4-14.2l0.3-2.5
				c0.8-7,7.2-12.2,14.2-11.4l82.1,8.9C1584.6,1803.8,1589.7,1810.2,1588.9,1817.2z"/>
			<path class="st26" d="M1915.1,1824.5v2.5c0,7.1-5.8,12.9-12.9,12.9h-82.6c-7.1,0-12.9-5.8-12.9-12.9v-2.5
				c0-7.1,5.8-12.9,12.9-12.9h82.6C1909.3,1811.7,1915.1,1817.5,1915.1,1824.5z"/>
			<path class="st26" d="M2087.6,1820.6l0.2,2.5c0.5,7.1-4.8,13.3-11.9,13.8l-82.3,6.1c-7.1,0.5-13.3-4.8-13.8-11.9l-0.2-2.5
				c-0.5-7.1,4.8-13.3,11.9-13.8l82.3-6.1C2080.9,1808.1,2087.1,1813.5,2087.6,1820.6z"/>
			<path class="st26" d="M2254.8,1802.8l0.4,2.5c1,7-3.9,13.6-11,14.6l-81.7,11.6c-7,1-13.6-3.9-14.6-11l-0.4-2.5
				c-1-7,3.9-13.6,11-14.6l81.7-11.6C2247.2,1790.9,2253.8,1795.8,2254.8,1802.8z"/>
			<path class="st26" d="M2419.9,1768.6l0.7,2.4c1.8,6.8-2.3,13.9-9.1,15.8l-79.8,21.3c-6.8,1.8-13.9-2.3-15.8-9.1l-0.7-2.4
				c-1.8-6.8,2.3-13.9,9.1-15.8l79.8-21.3C2411,1757.6,2418.1,1761.7,2419.9,1768.6z"/>
			<path class="st26" d="M2579,1728.6l0.7,2.4c1.8,6.8-2.3,13.9-9.1,15.8l-79.8,21.3c-6.8,1.8-13.9-2.3-15.8-9.1l-0.7-2.4
				c-1.8-6.8,2.3-13.9,9.1-15.8l79.8-21.3C2570.1,1717.6,2577.2,1721.7,2579,1728.6z"/>
			<path class="st26" d="M1424.7,1799.4l-0.3,2.5c-0.8,7-7.2,12.2-14.2,11.4l-82.1-8.9c-7-0.8-12.2-7.2-11.4-14.2l0.3-2.5
				c0.8-7,7.2-12.2,14.2-11.4l82.1,8.9C1420.4,1785.9,1425.5,1792.3,1424.7,1799.4z"/>
			<path class="st26" d="M1263.3,1780.7l-0.3,2.5c-0.8,7-7.2,12.2-14.2,11.4l-82.1-8.9c-7-0.8-12.2-7.2-11.4-14.2l0.3-2.5
				c0.8-7,7.2-12.2,14.2-11.4l82.1,8.9C1258.9,1767.3,1264.1,1773.7,1263.3,1780.7z"/>
		</g>
	</g>
	<path class="st30" d="M2016.5,1796.6c-18.2-31.1-50.8-61.9-106.3-61.1c-0.1,0-0.5,0-0.5,0v31.5c0,0,55-3.3,83.7,48.3
		c8.2,14.8,12.3,31.6,12.3,48.5v75.6l34.1,12.5v-68.5C2039.9,1852.9,2031.7,1822.5,2016.5,1796.6z"/>
	<path class="st17" d="M2057.9,1849.3c-0.8-6.1-1.7-12.2-3.2-18.2c-1-4-1.9-7.9-3.2-11.8c-2.5-7.8-5.4-15.4-9-22.8
		c-2.7-5.5-5.8-10.9-9.1-16.2c-21.3-33.5-59.7-66.7-123.7-65.9v21c0,0,0.3,0,0.4,0c55.5-0.8,88.1,30.1,106.3,61.1
		c15.2,25.9,23.4,56.2,23.4,86.9v68.5l19.2,7.5V1874C2059.1,1865.7,2059,1857.5,2057.9,1849.3z"/>
	<path class="st13" d="M2032.7,2225.2h-242.1c-42.7,0-77.6-34.9-77.6-77.6V2012c0-42.7,34.9-77.6,77.6-77.6h242.1
		c42.7,0,77.6,34.9,77.6,77.6v135.6C2110.3,2190.3,2075.4,2225.2,2032.7,2225.2z"/>
	<path class="st7" d="M1911.6,2225h-120c-43.3,0-78.6-35.4-78.6-78.6V2013c0-43.3,35.4-78.6,78.6-78.6h120l0,0V2225z"/>
	<path class="st30" d="M1930.7,2081.9v63.3c0,13-10.4,23.6-23.4,23.6c-13,0-23.4-10.6-23.4-23.6v-63.3
		c-17.8-8.6-30.1-26.5-30.1-47.1c0-29.1,23.1-52.7,52.1-52.7c29.1,0,53.2,23.6,53.2,52.7C1959.2,2055.4,1946.3,2073.2,1930.7,2081.9
		z"/>
</g>
<g id="Layer_6">
	<rect x="1037" y="2787.4" class="st29" width="68.8" height="21.2"/>
	<polygon class="st29" points="1100,2738.6 1042.9,2738.6 1048.4,2792.7 1095.3,2792.4 	"/>
	<path class="st1" d="M605.3,1774.7H275.9l-48.5,43.3l3.5-43.3h-23.3c-10,0-18.2-8.1-18.2-18.2v-238.4c0-10,8.1-18.2,18.2-18.2
		h397.6c10,0,18.2,8.1,18.2,18.2v238.4C623.4,1766.6,615.3,1774.7,605.3,1774.7z"/>
	<path class="st23" d="M460.2,1855h267.3l39.4,34.7L764,1855h18.9c8.1,0,14.7-6.5,14.7-14.5v-190.6c0-8-6.6-14.5-14.7-14.5H460.2
		c-8.1,0-14.7,6.5-14.7,14.5v190.6C445.4,1848.5,452,1855,460.2,1855z"/>
	<g>
		<path class="st3" d="M445.2,1840.1c0,8,6.6,14.5,14.7,14.5h267.3l39.4,34.7l-2.9-34.7h18.9c8.1,0,14.7-6.5,14.7-14.5v-92.5H445.2
			V1840.1z"/>
	</g>
	<circle class="st0" cx="558.9" cy="1747.9" r="16.3"/>
	<circle class="st0" cx="622.2" cy="1747.9" r="16.3"/>
	<circle class="st0" cx="681.5" cy="1747.9" r="16.3"/>
	<polygon class="st21" points="396.9,751 625.6,543.3 854.3,749 852.3,1032.2 402.9,1032.2 	"/>
	<rect x="437.3" y="645" class="st20" width="379.7" height="369.2"/>
	<polygon class="st21" points="396.9,1074.2 854.3,1074.2 692.6,922.1 559.4,922.1 	"/>
	<polygon class="st8" points="397.2,1074.1 397.2,759.6 559.7,922.1 	"/>
	<polygon class="st8" points="854.5,1074.1 854.5,759.6 692.6,922.1 	"/>
	<circle class="st20" cx="1450.9" cy="265" r="211"/>
	<circle class="st21" cx="2900.8" cy="892.4" r="247.4"/>
	<path class="st12" d="M1559.7,255.7c-1.4,0.8-2.8,1.6-4.4,2c-1.7,0.5-2.2,3.2-0.8,4.5c2.4,2.2,3.7,5,4.3,8.2
		c1.1,5.8-1.2,10.4-5.4,14.1c-1.7,1.5-3.7,2.8-5.8,3.7c-2.2,1-2.7,4-0.9,5.5c4.2,3.6,5.4,8.7,3.2,14.1c-1.8,4.4-4.7,7.9-8.9,10.2
		c-0.6,0.3-1.2,0.5-1.8,0.7c-1.5,0.5-2.1,1.2-2.2,2.7c-0.1,1.2,0.2,2.1,1.2,2.9c2.3,2,3.9,4.4,4.3,7.5c0.3,2.4-0.2,4.6-1.2,6.7
		c-1.5,3.2-3.8,5.8-6.5,8.1c-1.3,1.1-4.6,2.7-7.1,3.8c-1.4,0.6-5.7,1.5-6.9,1.8c-62.3,12.7-106.1-3.7-111.6-5.8
		c-1.2-0.4-5.1-2.9-6.1-2.9c-0.2,0-1.5-0.3-1.5-0.5v-93.3c2.3-1.6,4.6-3.3,7-4.9c0.2-0.2,0.4-0.3,0.6-0.5c0.1-0.1,0.1-0.2,0.2-0.2
		c12.4-15.6,20.3-32.1,29.5-49.7c6.2-11.8,7.7-36.9,7.7-46.3c0-3.8,2.8-10,10.3-10c1.9,0,5.8,0.1,8.1,1c2.8,1,5.2,4.7,7.6,9.4
		c3.3,6.4,5.3,13.3,7.2,20.2c0.7,2.6,1.3,5.2,1.7,7.9c0.3,1.9,0.3,3.9,0.2,5.9c-0.2,2.2-0.3,4.5-0.5,6.7c-0.4,4.4-1.1,8.8-1.8,13.2
		c-0.8,4.7-1.7,9.4-2.7,14.1c0,0.1,0,0.1,0,0.2c0,0.3-0.1,0.7-0.2,1.2c-1.5,6,4.6,9.6,8.3,11.1c1,0.4,4.9,0.9,6,0.9
		c19.9,0,53.3-0.1,57.4-0.1c2.7,0,5.4-0.1,8.1,0.1c4.4,0.2,9.3,3.1,10.7,9C1568.5,245.2,1565.5,252.1,1559.7,255.7z"/>
	<path class="st28" d="M1404.5,338.4c0,4.8-3.9,8.7-8.7,8.7h-32c-4.8,0-8.7-3.9-8.7-8.7V231.7c0-4.8,3.9-8.7,8.7-8.7h32
		c4.8,0,8.7,3.9,8.7,8.7V338.4z"/>
	<path class="st6" d="M2884.4,848.4l-0.2-85.8h98.8v255.5h-184.4V848.4L2884.4,848.4z M2785.6,844.1v174.1v13h13h184.4h13v-13V762.6
		v-13h-13h-102.2L2785.6,844.1z"/>
	<rect x="2817.2" y="878" class="st6" width="142.6" height="11.4"/>
	<rect x="2817.2" y="923.2" class="st6" width="142.6" height="11.4"/>
	<rect x="2817.2" y="968.5" class="st6" width="142.6" height="11.4"/>
	<path class="st1" d="M3405.9,1590.9l-22.2-17.4c8-16.3,11.4-30.9,13.2-46.6l0.4-0.4l28.1-3.5c6.2-0.7,10.7-6.5,10-12.7l-5.8-48.7
		c-0.7-6.2-6.4-10.7-12.6-9.9l-29.7,1.9c-5.7-15.2-8.7-25.1-25.2-42.8l0.1-0.1l19.4-20.6c3.9-4.9,3.1-11.2-1.8-15.1l-38.1-29.9
		c-4.9-3.9-9.3-1.6-13.2,3.4l-17.3,22.3c-16.3-8-31.2-11.7-46.9-13.4l-0.5-0.5l-3.6-28.2c-0.7-6.2-6.5-10.8-12.7-10l-48.8,5.8
		c-6.2,0.7-10.7,6.4-9.9,12.6l2.1,29.6c-15.2,5.7-25,8.6-42.7,25.1l-0.1-0.1l-21.3-18.4c-4.9-3.9-9.5-3.7-13.4,1.2l-30.1,38.3
		c-3.9,4.9-3.8,10.5,1.1,14.3l22.2,17.4c-8,16.3-11.1,30.4-12.8,46.1l-0.2,0.1l-28,3.4c-6.2,0.7-10.7,6.4-9.9,12.6l5.8,48.7
		c0.7,6.2,6.4,10.7,12.6,9.9l29-2.6c5.7,15.2,12.7,28.3,24.5,42.2l-0.1,0.1L3110,1627c-3.9,4.9-5.3,10.9-0.4,14.8l38.5,30.3
		c4.9,3.9,12.7,2.9,16.6-2.1l16.1-23.3c16.3,8,29.6,10.4,44.4,11.4l-0.1,0.1l4.6,29.1c0.7,6.2,7,11.2,13.3,10.4l49-5.6
		c6.2-0.7,10.8-6.3,10.1-12.5l-2.4-29c15.2-5.7,24.6-8.1,42.4-24.5l0.1,0.1l21.4,18.4c4.9,3.9,12.7,4.7,16.5-0.2l30.1-38.3
		C3414.1,1601.2,3410.8,1594.7,3405.9,1590.9z M3183.1,1541.8c-0.3-0.7-0.7-1.3-1-2c-1-2.1-1.9-4.1-2.7-6.3
		c-0.4-1.1-0.8-2.1-1.1-3.2s-0.7-2.2-1-3.3c-0.1-0.5-0.3-1.1-0.4-1.6c-0.8-3.2-1.3-6.4-1.7-9.6c-0.3-3.2-0.4-6.5-0.3-9.8
		c0-1.3,0.1-2.6,0.3-3.9c0.4-3.9,1.1-7.8,2.1-11.7c2.4-9,6.6-17.6,12.7-25.3c12.8-16.3,31.3-25.4,50.5-26.8c1.7-0.1,3.4-0.2,5.1-0.2
		c0.6,0,1.1,0,1.7,0c1.1,0,2.3,0.1,3.4,0.2c3.4,0.2,6.8,0.7,10.1,1.5c1.1,0.2,2.2,0.5,3.3,0.8c8.8,2.4,17.4,6.6,25,12.6
		c9.1,7.2,16,16.1,20.5,25.9c0.5,1,0.9,2.1,1.4,3.1c0.6,1.6,1.2,3.2,1.7,4.8c0.3,1.1,0.7,2.2,1,3.3c0.1,0.5,0.3,1.1,0.4,1.6
		c0.3,1.1,0.5,2.2,0.7,3.3c0.3,1.7,0.6,3.3,0.8,5c0.1,1.1,0.2,2.2,0.3,3.4c0.2,2.8,0.2,5.6,0.1,8.5c-0.1,1.1-0.1,2.3-0.2,3.4
		c-0.1,1.1-0.2,2.3-0.4,3.4c-0.2,1.7-0.6,3.4-0.9,5c-2.2,10-6.7,19.7-13.4,28.4c-3.8,4.8-8,9-12.7,12.5c-0.9,0.7-1.9,1.4-2.8,2
		c-1.4,1-2.9,1.9-4.4,2.8c-1,0.6-2,1.1-3,1.7c-0.7,0.4-1.4,0.7-2,1c-1.4,0.7-2.8,1.3-4.2,1.8c-1.1,0.4-2.1,0.8-3.2,1.2
		c-0.9,0.3-1.7,0.6-2.6,0.8c-0.8,0.2-1.5,0.5-2.3,0.7c-0.5,0.1-1.1,0.3-1.6,0.4c-1.1,0.3-2.2,0.5-3.3,0.7c-0.6,0.1-1.1,0.2-1.7,0.3
		c-1.1,0.2-2.2,0.3-3.4,0.5c-0.6,0.1-1.1,0.1-1.7,0.2c-2.2,0.2-4.5,0.3-6.8,0.3c-0.6,0-1.1,0-1.7,0c-1.1,0-2.3-0.1-3.4-0.2
		c-1.1-0.1-2.3-0.2-3.4-0.3c-0.6-0.1-1.1-0.1-1.7-0.2c-1.1-0.2-2.2-0.4-3.4-0.6c-10.6-2.1-20.9-6.6-30-13.8
		c-7.3-5.8-13.2-12.7-17.6-20.3C3183.8,1543.3,3183.4,1542.6,3183.1,1541.8z"/>
	<path class="st29" d="M3248.8,1318.5c5.7,0,10.7,4.3,11.4,10.1l3.6,28.2l0.5,0.5c15.7,1.7,30.6,5.5,46.9,13.4l17.3-22.3
		c2.5-3.2,5.3-5.3,8.2-5.3c1.6,0,3.2,0.6,5,2l38.1,29.9c4.9,3.9,5.7,10.2,1.8,15.1l-19.4,20.6l-0.1,0.1
		c16.5,17.7,19.5,27.6,25.2,42.8l29.7-1.9c0.5-0.1,0.9-0.1,1.4-0.1c5.7,0,10.6,4.3,11.2,10l5.8,48.7c0.7,6.2-3.8,12-10,12.7
		l-28.1,3.5l-0.4,0.4c-1.7,15.7-5.2,30.2-13.2,46.6l22.2,17.4c4.9,3.9,8.3,10.4,4.4,15.3l-30.1,38.3c-1.9,2.4-4.6,3.4-7.5,3.4
		c-3.1,0-6.4-1.2-9-3.2l-21.4-18.4l-0.1-0.1c-17.8,16.4-27.2,18.9-42.4,24.5l2.4,29c0.7,6.2-3.9,11.7-10.1,12.5l-49,5.6
		c-0.4,0-0.8,0.1-1.3,0.1c-5.8,0-11.3-4.7-12-10.5l-4.6-29.1l0.1-0.1c-14.7-1-28.1-3.4-44.4-11.4l-16.1,23.3
		c-2.3,2.9-5.9,4.4-9.5,4.4c-2.5,0-5.1-0.8-7.1-2.4l-38.5-30.3c-4.9-3.9-3.5-9.9,0.4-14.8l17.4-22.1l0.1-0.1
		c-11.8-13.9-18.8-27-24.5-42.2l-29,2.6c-0.5,0.1-0.9,0.1-1.4,0.1c-5.7,0-10.6-4.2-11.2-10l-5.8-48.7c-0.7-6.2,3.7-11.9,9.9-12.6
		l28-3.4l0.2-0.1c1.7-15.7,4.8-29.8,12.8-46.1l-22.2-17.4c-4.9-3.9-5-9.4-1.1-14.3l30.1-38.3c2.1-2.7,4.4-3.9,6.8-3.9
		c2.1,0,4.3,0.9,6.5,2.7l21.3,18.4l0.1,0.1c17.7-16.5,27.5-19.4,42.7-25.1l-2.1-29.6c-0.7-6.2,3.7-11.8,9.9-12.6l48.8-5.8
		C3247.9,1318.5,3248.4,1318.5,3248.8,1318.5 M3245.5,1438.1C3245.5,1438.1,3245.5,1438.1,3245.5,1438.1c-1.7,0-3.4,0.1-5.1,0.2
		c-19.2,1.4-37.7,10.5-50.5,26.8c-6.1,7.8-10.3,16.4-12.7,25.3c-1,3.8-1.7,7.7-2.1,11.7c-0.1,1.3-0.2,2.6-0.3,3.9
		c-0.1,3.3,0,6.5,0.3,9.8c0.3,3.2,0.9,6.5,1.7,9.6c0.1,0.5,0.3,1.1,0.4,1.6c0.3,1.1,0.6,2.2,1,3.3c0.3,1.1,0.7,2.2,1.1,3.2
		c0.8,2.1,1.7,4.2,2.7,6.3c0.3,0.7,0.7,1.3,1,2c0.4,0.7,0.8,1.4,1.2,2.1c4.4,7.6,10.2,14.5,17.6,20.3c9.1,7.2,19.4,11.7,30,13.8
		c1.1,0.2,2.2,0.4,3.4,0.6c0.6,0.1,1.1,0.2,1.7,0.2c1.1,0.1,2.3,0.2,3.4,0.3s2.3,0.1,3.4,0.2c0.6,0,1.1,0,1.7,0c0,0,0,0,0,0
		c2.3,0,4.5-0.1,6.8-0.3c0.6-0.1,1.1-0.1,1.7-0.2c1.1-0.1,2.2-0.3,3.4-0.5c0.6-0.1,1.1-0.2,1.7-0.3c1.1-0.2,2.2-0.5,3.3-0.7
		c0.5-0.1,1.1-0.3,1.6-0.4c0.8-0.2,1.5-0.4,2.3-0.7c0.9-0.3,1.7-0.5,2.6-0.8c1.1-0.4,2.1-0.8,3.2-1.2c1.4-0.6,2.8-1.2,4.2-1.8
		c0.7-0.3,1.4-0.7,2-1c1-0.5,2-1.1,3-1.7c1.5-0.9,2.9-1.8,4.4-2.8c1-0.7,1.9-1.3,2.8-2c4.6-3.5,8.9-7.7,12.7-12.5
		c6.8-8.6,11.2-18.3,13.4-28.4c0.4-1.7,0.7-3.4,0.9-5c0.2-1.1,0.3-2.3,0.4-3.4c0.1-1.1,0.2-2.3,0.2-3.4c0.1-2.8,0.1-5.7-0.1-8.5
		c-0.1-1.1-0.2-2.3-0.3-3.4c-0.2-1.7-0.5-3.4-0.8-5c-0.2-1.1-0.5-2.2-0.7-3.3c-0.1-0.5-0.3-1.1-0.4-1.6c-0.3-1.1-0.6-2.2-1-3.3
		c-0.5-1.6-1.1-3.2-1.7-4.8c-0.4-1.1-0.9-2.1-1.4-3.1c-4.5-9.8-11.4-18.8-20.5-25.9c-7.7-6-16.2-10.2-25-12.6
		c-1.1-0.3-2.2-0.6-3.3-0.8c-3.3-0.7-6.7-1.2-10.1-1.5c-1.1-0.1-2.3-0.1-3.4-0.2C3246.6,1438.1,3246.1,1438.1,3245.5,1438.1
		C3245.5,1438.1,3245.5,1438.1,3245.5,1438.1 M3248.8,1308.3c-0.8,0-1.7,0.1-2.5,0.2l-48.7,5.8c-11.7,1.4-20.1,11.9-18.9,23.6
		l1.5,21.8c-10.4,3.9-19.6,8-32.1,18.5l-14.7-12.7l-0.2-0.2l-0.2-0.1c-4.1-3.2-8.4-4.9-12.8-4.9c-4,0-9.7,1.4-14.8,7.8l-30.1,38.3
		c-3.5,4.5-5.2,9.4-4.9,14.4c0.3,5.5,3.1,10.5,7.7,14.1l16,12.5c-5.3,12.7-7.9,24-9.3,34l-20.4,2.5c-11.8,1.4-20.2,12.1-18.8,23.9
		l5.8,48.7c1.3,10.8,10.5,18.9,21.3,18.9c0.8,0,1.6,0,2.4-0.1l21.3-1.9c5,11.8,10.7,21.8,18.2,31.5l-12.5,15.9
		c-8,10.2-7.5,22.1,1.3,29.1l38.5,30.3c3.7,2.9,8.5,4.5,13.4,4.5c6.8,0,13.4-3.1,17.5-8.3l0.2-0.2l0.2-0.3l11.3-16.3
		c12,4.9,22.5,7,32,8.1l3.4,21.1c1.4,10.8,11,19.2,22,19.2c0.8,0,1.7,0,2.5-0.1l48.9-5.6c5.7-0.7,10.8-3.5,14.4-7.9
		c3.6-4.5,5.3-10,4.7-15.7l-1.7-21.2c10.2-3.8,19.2-7.6,31.7-17.9l14.8,12.7l0.2,0.1l0.2,0.1c4.3,3.4,9.9,5.4,15.3,5.4
		c6.3,0,11.8-2.6,15.5-7.3l30.1-38.3c3.9-5,4.9-11.4,2.7-17.7c-1.6-4.4-4.7-8.6-8.8-11.8l-15.9-12.5c4.7-11,7.8-22.2,9.7-34.7
		l20.7-2.6c5.6-0.7,10.8-3.6,14.3-8.1c3.6-4.5,5.2-10.2,4.5-15.9l-5.8-48.7c-1.3-10.8-10.5-19-21.3-19c-0.7,0-1.5,0-2.3,0.1
		l-21.9,1.4c-3.9-10.3-8-19.6-18.3-31.9l13.1-13.9l0.3-0.3l0.3-0.4c3.6-4.5,5.1-10,4.5-15.4c-0.7-5.4-3.5-10.4-8-13.9l-38.1-29.9
		c-4.3-3.4-8.5-4.1-11.2-4.1c-6,0-11.4,3.1-16.2,9.2l-12.4,16c-11.3-4.8-22.7-8-35.2-10l-2.7-20.9
		C3269,1316.5,3259.8,1308.4,3248.8,1308.3L3248.8,1308.3C3248.8,1308.3,3248.8,1308.3,3248.8,1308.3L3248.8,1308.3z M3245.4,1569.2
		c-0.5,0-1,0-1.5,0c-1,0-1.9-0.1-2.9-0.1c-1-0.1-1.9-0.2-2.9-0.3c-0.5-0.1-1-0.1-1.4-0.2c-1-0.1-1.9-0.3-2.9-0.5
		c-9.4-1.8-18.1-5.8-25.7-11.8c-6.1-4.8-11.2-10.7-15-17.4c-0.3-0.6-0.7-1.2-1-1.8c-0.3-0.6-0.6-1.1-0.9-1.7
		c-0.9-1.7-1.6-3.5-2.3-5.4c-0.3-0.9-0.7-1.8-1-2.8c-0.3-0.9-0.6-1.9-0.8-2.8c-0.1-0.5-0.2-0.9-0.4-1.4c-0.7-2.7-1.1-5.5-1.4-8.3
		c-0.3-2.8-0.4-5.6-0.3-8.4c0-1.1,0.1-2.2,0.2-3.4c0.3-3.4,0.9-6.7,1.8-10c2.1-7.9,5.8-15.2,10.9-21.7
		c10.5-13.4,26.3-21.7,43.2-22.9c1.4-0.1,2.9-0.2,4.3-0.2c0.5,0,1,0,1.5,0c1,0,1.9,0.1,2.9,0.1c2.9,0.2,5.8,0.6,8.7,1.3
		c1,0.2,1.9,0.4,2.9,0.7c7.8,2.1,15,5.8,21.4,10.8c7.6,6,13.5,13.5,17.6,22.2c0.4,0.9,0.8,1.8,1.2,2.7c0.5,1.4,1,2.7,1.5,4.1
		c0.3,0.9,0.6,1.9,0.8,2.8c0.1,0.5,0.2,0.9,0.4,1.4c0.2,0.9,0.4,1.9,0.6,2.8c0.3,1.4,0.5,2.9,0.7,4.3c0.1,1,0.2,1.9,0.3,2.9
		c0.2,2.4,0.2,4.9,0.1,7.3c0,1-0.1,1.9-0.2,2.9c-0.1,1-0.2,1.9-0.4,2.9c-0.2,1.4-0.5,2.9-0.8,4.3c-2,8.9-5.8,17.1-11.5,24.3
		c-3.2,4-6.8,7.6-10.8,10.7c-0.8,0.6-1.6,1.2-2.4,1.8c-1.2,0.8-2.5,1.6-3.7,2.4c-0.8,0.5-1.7,1-2.6,1.4c-0.6,0.3-1.2,0.6-1.8,0.9
		c-1.2,0.6-2.4,1.1-3.6,1.6c-0.9,0.4-1.8,0.7-2.7,1c-0.7,0.2-1.4,0.5-2.2,0.7c-0.7,0.2-1.3,0.4-2,0.6c-0.5,0.1-0.9,0.2-1.4,0.4
		c-0.9,0.2-1.9,0.4-2.8,0.6c-0.5,0.1-0.9,0.2-1.4,0.3c-1,0.2-1.9,0.3-2.9,0.4c-0.5,0.1-1,0.1-1.4,0.2
		C3249.3,1569.1,3247.3,1569.2,3245.4,1569.2L3245.4,1569.2L3245.4,1569.2z"/>
	<path class="st12" d="M3063.6,1656.8l-12.5-5.4c1.7-8.6,1.5-15.8,0.4-23.3l0.1-0.2l12.6-5.1c2.8-1.1,4.2-4.3,3.1-7.1l-8.7-21.9
		c-1.1-2.8-4.3-4.2-7.1-3.1l-13.6,4.6c-4.5-6.3-7.2-10.6-17-16.8l0-0.1l6.5-12c1.2-2.8,0.1-5.6-2.7-6.8l-21.4-9.2
		c-2.8-1.2-4.5,0.4-5.7,3.2l-5.3,12.5c-8.6-1.7-16-1.6-23.5-0.4l-0.3-0.2l-5.2-12.7c-1.1-2.8-4.4-4.2-7.2-3.1l-22,8.7
		c-2.8,1.1-4.2,4.3-3.1,7.1l4.6,13.5c-6.3,4.5-10.6,7.1-16.7,17l-0.1,0l-12.2-5.9c-2.8-1.2-4.9-0.5-6.1,2.2l-9.2,21.5
		c-1.2,2.8-0.5,5.3,2.3,6.5l12.5,5.3c-1.7,8.6-1.4,15.5-0.2,23l-0.1,0.1l-12.6,5.1c-2.8,1.1-4.2,4.3-3.1,7.1l8.7,21.9
		c1.1,2.8,4.3,4.2,7.1,3.1l13.2-4.8c4.5,6.3,9.4,11.6,16.6,16.6l0,0.1l-5.4,12.5c-1.2,2.8-1.1,5.7,1.7,6.9l21.7,9.3
		c2.8,1.2,6.3-0.2,7.5-3l4.6-12.8c8.6,1.7,15.1,1.2,22.1-0.2l0,0l5.8,12.9c1.1,2.8,4.7,4.3,7.5,3.2l22.1-8.7
		c2.8-1.1,4.3-4.3,3.1-7.1l-4.7-13.2c6.4-4.5,10.4-6.8,16.7-16.7l0.1,0l12.2,5.9c2.8,1.2,6.5,0.6,7.7-2.1l9.3-21.6
		C3068.7,1660.6,3066.3,1658,3063.6,1656.8z M2953.9,1661.6c-0.2-0.3-0.5-0.5-0.7-0.8c-0.7-0.8-1.4-1.7-2-2.6
		c-0.3-0.4-0.6-0.9-0.9-1.4s-0.6-0.9-0.9-1.4c-0.1-0.2-0.3-0.5-0.4-0.7c-0.8-1.4-1.4-2.8-2-4.3c-0.6-1.5-1-3-1.4-4.5
		c-0.1-0.6-0.3-1.2-0.4-1.9c-0.3-1.9-0.5-3.8-0.5-5.7c0-4.5,0.9-9,2.8-13.4c3.9-9.2,11.4-15.7,20.2-18.7c0.8-0.3,1.6-0.5,2.3-0.7
		c0.3-0.1,0.5-0.1,0.8-0.2c0.5-0.1,1.1-0.2,1.6-0.3c1.6-0.3,3.2-0.5,4.9-0.6c0.5,0,1.1,0,1.7,0c4.4,0,8.9,0.9,13.2,2.8
		c5.1,2.2,9.4,5.5,12.7,9.5c0.3,0.4,0.7,0.9,1,1.3c0.5,0.7,1,1.3,1.4,2c0.3,0.5,0.6,0.9,0.9,1.4c0.1,0.2,0.3,0.5,0.4,0.7
		c0.3,0.5,0.5,1,0.7,1.5c0.4,0.7,0.7,1.5,1,2.2c0.2,0.5,0.4,1,0.6,1.5c0.4,1.3,0.8,2.6,1.1,3.9c0.1,0.5,0.2,1.1,0.3,1.6
		c0.1,0.5,0.2,1.1,0.2,1.6c0.1,0.8,0.2,1.6,0.2,2.5c0.2,4.9-0.7,10-2.7,14.9c-1.2,2.7-2.6,5.2-4.3,7.4c-0.3,0.4-0.7,0.9-1.1,1.3
		c-0.5,0.6-1.1,1.2-1.7,1.8c-0.4,0.4-0.8,0.8-1.2,1.1c-0.3,0.2-0.5,0.5-0.8,0.7c-0.6,0.5-1.1,0.9-1.7,1.4c-0.4,0.3-0.9,0.6-1.3,1
		c-0.4,0.2-0.7,0.5-1.1,0.7c-0.3,0.2-0.7,0.4-1,0.6c-0.2,0.1-0.5,0.3-0.7,0.4c-0.5,0.3-1,0.5-1.5,0.7c-0.2,0.1-0.5,0.2-0.7,0.3
		c-0.5,0.2-1,0.4-1.5,0.6c-0.3,0.1-0.5,0.2-0.8,0.3c-1,0.4-2.1,0.7-3.1,1c-0.3,0.1-0.5,0.1-0.8,0.2c-0.5,0.1-1.1,0.2-1.6,0.3
		c-0.5,0.1-1.1,0.2-1.6,0.3c-0.3,0-0.5,0.1-0.8,0.1c-0.5,0.1-1.1,0.1-1.6,0.2c-5.2,0.4-10.6-0.5-15.7-2.7c-4.1-1.8-7.7-4.3-10.7-7.3
		C2954.4,1662.2,2954.1,1661.9,2953.9,1661.6z"/>
	<path class="st12" d="M630.4,1297.6l-10.4-4.5c1.4-7.2,1.2-13.2,0.3-19.4l0.1-0.2l10.6-4.3c2.3-0.9,3.5-3.6,2.6-6l-7.3-18.3
		c-0.9-2.3-3.6-3.5-5.9-2.6l-11.3,3.8c-3.8-5.3-6-8.8-14.2-14l0,0l5.4-10c1-2.3,0-4.7-2.3-5.7l-17.9-7.7c-2.3-1-3.8,0.4-4.8,2.7
		l-4.4,10.4c-7.2-1.4-13.3-1.3-19.6-0.4l-0.3-0.2l-4.3-10.6c-0.9-2.3-3.6-3.5-6-2.6l-18.3,7.3c-2.3,0.9-3.5,3.6-2.6,5.9l3.9,11.3
		c-5.3,3.8-8.8,5.9-14,14.1l0,0l-10.2-4.9c-2.3-1-4.1-0.4-5.1,1.9l-7.7,18c-1,2.3-0.4,4.5,1.9,5.4l10.4,4.4
		c-1.4,7.2-1.1,13-0.2,19.2l-0.1,0.1l-10.5,4.2c-2.3,0.9-3.5,3.6-2.5,5.9l7.3,18.3c0.9,2.3,3.6,3.5,5.9,2.5l11-4
		c3.8,5.3,7.8,9.7,13.9,13.8l0,0l-4.5,10.4c-1,2.3-0.9,4.8,1.4,5.8l18.1,7.8c2.3,1,5.2-0.2,6.2-2.5l3.8-10.7
		c7.2,1.4,12.6,1,18.4-0.2l0,0l4.8,10.8c0.9,2.3,3.9,3.6,6.2,2.7l18.4-7.2c2.3-0.9,3.6-3.5,2.6-5.9l-3.9-11
		c5.3-3.8,8.7-5.7,13.9-13.9l0,0l10.2,4.9c2.3,1,5.4,0.5,6.4-1.8l7.7-18C634.7,1300.8,632.7,1298.6,630.4,1297.6z M538.9,1301.7
		c-0.2-0.2-0.4-0.4-0.6-0.7c-0.6-0.7-1.2-1.4-1.7-2.2c-0.3-0.4-0.5-0.7-0.8-1.1s-0.5-0.8-0.7-1.2c-0.1-0.2-0.2-0.4-0.3-0.6
		c-0.6-1.2-1.2-2.3-1.6-3.6c-0.5-1.2-0.8-2.5-1.1-3.8c-0.1-0.5-0.2-1-0.3-1.5c-0.3-1.6-0.4-3.1-0.4-4.7c0-3.7,0.7-7.5,2.3-11.2
		c3.3-7.6,9.5-13.1,16.8-15.6c0.6-0.2,1.3-0.4,2-0.6c0.2-0.1,0.4-0.1,0.7-0.2c0.4-0.1,0.9-0.2,1.3-0.3c1.3-0.3,2.7-0.4,4.1-0.5
		c0.5,0,0.9,0,1.4,0c3.7,0,7.4,0.8,11,2.3c4.3,1.8,7.9,4.6,10.6,7.9c0.3,0.4,0.6,0.7,0.8,1.1c0.4,0.5,0.8,1.1,1.2,1.7
		c0.2,0.4,0.5,0.8,0.7,1.2c0.1,0.2,0.2,0.4,0.3,0.6c0.2,0.4,0.4,0.8,0.6,1.2c0.3,0.6,0.6,1.2,0.8,1.9c0.2,0.4,0.3,0.8,0.5,1.3
		c0.4,1.1,0.7,2.2,0.9,3.3c0.1,0.4,0.2,0.9,0.3,1.3c0.1,0.5,0.1,0.9,0.2,1.4c0.1,0.7,0.1,1.4,0.2,2.1c0.2,4.1-0.5,8.4-2.3,12.4
		c-1,2.2-2.2,4.3-3.6,6.2c-0.3,0.4-0.6,0.7-0.9,1.1c-0.5,0.5-0.9,1-1.4,1.5c-0.3,0.3-0.7,0.6-1,1c-0.2,0.2-0.5,0.4-0.7,0.6
		c-0.5,0.4-0.9,0.8-1.4,1.1c-0.4,0.3-0.7,0.5-1.1,0.8c-0.3,0.2-0.6,0.4-0.9,0.6c-0.3,0.2-0.5,0.3-0.8,0.5c-0.2,0.1-0.4,0.2-0.6,0.3
		c-0.4,0.2-0.8,0.4-1.2,0.6c-0.2,0.1-0.4,0.2-0.6,0.3c-0.4,0.2-0.8,0.4-1.3,0.5c-0.2,0.1-0.4,0.2-0.6,0.2c-0.8,0.3-1.7,0.6-2.6,0.8
		c-0.2,0.1-0.4,0.1-0.7,0.2c-0.4,0.1-0.9,0.2-1.3,0.3c-0.4,0.1-0.9,0.2-1.3,0.2c-0.2,0-0.5,0.1-0.7,0.1c-0.5,0.1-0.9,0.1-1.4,0.1
		c-4.3,0.3-8.8-0.4-13.1-2.2c-3.4-1.5-6.4-3.6-8.9-6.1C539.3,1302.1,539.1,1301.9,538.9,1301.7z"/>
	<circle class="st14" cx="2879.9" cy="2294.4" r="243.3"/>
	<path class="st1" d="M2879.9,2548.6c-34.3,0-67.6-6.7-98.9-20c-30.3-12.8-57.5-31.1-80.8-54.5c-23.3-23.3-41.7-50.5-54.5-80.8
		c-13.3-31.3-20-64.6-20-98.9s6.7-67.6,20-98.9c12.8-30.3,31.1-57.5,54.5-80.8c23.3-23.3,50.5-41.7,80.8-54.5
		c31.3-13.3,64.6-20,98.9-20c34.3,0,67.6,6.7,98.9,20c30.3,12.8,57.5,31.1,80.8,54.5c23.3,23.3,41.7,50.5,54.5,80.8
		c13.3,31.3,20,64.6,20,98.9s-6.7,67.6-20,98.9c-12.8,30.3-31.1,57.5-54.5,80.8c-23.3,23.3-50.5,41.7-80.8,54.5
		C2947.5,2541.9,2914.2,2548.6,2879.9,2548.6z M2879.9,2062c-128.2,0-232.4,104.3-232.4,232.4c0,128.2,104.3,232.4,232.4,232.4
		c128.2,0,232.4-104.3,232.4-232.4C3112.4,2166.3,3008.1,2062,2879.9,2062z"/>
	<g>
		<g>
			<path class="st30" d="M2879.9,2107.2c-1.1,0-2-0.9-2-2v-35c0-1.1,0.9-2,2-2s2,0.9,2,2v35
				C2881.9,2106.3,2881,2107.2,2879.9,2107.2z"/>
			<g>
				<g>
					<path class="st30" d="M2899.1,2101.2C2899.1,2101.2,2899.1,2101.2,2899.1,2101.2c-0.4,0-0.6-0.3-0.6-0.6c0,0,0,0,0-0.1
						l1.7-17.5c0-0.3,0.3-0.5,0.6-0.5c0.3,0,0.5,0.3,0.5,0.6c0,0,0,0,0,0.1l-1.7,17.5C2899.7,2101,2899.4,2101.2,2899.1,2101.2z"/>
					<path class="st30" d="M2913.5,2103.2C2913.5,2103.2,2913.5,2103.2,2913.5,2103.2c-0.4-0.1-0.6-0.3-0.6-0.6c0,0,0-0.1,0-0.1
						l3-17.3c0.1-0.3,0.3-0.5,0.7-0.5c0.3,0,0.5,0.3,0.5,0.6c0,0,0,0.1,0,0.1l-1.5,8.7l0,0l-1.5,8.7
						C2914,2103,2913.8,2103.2,2913.5,2103.2z"/>
					<path class="st30" d="M2927.7,2106.3c0,0-0.1,0-0.1,0c-0.3-0.1-0.4-0.3-0.4-0.6c0,0,0-0.1,0-0.1l4.3-17.1
						c0.1-0.3,0.4-0.5,0.7-0.4c0.3,0.1,0.4,0.3,0.4,0.6c0,0,0,0.1,0,0.1l-2.1,8.5l0,0l-2.1,8.5
						C2928.2,2106.1,2928,2106.3,2927.7,2106.3z"/>
					<path class="st30" d="M2941.7,2110.3c-0.1,0-0.1,0-0.2,0c-0.2-0.1-0.4-0.3-0.4-0.5c0-0.1,0-0.1,0-0.2l5.6-16.7
						c0.1-0.3,0.4-0.5,0.7-0.4c0.2,0.1,0.4,0.3,0.4,0.5c0,0.1,0,0.1,0,0.2l-5.6,16.7C2942.1,2110.2,2941.9,2110.3,2941.7,2110.3z"/>
					<path class="st30" d="M2955.3,2115.5c-0.1,0-0.1,0-0.2,0c-0.2-0.1-0.4-0.3-0.4-0.5c0-0.1,0-0.1,0-0.2l3.4-8.1l0,0l3.4-8.1
						c0.1-0.3,0.5-0.4,0.7-0.3c0.2,0.1,0.4,0.3,0.4,0.5c0,0.1,0,0.1,0,0.2l-6.8,16.2C2955.7,2115.3,2955.5,2115.5,2955.3,2115.5z"/>
				</g>
				<g>
					<path class="st30" d="M2995.5,2138.3c-0.1,0-0.2,0-0.3-0.1c-0.2-0.1-0.2-0.3-0.2-0.5c0-0.1,0-0.2,0.1-0.3l10.4-14.2
						c0.2-0.3,0.5-0.3,0.8-0.1c0.2,0.1,0.2,0.3,0.2,0.5c0,0.1,0,0.2-0.1,0.3l-10.4,14.2C2995.8,2138.2,2995.7,2138.3,2995.5,2138.3z
						"/>
					<path class="st30" d="M3006.9,2147.3c-0.1,0-0.3,0-0.4-0.1c-0.1-0.1-0.2-0.3-0.2-0.4c0-0.1,0-0.3,0.1-0.4l5.7-6.7l0,0l5.7-6.7
						c0.2-0.2,0.6-0.3,0.8-0.1c0.1,0.1,0.2,0.3,0.2,0.4c0,0.1,0,0.3-0.1,0.4l-11.5,13.4C3007.2,2147.3,3007,2147.3,3006.9,2147.3z"
						/>
					<path class="st30" d="M3017.5,2157.2c-0.1,0-0.3-0.1-0.4-0.2c-0.1-0.1-0.2-0.3-0.2-0.4c0-0.1,0.1-0.3,0.2-0.4l12.4-12.5
						c0.2-0.2,0.6-0.2,0.8,0c0.1,0.1,0.2,0.3,0.2,0.4c0,0.1-0.1,0.3-0.2,0.4l-12.4,12.5C3017.8,2157.2,3017.7,2157.2,3017.5,2157.2z
						"/>
					<path class="st30" d="M3027.4,2167.9c-0.2,0-0.3-0.1-0.4-0.2c-0.1-0.1-0.1-0.2-0.1-0.4c0-0.2,0.1-0.3,0.2-0.4l6.7-5.8l0,0
						l6.7-5.8c0.2-0.2,0.6-0.2,0.8,0.1c0.1,0.1,0.1,0.2,0.1,0.4c0,0.2-0.1,0.3-0.2,0.4l-13.3,11.5
						C3027.7,2167.8,3027.5,2167.9,3027.4,2167.9z"/>
					
						<rect x="3043" y="2164.6" transform="matrix(0.596 0.803 -0.803 0.596 2974.6826 -1565.8618)" class="st30" width="1.1" height="17.6"/>
				</g>
				<g>
					<path class="st30" d="M3059.4,2219.4c-0.2,0-0.4-0.1-0.5-0.3c0-0.1,0-0.1,0-0.2c0-0.2,0.1-0.4,0.3-0.5l16.2-6.9l0.4,1.1
						l-16.2,6.9C3059.5,2219.4,3059.4,2219.4,3059.4,2219.4z"/>
					<path class="st30" d="M3064.5,2233c-0.2,0-0.5-0.2-0.5-0.4c0-0.1,0-0.1,0-0.2c0-0.2,0.2-0.5,0.4-0.5l16.7-5.6
						c0.3-0.1,0.6,0.1,0.7,0.4c0,0.1,0,0.1,0,0.2c0,0.2-0.2,0.5-0.4,0.5l-16.7,5.6C3064.6,2233,3064.6,2233,3064.5,2233z"/>
					<path class="st30" d="M3068.6,2246.9c-0.3,0-0.5-0.2-0.6-0.4c0,0,0-0.1,0-0.1c0-0.3,0.2-0.5,0.4-0.6l8.5-2.2l0,0l8.5-2.2
						c0.3-0.1,0.6,0.1,0.7,0.4c0,0,0,0.1,0,0.1c0,0.3-0.2,0.5-0.4,0.6l-17,4.4C3068.7,2246.9,3068.7,2246.9,3068.6,2246.9z"/>
					<path class="st30" d="M3071.7,2261.1c-0.3,0-0.5-0.2-0.6-0.5c0,0,0-0.1,0-0.1c0-0.3,0.2-0.5,0.5-0.6l17.3-3.1
						c0.3-0.1,0.6,0.2,0.7,0.5c0,0,0,0.1,0,0.1c0,0.3-0.2,0.5-0.5,0.6l-8.7,1.5l0,0l-8.7,1.5
						C3071.7,2261.1,3071.7,2261.1,3071.7,2261.1z"/>
					<path class="st30" d="M3073.7,2275.5c-0.3,0-0.5-0.2-0.6-0.5c0,0,0,0,0-0.1c0-0.3,0.2-0.5,0.5-0.6l17.5-1.8
						c0.3,0,0.6,0.2,0.6,0.5c0,0,0,0,0,0.1c0,0.3-0.2,0.5-0.5,0.6L3073.7,2275.5C3073.7,2275.5,3073.7,2275.5,3073.7,2275.5z"/>
				</g>
				<g>
					<path class="st30" d="M3090.2,2324.1C3090.2,2324.1,3090.2,2324.1,3090.2,2324.1l-17.5-2.4c-0.3,0-0.5-0.3-0.5-0.6
						c0,0,0-0.1,0-0.1c0-0.3,0.3-0.5,0.6-0.5l17.4,2.4c0.3,0,0.5,0.3,0.5,0.6c0,0,0,0.1,0,0.1
						C3090.8,2323.9,3090.5,2324.1,3090.2,2324.1z"/>
					<path class="st30" d="M3087.5,2339.7c0,0-0.1,0-0.1,0l-17.2-3.7c-0.3-0.1-0.5-0.3-0.5-0.6c0,0,0-0.1,0-0.1
						c0.1-0.3,0.4-0.5,0.7-0.4l17.2,3.7c0.3,0.1,0.5,0.3,0.5,0.6c0,0,0,0.1,0,0.1C3088,2339.5,3087.8,2339.7,3087.5,2339.7z"/>
					<path class="st30" d="M3083.6,2355.1c-0.1,0-0.1,0-0.2,0l-16.9-5c-0.2-0.1-0.4-0.3-0.4-0.5c0-0.1,0-0.1,0-0.2
						c0.1-0.3,0.4-0.5,0.7-0.4l16.9,5c0.2,0.1,0.4,0.3,0.4,0.5c0,0.1,0,0.1,0,0.2C3084.1,2354.9,3083.8,2355.1,3083.6,2355.1z"/>
					<path class="st30" d="M3078.5,2370.1c-0.1,0-0.1,0-0.2,0l-16.5-6.2c-0.2-0.1-0.4-0.3-0.4-0.5c0-0.1,0-0.1,0-0.2
						c0.1-0.3,0.4-0.4,0.7-0.3l16.5,6.2c0.2,0.1,0.4,0.3,0.4,0.5c0,0.1,0,0.1,0,0.2C3079,2370,3078.8,2370.1,3078.5,2370.1z"/>
					<path class="st30" d="M3072.4,2384.7c-0.1,0-0.2,0-0.2-0.1l-16-7.4c-0.2-0.1-0.3-0.3-0.3-0.5c0-0.1,0-0.2,0.1-0.2
						c0.1-0.3,0.5-0.4,0.8-0.3l16,7.4c0.2,0.1,0.3,0.3,0.3,0.5c0,0.1,0,0.2-0.1,0.2C3072.8,2384.6,3072.6,2384.7,3072.4,2384.7z"/>
				</g>
				<g>
					
						<rect x="3030.1" y="2420.9" transform="matrix(0.7822 0.6231 -0.6231 0.7822 2170.7705 -1365.9944)" class="st30" width="17.6" height="1.1"/>
					<path class="st30" d="M3035.5,2439.5c-0.1,0-0.3,0-0.4-0.2l-12.9-12c-0.1-0.1-0.2-0.3-0.2-0.4c0-0.1,0.1-0.3,0.2-0.4
						c0.2-0.2,0.6-0.2,0.8,0l12.9,12c0.1,0.1,0.2,0.3,0.2,0.4c0,0.1-0.1,0.3-0.2,0.4C3035.8,2439.5,3035.6,2439.5,3035.5,2439.5z"/>
					<path class="st30" d="M3024.3,2450.7c-0.2,0-0.3-0.1-0.4-0.2l-12-12.9c-0.1-0.1-0.2-0.3-0.2-0.4c0-0.2,0.1-0.3,0.2-0.4
						c0.2-0.2,0.6-0.2,0.8,0l12,12.9c0.1,0.1,0.2,0.3,0.2,0.4c0,0.2-0.1,0.3-0.2,0.4C3024.5,2450.7,3024.4,2450.7,3024.3,2450.7z"/>
					<path class="st30" d="M3012.2,2461.1c-0.2,0-0.3-0.1-0.4-0.2l-5.5-6.9l0,0l-5.5-6.9c-0.1-0.1-0.1-0.2-0.1-0.4
						c0-0.2,0.1-0.3,0.2-0.4c0.2-0.2,0.6-0.2,0.8,0.1l11,13.7c0.1,0.1,0.1,0.2,0.1,0.4c0,0.2-0.1,0.3-0.2,0.4
						C3012.5,2461,3012.4,2461.1,3012.2,2461.1z"/>
					<path class="st30" d="M2999.5,2470.5c-0.2,0-0.4-0.1-0.5-0.2l-9.9-14.5c-0.1-0.1-0.1-0.2-0.1-0.3c0-0.2,0.1-0.4,0.2-0.5
						c0.3-0.2,0.6-0.1,0.8,0.1l9.9,14.5c0.1,0.1,0.1,0.2,0.1,0.3c0,0.2-0.1,0.4-0.2,0.5C2999.7,2470.4,2999.6,2470.5,2999.5,2470.5z
						"/>
				</g>
				<g>
					<path class="st30" d="M2954.8,2493.7c-0.2,0-0.4-0.1-0.5-0.4l-6.2-16.5c0-0.1,0-0.1,0-0.2c0-0.2,0.1-0.4,0.4-0.5
						c0.3-0.1,0.6,0,0.7,0.3l6.2,16.5c0,0.1,0,0.1,0,0.2c0,0.2-0.1,0.4-0.4,0.5C2954.9,2493.7,2954.8,2493.7,2954.8,2493.7z"/>
					<path class="st30" d="M2939.7,2498.7c-0.2,0-0.5-0.2-0.5-0.4l-5-16.9c0-0.1,0-0.1,0-0.2c0-0.2,0.2-0.5,0.4-0.5
						c0.3-0.1,0.6,0.1,0.7,0.4l5,16.9c0,0.1,0,0.1,0,0.2c0,0.2-0.2,0.5-0.4,0.5C2939.8,2498.7,2939.8,2498.7,2939.7,2498.7z"/>
					<path class="st30" d="M2924.4,2502.6c-0.3,0-0.5-0.2-0.6-0.5l-1.9-8.6l0,0l0,0l0,0l-1.9-8.6c0,0,0-0.1,0-0.1
						c0-0.3,0.2-0.5,0.5-0.6c0.3-0.1,0.6,0.1,0.7,0.4l3.7,17.2c0,0,0,0.1,0,0.1c0,0.3-0.2,0.5-0.5,0.6
						C2924.5,2502.6,2924.4,2502.6,2924.4,2502.6z"/>
					<path class="st30" d="M2908.8,2505.4c-0.3,0-0.5-0.2-0.6-0.5l-1.2-8.7l0,0l-1.2-8.7c0,0,0-0.1,0-0.1c0-0.3,0.2-0.5,0.5-0.6
						c0.3,0,0.6,0.2,0.6,0.5l2.4,17.4c0,0,0,0.1,0,0.1C2909.3,2505.1,2909.1,2505.3,2908.8,2505.4
						C2908.8,2505.4,2908.8,2505.4,2908.8,2505.4z"/>
					<path class="st30" d="M2893,2506.9c-0.3,0-0.5-0.2-0.6-0.5l-1.1-17.6c0,0,0,0,0,0c0-0.3,0.2-0.5,0.5-0.6c0.3,0,0.6,0.2,0.6,0.5
						l1.1,17.6c0,0,0,0,0,0C2893.6,2506.7,2893.3,2506.9,2893,2506.9C2893,2506.9,2893,2506.9,2893,2506.9z"/>
				</g>
				<g>
					<path class="st30" d="M2851.1,2505.4C2851.1,2505.4,2851.1,2505.4,2851.1,2505.4c-0.4,0-0.6-0.3-0.6-0.6c0,0,0-0.1,0-0.1
						l2.4-17.4c0-0.3,0.3-0.5,0.6-0.5c0.3,0,0.5,0.3,0.5,0.6c0,0,0,0.1,0,0.1l-1.2,8.7l0,0l-1.2,8.7
						C2851.6,2505.2,2851.4,2505.4,2851.1,2505.4z"/>
					<path class="st30" d="M2835.5,2502.6c0,0-0.1,0-0.1,0c-0.3-0.1-0.5-0.3-0.5-0.6c0,0,0-0.1,0-0.1l3.7-17.2
						c0.1-0.3,0.4-0.5,0.7-0.4c0.3,0.1,0.5,0.3,0.5,0.6c0,0,0,0.1,0,0.1l-3.7,17.2C2836,2502.5,2835.8,2502.6,2835.5,2502.6z"/>
					<path class="st30" d="M2820.1,2498.8c-0.1,0-0.1,0-0.2,0c-0.3-0.1-0.4-0.3-0.4-0.5c0-0.1,0-0.1,0-0.2l4.9-16.9
						c0.1-0.3,0.4-0.5,0.7-0.4c0.2,0.1,0.4,0.3,0.4,0.5c0,0.1,0,0.1,0,0.2l-2.5,8.4l0,0l-2.5,8.4
						C2820.6,2498.6,2820.4,2498.8,2820.1,2498.8z"/>
					<path class="st30" d="M2805.6,2493.4l-1.1-0.4l3.1-8.2l0,0l3.1-8.2c0.1-0.3,0.4-0.4,0.7-0.3c0.2,0.1,0.4,0.3,0.4,0.5
						c0,0.1,0,0.1,0,0.2L2805.6,2493.4z"/>
					<path class="st30" d="M2790.5,2487.6c-0.1,0-0.2,0-0.2-0.1c-0.2-0.1-0.3-0.3-0.3-0.5c0-0.1,0-0.2,0.1-0.2l7.4-16
						c0.1-0.3,0.5-0.4,0.8-0.3c0.2,0.1,0.3,0.3,0.3,0.5c0,0.1,0,0.2-0.1,0.2l-7.4,16C2790.9,2487.5,2790.7,2487.6,2790.5,2487.6z"/>
				</g>
				<g>
					<path class="st30" d="M2749.8,2462.8c-0.1,0-0.2,0-0.3-0.1c-0.1-0.1-0.2-0.3-0.2-0.5c0-0.1,0-0.2,0.1-0.3l10.8-13.9l0.9,0.7
						l-10.8,13.9C2750.1,2462.7,2750,2462.8,2749.8,2462.8z"/>
					<path class="st30" d="M2737.7,2452.6c-0.1,0-0.3,0-0.4-0.1c-0.1-0.1-0.2-0.3-0.2-0.4c0-0.1,0-0.3,0.1-0.4l11.8-13.1
						c0.2-0.2,0.6-0.3,0.8,0c0.1,0.1,0.2,0.3,0.2,0.4c0,0.1,0,0.3-0.1,0.4l-11.8,13.1C2738,2452.6,2737.8,2452.6,2737.7,2452.6z"/>
					<path class="st30" d="M2726.3,2441.6c-0.2,0-0.3-0.1-0.4-0.2c-0.1-0.1-0.2-0.3-0.2-0.4c0-0.2,0.1-0.3,0.2-0.4l12.7-12.2
						l0.8,0.8l-6.4,6.1l0,0l-6.4,6.1C2726.6,2441.5,2726.4,2441.6,2726.3,2441.6z"/>
					<path class="st30" d="M2715.8,2429.7c-0.2,0-0.3-0.1-0.4-0.2c-0.1-0.1-0.1-0.2-0.1-0.4c0-0.2,0.1-0.3,0.2-0.4l13.6-11.2
						c0.2-0.2,0.6-0.2,0.8,0.1c0.1,0.1,0.1,0.2,0.1,0.4c0,0.2-0.1,0.3-0.2,0.4l-13.6,11.2
						C2716.1,2429.7,2715.9,2429.7,2715.8,2429.7z"/>
					<path class="st30" d="M2706.2,2417.1c-0.2,0-0.4-0.1-0.5-0.2c-0.1-0.1-0.1-0.2-0.1-0.3c0-0.2,0.1-0.4,0.2-0.5l7.2-5.1l0,0
						l7.2-5.1c0.3-0.2,0.6-0.1,0.8,0.1c0.1,0.1,0.1,0.2,0.1,0.3c0,0.2-0.1,0.4-0.2,0.5l-14.4,10.1
						C2706.4,2417.1,2706.3,2417.1,2706.2,2417.1z"/>
				</g>
				<g>
					<path class="st30" d="M2683.4,2375.3c-0.2,0-0.4-0.1-0.5-0.4c0-0.1,0-0.1,0-0.2c0-0.2,0.1-0.4,0.4-0.5l8.1-3.3l0,0l8.1-3.3
						c0.3-0.1,0.6,0,0.7,0.3c0,0.1,0,0.1,0,0.2c0,0.2-0.1,0.4-0.4,0.5l-16.3,6.7C2683.5,2375.3,2683.4,2375.3,2683.4,2375.3z"/>
					<path class="st30" d="M2677.9,2360.4c-0.2,0-0.5-0.2-0.5-0.4c0-0.1,0-0.1,0-0.2c0-0.2,0.2-0.5,0.4-0.5l8.4-2.7l0,0l8.4-2.7
						c0.3-0.1,0.6,0.1,0.7,0.4c0,0.1,0,0.1,0,0.2c0,0.2-0.2,0.5-0.4,0.5l-16.7,5.4C2678,2360.4,2678,2360.4,2677.9,2360.4z"/>
					<path class="st30" d="M2673.6,2345.2c-0.3,0-0.5-0.2-0.6-0.4c0,0,0-0.1,0-0.1c0-0.3,0.2-0.5,0.4-0.6l8.5-2.1v0l8.5-2.1
						c0.3-0.1,0.6,0.1,0.7,0.4c0,0,0,0.1,0,0.1c0,0.3-0.2,0.5-0.4,0.6l-17.1,4.2C2673.7,2345.2,2673.6,2345.2,2673.6,2345.2z"/>
					<path class="st30" d="M2670.4,2329.6c-0.3,0-0.5-0.2-0.6-0.5c0,0,0-0.1,0-0.1c0-0.3,0.2-0.5,0.5-0.6l17.4-2.9
						c0.3-0.1,0.6,0.2,0.7,0.5c0,0,0,0.1,0,0.1c0,0.3-0.2,0.5-0.5,0.6l-8.7,1.4l0,0L2670.4,2329.6
						C2670.5,2329.6,2670.5,2329.6,2670.4,2329.6z"/>
					<path class="st30" d="M2668.4,2313.9c-0.3,0-0.5-0.2-0.6-0.5c0,0,0,0,0-0.1c0-0.3,0.2-0.5,0.5-0.6l17.5-1.6
						c0.3,0,0.6,0.2,0.6,0.5c0,0,0,0,0,0.1c0,0.3-0.2,0.5-0.5,0.6L2668.4,2313.9C2668.5,2313.9,2668.5,2313.9,2668.4,2313.9z"/>
				</g>
				<g>
					<path class="st30" d="M2687,2268.7C2687,2268.7,2686.9,2268.6,2687,2268.7l-17.5-2.4c-0.3,0-0.5-0.3-0.5-0.6c0,0,0-0.1,0-0.1
						c0-0.3,0.3-0.5,0.6-0.5l17.4,2.4c0.3,0,0.5,0.3,0.5,0.6c0,0,0,0.1,0,0.1C2687.5,2268.4,2687.3,2268.7,2687,2268.7z"/>
					<path class="st30" d="M2689.4,2254.3l-8.6-1.8l0,0l-8.6-1.8c-0.3-0.1-0.5-0.3-0.5-0.6c0,0,0-0.1,0-0.1c0.1-0.3,0.4-0.5,0.7-0.4
						l17.2,3.7L2689.4,2254.3z"/>
					<path class="st30" d="M2692.9,2240.2l-8.4-2.5l0,0l-8.4-2.5c-0.3-0.1-0.4-0.3-0.4-0.5c0-0.1,0-0.1,0-0.2
						c0.1-0.3,0.4-0.5,0.7-0.4l16.9,4.9L2692.9,2240.2z"/>
					<path class="st30" d="M2697.7,2226.5c-0.1,0-0.1,0-0.2,0l-16.5-6.2c-0.2-0.1-0.4-0.3-0.4-0.5c0-0.1,0-0.1,0-0.2
						c0.1-0.3,0.4-0.4,0.7-0.3l8.2,3.1l0,0l8.2,3.1c0.2,0.1,0.4,0.3,0.4,0.5c0,0.1,0,0.1,0,0.2
						C2698.1,2226.3,2697.9,2226.5,2697.7,2226.5z"/>
					<path class="st30" d="M2703.3,2213.1c-0.1,0-0.2,0-0.2-0.1l-8-3.7l0,0l-8-3.7l0.5-1l16,7.4c0.2,0.1,0.3,0.3,0.3,0.5
						c0,0.1,0,0.2-0.1,0.2C2703.7,2212.9,2703.5,2213.1,2703.3,2213.1z"/>
				</g>
				<g>
					<path class="st30" d="M2726,2175.7c-0.1,0-0.2,0-0.3-0.1l-13.9-10.8c-0.1-0.1-0.2-0.3-0.2-0.5c0-0.1,0-0.2,0.1-0.3
						c0.2-0.2,0.6-0.3,0.8-0.1l13.9,10.8c0.1,0.1,0.2,0.3,0.2,0.5c0,0.1,0,0.2-0.1,0.3C2726.3,2175.7,2726.2,2175.7,2726,2175.7z"/>
					<path class="st30" d="M2735.3,2164.6c-0.1,0-0.3,0-0.4-0.1l-13.1-11.8c-0.1-0.1-0.2-0.3-0.2-0.4c0-0.1,0-0.3,0.1-0.4
						c0.2-0.2,0.6-0.3,0.8,0l6.5,5.9h0l6.5,5.9c0.1,0.1,0.2,0.3,0.2,0.4c0,0.1,0,0.3-0.1,0.4
						C2735.6,2164.5,2735.5,2164.6,2735.3,2164.6z"/>
					<path class="st30" d="M2745.5,2154.2c-0.1,0-0.3-0.1-0.4-0.2l-6.1-6.4l0,0l-6.1-6.4c-0.1-0.1-0.2-0.3-0.2-0.4
						c0-0.2,0.1-0.3,0.2-0.4c0.2-0.2,0.6-0.2,0.8,0l12.2,12.7c0.1,0.1,0.2,0.3,0.2,0.4c0,0.2-0.1,0.3-0.2,0.4
						C2745.7,2154.1,2745.6,2154.2,2745.5,2154.2z"/>
					<path class="st30" d="M2756.3,2144.5c-0.2,0-0.3-0.1-0.4-0.2l-11.2-13.6c-0.1-0.1-0.1-0.2-0.1-0.4c0-0.2,0.1-0.3,0.2-0.4
						c0.2-0.2,0.6-0.2,0.8,0.1l11.2,13.6c0.1,0.1,0.1,0.2,0.1,0.4c0,0.2-0.1,0.3-0.2,0.4C2756.6,2144.5,2756.5,2144.5,2756.3,2144.5
						z"/>
					<path class="st30" d="M2767.9,2135.7c-0.2,0-0.4-0.1-0.5-0.2l-5.1-7.2l0,0l-5.1-7.2c-0.1-0.1-0.1-0.2-0.1-0.3
						c0-0.2,0.1-0.4,0.2-0.5c0.3-0.2,0.6-0.1,0.8,0.1l10.1,14.4c0.1,0.1,0.1,0.2,0.1,0.3c0,0.2-0.1,0.4-0.2,0.5
						C2768.1,2135.7,2768,2135.7,2767.9,2135.7z"/>
				</g>
				<g>
					<path class="st30" d="M2806.2,2114.8c-0.2,0-0.4-0.1-0.5-0.4l-6.7-16.3c0-0.1,0-0.1,0-0.2c0-0.2,0.1-0.4,0.4-0.5
						c0.3-0.1,0.6,0,0.7,0.3l3.3,8.1l0,0l3.3,8.1c0,0.1,0,0.1,0,0.2c0,0.2-0.1,0.4-0.4,0.5
						C2806.4,2114.8,2806.3,2114.8,2806.2,2114.8z"/>
					<path class="st30" d="M2819.9,2109.8c-0.2,0-0.5-0.2-0.5-0.4l-5.5-16.7c0-0.1,0-0.1,0-0.2c0-0.2,0.2-0.5,0.4-0.5
						c0.3-0.1,0.6,0.1,0.7,0.4l2.7,8.4l0,0l2.7,8.4c0,0.1,0,0.1,0,0.2c0,0.2-0.2,0.5-0.4,0.5
						C2820,2109.8,2819.9,2109.8,2819.9,2109.8z"/>
					
						<rect x="2823" y="2096.1" transform="matrix(0.238 0.9713 -0.9713 0.238 4194.2935 -1152.6997)" class="st30" width="17.6" height="1.1"/>
					<path class="st30" d="M2848.1,2102.9c-0.3,0-0.5-0.2-0.6-0.5l-1.5-8.7l0,0l-1.5-8.7c0,0,0-0.1,0-0.1c0-0.3,0.2-0.5,0.5-0.6
						c0.3,0,0.6,0.2,0.7,0.5l2.9,17.4c0,0,0,0.1,0,0.1C2848.7,2102.6,2848.5,2102.9,2848.1,2102.9
						C2848.2,2102.9,2848.1,2102.9,2848.1,2102.9z"/>
					<path class="st30" d="M2862.5,2101.1c-0.3,0-0.5-0.2-0.6-0.5l-0.8-8.8l0,0l-0.8-8.8c0,0,0,0,0-0.1c0-0.3,0.2-0.5,0.5-0.6
						c0.3,0,0.6,0.2,0.6,0.5l0.8,8.8v0l0.8,8.8c0,0,0,0,0,0.1C2863.1,2100.8,2862.9,2101,2862.5,2101.1
						C2862.5,2101.1,2862.5,2101.1,2862.5,2101.1z"/>
				</g>
			</g>
			<path class="st30" d="M2974.9,2132.8c-0.3,0-0.7-0.1-1-0.3c-0.6-0.4-1-1-1-1.7c0-0.3,0.1-0.7,0.3-1l8.8-15.2l0,0l8.8-15.2
				c0.6-1,1.8-1.3,2.8-0.7c0.6,0.4,1,1,1,1.7c0,0.3-0.1,0.7-0.3,1l-17.6,30.3C2976.3,2132.5,2975.6,2132.8,2974.9,2132.8z"/>
			
				<rect x="3057.4" y="2174.4" transform="matrix(0.496 0.8683 -0.8683 0.496 3445.3325 -1551.8516)" class="st30" width="4" height="35"/>
			<path class="st30" d="M3104.2,2298C3104.2,2298,3104.2,2298,3104.2,2298l-35.1-0.2c-1.1,0-2-0.9-2-2c0,0,0,0,0,0c0-1.1,0.9-2,2-2
				c0,0,0,0,0,0l35,0.2c1.1,0,2,0.9,2,2c0,0,0,0,0,0C3106.2,2297.1,3105.3,2298,3104.2,2298z"/>
			<path class="st30" d="M3073.1,2410.4c-0.3,0-0.7-0.1-1-0.3l-30.2-17.8c-0.6-0.4-1-1-1-1.7c0-0.3,0.1-0.7,0.3-1
				c0.6-1,1.8-1.3,2.8-0.7l30.2,17.8c0.6,0.4,1,1,1,1.7c0,0.3-0.1,0.7-0.3,1C3074.4,2410.1,3073.8,2410.4,3073.1,2410.4z"/>
			<path class="st30" d="M2988,2491l-17.2-30.6c-0.2-0.3-0.3-0.6-0.3-1c0-0.7,0.4-1.4,1-1.8c1-0.5,2.2-0.2,2.7,0.8l17.2,30.6
				L2988,2491z"/>
			<path class="st30" d="M2876.8,2520.7C2876.8,2520.7,2876.7,2520.7,2876.8,2520.7c-1.1,0-2-0.9-2-2c0,0,0,0,0,0l0.5-35
				c0-1.1,0.9-2,2-2c0,0,0,0,0,0c1.1,0,2,0.9,2,2c0,0,0,0,0,0l-0.5,35C2878.8,2519.8,2877.9,2520.7,2876.8,2520.7z"/>
			<path class="st30" d="M2764.6,2488.8c-0.4,0-0.7-0.1-1-0.3c-0.6-0.4-1-1-1-1.7c0-0.4,0.1-0.7,0.3-1l18-30.1l3.5,2.1l-18,30.1
				C2766,2488.5,2765.3,2488.8,2764.6,2488.8z"/>
			<path class="st30" d="M2683.6,2404.9c-0.7,0-1.4-0.4-1.8-1c-0.2-0.3-0.3-0.6-0.3-1c0-0.7,0.4-1.4,1-1.8l30.7-16.9
				c1-0.5,2.2-0.2,2.7,0.8c0.2,0.3,0.3,0.6,0.3,1c0,0.7-0.4,1.4-1,1.8l-30.7,17C2684.3,2404.8,2684,2404.9,2683.6,2404.9z"/>
			<path class="st30" d="M2690.8,2292.5C2690.7,2292.5,2690.7,2292.5,2690.8,2292.5l-35.1-0.7c-1.1,0-2-0.9-2-2c0,0,0,0,0,0
				c0-1.1,0.9-2,2.1-2l35,0.7c1.1,0,2,0.9,2,2c0,0,0,0,0,0C2692.7,2291.6,2691.8,2292.5,2690.8,2292.5z"/>
			
				<rect x="2685.8" y="2184.9" transform="matrix(0.854 0.5202 -0.5202 0.854 1532.2937 -1087.134)" class="st30" width="35" height="4"/>
			<path class="st30" d="M2789.6,2130.2c-0.7,0-1.4-0.4-1.8-1.1l-16.7-30.8c-0.2-0.3-0.2-0.6-0.2-1c0-0.7,0.4-1.4,1.1-1.8
				c1-0.5,2.2-0.2,2.7,0.8l8.4,15.4l0,0l8.4,15.4c0.2,0.3,0.2,0.6,0.2,1c0,0.7-0.4,1.4-1.1,1.8
				C2790.2,2130.1,2789.9,2130.2,2789.6,2130.2z"/>
		</g>
	</g>
	<path class="st12" d="M2984.8,2367.1c-1.3,0-2.7-0.4-4-1.1l-98.7-59.7c-3.6-2.2-4.8-6.9-2.6-10.5c2.2-3.6,6.9-4.8,10.5-2.6
		l98.7,59.7c3.6,2.2,4.8,6.9,2.6,10.5C2989.9,2365.8,2987.4,2367.1,2984.8,2367.1z"/>
	<path class="st12" d="M2736.7,2382.5c-2,0-3.9-1-4.9-2.8c-1.5-2.7-0.6-6.1,2.1-7.7l138.4-79.1c2.7-1.5,6.2-0.6,7.7,2.1
		c1.5,2.7,0.6,6.2-2.1,7.7l-138.4,79.1C2738.6,2382.3,2737.7,2382.5,2736.7,2382.5z"/>
	<path class="st12" d="M2879.7,2295.8c-0.9-0.3-1.7-1-2-2.1l-40.2-172.1c-0.4-1.5,0.6-3,2.1-3.4c1.5-0.4,3,0.6,3.4,2.1l40.2,172.1
		c0.4,1.5-0.6,3-2.1,3.4C2880.6,2295.9,2880.1,2295.9,2879.7,2295.8z"/>
	<circle class="st27" cx="2879.9" cy="2294.4" r="12.6"/>
	<path class="st15" d="M2721.8,2683.5l0,221.9c0,16.2-13.3,29.4-29.4,29.4l-205.3,0l-143.8,0c-10.1,0-19.1-5.2-24.4-13
		c-3.2-4.7-5-10.4-5-16.4l0.1-221.9c0-16.2,13.3-29.4,29.4-29.4l349.1,0.1C2708.6,2654,2721.8,2667.3,2721.8,2683.5z"/>
	<rect x="2376.1" y="2794.4" class="st12" width="174.2" height="25.1"/>
	<rect x="2376.1" y="2840.9" class="st12" width="174.2" height="6.7"/>
	<rect x="2376.1" y="2860" class="st12" width="174.2" height="6.7"/>
	<rect x="2313.8" y="2702.2" class="st12" width="408" height="70"/>
	<rect x="2016.6" y="160.7" class="st30" width="527" height="396.2"/>
	<rect x="2028.5" y="199.1" class="st1" width="502.7" height="305.1"/>
	<circle class="st20" cx="2283.1" cy="348.4" r="127.6"/>
	<rect x="2027.6" y="518.8" class="st14" width="9.8" height="27.1"/>
	<rect x="2042.1" y="518.8" class="st14" width="9.8" height="27.1"/>
	<rect x="2057.2" y="527.5" class="st14" width="469.6" height="9.4"/>
	<rect x="2397.7" y="518.9" class="st14" width="12.1" height="27.7"/>
	<polygon class="st21" points="2363.9,351.7 2244.5,420.6 2244.5,282.7 	"/>
	<rect x="845.7" y="2797.9" class="st12" width="429.5" height="260.8"/>
	<rect x="845.7" y="2831.5" class="st21" width="429.5" height="197.6"/>
	<rect x="862.3" y="2779.1" class="st29" width="41.7" height="18.8"/>
	<rect x="1207.3" y="2847.6" class="st18" width="42.5" height="21.5"/>
	<path class="st18" d="M868.3,3004L868.3,3004c-5.7,0-10.4-4.7-10.4-10.4v-126.7c0-5.7,4.7-10.4,10.4-10.4l0,0
		c5.7,0,10.4,4.7,10.4,10.4v126.7C878.7,2999.3,874,3004,868.3,3004z"/>
	<circle class="st2" cx="1060.5" cy="2930.3" r="108.2"/>
	<circle class="st18" cx="1060.5" cy="2930.3" r="69.1"/>
	<circle class="st9" cx="1023.8" cy="2899.8" r="16.9"/>
	<circle class="st9" cx="1006.9" cy="2925.2" r="9.9"/>
	<path class="st12" d="M710.3,2513.4c-92.2,101.8-249.4,109.6-351.2,17.4c-101.8-92.2-109.6-249.4-17.4-351.2
		c92.2-101.8,249.4-109.6,351.2-17.4C794.7,2254.3,802.5,2411.6,710.3,2513.4"/>
	<g>
		<path class="st20" d="M450,2432.4c0.4-2.2,2.9-11.6,1.1-13c-3.4-2.6-4.9-5.4-10.8-5.2c-4.4,0.1-7.9,0.5-12.3,0
			c3.9-7.8,2.5-14.4,7.2-22c3.7-6-11.6-3.3-13.6-2.7c-3.5,1-2.7,2.7-3.2,5.9c-0.4,2.2-3.6,4.7-3.2,6.5c-1.5-0.4-3.3-0.2-5.1,0
			c-2.5,0.3-5.1,0.5-6.8-0.9c-3-2.4-5.1,1.2-7.2-2.7c-1.3-2.4-1.1-6.2-2.6-8.5c-3.2-5.1-4.5-15.3-1-20.4c3-4.5-2-9.1,2.8-12.8
			c2.1-1.6,4.6-8.1,4.6-11.5c4-0.3,11.6,4.1,15.1,4.3c1,2.3,6.4,4.7,6.8,1.2c1.3,1,2.5,2.9,4.4,1.6c-0.1-1.3-0.8-2-2-2.4
			c0.7-1.1,0.8-2.3,0.4-3.6c2.6-1.5,5.1,0.7,6.8,0.8c1.9-0.9,3.7-0.6,5.3-0.2c1.4,0.3,4.6-1.7,5.8-2.2c-0.5,3.1,1.1,5.3,2.9,4
			c3.1-2.3,3.7,1.1,5.9,3.2c3.2,3.1-0.9,9.9,5.2,13.4c-0.4,2.6,3.6,9.8,4.9,9.6c10.8-1.4-3.6-25.8-1.8-32.2c1.2-4.4,3-6.4,6.7-8.4
			c3.2-1.8-0.3-9.1,3-10.2c3.4-1.1,8.5,0.6,11.7-0.7c1.8-0.7,3-1.8,0.8-3c0.6-0.7,4.6-3.3,4.8-3.2c-0.2-2.5-4-6.7-3.6-8.3
			c0.5,0.2,1.8-0.8,1.6-0.2c0.5,1.4,3.2-3.7,3.4-4.1c1.9-3.3-3-5.2-2.2-8c1.6,0.4,6.1,1.8,7.2-0.6c1-2.4-1.9-14.7-3.3-14.5
			c4.1-4.7,14.5,8.1,18.3,4.4c3.2,0.3,4.8,0.6,4.8-2.8c-1.3-1.4-3.4,0-4.4-2c0.5-3.6,3.2-5,6.8-6.2c1.4-0.5,1.6-2.8,2.3-4.1
			c2.1-0.2,3.7-1.6,5.7-2.3c5.5-2.2,1.7-1.6,3.5-2.5c0.3-0.1,9.2-0.8,8.7-1.6c0.8,1.6-6.4,3.7-5.9,6.9c0.7,5,6.5-1.3,9.5-2
			c2.7-5.6,9.6-2.6,15.4-3.9c0.5-1.7-1.5-0.9-1.2-2.4c2.6,0.6,4.9-0.7,5.8-2c0.8-1.2,0.4-2.4-2.3-2c0.1-1.3-2.7-12.3-6.6-7.4
			c-2,2.5,1.4,7.5,1.4,10.2c-1.7-0.6-3.4-0.5-5.1-0.4c-1.2,0.1-2.4,0.1-3.6,0c-1.2-1.8-1.8-1.7-3.7-2.4c-1.5-0.6-3.1-4.9-3.8-4.7
			c0.8-1.1,1.4-2.3,2-3.6c-0.3-0.3-4.8-1-6.1-1.2c2.9,0.1,11.2-1.7,7.1-5.4c-3-2.7-7.4,0.4-10.8,1.5c-3.2,1.1-6.3,2.8-9.1,4.8
			c-0.9,0.6-4.5,0.3-6.2,0.8c0-2.1,5.9-6.1,7.6-7.1c2.9-1.6,4.8-0.4,6.7-3.7c0.5-2.5,2-3.6,4.4-3.1c3.2-0.2,8.2-2.1,11.8-1.8
			c6.2,0.4,11,2.9,16.4,1.3c2.6-0.8,4.2-3.2,5.9-5.2c2.4,0,4.8-0.2,7.2-0.4c3.3-0.2,5.9-3.1,4.9-5.6c-0.9-2.3,0.3-10-5.8-6.7
			c-1-0.2-0.7-3.8-4.8-3.2c1.2-0.5,2.2-1.2,3.2-2c-1.2-2.3-11.8-3.1-14.3-2c-0.5-1.4,1.4-4.1-1.5-6.3c-1.5-1.1-6.1-1.1-5.6-3.9
			c2.7,2.7,6.2-1.7,0.4-3.6c-0.2-1.2,4.1-0.4-0.2-3c-1-0.6-4.2-2.6-3.6-3.8c1.3-2.3-8.4-11.1-10.9-1.5c-0.4,1.3-11.1,5.1-11.9,3.3
			c-1.3-2.9-2-1.3-3.5-0.9c-1,0.3-2.5-0.5-4.1-1.3c-0.5-1.6,2.7-1,1.8-5.2c-0.8-3.9-1.2-2.4,0.7-5.3c1.6-2.4-10.8-0.5-9.7-4.5
			c-3.2-1.8-6.4-5.1-10.1-3.7c-3.1,1.1-5.4,3.4-8.7,2.5c-2.4-0.6-5.5-3.6-7.5-1.4c-1.5,1.6-1.6,3.8,0.9,4.6
			c-1.2,1.4-2.2,2.8-3.2,4.4c0.9,0.5,1.8,0.6,2.8,0.4c-0.3,1.3,0,2.5,0.8,3.6c-0.6,0.9-0.8,2.7-1.8,3.1c-0.8,3.8-6.2,3.6-0.8,6.4
			c4,2.1,10.8,6.7,8.3,11.7c-1.8,3.6-12.9,6.2-17.2,7c-0.5,3.8,2,3.7,2.1,7.3c0,2,1.3,4.3,1.1,6.2c-0.3,4.6-2.1,2.4-4.3,4.6
			c-2.4,2.4-4-2.2-6.2-3.2c-3.3-1.6-4.1-3.9-3.7-7.1c0.3-3.1,1.3-8.5-2.2-9.2c-6.1-1.2-13.6,0.8-19.1-3.1c-2.7-1.9-4.6-5.5-8.3-6.1
			c-1.9-0.3-4.4,1.9-5.9,2.4c-1.3,0.4-3.2-0.5-4,0.8c1.2-1.8-0.5-9-4.5-8.8c-3.9,0.2-4.6-4.9-3.7-6.7c1.1-2.2,8.2-4.6,8.5-6.8
			c0.1-0.8,7.5-6.5,5.1-6.4c7.4-2.6,5.9-2.7-0.8-4.4c0.7-0.7,2.8-2.1,4.8-2c3.4,0.2,6.8,2,5.1-1.6c4.7,1.6,10-1.9,11.5-6.4
			c-1.1-0.4-11-0.5-10.3-2.4c4,1.4,8.1,2.6,11.7-0.1c3-2.3,5.1-3.1,1.4-4.3c3.5-0.9,7.4-1.2,11.1-0.8c-0.6-1.6-1.8-2.4-3.6-2.4
			c1.7-1.6,3.5,0.5,5.1,0.7c3.1,0.4,5.3-0.7,7.2-2.9c4.5-5.1-5.4-2.9-3.7-7.2c0.5-0.5,2.6-0.4,3.3-0.1c1.1,0.4,2.2,0.8,2.5-1.1
			c0.4-2.8-2.3-2.1-4.5-2.6c-3.7-0.9-15.4,2.3-8,3.7c-1.1,0.8-2.3,1.3-3.6,1.6c-0.8,1.8-1.9,3.3-3.3,4.7c-2.7,2.8-5.1,3.7-7.4,0.1
			c0.4-0.7,5.2-7.1-0.6-5c-2.3,0.8-3.7,3.3-5.7,4.6c1.1-1.5-1.3-3.5,0.8-4.4c-1-1-2.4-0.5-3.7-0.1c-0.8,0.3-1.6,0.5-2.3,0.5
			c-0.2-2.3,2.5-1.2,3.2-2.8c-1.4-2-3.8-0.5-3.2-3.2c0.6-2.8-5.3-0.7-6.2-0.3c-2.7,1.1-4.3,3.8-6.9,5.6c0.4,0.4,1,0.5,1.6,0.4
			c-0.2,1.1-3.7,3,0.1,3.3c1.5,0.1,3-0.2,4.5-0.5c1.3-0.2,2.5-0.5,3.8-0.5c0,0.7-5.3,2.6-5.6,2.8c0.1,1.1,1,0.9,1.8,0.6
			c0.5-0.2,1-0.3,1.4-0.2c-1.2,2.2-4.9,3-6.7,4.3c-2.9,2-0.2,2-1.6,4.1c-3.3,0.4-1.2-2.3-0.8-3.6c-2.1-0.6-8.1-0.5-7.5,2.8
			c-2.2,1-11.6,5.6-13.9,4.4c-5-2.6-11.4,4.3-14.3,7.8c0-0.1,0-0.1,0-0.2c-6.5-0.3-9.9,5.4-15.9,6.4c1.2-1.1,2.4-2.2,3.6-3.2
			c-2.4-1.8-13,7.3-14.7,9.2c-7.5,8.3-2.3-1.5-10.3-2.4c-1.1,1,1.7,1.8,1.2,3.2c-1.3,0-5.1,1.9-6.4,2.4c-1.5,0.6-4.9,1.5-7,3
			c-0.6,0.7-1.1,1.3-1.6,2c-0.1,0.1-0.3,0.4-0.3,0.4c-10.6,13.4-19.6,27.5-27.1,42.3c3.3,0,6.7,0.1,7.5,0.8c-1.3,3.8,8.6,2.7,8.3,5
			c1-0.5-0.6,4.6-0.6,4.5c-0.6,1.8-1.1,3.6-1.4,5.2c2-0.8,0.5-3.9,2.4-4.8c0.2,0.7-0.2,6.7-0.3,6.9c0.5,3-2.4,11.4-1.4,12.7
			c0.7,0.9,3.8,4.7,3,5.8c-1.3,1.7-0.2,7.8-0.7,10.2c-0.6,3.4-1.4,6.7-1.7,10.1c-0.9,5.2-2.1,11-1.3,16.3c0.9,6.6,3.1,12.5,5,19
			c1.3,4.5,3.5,1.6,5.2,5.4c2.1,4.5,3.3,10.8,5.6,15.7c0.9,1.9,7.1,10.4,2,9.5c-0.4,5.3,7.4,5.5,8,10.3c0.6,5.7,5.2,7.4,6.8,12.7
			c4.4,0.2-0.4-6-0.4-7.2c-2.6-0.1-4-7.3-4.4-10.3c-2.6-1.1-3.8-6.6-5.1-8.9c-2.4-4.1-4.4-7.6-4.1-12.5c5.2,1.4,6.4,6.2,8.1,11.3
			c0.8,2.3,2.1,6.4,3.4,7.7c3.1,2.3,3.2,4,3.6,7.1c5.8,3.3,9.5,12.3,12.3,17.9c1.6,3.3-0.9,5.3,1.1,8.4c1.8,2.9,5.3,4.2,6.6,7.4
			c5.8,1.7,11.3,5.8,16.4,8.7c3,1.7,5.7,3.7,9.1,4.4c2.7,0.6,4.7-1.8,7.2-1.8c5-0.1,9.7,8.3,13.5,10.9c1.7,0,15,5.6,15.1,3.5
			c0.6,0.1,6.8,9.7,8.8,10.7c0.5,2.3-1.7,2.6,1,4.5c-0.3-0.3,0.4,0.4,1.4,0.9c2.7-1.2,5.4-2.2,8.2-3.3
			C450.5,2437.2,449.5,2435,450,2432.4"/>
		<path class="st20" d="M640.8,2515.6c-1.2-4.5-8.8-0.4-11.9-2.5c-2.6-1.8-5.5-5.1-9-4.8c-4.4,0.4-7.5-0.7-11.8-1.5
			c-3-0.6-4.1,3.2-6.7,3.1c0.6-4.1-3.9-5.7-8.8-4.9c-1.6-2.2-4.7-1.9-7.4-0.3c0.4-0.7,0.6-1.5,0.7-2.4c-2.2-1.8-4.4,0.2-6.9,0
			c-2.2,2-4.3,4.2-8.2,4.4c1.6-4.7,6.5-5.9,9-9.8c1.3-2-3.3-4.4-3.9-6.2c-2.2-6-1.8-5.2-6.9-8.7c-3.2-2.2-7.7-3.7-11.9-4
			c-3.7-0.3-4,1.4-7.4,0.2c-2.2-0.8-6.8-2.4-9.9-2c1.3-7-7-8.4-11.1-7.9c0.9-1.2,1.9-2.3,3.2-3.2c-0.8-1-1.9-1.7-3.2-2
			c1.9-0.4,1-3.6,1.6-4.8c-3.4-0.5-5.1,4.9-7.1,2.4c0.6-0.8,2.6-0.1,2.4-1.6c-3-1.8-8.6-0.9-11.3,1c-3.7,2.6-7-2-10.8-1.6
			c-3.2,0.3-4.4,1.1-6.1-1.6c-1.2-2-3.4-2.4-5.6-2.1c-1-0.8-1.4-4.7-3.5-3.3c-1.2,0.8-1.4,2.8,0.7,2.9c-1.7,1.6-4.8,0.8-6.4,2.4
			c-0.8-0.1-1.9-2.6-0.4-3c6.4-1.6-2.2-3.5-3.5-5.7c-0.9-1.6-2.2-2.6-3.6-3.2c-5-2.2-12.5,0.3-17.2,0.8c-1.5-2.1-3.9-4.2-5.7-6.6
			c-2.8,1.2-5.6,2.2-8.2,3.3c1.2,0.7,2.5,1.2,2-0.3c1.5,3.5,4.8,1,4.8,5.6c0.6,1.4,4.3,2,5.2,2c0.9-0.1,1.8,0.1,2.6,0.4
			c1.4,0.5,2.7,1.5,4,2.5c2.1,1.6,2,1.1,5.3,1.1c-0.4-1.4-0.9-2.7-1.6-4c3.4,0,3.4-2,7.1-1.2c-0.1,1.5,2.4,4.9,1.6,6
			c-3.2,0.9-6.9-0.2-9.2,2.5c-1,1.1-0.9,5.4-2.4,5.6c-1.9,0.2-3.7,2.3-3.9,4.3c-0.6-0.8-1.4-1.4-2.4-1.6c-1.4,1.1,2.1,2.1,0.8,3.2
			c-1.1,0.3-1.9,0.9-2.4,2c-0.2,2.2,2.6,4.1,2.8,6.4c0.2,2.4,1.4,8.1,0.3,10c-0.5,0.9-6,4.1-4.2,4.3c-2.6,0.2-0.7,2.9-3.6,3.1
			c-2.1-0.5-2.8,0.4-2.1,2.8c-0.4,1.8-5.4,8.6-1.4,10.1c0.3,0.1,3.6,0.5,4,0.1c0,3.6-4.1,3-5.5,5.4c-0.3,2.4,4.8,5.2,1.2,5.2
			c1,1.9,3.4,2.4,5.2,3.2c1.1,1.8,2.3,3.5,3.8,5.1c2.8,3.2,5.9,6.3,7.4,10.4c4.1,3,5.4,7.8,8.9,10.8c3.2,2.7,7,4.5,10.8,6
			c4.3,1.7,7.8,3.5,11.7,5.8c0.7,2,2.8,8.6,1.2,10.3c-0.6,0.6-1,13-0.4,13.1c-0.4,2.9-3.1-1.6-0.6,3.2c0.6,0.6,0.7,1.3,0.5,2
			c0,0.3-2.3,4.3-4.2,3.2c0.3,0.8,0.8,1.4,1.5,1.7c17.9,2.4,35.9,2.9,53.8,1.5c-1.5-0.6-1.6-2-4.1-1.7c6.5-1.1,12.2,2.2,18.3-1
			c1.4-0.7,3.6-3.4,5.4-4.4c-0.1,0.1-0.2,0.1-0.2,0.2c3.6,0.2,11.9-6.4,12.2-9.3c0.7-7.3,11.5-8.2,14.8-13.2
			c7.7-1,11.4,1.7,16.6-2.9c4.3-3.8,5.5-7.6,8.3-11.7c1.8-2.7-3-8.9-1.3-11.9c3.6-1,9.4-1.6,10.9-4.7
			C634,2530.2,642.9,2523.2,640.8,2515.6z"/>
		<path class="st20" d="M353.8,2174.3c3.7,0.5,3.4,2,5.9,4.4c0.5-1,9-10.6,9.9-9.6c-0.8,0.5-1.5,1.2-2,2c0.4-0.2,0.8-0.2,1.2,0
			c-1.2,0.8-2.1,1.9-2.8,3.2c2.5,0,6.6-1.8,8.1-2.5c3.7-1.8,7-4.1,10.2-6.7c2.6,0.4,5.1-3.2,8.3-3.5c3.6-0.3,7.8-1.9,10-4.9
			c-1.4-1.4-3.1,1.7-4,0.8c1.8-1.7,8.3-2.2,7.5-4.8c-2.7-0.9-5.4,1.6-7.9,0c1.8-1.5,0.9-3.2,0.8-5.2c-4.9-0.4-6,3.4-7.9,6.8
			c-1.5,0-0.2-2-0.8-2c-2.7,0.4-3.9,2.8-5.9,4.4c0,0.4-9.4,4.6-12.4,4.2c-3.7-0.4-3.9-2.4-7.8-2c-0.6,0.1-1.3,0.1-1.9,0.2
			c-1.7,1.5-3.3,3-4.9,4.5c0,0.4-0.2,1-0.7,1.8c-2,3.2-2.2,1.8-2.5,5.6C353.8,2172.5,349.9,2173.9,353.8,2174.3z"/>
		<path class="st20" d="M342.2,2179c-0.8,0.9-1.9,2-2.8,3.1c2.1-0.9,4.2-1.7,5-2.4C344,2179.1,343.2,2178.9,342.2,2179z"/>
		<path class="st20" d="M762.1,2277.1c0.1-2.8-0.3-5-1.2-6.8C759.7,2272.4,760.4,2275.8,762.1,2277.1z"/>
		<path class="st20" d="M721,2208.1c-0.5-0.6-0.1-3.1,0.8-2c-3,3.1,7.1,8,6.8,11.9c-0.9-0.5-1.9-0.5-2.8,0c0.5,1.1,1,2.1,1.6,3.2
			c-0.6,0.2-1.3,0.4-2,0.4c0.3,3.3,4.2,2.7,5.6,5.2c-1-0.3-1.9-0.7-2.8-1.2c-2,7.3-2.3,1.7,3.2,5.6c-0.1-0.6,0-1.1,0.4-1.6
			c3,1.1,4.7,2.6,8.4,3.2c0.2-0.4-0.2-4.8-0.4-5.6c-1.3-3.2-4.9-6.9-6.9-9.9c-2.2-3.3-4.8-6.5-7.1-9.5c-0.5-6.1-2.7-3.9-5.2-8.3
			c0.8,0,1.3-0.4,1.6-1.2c-1.7-1.1-3.4-2.2-5.2-3.2c0,1,0.3,1.9,0.8,2.8c-0.3-0.1-0.5-0.2-0.8-0.4
			C717.2,2199.3,718.9,2207.6,721,2208.1z"/>
		<path class="st20" d="M772.7,2312.5c-1.4-2.8-3-5.2-4.3-5.4c-3-0.6,2.1-14.3-3.8-14.9c-1.6,1.4-5.4-0.2-7.4-0.7
			c-3.5-0.9-5.9,0.2-8.1,2.4c0.3,1-9.8,2.8-12-1.7c-1.4-2.8,4.1-2.6,5.2-2.5c4.6,0.3,3.8-3.6,5.8-6.5c1.3-1.9,0.1-2.5-1-4.4
			c0.8-1.8,1.5-3.7,2-5.6c6.3,0.7,0.8-6.3,3.6-8c1.3,1.3,2.7,2.4,4.4,3.2c0.5-1.3,1.3-2.3,2.4-3.2c3.1,4.2,4,9.4,6.4,13.9
			c0,0.1,0.1,0.1,0.1,0.2c-4.9-17.6-11.8-34.7-20.6-51.1c-1,0.9-1.8,2.6-1.5,4.4c-3.1-1.5-2.5,2.3-4,3.3c-1.5,1-1.9,0.2-2.5-0.6
			c-0.4-0.6-0.9-1.2-1.8-1.1c0.6,1.4,1,2.9,1.2,4.4c-2.7-2.1-3.3-1.7-6.8-2.4c-0.4,3.5,7.1,9.3,9.3,12.4c1.4,2.1,3.5,9.6,1.9,12.2
			c-3.7-2.7-15.2-7-18.3-3.9c-0.5,1.9,2.2,9.3,2.7,11.6c0.4,2-0.2,7.5-1,9.5c5.5,3.2-1.5,9.7,8,7.9c4,4.8,3.9,11.1-1,14.6
			c-4.3,3.1-2.5,5.3-4.9,8.6c-2.6,3.5,1.8,7.3-1.8,11.4c-2.4,2.8-6.1,4.1-7.2,7.4c-1.6,4.7-6,6.6-6.1,12.2c-4.4,2.1-3.3,5.8-6.3,8.8
			c-2.3,2.3-0.4,5.8-0.8,8.7c0.6-0.1,1.1,0,1.6,0.4c0.9,1.6,1.4,9.1,1.3,10.8c-0.2,2.8-0.9,9.8-2.6,11.9c-3.4,4.2,0.5,5.4-0.5,9.3
			c-0.8,3.1,0.8,7.3,4.7,6.5c-2.3,4.7,6.8,7.6,5.6,13.9c1.3,3.8,7.8,7.9,11.1,10.8c3.5,3.1,6,1,8.7-1c2.4-1.9,4.9-3.8,8.3-1.6
			c1.3,0.8,12-8.3,14-9.4c1.5,1.6,1,4.4,1.6,6.4c1.8-0.4,3.2-1.4,4.4-2.8c1.4,7.6-4.2,13.8-3.6,21c0,0.3,0,0.5,0,0.8
			C773.7,2395.2,778.2,2353.3,772.7,2312.5"/>
		<path class="st20" d="M711.5,2216.4c4,6.6,15.7,5.5,9.5-3.2c3.2-0.2-4-8.4-6-7.9c-0.8,0.5-1.5,1.2-2,2c0.8,0,1.3,0.4,1.6,1.2
			c-1.4,0-2.4-1.1-4-1.2C709.7,2209.2,716.3,2217.2,711.5,2216.4"/>
		<path class="st20" d="M544.3,2098.2c-2.1,0.3-4.4,0.3-6.7,0.2c-4-0.1-8.1-0.1-11.5,1.7c1.8-0.1,3.6,0.3,5.2,1.2
			c-0.4,0-1.1,0-1.8-0.1c-1.6-0.1-3.5-0.3-4.2,0.9c1.1,0.3,1.7,0.2,2,0.2c0.4-0.1,3.6,2.2,3.2,3.5c10.3,1.4,17.4-4,26.3,2.7
			c-0.1,0.5-4.1,3.3-3.4,3.7c3-0.6,3.8-1.1,6.2-0.6c-0.6,0.2-1.1,0.4-1.6,0.8c1.5,0.1,2.8,0.7,4,1.6c-0.1,0-4.1,0-3.6,0.4
			c0.8-0.2,1.4-0.1,2,0.4c-0.8,0.1-1.5,0.5-2,1.2c0.5-0.1,0.9,0,1.2,0.4c-0.6,0-1.2,0-1.8,0c-1.9,0.9,5.1,1.4,7.9,1.1
			c0.2-0.4,0.5-0.6,1.1-0.4c0.2,0.2-0.3,0.3-1.1,0.4c0,0.1-0.1,0.2-0.1,0.4c2.7,0.9,7.3,0.7,8.7,2.8c-1-0.2-0.7,0.2-0.5,0.5
			c0.3,0.5,0.7,1-2.5,0c-2.7-0.9-7.2-2.5-9.7-0.4c0.7,0.2,1.2,0.6,1.6,1.2c-2.5-0.4-4.1,5.4-4,5.5c1.8,1.8,11.8,0.8,13.5-2.8
			c-1.2-0.6-2.3-1.1-3.6-1.6c1.9,0.3,3.7,0.7,5.6,1.2c-0.5-0.1-0.9,0-1.2,0.4c0.1,0.8,0.8,0.7,1.5,0.6c0.4-0.1,0.8-0.1,0.9,0.1
			c1.4,4.9-6.6,3.6-9.1,5.2c2.1,0.4-1.4,1.8-1.7,2.8c-0.8,1.4-0.4,2,1,1.6c-0.4,0.2-0.8,0.5-1.3,0.7c1.5,1.6,4.7,0.2,6,1.6
			c-7.1,0-2.6,4.1,3,5c0,3-1.6,3.9,1.4,4.5c-2.5-0.1-2,1.3-0.9,2.8c1.1,1.4,2.7,2.8,2.7,2.8c0.7,2-0.1,1,2,2.4
			c0.7,0.5,3.7,0.5,4.1,1.2c-0.7,2.5-0.5,4.6-0.1,7.5c3.2,1,5.3-2.3,6.7,0c0.2,0.3,1.6,1.3,2.1,1.3l0.1-0.1c0,0.1,0,0.1-0.1,0.1
			c-2.6,2.5,5,2.5,6.1,2.6c0.1,1.1,0.7,1.7,1.7,1.7c1.5,0,1.4,0.5-0.1,1.4c2.9,0.2,5.5-0.1,8.3-0.8c-0.6,0.4-0.8,1-0.4,1.6
			c2.6,0.6,2-2,2.4-2c0.3,0,4.3,0.3,4.4,0.8c-1.1,0.3-1.9,1-2.4,2c2,0.4,4,0.7,6,1.2c-2.4,2.8,1,1.6,3.6,2.8
			c1.3-0.6,2.6-0.5,3.9-0.5c1.2,0.1,2.4,0.1,3.6-0.4c0.7-2.4-0.1-2-0.6-1.6c-0.5,0.5-0.3,0.3,0,0c0.3-0.3,0.9-0.9,1.8-2
			c-0.7-2-2.5-0.9-1.2-4.9c1.5-4.5-1.4-3.4-3.2-7c0.8,0,1.6-0.1,2.4-0.4c0.1-1-0.3-1.6-1.2-2c2-0.3,4,0.2,5.2-3.2
			c-1.4-0.8-2.8-1.7-4-2.8c1,0.2,1.9,0.1,2.8-0.4c-0.8-1-1.8-1.9-2.8-2.8c1,0.2,1.9,0,2.8-0.4c-0.1-1.1-0.7-1.9-1.6-2.4
			c5.2,1.8,8.7,4.6,13.6,4.5c-0.3-0.6-0.5-7-0.5-7.7c1.1,0.8,2.2,1.2,3.6,1.2c0.8-2.6-1.3-5.1,1.2-7.2c1.7,0.6,4.4,1.8,6.2,0.8
			c0,0,4-0.4,5.8-1.3C623.7,2113.5,584.2,2101,544.3,2098.2"/>
		<path class="st20" d="M768.8,2291.3c-0.2-0.2-0.4-0.2-0.7,0.1c0.1,1.9,0.8,3.3,1.8,4.7C769.5,2294.5,769.2,2292.9,768.8,2291.3z"
			/>
		<path class="st20" d="M764.1,2285.8c-0.3-4.3-0.8-6.3-3.2-8.3c0.7,2.8,0.7,6.3,2.4,8.7C763.3,2285.5,763.6,2285.4,764.1,2285.8z"
			/>
		<path class="st20" d="M474.8,2106.1c2.4-0.6,4.7-1.2,7.2-1.2C480.2,2105.4,477.5,2105.7,474.8,2106.1c-1.5,0.4-3,0.8-4.5,1
			c-1.3,0.4-2.4,1-3.2,1.7c0.5-0.3,0.3,0.9-0.1,1.2c0.9-0.1,2.6-0.3,1.2-1.1c1.4-0.4,7.7-1,8.7,0c-2-0.1-14,1-14.3,4
			c2.2-0.2,8.2-1.8,9.9-0.4c-2.2,0.7-21.2,1.9-20.2,7.2c3.2-0.1,7.6-2,10.9-2.6c3.7-0.6,7.9-1.6,11.5-2.7c4.2-1.2,13.2,0.9,16.1-3.9
			c-4.2-0.1-9.1,2-13.1,0.8c3.3-0.9,6.8-0.5,10.1-1.3c2.5-0.7,2.7-2,5.1-2.2c2.1-0.2,8.4-1.9,9.4-4.1c-2.3-0.3-5,1.1-7.2,0.4
			c4.1-1.4,8.8-0.2,12.7-2c-0.9,0.2-1.7,0.1-2.4-0.4c2.6,0.2,17.8-3.2,25.4-4.1c-0.5,0-1,0-1.3-0.1c-7.1-0.1-14.3,0.1-21.4,0.7
			c-6.5,0.9-12.9,2.2-19.3,3.6c-6.2,1.4-14.9,1.9-20.3,5.5c0.6,0,1.2-0.1,1.8-0.2C471.6,2106.7,473.2,2106.4,474.8,2106.1z"/>
		<path class="st20" d="M466.1,2108.1c0.5-0.2,0.9-0.4,1.2-0.8C466.8,2107.3,465.1,2108,466.1,2108.1z"/>
		<path class="st20" d="M442.8,2117.6c0.3,0,0.6-0.2,0.9-0.2h0c0.2,0,0.4,0,0.5-0.2c4-1.3,9.2-2.3,11.6-2.3c2.6-2.1,6.9-3.5,9.8-4.8
			c-0.6,0.3-2.2-0.5-2.2-0.7c0.1-0.2,0.3-0.3,0.5-0.5c-0.4,0.1-0.9,0.3-1.5,0.5c-1.2,0-3.2,1-4.4,1.2c0.1,0,0.1,0,0.2,0
			c0.1,0-0.4,0.4-0.3,0.4l0.6-0.4c0.5,0-1.5,0.6-0.8,0.6c-0.7,0,1.3-0.6,0.8-0.6c-7.6,2.3-19,5.8-18.5,8.3
			C440.6,2118.5,441.6,2118,442.8,2117.6z"/>
		<path class="st20" d="M682.8,2158.5c-0.2-1.5-4-4.4-5.3-5.2c-0.9-0.5-0.9-0.2-1.1,0.1c-0.2,0.3-0.6,0.7-2.8-0.4
			c-0.9-0.4-7.7-2.8-7.8-2.4c0.6,0.5,0.7,1,0.4,1.6c-0.1-0.8-6.2-5.2-8.4-5.5c-0.5,0.9,1.5,1.3,0.8,1.6c-1.4-0.5-3.8-1.7-4,0.4
			c1.4,2.9,6.6,0.4,7.6,3.6c-0.4,0.1-1.1-0.1-1.8-0.2c-1.2-0.3-2.6-0.6-2.9,0.6c2,1.3,5.3,1,6.8,3.2c-1.2-0.4-1.8,0-2,1.2
			c2.3,0.7,25,9.4,24.6,5.1c0,0-0.4-0.9-1.1-1.8C685,2159.3,684,2158.4,682.8,2158.5"/>
		<path class="st20" d="M491.8,2397.3c0-3.7-4.1-3.7-6.8-3.6c-0.2-0.9,1.2-1.2,0.4-2c-2.6-1.2-5.5-1.8-8.4-2.4
			c-0.7-2-2.8-2.8-4.6-3.4c-3.4-1-6.4-4-9.6-3.9c-4.3,0.1-7.6-1.8-12.4-0.6c-2.1,0.6-8.2,3.8-6.3,7.2c2.2,0.5,8.8-3.6,11.1-4.8
			c0.6,3.7,5.4,3,9.2,4.7c3.2,1.5,5.6-0.1,7,3.1c1.2,2.7,3.7,1.8,6.1,3.2c-0.8,1.4-2.7,1-2.4,3.2
			C480.7,2397.3,486.3,2398.1,491.8,2397.3z"/>
		<path class="st20" d="M474.8,2406.8c0.4,0.2,7.9,1.8,7.5-0.3C480.3,2402.8,467.9,2402.9,474.8,2406.8z"/>
		<path class="st20" d="M496.8,2406.2c1.7,0.4,3.3,0.5,5,0.3c0.8,1.4,2,2.2,3.6,2.4c0.9-7.7,13.7,0.9,13.9-4.8
			c-3.2-3.8-9.9-6.8-14.1-6.4c-2.2,0.2-10.3-1.9-11,0.9c0,0,5.1,5.3,4.8,5.2c-3,1.3-5.8-1.7-8.7-0.4
			C489.6,2407.9,494.7,2405.8,496.8,2406.2z"/>
		<path class="st20" d="M523.9,2405.7c0.2,3.9,8.7,1.8,8.1-0.5C531,2405.1,523.7,2401.8,523.9,2405.7z"/>
		<path class="st20" d="M380.5,2151.5c-1.6,0-5.8-0.8-5.9,2c2.9,2.4,13.2-1,12.3-5.2c-1.2-0.2-2.3-0.7-3.2-1.6
			c-2.1-0.1-4.1,0.5-6,1.6C376.8,2148.4,380.1,2151.3,380.5,2151.5z"/>
		<path class="st20" d="M440.7,2127.3c7.6-0.8,14.6-4.9,22.1-5c2.2,0,5.6-0.5,6.9-2.7c1.7,2.3,5.2,0.7,7.3,0.3
			c2.9-0.6,3.7-1.9,6.6-3.5c-6.8-2-14.9,0.3-21.3,2.7c-2.9,1.1-4.7,0.8-7.7,1.9c-1.9,0.7-7,0-8.4,1.4c0.9-1.6,3.3-1,4.4-2.4
			c-3.7,0.2-7,1.4-10.3,2.8c-0.1,1.7,1.5,0.4,1.6,1.2C441,2125.5,440.2,2125.3,440.7,2127.3z"/>
		<path class="st20" d="M495.2,2143.4c-4.2-1.4-9.5-0.3-9.5,4.8C489.4,2149.7,495.7,2148.6,495.2,2143.4z"/>
		<path class="st20" d="M523.1,2132.6c-1.8,0.3-3.9,1.2-5.7,0.8c1.5-0.3,3-0.9,4.4-1.6c-0.4-1.8-3.4-1.6-6.2-1.4
			c-2.5,0.2-6.6,2.3-6.9,1.1c2.3-0.1-3.4-6.4-5.5-2c-0.3-2.4-2.1-2-3.8-1.5c-1,0.3-1.9,0.5-2.6,0.3c1.4-0.4,2.6-1,3.6-2
			c-2.8-2-17.4-3.7-17.5,2c-1.7-1.2-2.9-0.7-4.1-0.2c-1,0.5-2.1,0.9-3.4,0.2c1.1-1.1,2-2.2,2.8-3.6c-4.2-4.1-11.8-0.5-15.9,2
			c0.8-0.2,1.4-0.1,2,0.4c-1.8,0-4.8,0-5.2,2.4c0.6,0.2,1.2,0.6,1.6,1.2c-1.2-0.1-2,0.5-2.4,1.6c0.5,1.3,2.9,0.1,3.2,1.6
			c-1.2,1.2-2.7,1.6-4.4,1.2c1,0,1.8-0.4,2.4-1.2c-1.2-2-3.7-2.1-4-4.4c1.9-2.1,4.9-2.6,6.7-4.8c-5,0.6-19.1,4.3-17.1,10
			c-1.5,0.2-2.4,1-2.8,2.4c1.1,0.1,2.1-0.1,3.1-0.2c1.6-0.2,3.2-0.4,4.8,0.2c-1.5,1.3-5.4,0-6,2.4c1.6,1.8,4.8,0.9,6.7,0.4
			c2.2-0.7,2.1-0.4,2.6,0c0.4,0.3,1.1,0.5,3.7,0.2c5.6-0.7,10.9-1.2,16.4-1c0.4-2.3,1.6-1.9,3.2-1.5c1.1,0.3,2.4,0.5,3.8,0
			c4.2-1.7-0.8-2.2-1-2.9c1.7-1.1,11.5,3.6,13.1,4.3c-1.4,0.6-2.8,0.9-4.4,0.8c-0.6,3.5,3.7,1.4,5.4,0.9c3.6-1,3,1.1,6.3,1.8
			c8.8,1.9,1.5,8.8-3.8,10c-0.1,1.4,3.5,2.4,2.8,3.6c-4.6,0.4-8,1.1-12.4,1.3c-2.1,0.1-6.8,2.2-6.2,5.5c2.7,0.2,13.8-1.7,13.9-3.9
			c0.1-1.2,12,5.3,13.5,6.6c-0.9,0.1-1.4,0.7-1.6,1.6c3.4,2.6,8.5,2.1,11.1,6c4.7-0.6,9.3,0.8,13.9,1.1c0-6.3-4.4-6.4-12.7-8.2
			c5.1,1.1,12.2-0.2,13,0.3c2.3,1.5,2.1,4.3,4.8,4.3c0.2-0.6,0.3-4.1,0-4.4c0.5,0.3,1,0.4,1.6,0.4c0.7-3.8-2.2-3.6-4-5.9
			c0.7,0.2,1.1-0.1,1.2-0.8c-2,0-13.1-6.6-12.3-7.5c1,0.9,2.2,1.2,3.6,0.8c0.4-2-1.8-1.2-2-2.8c3.8-1.4,8.4-1.8,11.5,0.6
			c2.5,1.9,3.4,6.6,6.4,6.5c0.4-1.2-1.5-2.7-0.4-3.6c1.7-0.1,3.9-0.9,5.6-0.8c1.2-0.7-1.3-1.4,0-2c2.9,0.3,5.3-2,1.3-3.4
			c-3.3-1.1-3.7,0.2-5.3-1.8c-1.9,0.1-4.5,1.2-6.4,0c1.2,0.4,2.1,0.1,2.8-0.8c-2.8-4.5-13.6-3.1-18.3-5.9c0.6-0.5,1.2-0.6,2-0.4
			c0.4-1-2-1.5-1.2-2c2,0.8,4.2,1,6.4,0.8c0.3-1.9-1.2-1.9-2.7-1.9c-1.2,0-2.4,0-2.8-0.9C531.2,2135,525.8,2132.2,523.1,2132.6"/>
		<path class="st20" d="M458.2,2169c1.6,0,12.5,6.2,12.3,0c-2-0.8-4.2-1.1-6.4-0.8c1.1-3.7-4.5-1.2-7-2.3c-5.6-2.3-0.5-1.6-4.5-2.1
			c0.1-1.5-0.5-2.4-2-2.8c-1.1,2.2-3,3.7-3.7,6.1c-1.2,4.2-2.9,2.9-4.6,6.6c2.2,0.3,4.4-1.7,6.4-1.2c-0.2,0.8-0.2,1.6,0,2.4
			c3.4-0.1,5.4-3.3,8.7-3.6C458.4,2170.6,456.8,2169.2,458.2,2169z"/>
		<path class="st20" d="M421.3,2152.4c-1.4,0.1-4.9-1.8-6.8-2c-1.2,1.2-5.1,4.2-5.5,5.6C413.4,2155.4,418.3,2156.7,421.3,2152.4z"/>
		<path class="st20" d="M463.8,2108.9c0.4-0.1,0.7-0.3,0.9-0.4C464.4,2108.6,464.1,2108.7,463.8,2108.9z"/>
		<path class="st20" d="M438.6,2128.4c-3-1.1-26.2,2.8-26.5,5.5C418.4,2133,436.7,2139.1,438.6,2128.4z"/>
		<path class="st20" d="M577.3,2232.8c-0.5,0-1,0-1.4,0.1c-3,0.6-4.7,3.2-6,6.1c-1.3,2.8-2.3,5.8-3.7,7.3c-0.1,0.1-0.3,0.2-0.4,0.3
			c-1.1,0.9-1.3,2-0.4,3.3c-1.5,0.2-2.6,0.9-3.4,2.2c-0.2,0.5-0.2,0.9-0.2,1.2c0.2,1,1.3,1.4,2.6,1.5c0.5,0,0.9,0.1,1.4,0.1
			c0.5,0,0.9,0,1.3,0c0.4,0,0.8,0,1.1,0c0.2,0,0.3,0,0.4,0c0.2,0,0.6,0,1.1,0c0.9,0,2.1,0,3.5-0.1c1.4,0,2.8-0.1,4.1-0.1
			c1,0,1.8,0,2.5,0c0.8,0,1.3,0.1,1.4,0.3c-0.2,0.1-0.4,0.2-0.6,0.3c-1.4,0.7-2.5,1.7-3.4,2.9c0.7,0.3,1.3,0.5,1.8,0.5
			c1.3,0,2.4-0.8,3.4-1.7c0.1-0.1,0.2-0.2,0.3-0.2c0.9-0.8,1.8-1.4,3-1.4c0.2,0,0.4,0,0.7,0.1c-0.3,3.4-1.1,3.3,2.8,4.6
			c0.5,0.2,1,0.3,1.3,0.3c1.5,0,1.6-1.4,2.1-3.2c1.1-3.8-3.9-3.1-4.7-4c-0.1-1.1,0.6-1.5,1.3-1.8c0.9-0.4,1.8-0.7,1.5-2.2
			c-0.3-0.2-0.6-0.3-0.9-0.3c-0.4,0-0.8,0.2-1.2,0.3c-0.4,0.2-0.8,0.3-1.2,0.3c-0.1,0-0.2,0-0.3,0c0.1-1.9,3.1-4.3-0.6-5.1
			c-0.6-0.1-1.1-0.2-1.6-0.2c-0.7,0-1.3,0.1-1.9,0.2c-0.6,0.1-1.1,0.2-1.7,0.2c-1,0-2-0.3-3.4-1.5c4.6-1.3-1.2-1.6-3-1.6
			c-0.3,0-0.5,0-0.5,0c1.1-1.6,3.7-4.5,4.9-6.7c0.4-0.7,0.6-1.2,0.7-1.7C579,2233,578.1,2232.8,577.3,2232.8"/>
	</g>
	<rect x="1527.6" y="2847.5" class="st16" width="554" height="310.7"/>
	<polygon class="st1" points="1800.6,2878.4 1527.6,3158.2 2081.6,3158.2 	"/>
	<polygon class="st24" points="2073.7,2847.5 1527.6,2847.5 1802.7,3068.7 	"/>
	<polygon class="st22" points="2073.7,2847.5 1527.6,2847.5 1800.6,3038.5 	"/>
	<path class="st12" d="M1293.3,456.8h-13.1c-1.8-7.3-4.7-14.2-8.6-20.5l0,0l9.3-9.3c2.1-2.1,2.1-5.4,0-7.5l-16.2-16.2
		c-2.1-2.1-5.4-2.1-7.5,0l-9.3,9.3c-6.4-3.9-13.4-6.7-20.5-8.4v-0.1v-13.1c0-2.9-2.4-5.3-5.3-5.3h-22.9c-2.9,0-5.3,2.4-5.3,5.3v13.1
		c-7.3,1.8-14.2,4.7-20.5,8.6l0,0l-9.3-9.3c-2.1-2.1-5.4-2.1-7.5,0l-16.2,16.2c-2.1,2.1-2.1,5.4,0,7.5l9.3,9.3
		c-3.9,6.4-6.7,13.4-8.4,20.5h-0.1h-13.1c-2.9,0-5.3,2.4-5.3,5.3v22.9c0,2.9,2.4,5.3,5.3,5.3h13.1c1.8,7.3,4.7,14.2,8.6,20.5l0,0
		l-9.3,9.3c-2.1,2.1-2.1,5.4,0,7.5l16.2,16.2c2.1,2.1,5.4,2.1,7.5,0l9.3-9.3c6.4,3.9,13.4,6.7,20.5,8.4v0.1l0,13.1
		c0,2.9,2.4,5.3,5.3,5.3h22.9c2.9,0,5.3-2.4,5.3-5.3V543c7.3-1.8,14.2-4.7,20.5-8.6l0,0l9.3,9.3c2.1,2.1,5.4,2.1,7.5,0l16.2-16.2
		c2.1-2.1,2.1-5.4,0-7.5l-9.3-9.3c3.9-6.4,6.7-13.4,8.4-20.5h0.1h13.1c2.9,0,5.3-2.4,5.3-5.3v-22.9
		C1298.6,459.2,1296.2,456.8,1293.3,456.8z"/>
	<path class="st9" d="M1210.8,430.2c-24,0-43.4,19.4-43.4,43.4s19.4,43.4,43.4,43.4c24,0,43.4-19.4,43.4-43.4
		S1234.7,430.2,1210.8,430.2z M1210.8,494.1c-11.3,0-20.5-9.2-20.5-20.5c0-11.3,9.2-20.5,20.5-20.5c11.3,0,20.5,9.2,20.5,20.5
		C1231.2,484.9,1222.1,494.1,1210.8,494.1z"/>
	<path class="st9" d="M1210.8,413.2c-33.9,0-61.4,27.5-61.4,61.4c0,33.9,27.5,61.4,61.4,61.4s61.4-27.5,61.4-61.4
		C1272.2,440.7,1244.7,413.2,1210.8,413.2z M1210.8,533.8c-32.7,0-59.1-26.5-59.1-59.1c0-32.7,26.5-59.1,59.1-59.1
		c32.7,0,59.1,26.5,59.1,59.1C1269.9,507.3,1243.4,533.8,1210.8,533.8z"/>
</g>
<g id="Layer_7">
</g>
</svg>
