<?xml version="1.0" encoding="utf-8"?>
<!-- Generator: Adobe Illustrator 16.0.0, SVG Export Plug-In . SVG Version: 6.00 Build 0)  -->
<!DOCTYPE svg PUBLIC "-//W3C//DTD SVG 1.1//EN" "http://www.w3.org/Graphics/SVG/1.1/DTD/svg11.dtd">
<svg version="1.1" id="Layer_1" xmlns="http://www.w3.org/2000/svg" xmlns:xlink="http://www.w3.org/1999/xlink" x="0px" y="0px"
	 width="2000px" height="1365.1px" viewBox="0 0 2000 1365.1" style="enable-background:new 0 0 2000 1365.1;" xml:space="preserve"
	>
<style type="text/css">
<![CDATA[
	.st0{fill:#464E57;}
	.st1{fill:#E55957;}
	.st2{fill:#1F8BC3;}
	.st3{fill-rule:evenodd;clip-rule:evenodd;fill:#E55957;}
	.st4{fill:#22272B;}
	.st5{fill:#25A1D8;}
	.st6{fill:#263238;}
	.st7{fill:#F6F4F4;}
	.st8{fill:#5E9BA3;}
	.st9{fill:#C1CDD2;}
	.st10{fill:#2F363E;}
	.st11{fill:#CED5E0;}
	.st12{fill:#34454C;}
	.st13{fill:#344756;}
	.st14{fill-rule:evenodd;clip-rule:evenodd;fill:#CED5E0;}
	.st15{fill:#73BCC4;}
	.st16{fill:#DDE4E8;}
	.st17{fill:#435B73;}
]]>
</style>
<g>
	<path class="st14" d="M1354.8,803.2c0,21.4,0,42.8,0,64.2c-12.5,33.6-35.5,57-65.5,73.4c-337.9,0-675.8,0-1013.7,0
		c-17.6-6.1-35.5-11.5-52.8-18.6c-80.3-32.7-133.2-93.2-162-177.9c-2.4-7.2-1.3-17.8-12.4-19c0-3.1,0-6.1,0-9.2
		c6.4-7.6,6.2-15.3,0-22.9c0-26,0-52,0-77.9c8.3-41.5,19.9-81.2,42.6-117.5c50.8-81.4,123.8-123.5,213.7-133.5
		c20.3-2.3,30.6-8.3,35.4-27.1c15.5-60.8,99.5-113.4,162.8-86.6c12.2,5.2,22.6,4.2,32.8-11.3c19.4-29.3,45.4-52.4,76-70
		c19.8-11.4,42.7-13.3,61.5-26.3c24.8,0,49.5,0,74.3,0c6.2,6.3,14.7,6.4,22.2,8.2c57.9,13.9,100,50.6,128.1,103.3
		c11.1,20.9,22.4,27.5,43.7,26.4c62.2-3.3,113.2,22.3,152.6,71.9c28.5,35.9,44.2,78.1,45.9,125.2c0.5,12.3,4.7,16.8,16.4,18.6
		c41.9,6.4,77.5,25.8,106.6,58.9c38.5,43.8,55,94.2,49.1,153.8c-1.4,14.3-10.5,31.4,4.2,44.7C1332,768.2,1343.3,785.8,1354.8,803.2z
		 M943.3,570.3l-0.1,0.4c2.2-13.6-3.7-19.8-16.5-19.7c0.8-12-2.1-21.9-13.3-27.4c-5.8-6.2-11.9-11-21-9.2
		c-22.8,4.5-45.5,9.3-68.5,12.6c-13,1.9-12.4,6.6-5.9,15.8c12.6,17.7,24.8,35.6,37,53.5c14.5,21.2,14.1,23.5-9,29.6
		c-43.6,11.5-87.5,21.7-131.1,33.2c-12.8,3.4-20-0.5-26.6-12.3c-36.7-65.7-74.7-130.6-110.8-196.6c-12-22-24-36.6-50.9-28.8
		c-11.6,3.3-24.6,1.2-36.9,1.5c-2.8,0.8-5.6,1.7-8.4,2.5c-16.3,3.7-33.7-1.6-49.5,6.7c-0.3,1.3-0.7,2.6-1,3.9
		c37.7,86.5,75.4,173.1,113,259.6c7.7,17.7,18.2,24.7,38.1,18.1c29.6-9.9,60.7-15,90.4-24.8c15.1-5,20.9,0.8,27.2,12.9
		c15.7,30,32.5,59.5,48.2,89.5c7.6,14.6,15.6,20.8,32.9,14c54.9-21.6,110.5-41.3,166-61.4c15-5.5,19.6-12,7.8-26.7
		c-12.6-15.6-23.4-32.9-35-49.4c-26.8-38.3-26.8-38.4,18.6-49.5c38.5-9.4,38.5-9.4,15.3-42.7C951.2,571.3,947.8,569.7,943.3,570.3z"
		/>
	<path class="st3" d="M953.4,575.5c23.2,33.3,23.2,33.3-15.3,42.7c-45.4,11.1-45.4,11.1-18.6,49.5c11.6,16.6,22.4,33.8,35,49.4
		c11.9,14.7,7.3,21.2-7.8,26.7c-55.4,20.1-111,39.8-166,61.4c-17.3,6.8-25.2,0.7-32.9-14c-15.7-30-32.5-59.5-48.2-89.5
		c-6.3-12.1-12.1-17.9-27.2-12.9c-29.7,9.8-60.8,14.9-90.4,24.8c-19.9,6.6-30.4-0.4-38.1-18.1c-37.7-86.5-75.4-173.1-113-259.6
		c0.6-1.2,0.9-2.5,1-3.9c15.8-8.3,33.2-3,49.5-6.7c3.3,0.9,6.2,0.7,8.4-2.5c12.4-0.4,25.4,1.8,36.9-1.5c26.9-7.8,38.9,6.8,50.9,28.8
		c36.1,66.1,74.1,130.9,110.8,196.6c6.6,11.8,13.7,15.7,26.6,12.3c43.6-11.5,87.5-21.7,131.1-33.2c23.1-6.1,23.4-8.4,9-29.6
		c-12.2-17.9-24.4-35.9-37-53.5c-6.5-9.2-7.1-13.9,5.9-15.8c22.9-3.4,45.7-8.2,68.5-12.6c9.1-1.8,15.2,3,21,9.2
		c-0.1,2.4-0.3,4.8-0.4,7.2c-17.7-6.1-35-3.9-52.1,2.9c-6,0-12.3-1.6-17.2,3.7c-9.4,0.1-12.1,3.8-6.1,12.4
		c7.7,11.1,15.2,22.3,22.9,33.3C884,617,884,617,923.6,605.3c27.3-8,27.3-8,19-35l0.6,0.3c0,0,0.1-0.4,0.1-0.4
		C945.4,574.8,949.1,575.7,953.4,575.5z M533,433.2c-19.7,1.4-42.2,3-64.7,4.5c-12.7,0.8-16.7,5.8-10.5,19.1
		c35.2,75.2,70,150.6,104.6,226.2c4.3,9.4,10.2,12.1,19.2,9.8c27.5-7.2,54.9-14.9,82.5-21.4c13.5-3.2,14.4-9.1,8.1-20.6
		c-38.1-68.5-76-137.1-113.6-205.9C553.2,434.9,546.7,429.9,533,433.2z M938.4,719.1c-1-1.9-1.8-4-3.1-5.9
		c-16.6-24.1-33.2-48.1-49.8-72.1c-4.5-6.5-10.1-6.8-17.3-4.8c-48.4,13.3-96.9,26.3-145.4,39.1c-11.6,3.1-11.4,9.5-6.4,18.4
		c15,26.9,29.9,54,45,80.9c4,7.1,8.9,10.6,18,7.3c49.3-18,98.9-35.2,148.4-52.7C932.6,727.5,937.7,725.9,938.4,719.1z"/>
	<path class="st14" d="M913,530.8c0.1-2.4,0.3-4.8,0.4-7.2c11.2,5.5,14.2,15.4,13.3,27.4c0,0-0.2,0.2-0.2,0.2
		C914.6,549.8,913.4,540.6,913,530.8z"/>
	<path class="st14" d="M943.2,570.6c0,0-0.6-0.3-0.6-0.3c-11-1.2-16.6-7.3-16.1-19.1c0,0,0.2-0.2,0.2-0.2
		C939.5,550.8,945.4,557,943.2,570.6z"/>
	<path class="st14" d="M489.8,422.9c-2.1,3.3-5.1,3.5-8.4,2.5C484.2,424.6,487,423.7,489.8,422.9z"/>
	<path class="st14" d="M953.4,575.5c-4.3,0.2-8-0.7-10-5.2C947.8,569.7,951.2,571.3,953.4,575.5z"/>
	<path class="st14" d="M431.9,432.1c-0.1,1.4-0.4,2.7-1,3.9C431.2,434.7,431.6,433.4,431.9,432.1z"/>
	<path class="st14" d="M533,433.2c13.7-3.3,20.2,1.8,25.6,11.7c37.6,68.8,75.5,137.4,113.6,205.9c6.4,11.5,5.4,17.4-8.1,20.6
		c-27.6,6.5-55,14.2-82.5,21.4c-9,2.3-14.9-0.4-19.2-9.8C527.9,607.4,493,532,457.9,456.7c-6.2-13.3-2.3-18.2,10.5-19.1
		C490.8,436.1,513.3,434.5,533,433.2z"/>
	<path class="st14" d="M938.4,719.1c-0.7,6.8-5.8,8.4-10.5,10.1c-49.5,17.6-99.1,34.8-148.4,52.7c-9.1,3.3-14-0.3-18-7.3
		c-15.2-26.9-30-53.9-45-80.9c-5-9-5.2-15.4,6.4-18.4c48.5-12.8,97-25.8,145.4-39.1c7.2-2,12.8-1.6,17.3,4.8
		c16.6,24,33.2,48.1,49.8,72.1C936.6,715,937.4,717.2,938.4,719.1z"/>
	<path class="st14" d="M926.5,551.2c-0.5,11.8,5.1,18,16.1,19.1c8.3,26.9,8.3,26.9-19,35C884,617,884,617,860.5,583.1
		c-7.7-11.1-15.2-22.3-22.9-33.3c-6-8.6-3.3-12.3,6.1-12.4c5.9-0.2,12.2,1.2,17.2-3.7c17.1-6.8,34.4-8.9,52.1-2.9
		C913.4,540.6,914.6,549.8,926.5,551.2z"/>
	<path class="st14" d="M860.9,533.6c-5,4.9-11.3,3.5-17.2,3.7C848.6,532,854.9,533.6,860.9,533.6z"/>
</g>
<g>
	<path class="st5" d="M1735.2,193.2l223.3,270.6c0.6,0.7,1.2,1.5,1.7,2.3c10.7,15.2,8,36.3-6.6,48.3L1364.9,1000
		c-14.6,12-35.8,10.6-48.7-2.7c-0.7-0.7-1.3-1.4-1.9-2.1l-223.3-270.6c-0.3-0.3-0.5-0.6-0.8-1c-11.8-15.3-9.4-37.2,5.6-49.6
		l588.7-485.6c15-12.4,37-10.5,49.8,3.9C1734.7,192.6,1734.9,192.9,1735.2,193.2z"/>
	<path class="st2" d="M1734.4,192.3c-12.8-14.5-34.8-16.3-49.8-3.9l-90.4,74.6l-407.9,336.5l-90.4,74.6c-15,12.4-17.4,34.3-5.6,49.6
		c0.2,0.3,0.5,0.6,0.8,1l61.3,74.3l100.7,122.1l0,0l61.3,74.3c0.3,0.3,0.5,0.6,0.8,0.9c0,0,0,0,0,0c0.4,0.4,0.7,0.8,1.1,1.2
		c0,0,0.1,0.1,0.1,0.1c0.1,0.1,0.1,0.1,0.2,0.2c0.3,0.4,0.7,0.7,1.1,1c0.1,0.1,0.2,0.2,0.3,0.3c0.3,0.3,0.6,0.6,0.9,0.8
		c0.2,0.1,0.3,0.3,0.5,0.4c0.3,0.2,0.6,0.5,0.9,0.7c0.2,0.1,0.4,0.3,0.5,0.4c0.3,0.2,0.6,0.4,0.8,0.6c0.2,0.1,0.4,0.3,0.6,0.4
		c0.3,0.2,0.5,0.4,0.8,0.5c0.2,0.1,0.4,0.3,0.7,0.4c0.3,0.2,0.5,0.3,0.8,0.5c0.2,0.1,0.5,0.3,0.7,0.4c0.3,0.1,0.5,0.3,0.8,0.4
		c0.2,0.1,0.5,0.2,0.8,0.4c0.3,0.1,0.5,0.2,0.8,0.4c0.3,0.1,0.5,0.2,0.8,0.3c0.3,0.1,0.5,0.2,0.8,0.3c0.3,0.1,0.5,0.2,0.8,0.3
		c0.3,0.1,0.5,0.2,0.8,0.3c0.3,0.1,0.6,0.2,0.8,0.3c0.3,0.1,0.5,0.2,0.8,0.2c0.3,0.1,0.6,0.2,0.8,0.2c0.3,0.1,0.5,0.1,0.8,0.2
		c0.3,0.1,0.6,0.1,0.9,0.2c0.3,0.1,0.5,0.1,0.8,0.2c0.3,0.1,0.6,0.1,0.9,0.1c0.3,0,0.5,0.1,0.8,0.1c0.3,0,0.6,0.1,0.9,0.1
		c0.3,0,0.5,0.1,0.8,0.1c0.3,0,0.6,0,0.9,0.1c0.3,0,0.5,0,0.8,0c0.3,0,0.6,0,0.9,0c0.3,0,0.5,0,0.8,0c0.3,0,0.6,0,0.9,0
		c0.3,0,0.5,0,0.8,0c0.3,0,0.6,0,0.9,0c0.3,0,0.5,0,0.8-0.1c0.3,0,0.6-0.1,0.9-0.1c0.3,0,0.5-0.1,0.8-0.1c0.3,0,0.6-0.1,0.8-0.1
		c0.3,0,0.5-0.1,0.8-0.1c0.3-0.1,0.6-0.1,0.8-0.2c0.3-0.1,0.5-0.1,0.8-0.2c0.3-0.1,0.5-0.1,0.8-0.2c0.3-0.1,0.5-0.2,0.8-0.2
		c0.3-0.1,0.5-0.2,0.8-0.2c0.3-0.1,0.5-0.2,0.8-0.3c0.3-0.1,0.5-0.2,0.8-0.3c0.3-0.1,0.5-0.2,0.8-0.3c0.3-0.1,0.5-0.2,0.8-0.3
		c0.3-0.1,0.6-0.2,0.8-0.4c0.2-0.1,0.5-0.2,0.7-0.3c0.3-0.1,0.6-0.3,0.8-0.4c0.2-0.1,0.5-0.2,0.7-0.4c0.3-0.2,0.6-0.3,0.8-0.5
		c0.2-0.1,0.4-0.3,0.7-0.4c0.3-0.2,0.6-0.4,0.9-0.6c0.2-0.1,0.4-0.3,0.6-0.4c0.3-0.2,0.6-0.4,1-0.7c0.2-0.1,0.3-0.2,0.5-0.3
		c0.5-0.3,0.9-0.7,1.4-1.1l0,0l0,0l90.4-74.6L1863.2,589l90.4-74.6c0.5-0.4,0.9-0.8,1.3-1.2c0.1-0.1,0.3-0.3,0.4-0.4
		c0.3-0.3,0.6-0.5,0.9-0.8c0.2-0.2,0.3-0.3,0.5-0.5c0.2-0.3,0.5-0.5,0.7-0.8c0.2-0.2,0.3-0.4,0.5-0.6c0.2-0.3,0.4-0.5,0.6-0.8
		c0.2-0.2,0.3-0.4,0.5-0.6c0.2-0.3,0.4-0.5,0.6-0.8c0.2-0.2,0.3-0.4,0.5-0.6c0.2-0.3,0.4-0.5,0.5-0.8c0.1-0.2,0.3-0.4,0.4-0.7
		c0.2-0.3,0.3-0.5,0.5-0.8c0.1-0.2,0.3-0.5,0.4-0.7c0.1-0.3,0.3-0.5,0.4-0.8c0.1-0.2,0.3-0.5,0.4-0.7c0.1-0.3,0.3-0.5,0.4-0.8
		c0.1-0.2,0.2-0.5,0.3-0.7c0.1-0.3,0.2-0.5,0.4-0.8c0.1-0.3,0.2-0.5,0.3-0.8c0.1-0.3,0.2-0.5,0.3-0.8c0.1-0.3,0.2-0.5,0.3-0.8
		c0.1-0.3,0.2-0.5,0.3-0.8c0.1-0.3,0.2-0.5,0.2-0.8c0.1-0.3,0.2-0.5,0.2-0.8c0.1-0.3,0.1-0.5,0.2-0.8c0.1-0.3,0.1-0.5,0.2-0.8
		c0.1-0.3,0.1-0.5,0.2-0.8c0.1-0.3,0.1-0.5,0.1-0.8c0-0.3,0.1-0.5,0.1-0.8c0-0.3,0.1-0.5,0.1-0.8c0-0.3,0.1-0.6,0.1-0.8
		c0-0.3,0.1-0.5,0.1-0.8c0-0.3,0-0.6,0.1-0.8c0-0.3,0-0.5,0-0.8c0-0.3,0-0.6,0-0.8c0-0.3,0-0.6,0-0.8c0-0.3,0-0.6,0-0.8
		c0-0.3,0-0.6,0-0.8c0-0.3,0-0.6-0.1-0.8c0-0.3-0.1-0.6-0.1-0.8c0-0.3-0.1-0.5-0.1-0.8c0-0.3-0.1-0.6-0.1-0.8c0-0.3-0.1-0.5-0.1-0.8
		c-0.1-0.3-0.1-0.6-0.2-0.8c-0.1-0.3-0.1-0.5-0.2-0.8c-0.1-0.3-0.1-0.6-0.2-0.9c-0.1-0.3-0.1-0.5-0.2-0.8c-0.1-0.3-0.2-0.6-0.3-0.9
		c-0.1-0.2-0.1-0.5-0.2-0.7c-0.1-0.3-0.2-0.6-0.3-0.9c-0.1-0.2-0.2-0.5-0.3-0.7c-0.1-0.3-0.2-0.6-0.4-0.9c-0.1-0.2-0.2-0.4-0.3-0.7
		c-0.1-0.3-0.3-0.6-0.4-1c-0.1-0.2-0.2-0.4-0.3-0.6c-0.2-0.3-0.4-0.7-0.5-1c-0.1-0.2-0.2-0.3-0.3-0.5c-0.2-0.4-0.4-0.7-0.6-1.1
		c-0.1-0.1-0.2-0.3-0.2-0.4c-0.3-0.4-0.5-0.8-0.8-1.2c-0.1-0.1-0.1-0.1-0.1-0.2c0,0,0-0.1-0.1-0.1c-0.3-0.4-0.6-0.9-1-1.3
		c0,0,0,0,0,0c-0.2-0.3-0.5-0.6-0.8-1l0,0l-61.3-74.3l-100.7-122.1l-61.3-74.3C1734.9,192.9,1734.7,192.6,1734.4,192.3z
		 M1873.7,420.1c-7.8,12.8-14.2,27-18.9,42.4c-9.8,31.8-10.7,63.8-4.3,91.8l-426.8,352.1c-26.3-11.6-57.8-16.7-90.9-13.2
		c-19.2,2.1-37.3,6.9-53.6,13.8L1171,775.8c9.9-14.7,18.1-31.5,23.8-50c9.8-31.9,10.7-63.9,4.3-91.9l426.7-352
		c26.3,11.6,57.9,16.8,91.1,13.3c16-1.7,31.2-5.3,45.3-10.5L1873.7,420.1z"/>
	<path class="st8" d="M1516.1,747.1c-5.1,0-10.2-0.2-15.4-0.7c-42-4-80-24.2-106.9-56.8c-55.5-67.2-45.9-167.1,21.4-222.6
		c67.2-55.5,167.1-45.9,222.6,21.4c26.9,32.6,39.5,73.7,35.4,115.7c-4,42-24.2,80-56.8,106.9
		C1587.9,734.5,1552.7,747.1,1516.1,747.1z M1515.7,435.7c-34.4,0-68.9,11.5-97.4,35c-31.6,26.1-51.1,62.9-55,103.6
		c-3.9,40.8,8.3,80.6,34.3,112.2c26.1,31.6,62.9,51.1,103.6,55c40.8,3.9,80.6-8.3,112.2-34.3c31.6-26.1,51.1-62.9,55-103.6
		c3.9-40.8-8.3-80.6-34.3-112.2l0,0C1603.8,454.7,1559.9,435.7,1515.7,435.7z"/>
	<circle class="st2" cx="1515.8" cy="588.9" r="136.2"/>
	<path class="st11" d="M1559.8,665.4c-15.5,11.7-32.7,20.2-51.5,25.6l-28.1-34c11.2-2.5,22.6-6.2,34.1-11.2
		c11.5-5,20.8-10.3,27.8-16.1c5.8-4.8,9.5-9,11-12.6c1.5-3.6,1-7.1-1.7-10.4c-1.9-2.3-4.4-3.4-7.6-3.3c-3.2,0-8,0.9-14.1,2.7
		c-6.2,1.8-14.3,4.4-24.3,8c-11.3,3.9-21.3,6.1-29.9,6.5c-8.6,0.4-16.2-0.9-22.7-3.8c-6.5-2.9-12.8-8.1-18.9-15.5
		c-9.3-11.3-12.9-23.1-10.9-35.4c2-12.3,9.6-25.2,22.9-38.6l-18.7-22.7l21.2-17.5l18.6,22.5c14.2-10.5,30.7-18.4,49.3-23.8
		l11.9,39.2c-19.6,5.4-35.1,12.8-46.6,22.2c-5.5,4.5-8.8,8.3-9.9,11.5c-1.1,3.2-0.6,6,1.5,8.6c1.9,2.3,4.2,3.5,7,3.6
		c2.8,0.1,6.9-0.5,12.4-2c5.5-1.5,12.7-3.9,21.7-7.3c18.4-6.7,33.4-9.4,45-8.1c11.5,1.3,21.5,7.1,29.9,17.3
		c9.5,11.5,13.5,23.8,12.2,37c-1.4,13.2-8.3,26.4-20.8,39.5l22.6,27.4l-21.2,17.5L1559.8,665.4z"/>
</g>
<path class="st11" d="M1615.1,1005.5c-0.1-4.3-4.7-6.5-9-6.3l-19.3,0.5c-2.9-12.1-7.5-21.2-13.4-30.2l0.1-0.4l13.3-14.1
	c3-3.1,2.8-8.1-0.3-11l-24.3-23.1c-3.1-2.9-8-2.8-11,0.3l-13,13.9c-9.6-5.5-18-9.4-30.2-11.5l0-0.1l-0.5-19.3
	c-0.1-4.3-4.1-7.3-8.4-7.1l-33.5,0.9c-4.3,0.1-5.8,3.2-5.7,7.5l0.5,19.3c-12.1,2.9-21.6,7.5-30.6,13.4l-0.5,0l-14.2-13.3
	c-3.1-2.9-8.1-2.8-11.1,0.3l-23.1,24.3c-3,3.1-2.9,8,0.3,11l14,13.8c-5.5,9.6-9.4,18.7-11.5,30.9l-0.1,0l-19.3,0.5
	c-4.3,0.1-6.6,2.6-6.5,6.9l0.9,33.5c0.1,4.3,2.6,7.3,6.8,7.2l19.3-0.5c2.9,12.1,7.4,20.9,13.4,29.9l-0.1,0.2l-13.3,14
	c-3,3.1-2.8,8,0.3,11l24.3,23.1c3.1,2.9,8,2.8,11-0.3l14.1-14c9.6,5.5,19.1,9.4,31.3,11.5l0,0.1l0.5,19.3c0.1,4.3,2,8.1,6.3,8
	l33.5-0.9c4.3-0.1,7.9-4,7.8-8.3l-0.5-19.3c12.1-2.9,20.5-7.4,29.5-13.3l0,0.1l13.9,13.3c3.1,3,8,2.8,10.9-0.3l23.1-24.3
	c3-3.1,2.8-8-0.3-11l-14-13.4c5.5-9.6,9.3-20.8,11.5-30.5l0.1,0l19.3-0.5c4.3-0.1,8.7-3.5,8.6-7.7L1615.1,1005.5z M1532.9,1036.7
	c-0.2,0.8-0.4,1.5-0.6,2.3c-0.3,1.1-0.7,2.3-1.1,3.4c-0.3,0.7-0.6,1.5-0.9,2.2c-0.2,0.5-0.4,1-0.6,1.4c-0.4,0.9-0.9,1.9-1.4,2.8
	c-0.4,0.7-0.8,1.4-1.2,2c-0.3,0.5-0.7,1-1,1.6c-0.3,0.5-0.6,0.9-0.9,1.4c-0.2,0.3-0.5,0.6-0.7,0.9c-0.5,0.6-0.9,1.2-1.4,1.8
	c-0.2,0.3-0.5,0.6-0.7,0.9c-0.5,0.6-1,1.2-1.6,1.7c-0.3,0.3-0.5,0.6-0.8,0.8c-1.1,1.1-2.2,2.1-3.4,3.1c-0.3,0.2-0.6,0.5-0.9,0.7
	c-0.6,0.5-1.2,0.9-1.9,1.4c-0.6,0.4-1.3,0.9-1.9,1.3c-0.3,0.2-0.7,0.4-1,0.6c-0.7,0.4-1.3,0.8-2,1.2c-6.5,3.5-13.9,5.6-21.8,5.8
	c-6.4,0.2-12.5-0.9-18.1-3c-0.5-0.2-1-0.4-1.5-0.6c-0.5-0.2-0.9-0.4-1.4-0.6c-1.4-0.6-2.8-1.3-4.2-2.1c-0.7-0.4-1.3-0.8-2-1.2
	c-0.7-0.4-1.3-0.8-1.9-1.3c-0.3-0.2-0.6-0.5-0.9-0.7c-1.8-1.3-3.5-2.8-5.1-4.4c-1.6-1.6-3.1-3.2-4.4-5c-0.5-0.7-1.1-1.4-1.6-2.2
	c-1.5-2.2-2.9-4.6-4-7c-2.6-5.8-4.2-12.1-4.4-18.9c-0.4-14.2,5.4-27,14.9-36.1c0.8-0.8,1.7-1.6,2.6-2.3c0.3-0.2,0.6-0.5,0.9-0.7
	c0.6-0.5,1.2-0.9,1.9-1.4c1.9-1.3,3.9-2.6,6-3.6c0.7-0.4,1.4-0.7,2.1-1c5.7-2.6,12-4.1,18.7-4.3c7.9-0.2,15.4,1.5,22.1,4.7
	c0.7,0.3,1.4,0.7,2.1,1.1c1,0.6,2,1.1,3,1.8c0.7,0.4,1.3,0.8,1.9,1.3c0.3,0.2,0.6,0.5,0.9,0.7c0.6,0.5,1.2,0.9,1.8,1.4
	c0.9,0.7,1.8,1.5,2.6,2.3c0.6,0.5,1.1,1.1,1.6,1.6c1.3,1.4,2.6,2.9,3.7,4.4c0.5,0.6,0.9,1.3,1.3,1.9c0.4,0.6,0.9,1.3,1.3,2
	c0.6,1,1.2,2,1.7,3.1c3.2,6.2,5.1,13.3,5.3,20.8C1534.2,1028.8,1533.8,1032.8,1532.9,1036.7z"/>
<path class="st4" d="M1472.3,1159.8c-3.5,0-6.5-1.5-8.4-4.4c-1.5-2.2-2.3-5-2.4-8.2l-0.4-15.5c-9-1.9-17.2-5-25.8-9.6l-11.5,11.4
	c-2.3,2.4-5.4,3.7-8.7,3.8c-3.3,0.1-6.5-1.1-8.9-3.4l-24.3-23.1c-5-4.8-5.2-12.7-0.5-17.7l10.8-11.4c-4-6.4-8.1-14.2-11-24.5
	l-15.5,0.4c-6.7,0.2-11.5-4.7-11.7-11.8l-0.9-33.5c-0.2-7,4.2-11.6,11.1-11.8l15.5-0.4c1.9-8.8,4.9-16.7,9.6-25.4l-11.4-11.2
	c-4.9-4.7-5.1-12.6-0.4-17.6l23.1-24.3c2.3-2.4,5.4-3.8,8.8-3.9c3.4-0.1,6.6,1.1,9,3.4l11.7,11c8.2-5.1,16.4-8.7,25.5-11.2
	l-0.4-15.5c-0.2-8.9,5.2-12.2,10.3-12.4l33.5-0.9c3.3-0.1,6.4,1,8.9,3c2.7,2.2,4.3,5.3,4.4,8.8l0.4,15.5c9.4,2.1,16.8,5.2,24.6,9.5
	l10.5-11.2c4.8-5,12.7-5.2,17.7-0.5l24.3,23.1c2.4,2.3,3.8,5.4,3.9,8.8c0.1,3.4-1.1,6.5-3.4,9l-10.9,11.6c5.1,8.3,8.7,16.2,11.1,25
	l15.5-0.4c3.2-0.1,6.3,0.7,8.7,2.3c3.2,2,5.1,5.1,5.1,8.7l0.9,33.5c0.2,7.3-6.7,12.4-13.2,12.6l-15.7,0.4c-2.3,8.9-5.5,17.6-9.4,25
	l11.4,10.9c2.4,2.3,3.8,5.4,3.9,8.7c0.1,3.3-1.1,6.5-3.4,8.9l-23.1,24.3c-2.3,2.4-5.4,3.8-8.7,3.9c-3.3,0.1-6.5-1.1-8.9-3.4
	l-11.3-10.7c-7.3,4.6-14.6,8.3-24.1,10.9l0.4,15.5c0.1,3.3-1.2,6.6-3.5,9.1c-2.4,2.5-5.6,4-8.9,4.1l-33.5,0.9
	C1472.5,1159.8,1472.4,1159.8,1472.3,1159.8z M1433.7,1110.4l3.1,1.8c10.1,5.8,19,9.1,29.7,11l3.8,0.7l0.6,23.2c0,1.3,0.3,2.4,0.7,3
	c0.2,0.2,0.2,0.3,0.7,0.3l33.5-0.9c0.8,0,1.6-0.4,2.2-1.1c0.6-0.7,1-1.5,1-2.4l-0.6-23.1l3.7-0.9c11.4-2.8,19.5-7.1,28-12.7l8.1-5.3
	l-0.6,7.5l12.3,11.7c0.6,0.6,1.3,0.9,2.1,0.8c0.8,0,1.5-0.4,2.1-0.9l23.1-24.3c0.6-0.6,0.8-1.3,0.8-2.1c0-0.8-0.4-1.6-0.9-2.1
	l-16.7-16l1.8-3.2c4.7-8.2,8.6-18.6,11-29.2l0.8-3.6l23-0.6c1.9-0.1,4-1.6,4-2.9l-0.9-33.5c0-0.2,0-0.5-0.7-0.9
	c-0.8-0.5-2.1-0.8-3.4-0.8l-23.1,0.6l-0.9-3.7c-2.5-10.4-6.3-19-12.7-28.7l-1-1.5l0.5-3.6l14.3-15.2c0.6-0.6,0.9-1.4,0.8-2.2
	c0-0.8-0.4-1.6-0.9-2.1l-24.3-23.1c-1.2-1.1-3.1-1.1-4.3,0.1l-15.6,16.7l-3.3-1.9c-9.5-5.4-17.2-9-28.6-11l-3.8-0.7l-0.6-23.2
	c0-0.6-0.3-1.2-0.9-1.7c-0.7-0.6-1.7-0.9-2.6-0.9l-33.5,0.9c-0.5,0-0.7,0.1-0.7,0.1c-0.1,0.1-0.4,0.9-0.4,2.5l0.6,23.1l-3.7,0.9
	c-10.7,2.6-19.6,6.5-29.1,12.7l-1.4,0.9l-3.8-0.3l-15.4-14.4c-0.6-0.6-1.4-0.9-2.2-0.9c-0.8,0-1.6,0.4-2.2,0.9l-23.1,24.3
	c-0.6,0.6-0.9,1.4-0.8,2.2c0,0.8,0.3,1.5,0.9,2.1l16.6,16.4l-1.8,3.2c-6,10.4-9.1,18.9-11,29.4l-0.7,3.8l-23.2,0.6
	c-1.5,0-1.9,0.2-1.9,2.1l0.9,33.5c0.1,2.6,1.2,2.6,2,2.5l23.1-0.6l0.9,3.7c2.5,10.2,6.1,18.4,12.7,28.4l1.3,2l-1.2,3.3l-14,14.8
	c-1.2,1.2-1.1,3.1,0.1,4.3l24.3,23.1c0.6,0.6,1.3,0.8,2.2,0.8c0.8,0,1.5-0.4,2.1-0.9l0.1-0.1L1433.7,1110.4z M1485.9,1078.8
	c-6.3,0-12.6-1.1-18.5-3.3c-0.6-0.2-1.1-0.4-1.7-0.7c-0.5-0.2-1-0.4-1.6-0.7c-1.5-0.7-3.1-1.5-4.6-2.3c-0.7-0.4-1.5-0.9-2.2-1.3
	c-0.7-0.5-1.4-0.9-2.1-1.4c-0.3-0.2-0.7-0.5-1-0.8c-2-1.5-3.8-3.1-5.6-4.8c-1.7-1.7-3.4-3.6-4.9-5.5c-0.6-0.8-1.2-1.6-1.7-2.4
	c-1.7-2.5-3.1-5.1-4.4-7.7c-3-6.5-4.6-13.5-4.8-20.7c-0.4-14.9,5.6-29.4,16.3-39.7c0.9-0.9,1.9-1.7,2.8-2.5c0.3-0.3,0.7-0.5,1-0.8
	c0.7-0.5,1.3-1,2-1.5c2.1-1.5,4.3-2.8,6.6-4c0.8-0.4,1.5-0.8,2.3-1.1c6.5-2.9,13.4-4.5,20.5-4.7c8.4-0.2,16.8,1.6,24.3,5.2
	c0.8,0.4,1.5,0.8,2.3,1.2c1.1,0.6,2.2,1.3,3.3,1.9c0.7,0.5,1.4,0.9,2.1,1.4c0.3,0.2,0.7,0.5,1,0.8c0.7,0.5,1.3,1,2,1.6
	c1,0.8,1.9,1.7,2.9,2.5c0.6,0.6,1.2,1.2,1.8,1.8c1.5,1.5,2.8,3.2,4.1,4.8c0.5,0.7,1,1.4,1.5,2.1c0.5,0.7,0.9,1.4,1.4,2.1
	c0.7,1.1,1.3,2.2,1.9,3.4c3.7,7.1,5.6,14.8,5.8,22.8c0.1,4.5-0.3,8.9-1.3,13.3l0,0c-0.2,0.8-0.4,1.7-0.6,2.5
	c-0.3,1.2-0.8,2.5-1.2,3.7c-0.3,0.8-0.6,1.6-0.9,2.4c-0.2,0.5-0.5,1-0.7,1.6c-0.5,1.1-1,2.1-1.5,3.1c-0.4,0.8-0.8,1.5-1.3,2.2
	c-0.4,0.6-0.7,1.2-1.1,1.7c-0.3,0.5-0.7,1-1,1.5c-0.2,0.3-0.5,0.7-0.7,1c-0.5,0.7-1,1.3-1.6,2c-0.3,0.3-0.5,0.7-0.8,1
	c-0.6,0.6-1.1,1.3-1.7,1.9c-0.3,0.3-0.6,0.6-0.9,0.9c-1.2,1.2-2.5,2.3-3.8,3.4c-0.3,0.3-0.7,0.5-1,0.8c-0.7,0.5-1.3,1-2,1.5
	c-0.7,0.5-1.4,1-2.1,1.4c-0.4,0.2-0.7,0.5-1.1,0.7c-0.7,0.5-1.5,0.9-2.2,1.3c-7.4,4-15.5,6.2-24,6.4
	C1486.8,1078.8,1486.3,1078.8,1485.9,1078.8z M1485.9,982.3c-0.4,0-0.8,0-1.2,0c-5.9,0.1-11.5,1.4-16.8,3.8
	c-0.6,0.3-1.3,0.6-1.9,0.9c-1.9,1-3.7,2.1-5.4,3.3c-0.6,0.4-1.1,0.8-1.7,1.3c-0.3,0.2-0.5,0.4-0.8,0.7c-0.8,0.7-1.6,1.4-2.3,2.1
	c-8.8,8.5-13.7,20.3-13.4,32.6c0.2,5.9,1.5,11.7,3.9,17c1,2.2,2.2,4.3,3.6,6.3c0.5,0.7,0.9,1.3,1.4,2c1.2,1.6,2.6,3.1,4,4.5
	c1.4,1.4,3,2.7,4.6,3.9c0.3,0.2,0.6,0.4,0.8,0.6c0.6,0.4,1.1,0.8,1.7,1.2c0.6,0.4,1.2,0.7,1.8,1.1c1.2,0.7,2.5,1.3,3.7,1.9
	c0.4,0.2,0.8,0.4,1.3,0.5c0.5,0.2,0.9,0.4,1.4,0.5c5.2,1.9,10.7,2.9,16.3,2.7c7-0.2,13.6-1.9,19.7-5.3c0.6-0.3,1.2-0.7,1.8-1.1
	c0.3-0.2,0.6-0.4,0.9-0.6c0.6-0.4,1.2-0.8,1.7-1.2c0.6-0.4,1.1-0.8,1.7-1.3c0.3-0.2,0.5-0.4,0.8-0.7c1.1-0.9,2.1-1.8,3.1-2.8
	c0.2-0.2,0.5-0.5,0.7-0.7c0.5-0.5,1-1,1.4-1.5c0.2-0.3,0.5-0.5,0.7-0.8c0.4-0.5,0.9-1.1,1.3-1.6c0.2-0.3,0.4-0.6,0.6-0.8
	c0.3-0.4,0.6-0.8,0.8-1.2c0.3-0.5,0.6-0.9,0.9-1.4c0.4-0.6,0.7-1.2,1-1.8c0.4-0.8,0.8-1.6,1.3-2.5c0.2-0.4,0.4-0.8,0.6-1.3
	c0.3-0.6,0.5-1.3,0.8-2c0.4-1,0.7-2,1-3c0.2-0.7,0.4-1.4,0.5-2.1l0,0c0.8-3.6,1.2-7.2,1.1-10.9c-0.2-6.6-1.8-12.9-4.8-18.7
	c-0.5-0.9-1-1.9-1.5-2.8c-0.4-0.6-0.7-1.2-1.1-1.8c-0.4-0.6-0.8-1.1-1.2-1.7c-1-1.4-2.2-2.7-3.4-4c-0.5-0.5-1-1-1.5-1.5
	c-0.8-0.7-1.5-1.4-2.3-2.1c-0.5-0.4-1.1-0.9-1.6-1.3c-0.3-0.2-0.6-0.4-0.8-0.6c-0.6-0.4-1.1-0.8-1.7-1.2c-0.9-0.6-1.8-1.1-2.7-1.6
	c-0.6-0.3-1.2-0.7-1.9-1C1498.8,983.8,1492.5,982.3,1485.9,982.3z"/>
<path class="st0" d="M1621.3,804.7c-0.1-1.9-2.1-2.9-4.1-2.9l-8.8,0.2c-1.3-5.5-3.4-9.7-6.1-13.7l0-0.2l6-6.4c1.3-1.4,1.3-3.7-0.1-5
	l-11-10.5c-1.4-1.3-3.6-1.3-5,0.1l-6.2,6.3c-4.4-2.5-10.1-4.3-13.9-5.2v0l0-8.8c0-1.9-1.8-3.3-3.7-3.2l-15.2,0.4
	c-1.9,0-2.6,1.5-2.6,3.4l0.2,8.8c-5.5,1.3-9.8,3.4-13.9,6.1l-0.2,0l-6.5-6c-1.4-1.3-3.7-1.3-5,0.1l-10.5,11c-1.3,1.4-1.3,3.6,0.1,5
	l6.3,6.4c-2.5,4.4-4.3,8.5-5.2,14.2h0l-8.8,0.1c-1.9,0.1-3,1.1-2.9,3.1l0.4,15.2c0.1,1.9,1.2,3.3,3.1,3.2l8.7-0.2
	c1.3,5.5,3.4,9.5,6.1,13.6l0,0.1l-6,6.4c-1.3,1.4-1.3,3.7,0.1,5l11,10.5c1.4,1.3,3.6,1.3,5-0.1l6.2-6.4c4.4,2.5,8.2,4.3,14,5.2v0
	l0.4,8.8c0.1,1.9,1,3.7,2.9,3.6l15.3-0.4c1.9,0,3.6-1.8,3.6-3.8l-0.6-8.8c5.5-1.3,9.1-3.4,13-6.1v0l6.8,6c1.4,1.3,3.8,1.3,5.2-0.1
	l10.6-11c1.3-1.4,1.3-3.6-0.1-5l-6.3-5.9c2.5-4.4,4.3-9.9,5.3-13.7h0l8.8-0.4c1.9,0,4-1.6,3.9-3.6L1621.3,804.7z M1583.9,818.9
	c-0.1,0.4-0.2,0.7-0.3,1c-0.1,0.5-0.3,1-0.5,1.5c-0.1,0.3-0.3,0.7-0.4,1c-0.1,0.2-0.2,0.4-0.3,0.6c-0.2,0.4-0.4,0.9-0.6,1.3
	c-0.2,0.3-0.3,0.6-0.5,0.9c-0.1,0.2-0.3,0.5-0.5,0.7c-0.1,0.2-0.3,0.4-0.4,0.6c-0.1,0.1-0.2,0.3-0.3,0.4c-0.2,0.3-0.4,0.6-0.6,0.8
	c-0.1,0.1-0.2,0.3-0.3,0.4c-0.2,0.3-0.5,0.5-0.7,0.8c-0.1,0.1-0.2,0.3-0.4,0.4c-0.5,0.5-1,1-1.6,1.4c-0.1,0.1-0.3,0.2-0.4,0.3
	c-0.3,0.2-0.6,0.4-0.8,0.6c-0.3,0.2-0.6,0.4-0.9,0.6c-0.2,0.1-0.3,0.2-0.5,0.3c-0.3,0.2-0.6,0.4-0.9,0.5c-3,1.6-6.3,2.6-9.9,2.7
	c-2.9,0.1-5.7-0.4-8.2-1.4c-0.2-0.1-0.5-0.2-0.7-0.3c-0.2-0.1-0.4-0.2-0.6-0.3c-0.6-0.3-1.3-0.6-1.9-1c-0.3-0.2-0.6-0.4-0.9-0.5
	c-0.3-0.2-0.6-0.4-0.9-0.6c-0.1-0.1-0.3-0.2-0.4-0.3c-0.8-0.6-1.6-1.3-2.3-2c-0.7-0.7-1.4-1.5-2-2.3c-0.2-0.3-0.5-0.7-0.7-1
	c-0.7-1-1.3-2.1-1.8-3.2c-1.2-2.6-1.9-5.5-2-8.6c-0.2-6.4,2.5-12.3,6.8-16.4c0.4-0.4,0.8-0.7,1.2-1c0.1-0.1,0.3-0.2,0.4-0.3
	c0.3-0.2,0.6-0.4,0.8-0.6c0.9-0.6,1.8-1.2,2.7-1.7c0.3-0.2,0.6-0.3,1-0.5c2.6-1.2,5.5-1.9,8.5-1.9c3.6-0.1,7,0.7,10,2.1
	c0.3,0.2,0.6,0.3,0.9,0.5c0.5,0.3,0.9,0.5,1.4,0.8c0.3,0.2,0.6,0.4,0.9,0.6c0.1,0.1,0.3,0.2,0.4,0.3c0.3,0.2,0.6,0.4,0.8,0.6
	c0.4,0.3,0.8,0.7,1.2,1c0.3,0.2,0.5,0.5,0.7,0.7c0.6,0.6,1.2,1.3,1.7,2c0.2,0.3,0.4,0.6,0.6,0.9c0.2,0.3,0.4,0.6,0.6,0.9
	c0.3,0.5,0.5,0.9,0.8,1.4c1.5,2.8,2.3,6,2.4,9.4C1584.5,815.3,1584.3,817.1,1583.9,818.9z"/>
<path class="st6" d="M1556.4,874.8c-1.6,0-2.9-0.7-3.8-2c-0.7-1-1.1-2.3-1.1-3.7l-0.2-7.1c-4.1-0.9-7.8-2.3-11.7-4.3l-5.2,5.2
	c-1,1.1-2.4,1.7-4,1.7c-1.5,0-3-0.5-4.1-1.6l-11-10.5c-2.3-2.2-2.4-5.8-0.2-8l4.9-5.2c-1.8-2.9-3.7-6.5-5-11.1l-7,0.2
	c-3.1,0.1-5.2-2.1-5.3-5.4l-0.4-15.2c-0.1-3.2,1.9-5.3,5-5.4l7.1-0.2c0.9-4,2.2-7.6,4.3-11.5l-5.2-5.1c-2.2-2.1-2.3-5.7-0.2-8
	l10.5-11c1-1.1,2.5-1.7,4-1.8c1.5,0,3,0.5,4.1,1.6l5.3,5c3.7-2.3,7.5-3.9,11.6-5.1l-0.2-7c-0.1-4.1,2.4-5.6,4.7-5.6l15.2-0.4
	c1.5,0,2.9,0.4,4,1.4c1.2,1,1.9,2.4,2,4l0.2,7.1c4.3,0.9,7.6,2.4,11.2,4.3l4.8-5.1c2.2-2.3,5.8-2.4,8-0.2l11,10.5
	c1.1,1,1.7,2.5,1.8,4c0,1.5-0.5,3-1.6,4.1l-4.9,5.3c2.3,3.8,3.9,7.4,5.1,11.4l7-0.2c1.4,0,2.8,0.3,4,1c1.5,0.9,2.3,2.3,2.3,4
	l0.4,15.2c0.1,3.3-3,5.6-6,5.7l-7.1,0.2c-1,4.1-2.5,8-4.3,11.3l5.2,4.9c1.1,1,1.7,2.4,1.8,4c0,1.5-0.5,3-1.6,4.1l-10.5,11
	c-1,1.1-2.5,1.7-4,1.8c-1.5,0-3-0.5-4.1-1.6l-5.1-4.9c-3.3,2.1-6.6,3.7-10.9,5l0.2,7c0,1.5-0.5,3-1.6,4.1c-1.1,1.1-2.5,1.8-4,1.9
	l-15.2,0.4C1556.4,874.8,1556.4,874.8,1556.4,874.8z M1538.8,852.4l1.4,0.8c4.6,2.6,8.6,4.1,13.5,5l1.7,0.3l0.3,10.6
	c0,0.6,0.1,1.1,0.3,1.4c0.1,0.1,0.1,0.1,0.3,0.1l15.2-0.4c0.4,0,0.7-0.2,1-0.5c0.3-0.3,0.5-0.7,0.4-1.1l-0.3-10.5l1.7-0.4
	c5.2-1.3,8.9-3.2,12.7-5.8l3.7-2.4l-0.3,3.4l5.6,5.3c0.3,0.3,0.6,0.4,1,0.4c0.4,0,0.7-0.2,0.9-0.4l10.5-11c0.3-0.3,0.4-0.6,0.4-1
	c0-0.4-0.2-0.7-0.4-1l-7.6-7.3l0.8-1.5c2.1-3.7,3.9-8.4,5-13.3l0.4-1.6l10.5-0.3c0.9,0,1.8-0.7,1.8-1.3l-0.4-15.2
	c0-0.1,0-0.2-0.3-0.4c-0.4-0.2-1-0.4-1.5-0.4l-10.5,0.3l-0.4-1.7c-1.1-4.7-2.9-8.7-5.8-13.1l-0.5-0.7l0.2-1.6l6.5-6.9
	c0.3-0.3,0.4-0.6,0.4-1c0-0.4-0.2-0.7-0.4-1l-11-10.5c-0.5-0.5-1.4-0.5-1.9,0l-7.1,7.6l-1.5-0.9c-4.3-2.5-7.8-4.1-13-5l-1.7-0.3
	l-0.3-10.6c0-0.3-0.1-0.5-0.4-0.8c-0.3-0.3-0.8-0.4-1.2-0.4l-15.2,0.4c-0.2,0-0.3,0-0.3,0c0,0-0.2,0.4-0.2,1.2l0.3,10.5l-1.7,0.4
	c-4.8,1.2-8.9,3-13.2,5.8l-0.6,0.4l-1.7-0.2l-7-6.5c-0.3-0.3-0.6-0.4-1-0.4c-0.4,0-0.7,0.2-1,0.4l-10.5,11c-0.3,0.3-0.4,0.6-0.4,1
	c0,0.4,0.2,0.7,0.4,0.9l7.6,7.5l-0.8,1.4c-2.7,4.7-4.2,8.6-5,13.3l-0.3,1.7l-10.6,0.3c-0.7,0-0.9,0.1-0.8,0.9l0.4,15.2
	c0,1.2,0.6,1.2,0.9,1.2l10.5-0.3l0.4,1.7c1.1,4.6,2.8,8.4,5.8,12.9l0.6,0.9l-0.5,1.5l-6.3,6.7c-0.5,0.6-0.5,1.4,0,1.9l11,10.5
	c0.3,0.3,0.6,0.4,1,0.4c0.4,0,0.7-0.2,1-0.4l0,0L1538.8,852.4z M1562.5,838c-2.9,0-5.7-0.5-8.4-1.5c-0.3-0.1-0.5-0.2-0.8-0.3
	c-0.2-0.1-0.5-0.2-0.7-0.3c-0.7-0.3-1.4-0.7-2.1-1.1c-0.3-0.2-0.7-0.4-1-0.6c-0.3-0.2-0.6-0.4-1-0.6c-0.2-0.1-0.3-0.2-0.5-0.3
	c-0.9-0.7-1.7-1.4-2.5-2.2c-0.8-0.8-1.5-1.6-2.2-2.5c-0.3-0.4-0.5-0.7-0.8-1.1c-0.8-1.1-1.4-2.3-2-3.5c-1.4-3-2.1-6.1-2.2-9.4
	c-0.2-6.8,2.5-13.3,7.4-18c0.4-0.4,0.9-0.8,1.3-1.2c0.1-0.1,0.3-0.2,0.5-0.4c0.3-0.2,0.6-0.5,0.9-0.7c0.9-0.7,1.9-1.3,3-1.8
	c0.3-0.2,0.7-0.3,1.1-0.5c2.9-1.3,6.1-2,9.3-2.1c3.8-0.1,7.6,0.7,11,2.4c0.4,0.2,0.7,0.3,1,0.5c0.5,0.3,1,0.6,1.5,0.9
	c0.3,0.2,0.6,0.4,1,0.6c0.2,0.1,0.3,0.2,0.5,0.3c0.3,0.2,0.6,0.5,0.9,0.7c0.4,0.4,0.9,0.8,1.3,1.1c0.3,0.3,0.6,0.5,0.8,0.8
	c0.7,0.7,1.3,1.4,1.9,2.2c0.2,0.3,0.5,0.6,0.7,0.9c0.2,0.3,0.4,0.6,0.6,1c0.3,0.5,0.6,1,0.9,1.5c1.7,3.2,2.5,6.7,2.6,10.4
	c0.1,2-0.2,4.1-0.6,6l0,0c-0.1,0.4-0.2,0.8-0.3,1.2c-0.2,0.6-0.3,1.1-0.5,1.7c-0.1,0.4-0.3,0.7-0.4,1.1c-0.1,0.2-0.2,0.5-0.3,0.7
	c-0.2,0.5-0.5,1-0.7,1.4c-0.2,0.3-0.4,0.7-0.6,1c-0.2,0.3-0.3,0.5-0.5,0.8c-0.1,0.2-0.3,0.5-0.5,0.7c-0.1,0.2-0.2,0.3-0.3,0.5
	c-0.2,0.3-0.5,0.6-0.7,0.9c-0.1,0.1-0.2,0.3-0.4,0.4c-0.3,0.3-0.5,0.6-0.8,0.9c-0.1,0.1-0.3,0.3-0.4,0.4c-0.5,0.5-1.1,1.1-1.7,1.6
	c-0.1,0.1-0.3,0.2-0.5,0.4c-0.3,0.2-0.6,0.5-0.9,0.7c-0.3,0.2-0.6,0.4-1,0.7c-0.2,0.1-0.3,0.2-0.5,0.3c-0.3,0.2-0.7,0.4-1,0.6
	c-3.4,1.8-7,2.8-10.9,2.9C1563,838,1562.7,838,1562.5,838z M1562.6,794.2c-0.2,0-0.4,0-0.5,0c-2.7,0.1-5.2,0.7-7.7,1.8
	c-0.3,0.1-0.6,0.3-0.9,0.4c-0.8,0.4-1.7,0.9-2.4,1.5c-0.3,0.2-0.5,0.4-0.8,0.6c-0.1,0.1-0.2,0.2-0.4,0.3c-0.4,0.3-0.7,0.6-1.1,0.9
	c-4,3.8-6.2,9.2-6.1,14.8c0.1,2.7,0.7,5.3,1.8,7.7c0.5,1,1,2,1.6,2.9c0.2,0.3,0.4,0.6,0.6,0.9c0.6,0.7,1.2,1.4,1.8,2.1
	c0.6,0.6,1.3,1.2,2.1,1.8c0.1,0.1,0.3,0.2,0.4,0.3c0.3,0.2,0.5,0.4,0.8,0.5c0.3,0.2,0.5,0.3,0.8,0.5c0.6,0.3,1.1,0.6,1.7,0.9
	c0.2,0.1,0.4,0.2,0.6,0.2c0.2,0.1,0.4,0.2,0.6,0.2c2.4,0.9,4.9,1.3,7.4,1.2c3.2-0.1,6.2-0.9,8.9-2.4c0.3-0.2,0.6-0.3,0.8-0.5
	c0.1-0.1,0.3-0.2,0.4-0.3c0.3-0.2,0.5-0.4,0.8-0.5c0.3-0.2,0.5-0.4,0.8-0.6c0.1-0.1,0.2-0.2,0.4-0.3c0.5-0.4,1-0.8,1.4-1.3
	c0.1-0.1,0.2-0.2,0.3-0.3c0.2-0.2,0.4-0.5,0.6-0.7c0.1-0.1,0.2-0.2,0.3-0.4c0.2-0.2,0.4-0.5,0.6-0.8c0.1-0.1,0.2-0.3,0.3-0.4
	c0.1-0.2,0.3-0.4,0.4-0.6c0.1-0.2,0.3-0.4,0.4-0.6c0.2-0.3,0.3-0.5,0.5-0.8c0.2-0.4,0.4-0.7,0.6-1.1c0.1-0.2,0.2-0.4,0.3-0.6
	c0.1-0.3,0.2-0.6,0.4-0.9c0.2-0.5,0.3-0.9,0.4-1.4c0.1-0.3,0.2-0.6,0.2-0.9l0,0c0.4-1.6,0.5-3.3,0.5-5c-0.1-3-0.8-5.9-2.2-8.5
	c-0.2-0.4-0.5-0.8-0.7-1.3c-0.2-0.3-0.3-0.5-0.5-0.8s-0.4-0.5-0.6-0.8c-0.5-0.6-1-1.2-1.5-1.8c-0.2-0.2-0.4-0.5-0.7-0.7
	c-0.3-0.3-0.7-0.6-1.1-0.9c-0.2-0.2-0.5-0.4-0.7-0.6c-0.1-0.1-0.3-0.2-0.4-0.3c-0.3-0.2-0.5-0.4-0.8-0.5c-0.4-0.3-0.8-0.5-1.2-0.7
	c-0.3-0.2-0.6-0.3-0.8-0.4C1568.4,794.8,1565.6,794.2,1562.6,794.2z"/>
<g>
	<path class="st12" d="M1419.6,1147.7c0,43.7-37.6,79-83.9,79H995c-46.3,0-83.9-35.4-83.9-79V320.2c0-43.7,37.6-79,83.9-79h340.8
		c46.3,0,83.9,35.4,83.9,79V1147.7z"/>
	<path class="st16" d="M1227.2,295.2c0,6.7-4.8,12.1-10.7,12.1h-105.4c-5.9,0-10.7-5.4-10.7-12.1l0,0c0-6.7,4.8-12.1,10.7-12.1
		h105.4C1222.4,283,1227.2,288.5,1227.2,295.2L1227.2,295.2z"/>
	<path class="st16" d="M1353,294.7c0,7.7-6.4,14-14.3,14c-7.9,0-14.3-6.2-14.3-14c0-7.7,6.4-13.9,14.3-13.9
		C1346.6,280.7,1353,287,1353,294.7z"/>
	<path class="st16" d="M1296.1,294.4c0.1,4.2-3.3,7.7-7.6,7.8c-4.3,0.1-7.9-3.2-8-7.4c-0.1-4.2,3.3-7.7,7.6-7.8
		C1292.4,286.9,1296,290.2,1296.1,294.4z"/>
	<path class="st16" d="M1274.2,294.2c0.1,4.2-3.3,7.7-7.6,7.8c-4.3,0.1-7.9-3.2-8-7.4c-0.1-4.2,3.3-7.7,7.6-7.8
		C1270.5,286.7,1274.1,290,1274.2,294.2z"/>
	<rect x="932.2" y="339.5" class="st16" width="466.4" height="775.1"/>
	<path class="st16" d="M1219.6,1190h-108.5c-8.3,0-15.2-6.8-15.2-15.2v-14.5c0-8.3,6.8-15.2,15.2-15.2h108.5
		c8.3,0,15.2,6.8,15.2,15.2v14.5C1234.8,1183.2,1228,1190,1219.6,1190z"/>
	<path class="st6" d="M1111.7,1188.7c-8.3,0-15.7-6.7-15.7-15v-14.5c0-8.3,7.4-14.7,15.7-14.7h53.4v-30.7H932.9V338.2h232.3v-32.6
		h-53.4c-5.9,0-10.7-4.8-10.7-11.5c0-6.7,4.8-11.5,10.7-11.5h53.4v-42.2H995.6c-46.3,0-83.9,35.1-83.9,78.8v827.5
		c0,43.7,37.6,78.6,83.9,78.6h169.5v-36.5H1111.7z"/>
	<path class="st9" d="M1101.1,294.1c0,6.7,4.8,11.5,10.7,11.5h53.4v-23h-53.4C1105.9,282.5,1101.1,287.4,1101.1,294.1z"/>
	<rect x="932.9" y="338.2" class="st9" width="232.3" height="775.6"/>
	<path class="st9" d="M1096,1159.2v14.5c0,8.3,7.4,15,15.7,15h53.4v-44.2h-53.4C1103.4,1144.6,1096,1150.9,1096,1159.2z"/>
</g>
<g>
	<path class="st10" d="M1671,902.7c0,19.6-12.4,29.9-26,29.9c-14.3,0-25.5-10.7-25.5-28.3c0-16.7,10.2-29.4,26.3-29.4
		C1661.9,874.8,1671,886.7,1671,902.7z M1635.8,903.7c0,9.8,3.3,16.9,9.7,16.9c6.2,0,9.2-6.3,9.2-16.9c0-9.5-2.6-16.9-9.4-16.9
		C1638.8,886.8,1635.8,894.3,1635.8,903.7z M1646.2,971.8l53.8-96.9h11.8l-53.9,96.9H1646.2z M1738.5,941.6
		c0,19.6-12.4,29.9-26,29.9c-14.1,0-25.4-10.7-25.5-28.3c0-16.7,10.2-29.4,26.3-29.4C1729.4,913.8,1738.5,925.6,1738.5,941.6z
		 M1703.4,942.6c-0.1,9.8,3.2,16.9,9.5,16.9c6.2,0,9.2-6.3,9.2-16.9c0-9.5-2.5-16.9-9.2-16.9
		C1706.3,925.8,1703.4,933.3,1703.4,942.6z"/>
</g>
<g>
	<path class="st10" d="M829.2,859.6c0,12.4-7.9,18.9-16.5,18.9c-9.1,0-16.2-6.8-16.2-17.9c0-10.6,6.5-18.7,16.6-18.7
		C823.5,841.9,829.2,849.4,829.2,859.6z M806.9,860.2c0,6.2,2.1,10.7,6.1,10.7c3.9,0,5.9-4,5.9-10.7c0-6-1.6-10.7-5.9-10.7
		C808.8,849.5,806.9,854.3,806.9,860.2z M813.5,903.4l34.1-61.5h7.5l-34.2,61.5H813.5z M872,884.3c0,12.4-7.9,18.9-16.5,18.9
		c-9,0-16.1-6.8-16.2-17.9c0-10.6,6.5-18.7,16.6-18.7C866.3,866.6,872,874.1,872,884.3z M849.8,884.9c-0.1,6.2,2,10.7,6,10.7
		c3.9,0,5.9-4,5.9-10.7c0-6-1.6-10.7-5.9-10.7C851.6,874.2,849.8,879,849.8,884.9z"/>
</g>
<g>
	<path class="st7" d="M1307.6,903.1c0,4.8-3.8,8.7-8.5,8.7h-271.6c-4.7,0-8.5-3.9-8.5-8.7V606.5c0-4.8,3.8-8.7,8.5-8.7h271.6
		c4.7,0,8.5,3.9,8.5,8.7V903.1z"/>
	<g>
		<path class="st0" d="M1098.6,746.3h-59.8c-1.2,0-2.2,0.5-2.2,1.2v65.8c0,0.6,1,1.2,2.2,1.2h59.8c1.2,0,2.2-0.5,2.2-1.2v-65.8
			C1100.7,746.8,1099.8,746.3,1098.6,746.3z M1095.5,807.9c0,0.5-0.8,1-1.8,1h-50.1c-1,0-1.8-0.4-1.8-1v-55.1c0-0.5,0.8-1,1.8-1
			h50.1c1,0,1.8,0.4,1.8,1V807.9z"/>
	</g>
	<g>
		<path class="st0" d="M1289.4,745.9h-59.8c-1.2,0-2.2,0.5-2.2,1.2v65.8c0,0.6,1,1.2,2.2,1.2h59.8c1.2,0,2.2-0.5,2.2-1.2v-65.8
			C1291.6,746.4,1290.6,745.9,1289.4,745.9z M1286.4,807.5c0,0.5-0.8,1-1.8,1h-50.1c-1,0-1.8-0.4-1.8-1v-55.1c0-0.5,0.8-1,1.8-1
			h50.1c1,0,1.8,0.4,1.8,1V807.5z"/>
	</g>
	<path class="st0" d="M1318.3,911.6c0,3.2-2.6,5.7-5.7,5.7h-298c-3.2,0-5.7-2.6-5.7-5.7V891c0-3.2,2.6-5.7,5.7-5.7h298
		c3.2,0,5.7,2.6,5.7,5.7V911.6z"/>
	<path class="st1" d="M999.1,710.6c0,7-5.5,13-12.6,13c-7.1,0-13-6-13-13c5.4-5.1,9.3-7.4,16.4-7.4
		C996.9,703.3,1000,703.8,999.1,710.6z"/>
	<path class="st13" d="M1024.6,710.6c0.1,7-5.5,13-12.6,13c-7.1,0-13-6-13-13c0-7,5.8-12.2,12.9-12.2
		C1019,698.4,1025.6,703.9,1024.6,710.6z"/>
	<path class="st1" d="M1050.2,710.6c0.1,7-5.4,13-12.5,13c-7.1,0-13-6-13.1-13c-0.1-7,5.8-12.2,12.8-12.2
		C1044.5,698.4,1050.1,703.7,1050.2,710.6z"/>
	<path class="st13" d="M1075.8,710.6c0.1,7-5.5,12.7-12.6,12.7c-7.1,0-12.9-5.7-13-12.6c-0.1-7,5.6-12.6,12.6-12.6
		C1069.9,698,1075.7,703.6,1075.8,710.6z"/>
	<path class="st1" d="M1101.5,711c0.1,7-5.5,12.7-12.6,12.7c-7.1,0-12.9-5.7-13-12.6c-0.1-7,5.5-12.6,12.6-12.6
		C1095.5,698.4,1101.3,704,1101.5,711z"/>
	<path class="st13" d="M1127,711c0.2,7-5.4,12.7-12.5,12.7c-7.1,0-12.9-5.7-13.1-12.6c-0.1-7,5.5-12.6,12.5-12.6
		C1121,698.4,1126.9,704,1127,711z"/>
	<path class="st1" d="M1152.6,711c0.2,7-5.4,12.7-12.4,12.7c-7.1,0-12.9-5.7-13.1-12.6c-0.2-7,5.4-12.6,12.4-12.6
		C1146.5,698.4,1152.4,704,1152.6,711z"/>
	<path class="st13" d="M1178.1,711c0.2,7-5.3,12.6-12.4,12.7c-7.1,0-13-5.7-13.2-12.6c-0.2-7,5.4-12.6,12.4-12.6
		C1172,698.4,1177.9,704,1178.1,711z"/>
	<path class="st1" d="M1203.7,711c0.2,7-5.3,12.6-12.3,12.7c-7.1,0-13-5.7-13.2-12.6c-0.2-7,5.3-12.6,12.3-12.6
		C1197.5,698.4,1203.4,704,1203.7,711z"/>
	<path class="st13" d="M1229.2,711c0.3,7-5.2,12.6-12.3,12.6c-7.1,0-13-5.7-13.2-12.6c-0.2-7,5.3-12.6,12.3-12.6
		C1223,698.4,1228.9,704,1229.2,711z"/>
	<path class="st1" d="M1254.7,710.9c0.3,7-5.2,12.6-12.2,12.6c-7.1,0-13-5.7-13.3-12.6c-0.3-7,5.2-12.6,12.2-12.6
		S1254.4,704,1254.7,710.9z"/>
	<path class="st13" d="M1280.3,710.9c0.3,7-5.1,12.6-12.2,12.6c-7.1,0-13-5.7-13.3-12.6c-0.3-7,5.2-12.6,12.2-12.6
		C1274,698.3,1279.9,704,1280.3,710.9z"/>
	<path class="st1" d="M1305.8,710.9c0.4,7-5.1,12.6-12.1,12.6c-7.1,0-13.1-5.7-13.4-12.6c-0.3-7,5.1-12.6,12.1-12.6
		C1299.4,698.3,1305.4,704,1305.8,710.9z"/>
	<path class="st13" d="M1331.3,710.9c0.4,7-5,12.6-12.1,12.6c-7.1,0-13.1-5.7-13.4-12.6c-0.4-7,5.1-12.6,12.1-12.6
		S1330.9,704,1331.3,710.9z"/>
	<path class="st1" d="M1356.8,710.6c0.4,7-4.9,13-12,13c-7.1,0-13.1-5.7-13.5-12.6c-0.4-7,5-12.6,12-12.6
		C1347.3,700.1,1348.6,705.4,1356.8,710.6z"/>
	<polygon class="st1" points="999.1,710.6 973.5,710.6 1018.3,636.4 1037.6,636.4 	"/>
	<polygon class="st17" points="1024.6,710.6 999.1,710.6 1037.6,636.4 1056.9,636.4 	"/>
	<polygon class="st1" points="1050.6,710.6 1024.7,710.6 1056.9,636.6 1076.2,636.6 	"/>
	<polygon class="st17" points="1075.8,710.8 1050,710.8 1076.2,636.6 1095.5,636.6 	"/>
	<polygon class="st1" points="1101.5,710.8 1075.8,710.8 1095.5,636.6 1115.2,636.6 	"/>
	<polygon class="st17" points="1127,710.8 1101.5,710.8 1114.8,636.6 1134.1,636.6 	"/>
	<polygon class="st17" points="1178,710.8 1152.5,710.8 1153.3,636.6 1172.7,636.6 	"/>
	<polygon class="st1" points="1203.6,710.6 1178,710.6 1172.7,636.6 1192.1,636.6 	"/>
	<polygon class="st17" points="1229.1,710.6 1203.6,710.6 1192,636.4 1211.3,636.4 	"/>
	<polygon class="st1" points="1254.7,710.6 1229.1,710.6 1211.3,636.4 1230.5,636.4 	"/>
	<polygon class="st17" points="1280.2,710.6 1254.7,710.6 1230.5,636.4 1249.8,636.4 	"/>
	<polygon class="st1" points="1305.8,710.6 1280.2,710.6 1249.8,636.4 1269.1,636.4 	"/>
	<polygon class="st17" points="1331.3,710.6 1305.8,710.6 1269.1,636.4 1288.4,636.4 	"/>
	<polygon class="st1" points="1356.8,710.6 1331.3,710.6 1288.4,636.4 1307.6,636.4 	"/>
	<rect x="1018.3" y="628.5" class="st1" width="19.3" height="8.1"/>
	<rect x="1037.6" y="628.5" class="st13" width="19.4" height="8.1"/>
	<rect x="1056.9" y="628.5" class="st1" width="19.4" height="8.1"/>
	<rect x="1076.2" y="628.5" class="st13" width="19.4" height="8.1"/>
	<rect x="1095.5" y="628.5" class="st1" width="19.4" height="8.1"/>
	<rect x="1114.8" y="628.5" class="st13" width="19.4" height="8.1"/>
	<rect x="1134.1" y="628.5" class="st1" width="19.4" height="8.1"/>
	<rect x="1153.3" y="628.5" class="st13" width="19.4" height="8.1"/>
	<rect x="1172.7" y="628.5" class="st1" width="19.4" height="8.1"/>
	<rect x="1192.1" y="628.5" class="st13" width="19.4" height="8.1"/>
	<rect x="1211.3" y="628.5" class="st1" width="19.4" height="8.1"/>
	<rect x="1230.6" y="628.5" class="st13" width="19.4" height="8.1"/>
	<rect x="1249.8" y="628.5" class="st1" width="19.4" height="8.1"/>
	<rect x="1269.2" y="628.5" class="st13" width="19.4" height="8.1"/>
	<rect x="1288.5" y="628.5" class="st1" width="19.1" height="8.1"/>
	<path class="st0" d="M1312.2,628.7h-297.7c-1,0-1.7-0.8-1.7-1.8v-16.4c0-1,0.8-1.7,1.7-1.7h297.7c1,0,1.7,0.8,1.7,1.7V627
		C1313.9,627.9,1313.1,628.7,1312.2,628.7z"/>
	<polygon class="st1" points="1152.6,710.6 1127,710.8 1134.1,636.6 1153.3,636.6 	"/>
	<g>
		<path class="st0" d="M1196.3,776.3H1127c-1.4,0-2.5,0.8-2.5,1.9v105.2c0,1,1.1,1.9,2.5,1.9h69.3c1.4,0,2.5-0.8,2.5-1.9V778.2
			C1198.8,777.1,1197.7,776.3,1196.3,776.3z M1190.8,828.2c0,0.4-0.9,0.8-2,0.8h-54.3c-1.1,0-2-0.3-2-0.8v-43.6c0-0.4,0.9-0.8,2-0.8
			h54.3c1.1,0,2,0.3,2,0.8V828.2z"/>
	</g>
	<circle class="st17" cx="1160.6" cy="811.1" r="2"/>
	
		<rect x="1154.3" y="808.7" transform="matrix(0.7076 0.7066 -0.7066 0.7076 914.5278 -577.5425)" class="st17" width="1.8" height="15.3"/>
	
		<rect x="1165" y="808.7" transform="matrix(-0.7074 0.7068 -0.7068 -0.7074 2567.6458 569.7248)" class="st17" width="1.8" height="15.3"/>
	<rect x="1143.7" y="820.9" class="st1" width="35.3" height="11.6"/>
	<rect x="1032.8" y="812.9" class="st15" width="71.8" height="5.4"/>
	<rect x="1223.6" y="812.9" class="st15" width="71.8" height="5.4"/>
</g>
<g>
	<g>
		<g>
			<path class="st11" d="M875.5,1021.4c4.8,0,7.7,3.8,6.4,8.5L850,1144.1c-1.5,5.4-6.6,9.1-12.3,9.1H703.1c-5.8,0-10.8-3.7-12.3-9.1
				l-31.9-114.2c-1.3-4.7,1.6-8.5,6.4-8.5H875.5z M817.1,1119.8c-0.8,4.8,2.4,8.7,7,8.7s9.3-3.9,10.4-8.6l12.3-55.3
				c1-4.7-2.1-8.6-6.9-8.6h-3.6c-4.8,0-9.4,3.9-10.2,8.7L817.1,1119.8z M781.4,1119.7c-0.2,4.8,3.5,8.8,8.1,8.8s8.8-3.9,9.3-8.8
				l5.4-55c0.5-4.8-3.1-8.8-7.9-8.8h-3.6c-4.8,0-9,4-9.1,8.8L781.4,1119.7z M745.7,1119.7c0.4,4.8,4.5,8.8,9.2,8.8s8.3-4,8.2-8.8
				l-1.4-54.9c-0.1-4.8-4.2-8.8-9-8.8h-3.6c-4.8,0-8.5,4-8.1,8.8L745.7,1119.7z M710.1,1119.9c1,4.7,5.6,8.6,10.2,8.6
				c4.6,0,7.9-3.9,7.2-8.7l-8.2-55.1c-0.7-4.8-5.3-8.7-10.1-8.7h-3.6c-4.8,0-8,3.9-7,8.6L710.1,1119.9z"/>
		</g>
	</g>
	<path class="st11" d="M687.9,1030.7L687.9,1030.7c-1.3-1.6-1.2-4,0.2-5.4l79.2-83.2c1.4-1.4,3.5-1.3,4.8,0.2l0,0
		c1.3,1.6,1.2,4-0.2,5.4l-79.2,83.2C691.3,1032.4,689.2,1032.3,687.9,1030.7z"/>
	<path class="st11" d="M857.5,1029.9L857.5,1029.9c1.5-1.2,1.9-3.6,0.8-5.4l-65.9-105.4c-1.1-1.7-3.2-2.1-4.7-0.9l0,0
		c-1.5,1.2-1.9,3.6-0.8,5.4l65.9,105.4C853.8,1030.8,856,1031.2,857.5,1029.9z"/>
</g>
</svg>
