<?xml version="1.0" encoding="utf-8"?>
<!-- Generator: Adobe Illustrator 16.0.0, SVG Export Plug-In . SVG Version: 6.00 Build 0)  -->
<!DOCTYPE svg PUBLIC "-//W3C//DTD SVG 1.1//EN" "http://www.w3.org/Graphics/SVG/1.1/DTD/svg11.dtd">
<svg version="1.1" xmlns="http://www.w3.org/2000/svg" xmlns:xlink="http://www.w3.org/1999/xlink" x="0px" y="0px" width="5000px"
	 height="5000px" viewBox="0 0 5000 5000" style="enable-background:new 0 0 5000 5000;" xml:space="preserve">
<style type="text/css">
<![CDATA[
	.st0{fill:#E55957;}
	.st1{opacity:0.11;}
	.st2{opacity:0.29;}
	.st3{opacity:0.38;}
	.st4{opacity:0.46;}
	.st5{opacity:0.57;}
	.st6{opacity:0.69;}
	.st7{opacity:0.78;}
	.st8{opacity:0.85;}
	.st9{opacity:0.93;}
	.st10{fill:#EBC199;}
	.st11{fill:#1F8BC3;}
	.st12{display:inline;fill:#263238;}
	.st13{opacity:5.000000e-002;}
	.st14{fill:#28353A;}
	.st15{fill:#F6F4F4;}
	.st16{fill:#C3977A;}
	.st17{fill:#2E3D42;}
	.st18{opacity:0.2;}
	.st19{fill:#FEE2CA;}
	.st20{fill:#FFFFFF;}
	.st21{fill:none;}
	.st22{display:none;}
	.st23{fill:#787B7F;}
]]>
</style>
<g id="Layer_1" class="st22">
	<rect class="st12" width="5000" height="5000"/>
</g>
<g id="Layer_2_1_">
	<circle class="st11" cx="4216" cy="2513.3" r="392.5"/>
	<path class="st15" d="M4420.1,2517.6l-31.4-6.9c0.1-20.7-3.6-37.4-9.6-54.4l0.2-0.6l27.1-17.6c6-3.9,7.8-12,3.9-18l-30.2-47.2
		c-3.9-6-11.9-7.8-17.9-3.9l-26.7,17.4c-13.4-12.8-25.4-22.4-44.4-30.7l0-0.1l6.9-31.4c1.5-7-3.8-13.4-10.8-14.9l-54.7-11.9
		c-7-1.5-10.7,2.9-12.2,9.9l-6.9,31.4c-20.7-0.1-38,3.5-54.9,9.5l-0.8-0.3l-17.8-27.2c-3.9-6-12.1-7.8-18.1-4l-47.2,30.2
		c-6,3.9-7.8,11.9-4,17.9l17.2,27.9c-12.8,13.4-22.7,26.6-31,45.5l-0.1,0l-31.4-6.9c-7-1.5-11.7,1.7-13.3,8.7l-11.9,54.7
		c-1.5,7,1.3,12.8,8.3,14.3l31.4,6.9c-0.1,20.7,3.8,36.8,9.8,53.8l-0.2,0.3l-27.1,17.5c-6,3.9-7.8,11.9-3.9,17.9l30.2,47.1
		c3.9,6,11.9,7.8,17.9,3.9l28.5-17.1c13.4,12.8,27.2,22.8,46.1,31.1l0,0.1l-6.9,31.4c-1.5,7,0,13.9,7,15.4l54.7,11.9
		c7,1.5,14.5-3.4,16-10.4l6.9-31.4c20.7,0.1,36.2-3.9,53.2-9.9l0,0.1l17.3,27.1c3.9,6,11.8,7.8,17.9,3.9l47.1-30.2
		c6-3.9,7.8-11.9,3.9-17.9l-17.3-27.3c12.8-13.4,23.4-30,30.9-44.9l0.1,0l31.4,6.9c7,1.5,15.5-2.1,17.1-9.1l11.9-54.7
		C4433.6,2524.5,4427,2519.2,4420.1,2517.6z M4166.8,2578.2c-0.7-0.5-1.4-1-2-1.5c-2.1-1.6-4-3.3-5.9-5.1c-0.9-0.9-1.9-1.8-2.7-2.7
		c-0.9-0.9-1.8-1.9-2.6-2.9c-0.4-0.5-0.8-1-1.2-1.5c-2.4-2.9-4.5-5.9-6.5-9.1c-2-3.2-3.7-6.5-5.2-9.9c-0.6-1.4-1.2-2.8-1.7-4.2
		c-1.6-4.2-2.8-8.6-3.7-13c-2-10.4-2-21.4,0.4-32.4c5-23.1,19.5-41.7,38.5-52.6c1.7-1,3.4-1.9,5.1-2.7c0.6-0.3,1.2-0.6,1.8-0.8
		c1.2-0.5,2.4-1,3.6-1.5c3.6-1.4,7.3-2.6,11.1-3.5c1.3-0.3,2.5-0.6,3.8-0.8c10.3-1.9,21.1-1.9,32,0.5c12.9,2.8,24.4,8.6,34,16.4
		c1,0.8,2,1.7,2.9,2.5c1.4,1.3,2.8,2.7,4.2,4.1c0.9,0.9,1.8,1.9,2.6,2.9c0.4,0.5,0.8,1,1.2,1.5c0.8,1,1.6,2,2.4,3
		c1.2,1.5,2.3,3.1,3.3,4.8c0.7,1.1,1.4,2.2,2,3.3c1.6,2.8,3.1,5.7,4.3,8.7c0.5,1.2,1,2.4,1.4,3.6c0.5,1.2,0.9,2.4,1.3,3.7
		c0.6,1.9,1.1,3.7,1.6,5.6c2.7,11.4,3,23.6,0.3,35.8c-1.5,6.8-3.8,13.2-6.8,19.1c-0.6,1.2-1.2,2.4-1.9,3.5c-1,1.7-2,3.4-3.1,5
		c-0.7,1.1-1.5,2.2-2.3,3.2c-0.5,0.7-1.1,1.4-1.6,2.1c-1.1,1.4-2.2,2.7-3.4,4c-0.9,1-1.8,1.9-2.7,2.8c-0.7,0.7-1.5,1.4-2.2,2.1
		c-0.7,0.6-1.3,1.2-2,1.8c-0.5,0.4-1,0.8-1.5,1.3c-1,0.8-2,1.6-3,2.4c-0.5,0.4-1,0.8-1.6,1.1c-1.1,0.7-2.1,1.5-3.2,2.2
		c-0.5,0.3-1.1,0.7-1.6,1c-2.2,1.3-4.5,2.6-6.8,3.7c-0.6,0.3-1.2,0.6-1.8,0.8c-1.2,0.5-2.4,1-3.6,1.5s-2.4,0.9-3.6,1.3
		c-0.6,0.2-1.2,0.4-1.8,0.6c-1.2,0.4-2.5,0.8-3.7,1.1c-12,3.2-24.8,3.6-37.7,0.8c-10.4-2.3-19.9-6.5-28.1-12.1
		C4168.3,2579.2,4167.5,2578.7,4166.8,2578.2z"/>
	<g>
		<circle class="st11" cx="1890.3" cy="721.5" r="392.5"/>
		<path class="st15" d="M2109.2,549h-437.7c-11,0-20,8.8-20,19.7v258.5c0,10.9,9,19.7,20,19.7h362.6l53.4,47l-3.9-47h25.6
			c11,0,20-8.8,20-19.7V568.7C2129.2,557.9,2120.2,549,2109.2,549z M1760.8,735.7c-18.8,0-34-15.2-34-34c0-18.8,15.2-34,34-34
			c18.8,0,34,15.2,34,34C1794.9,720.4,1779.6,735.7,1760.8,735.7z M1892.7,735.7c-18.8,0-34-15.2-34-34c0-18.8,15.2-34,34-34
			c18.8,0,34,15.2,34,34C1926.7,720.4,1911.5,735.7,1892.7,735.7z M2016.2,735.7c-18.8,0-34-15.2-34-34c0-18.8,15.2-34,34-34
			c18.8,0,34,15.2,34,34C2050.3,720.4,2035,735.7,2016.2,735.7z"/>
	</g>
	<g>
		<circle class="st11" cx="842.6" cy="2529.4" r="392.5"/>
		<g>
			<path class="st15" d="M892.8,2624.4c8.2,10,24.5,10.2,36.4,0.4l0,0c11.9-9.8,14.9-25.8,6.7-35.8l-54.3-66.2
				c-3.7-7.9-47.3,31.1-43.2,35.4L892.8,2624.4z"/>
			<path class="st15" d="M881,2632.5l-0.2-0.2c-1.9-2.3-1.7-5.4,0.3-7.1l59.9-49.1c2-1.6,5.1-1.1,7,1.1l11.3,13.8c0,0,0,0,0,0.1
				l81,98.8c20.6,25.1,22.2,57.8,3.7,73c-18.6,15.2-50.3,7.2-70.8-17.9L881,2632.5L881,2632.5z"/>
			<path class="st15" d="M663,2538.3c53.6,65.3,149.9,74.9,215.3,21.3c65.3-53.6,74.9-149.9,21.3-215.3
				c-53.6-65.3-149.9-74.9-215.3-21.3C619,2376.6,609.5,2473,663,2538.3z M724.1,2538.5c-11.1-6.5-21.3-15.1-30-25.7
				c-39.5-48.2-32.4-119.2,15.7-158.7c23.7-19.4,52.9-27.6,81.1-25.1c29.2,2.5,57.5,16.4,77.6,40.9C908,2418,901,2489,852.8,2528.5
				C815.2,2559.3,763.7,2561.8,724.1,2538.5z"/>
		</g>
	</g>
	<g>
		<circle class="st11" cx="1115.5" cy="1459.9" r="392.5"/>
		<path class="st15" d="M1303.7,1532.4c13.1,0,24.2-2.7,28.7-17.1c18.1-58.2,36.4-116.3,54.2-174.6c4.6-15.2-3.5-25.9-19.2-27.1
			c-4.5-0.3-9.1-0.1-13.6-0.1c-123.1,0-246.2-0.1-369.3,0.2c-10.7,0-16.5-2.7-19.7-13.3c-4.4-14.4-10.6-28.3-15.8-42.5
			c-4.1-11.4-11.6-16.9-24-16.6c-20.2,0.4-40.4-0.2-60.5,0.3c-13.3,0.3-22.1,8.8-21.2,20.4c1,12.4,8.4,19.1,20.9,19.3
			c12.1,0.2,24.3,0.8,36.3-0.2c10.8-0.9,15.6,3.2,19.4,13.3c32.4,85.7,65.2,171.3,98.3,256.7c3.9,10.1,4.2,16.2-5.7,23.7
			c-20,15.2-26,42.3-16.9,65.6c9.2,23.7,32.2,38.4,58.3,37.3c24.7-1,46.5-17.7,52.8-42.3c2.8-10.8,2.2-21.5,3.2-34.4h115.9
			c-0.4,7.4-1.2,13-1.1,19c0.3,26.1,17.6,48.7,43,56.1c24.8,7.2,52.1-3.2,65.7-25.4c11.7-19.2,12.7-39.2,2-59
			c-11.6-21.5-30.6-31.3-54.7-31.4c-64.6-0.1-129.1,0.3-193.7,0.3c-25.9,0-25.9-2-31.4-27.7h16.5
			C1149.3,1533,1226.5,1532.3,1303.7,1532.4z M1235.3,1355.5h104.6c-5.5,19.3-10.4,35.2-16.4,52.2c-1.2,3.5-6.8,7.5-10.5,7.6
			c-26.7,0.7-53.3,0.5-82,0.5C1232.4,1395.3,1233.8,1374.8,1235.3,1355.5z M1229.3,1436.4h85.1c-5.3,16.6-10.1,33.7-15.6,50
			c-0.8,2.2-5.5,4.3-8.4,4.3c-21.1,0.4-42.2,0.3-65.6,0.3C1226.4,1471.5,1227.8,1455.7,1229.3,1436.4z M1264.9,1619.3
			c0.7-10.9,6.9-17.3,18-18.4c10.5-0.3,20,8.3,19.3,18.6c-0.7,10.9-7,17.6-18,18.6C1274.2,1638.9,1264.2,1629.2,1264.9,1619.3z
			 M1204.4,1490.7h-75c-1.5-18.4-2.9-35-4.4-54.3h83.8C1207.3,1455.7,1205.9,1472.3,1204.4,1490.7z M1215.2,1355.5
			c-1.3,16.6-3.5,49.7-3.5,49.7l-0.6,12h-87.2c0,0-3.8-45.1-5.1-61.6H1215.2z M1005,1406.1c-5.5-16.6-12.2-34.1-19.3-50.7h112.3
			c1.7,19.3,3.3,38.6,5.3,61.6H1078c-19.1,0-38.2-0.7-57.3-0.3C1012.6,1417,1007.8,1414.5,1005,1406.1z M1069.4,1618.7
			c-0.1,10.8-9.7,20.3-19.6,19.3c-10.9-1.1-17.2-7.8-17.8-18.7c-0.6-10.3,8.9-19.1,19.4-18.4
			C1062.6,1601.7,1068,1608.7,1069.4,1618.7z M1044.1,1490.5c-2.7-0.1-6.8-2.6-7.8-5c-6.5-15.6-12.4-29.7-19-49h87.3
			c1.5,19.3,3,34.5,4.6,54.2C1086.1,1490.6,1065.1,1490.9,1044.1,1490.5z"/>
	</g>
	<g>
		<circle class="st11" cx="4042.5" cy="1417.1" r="392.5"/>
		<g>
			<g>
				<path class="st15" d="M4218.8,1247.2c-1-1.1-2.1-2.2-3.2-3.3c-0.2-0.2-0.3-0.3-0.5-0.5c-46.2-45.9-107.4-71.2-172.6-71.2
					c-62.7,0-121.8,23.4-167.3,66.2c-1.3,1.2-2.5,2.4-3.8,3.6c-0.7,0.6-1.3,1.3-1.9,1.9c-46.2,46.2-71.7,107.7-71.7,173.1
					c0,65.4,25.5,126.9,71.7,173.1c46.2,46.2,107.7,71.7,173.1,71.7c65.4,0,126.9-25.5,173.1-71.7s71.7-107.7,71.7-173.1
					C4287.3,1353.2,4263,1293.1,4218.8,1247.2z M4080.8,1653.6c-8.8,1.4-17.8,2.4-27,2.8c-3.7,0.2-7.5,0.3-11.3,0.3
					c-3.8,0-7.5-0.1-11.3-0.3c-9.1-0.4-18.1-1.4-27-2.8c-113.2-18.2-200.1-116-201.4-234c0-0.9,0-1.7,0-2.6s0-1.7,0-2.6
					c0.7-66,28.2-125.7,72.2-168.7c1.2-1.2,2.5-2.4,3.8-3.6c34-31.9,77.4-54,125.4-61.7c8.8-1.4,17.8-2.4,27-2.8
					c3.7-0.2,7.5-0.3,11.3-0.3c3.8,0,7.5,0.1,11.3,0.3c9.1,0.4,18.1,1.4,27,2.8c50.5,8.1,95.8,32.1,130.5,66.6
					c1.2,1.2,2.5,2.5,3.7,3.7c41,42.5,66.5,100.2,67.1,163.6c0,0.9,0,1.7,0,2.6s0,1.7,0,2.6
					C4280.9,1537.6,4194,1635.4,4080.8,1653.6z"/>
				<path class="st15" d="M4042.5,1673c-68.3,0-132.6-26.6-180.9-74.9c-48.3-48.3-74.9-112.6-74.9-180.9
					c0-68.3,26.6-132.6,74.9-180.9c0.7-0.7,1.3-1.3,2-2c1.3-1.3,2.7-2.6,4-3.8c47.5-44.6,109.6-69.1,174.9-69.1
					c68.1,0,132.1,26.4,180.3,74.4c0.2,0.2,0.4,0.4,0.6,0.6c1.1,1.1,2.2,2.3,3.3,3.4l0,0c46.2,47.9,71.6,110.9,71.6,177.5
					c0,68.3-26.6,132.6-74.9,180.9C4175.1,1646.4,4110.9,1673,4042.5,1673z M4042.5,1188.6c-3.6,0-7.3,0.1-10.7,0.3
					c-8.6,0.4-17.3,1.3-25.8,2.7c-44.9,7.2-86.2,27.6-119.6,58.8c-1.2,1.1-2.4,2.3-3.6,3.5c-43.7,42.8-68.2,99.9-68.8,160.9
					c0,0.8,0,1.6,0,2.5s0,1.7,0,2.5c1.2,111.6,82,205.5,192.1,223.2c8.5,1.4,17.1,2.3,25.7,2.7c7.1,0.3,14.5,0.3,21.5,0
					c8.6-0.4,17.3-1.3,25.8-2.7l0,0c110.1-17.7,190.9-111.6,192.1-223.2c0-0.8,0-1.6,0-2.5s0-1.7,0-2.5c-0.6-58.4-23.4-113.8-64-156
					c-1.2-1.2-2.3-2.4-3.5-3.6c-34.2-34-77.3-56-124.5-63.6c-8.5-1.4-17.1-2.3-25.7-2.7C4049.8,1188.6,4046.2,1188.6,4042.5,1188.6z
					"/>
			</g>
			<path class="st15" d="M4222.9,1243.3c-1.1-1.1-2.2-2.2-3.3-3.3c-0.2-0.2-0.4-0.4-0.6-0.6l-4-3.8l-3.9,3.8
				c-1.3,1.3-2.5,2.4-3.7,3.5c-13.6,12.7-28.6,23.8-44.7,32.9c-1.6,0.9-3.1,1.7-4.5,2.5c-22.2,12-46,20.2-70.8,24.4
				c-1.5,0.3-3.1,0.5-4.9,0.8c-11.4,1.7-23.1,2.6-34.8,2.6c-15,0-30.1-1.4-44.7-4.3c-1.7-0.3-3.3-0.7-4.9-1
				c-24.3-5.3-47.6-14.4-69.1-27.1c-1.5-0.9-2.9-1.8-4.4-2.6c-15.1-9.4-29.1-20.5-41.7-33c-1.4-1.4-2.5-2.5-3.6-3.6l-3.9-4.1
				l-4.1,3.8c-1.2,1.1-2.5,2.3-3.9,3.7l-4,3.9l3.9,4.1c1.1,1.1,2.2,2.2,3.3,3.4c0.2,0.2,0.3,0.3,0.5,0.5
				c13.8,13.7,29.1,25.8,45.4,35.9c1.6,1,3.1,1.9,4.6,2.8c23,13.5,47.9,23.2,74,28.7c1.9,0.4,3.6,0.8,5.2,1
				c15.5,3,31.4,4.5,47.4,4.5c12.4,0,24.9-0.9,37-2.7c2-0.3,3.7-0.6,5.2-0.8c26.6-4.5,52-13.2,75.7-25.8c1.7-0.9,3.2-1.7,4.7-2.6
				c17.5-9.8,33.9-21.9,48.6-35.7c1.3-1.2,2.6-2.4,3.9-3.7l4-3.9L4222.9,1243.3z"/>
			<path class="st15" d="M4222.8,1582.8c-1.3-1.3-2.6-2.6-3.9-3.7c-14.8-13.9-31.2-25.9-48.6-35.8c-1.5-0.8-3-1.7-4.7-2.6
				c-23.7-12.7-49.2-21.4-75.7-25.8c-1.5-0.3-3.2-0.5-5.2-0.8c-12.1-1.8-24.6-2.7-37-2.7c-16,0-31.9,1.5-47.3,4.4
				c-1.6,0.3-3.3,0.6-5.2,1c-26.1,5.5-51,15.2-74,28.7c-1.5,0.9-3,1.8-4.6,2.8c-16.4,10.1-31.6,22.1-45.4,35.9
				c-0.2,0.2-0.4,0.3-0.5,0.5c-1.1,1.1-2.2,2.2-3.3,3.3l-3.9,4.1l4,3.9c1.4,1.4,2.7,2.6,3.9,3.7l4.1,3.8l3.9-4.1
				c1-1.1,2.2-2.2,3.6-3.6c12.6-12.5,26.6-23.6,41.7-33c1.5-0.9,2.9-1.8,4.4-2.6c21.5-12.7,44.8-21.9,69.1-27.1
				c1.6-0.3,3.2-0.7,4.9-1c14.6-2.8,29.7-4.3,44.7-4.3c11.7,0,23.4,0.9,34.9,2.6c1.7,0.3,3.3,0.5,4.9,0.8
				c24.8,4.3,48.6,12.5,70.8,24.4c1.4,0.7,2.8,1.5,4.4,2.5c16.1,9.1,31.2,20.2,44.7,32.9c1.2,1.1,2.4,2.3,3.7,3.5l3.9,3.8l4-3.8
				c0.2-0.2,0.4-0.4,0.6-0.6c1.1-1.1,2.2-2.2,3.3-3.3l3.9-4.1L4222.8,1582.8z"/>
			<path class="st15" d="M4135.3,1241.5c-24.5-48.3-57.4-75-92.7-75c-35.3,0-68.3,26.6-92.7,75c-23.8,47-36.9,109.3-36.9,175.5
				c0,66.2,13.1,128.5,36.9,175.5c24.5,48.3,57.4,75,92.7,75c35.3,0,68.3-26.6,92.7-75c23.8-47,36.9-109.3,36.9-175.5
				C4172.2,1350.9,4159.1,1288.5,4135.3,1241.5z M4042.5,1651c-30.4,0-59.2-24-81.1-67.5c-22.4-44.4-34.7-103.6-34.7-166.5
				c0-62.9,12.3-122,34.7-166.5c21.9-43.5,50.7-67.5,81.1-67.5c30.4,0,59.2,24,81.1,67.5c22.4,44.4,34.7,103.6,34.7,166.5
				c0,62.9-12.3,122-34.7,166.5C4101.7,1627,4072.9,1651,4042.5,1651z"/>
			<path class="st15" d="M4284.8,1408.8h-484.4c-4.6,0-8.3,4.2-8.3,8.7s3.7,8.7,8.3,8.7h484.4c4.6,0,8.3-4.2,8.3-8.7
				S4289.3,1408.8,4284.8,1408.8z"/>
			<path class="st15" d="M4050.7,1659.7v-484.4c0-4.6-4.2-8.3-8.7-8.3s-8.7,3.7-8.7,8.3v484.4c0,4.6,4.2,8.3,8.7,8.3
				S4050.7,1664.2,4050.7,1659.7z"/>
		</g>
	</g>
	<g>
		<circle class="st11" cx="1094" cy="3569.7" r="392.5"/>
		<g>
			<path class="st20" d="M1233,3763.3H955c-61.8,0-112.4-50.6-112.4-112.4v-162.4c0-61.8,50.6-112.4,112.4-112.4h278
				c61.8,0,112.4,50.6,112.4,112.4v162.4C1345.4,3712.7,1294.8,3763.3,1233,3763.3z"/>
			<polygon class="st11" points="1234.1,3569.7 1006.3,3701.2 1006.3,3438.2 			"/>
		</g>
	</g>
	<g>
		<circle class="st11" cx="3075.1" cy="701.3" r="392.5"/>
		<g>
			<path class="st15" d="M3308.1,488.7c-82.6,88.1-276.9,110.5-276.9,110.5l0.4,74.4l0.2,74.3c0,0,193.4,19.6,276.7,107.2l6.4-182.4
				l-0.2,0l0.2,0L3308.1,488.7z"/>
			<path class="st15" d="M2978.9,779.4l-20.2,70.4l0,0.1l-10.1,35.2l0,0l-7.3,25.5c-3,10.9-14.7,11.4-20.2,10.6l-35.8-4.8
				c-11.1-1.7-27.5-4.5-21.9-20l8.5-23l0,0l4.2-11.2l8.7-23.6l0-0.1l23.3-63c-0.2-2.9,4.9-5,11.6-4.6l46.8,2.7
				C2973.1,773.8,2978.7,776.5,2978.9,779.4z"/>
			<path class="st15" d="M3311.9,726.8l40.2-0.3c1.7,0,3.1-1.4,3.1-3.1l-12.5-54l11.8-54.2c0-1.7-1.4-3.1-3.1-3.1l-40.2,0.3
				c-1.7,0-3.1,1.4-3.1,3.1l0.7,108.2C3308.8,725.4,3310.2,726.8,3311.9,726.8z"/>
			<path class="st15" d="M3016.3,763.9c-1.8-0.5-4-1-6.4-1.4c-33.8-6.4-121.9-8.5-138.2-8.9c-0.8,0-1.4,0-1.9,0c-0.1,0-0.2,0-0.2,0
				c-0.3,0-0.5,0-0.5,0l0.1-8.5l0.8-69.5l-1.9-67.7l-0.3-10.8c0,0,103.6-3.6,140.7-11.4c2.4-0.5,4.6-1,6.4-1.6l0.7,22.6l2,65.7
				l0.1,0l0,1.9l0,1.3h-0.1l-0.9,69L3016.3,763.9z"/>
			<path class="st15" d="M2851.4,674l-0.8,69.5c-2.2-0.2-4.3-0.5-6.4-1c-27.9-5.8-49-30.5-49.2-60.2l-0.1-14.4
				c-0.1-29.5,20.5-54.3,48.1-60.6c2.1-0.5,4.2-0.8,6.4-1.1L2851.4,674z"/>
			<path class="st15" d="M3323.1,848.4c0,7.6-6.1,13.8-13.7,13.9l0,0c-7.6,0-13.8-6.1-13.9-13.7l-1.8-353.6
				c0-7.6,6.1-13.8,13.7-13.9l0,0c7.6,0,13.8,6.1,13.9,13.7L3323.1,848.4z"/>
		</g>
	</g>
	<g>
		<circle class="st11" cx="3950.6" cy="3578.7" r="392.5"/>
		<g>
			<path class="st20" d="M3940,3509.6l-0.3-141.2h162.7V3789h-303.6v-279.5L3940,3509.6z M3777.4,3502.4V3789v21.4h21.4h303.6h21.4
				V3789v-420.6V3347h-21.4h-168.3L3777.4,3502.4z"/>
			<rect x="3829.4" y="3558.3" class="st20" width="234.8" height="18.7"/>
			<rect x="3829.4" y="3632.6" class="st20" width="234.8" height="18.7"/>
			<rect x="3829.4" y="3707.3" class="st20" width="234.8" height="18.7"/>
		</g>
	</g>
</g>
<g id="Layer_3">
	<path class="st16" d="M3151.8,2097.8l173.1-217.9c21.4-32,24.1-65.6,19.4-94.4l0,0c-7.2-44.5-31.9-78-31.9-78
		c-59.2-89.8-129.5-77.4-168.7-60.1c-18.6,8.2-29.5,18-29.5,18l-227,317.3l162.1,258.2L3151.8,2097.8z"/>
	<path class="st10" d="M3558,2679.3c-0.3,4.4-0.5,8.6-0.7,12.7c-0.6,10.3-1.5,20.6-4.7,34.2c0,0-19.3,85.3-57.6,114.5
		c0,0-55.9,73.9-78.4,94.9c-0.6,0.5-1.1,1-1.7,1.5c-0.5,0.4-1,0.8-1.4,1.2c-0.2,0.1-0.3,0.3-0.5,0.4c-0.2,0.1-0.3,0.3-0.5,0.4
		c-0.2,0.1-0.3,0.2-0.4,0.3c-18.2,13.1-73.3,123-73.3,123l-226.1,399.2c0,0-42.1,103.4-211.5,221.4c0,0,0,0,0,0c0,0,0,0-0.1,0.1
		c0,0,0,0,0,0c-2.6,2.3-55.3,49.9-72.9,129.5c-0.1,0.5-0.2,1-0.3,1.6c-0.2,0.7-0.3,1.5-0.5,2.2c-0.2,0.7-0.3,1.5-0.4,2.2
		c-0.3,1.4-0.6,2.9-0.8,4.4c-0.1,0.8-0.3,1.6-0.4,2.3c-5.4,32.4-1.4,73.3-0.4,103c2,59.6,14.3,140.3,31.7,202.3l-41.8,121.1
		l37.1,431.7L1783,4795.9l11.5-598l1.7-469.3c-0.5-18.6-4.2-37.1-10.9-54.5c-18.4-47.5-101.9-205.8-124.6-257.9l401.6-821.7
		c4.8-4.1,9.6-8.6,14.2-13.7l70.6-4.8l206.7-315.9l36.8-56.2h0l97.8-149.5l708.7-823.2c19.8-30.3,53.2-49.2,89.4-49.1
		c28.2,0.1,75.8,8.2,98.1,47.4c18.9,33.2,23,72.9,12.5,109.3c-11.1,38.7-62.2,102.3-121.9,208.7l-367.7,467.5l141.8,225.9
		L2537.6,2955l538.8-671.1l166.5,265.2l-133,171.2l-322.2,395.8l-10.2,28.8c3.9-4.7,462.6-566,532.7-584c0,0,17.6-16,48-27.9
		c88.2-34.4,186.3,21.7,198.6,115.6C3557.9,2657.2,3558.5,2670.1,3558,2679.3z"/>
	<polygon class="st21" points="3095.6,2306.5 3068.9,2264.1 2552.1,2974 	"/>
	<path class="st21" d="M2410.1,2231.7c-28.5,21.7-65.3,42.4-112.7,58.7c0,0-48.6,20-102.4,31.9l-0.1,0.1
		c-2.7,5.3-88.3,175.8-166.2,236.7c-79.2,61.9-40.5,99.6-40.5,99.6s44.6-0.9,87.7-35.7c5.9-4.8,11.8-10.2,17.5-16.3l70.6-5.3
		l208.9-313.9L2410.1,2231.7z"/>
	<path class="st16" d="M3557.3,2692c-0.6,10.3-1.5,20.6-4.7,34.2c0,0-19.3,85.3-57.6,114.5c0,0-55.9,73.9-78.4,94.9
		c-0.6,0.5-1.1,1-1.7,1.5c-0.5,0.4-1,0.8-1.4,1.2c-0.2,0.1-0.3,0.3-0.5,0.4c-0.2,0.1-0.3,0.3-0.5,0.4c-0.2,0.1-0.3,0.2-0.4,0.3
		c-18.2,13.1-73.3,123-73.3,123l-226.1,399.2c0,0-42.1,103.4-211.5,221.4c0,0,0,0,0,0c0,0,0,0-0.1,0.1c0,0,0,0,0,0
		c-2.6,2.1-54.3,43.8-72.9,129.5c-0.1,0.5-0.2,1-0.3,1.6c-0.2,0.7-0.3,1.5-0.5,2.2l-0.4,2.2c-0.3,1.4-0.6,2.9-0.8,4.4
		c-0.1,0.8-0.3,1.6-0.4,2.3c-3-8.1-27.1-67.4-116.5-133.8l-138.3-88.7c0,0-22.3-19.3-13.1-28.1c0,0,52.4,38.6,78.8,40.3
		c0,0,134.9,49.8,242.9-19.5c0,0,89.2-25.1,211.3-196.1c0,0,65.1-88.4,134.9-228.1l124.5-210.3c0,0-102.9,26.7-107.7-11.2l-4.9-58.3
		c0,0,54.9,45,92.7,36.3c0,0,37.1,4.7,84-55.3L3557.3,2692z"/>
	<path class="st16" d="M3442.7,2346.7c119.1-113-3.3-261.1-3.3-261.1c-39.7-46.3-108.9-24.2-108.9-24.2l-254,214.4l59.4,338.5
		L3442.7,2346.7z"/>
	<rect x="1634.9" y="3963.2" class="st20" width="1333.4" height="267.7"/>
	<rect x="1555" y="4206.3" class="st17" width="1502.6" height="793.7"/>
	<rect x="1550.3" y="4206.3" class="st14" width="751.3" height="793.7"/>
	<path class="st23" d="M3160.7,3766.5H2141.5c-98.6,0-178.6-80-178.6-178.6V1395.3c0-98.6,80-178.6,178.6-178.6h1019.3
		c98.6,0,178.6,80,178.6,178.6v2192.6C3339.3,3686.5,3259.4,3766.5,3160.7,3766.5z"/>
	<rect x="2052.2" y="1596.2" class="st20" width="1193.5" height="1834.2"/>
	<path class="st20" d="M2758.6,3625.2h-210.4c-28,0-50.6-22.7-50.6-50.6v-9.8c0-28,22.7-50.6,50.6-50.6h210.4
		c28,0,50.6,22.7,50.6,50.6v9.8C2809.3,3602.5,2786.6,3625.2,2758.6,3625.2z"/>
	<path class="st20" d="M2758.6,1459.9h-210.4c-28,0-50.6-22.7-50.6-50.6v-9.8c0-28,22.7-50.6,50.6-50.6h210.4
		c28,0,50.6,22.7,50.6,50.6v9.8C2809.3,1437.2,2786.6,1459.9,2758.6,1459.9z"/>
	<g>
		<path class="st0" d="M3095.2,3184.8h-892.6c-52.5,0-95.4-42.9-95.4-95.4v-458.9c0-52.5,42.9-95.4,95.4-95.4h892.6
			c52.5,0,95.4,42.9,95.4,95.4v458.9C3190.6,3141.8,3147.7,3184.8,3095.2,3184.8z"/>
		<g>
			<path class="st20" d="M2235.4,2732.9h-64.5c-10.1,0-18.3-8.2-18.3-18.3v-49.4c0-10.1,8.2-18.3,18.3-18.3h64.5
				c10.1,0,18.3,8.2,18.3,18.3v49.4C2253.7,2724.7,2245.4,2732.9,2235.4,2732.9z"/>
			<path class="st20" d="M2235.4,2915.6h-64.5c-10.1,0-18.3-8.2-18.3-18.3v-49.4c0-10.1,8.2-18.3,18.3-18.3h64.5
				c10.1,0,18.3,8.2,18.3,18.3v49.4C2253.7,2907.4,2245.4,2915.6,2235.4,2915.6z"/>
			<path class="st20" d="M2235.4,3098.3h-64.5c-10.1,0-18.3-8.2-18.3-18.3v-49.4c0-10.1,8.2-18.3,18.3-18.3h64.5
				c10.1,0,18.3,8.2,18.3,18.3v49.4C2253.7,3090.1,2245.4,3098.3,2235.4,3098.3z"/>
		</g>
		<g>
			<path class="st20" d="M3136.8,2732.9h-64.5c-10.1,0-18.3-8.2-18.3-18.3v-49.4c0-10.1,8.2-18.3,18.3-18.3h64.5
				c10.1,0,18.3,8.2,18.3,18.3v49.4C3155.1,2724.7,3146.9,2732.9,3136.8,2732.9z"/>
			<path class="st20" d="M3136.8,2915.6h-64.5c-10.1,0-18.3-8.2-18.3-18.3v-49.4c0-10.1,8.2-18.3,18.3-18.3h64.5
				c10.1,0,18.3,8.2,18.3,18.3v49.4C3155.1,2907.4,3146.9,2915.6,3136.8,2915.6z"/>
			<path class="st20" d="M3136.8,3098.3h-64.5c-10.1,0-18.3-8.2-18.3-18.3v-49.4c0-10.1,8.2-18.3,18.3-18.3h64.5
				c10.1,0,18.3,8.2,18.3,18.3v49.4C3155.1,3090.1,3146.9,3098.3,3136.8,3098.3z"/>
		</g>
		<polygon class="st20" points="2783.7,2859.9 2571.5,2982.4 2571.5,2737.4 		"/>
		<path class="st20" d="M2648.9,3073c-117.5,0-213.1-95.6-213.1-213.1s95.6-213.1,213.1-213.1c117.5,0,213.1,95.6,213.1,213.1
			S2766.4,3073,2648.9,3073z M2648.9,2657.9c-111.4,0-202.1,90.6-202.1,202.1s90.6,202.1,202.1,202.1
			c111.4,0,202.1-90.6,202.1-202.1S2760.3,2657.9,2648.9,2657.9z"/>
	</g>
	<path class="st0" d="M3095.2,2459.3h-892.6c-52.5,0-95.4-42.9-95.4-95.4V1905c0-52.5,42.9-95.4,95.4-95.4h892.6
		c52.5,0,95.4,42.9,95.4,95.4v458.9C3190.6,2416.3,3147.7,2459.3,3095.2,2459.3z"/>
	<g>
		<path class="st20" d="M2235.4,2007.4h-64.5c-10.1,0-18.3-8.2-18.3-18.3v-49.4c0-10.1,8.2-18.3,18.3-18.3h64.5
			c10.1,0,18.3,8.2,18.3,18.3v49.4C2253.7,1999.2,2245.4,2007.4,2235.4,2007.4z"/>
		<path class="st20" d="M2235.4,2190.1h-64.5c-10.1,0-18.3-8.2-18.3-18.3v-49.4c0-10.1,8.2-18.3,18.3-18.3h64.5
			c10.1,0,18.3,8.2,18.3,18.3v49.4C2253.7,2181.9,2245.4,2190.1,2235.4,2190.1z"/>
		<path class="st20" d="M2235.4,2372.8h-64.5c-10.1,0-18.3-8.2-18.3-18.3V2305c0-10.1,8.2-18.3,18.3-18.3h64.5
			c10.1,0,18.3,8.2,18.3,18.3v49.4C2253.7,2364.6,2245.4,2372.8,2235.4,2372.8z"/>
	</g>
	<g>
		<path class="st20" d="M3136.8,2007.4h-64.5c-10.1,0-18.3-8.2-18.3-18.3v-49.4c0-10.1,8.2-18.3,18.3-18.3h64.5
			c10.1,0,18.3,8.2,18.3,18.3v49.4C3155.1,1999.2,3146.9,2007.4,3136.8,2007.4z"/>
		<path class="st20" d="M3136.8,2190.1h-64.5c-10.1,0-18.3-8.2-18.3-18.3v-49.4c0-10.1,8.2-18.3,18.3-18.3h64.5
			c10.1,0,18.3,8.2,18.3,18.3v49.4C3155.1,2181.9,3146.9,2190.1,3136.8,2190.1z"/>
		<path class="st20" d="M3136.8,2372.8h-64.5c-10.1,0-18.3-8.2-18.3-18.3V2305c0-10.1,8.2-18.3,18.3-18.3h64.5
			c10.1,0,18.3,8.2,18.3,18.3v49.4C3155.1,2364.6,3146.9,2372.8,3136.8,2372.8z"/>
	</g>
	<g>
		<g>
			<g>
				<circle class="st20" cx="2773.3" cy="2241.2" r="26.4"/>
			</g>
			<g class="st9">
				<circle class="st20" cx="2725.1" cy="2273.4" r="26.4"/>
			</g>
			<g class="st8">
				<circle class="st20" cx="2670.1" cy="2284.4" r="26.4"/>
			</g>
			<g class="st7">
				<circle class="st20" cx="2615.1" cy="2273.4" r="26.4"/>
			</g>
			<g class="st6">
				<circle class="st20" cx="2566.9" cy="2238.5" r="26.4"/>
			</g>
			<g class="st5">
				<circle class="st20" cx="2532.2" cy="2190.6" r="26.4"/>
			</g>
			<g class="st4">
				<circle class="st20" cx="2524.5" cy="2135.2" r="26.4"/>
			</g>
			<g class="st3">
				<circle class="st20" cx="2532.2" cy="2079.8" r="26.4"/>
			</g>
			<g class="st2">
				<circle class="st20" cx="2563.2" cy="2033.9" r="26.4"/>
			</g>
			<g class="st18">
				<circle class="st20" cx="2612.3" cy="2001.7" r="26.4"/>
			</g>
			<g class="st1">
				<circle class="st20" cx="2668.8" cy="1990.7" r="26.4"/>
			</g>
			<g class="st13">
				<circle class="st20" cx="2728.2" cy="2003" r="26.4"/>
			</g>
		</g>
	</g>
	<path class="st10" d="M3526.1,2722.3L3526.1,2722.3c-0.5,2.9-1.9,5.6-4.1,7.6l-107.9,97.7c-8.7,8.6-23,16.1-30.8,21.2
		c-27.5,17.9-63.6,13.7-87.3-9.3c-73.7-71.4-73.3-139.6-69.6-175c0.3-2.5,1-7.2,2.3-13c5.9-25.6,21-48,42.2-62.9l62.6-44.1
		c5.6-4.2,12.8-8.3,19.6-9.8l23-4.3c42.6-4.8,113.4,4.4,143,107.9C3519,2638.3,3532.5,2677.7,3526.1,2722.3z"/>
	<path class="st10" d="M3050.5,1804.6c0,0-47.8,83.5,46.6,175.6c0,0,2.8,3.4,8.2,8c38.8,33.9,96.7,33.9,136.1,0.7l190.2-160.8
		c23.4-19.8,35.3-50.6,30.4-81.3c-0.4-2.5-0.9-4.9-1.5-7.1c-6.4-24-14.2-42.2-31-67.2c-16.8-25-40.1-28.9-93.3-28.5
		c-53.2,0.5-65.6,16.8-101,34.8C3169.5,1712.1,3067.5,1768.3,3050.5,1804.6z"/>
	<path class="st19" d="M3283.6,1897.9l-71.3-132.9c-6.1-11.3-20.3-15.5-31.5-9.2l-71.9,40.5c0,0-55.1,35.5-25.2,113.1
		c0,0,27.5,64.1,95.9,62.8c0,0,27.3-2.5,71.2-30.8l23.4-12.4C3285.3,1923.1,3289.6,1909.1,3283.6,1897.9z"/>
	<path class="st19" d="M3422.2,2725.5l-64.4-95.3c-5.5-8.1-16.6-10.2-24.6-4.5l-51.4,36.3c0,0-39.1,31.2-10.4,87.8
		c0,0,25.8,46.5,77.6,40.2c0,0,20.5-4,51.6-28.9l16.8-11.2C3425.5,2744.5,3427.7,2733.6,3422.2,2725.5z"/>
	<path class="st10" d="M3283.8,2068c-11.6,4.8-22.3,11.5-31.9,19.7l-115.4,97.9c0,0-45.9,37.5-26.7,100.1c0,0,11.4,79.6,88.3,133.7
		c14.8,10.4,32.1,16.9,50,17.7c10.6,0.5,22.5-0.8,34.4-5.8c24.3-10.2,47.2-23.6,65.8-42.5l146.1-148.9c0,0,7.5-118.1-80.4-174
		C3414.1,2066,3361.7,2035.6,3283.8,2068z"/>
	<path class="st19" d="M3356.9,2288.3l-82-121.4c-7-10.4-21.2-13-31.4-5.8l-65.5,46.2c0,0-49.8,39.8-13.2,111.9
		c0,0,32.9,59.2,98.8,51.2c0,0,26.2-5.1,65.8-36.8l21.4-14.3C3361.1,2312.5,3363.9,2298.5,3356.9,2288.3z"/>
	<path class="st10" d="M1959.9,2783.5c-1.6-42.1,6.2-112.3,6.2-112.3s12.4-38.7,62.6-112c55.9-81.6,163.5-231.4,166.2-236.7l0.1-0.1
		c53.7-11.9,102.4-31.9,102.4-31.9c1.2-0.4,2.5-0.8,3.7-1.3c1.6-0.6,3.2-1.2,4.8-1.8c50.9-19.3,93.6-55.6,122-102.1l40.2-65.7
		l12-19.6c20-32.8,26-72.4,16.2-109.6c-11.8-45.1-32.9-78.9-32.9-78.9l-177.8,76.3c-46.3,30.8-190,53-190,53
		c-118.1,20.8-147.2,68.6-147.2,68.6l-212.6,250.5c-114.5,104.7-209.3,325.4-209.3,325.4c-56.6,133,24.9,257.1,24.9,257.1
		c10.1,21.6,51.1,180.3,51.1,180.3c-0.2,22.6,21.5,147.7,29.5,192.9c1.7,9.9,4.1,19.6,7,29.2c7.7,25.6,16.4,63.4,31.7,94.7
		l293.7-584.9C1963.2,2855.5,1960,2784.8,1959.9,2783.5z"/>
	<path class="st19" d="M2261.2,2000.1c0,0-25.6,10.9-0.8,28c0,0,42.6,38.4,124.8-7.8c0,0,77.8-32.3,82.8-83l1-28.6L2261.2,2000.1z"
		/>
	<path class="st16" d="M2467.9,2119.6l-40.2,65.8c-28.4,46.5-71.2,82.8-122.2,102.1c-1.5,0.6-3,1.1-4.5,1.6
		c-1.2,0.4-2.4,0.9-3.7,1.3c0,0-48.6,20-102.4,31.9l-0.1,0.1c-2.7,5.3-100.7,150-166.2,236.7c-53,70.2-67.8,175.3-67.8,175.3
		s-35,24.9-62.1-16.3c-27.1-41.2-3.1-70.2-3.1-70.2s-115.5-53.9-121.9-90.9c0,0,6.4-21.3,90.2,26.1c0,0,28.3,18.4,57.4,18.2
		c0,0,15.7,2.3,35.4-18c8.6-8.9,18.3-16.8,29-23c8.4-4.8,18.1-9.9,26.6-12.8c0,0,9.4-5.3,75.6-96.5c0,0,56.2-83,63.3-123.8
		c0,0-142.3-56.2-129-80.7c0,0,197.4,24.1,316.1-40.1C2338.5,2206.6,2392.5,2175,2467.9,2119.6z"/>
</g>
</svg>
