<?xml version="1.0" encoding="utf-8"?>
<!-- Generator: Adobe Illustrator 16.0.0, SVG Export Plug-In . SVG Version: 6.00 Build 0)  -->
<!DOCTYPE svg PUBLIC "-//W3C//DTD SVG 1.1//EN" "http://www.w3.org/Graphics/SVG/1.1/DTD/svg11.dtd">
<svg version="1.1" id="Layer_1" xmlns="http://www.w3.org/2000/svg" xmlns:xlink="http://www.w3.org/1999/xlink" x="0px" y="0px"
	 width="1400px" height="1400px" viewBox="0 0 1400 1400" enable-background="new 0 0 1400 1400" xml:space="preserve">
<g>
	<path fill-rule="evenodd" clip-rule="evenodd" fill="#224370" d="M551.79,419.299c-3.26,2.268-6.476,4.6-9.787,6.791
		c-14.582,9.646-29.203,19.235-43.788,28.877c-11.262,7.444-22.492,14.938-33.739,22.406c-6.749,4.482-13.5,8.962-20.263,13.423
		c-1.175,0.774-1.893,0.416-2.011-0.915c-0.037-0.425-0.04-0.854-0.043-1.279c-0.007-0.854-0.006-1.708-0.006-2.562
		c0.003-106.838,0.007-213.675,0.01-320.513c0-3.13-0.01-6.26-0.015-9.389c-0.001-0.703-0.087-1.42,0.367-2.079
		c0.916-0.577,1.54,0.142,2.209,0.583c7.243,4.765,14.491,9.524,21.718,14.313c10.188,6.749,20.359,13.525,30.539,20.286
		c14.564,9.671,29.133,19.337,43.696,29.011c13.847,9.197,27.685,18.408,41.535,27.6c14.092,9.352,28.192,18.69,42.29,28.031
		c10.303,6.828,20.625,13.628,30.909,20.484c13.361,8.909,26.695,17.861,40.038,26.798c0.468,0.313,0.959,0.614,1.357,1.004
		c0.341,0.333,0.248,0.829-0.069,1.12c-0.518,0.475-1.102,0.885-1.689,1.274c-13.862,9.173-27.737,18.327-41.59,27.512
		c-13.267,8.797-26.512,17.625-39.768,26.438c-9.582,6.371-19.165,12.741-28.75,19.108c-6.744,4.479-13.487,8.961-20.246,13.42
		c-0.582,0.384-1.273,0.601-1.912,0.896c-1.677,0.441-3.368,0.86-4.114,2.713c-0.293,0.502-0.752,0.756-1.302,0.875
		C555.013,416.053,553.133,417.28,551.79,419.299z"/>
	<path fill-rule="evenodd" clip-rule="evenodd" fill="#224370" d="M1178.506,711.562c-0.611,0.842-1.465,1.37-2.374,1.825
		l0.141-0.096c-0.898,0.6-1.798,1.199-2.699,1.798l0.116-0.078c-14.415,9.625-28.813,19.278-43.253,28.865
		c-12.547,8.33-25.159,16.562-37.717,24.877c-22.511,14.907-44.997,29.853-67.506,44.763c-7.7,5.101-15.45,10.127-23.156,15.22
		c-6.991,4.62-13.951,9.288-20.931,13.927c-0.587,0.391-1.199,0.746-1.823,1.072c-0.513,0.267-1.136-0.146-1.152-0.765
		c-0.03-1.136-0.028-2.272-0.028-3.409c-0.008-105.962-0.013-211.924-0.018-317.885c0-4.692-0.023-9.385-0.004-14.078
		c0.006-1.445,0.506-1.687,1.855-0.932c0.991,0.556,1.969,1.144,2.914,1.773c15.381,10.236,30.742,20.502,46.135,30.719
		c17.637,11.708,35.312,23.359,52.951,35.062c18.707,12.412,37.388,24.861,56.089,37.282c12.188,8.095,24.399,16.158,36.585,24.255
		c10.41,6.917,20.791,13.878,31.203,20.792c8.507,5.648,17.041,11.252,25.558,16.884c0.471,0.31,0.944,0.645,1.321,1.056
		c0.281,0.308,0.403,0.798,0.023,1.14c-0.844,0.754-1.669,1.551-2.604,2.173c-7.687,5.104-15.401,10.163-23.098,15.251
		c-8.176,5.405-16.341,10.827-24.509,16.245c-0.942,0.626-1.82,1.37-2.984,1.569
		C1179.002,710.809,1178.679,711.074,1178.506,711.562z"/>
	<path fill-rule="evenodd" clip-rule="evenodd" fill="#224370" d="M376.356,456.523c-4.663-2.4-8.853-5.55-13.231-8.395
		c-12.091-7.855-24.113-15.813-36.151-23.749c-0.819-0.54-1.543-1.228-2.311-1.846c-0.174-0.21-0.394-0.348-0.66-0.414l-0.105-0.061
		c-0.26-0.547-0.751-0.739-1.299-0.845c-6.061-3.933-12.126-7.859-18.181-11.802c-3.326-2.167-6.648-4.341-9.941-6.558
		c-1.05-0.707-2.001-1.561-2.997-2.348c-0.245-1.313-1.266-1.388-2.301-1.439c-3.952-2.512-7.934-4.978-11.85-7.544
		c-12.601-8.261-25.186-16.547-37.762-24.845c-11.389-7.516-22.759-15.06-34.138-22.593c-9.597-6.354-19.201-12.698-28.789-19.068
		c-3.5-2.326-3.475-2.343-0.009-4.644c13.622-9.042,27.22-18.117,40.86-27.129c16.839-11.127,33.721-22.188,50.565-33.308
		c18.154-11.983,36.278-24.012,54.428-36.002c10.314-6.812,20.661-13.577,30.98-20.38c8.417-5.55,16.81-11.135,25.224-16.688
		c13.152-8.68,26.314-17.344,39.469-26.021c3.318-2.189,6.619-4.408,9.94-6.594c0.52-0.343,1.222,0.01,1.25,0.606
		c0.041,0.851,0.038,1.705,0.038,2.558c0.017,109.829,0.036,219.659,0.02,329.487c0,1.329,0.816,3.161-0.671,3.893
		c-1.161,0.571-2.25-0.913-3.276-1.583c-6.663-4.352-13.274-8.783-19.9-13.189c0.002-0.001,0.103,0.149,0.103,0.149
		c-1.627-1.059-3.268-2.097-4.875-3.186c-0.672-0.456-1.49-0.8-1.732-1.706c-0.276-1.049-1.012-1.315-1.991-1.169
		c-1.123-0.103-1.9-0.729-2.492-1.638c0.001,0.001-0.237-0.135-0.237-0.135c-0.852-0.278-1.653-0.632-2.169-1.42
		c-0.692-2.234-2.613-2.578-4.524-2.936c-0.517-0.381-1.035-0.764-1.551-1.145c-0.38-0.214-0.761-0.428-1.143-0.642l-0.287-0.008
		c0,0-0.107-0.267-0.106-0.267c-0.232-0.912-0.831-1.317-1.757-1.269c-1.133-0.324-2.104-0.918-2.927-1.755
		c0.002,0.001-0.021-0.023-0.021-0.023c-0.534-0.264-1.068-0.528-1.603-0.792l0.167,0.105c-0.224-0.279-0.448-0.558-0.672-0.837
		C377.457,456.779,377.042,456.425,376.356,456.523z"/>
	<path fill-rule="evenodd" clip-rule="evenodd" fill="#224370" d="M982.488,476.874c-0.679,0.289-1.356,0.578-2.034,0.866
		c-0.557-0.573-1.113-1.146-1.672-1.719c-0.952-1.425-0.596-3.036-0.59-4.572c0.038-9.672,0.164-19.344,0.188-29.016
		c0.03-12.094-0.007-24.188-0.021-36.283c-0.094-84.945-0.188-169.889-0.282-254.834c-0.003-2.276-0.022-4.553-0.006-6.829
		c0.006-0.839-0.133-1.722,0.477-2.447c-0.001,0.001,0.417,0.013,0.417,0.013l0.404-0.113c0.241-0.076,0.389,0.01,0.441,0.255
		c0.103,0.394,0.353,0.546,0.752,0.445c1.719,0.413,2.988,1.625,4.396,2.558c11.61,7.692,23.169,15.462,34.776,23.158
		c16.346,10.837,32.736,21.607,49.08,32.449c12.909,8.565,25.757,17.221,38.665,25.788c10.183,6.757,20.434,13.41,30.618,20.165
		c6.273,4.162,12.453,8.466,18.721,12.638c8.04,5.352,16.143,10.611,24.188,15.955c11.122,7.387,22.206,14.832,33.329,22.217
		c5.328,3.537,10.721,6.975,16.063,10.49c3.392,2.233,3.409,2.677,0.031,4.905c-9.954,6.568-19.949,13.073-29.904,19.642
		c-7.941,5.24-15.833,10.555-23.769,15.805c-15.521,10.266-31.065,20.496-46.583,30.767c-16.227,10.739-32.417,21.535-48.655,32.258
		c-12.446,8.218-24.962,16.329-37.411,24.541c-11.259,7.427-22.459,14.94-33.702,22.389c-9.352,6.197-18.728,12.358-28.093,18.533
		C982.313,476.894,982.488,476.874,982.488,476.874z"/>
	<path fill-rule="evenodd" clip-rule="evenodd" fill="#147563" d="M298.738,591.083c-0.513,0.918-1.435,1.354-2.259,1.898
		c-9.374,6.182-18.765,12.338-28.127,18.539c-18.6,12.317-37.181,24.665-55.777,36.987c-11.959,7.924-23.933,15.827-35.905,23.732
		c-0.591,0.391-1.214,0.738-1.846,1.061c-0.989,0.503-1.703,0.126-1.74-0.959c-0.048-1.42-0.017-2.843-0.016-4.264
		c0.062-106.103,0.125-212.206,0.188-318.308c0.002-3.839-0.016-7.68,0.056-11.519c0.031-1.657,0.826-2.059,2.152-1.166
		c2.588,1.743,5.123,3.565,7.717,5.299c6.71,4.485,13.42,8.971,20.169,13.397c10.088,6.616,20.234,13.144,30.307,19.782
		c5.808,3.827,11.497,7.835,17.282,11.695c5.313,3.546,10.699,6.982,16.028,10.505c10.303,6.812,20.576,13.666,30.884,20.47
		c9.011,5.947,18.068,11.824,27.076,17.776c8.533,5.638,17.02,11.344,25.54,17.001c7.092,4.709,14.208,9.383,21.305,14.084
		c14.922,9.884,29.835,19.784,44.763,29.66c3.317,2.196,6.695,4.298,10.017,6.487c2.485,1.638,2.502,1.972-0.121,3.778
		c-3.744,2.578-7.555,5.06-11.35,7.564c-19.571,12.916-39.159,25.807-58.715,38.746c-16.946,11.211-33.837,22.505-50.812,33.672
		c-2.11,1.389-4.095,3.053-6.534,3.92c0.299-0.47,0.505-1.053,0.915-1.389c1.067-0.875,0.939-1.977,0.777-3.113
		c-0.109-0.769-1.107-1.168-1.58-0.546c-1.015,1.336-2.18,2.177-3.934,1.998c-0.257-0.026-0.564,0.108-0.797,0.25
		c-0.486,0.295-1.004,0.666-0.863,1.311c0.079,0.355,0.392,0.722,0.696,0.955C295.597,591.435,297.179,591.224,298.738,591.083z
		 M399.231,517.952c-0.074-0.479-0.747-0.906-1.193-0.696c-0.179,0.085-0.388,0.401-0.36,0.576c0.106,0.65,0.612,0.787,1.164,0.65
		C399.005,518.44,399.104,518.136,399.231,517.952z"/>
	<path fill-rule="evenodd" clip-rule="evenodd" fill="#224370" d="M428.669,855.041c-2.244-1.354-4.094-2.385-5.855-3.548
		c-8.771-5.793-17.519-11.62-26.274-17.436c-13.141-8.728-26.274-17.468-39.425-26.181c-11.021-7.301-22.065-14.563-33.091-21.855
		c-13.386-8.854-26.75-17.746-40.148-26.581c-15.18-10.009-30.399-19.959-45.582-29.963c-14.239-9.381-28.457-18.793-42.676-28.205
		c-6.046-4.001-12.072-8.032-18.104-12.052c-0.709-0.472-1.429-0.933-2.102-1.451c-0.974-0.75-1.029-1.287-0.023-2.017
		c2.874-2.083,5.765-4.147,8.721-6.111c12.547-8.339,25.13-16.624,37.683-24.955c24.75-16.426,49.482-32.875,74.231-49.301
		c18.831-12.499,37.678-24.974,56.515-37.466c21.327-14.142,42.648-28.292,63.975-42.436c3.435-2.277,6.877-4.542,10.327-6.796
		c0.681-0.444,1.358-1.265,2.258-0.683c0.844,0.547,0.4,1.545,0.475,2.345c0.065,0.706,0.022,1.421,0.022,2.133
		c-0.066,108.565-0.135,217.131-0.186,325.697C429.408,850.321,429.25,852.418,428.669,855.041z"/>
	<path fill-rule="evenodd" clip-rule="evenodd" fill="#147563" d="M698.525,672.964c-1.14,0.51-1.836,0.159-2.592-0.356
		c-3.867-2.636-7.753-5.244-11.66-7.822c-9.234-6.094-18.491-12.153-27.724-18.25c-10.31-6.808-20.605-13.638-30.901-20.467
		c-7.691-5.101-15.362-10.231-23.061-15.319c-14.811-9.788-29.646-19.538-44.452-29.334c-17.66-11.685-35.283-23.426-52.951-35.098
		c-17.079-11.282-34.198-22.502-51.292-33.761c-2.966-1.954-5.926-3.921-8.829-5.968c-2.328-1.641-2.3-2.138-0.076-3.588
		c2.381-1.553,4.785-3.073,7.157-4.64c18.736-12.376,37.469-24.756,56.199-37.142c10.781-7.129,21.545-14.283,32.332-21.404
		c11.265-7.436,22.533-14.866,33.826-22.258c9.266-6.065,18.584-12.048,27.682-18.372c5.356-3.724,10.979-7.064,16.425-10.662
		c9.121-6.024,18.188-12.128,27.292-18.176c8.033-5.335,16.076-10.654,24.135-15.951c4.273-2.809,8.599-5.54,12.883-8.332
		c3.688-2.404,7.348-4.848,11.025-7.269c0.83-0.546,1.655-1.108,2.522-1.592c1.376-0.769,2.037-0.377,2.167,1.309
		c0.088,1.133,0.086,2.273,0.082,3.411c-0.055,21.765-0.161,43.531-0.167,65.295c-0.025,87.07-0.019,174.142-0.023,261.211
		C698.525,669.977,698.525,671.527,698.525,672.964z"/>
	<path fill-rule="evenodd" clip-rule="evenodd" fill="#147563" d="M711.357,491.755c0-51.639,0-103.277,0-154.916
		c0-3.84-0.041-7.681,0.019-11.521c0.038-2.464,0.54-2.675,2.786-1.349c0.49,0.288,0.971,0.594,1.444,0.908
		c11.959,7.936,23.907,15.89,35.883,23.802c4.859,3.211,9.909,6.149,14.645,9.53c6.94,4.953,14.137,9.508,21.22,14.238
		c10.041,6.703,20.171,13.273,30.237,19.938c4.499,2.979,8.914,6.085,13.408,9.071c6.493,4.317,13.021,8.581,19.54,12.861
		c3.317,2.181,6.651,4.337,9.964,6.526c5.094,3.365,10.187,6.733,15.26,10.129c8.018,5.366,15.982,10.813,24.041,16.118
		c7.343,4.835,14.814,9.472,22.164,14.299c4.984,3.273,9.836,6.748,14.777,10.086c4.817,3.251,9.664,6.458,14.515,9.658
		c4.503,2.97,9.03,5.903,13.54,8.864c0.354,0.232,0.654,0.547,0.967,0.835c0.814,0.75,0.854,1.479-0.001,2.124
		c-1.47,1.112-2.896,2.34-4.515,3.184c-5.427,2.829-10.265,6.557-15.361,9.88c-11.542,7.526-22.964,15.236-34.429,22.88
		c-7.557,5.038-15.082,10.123-22.659,15.129c-10.54,6.964-21.13,13.855-31.673,20.815c-9.476,6.256-18.907,12.578-28.375,18.848
		c-15.046,9.962-30.102,19.911-45.161,29.854c-11.618,7.672-23.257,15.316-34.873,22.992c-10.906,7.207-21.793,14.445-32.697,21.655
		c-1.062,0.702-2.16,1.359-3.291,1.942c-0.592,0.305-1.167,0.015-1.207-0.677c-0.107-1.843-0.166-3.692-0.167-5.539
		c-0.008-22.048-0.001-44.098,0-66.146C711.358,555.769,711.357,523.762,711.357,491.755z"/>
	<path fill-rule="evenodd" clip-rule="evenodd" fill="#147563" d="M1197.214,346.957c0.225-0.459,0.586-0.716,1.102-0.744
		c1.517,0.01,2.854-0.251,3.146-2.087c0.222-0.204,0.443-0.409,0.666-0.613l-0.043,0.047c5.769-3.892,11.524-7.802,17.311-11.668
		c3.663-2.447,7.362-4.842,11.068-7.225c0.807-0.519,1.606-1.537,2.611-1.125c1.14,0.466,0.591,1.736,0.647,2.664
		c0.078,1.276,0.026,2.56,0.025,3.84c-0.06,88.482-0.12,176.964-0.184,265.445c-0.014,20.2-0.034,40.4-0.076,60.601
		c-0.003,1.382,0.356,2.834-0.61,4.407c-1.574-0.914-3.172-1.74-4.663-2.725c-9.598-6.337-19.172-12.708-28.752-19.07
		c-7.685-5.103-15.354-10.23-23.058-15.306c-7.708-5.079-15.47-10.075-23.17-15.164c-8.173-5.402-16.286-10.895-24.453-16.304
		c-10.545-6.986-21.131-13.911-31.676-20.898c-13.256-8.786-26.481-17.616-39.73-26.413c-13.615-9.041-27.229-18.084-40.869-27.087
		c-11.5-7.589-23.047-15.107-34.547-22.696c-1.282-0.847-2.711-1.593-3.514-3.033c0.534-1.094,1.572-1.627,2.496-2.241
		c7.339-4.874,14.696-9.72,22.058-14.561c0.463-0.305,0.999-0.501,1.5-0.748c1.478,0.008,2.809-0.214,3.138-2.004
		c0.24-0.23,0.479-0.461,0.719-0.692l-0.07,0.079c0.493-0.274,0.986-0.549,1.477-0.823c-0.002,0,0.258-0.131,0.258-0.131
		c0.58-0.748,1.296-1.31,2.212-1.589c0.188-0.065,0.354-0.169,0.494-0.312c0.242-0.156,0.484-0.312,0.726-0.466
		c0.352-0.224,0.703-0.448,1.057-0.673l0.104-0.231c0,0,0.251,0.037,0.25,0.038c1.111-0.012,2.166-0.107,2.307-1.558
		c0.543-0.348,1.085-0.696,1.628-1.044c0.277-0.208,0.556-0.415,0.835-0.623l0.057-0.234l0.24,0.023
		c2.27-0.187,4.355-0.646,4.919-3.344l0.119-0.21c0,0,0.235,0.057,0.235,0.056c2.389-0.015,2.389-0.015,2.935-1.738l0.011,0.053
		c0.297-0.261,0.594-0.522,0.891-0.783l0.079-0.052c0.723-0.012,1.354-0.17,1.579-0.983l-0.023,0.024
		c1.595,0.405,3.07-0.244,4.323-0.95c1.203-0.678,2.712-1.526,2.386-3.437v0.077c0.529-0.03,0.863-0.305,1.016-0.808
		c0,0-0.031,0.026-0.03,0.027c0.784,0.052,1.485-0.037,1.673-0.992c0,0-0.059,0.028-0.059,0.029
		c1.223,0.288,1.799-0.306,1.977-1.446l0.307-0.098c0.57-0.102,1.021-0.366,1.244-0.934c0.251-0.715,0.818-1.152,1.43-1.507
		c2.075-1.207,4.168-2.382,6.253-3.569c0.3-0.229,0.602-0.458,0.902-0.688l0.128-0.089c2.848,0.077,4.756-1.624,6.551-3.506
		c0.152-0.16,0.094-0.521,0.132-0.788l0.034-0.023c0.752,0.024,1.398-0.127,1.631-0.974c0,0-0.047,0.07-0.045,0.07
		c0.473-0.076,0.791-0.338,0.951-0.791l0.02-0.016c2.091-0.016,2.091-0.016,2.535-1.663l0.058-0.036
		c0.803,0.007,1.46-0.194,1.613-1.122c0.955-1.088,2.069-1.93,3.509-2.266c0.728-0.017,1.375-0.165,1.637-0.97l-0.046,0.065
		c0.308-0.261,0.616-0.522,0.925-0.782c1.367-1.688,3.344-2.464,5.174-3.457c0.262-0.179,0.525-0.358,0.788-0.537l0.13-0.246
		c0,0,0.278,0.01,0.277,0.01c0.56-0.074,1.079-0.216,1.32-0.811c0,0,0.168-0.11,0.167-0.109c0.228-0.192,0.457-0.384,0.688-0.577
		l0.05-0.239l0.241-0.032c0.171-0.062,0.321-0.159,0.449-0.291c0.369-0.19,0.739-0.381,1.107-0.571
		c0.267-0.067,0.486-0.209,0.656-0.427c0.079-0.283,0.264-0.399,0.552-0.346c0.994-0.056,2.003-0.092,2.105-1.447l0.118-0.265
		c0,0,0.289-0.018,0.288-0.017c0.531-0.066,1.029-0.186,1.229-0.777c3.678-3.052,7.68-5.611,11.897-7.845
		c0.783,0.03,1.505-0.045,1.72-0.997l-0.041,0.085c1.051-0.327,2.168-0.554,2.617-1.77l-0.04,0.021
		c2.675-0.398,4.747-2.026,6.766-3.592c1.012-0.784,2.583-1.212,2.773-2.857l0.032-0.222c0,0,0.222,0.026,0.222,0.026
		c1.081-0.018,2.168-0.031,2.303-1.502l0.067-0.228l0.234,0.026c2.26-0.082,3.771-1.295,4.821-3.2l0.034-0.23
		c0,0,0.233,0.001,0.232,0.001c0.622-0.049,1.162-0.229,1.391-0.893l0.037-0.025c0.294-0.215,0.588-0.432,0.883-0.648l0.129-0.246
		c0,0,0.277,0.026,0.278,0.025c0.534-0.078,0.979-0.29,1.215-0.814c0.245-0.492,0.651-0.747,1.188-0.811
		c1.941,0.163,3.362-1.255,5.104-1.684c1.47-0.362,1.441-1.496,1.507-2.617c2.402-1.869,4.734-3.846,7.609-4.994
		c0.731,0.885,1.738,0.742,2.706,0.713c0.944-0.028,1.104-0.55,0.906-1.383c-0.127-0.534-0.098-1.106-0.137-1.661
		c0.039-0.271,0.195-0.406,0.469-0.407l-0.045-0.028c0.832-0.527,1.665-1.053,2.497-1.58c0.518-0.088,1.021-0.196,1.259-0.751
		l0.239-0.137c1.146,0.067,2.178-0.247,3.146-0.865c0.666-0.426,0.859-1.034,0.879-1.756l0.009-0.005
		c1.278,0.057,2.167-0.464,2.563-1.721l-0.005,0.007c2.126-0.003,2.126-0.003,2.581-1.693c0.204-0.615,0.625-0.907,1.276-0.854
		c0.556-0.069,1.013-0.29,1.277-0.815l0.04-0.025c0.745-0.003,1.399-0.145,1.585-1.018l-0.043,0.08
		c0.485-0.063,0.813-0.314,0.949-0.792c1.141-1.117,2.513-1.883,3.931-2.579c1.088,0.09,1.953-0.157,2.158-1.413
		c0.059-0.277,0.225-0.377,0.498-0.299c1.076,0.094,1.896-0.175,2.017-1.431l0.073-0.21c0,0,0.218,0.048,0.217,0.049
		c1.076-0.022,2.159-0.035,2.285-1.503l0.08-0.257c0,0,0.268-0.02,0.266-0.019c-0.001,0.001,0.286-0.185,0.286-0.185
		c2.772-2.167,5.625-4.21,8.798-5.767c2.024-0.076,2.024-0.076,2.481-1.648c0,0,0.076-0.074,0.075-0.073
		c2.002-0.034,2.002-0.034,2.495-1.581l0.185-0.103c0.669-0.03,1.248-0.209,1.501-0.92l-0.013,0.005
		c1.544-0.222,3.138-0.374,3.445-2.383c0,0,0.188-0.121,0.187-0.121c1.208,0.073,2.303-0.031,2.472-1.582l0.092-0.206l0.225,0.036
		C1196.519,347.758,1196.977,347.516,1197.214,346.957z"/>
	<path fill-rule="evenodd" clip-rule="evenodd" fill="#224370" d="M893.156,794.52c-0.609-0.299-1.219-0.597-1.827-0.896
		c0-0.003,0.131,0.125,0.131,0.125c-0.534-0.5-1.067-1.001-1.6-1.499c-0.195-1.068-0.944-1.241-1.857-1.147
		c-0.25-0.152-0.499-0.303-0.748-0.454c-0.268-0.179-0.536-0.358-0.805-0.537c-0.774-0.11-1.31-0.557-1.703-1.204
		c-0.157-1.021-0.831-1.305-1.757-1.228c-0.269-0.157-0.537-0.313-0.806-0.47c-0.523-1.699-1.983-1.958-3.434-2.236
		c-0.771-0.108-1.309-0.544-1.681-1.206c-0.202-1.065-0.929-1.297-1.876-1.181c-0.75-0.088-1.357-0.456-1.889-0.968
		c0.003,0,0.111-0.021,0.111-0.021c-0.2-0.175-0.401-0.351-0.601-0.525c-0.153-0.132-0.318-0.25-0.494-0.35
		c-2.191-0.724-3.881-2.294-5.774-3.502c-5.836-3.723-11.601-7.557-17.377-11.372c-0.699-0.462-1.297-1.077-1.941-1.621
		c-0.391-0.227-0.781-0.453-1.172-0.68c-0.278,0.078-0.451-0.022-0.518-0.303c-0.16-0.192-0.352-0.346-0.573-0.462
		c-5.253-3.382-10.531-6.727-15.755-10.155c-10.93-7.173-21.838-14.377-32.739-21.595c-11.376-7.532-22.72-15.113-34.102-22.638
		c-11.262-7.445-22.56-14.836-33.829-22.27c-5.104-3.365-10.189-6.753-15.254-10.174c-1.229-0.83-1.194-1.436,0.034-2.248
		c8.059-5.332,16.134-10.639,24.194-15.966c11.738-7.757,23.47-15.523,35.203-23.286c12.204-8.076,24.391-16.177,36.613-24.225
		c19.232-12.662,38.496-25.278,57.732-37.935c15.784-10.386,31.554-20.796,47.319-31.212c9.358-6.183,18.688-12.407,28.046-18.59
		c6.995-4.621,14.007-9.214,21.025-13.798c0.946-0.618,1.956-1.149,2.977-1.637c0.382-0.182,0.871,0,0.98,0.478
		c0.125,0.546,0.162,1.121,0.165,1.684c0.023,3.556,0.036,7.111,0.036,10.667c-0.002,106.395-0.006,212.789-0.015,319.183
		c0,1.375-0.079,2.75-0.119,4.049c-1.229,0.32-1.827-0.428-2.498-0.864c-4.879-3.175-9.729-6.394-14.589-9.597
		c-10.438-6.879-20.891-13.736-31.311-20.645c-8.052-5.338-16.063-10.738-24.09-16.111
		C894.891,794.756,894.192,794.412,893.156,794.52z"/>
	<path fill-rule="evenodd" clip-rule="evenodd" fill="#224370" d="M482.833,1045.272c-23.328,0-46.656-0.004-69.983,0.002
		c-5.328,0.002-5.009-0.413-4.483,4.877c0.563,5.662,2.018,11.147,4.693,16.284c3.25,6.242,8.237,10.415,14.658,12.994
		c6.54,2.628,13.375,3.796,20.405,3.801c35.276,0.019,70.552,0.01,105.828,0.03c7.633,0.004,6.535-0.76,6.619,6.554
		c0.049,4.267,0.023,8.534-0.028,12.801c-0.019,1.569-0.472,1.975-2.054,2.083c-0.85,0.059-1.706,0.027-2.559,0.027
		c-33.284,0.001-66.569-0.016-99.854,0.015c-8.125,0.007-16.198-0.603-24.205-1.9c-6.471-1.05-12.686-2.986-18.563-5.983
		c-10.511-5.36-17.568-13.804-21.894-24.596c-3.468-8.652-4.959-17.761-5.447-27.031c-0.368-6.965-0.396-13.944,0.042-20.9
		c0.603-9.549,2.355-18.902,6.189-27.723c5.109-11.752,13.637-20.116,25.566-24.91c7.436-2.988,15.201-4.355,23.175-5.077
		c9.096-0.823,18.187-0.59,27.281-0.604c29.017-0.048,58.034-0.022,87.052-0.002c5.916,0.004,5.257-0.572,5.285,5.199
		c0.021,4.552,0.043,9.104,0.003,13.655c-0.018,2.13-0.324,2.402-2.542,2.438c-2.844,0.046-5.689,0.016-8.534,0.016
		c-33.854,0.001-67.708,0.017-101.561-0.012c-6.159-0.005-12.149,0.854-17.993,2.82c-9.925,3.34-16.185,10.223-19.315,20.051
		c-1.381,4.334-2.365,8.78-2.42,13.368c-0.02,1.631,0.282,1.919,2.011,1.98c1.847,0.066,3.697,0.068,5.546,0.068
		c45.091,0.003,90.181,0.002,135.272,0.004c1.707,0.001,3.415-0.007,5.12,0.051c0.988,0.033,1.582,0.616,1.585,1.621
		c0.015,5.405,0.026,10.811-0.015,16.215c-0.009,1.264-0.508,1.672-1.912,1.742c-1.278,0.063-2.56,0.042-3.84,0.042
		C528.918,1045.273,505.875,1045.272,482.833,1045.272z"/>
	<path fill-rule="evenodd" clip-rule="evenodd" fill="#147563" d="M911.285,1105.835c-4.099-0.184-10.081-0.155-16.019-0.937
		c-7.75-1.019-15.434-2.313-22.997-4.388c-7.054-1.936-13.619-4.835-19.786-8.724c-9.326-5.882-15.798-14.056-19.861-24.266
		c-3.139-7.887-4.415-16.094-5.1-24.499c-0.558-6.853-0.348-13.674,0.379-20.442c1.277-11.885,4.716-23.053,12.242-32.676
		c3.916-5.006,8.778-8.844,14.095-12.191c7.054-4.438,14.841-7.013,22.879-8.906c7.191-1.693,14.526-2.541,21.839-3.507
		c0.281-0.037,0.566-0.076,0.849-0.071c8.538,0.133,17.019-1.305,25.563-0.929c4.544,0.2,9.083,0.671,13.627,0.714
		c11.288,0.108,22.34,1.876,33.276,4.484c8.79,2.098,16.996,5.645,24.336,10.922c8.41,6.047,14.375,14.029,17.934,23.805
		c4.113,11.292,4.91,23.009,4.672,34.874c-0.143,7.129-0.992,14.157-2.766,21.08c-1.711,6.676-4.264,13.07-8.255,18.601
		c-3.811,5.278-8.604,9.791-14.25,13.287c-9.205,5.698-19.274,8.989-29.844,10.854c-5.169,0.912-10.321,2.005-15.588,2.289
		c-2.128,0.115-4.252,0.321-6.38,0.426c-5.254,0.259-10.508,0.618-15.766,0.681C921.961,1106.367,917.556,1106.053,911.285,1105.835
		z M923.525,1085.142c11.093,0.026,22.165,0.014,33.186-1.707c8.232-1.287,16.095-3.46,23.224-7.841
		c4.289-2.635,7.716-6.151,10.39-10.477c3.993-6.459,5.829-13.639,6.28-20.997c0.477-7.763,0.755-15.6-0.723-23.375
		c-1.52-7.994-4.292-15.341-10.139-21.173c-6.233-6.22-14.021-9.57-22.52-11.284c-4.575-0.923-9.179-1.675-13.865-2.106
		c-7.654-0.706-15.321-0.856-22.982-1.244c-6.685-0.339-13.354,0.329-20.032,0.567c-6.257,0.224-12.467,0.809-18.615,1.937
		c-4.88,0.896-9.749,1.919-14.329,3.935c-6.203,2.73-11.636,6.433-15.639,12.063c-4.665,6.563-6.92,13.947-7.682,21.843
		c-0.629,6.521-0.752,13.052-0.039,19.588c0.924,8.476,3.168,16.427,8.465,23.334c3.011,3.927,6.791,6.775,11.126,9.042
		c8.48,4.434,17.687,6.005,27.044,7.03C905.603,1085.255,914.565,1085.172,923.525,1085.142z"/>
	<path fill-rule="evenodd" clip-rule="evenodd" fill="#147563" d="M1049.528,1035.223c0-21.2,0-42.4,0.002-63.601
		c0-0.712,0.004-1.424,0.029-2.134c0.111-2.993,0.283-3.337,3.063-3.354c5.398-0.034,10.803-0.334,16.201,0.216
		c2.686,0.273,5.392,0.408,8.092,0.486c6.348,0.182,12.199,2.145,18.008,4.547c6.99,2.891,12.433,7.877,17.922,12.765
		c2.842,2.53,5.117,5.695,7.675,8.549c5.212,5.817,9.733,12.184,14.563,18.304c3.164,4.01,6.082,8.212,9.128,12.313
		c3.809,5.127,7.636,10.239,11.455,15.358c4.33,5.804,8.583,11.667,13.012,17.394c4.776,6.175,9.386,12.508,15.202,17.795
		c1.471,1.335,3.012,2.602,4.594,3.802c4.99,3.786,10.758,4.88,16.857,4.695c1.764-0.054,2.214-0.555,2.293-2.338
		c0.045-0.995,0.007-1.992,0.007-2.988c-0.007-34.291-0.016-68.582-0.019-102.873c0-2.134,0.019-4.268,0.07-6.402
		c0.023-0.996,0.613-1.543,1.601-1.637c0.424-0.041,0.853-0.046,1.278-0.047c5.123-0.007,10.245-0.01,15.367-0.014
		c0.284,0,0.569-0.003,0.854,0.012c2.427,0.132,2.712,0.379,2.788,2.706c0.079,2.417,0.129,4.836,0.131,7.254
		c0.012,15.793,0.007,31.588,0.007,47.382c0,24.33,0.003,48.661-0.009,72.992c-0.001,2.133-0.116,4.266-0.165,6.397
		c-0.024,1.034-0.64,1.508-1.56,1.708c-0.277,0.06-0.561,0.144-0.839,0.137c-6.247-0.135-12.508,0.469-18.743-0.461
		c-2.245-0.334-4.532-0.396-6.804-0.54c-7.99-0.502-15.264-3.194-21.956-7.442c-5.417-3.438-10.165-7.709-14.581-12.369
		c-7.433-7.846-14.284-16.165-20.818-24.766c-6.701-8.819-13.621-17.473-20.262-26.337c-7.064-9.43-14.253-18.762-21.861-27.755
		c-3.755-4.438-7.555-8.875-12.389-12.275c-2.984-2.101-6.183-3.417-9.82-3.736c-1.689-0.148-3.355-0.58-5.045-0.688
		c-2.998-0.189-3.254,0.056-3.299,2.913c-0.052,3.271-0.016,6.543-0.015,9.814c0.003,32.868,0.006,65.736,0.009,98.604
		c0,0.284-0.043,0.571-0.025,0.854c0.24,3.665-0.32,4.254-3.98,4.252c-4.979-0.002-9.96,0.023-14.939-0.029
		c-2.785-0.03-3.06-0.354-3.102-3.299c-0.027-1.991,0.055-3.982,0.055-5.975c0.006-20.063,0.003-40.124,0.003-60.188
		C1049.551,1035.223,1049.54,1035.223,1049.528,1035.223z"/>
	<path fill-rule="evenodd" clip-rule="evenodd" fill="#224370" d="M354.691,1035.635c-0.001,21.486,0.01,42.972-0.008,64.457
		c-0.004,4.896,0.58,4.579-4.563,4.628c-8.258,0.078-16.51-0.128-24.719-1.026c-9.252-1.012-17.553-4.502-24.957-10.134
		c-5.459-4.151-10.218-9.03-14.772-14.133c-11.278-12.637-21.248-26.313-31.586-39.695c-7.3-9.45-14.564-18.93-21.978-28.289
		c-3.525-4.451-7.24-8.769-11.096-12.936c-3.59-3.882-7.644-7.18-12.867-8.834c-1.935-0.612-3.906-0.896-5.838-1.088
		c-6.592-0.654-5.708-0.788-5.711,4.872c-0.025,35.572-0.008,71.145-0.004,106.717c0,0.569,0.021,1.139,0.008,1.708
		c-0.058,2.346-0.491,2.855-2.632,2.858c-5.404,0.009-10.809-0.018-16.213-0.045c-0.709-0.004-1.42-0.073-2.127-0.147
		c-0.796-0.085-1.297-0.525-1.344-1.349c-0.048-0.852-0.057-1.706-0.058-2.559c-0.009-43.54-0.016-87.081-0.023-130.622
		c0-0.284-0.013-0.568-0.007-0.854c0.063-3.065,0.128-3.167,3.085-3.165c7.823,0.006,15.638-0.009,23.458,0.618
		c5.432,0.436,10.667,1.417,15.783,3.234c5.837,2.074,10.998,5.244,15.698,9.256c6.958,5.938,12.941,12.771,18.643,19.887
		c9.34,11.656,18.048,23.785,26.961,35.763c7.467,10.033,14.725,20.227,22.728,29.856c3.095,3.725,6.347,7.271,9.901,10.57
		c5.783,5.37,12.653,7.359,20.361,7.057c1.013-0.04,1.573-0.504,1.581-1.548c0.01-1.28,0.023-2.561,0.023-3.842
		c0.003-35.003,0.004-70.006,0.007-105.009c0-1.423,0.006-2.847,0.034-4.268c0.021-1.041,0.626-1.549,1.621-1.554
		c4.411-0.022,8.824-0.106,13.231,0.008c2.358,0.062,4.793-0.596,7.079,0.52c0.611,2.232,0.283,4.51,0.286,6.763
		C354.703,994.087,354.691,1014.862,354.691,1035.635z"/>
	<path fill-rule="evenodd" clip-rule="evenodd" fill="#224370" d="M648.332,1033.87c-11.51-11.428-22.918-22.516-34.252-33.682
		c-11.313-11.144-22.888-22.027-33.846-33.338c0.344-1.03,0.981-0.854,1.501-0.854c8.393-0.012,16.787,0.041,25.179-0.047
		c2.031-0.021,3.492,0.672,4.875,2.092c5.258,5.398,10.605,10.71,15.898,16.075c8.687,8.805,17.356,17.625,26.035,26.438
		c3.49,3.544,7.031,7.038,10.049,11.016c0.874,1.152,1.547,1.184,2.371,0.17c6.112-7.525,13.216-14.112,19.956-21.039
		c10.411-10.699,20.933-21.29,31.408-31.926c0.499-0.506,1.02-0.989,1.511-1.503c0.824-0.859,1.751-1.273,3.009-1.266
		c8.819,0.055,17.64,0.029,26.46,0.042c0.394,0.001,0.961-0.023,0.958,0.546c-0.001,0.361-0.22,0.806-0.484,1.067
		c-5.271,5.188-10.567,10.351-15.846,15.53c-16.232,15.938-32.458,31.881-48.688,47.822c-0.406,0.397-0.839,0.771-1.222,1.188
		c-1.209,1.32-1.25,2.06-0.044,3.272c2.504,2.519,5.041,5.006,7.582,7.487c6.101,5.956,12.224,11.888,18.316,17.854
		c8.838,8.657,17.659,17.331,26.479,26.004c5.271,5.183,10.53,10.376,15.794,15.565c0.497,0.49,1.14,0.868,1.284,1.628
		c-0.296,0.594-0.825,0.688-1.402,0.688c-8.395,0.002-16.788-0.063-25.18,0.055c-2.079,0.029-3.468-0.84-4.793-2.194
		c-9.145-9.354-18.284-18.711-27.454-28.04c-8.372-8.517-16.762-17.015-25.189-25.478c-1.184-1.189-1.932-2.833-3.659-3.619
		c-2.651,2.755-5.273,5.528-7.946,8.25c-11.956,12.177-23.922,24.345-35.896,36.505c-4.289,4.356-8.626,8.666-12.9,13.037
		c-0.953,0.976-1.939,1.458-3.35,1.452c-8.534-0.029-17.069,0.03-25.604,0.054c-0.574,0.001-1.114-0.126-1.617-0.939
		c4.361-4.887,9.328-9.329,13.989-14.061c4.59-4.659,9.281-9.222,13.96-13.793c4.781-4.671,9.62-9.281,14.399-13.954
		c4.678-4.574,9.318-9.187,13.964-13.793C638.67,1043.491,643.39,1038.786,648.332,1033.87z"/>
	<path fill-rule="evenodd" clip-rule="evenodd" fill="#147563" d="M774.58,1035.161c0-19.622-0.007-39.244,0.007-58.867
		c0.002-2.7,0.073-5.402,0.176-8.101c0.059-1.56,0.491-1.951,2.072-2.082c0.707-0.058,1.42-0.05,2.131-0.05
		c4.551-0.001,9.101,0.004,13.65,0.008c0.569,0.001,1.14-0.018,1.706,0.017c1.615,0.101,2.033,0.462,2.097,2.018
		c0.086,2.13,0.125,4.263,0.126,6.395c0.007,41.095,0.007,82.188,0,123.282c0,1.563-0.046,3.128-0.145,4.687
		c-0.102,1.62-0.544,2.174-1.987,2.187c-5.688,0.047-11.376,0.07-17.062-0.007c-2.126-0.028-2.503-0.555-2.628-2.941
		c-0.095-1.845-0.138-3.694-0.139-5.542C774.575,1075.83,774.58,1055.496,774.58,1035.161z"/>
	<path fill-rule="evenodd" clip-rule="evenodd" fill="#224370" d="M1117.499,1197.528c0,8.528,0.107,17.057-0.039,25.582
		c-0.096,5.577-1.884,10.587-6.116,14.489c-2.345,2.163-5.158,3.506-8.141,4.496c-5.756,1.911-11.714,2.218-17.693,1.849
		c-4.099-0.255-8.21-0.589-12.217-1.666c-1.146-0.308-1.704-0.794-1.719-1.994c-0.05-4.288-0.206-3.942,3.51-3.359
		c3.642,0.57,7.271,1.109,10.967,1.312c5.167,0.281,10.196-0.279,15.151-1.685c5.599-1.586,8.959-5.234,9.996-10.973
		c0.586-3.242,0.421-6.516,0.295-9.78c-0.039-1.001-0.741-1.508-1.745-1.287c-1.663,0.366-3.321,0.769-4.96,1.233
		c-6.11,1.736-12.313,2.03-18.564,1.099c-3.532-0.527-6.914-1.649-9.998-3.47c-5.705-3.366-9.081-8.58-10.725-14.801
		c-2.635-9.975-2.484-19.967,1.003-29.768c2.235-6.281,6.216-11.175,12.364-13.932c5.266-2.36,10.885-3.299,16.642-2.632
		c2.803,0.324,5.599,0.813,8.342,1.646c8.582,2.606,13.702,10.115,13.649,18.484c-0.053,8.385-0.011,16.771-0.011,25.156
		C1117.493,1197.528,1117.495,1197.528,1117.499,1197.528z M1111.556,1188.663c0-4.971-0.063-9.942,0.029-14.911
		c0.04-2.173-0.436-4.234-0.975-6.276c-0.592-2.241-1.804-4.229-3.759-5.527c-2.119-1.407-4.358-2.57-6.892-3.223
		c-3.514-0.904-7.054-0.741-10.583-0.645c-6.365,0.175-11.467,2.732-14.917,8.302c-1.368,2.208-2.219,4.569-2.894,7.04
		c-0.791,2.896-0.907,5.86-1.17,8.827c-0.468,5.282-0.009,10.452,1.34,15.553c0.472,1.782,1.26,3.443,2.21,5.047
		c2.205,3.726,5.354,6.214,9.484,7.407c8.827,2.549,17.405,1.334,25.843-1.83c1.695-0.636,2.344-1.746,2.313-3.575
		C1111.498,1199.457,1111.555,1194.059,1111.556,1188.663z"/>
	<path fill-rule="evenodd" clip-rule="evenodd" fill="#224370" d="M341.871,1209.715c0.458,0.424,0.546,0.979,0.553,1.548
		c0.037,3.097,0.297,4.085-3.518,5.167c-6.626,1.88-13.363,2.991-20.198,2.666c-5.375-0.256-10.711-1.242-15.546-4.012
		c-4.854-2.779-8.446-6.622-10.674-11.755c-1.139-2.625-2.045-5.341-2.358-8.17c-0.737-6.664-0.933-13.351,0.575-19.946
		c1.384-6.052,3.843-11.601,8.427-15.972c3.476-3.315,7.612-5.304,12.334-6.324c4.534-0.979,8.988-1.063,13.529-0.204
		c8.986,1.697,15.051,6.974,18.659,15.185c2.617,5.954,3.64,12.237,3.22,18.741c-0.109,1.695-0.392,2.048-1.991,2.086
		c-2.701,0.064-5.404,0.07-8.106,0.071c-12.375,0.007-24.75-0.009-37.124,0.012c-4.104,0.007-4.262,0.13-3.404,4.05
		c0.636,2.907,1.363,5.835,2.452,8.595c2.126,5.394,6.407,8.538,11.788,10.282c2.718,0.882,5.528,1.283,8.393,1.36
		c7.166,0.193,14.196-0.462,20.942-3.097c0.517-0.202,1.091-0.265,1.643-0.367C341.595,1209.607,341.743,1209.686,341.871,1209.715z
		 M318.389,1183.606c3.838,0,7.676-0.001,11.514,0.001c2.559,0.001,5.118,0.028,7.677,0.002c3.092-0.032,3.375-0.346,3.017-3.524
		c-0.337-2.975-1.012-5.892-2.108-8.673c-2.875-7.295-8.019-11.969-15.924-13.105c-3.371-0.484-6.76-0.349-10.167,0.31
		c-5.712,1.102-9.791,4.321-12.76,9.119c-1.427,2.306-2.297,4.893-2.945,7.507c-0.477,1.92-0.684,3.918-0.862,5.896
		c-0.161,1.78,0.402,2.362,2.089,2.447c0.993,0.049,1.99,0.021,2.984,0.021C306.732,1183.607,312.561,1183.607,318.389,1183.606z"/>
	<path fill-rule="evenodd" clip-rule="evenodd" fill="#224370" d="M515.472,1172.63c0-13.372-0.001-26.744,0.002-40.116
		c0-1.137,0.003-2.275,0.066-3.41c0.045-0.818,0.57-1.248,1.367-1.355c0.14-0.018,0.284-0.02,0.426-0.023
		c4.617-0.12,4.323,0.018,4.312,4.067c-0.019,7.112-0.054,14.226-0.027,21.338c0.016,4.103,0.123,4.188,4.08,2.82
		c4.309-1.487,8.681-2.617,13.185-3.388c5.761-0.986,11.381-0.589,16.799,1.408c5.769,2.126,9.74,6.298,11.907,12.049
		c1.309,3.474,1.996,7.119,2.003,10.848c0.025,12.66,0.013,25.321,0.016,37.98c0,0.569,0.01,1.139,0.003,1.707
		c-0.012,0.992-0.456,1.635-1.505,1.649c-0.993,0.013-1.99-0.022-2.981-0.093c-0.791-0.056-1.33-0.47-1.362-1.32
		c-0.048-1.278-0.087-2.559-0.087-3.838c-0.007-10.67-0.01-21.338-0.002-32.008c0.002-2.705-0.135-5.395-0.503-8.08
		c-1.085-7.933-6.042-12.787-13.292-14.045c-4.858-0.844-9.631-0.45-14.406,0.267c-4.088,0.613-7.985,2.014-11.868,3.401
		c-1.321,0.473-2.042,1.306-1.995,2.875c0.103,3.411,0.031,6.827,0.033,10.241c0.005,12.945,0.011,25.891,0.014,38.835
		c0,0.853,0.009,1.706-0.047,2.555c-0.043,0.646-0.488,0.999-1.102,1.085c-0.561,0.079-1.13,0.114-1.697,0.122
		c-3.163,0.046-3.335-0.089-3.339-3.322c-0.017-14.083-0.008-28.166-0.008-42.249C515.467,1172.63,515.469,1172.63,515.472,1172.63z
		"/>
	<path fill-rule="evenodd" clip-rule="evenodd" fill="#224370" d="M1003.077,1186.125c0.25,4.512-0.5,9.522-2.122,14.439
		c-3.001,9.095-9.164,14.789-18.347,17.264c-7.32,1.971-14.594,1.774-21.828-0.553c-7.983-2.567-13.379-7.798-16.193-15.653
		c-1.784-4.976-2.572-10.114-2.62-15.436c-0.043-4.88,0.556-9.611,1.849-14.286c2.85-10.292,9.65-16.374,19.939-18.798
		c6.363-1.498,12.689-1.364,18.963,0.354c9.338,2.558,15.578,8.379,18.385,17.753
		C1002.762,1176.752,1003.078,1178.788,1003.077,1186.125z M996.929,1185.531c0.141-4.519-0.322-9.176-1.903-13.647
		c-2.447-6.922-7.05-11.451-14.396-13.147c-3.816-0.881-7.629-0.881-11.438-0.65c-10.661,0.647-16.702,5.963-19.479,14.926
		c-0.895,2.889-1.099,5.864-1.447,8.814c-0.728,6.158,0.057,12.217,2.076,18.049c2.313,6.674,7.034,10.861,13.934,12.497
		c4.902,1.163,9.861,1.204,14.808,0.386c9.204-1.524,14.502-7.192,16.717-16.036
		C996.702,1193.115,997.019,1189.446,996.929,1185.531z"/>
	<path fill-rule="evenodd" clip-rule="evenodd" fill="#224370" d="M810.072,1185.965c0.447,4.547-0.466,9.018-1.721,13.378
		c-2.615,9.082-8.303,15.386-17.493,18.153c-8.285,2.493-16.544,2.202-24.662-0.779c-6.78-2.49-11.386-7.298-14.131-13.895
		c-1.813-4.357-2.805-8.958-2.966-13.656c-0.146-4.243-0.144-8.507,0.65-12.73c0.661-3.513,1.685-6.9,3.255-10.089
		c3.267-6.637,8.701-10.776,15.725-12.707c7.545-2.075,15.145-2.104,22.668,0.305c8.484,2.717,13.943,8.462,16.606,16.871
		C809.553,1175.708,810.515,1180.72,810.072,1185.965z M803.762,1185.457c0-1.848,0.117-3.703-0.023-5.54
		c-0.341-4.444-1.418-8.726-3.755-12.549c-2.623-4.294-6.424-7.219-11.341-8.438c-5.589-1.388-11.221-1.353-16.869-0.162
		c-7.144,1.506-11.854,5.68-14.392,12.502c-1.767,4.748-2.354,9.678-2.342,14.656c0.012,4.84,0.665,9.633,2.408,14.22
		c2.521,6.634,7.229,10.669,14.128,12.3c3.788,0.896,7.621,0.861,11.441,0.737c2.832-0.093,5.646-0.66,8.282-1.837
		c6.338-2.83,9.83-7.934,11.518-14.461C803.787,1193.139,803.94,1189.303,803.762,1185.457z"/>
	<path fill-rule="evenodd" clip-rule="evenodd" fill="#224370" d="M1176.93,1237.942c2.113,0.078,4.085,0.209,6.058,0.211
		c2.856,0.004,5.196-1.162,7.131-3.264c1.454-1.578,2.743-3.278,3.685-5.188c1.502-3.05,2.854-6.174,4.284-9.26
		c0.634-1.368,0.648-2.699,0.082-4.118c-1.367-3.429-2.631-6.898-3.981-10.334c-3.169-8.061-6.373-16.106-9.547-24.164
		c-3.379-8.584-6.746-17.173-10.099-25.767c-0.302-0.773-0.464-1.603-0.657-2.287c0.55-0.632,1.113-0.678,1.675-0.68
		c4.967-0.021,4.337-0.349,6.028,4.12c3.918,10.354,7.875,20.695,11.816,31.042c2.225,5.836,4.451,11.67,6.679,17.505
		c0.202,0.529,0.432,1.049,0.64,1.577c0.216,0.552,0.549,1.086,1.14,1.142c0.626,0.06,0.946-0.49,1.15-1.033
		c1.65-4.385,3.308-8.77,4.941-13.16c3.417-9.18,6.812-18.368,10.231-27.547c1.535-4.118,3.133-8.214,4.651-12.339
		c0.351-0.951,0.936-1.336,1.896-1.325c1.407,0.015,2.813,0.004,4,0.004c0.919,1.111,0.273,1.861,0.001,2.597
		c-3.705,9.986-7.421,19.968-11.158,29.941c-3.985,10.635-7.948,21.277-12.023,31.878c-1.68,4.369-3.05,8.865-5.198,13.048
		c-1.303,2.534-2.73,4.99-4.623,7.131c-2.603,2.944-5.764,4.965-9.63,5.923c-2.573,0.639-5.065,0.496-7.578-0.15
		c-1.546-0.396-1.919-0.783-2.014-2.299C1176.45,1240.169,1176.284,1239.16,1176.93,1237.942z"/>
	<path fill-rule="evenodd" clip-rule="evenodd" fill="#224370" d="M633.007,1188.115c0-8.813,0.043-17.627-0.037-26.44
		c-0.017-1.786,0.454-2.78,2.185-3.561c5.467-2.465,11.066-4.375,17.032-5.187c3.24-0.439,6.461-0.937,9.751-0.826
		c5.184,0.175,10.083,1.226,14.622,3.915c4.293,2.544,6.828,6.369,8.295,10.932c0.866,2.688,1.318,5.507,1.308,8.392
		c-0.043,12.795-0.016,25.589-0.02,38.383c0,0.994-0.039,1.989-0.087,2.983c-0.04,0.815-0.485,1.293-1.299,1.4
		c-0.282,0.038-0.566,0.057-0.85,0.068c-4.041,0.163-3.9-0.389-3.899-3.691c0.006-11.799,0.026-23.599-0.016-35.396
		c-0.009-2.41-0.127-4.836-0.434-7.225c-0.827-6.426-4.387-10.614-10.637-12.435c-3.017-0.879-6.146-1.306-9.25-1.165
		c-6.259,0.283-12.442,1.186-18.36,3.415c-1.979,0.746-2.191,0.982-2.265,3.06c-0.045,1.278-0.022,2.559-0.022,3.837
		c0.005,15.069,0.012,30.138,0.016,45.206c0,0.996-0.012,1.991-0.044,2.984c-0.026,0.815-0.427,1.316-1.281,1.378
		c-0.142,0.01-0.283,0.024-0.426,0.028c-4.258,0.098-4.306,0.347-4.295-4.04c0.022-8.672,0.006-17.344,0.006-26.016
		C633.002,1188.115,633.004,1188.115,633.007,1188.115z"/>
	<path fill-rule="evenodd" clip-rule="evenodd" fill="#224370" d="M206.927,1177.722c-0.001-12.091,0.006-24.182-0.005-36.271
		c-0.003-3.809-0.024-3.837-3.726-3.847c-7.823-0.019-15.646-0.004-23.47-0.006c-1.138-0.001-2.276,0.006-3.413-0.033
		c-0.852-0.029-1.265-0.589-1.308-1.374c-0.054-0.99-0.067-1.99-0.004-2.98c0.049-0.772,0.496-1.34,1.313-1.413
		c0.847-0.075,1.704-0.07,2.557-0.071c20.625-0.003,41.25,0,61.875-0.007c3.951-0.001,3.916-0.122,3.888,4.088
		c-0.009,1.377-0.389,1.762-1.802,1.767c-7.539,0.028-15.078,0.02-22.616,0.022c-1.707,0.001-3.416-0.037-5.121,0.013
		c-1.688,0.048-2.042,0.385-2.1,1.967c-0.056,1.563-0.034,3.128-0.034,4.693c-0.001,22.475,0,44.948-0.001,67.423
		c0,1.422,0.018,2.846-0.03,4.267c-0.071,2.078-0.424,2.371-2.61,2.301c-0.426-0.015-0.853-0.034-1.277-0.078
		c-1.665-0.176-2.025-0.504-2.095-2.054c-0.051-1.136-0.019-2.275-0.02-3.414C206.928,1201.05,206.928,1189.386,206.927,1177.722z"
		/>
	<path fill-rule="evenodd" clip-rule="evenodd" fill="#224370" d="M455.162,1160.776c-1.847,0.073-3.145-0.563-4.509-0.913
		c-6.955-1.789-13.982-2.459-21.1-1.158c-8.725,1.595-14.173,6.801-16.38,15.323c-2.034,7.856-2.016,15.782,0.081,23.611
		c2.039,7.61,6.928,12.549,14.657,14.498c4.75,1.197,9.575,1.133,14.407,0.729c3.835-0.32,7.576-1.104,11.217-2.385
		c1.111-0.391,1.668,0.032,1.725,1.104c0.038,0.709,0.029,1.422,0.01,2.132c-0.039,1.465-0.779,2.333-2.205,2.73
		c-8.289,2.309-16.61,3.635-25.228,1.812c-5.156-1.091-9.723-3.295-13.505-6.825c-2.805-2.62-4.774-5.966-6.062-9.66
		c-2.426-6.963-3.047-14.116-2.368-21.413c0.437-4.702,1.424-9.271,3.533-13.536c3.718-7.519,9.828-11.891,17.937-13.707
		c8.431-1.887,16.655-0.927,24.784,1.6c3.101,0.964,3.096,0.998,3.119,4.093C455.279,1159.362,455.213,1159.916,455.162,1160.776z"
		/>
	<path fill-rule="evenodd" clip-rule="evenodd" fill="#224370" d="M873.438,1172.603c0-13.512,0-27.022,0-40.534
		c0-0.996-0.029-1.992,0.014-2.986c0.062-1.36,0.357-1.625,1.828-1.797c3.978-0.464,4.347-0.152,4.348,3.924
		c0.008,27.593,0.008,55.185,0.002,82.776c-0.002,4.134-0.605,4.675-4.646,4.254c-0.981-0.103-1.508-0.657-1.506-1.688
		c0.005-1.28-0.041-2.561-0.042-3.839c-0.004-13.371-0.002-26.74-0.002-40.109C873.435,1172.603,873.436,1172.603,873.438,1172.603z
		"/>
	<path fill-rule="evenodd" clip-rule="evenodd" fill="#224370" d="M1112.757,402.758c-0.19,1.645-1.762,2.073-2.773,2.857
		c-2.019,1.565-4.091,3.193-6.766,3.592C1106.114,406.637,1109.227,404.39,1112.757,402.758z"/>
	<path fill-rule="evenodd" clip-rule="evenodd" fill="#224370" d="M1037.381,452.649c0.326,1.91-1.183,2.759-2.386,3.437
		c-1.253,0.706-2.729,1.354-4.323,0.95C1032.586,455.081,1034.892,453.724,1037.381,452.649z"/>
	<path fill-rule="evenodd" clip-rule="evenodd" fill="#224370" d="M1132.435,389.717c-0.065,1.121-0.037,2.255-1.507,2.617
		c-1.741,0.429-3.162,1.846-5.104,1.684C1127.858,392.323,1130.004,390.801,1132.435,389.717z"/>
	<path fill-rule="evenodd" clip-rule="evenodd" fill="#224370" d="M1058.904,438.357c-0.038,0.268,0.021,0.628-0.132,0.788
		c-1.795,1.883-3.703,3.583-6.551,3.506C1054.22,440.864,1056.395,439.351,1058.904,438.357z"/>
	<path fill-rule="evenodd" clip-rule="evenodd" fill="#224370" d="M1024.847,460.669c-0.563,2.698-2.649,3.157-4.919,3.344
		C1021.412,462.668,1023.063,461.572,1024.847,460.669z"/>
	<path fill-rule="evenodd" clip-rule="evenodd" fill="#147563" d="M551.79,419.299c1.343-2.019,3.223-3.246,5.574-3.774
		C555.79,417.203,553.885,418.39,551.79,419.299z"/>
	<path fill-rule="evenodd" clip-rule="evenodd" fill="#147563" d="M387.642,463.983c1.911,0.357,3.832,0.701,4.524,2.936
		C390.446,466.264,388.844,465.431,387.642,463.983z"/>
	<path fill-rule="evenodd" clip-rule="evenodd" fill="#224370" d="M1143.52,382.392c0.039,0.555,0.01,1.127,0.137,1.661
		c0.198,0.833,0.038,1.355-0.906,1.383c-0.968,0.029-1.975,0.172-2.706-0.713C1141,383.645,1142.14,382.84,1143.52,382.392z"/>
	<path fill-rule="evenodd" clip-rule="evenodd" fill="#224370" d="M1120.437,397.659c-1.051,1.905-2.562,3.118-4.821,3.2
		C1116.968,399.407,1118.595,398.371,1120.437,397.659z"/>
	<path fill-rule="evenodd" clip-rule="evenodd" fill="#147563" d="M978.782,476.021c0.559,0.573,1.115,1.146,1.672,1.719
		c-0.241,0.786-0.844,1.129-1.555,0.891c-0.614-0.206-0.531-0.908-0.465-1.447C978.483,476.788,978.662,476.407,978.782,476.021z"/>
	<path fill-rule="evenodd" clip-rule="evenodd" fill="#224370" d="M1151.963,376.867c-0.02,0.722-0.213,1.33-0.879,1.756
		c-0.968,0.618-2,0.932-3.146,0.865C1149,378.184,1150.44,377.462,1151.963,376.867z"/>
	<path fill-rule="evenodd" clip-rule="evenodd" fill="#147563" d="M558.667,414.649c0.747-1.853,2.438-2.272,4.114-2.713
		C561.677,413.248,560.287,414.123,558.667,414.649z"/>
	<path fill-rule="evenodd" clip-rule="evenodd" fill="#147563" d="M878.75,784.973c1.45,0.278,2.91,0.537,3.434,2.236
		C880.699,786.986,879.575,786.211,878.75,784.973z"/>
	<path fill-rule="evenodd" clip-rule="evenodd" fill="#224370" d="M1192.975,349.714c-0.308,2.01-1.901,2.161-3.445,2.383
		C1190.309,350.769,1191.632,350.228,1192.975,349.714z"/>
	<path fill-rule="evenodd" clip-rule="evenodd" fill="#224370" d="M1201.461,344.126c-0.292,1.836-1.629,2.097-3.146,2.087
		C1199.181,345.241,1200.221,344.533,1201.461,344.126z"/>
	<path fill-rule="evenodd" clip-rule="evenodd" fill="#224370" d="M1007.637,472.25c-0.329,1.79-1.66,2.011-3.138,2.003
		C1005.428,473.401,1006.32,472.492,1007.637,472.25z"/>
	<path fill-rule="evenodd" clip-rule="evenodd" fill="#224370" d="M1064.03,434.961c-0.444,1.647-0.444,1.647-2.535,1.663
		C1062.092,435.691,1062.993,435.222,1064.03,434.961z"/>
	<path fill-rule="evenodd" clip-rule="evenodd" fill="#224370" d="M1187.857,353.115c-0.493,1.547-0.493,1.547-2.495,1.581
		C1185.914,353.726,1186.872,353.398,1187.857,353.115z"/>
	<path fill-rule="evenodd" clip-rule="evenodd" fill="#224370" d="M1028.136,458.777c-0.546,1.724-0.546,1.724-2.935,1.738
		C1026.026,459.677,1026.987,459.069,1028.136,458.777z"/>
	<path fill-rule="evenodd" clip-rule="evenodd" fill="#224370" d="M1017.168,465.891c-0.141,1.45-1.195,1.546-2.307,1.558
		C1015.45,466.661,1016.111,465.983,1017.168,465.891z"/>
	<path fill-rule="evenodd" clip-rule="evenodd" fill="#224370" d="M1195.633,348.011c-0.169,1.551-1.264,1.655-2.472,1.582
		C1193.742,348.685,1194.618,348.239,1195.633,348.011z"/>
	<path fill-rule="evenodd" clip-rule="evenodd" fill="#224370" d="M1185.287,354.768c-0.457,1.572-0.457,1.572-2.481,1.648
		C1183.401,355.519,1184.273,355.037,1185.287,354.768z"/>
	<path fill-rule="evenodd" clip-rule="evenodd" fill="#224370" d="M1173.375,362.644c-0.126,1.469-1.209,1.481-2.285,1.503
		C1171.656,363.346,1172.46,362.913,1173.375,362.644z"/>
	<path fill-rule="evenodd" clip-rule="evenodd" fill="#224370" d="M1157.112,373.455c-0.455,1.69-0.455,1.69-2.581,1.693
		C1155.153,374.22,1156.091,373.775,1157.112,373.455z"/>
	<path fill-rule="evenodd" clip-rule="evenodd" fill="#224370" d="M1154.536,375.141c-0.396,1.257-1.285,1.777-2.563,1.721
		C1152.45,375.725,1153.309,375.161,1154.536,375.141z"/>
	<path fill-rule="evenodd" clip-rule="evenodd" fill="#147563" d="M289.179,399.067c1.035,0.052,2.057,0.126,2.301,1.439
		C290.464,400.424,289.754,399.854,289.179,399.067z"/>
	<path fill-rule="evenodd" clip-rule="evenodd" fill="#224370" d="M1115.314,401.06c-0.135,1.471-1.222,1.484-2.303,1.502
		C1113.506,401.644,1114.381,401.306,1115.314,401.06z"/>
	<path fill-rule="evenodd" clip-rule="evenodd" fill="#224370" d="M1085.43,420.771c-0.103,1.354-1.111,1.391-2.105,1.447
		C1083.78,421.376,1084.51,420.937,1085.43,420.771z"/>
	<path fill-rule="evenodd" clip-rule="evenodd" fill="#147563" d="M382.797,460.653c0.927-0.048,1.525,0.357,1.757,1.269
		C383.744,461.81,383.155,461.391,382.797,460.653z"/>
	<path fill-rule="evenodd" clip-rule="evenodd" fill="#147563" d="M893.156,794.52c1.036-0.108,1.735,0.236,1.837,1.375
		C894.127,795.774,893.48,795.361,893.156,794.52z"/>
	<path fill-rule="evenodd" clip-rule="evenodd" fill="#224370" d="M1041.958,449.536c-0.178,1.141-0.754,1.734-1.977,1.446
		C1040.368,450.127,1041.037,449.659,1041.958,449.536z"/>
	<path fill-rule="evenodd" clip-rule="evenodd" fill="#147563" d="M882.99,787.68c0.926-0.077,1.6,0.208,1.757,1.228
		C883.912,788.854,883.281,788.51,882.99,787.68z"/>
	<path fill-rule="evenodd" clip-rule="evenodd" fill="#147563" d="M875.194,782.586c0.947-0.116,1.674,0.116,1.876,1.181
		C876.228,783.715,875.573,783.371,875.194,782.586z"/>
	<path fill-rule="evenodd" clip-rule="evenodd" fill="#224370" d="M1170.8,364.308c-0.12,1.255-0.94,1.524-2.017,1.431
		C1169.208,364.914,1169.917,364.487,1170.8,364.308z"/>
	<path fill-rule="evenodd" clip-rule="evenodd" fill="#224370" d="M1168.286,366.038c-0.205,1.256-1.07,1.503-2.158,1.413
		C1166.641,366.667,1167.38,366.225,1168.286,366.038z"/>
	<path fill-rule="evenodd" clip-rule="evenodd" fill="#147563" d="M888.002,791.102c0.913-0.094,1.662,0.079,1.857,1.147
		C889.001,792.252,888.339,791.939,888.002,791.102z"/>
	<path fill-rule="evenodd" clip-rule="evenodd" fill="#224370" d="M1103.258,409.186c-0.449,1.216-1.566,1.442-2.617,1.77
		C1101.144,409.82,1102.046,409.274,1103.258,409.186z"/>
	<path fill-rule="evenodd" clip-rule="evenodd" fill="#147563" d="M397.063,470.111c0.979-0.146,1.715,0.12,1.991,1.169
		C398.218,471.183,397.43,471.006,397.063,470.111z"/>
	<path fill-rule="evenodd" clip-rule="evenodd" fill="#224370" d="M1065.701,433.803c-0.153,0.928-0.811,1.129-1.613,1.122
		C1064.416,434.25,1065.005,433.952,1065.701,433.803z"/>
	<path fill-rule="evenodd" clip-rule="evenodd" fill="#147563" d="M1178.506,711.562c0.173-0.488,0.496-0.753,1.035-0.696
		C1179.434,711.453,1179.129,711.743,1178.506,711.562z"/>
	<path fill-rule="evenodd" clip-rule="evenodd" fill="#224370" d="M1060.569,437.36c-0.232,0.847-0.879,0.998-1.631,0.974
		C1059.233,437.591,1059.838,437.371,1060.569,437.36z"/>
	<path fill-rule="evenodd" clip-rule="evenodd" fill="#224370" d="M1189.542,352.092c-0.253,0.711-0.832,0.89-1.501,0.92
		C1188.381,352.442,1188.852,352.088,1189.542,352.092z"/>
	<path fill-rule="evenodd" clip-rule="evenodd" fill="#147563" d="M846.057,763.546c0.391,0.227,0.781,0.453,1.172,0.68
		C846.662,764.305,846.258,764.099,846.057,763.546z"/>
	<path fill-rule="evenodd" clip-rule="evenodd" fill="#147563" d="M886.45,790.111c0.269,0.179,0.537,0.358,0.805,0.537
		C886.828,790.707,886.437,790.711,886.45,790.111z"/>
	<path fill-rule="evenodd" clip-rule="evenodd" fill="#147563" d="M376.356,456.523c0.685-0.098,1.1,0.255,1.385,0.827
		C377.093,457.386,376.637,457.102,376.356,456.523z"/>
	<path fill-rule="evenodd" clip-rule="evenodd" fill="#147563" d="M979.37,141.94l-0.404,0.113c0,0-0.418-0.012-0.417-0.013
		C978.725,141.186,979.04,141.494,979.37,141.94z"/>
	<path fill-rule="evenodd" clip-rule="evenodd" fill="#224370" d="M1070.846,430.568c-0.262,0.805-0.909,0.953-1.637,0.97
		C1069.602,430.955,1070.095,430.543,1070.846,430.568z"/>
	<path fill-rule="evenodd" clip-rule="evenodd" fill="#147563" d="M384.948,462.196c0.382,0.214,0.763,0.428,1.143,0.642
		C385.519,462.964,385.142,462.744,384.948,462.196z"/>
	<path fill-rule="evenodd" clip-rule="evenodd" fill="#224370" d="M1040.04,450.953c-0.188,0.955-0.889,1.044-1.673,0.992
		C1038.69,451.219,1039.29,450.959,1040.04,450.953z"/>
	<path fill-rule="evenodd" clip-rule="evenodd" fill="#224370" d="M1019.631,464.224c-0.279,0.208-0.558,0.415-0.835,0.623
		C1018.849,464.337,1019.189,464.212,1019.631,464.224z"/>
	<path fill-rule="evenodd" clip-rule="evenodd" fill="#224370" d="M1030.696,457.011c-0.225,0.813-0.856,0.972-1.579,0.983
		C1029.461,457.375,1029.962,457.008,1030.696,457.011z"/>
	<path fill-rule="evenodd" clip-rule="evenodd" fill="#224370" d="M1014.508,467.642c-0.354,0.225-0.705,0.449-1.057,0.673
		C1013.615,467.792,1013.975,467.58,1014.508,467.642z"/>
	<path fill-rule="evenodd" clip-rule="evenodd" fill="#224370" d="M1079.415,424.81c-0.241,0.594-0.761,0.736-1.32,0.811
		C1078.375,425.09,1078.811,424.813,1079.415,424.81z"/>
	<path fill-rule="evenodd" clip-rule="evenodd" fill="#147563" d="M322.6,421.214c0.547,0.106,1.039,0.298,1.299,0.845
		C323.259,422.094,322.811,421.836,322.6,421.214z"/>
	<path fill-rule="evenodd" clip-rule="evenodd" fill="#224370" d="M1087.065,419.711c-0.199,0.591-0.697,0.711-1.229,0.777
		C1086.063,419.938,1086.451,419.646,1087.065,419.711z"/>
	<path fill-rule="evenodd" clip-rule="evenodd" fill="#224370" d="M1100.682,410.87c-0.215,0.951-0.937,1.027-1.72,0.997
		C1099.324,411.168,1099.922,410.879,1100.682,410.87z"/>
	<path fill-rule="evenodd" clip-rule="evenodd" fill="#224370" d="M1122.094,396.537c-0.229,0.664-0.769,0.844-1.391,0.893
		C1120.936,396.772,1121.457,396.564,1122.094,396.537z"/>
	<path fill-rule="evenodd" clip-rule="evenodd" fill="#224370" d="M1147.7,379.625c-0.238,0.555-0.741,0.664-1.259,0.751
		C1146.691,379.843,1147.104,379.582,1147.7,379.625z"/>
	<path fill-rule="evenodd" clip-rule="evenodd" fill="#224370" d="M1161.291,370.742c-0.186,0.874-0.84,1.015-1.585,1.018
		C1160.022,371.091,1160.538,370.733,1161.291,370.742z"/>
	<path fill-rule="evenodd" clip-rule="evenodd" fill="#147563" d="M980.563,142.64c-0.399,0.101-0.649-0.052-0.752-0.445
		C980.196,142.121,980.458,142.248,980.563,142.64z"/>
	<path fill-rule="evenodd" clip-rule="evenodd" fill="#224370" d="M1202.084,343.56l0.043-0.047L1202.084,343.56z"/>
	<path fill-rule="evenodd" clip-rule="evenodd" fill="#224370" d="M1197.214,346.957c-0.237,0.559-0.695,0.801-1.265,0.884
		C1196.175,347.268,1196.636,347.029,1197.214,346.957z"/>
	<path fill-rule="evenodd" clip-rule="evenodd" fill="#224370" d="M1029.038,458.047c-0.297,0.26-0.594,0.522-0.891,0.783
		C1028.192,458.282,1028.551,458.093,1029.038,458.047z"/>
	<polygon fill-rule="evenodd" clip-rule="evenodd" fill="#147563" points="379.849,458.875 379.871,458.898 379.905,459.043 	"/>
	<path fill-rule="evenodd" clip-rule="evenodd" fill="#224370" d="M1038.397,451.918c-0.152,0.503-0.486,0.778-1.016,0.808
		C1037.482,452.157,1037.847,451.921,1038.397,451.918z"/>
	<polygon fill-rule="evenodd" clip-rule="evenodd" fill="#147563" points="394.334,468.338 394.572,468.473 394.35,468.61 	"/>
	<path fill-rule="evenodd" clip-rule="evenodd" fill="#224370" d="M1012.726,468.781c-0.141,0.143-0.306,0.247-0.494,0.312
		c0.001-0.001,0.157-0.304,0.157-0.304L1012.726,468.781z"/>
	<path fill-rule="evenodd" clip-rule="evenodd" fill="#224370" d="M1081.009,423.562c-0.128,0.132-0.278,0.229-0.449,0.291
		l0.128-0.312L1081.009,423.562z"/>
	<polygon fill-rule="evenodd" clip-rule="evenodd" fill="#224370" points="1010.02,470.682 1009.762,470.813 1009.833,470.593 	"/>
	<path fill-rule="evenodd" clip-rule="evenodd" fill="#224370" d="M1008.286,471.636l0.07-0.079L1008.286,471.636z"/>
	<path fill-rule="evenodd" clip-rule="evenodd" fill="#147563" d="M405.662,476.171c0,0-0.101-0.15-0.103-0.149
		C405.557,476.023,405.662,476.171,405.662,476.171z"/>
	<path fill-rule="evenodd" clip-rule="evenodd" fill="#224370" d="M1043.508,448.504c-0.223,0.568-0.674,0.832-1.244,0.934
		C1042.497,448.884,1042.946,448.62,1043.508,448.504z"/>
	<path fill-rule="evenodd" clip-rule="evenodd" fill="#224370" d="M1077.687,425.857c-0.263,0.179-0.526,0.358-0.788,0.537
		C1077.018,426.004,1077.272,425.812,1077.687,425.857z"/>
	<polygon fill-rule="evenodd" clip-rule="evenodd" fill="#147563" points="1173.69,715.011 1173.574,715.089 1173.596,715.154 	"/>
	<path fill-rule="evenodd" clip-rule="evenodd" fill="#224370" d="M1080.269,424.124c-0.23,0.193-0.46,0.385-0.688,0.577
		C1079.811,424.508,1080.04,424.316,1080.269,424.124z"/>
	<path fill-rule="evenodd" clip-rule="evenodd" fill="#224370" d="M1082.773,422.563c-0.17,0.218-0.39,0.36-0.656,0.427
		C1082.21,422.655,1082.419,422.499,1082.773,422.563z"/>
	<path fill-rule="evenodd" clip-rule="evenodd" fill="#147563" d="M324.003,422.121c0.266,0.066,0.485,0.204,0.66,0.414
		C324.27,422.672,324.074,422.496,324.003,422.121z"/>
	<path fill-rule="evenodd" clip-rule="evenodd" fill="#224370" d="M1061.475,436.64c-0.16,0.453-0.479,0.715-0.951,0.791
		C1060.592,436.868,1060.964,436.671,1061.475,436.64z"/>
	<path fill-rule="evenodd" clip-rule="evenodd" fill="#224370" d="M1071.725,429.851c-0.309,0.26-0.617,0.521-0.925,0.782
		C1070.864,430.085,1071.23,429.892,1071.725,429.851z"/>
	<polygon fill-rule="evenodd" clip-rule="evenodd" fill="#147563" points="1176.273,713.292 1176.132,713.387 1176.201,713.42 	"/>
	<path fill-rule="evenodd" clip-rule="evenodd" fill="#147563" d="M872.322,780.721c0.176,0.101,0.341,0.218,0.494,0.35
		c-0.001-0.001-0.353-0.024-0.353-0.024L872.322,780.721z"/>
	<path fill-rule="evenodd" clip-rule="evenodd" fill="#147563" d="M378.413,458.188l-0.167-0.105L378.413,458.188z"/>
	<polygon fill-rule="evenodd" clip-rule="evenodd" fill="#147563" points="873.417,781.597 873.305,781.618 873.397,781.684 	"/>
	<path fill-rule="evenodd" clip-rule="evenodd" fill="#224370" d="M1123.014,395.864c-0.295,0.216-0.589,0.433-0.883,0.648
		C1122.231,396.032,1122.545,395.841,1123.014,395.864z"/>
	<path fill-rule="evenodd" clip-rule="evenodd" fill="#224370" d="M1124.636,394.829c-0.235,0.524-0.681,0.736-1.215,0.814
		C1123.674,395.147,1124.09,394.891,1124.636,394.829z"/>
	<path fill-rule="evenodd" clip-rule="evenodd" fill="#224370" d="M1143.944,381.957l0.045,0.028L1143.944,381.957z"/>
	<path fill-rule="evenodd" clip-rule="evenodd" fill="#147563" d="M891.459,793.749c0,0-0.131-0.128-0.131-0.125
		C891.327,793.625,891.459,793.749,891.459,793.749z"/>
	<path fill-rule="evenodd" clip-rule="evenodd" fill="#224370" d="M1159.666,371.785c-0.265,0.525-0.722,0.746-1.277,0.815
		C1158.631,372.044,1159.075,371.798,1159.666,371.785z"/>
	<path fill-rule="evenodd" clip-rule="evenodd" fill="#224370" d="M1162.197,370.03c-0.137,0.478-0.464,0.729-0.949,0.792
		C1161.315,370.26,1161.703,370.081,1162.197,370.03z"/>
	<path fill-rule="evenodd" clip-rule="evenodd" fill="#224370" d="M1052.093,442.741c-0.301,0.229-0.603,0.458-0.902,0.688
		C1051.34,443,1051.624,442.749,1052.093,442.741z"/>
	<path fill-rule="evenodd" clip-rule="evenodd" fill="#147563" d="M982.488,476.874c0,0-0.175,0.02-0.175,0.022
		C982.313,476.898,982.488,476.874,982.488,476.874z"/>
	<polygon fill-rule="evenodd" clip-rule="evenodd" fill="#224370" points="1174.007,362.183 1173.721,362.368 1173.778,362.124 	"/>
	<path fill-rule="evenodd" clip-rule="evenodd" fill="#147563" d="M844.966,762.781c0.222,0.116,0.413,0.27,0.573,0.462
		C845.154,763.33,844.954,763.189,844.966,762.781z"/>
	<path fill-rule="evenodd" clip-rule="evenodd" fill="#224370" d="M298.738,591.083c-1.56,0.14-3.141,0.351-4.504-0.695
		c-0.304-0.233-0.617-0.6-0.696-0.955c-0.141-0.645,0.377-1.016,0.863-1.311c0.233-0.143,0.54-0.276,0.797-0.25
		c1.754,0.179,2.919-0.662,3.934-1.998c0.473-0.623,1.471-0.223,1.58,0.546c0.162,1.137,0.29,2.238-0.777,3.113
		c-0.409,0.336-0.615,0.919-0.915,1.389l-0.067,0.21L298.738,591.083z"/>
	<path fill-rule="evenodd" clip-rule="evenodd" fill="#224370" d="M399.232,517.953c-0.128,0.184-0.227,0.487-0.39,0.528
		c-0.552,0.137-1.058,0-1.164-0.65c-0.028-0.174,0.181-0.491,0.36-0.576C398.484,517.045,399.157,517.473,399.232,517.953z"/>
</g>
</svg>
