<?xml version="1.0" encoding="utf-8"?>
<!-- Generator: Adobe Illustrator 16.0.0, SVG Export Plug-In . SVG Version: 6.00 Build 0)  -->
<!DOCTYPE svg PUBLIC "-//W3C//DTD SVG 1.1//EN" "http://www.w3.org/Graphics/SVG/1.1/DTD/svg11.dtd">
<svg version="1.1" id="Layer_1" xmlns="http://www.w3.org/2000/svg" xmlns:xlink="http://www.w3.org/1999/xlink" x="0px" y="0px"
	 width="1400px" height="1400px" viewBox="0 0 1400 1400" enable-background="new 0 0 1400 1400" xml:space="preserve">
<g>
	<path fill-rule="evenodd" clip-rule="evenodd" fill="#161FD1" d="M274,1162.2c0,27.2,0,52.7,0,78.9c-17.6,0-34.2,0-51.7,0
		c0-76.1,0-152.1,0-229.2c3.7-0.2,7.5-0.5,11.2-0.6c28,0,56.1,0.1,84.1-0.1c19.9-0.2,37.7,5.3,54.1,16.6
		c17.8,12.3,26.5,29.9,28.4,50.4c5.3,54.1-30.7,81.8-78.9,83.9C306.2,1162.7,291.1,1162.2,274,1162.2z M274.8,1118.9
		c14.9,0,29.2,0.2,43.4,0c15.4-0.2,28.4-11.4,29.5-24.9c1.6-20.1-8.1-37.2-24.4-38.9c-16-1.6-32.3-0.4-48.6-0.4
		C274.8,1076.8,274.8,1097.2,274.8,1118.9z"/>
	<path fill-rule="evenodd" clip-rule="evenodd" fill="#161FD1" d="M503.6,1134c1.9-17.8-4.7-28-19.1-30.2
		c-12.8-2-21.9,5.5-24.4,20.4c-15.8,0-31.6,0-47.4,0c-3.8-15.7,4-35,20-44.2c29.3-16.9,60-20.9,91.4-5.7
		c20.5,9.9,29.9,27.5,30.5,49.4c0.8,26.5-0.4,53,0.5,79.5c0.4,12.4,3.7,24.7,5.6,37.1c-23.4,5-47.9,2.1-54.9-7.2
		c-15.2,9-31,13.7-49.5,11.3c-28-3.6-49.1-23.4-50-49.9c-1-28.9,18.2-52.8,46.8-56.7C469.4,1135.6,486.1,1135.3,503.6,1134z
		 M503.7,1166.9c-9.1,0-17.8-1.1-26,0.3c-8,1.4-15.9,4.2-19.3,13.9c-2.8,7.7-1.6,13.6,3.7,18.8c6.8,6.7,15,6.8,23.6,4
		C503.1,1198.4,505.7,1193.5,503.7,1166.9z"/>
	<path fill-rule="evenodd" clip-rule="evenodd" fill="#161FD1" d="M631.4,1241.4c-16.8,0-32.3,0-48.9,0c0-56.7,0-113.3,0-170.7
		c14.8,0,29.8,0,45.5,0c1.4,2.9,3.2,6.4,5.1,10.1c17.8-11.8,35.9-18.3,57.8-13.8c31.2,6.4,39.7,25.7,40.9,48.1
		c2,38.1,0.6,76.3,0.6,114.5c0,3.5,0,6.9,0,11.3c-16.7,0-32.8,0-50.3,0c0-17.9,0-35.7,0-53.5c0-19.1,0.1-38.2,0-57.3
		c-0.1-15-6.9-21.6-22.1-21.7c-17.4-0.1-27.9,7.9-28,22.1c-0.2,33.5-0.1,67-0.1,100.5C631.9,1234.1,631.6,1237.2,631.4,1241.4z"/>
	<path fill-rule="evenodd" clip-rule="evenodd" fill="#161FD1" d="M1005.8,1155.5c-1.9,27.7-8.2,52.9-30.1,70.7
		c-9.2,7.5-20.9,13.1-32.4,16.1c-20.2,5.4-40.6,3.8-60.2-5.2c-23.4-10.7-36.1-30-41.4-53.8c-5-22.3-4.1-44.7,3.7-67
		c12.8-36.9,52.8-56.1,89.7-49.8c29.2,5,50,19.8,61,46.7C1001.3,1126.5,1002.6,1141.3,1005.8,1155.5z M954.5,1156.9
		c-1.4-9.4-1.9-17.1-3.7-24.4c-3.4-13.7-17.3-25.5-29.3-25.7c-11.5-0.1-27.2,10.8-28.9,24.2c-2.1,16.4-2,33.5,0.1,50
		c1.6,12.5,14.4,21.6,24.9,22.1c16.4,0.8,25.2-4.2,31.1-19.9C951.9,1174.4,952.8,1164.7,954.5,1156.9z"/>
	<path fill-rule="evenodd" clip-rule="evenodd" fill="#161FD1" d="M1076.2,1241.4c-17.3,0-32.9,0-49.4,0c0-56.8,0-113.4,0-171.6
		c13.3,0,26.9-0.6,40.3,0.4c3.3,0.2,6.3,5.6,8.8,8c9.7-3.4,20.5-8.5,31.8-10.8c41.6-8.5,65.9,15.1,66.5,53.1
		c0.6,39.7,0.1,79.5,0.1,120.2c-16.5,0-32.6,0-50.3,0c0-3.9,0-8,0-12.1c0-33.5,0-67,0-100.5c0-13-6.8-19.5-20-19.6
		c-19.1-0.1-27.7,5.7-27.8,19.9c-0.2,33.1-0.1,66.2-0.1,99.4C1076.2,1231.8,1076.2,1236.1,1076.2,1241.4z"/>
	<path fill-rule="evenodd" clip-rule="evenodd" fill="#161FD1" d="M813.7,1241.1c-16.4,0-32.2,0-48.9,0c0-56.7,0-113.3,0-170.6
		c16.1,0,32.2,0,48.9,0C813.7,1127.2,813.7,1183.5,813.7,1241.1z"/>
	<path fill-rule="evenodd" clip-rule="evenodd" fill="#161FD1" d="M816.6,1028.4c2.3,14.3-10.2,25.4-27.2,26
		c-13.8,0.4-29.4-9-28-26.5c1.2-15.7,10.8-25.7,27.4-25.8C806.3,1001.9,816.6,1011.7,816.6,1028.4z"/>
</g>
<path fill-rule="evenodd" clip-rule="evenodd" fill="#161FD1" d="M867.2,153.7c31.6,12,65.5,20.2,94.5,36.7
	c87.1,49.6,141.6,122.2,152.9,225.4c11.3,102.8-22.3,186.4-95.3,257.5c-66.7,64.9-131.6,131.8-201.2,201.6
	c-11.1-12.5-20.4-24-30.7-34.5C719,769.9,646.4,702.9,582.6,628.3C507,540,503.5,386.4,571.7,289.2c11.9-17,37.4-24.4,52-15.1
	c16.3,10.4,19.5,33.4,7.5,53.3c-63.4,104.8-42.5,224.4,54.2,307c57-48.3,93-108.6,92.6-184.1c-0.6-121.1-102.9-223.6-223.9-225
	c-105.6-1.2-206,75.4-224.8,186c-11.7,68.9,2.7,135.4,55,188.1c55.8,56.1,111.7,112,171,171.4c9.7-11.5,17.4-22.3,26.8-31.5
	c18.9-18.3,39.2-18.1,55.1-0.9c11.3,12.2,9.2,37.9-4.7,51.9c-24.8,25-49.7,49.8-74.6,74.6c-1.8,1.8-4.1,3.2-10,7.8
	c-20.1-21-40.3-42.6-61.1-63.7c-44.6-45-89.5-89.6-134.3-134.4c-47.1-47.1-81.1-101.2-92.3-168c-0.3-1.7-3.6-2.9-5.5-4.4
	c0-33.4,0-66.9,0-100.3c2.1-2.3,5.5-4.4,6-6.9c17.8-99.5,74.8-169.3,164.1-213.2c24.7-12.1,51.9-18.8,78-28c33.4,0,66.9,0,100.3,0
	c56.3,31.9,112.6,31.3,168.9,0C803.8,153.7,835.5,153.7,867.2,153.7z M820.9,769.6c53.4-53.4,106.1-105,157.4-157.9
	c52.2-53.8,75.2-116.7,65.3-193.6c-15.2-118.9-148-225.1-280.3-183C887.9,393.2,878,544.3,739.6,687.1
	C766.4,714.3,792.2,740.5,820.9,769.6z"/>
</svg>
