<?xml version="1.0" encoding="utf-8"?>
<!-- Generator: Adobe Illustrator 16.0.0, SVG Export Plug-In . SVG Version: 6.00 Build 0)  -->
<!DOCTYPE svg PUBLIC "-//W3C//DTD SVG 1.1//EN" "http://www.w3.org/Graphics/SVG/1.1/DTD/svg11.dtd">
<svg version="1.1" xmlns="http://www.w3.org/2000/svg" xmlns:xlink="http://www.w3.org/1999/xlink" x="0px" y="0px"
	 width="4888.8px" height="3856px" viewBox="0 0 4888.8 3856" style="enable-background:new 0 0 4888.8 3856;" xml:space="preserve"
	>
<style type="text/css">
<![CDATA[
	.st0{fill:#465D66;}
	.st1{display:inline;fill:#84B9BD;}
	.st2{fill:#E55957;}
	.st3{fill:#E9F0F6;}
	.st4{fill:#4F6872;}
	.st5{fill:#EBFAFD;}
	.st6{fill:#1F8BC3;}
	.st7{fill:#BEC2C7;}
	.st8{fill:#F0F5FC;}
	.st9{fill:#263238;}
	.st10{opacity:0.34;fill:#1F8BC3;}
	.st11{fill:#282928;}
	.st12{fill:#93A3A3;}
	.st13{fill:#2BB8F7;}
	.st14{fill:#FFFFFF;}
	.st15{fill:#D0D4D8;}
	.st16{display:none;}
	.st17{fill:#0E3757;}
]]>
</style>
<g id="Layer_2" class="st16">
	<rect x="3" y="-525" class="st1" width="5000" height="5000"/>
</g>
<g id="Layer_4">
	<g>
		<g>
			<path class="st15" d="M1770,2372.4c-37-9.3-39,1.9-43.1-16.7c-4.1-18.6-28.8-18.6-51.3-18.6c-22.6,0-30.8-1.8-49.3-16.7
				c-18.5-14.8-57.6-16.7-69.9-20.4c-12.3-3.7-6.2-35.3-30.8-65c-24.7-29.7-76-35.3-108.9-52c-32.9-16.7-22.6-81.7-69.9-76.1
				c-47.3,5.6-51.4,22.3-94.5,1.9c-43.1-20.4-71.9-33.4-94.5-18.6c-22.6,14.8-51.4,42.7-65.7,50.1c-14.4,7.4-39.1-5.6-53.4-3.7
				c-14.4,1.8-30.8-13-41.1-26c-10.3-13,18.5-78-8.2-78c-26.7,0-61.6-11.1-61.6-20.4c0-9.3,55.5-65,39.1-74.3
				c-16.4-9.3-49.3-3.7-78.1,31.6c-28.8,35.3-55.5,33.4-69.9,20.4c-14.4-13-47.2-89.1-20.5-131.8c26.7-42.7,62-67.9,94.9-66.1
				c32.9,1.9,46-7.3,78.9-9.2c32.9-1.9,64.5,12.1,72.7,23.2c8.2,11.1-8.2,29.7,12.3,52c20.5,22.3,32.9,13,34.9,22.3
				c2.1,9.3-16.4,18.6-24.7,18.6c-8.2,0-76,16.7-49.3,27.9c26.7,11.1,74,1.8,84.2,16.7c10.3,14.9-32.9,46.4,28.8,48.3
				c61.6,1.8,102.7,9.3,137.6,11.1c34.9,1.9,59.6,3.7,63.7,11.1c4.1,7.4,28.7-27.8-28.8-27.8c-57.5,0-102.7-29.7-133.5-35.3
				c-30.8-5.6-51.4-24.1-53.4-46.4c-2-22.3,2.1-39-10.3-57.6c-12.3-18.6-43.1-63.1-14.4-81.7c28.8-18.6,86.3-53.9,100.7-78
				c14.4-24.1,14.4-29.7,47.2-48.3c32.9-18.6,71.9-42.7,90.4-59.4c18.5-16.7,49.3-42.7,55.5-29.7c6.2,13,34.9,16.7,69.9,5.6
				c34.9-11.1,78.1-39,41.1-39c-37,0-59.6-9.3-49.3-22.3c10.3-13-24.7-18.6-34.9-16.7c-10.3,1.8-10.3-18.6,24.7-24.2
				c34.9-5.6,6.7,28.3,35.5,26.4c28.7-1.9,46.6-28.3,67.2-32c20.5-3.7,28.7,13,2,29.7c-26.7,16.7-34.9,11.1,0,18.6
				c34.9,7.4,45.2,24.1,65.8,7.4c20.5-16.7-4.1-22.3-6.2-44.6c-2.1-22.3,14.7-66.7-7.9-81.5c-22.6-14.8-33.2-29.9-33.2-44.8
				c0-14.9,4.1-46.4-18.5-31.6c-22.6,14.8-41.1,24.1-49.3,16.7c-8.2-7.4,4.1-22.3-14.4-33.4c-18.5-11.2-20.5-27.9-43.1-26
				c-22.6,1.9-45.2-14.8-57.5,9.3c-12.3,24.1-24.7,44.6-28.8,52c-4.1,7.4,14.4,33.4-2,46.4c-16.4,13-61.6,31.6-67.8,44.6
				c-6.1,13-30.8,46.4-37,24.1c-6.2-22.3,20.5-55.7-16.4-65c-37-9.3-65.7-1.8-71.9-22.3c-6.2-20.4-22.6-39,14.4-55.7
				c37-16.7,74-46.4,108.9-50.1c34.9-3.7,10.3,22.3,39,20.4c28.7-1.9-4.1-14.9,30.8-20.4c34.9-5.6,28.8-5.6,18.5-16.7
				c-10.3-11.1-4.1-13,22.6-24.1c26.7-11.1,6.2-18.6,32.9-27.9c26.7-9.3,32.9-18.6,47.3-18.6c14.4,0,12.3,5.6,4.1,22.3
				c-8.2,16.7-14.4,27.8,10.3,16.7c24.7-11.1,37-18.6,18.5-1.8c-18.5,16.7-30.8,16.7-57.5,20.4c-26.7,3.7-18.5,7.4-6.1,20.4
				c12.3,13,43.1,14.9,53.4,22.3c10.2,7.4,22.6,33.4,47.2,20.4c24.6-13,6.1-14.8,39-27.9c32.9-13,80.1-20.4,76-37.1
				c-4.1-16.7-37-26-41.1-46.4c-4.1-20.4,45.2-31.6-18.5-40.8c-63.7-9.3-26.7-16.7-57.5-16.7c-30.8,0-88.3,0-108.9,9.3
				c-20.5,9.3-32.9-5.5-43.2,9.3c-10.3,14.9,2,35.3-8.2,35.3c-10.3,0-28.8,14.9-37,0c-8.2-14.9-26.7-29.7-2.1-35.3
				c24.6-5.6,28.8-1.8,32.9-18.6c4.1-16.7-34.9-14.8-12.3-18.6c22.6-3.7,32.8,1.9,63.7,1.9c30.8,0,100.7,11.1,110.9-5.6
				c10.3-16.7-16.4-16.7-47.2-18.6c-30.8-1.8-84.2-11.1-106.8-1.8c-22.6,9.3-51.4,24.1-61.6,39c-10.3,14.8-10.3-3.7-30.8,0
				c-20.5,3.7-55.5,24.1-37,35.3c18.5,11.1,18.5,24.1-2.1,24.1c-20.5,0-26.7,18.6-41.1,18.6c-14.4,0-53.4-1.9-34.9-11.2
				c18.5-9.3,39-9.3,37-31.6c-2-22.3,20.5-29.7,20.5-37.2c0-7.4-49.3,16.7-88.3,5.6c-39-11.1-55.5-27.9-94.5-26
				c-39,1.9-90.4,48.3-65.7,52c24.7,3.7,43.2-3.7,47.3,7.4c4.1,11.1-4.1,20.4,10.3,26c14.4,5.6,41.1,20.4,6.2,13
				c-34.9-7.4-18.5-20.4-71.9-22.3c-53.4-1.8-86.3-16.7-141.7-3.7c-55.5,13-47.3,24.1-84.3,13c-37-11.1-126.3-53.1-187.9-41.9
				c-61.6,11.1-126.3,45.6-144.8,56.8c-18.5,11.1-28.6-17.1-61.5-15.3c-32.9,1.9-111.8-9.1-95.3,9.5c16.4,18.6,37,20.4,12.3,24.1
				c-24.7,3.7-57.6,5.6-69.9,22.3c-12.4,16.7-57.5,26-28.8,33.4c28.8,7.4,76,24.1,55.5,26c-20.6,1.8-125.3,39-170.5,48.3
				c-45.2,9.3-42.9,114.7-3.9,101.7c49.6-16.5,143.6-114.7,168.2-124c24.7-9.3,34.9-1.8,32.8,11.2c-2,13,28.8-5.6,53.4-22.3
				c24.7-16.7,31.3-56.2,51.8-45.1c20.6,11.1,26.2,6.1,42.7,2.4c16.4-3.7,97.4,22.3,111.7,29.8c14.4,7.5,34.8,28,45.1,35.4
				c10.3,7.4,14.4,24.1,4.1,26c-10.3,1.9-12.3,11.1-10.3,26c2.1,14.9,10.3,27.9-10.3,31.6c-20.5,3.7-16.4,26-4.1,24.1
				c12.3-1.8,20.5-7.4,22.6-18.6c2.1-11.1,28.7-31.6,24.7-16.7c-4.1,14.8-14.4,29.7-14.4,40.9c0,11.1-14.4,9.3-16.4,20.4
				c-2.1,11.1,2,11.1,12.3,20.4c10.3,9.3,4.1,14.9,2.1,35.3c-2.1,20.4-63.7,76.1-71.9,94.7c-8.2,18.6-4.1,44.6-4.1,65
				s-8.2,46.4,14.4,53.9c22.6,7.4,24.7,11.1,24.7,29.7c0,18.6,0,40.9,12.3,53.9c12.3,13,6.2,11.1,6.2,31.6c0,20.4,14.4,9.3,16.4,26
				c2.1,16.7-10.3,24.1,10.3,37.1c20.5,13,43.1,22.3,32.9,1.9c-10.3-20.4-16.5-37.2-26.7-66.9c-10.3-29.7-16.4-83.6-4.1-66.9
				c12.3,16.7,28.8,66.9,47.2,102.2c18.5,35.3,41.1,31.6,41.1,57.6c0,26-22.6,50.1,22.6,66.9c45.2,16.7,78,52,104.8,48.3
				c26.7-3.7,43.1-18.6,53.4-1.9c10.3,16.7,32.8,39,57.5,39s32.9,14.9,37,37.2c4.1,22.3,20.5,26,45.2,33.4
				c24.7,7.4,30.8,31.6,49.3,29.7c18.5-1.8,43.1-9.3,43.1,7.4c0,16.7,8.2,57.6-22.6,83.6c-30.8,26-45.2,44.6-28.7,61.3
				c16.4,16.7,2.1,33.4-6.2,46.4c-8.2,13,6.2,24.1,22.6,44.6c16.4,20.4,39,44.6,53.4,85.4c14.4,40.9,34.9,55.7,69.8,68.7
				c34.9,13,61.6,35.3,61.6,66.9c0,31.6-2,139.3-2,170.9c0,31.6,18.5,63.2,12.3,87.3c-6.2,24.1,0,44.6,8.2,53.8
				c8.2,9.3,6.2,29.7,8.2,50.2c2,20.4,26.7,5.6,26.7,24.1c0,18.6-10.2,46.4,2.1,55.7c12.3,9.3-14.4,42.7,41.1,74.3
				c55.5,31.6,59.6,33.4,63.7,39c4.1,5.6,22.6-11.2,22.6-1.9c0,9.3-30.8,63.9,26.7,63.9c57.5,0,92.4-19.3,57.5-43.5
				c-34.9-24.1-55.5-13-61.6-37.1c-6.1-24.1-14.4-20.4-18.5-37.2c-4.1-16.7,14.4-24.1,8.2-40.8c-6.2-16.7-35.8-18.5-33.7-35.2
				c2-16.7,21.3-31.7,25.5-39.1c4.1-7.4,4.1-14.9-6.2-22.3c-10.3-7.5-8.2-9.3,6.2-13c14.4-3.7,16.5,1.9,22.6-16.7
				c6.1-18.5,24.7-16.7,32.9-22.3c8.2-5.5,37-13,26.7-37.1c-10.3-24.1-37.6-38.1-15-38.1c22.6,0,52,0.9,66.4-25.1
				c14.4-26,8.2-31.6,24.7-52c16.4-20.4,9-38.1,9-53c0-14.9,1.3-28.7,23.9-38c22.6-9.3,96.6-20.4,106.9-48.3
				c10.3-27.8,20.5-57.6,16.4-87.3c-4.1-29.7-6.2-48.3,16.5-72.4c22.6-24.1,51.3-44.6,51.3-66.9
				C1796.8,2413.3,1807,2381.7,1770,2372.4z"/>
			<path class="st15" d="M2154.3,1115.4c22.6-22.3,16.4-33.4,47.2-44.6c30.8-11.2,22.6-26,18.5-48.3c-4.1-22.3,12.5-13.3,24.9-20.7
				c12.3-7.4,18.3-12.7,47-14.6c28.8-1.9,2.1-11.1,2.1-22.3c0-11.1-20.5-9.3-49.3-5.6c-28.8,3.7-24.7,0-45.2-7.4
				c-20.5-7.4-141.7-7.4-172.5-7.4c-30.8,0-86.3,5.6-115.1,7.4c-28.8,1.9-26.7,0-82.2-5.6c-55.5-5.6-201.3-1.9-254.7,3.7
				c-53.4,5.6-83.9-8.4-118.8,12c-34.9,20.4-51.1,11.4-90.1,15.2c-39,3.7-66-5.4-84.5-5.4c-18.5,0-16.4-9.3-49.3,1.9
				c-32.9,11.1-22.6,18.6-34.9,3.7c-12.3-14.9-28.8,0-86.3,13c-57.5,13,28.5,58.1,46.9,63.7c0,0,39.1-1.9,61.6-7.4
				c22.6-5.6,32.9,7.4,47.2,3.7c14.4-3.7,18.5-16.7,100.7-33.4c82.1-16.7,139.7-3.7,172.5,9.3c32.8,13,32.8,5.6,61.6-11.2
				c28.8-16.7,78.1-29.7,129.4-37.1c51.4-7.4,18.5,9.3-14.4,20.4c-32.9,11.1-61.6,7.4-55.5,26c6.1,18.6,69.8,13,88.3,13
				c18.4,0,20.5,26,22.6,40.8c2,14.9-2,22.3,2,37.2c4.1,14.8,14.4,13-4.1,27.9c-18.5,14.9-28.8,13-28.8,39c0,26,12.3,53.8,41.1,72.4
				c28.7,18.6,45.2,20.4,61.6-9.3c16.4-29.7,55.5-48.3,76-57.6c20.5-9.3,49.3,0,76-22.3c26.7-22.3,61.6-13,100.7-24.1
				C2135.8,1130.2,2131.7,1137.7,2154.3,1115.4z"/>
			<path class="st15" d="M2190.5,1220.8c-61.6,7.4-119.2-11.2-108.9,18.6c10.3,29.7,14.8,86.2,47.7,76.8
				c56.4-15.9,107.2-35.6,92.8-59.8C2207.8,1232.3,2252.2,1213.4,2190.5,1220.8z"/>
			<path class="st15" d="M2587.7,1078.2c2.2,0.6,4.4,0.8,6.3,1.4c20.5,7.4,34.9-3.7,37-18.6c22.6-29.7,14.4,24.1,39,14.9
				c24.6-9.3,59.6-31.6,88.3-44.6c28.8-13-34.9-7.4-86.3-14.9c-51.4-7.4-123.3,5.6-143.8,18.6
				C2509,1047.1,2557.6,1070.5,2587.7,1078.2z"/>
			<path class="st15" d="M2891.5,1001.3c0,0-10.3,13,14.4,13s76-14.9,117.1-14.9s28.8-13,20.5-13c-8.2,0-30.8-20.4-63.7-18.6
				c-32.9,1.9-30.8,14.8-51.4,14.8s-16.4-5.6-59.6-3.7C2825.8,980.8,2868.9,997.6,2891.5,1001.3z"/>
			<path class="st15" d="M4824.4,1107.6c-4.1-22.3-1.6-62.1-70.9-58.6c-123.1,6.2-154.3-3.3-176.9-3.3c-22.6,0-11-14.3,5.4-14.3
				c16.5,0,16-16.3-0.5-23.8c-16.5-7.4-39.4-1.7-45.5,14.9c-6.2,16.7,23.4,21.9-23.9,21.9c-47.3,0-111.4,62.5-166.8,53.2
				c-55.4-9.3-72.3-42.8-119.6-44.6c-47.2-1.8-86.8,41.1-136.1,41.1c-49.3,0-32.9-16.7-53.4-37.2c-20.6-20.4-30.8-14.8-92.5-14.8
				c-61.6,0-28.8,22.3-16.4,26c12.3,3.7,45.2,13,67.8,31.6c22.6,18.5-41.1,11.1-67.8,13c-26.7,1.8-24.6-13-55.4-29.7
				c-30.9-16.7-106.8-7.4-150-9.3c-43.1-1.9-45.2,0-61.6-27.9c-16.5-27.9-51.4-13-96.6-13c-45.2,0-69.8-20.4-92.5-33.5
				c-22.6-13-57.5-14.9-106.9-22.3c-49.3-7.4-22.6,27.9-4,29.7c0,0,20.5,7.4,41.1,9.2c20.6,1.9,63.7,3.7,86.3,27.9
				c22.6,24.1-69.9,14.9-110.9,35.3c-41.1,20.4-73.9,11.1-102.7,22.2c-28.8,11.2,14.4,29.8,24.6,53.9c10.3,24.2,0,24.2-18.5,29.7
				c-18.5,5.6,6.2-26-2-35.3c-8.2-9.3-39-57.6-63.7-72.5c-24.6-14.8-20.6,13-16.4,33.5c4.1,20.4,10.3,20.4,16.4,35.3
				c6.2,14.9-26.7,0-43.2-11.1c-16.4-11.1-69.8,14.9-94.5,3.7c-24.7-11.1,8.2-7.4,8.2-18.6c0-11.1-28.7-1.8-37-18.6
				c-8.2-16.7,51.4-37.1,88.4-42.7c37-5.6,32.8-5.6,32.8-22.3c0-16.7-65.7-11.1-121.2,13c-55.5,24.2-41.1,40.9-49.3,57.6
				c-8.2,16.7,18.5,18.6,30.8,27.9c12.4,9.3-14.4,13-39,20.4c-24.7,7.4-30.8,0-59.6,9.3c-28.7,9.3-12.3,20.4-37,29.7
				c-24.7,9.2-22.6,9.2-43.1,16.7c-20.5,7.4,4.1-27.9,32.9-31.6c28.7-3.7,20.5-18.6,12.3-24.2c-8.2-5.5-61.6-20.4-119.1-35.3
				c-57.5-14.8-150,5.6-180.8,18.6c-30.8,13-28.8,22.3-32.8,40.9c-4.1,18.5-74,46.4-108.9,63.1c-34.9,16.7-4.2,39,6.1,53.9
				c10.3,14.8,32.8,7.4,61.6,0c28.8-7.5,24.7,24.1,28.8,35.3c4.1,11.1,20.5,13,47.3,1.8c26.7-11.1,20.6-37.1,20.6-52
				c0-14.8-6.2-22.3,12.3-42.7c18.5-20.4,34.9-33.4,51.3-42.7c16.4-9.3,14.4,7.3-10.3,26c-24.6,18.6-8.2,24.2,4.1,46.4
				c12.3,22.3,37,0,67.8-3.7c30.8-3.7-26.7,24.1-49.3,24.1c-22.6,0,0,22.3-14.4,22.3c-14.4,0-16.4,9.3-18.5,31.6
				c-2.1,22.3-10.3,16.7-26.7,22.3c-16.4,5.6-41.1,7.4-67.9,1.8c-26.7-5.6-24.6-27.9-43.1-42.7c-18.5-14.8-22.6,7.4-22.6,16.7
				c0,9.3-18.5,29.7-26.6,29.7c-8.3,0-32.9,22.3-47.3,40.8c-14.4,18.6-24.6,7.4-28.7,0c-4.1-7.4,10.2-18.6,2-37.2
				c-8.2-18.5-41.1-33.4-30.8-76.1c10.3-42.7-12.3-20.4-45.2-16.7c-32.9,3.7-43.2,16.7-45.2,27.9c-2,11.1-20.6,33.4-41.1,53.9
				c-20.6,20.4-6.1,37.1,4.1,59.4c10.2,22.3,37-7.4,45.2-26c8.2-18.6,18.5-27.9,30.8-18.6c12.3,9.3-18.5,26-22.6,48.3
				c-4.1,22.3,8.2,20.4,37,13c28.7-7.4,14.4-13,36.9-3.7c22.6,9.3-20.5,16.7-47.3,18.6c-26.7,1.8-16.4,18.6,6.2,33.4
				c22.6,14.9,12.3,37.2-2.1,39c-14.3,1.9-41.1,5.6-82.1,13c-41.1,7.4-4.1,37.2-12.3,53.8c-8.2,16.7-10.3,53.9,8.2,55.7
				c18.5,1.9,18.5,29.7,8.2,39c-10.3,9.3-12.3,18.6-37,35.3c-24.7,16.7-6.2,31.6-14.4,53.8c-8.2,22.3-28.8,9.3-53.4,33.5
				c-24.6,24.2-34.9,42.7-53.4,70.6c-18.5,27.9-20.6,29.7,2.1,63.2c22.6,33.4,0,42.7-18.5,72.4c-18.5,29.7,6.1,31.6,14.4,57.6
				c8.2,26,24.7,20.4,30.9,46.4c6.1,26,14.3,33.4,43.1,52c28.8,18.6,57.5,44.6,71.9,39c14.4-5.6,37-20.4,84.2-18.6
				c47.2,1.9,30.8-18.6,80.1-26c49.3-7.4,7.4,10.6,13.6,23.6c6.2,13,48,21,85,22.8c37,1.8,6.1,42.7,4.1,68.7c-2,26,0,26,18.5,48.3
				c18.5,22.3,43.2,72.4,49.3,98.4c6.1,26-6.1,55.7-22.6,79.9c-16.4,24.1-10.3,79.8,24.7,120.8c34.9,40.8,14.4,39,14.4,81.7
				c0,42.7,24.7,35.3,43.2,59.4c18.5,24.2,10.3,68.7,26.7,92.9c16.4,24.1,45.2,1.8,78.1-9.3c32.8-11.1,47.3-7.4,86.3-33.5
				c39-25.9,69.9-78,69.9-92.8c0-14.8,12.3-20.4,32.9-27.8c20.5-7.4,16.4-55.7,14.4-68.7c-2-13,4.1-24.2,12.3-31.6
				c8.2-7.4,59.6-52,78.1-70.6c18.5-18.5,2-44.6-2-74.3c-4.1-29.7-16.5-40.8-16.5-76.2c0-35.3-12.3-31.6,55.5-89.1
				c67.8-57.6,131.5-148.6,137.6-169c6.2-20.5,4.1-37.2,0-52c-4.1-14.8-92.5,14.9-113,14.9c-20.5,0-73-39.6-77.1-54.4
				c-4.1-14.9-19.5-31.1-46.1-53.3c-26.7-22.3-6.1-53.9-26.7-78c-20.5-24.1-30.8-59.4-34.9-79.9c-4.1-20.4,30.8,14.8,57.5,42.7
				c26.8,27.9,61.7,79.9,72,98.5c10.3,18.6,18.5,46.4,20.6,68.7c2,22.3,18.5,26,43.2,24.2c24.7-1.9,110.9-42.7,141.7-55.8
				c30.8-12.9,67.8-51.9,82.2-89.1c14.4-37.2-30.8-31.6-51.3-50.2c-20.6-18.5-20.6,0-45.2,5.6c-24.6,5.6-45.2-24.1-84.2-57.6
				c-39.1-33.4-14.4-22.3-6.1-29.7c8.2-7.4,47.2,16.7,69.9,40.9c22.6,24.1,26.6,14.8,53.4,14.8c26.7,0,32.9,11.1,67.8,20.4
				c34.9,9.2,53.4-3.7,83.2-0.8c29.9,2.9,25.6,15.7,46.1,45.4c20.6,29.7,12.4,20.5,57.5,24.2c45.2,3.7,12.3,0,12.3,26
				c0,26,4.1,35.3,30.9,66.9c26.6,31.6,36.9,91,45.1,120.7c8.2,29.7,24.7,0,51.4,0c26.7,0-7.7,28.3,22.6,50.1
				c34.9,25.2,33-10.9,33-22c0-11.2-10.4-37.4-22.7-46.7c-12.3-9.2-28.8-7.4-14.4-22.3c14.4-14.9-16.7-24.5-16.7-44.9
				c0-20.4,8.1-48,18.4-57.3c10.3-9.3,60-35.3,82.6-59.4c22.6-24.1,41.1-27.8,72-26c30.8,1.9,6.1,5.6,24.6,27.9
				c18.5,22.3,22.6,53.9,43.1,76.2c20.6,22.3,22.6-3.7,39-11.2c16.4-7.4,6.2,22.3,18.5,44.6c12.3,22.3,4.1,52,4.1,72.5
				c0,20.4,26.7,40.8,43.2,59.4c16.4,18.6,10.3,27.9,0,35.3c-10.3,7.4-30.8-18.5-47.2-33.4c-16.4-14.8-41.1-5.6-24.7,11.2
				c16.4,16.7,26.7,46.4,45.2,78c18.5,31.6,57.6,68.7,84.3,102.1c26.7,33.5,113,48.3,145.8,48.3c32.8,0,98.6,26.1,131.5,29.8
				c32.8,3.7,57.5,0,80-11.1c22.7-11.2,12.4-24.2,10.3-29.8c-2-5.5-18.5,5.6-41.1,9.3c-22.6,3.7-28.7,3.7-57.5,5.5
				c-28.7,1.8-10.3-9.3-41.1-11.1c-30.8-1.9-61.6-7.4-96.6-18.6c-34.9-11.1-53.4-20.4-78-27.9c-24.7-7.4-2.1-20.4-4.1-52
				c-2-31.6-24.6-18.6-43.2-29.8c-18.5-11.1-12.3-35.3-4.1-27.8c8.2,7.4,10.3,16.7,10.3-22.3c0-39-39-65-63.7-98.4
				c-24.7-33.4-20.6-52-18.5-68.7c2-16.7,45.2,14.9,67.8,39.1c22.6,24.1,22.6,24.1,34.9,18.6c12.3-5.6,49.3-24.2,57.5-53.9
				c8.3-29.7-65.7-89.1-76-117c-10.3-27.9,14.4-11.1,26.7-29.7c12.4-18.6,26.7,7.4,18.5,20.4c-8.2,13,2,20.4,10.3,33.5
				c8.2,13,8.2,0,16.4-16.7s2-22.3,16.5-33.4c14.4-11.2,69.8-26,84.2-39.1c14.4-13,24.7-27.9,43.1-74.3c18.5-46.4-2-44.5-10.3-61.3
				c-8.2-16.7-32.8-44.6-47.2-61.3c-14.4-16.7-2-13,8.2-18.5c10.3-5.6,2.1-18.6-22.6-26.1c-24.7-7.4-20.5,7.5-43.1,3.7
				c-22.7-3.7-10.3-18.6,14.4-44.6c24.6-26,12.3,5.6,28.7,16.7c16.4,11.2,20.5-9.3,32.9-3.7c12.3,5.5,37,16.7,55.5,39
				c18.5,22.3,18.3,54.6,36.8,52.7c18.5-1.8,18.7-15.6,26.9-32.3c8.2-16.7-18.8-33.4-33.2-46.4c-14.4-13-32.6-11.1-20.2-22.3
				c12.3-11.1,2-27.9,8.2-40.8c6.1-13,28.8-5.6,51.3-14.9c22.6-9.3,24.6-40.8,24.6-74.3c0-33.5-18.5-48.3-28.7-59.4
				c-10.3-11.2,12.3-5.6,30.8,7.4c18.5,13,47.3,83.6,53.4,111.5c6.2,27.9,2,27.9,26.7,52c24.6,24.2,16.5,20.4,8.2,48.3
				c-8.2,27.9-28.7,35.3-59.6,42.7c-30.8,7.4-20.5,13-39,40.9c-18.5,27.9,10.3,29.7,26.7,37.2c16.4,7.4,18.5-23.3,39-36.3
				c20.5-13,49.3-19.4,84.2-19.4c34.9,0-10.2-42.7-12.3-65c-2.1-22.3-4.1-37.1-12.4-53.8c-8.2-16.7,8.2-16.7,32.9-27.9
				c24.7-11.2,22.7-33.5,8.2-33.5c-14.4,0-26.7,9.3-59.6,7.4c-32.9-1.9-24.7-26-32.9-35.3c-8.2-9.2-18.5-29.7-20.6-46.4
				c-2-16.7-30.8-39-51.3-55.7c-20.6-16.7-32.9-27.8-32.9-20.4c0,7.4-12.3-1.9-41.1-3.7c-28.7-1.8-34.9,3.7-59.5,1.8
				c-24.7-1.8,2-39,12.3-65c10.3-26,39.1-11.1,61.7-11.1s102-88.7,134.9-81.3c32.9,7.4,18.5-18.6,24.7-39c6.1-20.4,20.5-9.3,39-1.8
				c18.5,7.4,24.7,9.3,24.7-7.4c0-16.7,16.4-20.4,30.8-5.6c7.2,7.4,5.8,19.6,2.7,30c-6,19.5-7.9,40-4.8,60.1
				c3,19.4,8.8,39.5,19.6,44.8c22.6,11.2,13.5,72.9,40.2,89.7c26.6,16.7,18.7-28,18.7-59.6c0-31.6-12.7-85.1-31.2-114.8
				c-18.5-29.8-6.2-16.7,28.7-16.7c34.9,0,37-11.1,45.3-20.4c8.2-9.3,14.4-11.1,45.2-11.1s12.4-11.2-2-26
				c-14.4-14.8-43.1-11.1-32.9-20.5c10.3-9.2,65.7,5.6,92.5,14.9C4834.6,1137.3,4828.5,1129.9,4824.4,1107.6z M2908.3,1725.6
				c-12.3,22.3-18.5,37.2-36.9,31.6c-18.5-5.6-80.1-3.7-111-13c-30.8-9.3-76-26-84.2-5.5c-8.2,20.4,20.6,37.1-30.8,20.4
				c-51.4-16.7-106.8-37.1-113-52c-6.1-14.8,20.6-55.7-16.4-55.7c-37,0-88.4-1.9-104.8,9.2c-16.5,11.2-80.1,31.6-100.7,26
				c-18.7-5-47.2-11.1-14.4-24.1c32.9-13,72-5.6,76-24.2c4.1-18.6-28.8-22.3,4.1-38.9c32.8-16.7,20.5-31.6,43.2-40.9
				c22.6-9.2,53.4-7.4,69.8-13c16.4-5.6-6.1-11.1,26.8,5.5c32.8,16.7,53.4,48.3,69.8,50.2c16.5,1.8,26.8,13,16.5,20.4
				c-10.3,7.4-26.8,13-32.9,13c-6.1,0-10.3,14.8-4.1,16.7c6.1,1.8,20.5,26,30.8,18.6c10.3-7.4-3.7-19.6,14.8-25.1
				c18.5-5.6,40.7-12,32.5-23.2c-8.2-11.1-16.4-24.1,0-16.7c16.4,7.4,35.8,6.2,17.3-10.6c-18.5-16.7-29.6-19.1-52.2-34
				c-22.6-14.8-47.2-22.3-47.2-33.4c0-11.1-14.4-31.6,8.2-24.1c22.6,7.4,100.7,46.4,100.7,61.3c0,14.8,20.6,40.8,2,53.8
				c-18.5,13,18.6,16.7,26.7,24.1c8.2,7.4,4.2,27.9,26.8,24.2c22.6-3.7,39.1-1.8,26.7-22.3c-12.3-20.4-32.8-29.7-12.3-37.1
				c20.5-7.4,24.7-16.7,30.8,14.8c6.2,31.6-2.1,42.7,47.2,44.6c49.3,1.8,82.2-11.1,88.3,1.8
				C2912.5,1681.1,2920.7,1703.3,2908.3,1725.6z M2988.5,1586.3c-32.8-1.8-81.5,0.1-108.3,0.1c-26.7,0-53.5,6.4-53.5,6.4
				c-22.6-3.7-66.2-4.7-39.5-36.3c26.7-31.5,10.3-72.4,43.2-61.2c32.8,11.1,34.2,50.7,54.8,24.6c20.5-26,43.8-52.5,49.9-32.1
				c6.2,20.4-28.8,37.2,14.4,53.8C2992.6,1558.5,3021.4,1588.2,2988.5,1586.3z M3190.8,1665.2c-30.8,0-72.3-15.7-72.3-30.6
				c0-14.9-3.4-33.8-3.4-33.8c-10.4-41.7-42.4-45.8-42.4-69.9c0-24.1,24.8-43,57.7-43c32.8,0,74.3,0.4,49.6,26.4
				c-24.6,26-72.2,23.7-39.3,64.6C3173.6,1619.7,3221.6,1665.2,3190.8,1665.2z"/>
			<path class="st15" d="M4311.7,1925.3c16.2,4.2,20.8-56.4-9.2-48C4272.5,1885.7,4292.8,1920.4,4311.7,1925.3z"/>
			<path class="st15" d="M4348.9,2106.6c13.8,8.4,16.2,23,13.8,45.9c-2.3,23-25.4,20.9,13.9,35.5c39.2,14.6,85.4,39.7,73.9-6.3
				c-11.5-45.9-2.3-52.2-43.9-87.7c-41.5-35.5-43.9-12.5-48.5-41.7c-4.6-29.2-16.2-83.5-32.3-62.6c-14.2,18.4-25.4,25-9.2,56.4
				C4332.7,2077.4,4335,2098.3,4348.9,2106.6z"/>
			<path class="st15" d="M4261.2,2179.7c-14,16.2-41.6,52.2-60,64.7c-18.5,12.5-50.8-4.1-48.5,25.1c2.3,29.2,4.6,41.8,6.9,62.6
				c2.3,20.9,6.9,33.4,41.6,33.4s50.8,10.4,62.3,6.3c11.5-4.2,9.2-23,23.1-48c13.9-25.1,36.9-18.8,27.7-37.6
				c-9.2-18.8-9.2-14.6-9.2-33.4c0-18.8,11.6-6.3,4.6-37.6C4302.7,2183.9,4277.3,2160.9,4261.2,2179.7z"/>
			<path class="st15" d="M4748.3,2373.8c-30-29.2-80.8-50.1-101.6-48c-20.7,2.1-39.2,31.3-50.8,20.9c-11.5-10.4-46.2-60.5-64.6-45.9
				c-18.5,14.6,2.3,31.3-20.8,31.3c-23.1,0-30,25-34.6-8.4c-4.6-33.4-23.1-50.1-27.7-25.1c-4.6,25.1-6.9,41.8-18.4,23
				c-11.6-18.8-18.5-6.3-18.5-25c0-18.8-46.2-39.7-64.6-18.8c-11.6,13-16.2,14.6-20.8,43.8c-4.6,29.2-16.2,75.1,9.2,62.6
				c25.4-12.5,30-2.1,41.6-16.7c11.5-14.6,25.4-22.9,46.2-14.6c20.8,8.4,11.5,8.4,48.5,4.2c36.9-4.2,55.4-4.2,80.8,10.4
				c25.4,14.6,76.2,6.3,76.2,20.9c0,14.6-53.1,25.1,0,39.7c53.1,14.6,64.6,48,80.8,31.3c16.2-16.7,39.2-39.7,55.4-23
				c16.2,16.7,78.5,62.6,67,37.6c-11.6-25-9.2-48,27.7-75.1c36.9-27.1,27.7-39.7,11.5-39.7c-16.1,0-16.1,18.8-53.1,22.9
				C4780.6,2386.3,4778.3,2403,4748.3,2373.8z"/>
			<path class="st15" d="M4764.4,2643c-20.8-48-20.8-85.6-32.3-106.4c-11.5-20.9-2.3-45.9-36.9-45.9c-14.1,0-13.9,8.3-25.4,35.5
				c-11.5,27.1,2.3,77.2-27.7,71c-30-6.3-43.9-18.8-50.8-45.9c-6.9-27.1,9.2-52.2-13.8-52.2c-23.1,0-87.7-14.6-103.9,8.4
				c-16.2,23,4.6,31.3-30,31.3c-34.6,0-48.5,0-67,20.8c-18.5,20.9-43.9,79.3-143.1,83.5c-99.3,4.2-48.5,52.2-48.5,104.3
				c0,52.2-53.1,83.5-30,102.3c23.1,18.8-6.9,43.8,41.5,29.2c48.5-14.6,92.3-18.8,168.5-29.2c76.2-10.4,110.8-14.6,113.1,18.8
				c2.3,33.4-9.2,10.4,20.8,16.7c30,6.3-2.3,50.1,32.3,54.3c34.6,4.2,5.8,33.9,35.8,33.9c30,0,22.1,22.1-3.3,22.1
				c-25.4,0-26.2,59.2,10.7,42.5c37-16.7,65.3-31.7,65.3-56.7c0-25.1-4.6-27.1,39.2-58.5c43.9-31.3,145.4-106.4,138.5-167
				C4810.6,2695.2,4785.2,2691,4764.4,2643z"/>
		</g>
	</g>
</g>
<g id="Layer_5">
	<path class="st14" d="M2492.9,3582.9h-0.5v-9.5h0.5c13.9,0,28-0.2,41.9-0.5l0.2,9.5C2521.1,3582.8,2506.9,3582.9,2492.9,3582.9z
		 M2449.7,3582.4c-14.2-0.4-28.5-0.9-42.7-1.6l0.5-9.4c14,0.7,28.3,1.3,42.4,1.6L2449.7,3582.4z M2577.8,3580.8l-0.5-9.5
		c14.1-0.7,28.3-1.6,42.4-2.7l0.7,9.4C2606.2,3579.2,2591.9,3580.1,2577.8,3580.8z M2364.5,3578c-14.2-1.1-28.5-2.4-42.5-3.8l1-9.4
		c14,1.4,28.2,2.7,42.3,3.8L2364.5,3578z M2662.9,3574.3l-1-9.4c14-1.4,28.2-3.1,42.2-4.8l1.2,9.4
		C2691.3,3571.2,2677,3572.9,2662.9,3574.3z M2279.5,3569.3c-14-1.8-28.2-3.8-42.3-6l1.4-9.4c13.9,2.2,28.1,4.2,42,6L2279.5,3569.3z
		 M2747.6,3563.5l-1.4-9.4c13.9-2.1,28-4.5,41.9-7l1.7,9.3C2775.7,3559,2761.5,3561.3,2747.6,3563.5z M2195.2,3556.3
		c-13.9-2.5-28-5.3-41.9-8.2l1.9-9.3c13.8,2.9,27.8,5.6,41.7,8.1L2195.2,3556.3z M2831.6,3548.3l-1.9-9.3c13.8-2.9,27.7-6,41.4-9.2
		l2.2,9.2C2859.5,3542.3,2845.4,3545.4,2831.6,3548.3z M2111.6,3538.8c-13.8-3.2-27.7-6.7-41.4-10.3l2.4-9.2
		c13.6,3.6,27.5,7,41.2,10.3L2111.6,3538.8z M2914.7,3528.8l-2.4-9.2c13.6-3.6,27.4-7.4,40.9-11.3l2.6,9.1
		C2942.2,3521.4,2928.4,3525.2,2914.7,3528.8z M2029,3517.1c-13.6-3.9-27.3-8.1-40.8-12.5l2.9-9c13.4,4.3,27.1,8.5,40.6,12.4
		L2029,3517.1z M2996.7,3505l-2.9-9c13.4-4.3,27-8.8,40.3-13.4l3.1,8.9C3023.8,3496.1,3010.2,3500.7,2996.7,3505z M1947.5,3491.1
		c-13.4-4.7-26.9-9.6-40.3-14.6l3.3-8.9c13.2,5,26.7,9.9,40,14.5L1947.5,3491.1z M3077.3,3477l-3.3-8.9c13.2-5,26.5-10.2,39.5-15.5
		l3.6,8.8C3103.9,3466.7,3090.5,3472,3077.3,3477z M1867.4,3460.8c-13.2-5.4-26.4-11-39.4-16.7l3.8-8.7
		c12.9,5.7,26.1,11.2,39.2,16.6L1867.4,3460.8z M3156.3,3444.9l-3.8-8.7c12.8-5.6,25.8-11.5,38.5-17.5l4,8.6
		C3182.2,3433.3,3169.2,3439.2,3156.3,3444.9z M1789,3426.5c-12.9-6-25.8-12.3-38.5-18.7l4.2-8.5c12.6,6.3,25.5,12.6,38.3,18.6
		L1789,3426.5z M3233.4,3408.7l-4.2-8.5c12.6-6.3,25.2-12.8,37.6-19.4l4.5,8.3C3258.7,3395.9,3246,3402.4,3233.4,3408.7z
		 M1712.6,3388.1c-12.5-6.7-25.1-13.6-37.5-20.6l4.7-8.2c12.3,7,24.8,13.9,37.2,20.5L1712.6,3388.1z M3308.5,3368.7l-4.7-8.2
		c12.2-6.9,24.5-14.1,36.6-21.3l4.9,8.1C3333.2,3354.5,3320.8,3361.7,3308.5,3368.7z M1638.2,3345.8c-12.1-7.3-24.4-14.9-36.3-22.5
		l5.1-8c11.9,7.6,24,15.1,36.1,22.4L1638.2,3345.8z M3381.6,3324.8l-5.1-8c11.8-7.5,23.8-15.3,35.5-23.2l5.3,7.8
		C3405.5,3309.4,3393.5,3317.2,3381.6,3324.8z M1566.2,3299.8c-11.8-7.9-23.6-16.1-35.1-24.4l5.5-7.7c11.5,8.2,23.2,16.3,34.9,24.2
		L1566.2,3299.8z M3452.3,3277.2l-5.5-7.7c11.5-8.2,23-16.6,34.2-25l5.7,7.6C3475.4,3260.6,3463.8,3269,3452.3,3277.2z
		 M1496.6,3250.2c-11.3-8.5-22.7-17.3-33.8-26.1l5.9-7.4c11.1,8.8,22.4,17.5,33.6,26L1496.6,3250.2z M3520.5,3226l-5.9-7.4
		c11-8.7,22.1-17.7,32.9-26.7l6.1,7.3C3542.7,3208.2,3531.6,3217.3,3520.5,3226z M1429.7,3197c-10.9-9.1-21.8-18.4-32.4-27.8
		l6.3-7.1c10.6,9.3,21.4,18.6,32.2,27.7L1429.7,3197z M3586,3171.4l-6.2-7.1c10.6-9.3,21.2-18.9,31.5-28.4l6.4,6.9
		C3607.3,3152.4,3596.7,3162.1,3586,3171.4z M1365.7,3140.6c-10.4-9.6-20.8-19.5-30.9-29.4l6.6-6.8c10.1,9.9,20.4,19.7,30.7,29.3
		L1365.7,3140.6z M3648.7,3113.5l-6.6-6.8c10.1-9.8,20.2-19.9,30-30l6.8,6.6C3669,3093.4,3658.8,3103.6,3648.7,3113.5z
		 M1304.6,3080.9c-9.9-10.1-19.7-20.6-29.4-31l6.9-6.4c9.6,10.4,19.4,20.7,29.2,30.8L1304.6,3080.9z M3708.3,3052.4l-6.9-6.4
		c9.6-10.3,19.2-20.9,28.5-31.5l7.1,6.3C3727.6,3031.3,3717.9,3042,3708.3,3052.4z M1246.7,3018.2c-9.3-10.6-18.7-21.5-27.7-32.4
		l7.3-6.1c9,10.8,18.3,21.7,27.6,32.2L1246.7,3018.2z M3764.8,2988.3l-7.3-6.1c9.1-10.8,18.1-21.9,26.8-32.9l7.4,5.9
		C3783,2966.3,3773.9,2977.4,3764.8,2988.3z M1192.1,2952.7c-8.8-11.1-17.5-22.5-26-33.8l7.6-5.7c8.4,11.3,17.1,22.6,25.9,33.6
		L1192.1,2952.7z M3817.9,2921.4l-7.6-5.7c8.5-11.3,16.9-22.8,25.1-34.3l7.7,5.5C3834.9,2898.5,3826.4,2910.1,3817.9,2921.4z
		 M1140.9,2884.4c-8.2-11.5-16.3-23.3-24.2-35.1l7.9-5.3c7.9,11.7,16,23.4,24.1,34.9L1140.9,2884.4z M3867.5,2851.8l-7.8-5.3
		c7.9-11.7,15.7-23.6,23.3-35.5l8,5.1C3883.3,2828.1,3875.4,2840.1,3867.5,2851.8z M1093.3,2813.7c-7.6-11.9-15.1-24.1-22.4-36.2
		l8.1-4.9c7.2,12.1,14.7,24.2,22.3,36L1093.3,2813.7z M3913.5,2779.8l-8.1-4.9c7.3-12.1,14.5-24.4,21.5-36.7l8.2,4.7
		C3928.1,2755.2,3920.8,2767.6,3913.5,2779.8z M1049.5,2740.7c-7-12.3-13.9-24.9-20.5-37.3l8.4-4.4c6.6,12.4,13.5,24.9,20.4,37.1
		L1049.5,2740.7z M3955.7,2705.4l-8.3-4.5c6.6-12.4,13.2-25.1,19.6-37.8l8.5,4.2C3969,2680.1,3962.4,2692.9,3955.7,2705.4z
		 M1009.5,2665.5c-6.3-12.6-12.6-25.5-18.5-38.3l8.6-4c6,12.7,12.2,25.5,18.4,38.1L1009.5,2665.5z M3994.1,2628.9l-8.6-4
		c6-12.8,11.9-25.8,17.6-38.8l8.7,3.8C4006.1,2602.9,4000.1,2616,3994.1,2628.9z M973.4,2588.4c-5.6-12.9-11.2-26.1-16.5-39.2
		l8.8-3.6c5.3,13,10.8,26.1,16.4,39L973.4,2588.4z M4028.4,2550.5l-8.8-3.6c5.3-13.1,10.6-26.4,15.5-39.6l8.9,3.3
		C4039.1,2523.9,4033.8,2537.4,4028.4,2550.5z M941.3,2509.4c-5-13.3-9.9-26.8-14.5-40.1l8.9-3.1c4.6,13.3,9.5,26.7,14.4,39.9
		L941.3,2509.4z M4058.7,2470.4l-8.9-3.1c4.6-13.3,9.2-26.9,13.5-40.4l9,2.9C4067.9,2443.3,4063.3,2457,4058.7,2470.4z
		 M913.3,2428.8c-4.3-13.5-8.5-27.2-12.4-40.8l9.1-2.6c3.9,13.5,8.1,27.2,12.3,40.6L913.3,2428.8z M4084.7,2388.9l-9.1-2.6
		c3.9-13.5,7.7-27.3,11.3-40.9l9.2,2.4C4092.5,2361.5,4088.6,2375.3,4084.7,2388.9z M889.5,2346.8c-3.6-13.7-7-27.6-10.3-41.4
		l9.2-2.2c3.2,13.7,6.7,27.6,10.2,41.2L889.5,2346.8z M4106.4,2306.3l-9.2-2.2c3.2-13.7,6.3-27.7,9.2-41.4l9.3,1.9
		C4112.7,2278.5,4109.6,2292.5,4106.4,2306.3z M870,2263.7c-2.9-13.9-5.6-28-8.1-41.9l9.3-1.7c2.5,13.9,5.2,27.9,8.1,41.7
		L870,2263.7z M4123.7,2222.8l-9.3-1.7c2.5-13.9,4.9-27.9,7-41.9l9.4,1.4C4128.6,2194.7,4126.3,2208.8,4123.7,2222.8z M854.9,2179.6
		c-2.2-14-4.2-28.2-5.9-42.3l9.4-1.2c1.8,14,3.8,28.1,5.9,42L854.9,2179.6z M4136.8,2138.4l-9.4-1.2c1.8-14,3.4-28.2,4.9-42.2l9.4,1
		C4140.2,2110.1,4138.6,2124.3,4136.8,2138.4z M844.1,2095c-1.4-14.1-2.7-28.4-3.8-42.5l9.4-0.7c1.1,14.1,2.3,28.3,3.7,42.3
		L844.1,2095z M4145.5,2053.5l-9.4-0.7c1.1-14,2-28.2,2.7-42.4l9.4,0.5C4147.4,2025.1,4146.5,2039.4,4145.5,2053.5z M837.6,2009.8
		c-0.7-14.1-1.2-28.5-1.6-42.7l9.5-0.2c0.3,14.1,0.9,28.4,1.6,42.4L837.6,2009.8z M4149.8,1968.2l-9.5-0.2
		c0.4-14.1,0.5-28.4,0.5-42.4h9.5C4150.3,1939.7,4150.1,1954,4149.8,1968.2z M845,1924.5l-9.5,0c0-14.2,0.2-28.5,0.6-42.7l9.5,0.2
		C845.2,1896.1,845,1910.4,845,1924.5z M4140.4,1885.1c-0.3-14.1-0.9-28.4-1.6-42.4l9.5-0.5c0.7,14.1,1.2,28.5,1.6,42.7
		L4140.4,1885.1z M847.2,1839.6l-9.4-0.5c0.7-14.2,1.6-28.5,2.7-42.6l9.4,0.7C848.8,1811.3,847.9,1825.5,847.2,1839.6z
		 M4136.2,1800.3c-1.1-14.1-2.3-28.3-3.7-42.3l9.4-1c1.4,14.1,2.7,28.4,3.7,42.5L4136.2,1800.3z M853.7,1755l-9.4-1
		c1.4-14.1,3.1-28.4,4.9-42.4l9.4,1.2C856.8,1726.8,855.1,1741,853.7,1755z M4127.7,1715.9c-1.8-13.9-3.7-28.1-5.9-42l9.4-1.4
		c2.2,14,4.1,28.3,5.9,42.3L4127.7,1715.9z M864.5,1670.8l-9.3-1.5c2.2-14,4.6-28.2,7.1-42.1l9.3,1.7
		C869.1,1642.8,866.7,1656.9,864.5,1670.8z M4114.8,1632c-2.5-13.9-5.2-27.9-8-41.7l9.3-1.9c2.9,13.9,5.6,28,8.1,41.9L4114.8,1632z
		 M879.7,1587.3l-9.3-1.9c2.9-13.9,6-27.9,9.3-41.7l9.2,2.2C885.7,1559.5,882.6,1573.5,879.7,1587.3z M4097.6,1548.9
		c-3.2-13.7-6.6-27.6-10.2-41.2l9.2-2.4c3.6,13.7,7,27.6,10.3,41.4L4097.6,1548.9z M899.2,1504.7l-9.1-2.4
		c3.6-13.7,7.4-27.5,11.4-41.1l9.1,2.6C906.6,1477.3,902.8,1491,899.2,1504.7z M4076.2,1466.7c-3.9-13.5-8-27.2-12.3-40.6l9-2.9
		c4.3,13.5,8.5,27.3,12.4,40.9L4076.2,1466.7z M922.9,1423.2l-9-2.9c4.3-13.5,8.9-27.2,13.6-40.6l8.9,3.1
		C931.8,1396.1,927.2,1409.7,922.9,1423.2z M4050.5,1385.8c-4.6-13.3-9.5-26.7-14.4-39.9l8.9-3.3c5,13.3,9.9,26.8,14.5,40.2
		L4050.5,1385.8z M951,1342.7l-8.9-3.3c5-13.3,10.3-26.7,15.7-39.9l8.8,3.6C961.2,1316.2,956,1329.5,951,1342.7z M4020.6,1306.4
		c-5.3-13-10.8-26.1-16.4-39l8.7-3.8c5.6,13,11.2,26.1,16.5,39.2L4020.6,1306.4z M983.2,1263.9l-8.7-3.8c5.7-13,11.7-26.1,17.7-39
		l8.6,4C994.7,1238,988.8,1251,983.2,1263.9z M3986.8,1228.8c-5.9-12.7-12.1-25.5-18.4-38.1l8.5-4.2c6.3,12.6,12.5,25.5,18.5,38.3
		L3986.8,1228.8z M1019.4,1186.9l-8.5-4.2c6.4-12.7,13-25.5,19.7-38l8.3,4.5C1032.3,1161.6,1025.7,1174.3,1019.4,1186.9z
		 M3949,1153.1c-6.6-12.4-13.4-24.9-20.4-37.1l8.2-4.7c7,12.3,13.9,24.9,20.5,37.3L3949,1153.1z M1059.5,1111.9l-8.2-4.7
		c7-12.3,14.3-24.7,21.6-36.9l8.1,4.9C1073.7,1087.3,1066.5,1099.7,1059.5,1111.9z M3907.3,1079.3c-7.2-12-14.7-24.2-22.3-36.1
		l8-5.1c7.6,12,15.1,24.2,22.4,36.3L3907.3,1079.3z M1103.4,1039.2l-8-5.1c7.6-12,15.5-24,23.5-35.7l7.8,5.3
		C1118.9,1015.3,1111,1027.3,1103.4,1039.2z M3861.9,1007.8c-7.8-11.6-15.9-23.4-24.1-34.9l7.7-5.5c8.2,11.6,16.4,23.4,24.2,35.1
		L3861.9,1007.8z M1151,968.7l-7.7-5.5c8.2-11.5,16.8-23.1,25.3-34.4l7.6,5.7C1167.7,945.7,1159.2,957.3,1151,968.7z M3812.8,938.7
		c-8.4-11.3-17.1-22.6-25.9-33.6l7.4-5.9c8.8,11.1,17.5,22.5,26,33.8L3812.8,938.7z M1202.1,900.9l-7.4-5.9
		c8.8-11.1,17.9-22.2,27-33.1l7.3,6.1C1219.9,878.8,1210.9,889.9,1202.1,900.9z M3760.3,872.1c-9-10.8-18.3-21.7-27.5-32.3l7.1-6.2
		c9.3,10.6,18.6,21.6,27.7,32.4L3760.3,872.1z M1256.7,835.8l-7.1-6.3c9.4-10.6,19-21.3,28.7-31.7l6.9,6.4
		C1275.6,814.6,1266,825.2,1256.7,835.8z M3704.3,808.3c-9.5-10.3-19.4-20.7-29.2-30.8l6.8-6.6c9.9,10.2,19.7,20.6,29.3,31
		L3704.3,808.3z M1314.5,773.6l-6.8-6.6c9.9-10.1,20.1-20.3,30.2-30.1l6.6,6.8C1334.4,753.4,1324.3,763.5,1314.5,773.6z
		 M3645.2,747.4c-10.1-9.9-20.4-19.7-30.7-29.3l6.4-6.9c10.4,9.6,20.8,19.5,30.9,29.5L3645.2,747.4z M1375.3,714.4l-6.4-7
		c10.4-9.6,21.1-19.2,31.7-28.5l6.2,7.1C1396.3,695.3,1385.7,704.9,1375.3,714.4z M3583,689.6c-10.6-9.3-21.4-18.7-32.2-27.7
		l6.1-7.3c10.8,9.1,21.7,18.5,32.4,27.9L3583,689.6z M1439.1,658.5l-6.1-7.3c10.9-9.1,22-18.1,33.1-26.9l5.9,7.4
		C1461,640.5,1449.9,649.5,1439.1,658.5z M3517.9,635.1c-11-8.8-22.3-17.5-33.6-26l5.7-7.6c11.3,8.5,22.7,17.3,33.8,26.2
		L3517.9,635.1z M1505.6,605.9l-5.7-7.6c11.3-8.5,22.9-16.9,34.4-25.1l5.5,7.7C1528.4,589.1,1516.9,597.5,1505.6,605.9z
		 M3450.1,583.9c-11.4-8.2-23.2-16.3-34.9-24.3l5.3-7.8c11.8,8,23.6,16.2,35.1,24.4L3450.1,583.9z M1574.8,556.8l-5.3-7.9
		c11.7-7.9,23.7-15.7,35.7-23.3l5.1,8C1598.4,541.2,1586.4,549,1574.8,556.8z M3379.7,536.3c-11.9-7.6-24-15.1-36.1-22.4l4.9-8.1
		c12.2,7.3,24.4,14.9,36.3,22.6L3379.7,536.3z M1646.3,511.4l-4.9-8.1c12.1-7.3,24.5-14.5,36.8-21.4l4.7,8.2
		C1670.7,497,1658.4,504.2,1646.3,511.4z M3306.9,492.3c-12.3-7-24.8-13.9-37.2-20.6l4.5-8.3c12.5,6.7,25.1,13.7,37.4,20.7
		L3306.9,492.3z M1720,469.7l-4.4-8.4c12.5-6.6,25.2-13.2,37.8-19.5l4.2,8.5C1745.1,456.6,1732.4,463.1,1720,469.7z M3232,452.2
		c-12.6-6.3-25.5-12.6-38.3-18.6l4-8.6c12.8,6,25.8,12.3,38.5,18.7L3232,452.2z M1795.8,431.9l-4-8.6c12.8-6,25.8-11.9,38.8-17.5
		l3.8,8.7C1821.4,420.1,1808.5,425.9,1795.8,431.9z M3155,416c-12.9-5.7-26.1-11.3-39.2-16.6l3.6-8.8c13.2,5.4,26.4,11,39.4,16.7
		L3155,416z M1873.3,398l-3.6-8.8c13.1-5.3,26.5-10.6,39.8-15.5l3.3,8.9C1899.6,387.5,1886.3,392.7,1873.3,398z M3076.2,383.8
		c-13.2-5-26.7-9.9-40-14.6l3.1-8.9c13.4,4.7,27,9.6,40.3,14.6L3076.2,383.8z M1952.7,368.1l-3.1-8.9c13.4-4.6,27-9.2,40.5-13.5
		l2.9,9C1979.6,359,1966.1,363.5,1952.7,368.1z M2995.8,355.7c-13.4-4.3-27.1-8.5-40.6-12.4l2.6-9.1c13.6,4,27.3,8.2,40.8,12.5
		L2995.8,355.7z M2033.6,342.4l-2.6-9.1c13.6-3.9,27.5-7.8,41.2-11.3l2.4,9.2C2060.9,334.7,2047.2,338.5,2033.6,342.4z
		 M2914.3,331.9c-13.6-3.6-27.5-7-41.2-10.3l2.2-9.2c13.8,3.3,27.7,6.7,41.4,10.3L2914.3,331.9z M2115.8,320.9l-2.2-9.2
		c13.8-3.2,27.8-6.3,41.7-9.2l1.9,9.3C2143.4,314.7,2129.5,317.7,2115.8,320.9z M2831.7,312.4c-13.8-2.9-27.8-5.6-41.7-8.1l1.7-9.3
		c13.9,2.5,28,5.3,41.9,8.2L2831.7,312.4z M2198.9,303.7l-1.7-9.3c13.9-2.5,28.1-4.9,42.1-7l1.4,9.4
		C2226.8,298.9,2212.7,301.2,2198.9,303.7z M2748.1,297.2c-13.9-2.2-28-4.2-42-6l1.2-9.4c14.1,1.8,28.3,3.8,42.3,6L2748.1,297.2z
		 M2282.8,290.9l-1.2-9.4c14-1.8,28.3-3.4,42.4-4.8l1,9.4C2310.9,287.5,2296.7,289.1,2282.8,290.9z M2664,286.3
		c-14-1.4-28.2-2.7-42.3-3.8l0.7-9.4c14.1,1.1,28.4,2.4,42.5,3.8L2664,286.3z M2367.2,282.3l-0.7-9.4c14.1-1.1,28.5-2,42.6-2.7
		l0.5,9.5C2395.5,280.4,2381.3,281.2,2367.2,282.3z M2579.3,279.8c-14-0.7-28.3-1.3-42.4-1.7l0.2-9.5c14.2,0.4,28.5,0.9,42.7,1.7
		L2579.3,279.8z M2452,278.1l-0.2-9.5c13.6-0.3,27.5-0.5,41.1-0.5l1.6,0l0,9.5l-1.6,0C2479.3,277.6,2465.6,277.7,2452,278.1z"/>
</g>
<g id="Layer_7">
	<path class="st6" d="M2705.5,3816.5h-256.6c-18.8,0-34.1-15.3-34.1-34.1v-505.1c0-18.8,15.3-34.1,34.1-34.1h256.6
		c18.8,0,34.1,15.3,34.1,34.1v505.1C2739.6,3801.2,2724.4,3816.5,2705.5,3816.5z"/>
	<path class="st10" d="M2739.7,3277.3v505.1c0,18.8-15.4,34-34.2,34h-34.9l-116.4-573.1l151.4,0
		C2724.3,3243.3,2739.7,3258.4,2739.7,3277.3z"/>
	<rect x="2424.2" y="3305.8" class="st8" width="306.3" height="446.2"/>
	<path class="st14" d="M2620.2,3280.3h-85.4c-2.7,0-4.8-2.2-4.8-4.8l0,0c0-2.7,2.2-4.8,4.8-4.8h85.4c2.7,0,4.8,2.2,4.8,4.8l0,0
		C2625,3278.1,2622.9,3280.3,2620.2,3280.3z"/>
	<path class="st14" d="M2610.4,3796.7h-66.1c-3.7,0-6.7-3-6.7-6.7v-10.8c0-3.7,3-6.7,6.7-6.7h66.1c3.7,0,6.7,3,6.7,6.7v10.8
		C2617.1,3793.7,2614.1,3796.7,2610.4,3796.7z"/>
</g>
<g id="Layer_8">
	<path class="st8" d="M2037.8,3459.5c0,51.8-31.7,96.3-76.7,115.1c-10.1,6.1-21.9,9.6-34.6,9.6h-373.4c-3.1,0-6.1-0.2-9.1-0.6
		c-27.2-2.7-51.7-14.2-70.9-31.5c0,0,0,0,0,0c-25.2-22.8-41.1-55.8-41.1-92.5c0-62.9,46.5-114.8,107.1-123.4
		c9.1-49.2,52.1-86.5,103.9-86.5c17.3,0,33.6,4.2,47.9,11.5c27.5-34,69.5-55.7,116.6-55.7c25.2,0,48.9,6.2,69.7,17.2c0,0,0,0,0,0
		c0,0,0,0,0,0c37.4,19.7,65.4,54.8,75.7,96.9c0.1,0.3,0.1,0.6,0.2,0.9c21.5,2.6,38.2,20.5,38.8,42.5c12.4,10.2,22.9,22.7,30.6,36.8
		C2032.3,3417.5,2037.8,3437.9,2037.8,3459.5z"/>
	<path class="st6" d="M2037.8,3459.5c0,51.8-31.7,96.3-76.7,115.1c-10.1,6.1-21.9,9.6-34.6,9.6h-373.4c-3.1,0-6.1-0.2-9.1-0.6
		c-27.2-2.7-51.7-14.2-70.9-31.5c1.4,0.8,88.4,46.7,147.7-38.3c0,0,21.4-24.3,10.8-53.2c0,0,97.4,25.6,103.3-62.1
		c0,0,87.4,80.3,157.4-15.8c0,0,46.2-67.7-15.1-159.9c0,0,0,0,0,0c1.6,0.8,61.8,30.1,75.7,96.9c5.6,26.9,3.7,60-12.7,99.7
		c0,0-7.9,43.4-82.8,77.5c0,0,6.9,92.6,117.3,40.1c0,0,87.7-42.1,47-136.7l0.8-0.4C2032.3,3417.5,2037.8,3437.9,2037.8,3459.5z"/>
</g>
<g id="Layer_1">
	<path class="st3" d="M2053.1,1970.5c-4.4,1.2-92.5,89.6-229.2,125.2l78.4-183.8L2053.1,1970.5z"/>
	<path class="st8" d="M1703.3,2077.9l120.8-173.2c0,0,10.1-12.9,25.2-24.8c15.7-12.5,35.4-18.8,55.5-18l264.7,10.5l-105.7,98
		l-131.7-11.6c0,0-17.8-1.3-30.5,35.3l-40.8,94.2c-14.3,33.1-6.2,71.9,20.8,95.8c4.9,4.3,10.2,8,16,10.7l-156.9,96l-43.3-112.5
		C1697.4,2178.2,1672.7,2122.7,1703.3,2077.9z"/>
	<path class="st9" d="M3026.3,2494.8H1970.5c-23.6,0-42.8-19.2-42.8-42.8V851.4c0-23.6,19.2-42.8,42.8-42.8h1055.8
		c23.6,0,42.8,19.2,42.8,42.8V2452C3069.1,2475.6,3049.9,2494.8,3026.3,2494.8z"/>
	<rect x="1968.9" y="935.5" class="st4" width="1057" height="1488"/>
	<rect x="2253.4" y="820.2" class="st12" width="461.8" height="98.9"/>
	<path class="st14" d="M2731.2,878.5c12,0,21.8,9.8,21.8,21.8v54.4c0,12-9.8,21.8-21.8,21.8h-493.5c-12,0-21.8-9.8-21.8-21.8v-54.4
		c0-12,9.8-21.8,21.8-21.8H2731.2 M2731.2,864.6h-493.5c-19.7,0-35.7,16-35.7,35.7v54.4c0,19.7,16,35.7,35.7,35.7h493.5
		c19.7,0,35.7-16,35.7-35.7v-54.4C2767,880.6,2750.9,864.6,2731.2,864.6L2731.2,864.6z"/>
	<rect x="2241.8" y="855.3" class="st14" width="484.2" height="29.5"/>
	<rect x="2241.8" y="869.6" class="st7" width="484.2" height="15.3"/>
	<path class="st14" d="M2294.6,2028.2v154.9h-154.9v-154.9H2294.6 M2320.7,2002.1h-26.1h-154.9h-26.1v26.1v154.9v26.1h26.1h154.9
		h26.1v-26.1v-154.9V2002.1L2320.7,2002.1z"/>
	<path class="st2" d="M2284.7,1451.2l-15.8-16.2c-1.5-1.6-4-1.6-5.5-0.1l-62.9,61.1l-32.5-32.2c-1.5-1.6-4-1.6-5.5-0.1l-16.3,15.7
		c-1.6,1.5-1.6,4-0.1,5.5l51.3,50.9c1.5,1.6,4,1.6,5.5,0.1l11.7-11.3c0,0,0,0,0.1,0l1.8-1.7l2.8-2.7c0,0,0-0.1,0.1-0.1l65.3-63.5
		C2286.2,1455.2,2286.2,1452.8,2284.7,1451.2z"/>
	<rect x="2421.8" y="1430" class="st14" width="504.6" height="10.8"/>
	<rect x="2421.8" y="2052.4" class="st14" width="504.6" height="15.1"/>
	<rect x="2421.8" y="2105.2" class="st14" width="504.6" height="15.7"/>
	<rect x="2421.8" y="2159.5" class="st14" width="504.6" height="13.2"/>
	<rect x="2421.8" y="1482.8" class="st14" width="504.6" height="11.3"/>
	<rect x="2421.8" y="1535.2" class="st14" width="504.6" height="12.7"/>
	<rect x="2421.8" y="1742.6" class="st14" width="504.6" height="13.2"/>
	<rect x="2421.8" y="1795.7" class="st14" width="504.6" height="13.2"/>
	<rect x="2421.8" y="1847.8" class="st14" width="504.6" height="15.2"/>
	<path class="st8" d="M1986.5,2156.5c9.8-10,45.5-52.3,61.6-98.6l34.9-94.2c0,0,13.1-31.1,47.6-33.1c1.6-0.1,3.2,0,4.8,0.2
		c9.1,1.3,40.4,8,54.5,37.7c1.6,3.3,2.4,7,2.3,10.6c-0.1,8.3-2.4,25.2-14.3,54.8l-92.6,257c0,0-26.3,63.7-56.5,101.8
		c-0.5,0.6-0.9,1.2-1.3,1.8c-4,6.1-26.9,40.8-41.9,55.2c-2.4,2.3-4.4,5.2-5.6,8.3l-15.6,38.1c-0.3,0.6-1,1-1.6,0.7l-203.3-82.4
		l9.1-22.4c2.2-5.4,2.4-11.4,0.5-16.9l-28.7-84.3l146-89.2c3.4-2,7.5-4.8,10.9-6.8C1900.2,2193,1920.2,2224.4,1986.5,2156.5z"/>
	<path class="st8" d="M2150.6,2028.1l-51-21.8c-4.4-1.9-6.3-6.9-4.4-11.3l12.5-27.7c0,0,11.3-21.4,40.7-12.9c0,0,24.4,8,26.1,33.1
		c0,0,0,10.1-9,27.1l-3.8,9C2159.9,2027.9,2154.9,2029.9,2150.6,2028.1z"/>
	<path class="st3" d="M2637.3,1662.2c8.3,1.5,194,157.4,452.2,204l-195.9-340.7L2637.3,1662.2z"/>
	<path class="st14" d="M3112.7,1663.3L2972,1505.8c0,0-11.5-11.6-28-21.6c-17.1-10.5-37.4-14.4-57.3-11.2l-261.5,42.1l116.7,84.6
		l129.4-27.3c0,0,17.5-3.5,34.5,31.4l51.8,88.6c18.2,31.1,14.8,70.6-9.2,97.6c-4.3,4.9-9.2,9.2-14.6,12.6l167.3,76.5l29.5-116.9
		C3130.6,1762.1,3148.5,1704,3112.7,1663.3z"/>
	<polygon class="st0" points="3601.3,2776.4 3226.7,2776.4 2878.9,2147.8 3036.1,2059.9 3165.4,1986.7 	"/>
	<polygon class="st9" points="3426.6,2776.4 3226.2,2776.4 2880,2149.3 3032.2,2061.9 	"/>
	<polygon class="st0" points="2012.3,2511.4 1851.2,2911.2 1497,2911.2 1708.4,2388 1858.6,2450.6 2012.3,2511.4 	"/>
	<polygon class="st9" points="2012.3,2511.4 1850.8,2911.2 1661.5,2911.2 1847.7,2450.6 	"/>
	<path class="st14" d="M2294.6,1403.7v154.9h-154.9v-154.9H2294.6 M2320.7,1377.6h-26.1h-154.9h-26.1v26.1v154.9v26.1h26.1h154.9
		h26.1v-26.1v-154.9V1377.6L2320.7,1377.6z"/>
	<path class="st14" d="M2284.7,1765.1l-15.8-16.2c-1.5-1.6-4-1.6-5.5-0.1l-62.9,61.1l-32.5-32.2c-1.5-1.6-4-1.6-5.5-0.1l-16.3,15.7
		c-1.6,1.5-1.6,4-0.1,5.5l51.3,50.9c1.5,1.6,4,1.6,5.5,0.1l11.7-11.3c0,0,0,0,0.1,0l1.8-1.7l2.8-2.7c0,0,0-0.1,0.1-0.1l65.3-63.5
		C2286.2,1769.1,2286.2,1766.6,2284.7,1765.1z"/>
	<path class="st14" d="M2294.6,1717.6v154.9h-154.9v-154.9H2294.6 M2320.7,1691.4h-26.1h-154.9h-26.1v26.1v154.9v26.1h26.1h154.9
		h26.1v-26.1v-154.9V1691.4L2320.7,1691.4z"/>
	<path class="st14" d="M2611.5,1507.9c0,0-110.6-13.1-113.1-8.7c-2.5,4.5,77.8,91,77.8,91l26.6-33.9L2611.5,1507.9z"/>
	<path class="st11" d="M2540.7,1501.4c0,0-42.1-5.1-43-2.6c-1.1,3.1,26.9,33.6,26.9,33.6L2540.7,1501.4z"/>
	<path class="st2" d="M2610.9,1507.7l481.4,208l-34.8,80l-481.6-205.6c0,0-4.5-13.2,7.5-15.6c0,0-7.3-11.6,7.5-15.9
		c0,0-6.9-11,7.4-18.5c0,0-6.8-10.9,5.7-15.4C2604,1524.6,2597.9,1516.8,2610.9,1507.7z"/>
	<path class="st14" d="M2840.9,1775.2c-10.9-8.7-51.4-46.5-73-90.5l-45.9-89.3c0,0-16.7-29.3-51.2-27.1c-1.6,0.1-3.2,0.4-4.7,0.8
		c-8.9,2.4-39.2,12.8-49.6,43.9c-1.2,3.5-1.5,7.2-1,10.8c1.1,8.2,5.4,24.7,20.7,52.7l122.8,244.1c0,0,33.7,60.1,68.3,94.3
		c0.5,0.5,1,1.1,1.5,1.6c4.7,5.6,31.6,37.3,48.2,49.7c2.7,2,4.9,4.6,6.6,7.6l20,36c0.3,0.6,1.1,0.8,1.7,0.5l192-106.2l-11.7-21.2
		c-2.8-5.1-3.7-11-2.5-16.7l18.4-87.1l-155.6-71.1c-3.6-1.6-8-3.8-11.6-5.4C2931.1,1801.1,2915,1834.6,2840.9,1775.2z"/>
	<path class="st14" d="M2662.7,1667.4l48.1-27.8c4.1-2.4,5.5-7.7,3-11.7l-15.7-26c0,0-13.7-19.9-41.9-7.9c0,0-23.3,10.9-22,36
		c0,0,1.3,10,12.2,25.8l4.8,8.4C2653.4,1668.3,2658.6,1669.7,2662.7,1667.4z"/>
	<path class="st0" d="M3144.9,1738l-67.5-28.8l-34.3,80.4l67.5,28.8c24.3,10.4,51.9,0.8,61.4-21.3l0,0
		C3181.4,1774.9,3169.2,1748.4,3144.9,1738z"/>
	
		<rect x="1691.2" y="2446.4" transform="matrix(0.9299 0.3679 -0.3679 0.9299 1035.3921 -510.3264)" class="st14" width="329.9" height="28"/>
	
		<rect x="2852.1" y="2044.1" transform="matrix(0.8741 -0.4858 0.4858 0.8741 -619.8672 1724.8588)" class="st14" width="330.1" height="28"/>
</g>
<g id="Layer_3">
	<path class="st6" d="M1152.2,2078.5H767.1l-56.7,50.7l4.1-50.7h-27.2c-11.7,0-21.2-9.5-21.2-21.2v-278.8c0-11.7,9.5-21.2,21.2-21.2
		h465c11.7,0,21.2,9.5,21.2,21.2v278.8C1173.5,2069,1164,2078.5,1152.2,2078.5z"/>
	<path class="st3" d="M982.6,2172.4h312.6l46,40.5l-3.4-40.5h22.1c9.5,0,17.2-7.6,17.2-17v-222.9c0-9.4-7.7-17-17.2-17H982.6
		c-9.5,0-17.2,7.6-17.2,17v222.9C965.3,2164.8,973,2172.4,982.6,2172.4z"/>
	<g>
		<path class="st8" d="M965,2154.9c0,9.4,7.7,17,17.2,17h312.6l46,40.5l-3.4-40.5h22.1c9.5,0,17.2-7.6,17.2-17v-108.2H965V2154.9z"
			/>
	</g>
	<circle class="st9" cx="1098" cy="2047.1" r="19.1"/>
	<circle class="st9" cx="1172" cy="2047.1" r="19.1"/>
	<circle class="st9" cx="1241.4" cy="2047.1" r="19.1"/>
	<polygon class="st6" points="978.1,900.2 1245.5,657.3 1512.9,897.9 1510.6,1229.1 985.1,1229.1 	"/>
	<rect x="1025.4" y="776.2" class="st8" width="444.1" height="431.8"/>
	<polygon class="st6" points="978.1,1278.1 1512.9,1278.1 1323.9,1100.3 1168.1,1100.3 	"/>
	<polygon class="st13" points="978.4,1278 978.4,910.2 1168.5,1100.3 	"/>
	<polygon class="st13" points="1513.2,1278 1513.2,910.2 1323.9,1100.3 	"/>
	<circle class="st8" cx="2137" cy="289.7" r="234.1"/>
	<circle class="st6" cx="3875" cy="985.1" r="256.7"/>
	<path class="st6" d="M2257.4,279.5c-1.5,0.9-3.1,1.8-4.9,2.2c-1.9,0.5-2.4,3.6-0.8,5c2.6,2.5,4.1,5.6,4.8,9.1
		c1.2,6.4-1.3,11.5-6,15.6c-1.9,1.7-4.1,3-6.5,4.1c-2.5,1.1-3,4.4-0.9,6.1c4.7,4,6,9.6,3.6,15.6c-2,4.9-5.2,8.7-9.8,11.3
		c-0.6,0.3-1.3,0.6-2,0.8c-1.7,0.5-2.3,1.3-2.5,3c-0.1,1.3,0.3,2.3,1.3,3.2c2.5,2.2,4.4,4.9,4.8,8.3c0.3,2.6-0.2,5.1-1.3,7.5
		c-1.7,3.6-4.2,6.5-7.2,9c-1.4,1.2-5,3-7.9,4.2c-1.6,0.7-6.3,1.7-7.7,2c-69,14-117.4-4.1-123.6-6.4c-1.3-0.5-5.6-3.3-6.8-3.3
		c-0.2,0-1.6-0.4-1.6-0.5V273c2.6-1.8,5.1-3.6,7.7-5.4c0.3-0.2,0.5-0.4,0.7-0.6c0.1-0.1,0.2-0.2,0.2-0.3
		c13.7-17.2,22.5-35.5,32.7-55c6.8-13,8.5-40.8,8.5-51.3c0-4.2,3.1-11.1,11.3-11.1c2.1,0,6.4,0.2,9,1.1c3.1,1.1,5.7,5.2,8.4,10.4
		c3.6,7.1,5.9,14.7,8,22.4c0.8,2.9,1.5,5.8,1.9,8.7c0.3,2.2,0.3,4.3,0.2,6.5c-0.2,2.5-0.3,5-0.6,7.5c-0.5,4.9-1.2,9.7-2,14.6
		c-0.9,5.2-1.9,10.5-3,15.7c0,0.1,0,0.1,0,0.2c0,0.4-0.1,0.8-0.2,1.3c-1.7,6.7,5.1,10.6,9.1,12.3c1.1,0.5,5.5,1,6.7,1
		c22.1,0,59-0.1,63.5-0.1c3,0,6-0.1,8.9,0.1c4.9,0.3,10.3,3.4,11.9,9.9C2267.2,267.8,2263.9,275.4,2257.4,279.5z"/>
	<path class="st6" d="M2085.6,382.8c0,5.3-4.3,9.7-9.6,9.7h-35.4c-5.3,0-9.6-4.3-9.6-9.7V264.7c0-5.3,4.3-9.7,9.6-9.7h35.4
		c5.3,0,9.6,4.3,9.6,9.7V382.8z"/>
	<path class="st8" d="M3858,939.5l-0.2-89h102.6v265.2H3769V939.5L3858,939.5z M3755.5,935v180.7v13.5h13.5h191.4h13.5v-13.5V850.5
		V837h-13.5h-106.1L3755.5,935z"/>
	<rect x="3788.3" y="970.2" class="st5" width="148" height="11.8"/>
	<rect x="3788.3" y="1017.1" class="st5" width="148" height="11.8"/>
	<rect x="3788.3" y="1064.2" class="st5" width="148" height="11.8"/>
	<path class="st6" d="M4275.9,1911.9l-24.1-19c8.7-17.8,12.4-33.6,14.3-50.7l0.4-0.4l30.6-3.8c6.8-0.8,11.7-7,10.9-13.8l-6.3-53
		c-0.8-6.8-6.9-11.6-13.7-10.8l-32.3,2.1c-6.2-16.5-9.5-27.3-27.4-46.6l0.1-0.1l21.1-22.4c4.2-5.4,3.4-12.2-2-16.4l-41.4-32.5
		c-5.4-4.2-10.1-1.7-14.3,3.6l-18.8,24.2c-17.8-8.7-34-12.7-51-14.6l-0.6-0.6l-3.9-30.7c-0.8-6.8-7.1-11.7-13.9-10.9l-53,6.3
		c-6.8,0.8-11.6,6.9-10.8,13.7l2.2,32.2c-16.5,6.2-27.2,9.4-46.4,27.3l-0.1-0.1l-23.2-20.1c-5.4-4.2-10.3-4-14.5,1.4l-32.8,41.7
		c-4.2,5.4-4.1,11.4,1.2,15.6l24.2,18.9c-8.7,17.8-12,33.1-13.9,50.2l-0.2,0.1l-30.5,3.7c-6.8,0.8-11.6,7-10.8,13.8l6.3,53
		c0.8,6.8,7,11.6,13.7,10.8l31.5-2.8c6.2,16.5,13.8,30.8,26.7,45.9l-0.1,0.1l-19,24.1c-4.2,5.4-5.8,11.9-0.4,16.1l41.9,33
		c5.4,4.2,13.8,3.1,18-2.3l17.5-25.3c17.8,8.7,32.3,11.4,48.3,12.4l-0.1,0.1l5,31.6c0.8,6.8,7.7,12.2,14.4,11.4l53.3-6.1
		c6.8-0.8,11.8-6.8,11-13.6l-2.6-31.6c16.5-6.2,26.8-8.8,46.1-26.7l0.1,0.1l23.3,20c5.4,4.2,13.8,5.2,18-0.2l32.8-41.7
		C4284.9,1923.2,4281.3,1916.1,4275.9,1911.9z M4033.4,1858.6c-0.4-0.7-0.8-1.4-1.1-2.2c-1.1-2.2-2.1-4.5-2.9-6.8
		c-0.4-1.2-0.8-2.3-1.2-3.5c-0.4-1.2-0.7-2.4-1-3.5c-0.2-0.6-0.3-1.2-0.5-1.8c-0.8-3.5-1.4-7-1.8-10.5c-0.4-3.5-0.5-7.1-0.3-10.7
		c0.1-1.4,0.1-2.8,0.3-4.3c0.4-4.3,1.2-8.5,2.3-12.7c2.6-9.8,7.2-19.1,13.8-27.6c13.9-17.7,34.1-27.7,54.9-29.2
		c1.8-0.1,3.7-0.2,5.5-0.2c0.6,0,1.2,0,1.8,0c1.2,0,2.5,0.1,3.7,0.2c3.7,0.3,7.4,0.8,11,1.6c1.2,0.3,2.4,0.6,3.6,0.9
		c9.6,2.6,18.9,7.2,27.2,13.7c9.9,7.8,17.4,17.5,22.3,28.2c0.5,1.1,1,2.3,1.5,3.4c0.7,1.7,1.3,3.5,1.9,5.2c0.4,1.2,0.7,2.4,1,3.5
		c0.2,0.6,0.3,1.2,0.5,1.8c0.3,1.2,0.6,2.4,0.8,3.6c0.3,1.8,0.6,3.6,0.9,5.5c0.1,1.2,0.3,2.4,0.4,3.7c0.2,3.1,0.3,6.1,0.1,9.2
		c-0.1,1.2-0.1,2.5-0.3,3.7c-0.1,1.2-0.3,2.5-0.4,3.7c-0.3,1.8-0.6,3.7-1,5.5c-2.4,10.9-7.3,21.5-14.6,30.9
		c-4.1,5.2-8.7,9.8-13.8,13.6c-1,0.8-2,1.5-3.1,2.2c-1.6,1.1-3.1,2.1-4.8,3c-1.1,0.6-2.2,1.2-3.3,1.8c-0.7,0.4-1.5,0.7-2.2,1.1
		c-1.5,0.7-3,1.4-4.5,2c-1.1,0.5-2.3,0.9-3.5,1.3c-0.9,0.3-1.9,0.6-2.8,0.9c-0.8,0.3-1.7,0.5-2.5,0.7c-0.6,0.2-1.2,0.3-1.8,0.5
		c-1.2,0.3-2.4,0.6-3.6,0.8c-0.6,0.1-1.2,0.2-1.8,0.3c-1.2,0.2-2.4,0.4-3.6,0.5c-0.6,0.1-1.2,0.1-1.8,0.2c-2.4,0.2-4.9,0.4-7.4,0.4
		c-0.6,0-1.2,0-1.8,0c-1.2,0-2.5-0.1-3.7-0.2c-1.2-0.1-2.5-0.2-3.7-0.4c-0.6-0.1-1.2-0.2-1.8-0.2c-1.2-0.2-2.4-0.4-3.7-0.6
		c-11.6-2.3-22.8-7.2-32.7-15c-8-6.3-14.4-13.8-19.1-22.1C4034.3,1860.1,4033.9,1859.3,4033.4,1858.6z"/>
	<path class="st17" d="M4105,1615.5c6.2,0,11.7,4.7,12.4,11l3.9,30.7l0.6,0.6c17,1.9,33.3,5.9,51,14.6l18.8-24.2
		c2.7-3.5,5.7-5.8,8.9-5.8c1.7,0,3.5,0.7,5.4,2.1l41.4,32.5c5.4,4.2,6.2,11.1,2,16.4l-21.1,22.4l-0.1,0.1
		c17.9,19.3,21.2,30.1,27.4,46.6l32.3-2.1c0.5-0.1,1-0.1,1.5-0.1c6.2,0,11.5,4.6,12.2,10.9l6.3,53c0.8,6.8-4.1,13-10.9,13.8
		l-30.6,3.8l-0.4,0.4c-1.9,17-5.7,32.9-14.3,50.7l24.1,19c5.4,4.2,9,11.3,4.8,16.7l-32.8,41.7c-2,2.6-5,3.7-8.2,3.7
		c-3.4,0-7-1.3-9.8-3.5l-23.3-20l-0.1-0.1c-19.3,17.8-29.6,20.5-46.1,26.7l2.6,31.6c0.8,6.8-4.2,12.8-11,13.6l-53.3,6.1
		c-0.5,0.1-0.9,0.1-1.4,0.1c-6.3,0-12.3-5.1-13.1-11.5l-5-31.6l0.1-0.1c-16-1.1-30.5-3.7-48.3-12.4l-17.5,25.3
		c-2.5,3.1-6.4,4.8-10.3,4.8c-2.8,0-5.5-0.8-7.7-2.6l-41.9-33c-5.4-4.2-3.8-10.7,0.4-16.1l19-24.1l0.1-0.1
		c-12.9-15.1-20.5-29.4-26.7-45.9l-31.5,2.8c-0.5,0.1-1,0.1-1.5,0.1c-6.2,0-11.5-4.6-12.2-10.9l-6.3-53c-0.8-6.8,4-12.9,10.8-13.8
		l30.5-3.7l0.2-0.1c1.9-17,5.3-32.4,13.9-50.2l-24.2-18.9c-5.4-4.2-5.4-10.2-1.2-15.6l32.8-41.7c2.3-2.9,4.8-4.3,7.4-4.3
		c2.3,0,4.6,1,7.1,2.9l23.2,20.1l0.1,0.1c19.3-17.9,29.9-21.1,46.4-27.3l-2.2-32.2c-0.8-6.8,4.1-12.9,10.8-13.7l53-6.3
		C4104,1615.5,4104.5,1615.5,4105,1615.5 M4101.4,1745.7C4101.4,1745.7,4101.4,1745.7,4101.4,1745.7c-1.9,0-3.7,0.1-5.5,0.2
		c-20.8,1.5-41,11.4-54.9,29.2c-6.6,8.4-11.2,17.8-13.8,27.6c-1.1,4.2-1.9,8.4-2.3,12.7c-0.1,1.4-0.2,2.8-0.3,4.3
		c-0.1,3.6,0,7.1,0.3,10.7c0.4,3.5,1,7,1.8,10.5c0.1,0.6,0.3,1.2,0.5,1.8c0.3,1.2,0.7,2.4,1,3.5c0.4,1.2,0.8,2.3,1.2,3.5
		c0.9,2.3,1.8,4.6,2.9,6.8c0.4,0.7,0.7,1.4,1.1,2.2c0.4,0.8,0.8,1.5,1.3,2.3c4.8,8.3,11.2,15.8,19.1,22.1c9.9,7.8,21.1,12.8,32.7,15
		c1.2,0.2,2.4,0.4,3.7,0.6c0.6,0.1,1.2,0.2,1.8,0.2c1.2,0.1,2.5,0.3,3.7,0.4s2.5,0.1,3.7,0.2c0.6,0,1.2,0,1.8,0c0,0,0,0,0,0
		c2.5,0,4.9-0.1,7.4-0.4c0.6-0.1,1.2-0.1,1.8-0.2c1.2-0.1,2.4-0.3,3.6-0.5c0.6-0.1,1.2-0.2,1.8-0.3c1.2-0.2,2.4-0.5,3.6-0.8
		c0.6-0.1,1.2-0.3,1.8-0.5c0.8-0.2,1.7-0.5,2.5-0.7c0.9-0.3,1.9-0.6,2.8-0.9c1.2-0.4,2.3-0.8,3.5-1.3c1.5-0.6,3-1.3,4.5-2
		c0.7-0.4,1.5-0.7,2.2-1.1c1.1-0.6,2.2-1.2,3.3-1.8c1.6-0.9,3.2-2,4.8-3c1-0.7,2.1-1.5,3.1-2.2c5-3.9,9.7-8.4,13.8-13.6
		c7.4-9.4,12.2-19.9,14.6-30.9c0.4-1.8,0.7-3.7,1-5.5c0.2-1.2,0.3-2.5,0.4-3.7c0.1-1.2,0.2-2.5,0.3-3.7c0.1-3.1,0.1-6.2-0.1-9.2
		c-0.1-1.2-0.2-2.5-0.4-3.7c-0.2-1.8-0.5-3.7-0.9-5.5c-0.2-1.2-0.5-2.4-0.8-3.6c-0.1-0.6-0.3-1.2-0.5-1.8c-0.3-1.2-0.7-2.4-1-3.5
		c-0.6-1.8-1.2-3.5-1.9-5.2c-0.5-1.1-1-2.3-1.5-3.4c-4.9-10.7-12.4-20.4-22.3-28.2c-8.3-6.6-17.6-11.1-27.2-13.7
		c-1.2-0.3-2.4-0.6-3.6-0.9c-3.6-0.8-7.3-1.3-11-1.6c-1.2-0.1-2.5-0.1-3.7-0.2C4102.6,1745.7,4102,1745.7,4101.4,1745.7
		C4101.4,1745.7,4101.4,1745.7,4101.4,1745.7 M4105,1604.5c-0.9,0-1.9,0.1-2.8,0.2l-53,6.3c-12.7,1.5-21.9,13-20.5,25.7l1.6,23.7
		c-11.3,4.3-21.3,8.7-34.9,20.1l-16-13.8l-0.2-0.2l-0.2-0.2c-4.5-3.5-9.2-5.3-13.9-5.3c-4.3,0-10.6,1.5-16.1,8.5l-32.8,41.7
		c-3.8,4.8-5.6,10.3-5.3,15.7c0.4,5.9,3.3,11.4,8.4,15.4l17.4,13.6c-5.8,13.8-8.6,26.1-10.2,37l-22.2,2.7c-12.8,1.5-22,13.2-20.4,26
		l6.3,53c1.4,11.8,11.4,20.6,23.2,20.6c0.9,0,1.7,0,2.6-0.1l23.2-2c5.4,12.9,11.7,23.7,19.8,34.3l-13.6,17.3
		c-8.7,11.1-8.1,24.1,1.4,31.6l41.9,33c4,3.2,9.2,4.9,14.5,4.9c7.4,0,14.5-3.4,19-9l0.2-0.3l0.2-0.3l12.3-17.8
		c13.1,5.4,24.5,7.7,34.8,8.8l3.7,23c1.5,11.8,12,20.9,24,20.9c0.9,0,1.8-0.1,2.7-0.2l53.3-6c6.2-0.7,11.7-3.8,15.6-8.5
		c4-4.8,5.7-10.9,5.1-17.1l-1.9-23c11.1-4.1,20.9-8.3,34.5-19.5l16.1,13.8l0.2,0.2l0.2,0.1c4.7,3.7,10.8,5.9,16.6,5.9
		c6.9,0,12.9-2.8,16.9-7.9l32.8-41.7c4.3-5.4,5.3-12.5,2.9-19.3c-1.7-4.8-5.1-9.4-9.6-12.9l-17.3-13.6c5.1-12,8.5-24.2,10.6-37.8
		l22.5-2.8c6.1-0.7,11.7-3.9,15.6-8.8c3.9-4.9,5.6-11.1,4.9-17.3l-6.3-53c-1.4-11.8-11.4-20.6-23.2-20.6c-0.8,0-1.6,0-2.5,0.1
		l-23.8,1.6c-4.3-11.2-8.7-21.3-19.9-34.8l14.3-15.2l0.3-0.4l0.3-0.4c3.9-4.9,5.6-10.9,4.9-16.8c-0.7-5.9-3.8-11.3-8.7-15.1
		l-41.4-32.5c-4.7-3.7-9.2-4.5-12.2-4.5c-6.5,0-12.4,3.4-17.6,10l-13.5,17.4c-12.3-5.2-24.8-8.7-38.3-10.9l-2.9-22.7
		C4126.9,1613.4,4116.9,1604.5,4105,1604.5L4105,1604.5C4105,1604.5,4105,1604.5,4105,1604.5L4105,1604.5z M4101.3,1888.3
		c-0.5,0-1.1,0-1.6,0c-1,0-2.1-0.1-3.2-0.2c-1-0.1-2.1-0.2-3.2-0.3c-0.5-0.1-1-0.1-1.6-0.2c-1-0.2-2.1-0.3-3.1-0.5
		c-10.3-2-19.7-6.3-28-12.9c-6.7-5.2-12.2-11.6-16.4-18.9c-0.4-0.7-0.7-1.3-1.1-2c-0.3-0.6-0.6-1.2-1-1.9c-0.9-1.9-1.8-3.9-2.5-5.8
		c-0.4-1-0.7-2-1-3c-0.3-1-0.6-2-0.9-3c-0.1-0.5-0.3-1-0.4-1.5c-0.7-2.9-1.2-6-1.5-9c-0.3-3-0.4-6.1-0.3-9.1c0-1.2,0.1-2.4,0.2-3.7
		c0.3-3.7,1-7.3,1.9-10.9c2.3-8.6,6.3-16.5,11.8-23.6c11.4-14.5,28.6-23.6,47-25c1.6-0.1,3.2-0.2,4.7-0.2c0.6,0,1.1,0,1.6,0
		c1.1,0,2.1,0.1,3.2,0.2c3.2,0.2,6.3,0.7,9.4,1.4c1,0.2,2.1,0.5,3.1,0.8c8.5,2.3,16.3,6.3,23.3,11.8c8.3,6.5,14.7,14.6,19.1,24.2
		c0.4,1,0.9,1.9,1.3,2.9c0.6,1.5,1.1,3,1.6,4.5c0.3,1,0.6,2,0.9,3c0.1,0.5,0.3,1,0.4,1.5c0.2,1,0.5,2.1,0.7,3.1
		c0.3,1.6,0.5,3.1,0.7,4.7c0.1,1,0.2,2.1,0.3,3.1c0.2,2.6,0.2,5.3,0.1,7.9c0,1.1-0.1,2.1-0.2,3.2c-0.1,1.1-0.2,2.1-0.4,3.2
		c-0.2,1.6-0.5,3.2-0.9,4.7c-2.1,9.7-6.4,18.6-12.5,26.4c-3.4,4.4-7.4,8.3-11.8,11.7c-0.9,0.7-1.7,1.3-2.6,1.9
		c-1.3,0.9-2.7,1.8-4.1,2.6c-0.9,0.5-1.9,1.1-2.8,1.5c-0.6,0.3-1.3,0.6-1.9,0.9c-1.3,0.6-2.6,1.2-3.9,1.7c-1,0.4-2,0.8-3,1.1
		c-0.7,0.3-1.5,0.5-2.4,0.8c-0.7,0.2-1.4,0.4-2.1,0.6c-0.5,0.1-1,0.3-1.5,0.4c-1,0.2-2.1,0.5-3.1,0.7c-0.5,0.1-1,0.2-1.6,0.3
		c-1,0.2-2.1,0.3-3.1,0.5c-0.5,0.1-1,0.1-1.6,0.2C4105.5,1888.2,4103.4,1888.3,4101.3,1888.3L4101.3,1888.3L4101.3,1888.3z"/>
	<path class="st9" d="M3903.4,1983.7l-13.6-5.8c1.8-9.3,1.6-17.2,0.4-25.3l0.2-0.2l13.8-5.6c3-1.2,4.6-4.7,3.3-7.8l-9.5-23.9
		c-1.2-3-4.7-4.5-7.7-3.3l-14.7,5c-4.9-6.9-7.8-11.5-18.5-18.3l0-0.1l7-13c1.3-3,0.1-6.1-3-7.4l-23.3-10c-3-1.3-4.9,0.5-6.2,3.5
		l-5.8,13.6c-9.3-1.8-17.4-1.7-25.5-0.5l-0.3-0.2l-5.6-13.8c-1.2-3-4.8-4.6-7.8-3.4l-23.9,9.5c-3,1.2-4.6,4.7-3.3,7.7l5,14.7
		c-6.9,4.9-11.5,7.7-18.2,18.4l-0.1,0l-13.3-6.4c-3-1.3-5.3-0.6-6.6,2.4l-10.1,23.4c-1.3,3-0.5,5.8,2.5,7.1l13.6,5.8
		c-1.8,9.3-1.5,16.9-0.3,25.1l-0.1,0.1l-13.7,5.5c-3,1.2-4.5,4.7-3.3,7.7l9.5,23.9c1.2,3,4.7,4.5,7.7,3.3l14.3-5.2
		c4.9,6.9,10.2,12.6,18.1,18l0,0.1l-5.8,13.6c-1.3,3-1.2,6.2,1.8,7.5l23.6,10.1c3,1.3,6.8-0.3,8.1-3.3l5-13.9
		c9.3,1.8,16.4,1.3,24-0.2l0,0l6.3,14.1c1.2,3,5.1,4.7,8.1,3.5l24.1-9.4c3-1.2,4.6-4.6,3.4-7.7l-5.1-14.4
		c6.9-4.9,11.3-7.4,18.1-18.1l0.1,0l13.3,6.4c3,1.3,7,0.7,8.3-2.3l10.1-23.5C3909,1987.8,3906.4,1985,3903.4,1983.7z M3784,1988.9
		c-0.3-0.3-0.5-0.6-0.8-0.9c-0.8-0.9-1.5-1.8-2.2-2.8c-0.3-0.5-0.7-1-1-1.5c-0.3-0.5-0.6-1-0.9-1.5c-0.1-0.3-0.3-0.5-0.4-0.8
		c-0.8-1.5-1.5-3.1-2.1-4.7c-0.6-1.6-1.1-3.2-1.5-4.9c-0.2-0.7-0.3-1.3-0.4-2c-0.3-2-0.5-4.1-0.5-6.2c0-4.9,1-9.8,3-14.5
		c4.3-10,12.4-17.1,21.9-20.4c0.8-0.3,1.7-0.5,2.5-0.8c0.3-0.1,0.6-0.1,0.9-0.2c0.6-0.1,1.2-0.3,1.7-0.4c1.7-0.3,3.5-0.5,5.3-0.6
		c0.6,0,1.2,0,1.8,0c4.8,0,9.7,1,14.4,3c5.6,2.4,10.3,6,13.9,10.4c0.4,0.5,0.8,0.9,1.1,1.4c0.5,0.7,1,1.4,1.5,2.2
		c0.3,0.5,0.6,1,0.9,1.5c0.1,0.3,0.3,0.5,0.4,0.8c0.3,0.5,0.6,1,0.8,1.6c0.4,0.8,0.7,1.6,1.1,2.4c0.2,0.5,0.4,1.1,0.6,1.7
		c0.5,1.4,0.9,2.8,1.2,4.3c0.1,0.6,0.2,1.2,0.3,1.8c0.1,0.6,0.2,1.2,0.3,1.8c0.1,0.9,0.2,1.8,0.2,2.7c0.2,5.4-0.7,10.9-3,16.2
		c-1.3,2.9-2.9,5.6-4.7,8c-0.4,0.5-0.8,1-1.2,1.4c-0.6,0.7-1.2,1.4-1.8,2c-0.4,0.4-0.9,0.8-1.3,1.2c-0.3,0.3-0.6,0.5-0.9,0.8
		c-0.6,0.5-1.2,1-1.9,1.5c-0.5,0.4-1,0.7-1.5,1c-0.4,0.3-0.8,0.5-1.2,0.8c-0.4,0.2-0.7,0.4-1.1,0.6c-0.3,0.1-0.5,0.3-0.8,0.4
		c-0.5,0.3-1,0.6-1.6,0.8c-0.3,0.1-0.5,0.3-0.8,0.4c-0.5,0.2-1.1,0.5-1.6,0.7c-0.3,0.1-0.6,0.2-0.8,0.3c-1.1,0.4-2.2,0.8-3.4,1.1
		c-0.3,0.1-0.6,0.1-0.9,0.2c-0.6,0.1-1.2,0.3-1.7,0.4c-0.6,0.1-1.2,0.2-1.8,0.3c-0.3,0-0.6,0.1-0.9,0.1c-0.6,0.1-1.2,0.1-1.8,0.2
		c-5.7,0.4-11.5-0.5-17.1-2.9c-4.5-1.9-8.4-4.6-11.6-7.9C3784.6,1989.5,3784.3,1989.2,3784,1988.9z"/>
	<circle class="st8" cx="3812.5" cy="2686.3" r="276.5"/>
	<path class="st6" d="M3812.5,2975.2c-39,0-76.8-7.6-112.5-22.7c-34.4-14.6-65.3-35.4-91.8-61.9c-26.5-26.5-47.4-57.4-61.9-91.8
		c-15.1-35.6-22.7-73.5-22.7-112.5c0-39,7.6-76.8,22.7-112.5c14.6-34.4,35.4-65.3,61.9-91.8c26.5-26.5,57.4-47.4,91.8-61.9
		c35.6-15.1,73.5-22.7,112.5-22.7c39,0,76.8,7.6,112.5,22.7c34.4,14.6,65.3,35.4,91.8,61.9c26.5,26.5,47.4,57.4,61.9,91.8
		c15.1,35.6,22.7,73.5,22.7,112.5c0,39-7.6,76.8-22.7,112.5c-14.6,34.4-35.4,65.3-61.9,91.8c-26.5,26.5-57.4,47.4-91.8,61.9
		C3889.3,2967.6,3851.5,2975.2,3812.5,2975.2z M3812.5,2422.2c-145.7,0-264.2,118.5-264.2,264.2c0,145.7,118.5,264.2,264.2,264.2
		c145.7,0,264.2-118.5,264.2-264.2C4076.7,2540.7,3958.2,2422.2,3812.5,2422.2z"/>
	<g>
		<g>
			<path class="st17" d="M3812.5,2473.6c-1.3,0-2.3-1-2.3-2.3v-39.8c0-1.3,1-2.3,2.3-2.3c1.3,0,2.3,1,2.3,2.3v39.8
				C3814.8,2472.6,3813.8,2473.6,3812.5,2473.6z"/>
			<g>
				<g>
					<path class="st17" d="M3834.3,2466.8C3834.3,2466.8,3834.3,2466.8,3834.3,2466.8c-0.4,0-0.6-0.3-0.6-0.6c0,0,0,0,0-0.1
						l1.9-19.9c0-0.4,0.3-0.6,0.7-0.6c0.3,0,0.6,0.3,0.6,0.6c0,0,0,0,0,0.1l-1.9,19.9C3835,2466.5,3834.7,2466.8,3834.3,2466.8z"/>
					<path class="st17" d="M3850.7,2469c0,0-0.1,0-0.1,0c-0.3-0.1-0.5-0.3-0.5-0.6c0,0,0-0.1,0-0.1l3.4-19.7
						c0.1-0.4,0.4-0.6,0.8-0.5c0.3,0.1,0.5,0.3,0.5,0.6c0,0,0,0.1,0,0.1l-1.7,9.9l0,0l-1.7,9.9C3851.3,2468.8,3851,2469,3850.7,2469
						z"/>
					<path class="st17" d="M3866.9,2472.5c-0.1,0-0.1,0-0.2,0c-0.3-0.1-0.5-0.3-0.5-0.6c0-0.1,0-0.1,0-0.2l4.9-19.4
						c0.1-0.3,0.4-0.6,0.8-0.5c0.3,0.1,0.5,0.3,0.5,0.6c0,0.1,0,0.1,0,0.2l-2.4,9.7l0,0l-2.4,9.7
						C3867.4,2472.3,3867.1,2472.5,3866.9,2472.5z"/>
					<path class="st17" d="M3882.7,2477.1c-0.1,0-0.1,0-0.2,0c-0.3-0.1-0.4-0.3-0.4-0.6c0-0.1,0-0.1,0-0.2l6.3-19
						c0.1-0.3,0.5-0.5,0.8-0.4c0.3,0.1,0.4,0.3,0.4,0.6c0,0.1,0,0.1,0,0.2l-6.3,19C3883.2,2476.9,3883,2477.1,3882.7,2477.1z"/>
					<path class="st17" d="M3898.2,2482.9c-0.1,0-0.2,0-0.3-0.1c-0.2-0.1-0.4-0.3-0.4-0.6c0-0.1,0-0.2,0.1-0.3l3.9-9.2l0,0l3.9-9.2
						c0.1-0.3,0.5-0.5,0.8-0.3c0.2,0.1,0.4,0.3,0.4,0.6c0,0.1,0,0.2,0,0.3l-7.7,18.5C3898.7,2482.8,3898.4,2482.9,3898.2,2482.9z"/>
				</g>
				<g>
					<path class="st17" d="M3943.8,2508.9c-0.1,0-0.3,0-0.4-0.1c-0.2-0.1-0.3-0.3-0.3-0.5c0-0.1,0-0.3,0.1-0.4l11.8-16.1
						c0.2-0.3,0.6-0.4,0.9-0.1c0.2,0.1,0.3,0.3,0.3,0.5c0,0.1,0,0.3-0.1,0.4l-11.8,16.1C3944.2,2508.8,3944,2508.9,3943.8,2508.9z"
						/>
					<path class="st17" d="M3956.8,2519.2c-0.1,0-0.3-0.1-0.4-0.2c-0.2-0.1-0.2-0.3-0.2-0.5c0-0.1,0.1-0.3,0.2-0.4l6.5-7.6l0,0
						l6.5-7.6c0.2-0.3,0.6-0.3,0.9-0.1c0.2,0.1,0.2,0.3,0.2,0.5c0,0.1-0.1,0.3-0.2,0.4l-13,15.2
						C3957.1,2519.1,3956.9,2519.2,3956.8,2519.2z"/>
					<path class="st17" d="M3968.9,2530.4c-0.2,0-0.3-0.1-0.5-0.2c-0.1-0.1-0.2-0.3-0.2-0.5c0-0.2,0.1-0.3,0.2-0.5l14.1-14.2
						c0.3-0.3,0.7-0.3,0.9,0c0.1,0.1,0.2,0.3,0.2,0.5c0,0.2-0.1,0.3-0.2,0.5l-14.1,14.2C3969.2,2530.3,3969,2530.4,3968.9,2530.4z"
						/>
					<path class="st17" d="M3980.1,2542.5c-0.2,0-0.4-0.1-0.5-0.2c-0.1-0.1-0.2-0.3-0.2-0.4c0-0.2,0.1-0.4,0.2-0.5l7.6-6.5l0,0
						l7.6-6.5c0.3-0.2,0.7-0.2,0.9,0.1c0.1,0.1,0.2,0.3,0.2,0.4c0,0.2-0.1,0.4-0.2,0.5l-15.1,13.1
						C3980.4,2542.4,3980.3,2542.5,3980.1,2542.5z"/>
					
						<rect x="3997.8" y="2538.8" transform="matrix(0.597 0.8022 -0.8022 0.597 3656.1802 -2180.5825)" class="st17" width="1.3" height="20"/>
				</g>
				<g>
					<path class="st17" d="M4016.4,2601c-0.3,0-0.5-0.1-0.6-0.4c0-0.1-0.1-0.2-0.1-0.3c0-0.3,0.1-0.5,0.4-0.6l18.4-7.8l0.5,1.2
						l-18.4,7.8C4016.6,2601,4016.5,2601,4016.4,2601z"/>
					<path class="st17" d="M4022.3,2616.5c-0.3,0-0.5-0.2-0.6-0.4c0-0.1,0-0.1,0-0.2c0-0.3,0.2-0.5,0.4-0.6l18.9-6.4
						c0.3-0.1,0.7,0.1,0.8,0.4c0,0.1,0,0.1,0,0.2c0,0.3-0.2,0.5-0.4,0.6l-18.9,6.4C4022.4,2616.5,4022.4,2616.5,4022.3,2616.5z"/>
					<path class="st17" d="M4027,2632.3c-0.3,0-0.6-0.2-0.6-0.5c0-0.1,0-0.1,0-0.2c0-0.3,0.2-0.6,0.5-0.6l9.7-2.5l0,0l9.7-2.5
						c0.3-0.1,0.7,0.1,0.8,0.5c0,0.1,0,0.1,0,0.2c0,0.3-0.2,0.6-0.5,0.6l-19.4,5C4027.1,2632.3,4027,2632.3,4027,2632.3z"/>
					<path class="st17" d="M4030.4,2648.5c-0.3,0-0.6-0.2-0.6-0.5c0,0,0-0.1,0-0.1c0-0.3,0.2-0.6,0.5-0.6l19.7-3.5
						c0.4-0.1,0.7,0.2,0.8,0.5c0,0,0,0.1,0,0.1c0,0.3-0.2,0.6-0.5,0.6l-9.8,1.8l0,0l-9.8,1.8
						C4030.5,2648.5,4030.5,2648.5,4030.4,2648.5z"/>
					<path class="st17" d="M4032.7,2664.8c-0.3,0-0.6-0.2-0.6-0.6c0,0,0,0,0-0.1c0-0.3,0.3-0.6,0.6-0.6l19.9-2
						c0.4,0,0.7,0.2,0.7,0.6c0,0,0,0,0,0.1c0,0.3-0.2,0.6-0.6,0.6L4032.7,2664.8C4032.7,2664.8,4032.7,2664.8,4032.7,2664.8z"/>
				</g>
				<g>
					<path class="st17" d="M4051.5,2720.1C4051.5,2720.1,4051.5,2720.1,4051.5,2720.1l-19.9-2.7c-0.3,0-0.6-0.3-0.6-0.6
						c0,0,0-0.1,0-0.1c0-0.4,0.4-0.6,0.7-0.6l19.8,2.7c0.3,0,0.6,0.3,0.6,0.6c0,0,0,0.1,0,0.1
						C4052.1,2719.8,4051.9,2720.1,4051.5,2720.1z"/>
					<path class="st17" d="M4048.4,2737.8c0,0-0.1,0-0.1,0l-19.6-4.2c-0.3-0.1-0.5-0.3-0.5-0.6c0,0,0-0.1,0-0.1
						c0.1-0.4,0.4-0.6,0.8-0.5l19.6,4.2c0.3,0.1,0.5,0.3,0.5,0.6c0,0,0,0.1,0,0.1C4049,2737.6,4048.7,2737.8,4048.4,2737.8z"/>
					<path class="st17" d="M4044,2755.2c-0.1,0-0.1,0-0.2,0l-19.2-5.6c-0.3-0.1-0.5-0.3-0.5-0.6c0-0.1,0-0.1,0-0.2
						c0.1-0.3,0.5-0.5,0.8-0.4l19.2,5.6c0.3,0.1,0.5,0.3,0.5,0.6c0,0.1,0,0.1,0,0.2C4044.5,2755.1,4044.2,2755.2,4044,2755.2z"/>
					<path class="st17" d="M4038.2,2772.3c-0.1,0-0.2,0-0.2,0l-18.7-7c-0.3-0.1-0.4-0.3-0.4-0.6c0-0.1,0-0.2,0-0.2
						c0.1-0.3,0.5-0.5,0.8-0.4l18.7,7c0.3,0.1,0.4,0.3,0.4,0.6c0,0.1,0,0.2,0,0.2C4038.7,2772.2,4038.5,2772.3,4038.2,2772.3z"/>
					<path class="st17" d="M4031.2,2788.9c-0.1,0-0.2,0-0.3-0.1l-18.1-8.4c-0.2-0.1-0.4-0.3-0.4-0.6c0-0.1,0-0.2,0.1-0.3
						c0.2-0.3,0.5-0.5,0.9-0.3l18.1,8.4c0.2,0.1,0.4,0.3,0.4,0.6c0,0.1,0,0.2-0.1,0.3C4031.7,2788.8,4031.5,2788.9,4031.2,2788.9z"
						/>
				</g>
				<g>
					
						<rect x="3983.2" y="2830.1" transform="matrix(0.7822 0.6231 -0.6231 0.7822 2633.6577 -1871.4497)" class="st17" width="20" height="1.3"/>
					<path class="st17" d="M3989.3,2851.2c-0.2,0-0.3-0.1-0.4-0.2l-14.7-13.6c-0.1-0.1-0.2-0.3-0.2-0.5c0-0.2,0.1-0.3,0.2-0.4
						c0.2-0.3,0.7-0.3,0.9,0l14.7,13.6c0.1,0.1,0.2,0.3,0.2,0.5c0,0.2-0.1,0.3-0.2,0.4C3989.6,2851.2,3989.5,2851.2,3989.3,2851.2z"
						/>
					<path class="st17" d="M3976.6,2864c-0.2,0-0.3-0.1-0.5-0.2l-13.6-14.6c-0.1-0.1-0.2-0.3-0.2-0.4c0-0.2,0.1-0.3,0.2-0.5
						c0.3-0.2,0.7-0.2,0.9,0l13.6,14.7c0.1,0.1,0.2,0.3,0.2,0.4c0,0.2-0.1,0.3-0.2,0.5C3976.9,2863.9,3976.7,2864,3976.6,2864z"/>
					<path class="st17" d="M3962.9,2875.7c-0.2,0-0.4-0.1-0.5-0.2l-6.2-7.8l0,0l-6.2-7.8c-0.1-0.1-0.1-0.3-0.1-0.4
						c0-0.2,0.1-0.4,0.2-0.5c0.3-0.2,0.7-0.2,0.9,0.1l12.5,15.6c0.1,0.1,0.1,0.3,0.1,0.4c0,0.2-0.1,0.4-0.2,0.5
						C3963.2,2875.7,3963,2875.7,3962.9,2875.7z"/>
					<path class="st17" d="M3948.4,2886.4c-0.2,0-0.4-0.1-0.5-0.3l-11.3-16.5c-0.1-0.1-0.1-0.2-0.1-0.4c0-0.2,0.1-0.4,0.3-0.5
						c0.3-0.2,0.7-0.1,0.9,0.2l11.3,16.5c0.1,0.1,0.1,0.2,0.1,0.4c0,0.2-0.1,0.4-0.3,0.5C3948.7,2886.4,3948.5,2886.4,3948.4,2886.4
						z"/>
				</g>
				<g>
					<path class="st17" d="M3897.6,2912.8c-0.3,0-0.5-0.2-0.6-0.4l-7.1-18.7c0-0.1,0-0.2,0-0.2c0-0.3,0.2-0.5,0.4-0.6
						c0.3-0.1,0.7,0,0.8,0.4l7.1,18.7c0,0.1,0,0.2,0,0.2c0,0.3-0.2,0.5-0.4,0.6C3897.7,2912.8,3897.6,2912.8,3897.6,2912.8z"/>
					<path class="st17" d="M3880.5,2918.5c-0.3,0-0.5-0.2-0.6-0.5l-5.7-19.2c0-0.1,0-0.1,0-0.2c0-0.3,0.2-0.5,0.5-0.6
						c0.3-0.1,0.7,0.1,0.8,0.4l5.7,19.2c0,0.1,0,0.1,0,0.2c0,0.3-0.2,0.5-0.5,0.6C3880.6,2918.5,3880.6,2918.5,3880.5,2918.5z"/>
					<path class="st17" d="M3863,2922.9c-0.3,0-0.6-0.2-0.6-0.5l-2.1-9.8l0,0l0,0l0,0l-2.1-9.8c0,0,0-0.1,0-0.1
						c0-0.3,0.2-0.6,0.5-0.6c0.3-0.1,0.7,0.1,0.8,0.5l4.2,19.6c0,0,0,0.1,0,0.1c0,0.3-0.2,0.6-0.5,0.6
						C3863.1,2922.9,3863.1,2922.9,3863,2922.9z"/>
					<path class="st17" d="M3845.3,2926.1c-0.3,0-0.6-0.2-0.6-0.6l-1.4-9.9l0,0l-1.4-9.9c0,0,0-0.1,0-0.1c0-0.3,0.2-0.6,0.6-0.6
						c0.4,0,0.7,0.2,0.7,0.6l2.7,19.8c0,0,0,0.1,0,0.1C3846,2925.7,3845.7,2926,3845.3,2926.1
						C3845.4,2926.1,3845.3,2926.1,3845.3,2926.1z"/>
					<path class="st17" d="M3827.4,2927.8c-0.3,0-0.6-0.3-0.6-0.6l-1.3-20c0,0,0,0,0,0c0-0.3,0.3-0.6,0.6-0.6c0.4,0,0.7,0.2,0.7,0.6
						l1.3,20c0,0,0,0,0,0C3828,2927.5,3827.8,2927.8,3827.4,2927.8C3827.4,2927.8,3827.4,2927.8,3827.4,2927.8z"/>
				</g>
				<g>
					<path class="st17" d="M3779.8,2926.1C3779.7,2926.1,3779.7,2926.1,3779.8,2926.1c-0.4-0.1-0.7-0.3-0.7-0.6c0,0,0-0.1,0-0.1
						l2.7-19.8c0-0.4,0.4-0.6,0.7-0.6c0.3,0,0.6,0.3,0.6,0.6c0,0,0,0.1,0,0.1l-1.3,9.9l0,0l-1.3,9.9
						C3780.4,2925.8,3780.1,2926.1,3779.8,2926.1z"/>
					<path class="st17" d="M3762,2923c0,0-0.1,0-0.1,0c-0.3-0.1-0.5-0.3-0.5-0.6c0,0,0-0.1,0-0.1l4.2-19.6c0.1-0.3,0.4-0.6,0.8-0.5
						c0.3,0.1,0.5,0.3,0.5,0.6c0,0,0,0.1,0,0.1l-4.2,19.6C3762.6,2922.7,3762.3,2923,3762,2923z"/>
					<path class="st17" d="M3744.6,2918.5c-0.1,0-0.1,0-0.2,0c-0.3-0.1-0.5-0.3-0.5-0.6c0-0.1,0-0.1,0-0.2l5.6-19.2
						c0.1-0.3,0.5-0.5,0.8-0.4c0.3,0.1,0.5,0.3,0.5,0.6c0,0.1,0,0.1,0,0.2l-2.8,9.6l0,0l-2.8,9.6
						C3745.1,2918.3,3744.8,2918.5,3744.6,2918.5z"/>
					<path class="st17" d="M3728.1,2912.4l-1.2-0.5l3.5-9.4l0,0l3.5-9.4c0.1-0.3,0.5-0.5,0.8-0.4c0.3,0.1,0.4,0.3,0.4,0.6
						c0,0.1,0,0.2,0,0.2L3728.1,2912.4z"/>
					<path class="st17" d="M3710.9,2905.9c-0.1,0-0.2,0-0.3-0.1c-0.2-0.1-0.4-0.3-0.4-0.6c0-0.1,0-0.2,0.1-0.3l8.4-18.2
						c0.2-0.3,0.5-0.5,0.9-0.3c0.2,0.1,0.4,0.3,0.4,0.6c0,0.1,0,0.2-0.1,0.3l-8.4,18.2C3711.4,2905.7,3711.1,2905.9,3710.9,2905.9z"
						/>
				</g>
				<g>
					<path class="st17" d="M3664.6,2877.7c-0.1,0-0.3,0-0.4-0.1c-0.2-0.1-0.3-0.3-0.3-0.5c0-0.1,0-0.3,0.1-0.4l12.2-15.8l1,0.8
						l-12.2,15.8C3665,2877.6,3664.8,2877.7,3664.6,2877.7z"/>
					<path class="st17" d="M3650.8,2866.1c-0.2,0-0.3-0.1-0.4-0.2c-0.1-0.1-0.2-0.3-0.2-0.5c0-0.2,0.1-0.3,0.2-0.4l13.4-14.9
						c0.2-0.3,0.7-0.3,0.9,0c0.1,0.1,0.2,0.3,0.2,0.5c0,0.2-0.1,0.3-0.2,0.4l-13.4,14.9C3651.2,2866,3651,2866.1,3650.8,2866.1z"/>
					<path class="st17" d="M3637.9,2853.6c-0.2,0-0.3-0.1-0.5-0.2c-0.1-0.1-0.2-0.3-0.2-0.4c0-0.2,0.1-0.3,0.2-0.5l14.5-13.8
						l0.9,0.9l-7.2,6.9l0,0l-7.2,6.9C3638.2,2853.5,3638.1,2853.6,3637.9,2853.6z"/>
					<path class="st17" d="M3626,2840.1c-0.2,0-0.4-0.1-0.5-0.2c-0.1-0.1-0.1-0.3-0.1-0.4c0-0.2,0.1-0.4,0.2-0.5l15.4-12.7
						c0.3-0.2,0.7-0.2,0.9,0.1c0.1,0.1,0.1,0.3,0.1,0.4c0,0.2-0.1,0.4-0.2,0.5l-15.4,12.7C3626.3,2840,3626.1,2840.1,3626,2840.1z"
						/>
					<path class="st17" d="M3615.1,2825.7c-0.2,0-0.4-0.1-0.5-0.3c-0.1-0.1-0.1-0.2-0.1-0.4c0-0.2,0.1-0.4,0.3-0.5l8.2-5.8l0,0
						l8.2-5.8c0.3-0.2,0.7-0.1,0.9,0.2c0.1,0.1,0.1,0.2,0.1,0.4c0,0.2-0.1,0.4-0.3,0.5l-16.3,11.5
						C3615.3,2825.7,3615.2,2825.7,3615.1,2825.7z"/>
				</g>
				<g>
					<path class="st17" d="M3589.1,2778.2c-0.3,0-0.5-0.2-0.6-0.4c0-0.1,0-0.2,0-0.2c0-0.3,0.2-0.5,0.4-0.6l9.3-3.8l0,0l9.3-3.8
						c0.3-0.1,0.7,0,0.8,0.4c0,0.1,0,0.2,0,0.2c0,0.3-0.2,0.5-0.4,0.6l-18.5,7.6C3589.3,2778.2,3589.2,2778.2,3589.1,2778.2z"/>
					<path class="st17" d="M3582.9,2761.3c-0.3,0-0.5-0.2-0.6-0.4c0-0.1,0-0.1,0-0.2c0-0.3,0.2-0.5,0.4-0.6l9.5-3.1l0,0l9.5-3.1
						c0.3-0.1,0.7,0.1,0.8,0.4c0,0.1,0,0.1,0,0.2c0,0.3-0.2,0.5-0.4,0.6l-19,6.2C3583.1,2761.3,3583,2761.3,3582.9,2761.3z"/>
					<path class="st17" d="M3578,2744c-0.3,0-0.6-0.2-0.6-0.5c0-0.1,0-0.1,0-0.2c0-0.3,0.2-0.6,0.5-0.6l9.7-2.4l0,0l9.7-2.4
						c0.3-0.1,0.7,0.1,0.8,0.5c0,0.1,0,0.1,0,0.2c0,0.3-0.2,0.6-0.5,0.6l-19.4,4.8C3578.1,2744,3578.1,2744,3578,2744z"/>
					<path class="st17" d="M3574.4,2726.3c-0.3,0-0.6-0.2-0.6-0.5c0,0,0-0.1,0-0.1c0-0.3,0.2-0.6,0.5-0.6l19.7-3.3
						c0.4-0.1,0.7,0.2,0.7,0.5c0,0,0,0.1,0,0.1c0,0.3-0.2,0.6-0.5,0.6l-9.9,1.6l0,0l-9.9,1.6
						C3574.5,2726.3,3574.5,2726.3,3574.4,2726.3z"/>
					<path class="st17" d="M3572.2,2708.5c-0.3,0-0.6-0.3-0.6-0.6c0,0,0,0,0-0.1c0-0.3,0.3-0.6,0.6-0.6l19.9-1.8
						c0.3,0,0.7,0.2,0.7,0.6c0,0,0,0,0,0.1c0,0.3-0.3,0.6-0.6,0.6L3572.2,2708.5C3572.2,2708.5,3572.2,2708.5,3572.2,2708.5z"/>
				</g>
				<g>
					<path class="st17" d="M3593.2,2657C3593.2,2657,3593.2,2657,3593.2,2657l-19.9-2.7c-0.3,0-0.6-0.3-0.6-0.6c0,0,0-0.1,0-0.1
						c0-0.4,0.4-0.6,0.7-0.6l19.8,2.7c0.3,0,0.6,0.3,0.6,0.6c0,0,0,0.1,0,0.1C3593.8,2656.8,3593.6,2657,3593.2,2657z"/>
					<path class="st17" d="M3596,2640.7l-9.8-2.1l0,0l-9.8-2.1c-0.3-0.1-0.5-0.3-0.5-0.6c0,0,0-0.1,0-0.1c0.1-0.3,0.4-0.6,0.8-0.5
						l19.6,4.1L3596,2640.7z"/>
					<path class="st17" d="M3600,2624.7l-9.6-2.8l0,0l-9.6-2.8c-0.3-0.1-0.5-0.3-0.5-0.6c0-0.1,0-0.1,0-0.2c0.1-0.3,0.5-0.5,0.8-0.4
						l19.2,5.6L3600,2624.7z"/>
					<path class="st17" d="M3605.4,2609.1c-0.1,0-0.2,0-0.2,0l-18.7-7c-0.3-0.1-0.4-0.3-0.4-0.6c0-0.1,0-0.2,0-0.2
						c0.1-0.3,0.5-0.5,0.8-0.4l9.4,3.5l0,0l9.4,3.5c0.3,0.1,0.4,0.3,0.4,0.6c0,0.1,0,0.2,0,0.2
						C3605.9,2608.9,3605.6,2609.1,3605.4,2609.1z"/>
					<path class="st17" d="M3611.8,2593.9c-0.1,0-0.2,0-0.3-0.1l-9.1-4.2l0,0l-9.1-4.2l0.5-1.2l18.2,8.4c0.2,0.1,0.4,0.3,0.4,0.6
						c0,0.1,0,0.2-0.1,0.3C3612.2,2593.7,3612,2593.9,3611.8,2593.9z"/>
				</g>
				<g>
					<path class="st17" d="M3637.6,2551.4c-0.1,0-0.3,0-0.4-0.1l-15.8-12.2c-0.2-0.1-0.3-0.3-0.3-0.5c0-0.1,0-0.3,0.1-0.4
						c0.2-0.3,0.6-0.3,0.9-0.1l15.8,12.2c0.2,0.1,0.3,0.3,0.3,0.5c0,0.1,0,0.3-0.1,0.4C3638,2551.3,3637.8,2551.4,3637.6,2551.4z"/>
					<path class="st17" d="M3648.2,2538.8c-0.2,0-0.3-0.1-0.4-0.2l-14.9-13.4c-0.1-0.1-0.2-0.3-0.2-0.5c0-0.2,0.1-0.3,0.2-0.4
						c0.2-0.3,0.7-0.3,0.9,0l7.4,6.7h0l7.4,6.7c0.1,0.1,0.2,0.3,0.2,0.5c0,0.2-0.1,0.3-0.2,0.4
						C3648.5,2538.7,3648.4,2538.8,3648.2,2538.8z"/>
					<path class="st17" d="M3659.7,2526.9c-0.2,0-0.3-0.1-0.5-0.2l-6.9-7.2l0,0l-6.9-7.2c-0.1-0.1-0.2-0.3-0.2-0.5
						c0-0.2,0.1-0.3,0.2-0.5c0.3-0.2,0.7-0.2,0.9,0l13.8,14.4c0.1,0.1,0.2,0.3,0.2,0.5c0,0.2-0.1,0.3-0.2,0.5
						C3660,2526.9,3659.8,2526.9,3659.7,2526.9z"/>
					<path class="st17" d="M3672,2516c-0.2,0-0.4-0.1-0.5-0.2l-12.7-15.4c-0.1-0.1-0.1-0.3-0.1-0.4c0-0.2,0.1-0.4,0.2-0.5
						c0.3-0.2,0.7-0.2,0.9,0.1l12.7,15.4c0.1,0.1,0.1,0.3,0.1,0.4c0,0.2-0.1,0.4-0.2,0.5C3672.3,2515.9,3672.2,2516,3672,2516z"/>
					<path class="st17" d="M3685.2,2506c-0.2,0-0.4-0.1-0.5-0.3l-5.8-8.2l0,0l-5.8-8.2c-0.1-0.1-0.1-0.2-0.1-0.4
						c0-0.2,0.1-0.4,0.3-0.5c0.3-0.2,0.7-0.1,0.9,0.2l11.5,16.3c0.1,0.1,0.1,0.2,0.1,0.4c0,0.2-0.1,0.4-0.3,0.5
						C3685.5,2505.9,3685.3,2506,3685.2,2506z"/>
				</g>
				<g>
					<path class="st17" d="M3728.8,2482.1c-0.3,0-0.5-0.2-0.6-0.4l-7.6-18.5c0-0.1,0-0.2,0-0.2c0-0.3,0.2-0.5,0.4-0.6
						c0.3-0.1,0.7,0,0.8,0.4l3.8,9.3l0,0l3.8,9.3c0,0.1,0,0.2,0,0.2c0,0.3-0.2,0.5-0.4,0.6
						C3728.9,2482.1,3728.8,2482.1,3728.8,2482.1z"/>
					<path class="st17" d="M3744.3,2476.5c-0.3,0-0.5-0.2-0.6-0.4l-6.2-19c0-0.1,0-0.1,0-0.2c0-0.3,0.2-0.5,0.4-0.6
						c0.3-0.1,0.7,0.1,0.8,0.4l3.1,9.5v0l3.1,9.5c0,0.1,0,0.1,0,0.2c0,0.3-0.2,0.5-0.4,0.6
						C3744.4,2476.5,3744.3,2476.5,3744.3,2476.5z"/>
					
						<rect x="3747.8" y="2461" transform="matrix(0.2379 0.9713 -0.9713 0.2379 5254.8687 -1773.8613)" class="st17" width="20" height="1.3"/>
					<path class="st17" d="M3776.3,2468.7c-0.3,0-0.6-0.2-0.6-0.5l-1.6-9.9l0,0l-1.7-9.9c0,0,0-0.1,0-0.1c0-0.3,0.2-0.6,0.5-0.6
						c0.4-0.1,0.7,0.2,0.7,0.5l3.3,19.7c0,0,0,0.1,0,0.1c0,0.3-0.2,0.6-0.5,0.6C3776.4,2468.7,3776.4,2468.7,3776.3,2468.7z"/>
					<path class="st17" d="M3792.7,2466.6c-0.3,0-0.6-0.3-0.6-0.6l-0.9-10l0,0l-0.9-10c0,0,0,0,0-0.1c0-0.3,0.3-0.6,0.6-0.6
						c0.4,0,0.7,0.2,0.7,0.6l0.9,10l0,0l0.9,10c0,0,0,0,0,0.1C3793.4,2466.3,3793.1,2466.5,3792.7,2466.6
						C3792.8,2466.6,3792.7,2466.6,3792.7,2466.6z"/>
				</g>
			</g>
			<path class="st17" d="M3920.5,2502.7c-0.4,0-0.8-0.1-1.1-0.3c-0.7-0.4-1.1-1.2-1.1-2c0-0.4,0.1-0.8,0.3-1.1l10-17.2l0,0l10-17.2
				c0.6-1.1,2-1.5,3.1-0.8c0.7,0.4,1.1,1.2,1.1,2c0,0.4-0.1,0.8-0.3,1.1l-20,34.4C3922,2502.2,3921.3,2502.7,3920.5,2502.7z"/>
			
				<rect x="4014.2" y="2549.9" transform="matrix(0.4962 0.8682 -0.8682 0.4962 4254.7539 -2192.5127)" class="st17" width="4.6" height="39.8"/>
			<path class="st17" d="M4067.4,2690.4C4067.4,2690.4,4067.4,2690.4,4067.4,2690.4l-39.8-0.3c-1.3,0-2.3-1-2.3-2.3c0,0,0,0,0,0
				c0-1.3,1-2.3,2.3-2.3c0,0,0,0,0,0l39.8,0.3c1.3,0,2.3,1,2.3,2.3c0,0,0,0,0,0C4069.7,2689.4,4068.6,2690.4,4067.4,2690.4z"/>
			<path class="st17" d="M4032,2818.1c-0.4,0-0.8-0.1-1.2-0.3l-34.3-20.2c-0.7-0.4-1.1-1.2-1.1-2c0-0.4,0.1-0.8,0.3-1.2
				c0.6-1.1,2-1.5,3.1-0.8l34.3,20.2c0.7,0.4,1.1,1.2,1.1,2c0,0.4-0.1,0.8-0.3,1.2C4033.6,2817.7,4032.8,2818.1,4032,2818.1z"/>
			<path class="st17" d="M3935.3,2909.7l-19.5-34.7c-0.2-0.4-0.3-0.7-0.3-1.1c0-0.8,0.4-1.6,1.2-2c1.1-0.6,2.5-0.2,3.1,0.9
				l19.5,34.7L3935.3,2909.7z"/>
			<path class="st17" d="M3808.9,2943.5C3808.9,2943.5,3808.9,2943.5,3808.9,2943.5c-1.3,0-2.3-1-2.3-2.3c0,0,0,0,0,0l0.6-39.8
				c0-1.3,1-2.3,2.3-2.3c0,0,0,0,0,0c1.3,0,2.3,1,2.3,2.3c0,0,0,0,0,0l-0.6,39.8C3811.2,2942.5,3810.2,2943.5,3808.9,2943.5z"/>
			<path class="st17" d="M3681.5,2907.2c-0.4,0-0.8-0.1-1.2-0.3c-0.7-0.4-1.1-1.2-1.1-2c0-0.4,0.1-0.8,0.3-1.2l20.5-34.2l3.9,2.4
				l-20.5,34.2C3683,2906.8,3682.2,2907.2,3681.5,2907.2z"/>
			<path class="st17" d="M3589.4,2811.9c-0.8,0-1.6-0.4-2-1.2c-0.2-0.4-0.3-0.7-0.3-1.1c0-0.8,0.4-1.6,1.2-2l34.9-19.3
				c1.1-0.6,2.5-0.2,3.1,0.9c0.2,0.4,0.3,0.7,0.3,1.1c0,0.8-0.4,1.6-1.2,2l-34.9,19.3C3590.2,2811.8,3589.8,2811.9,3589.4,2811.9z"
				/>
			<path class="st17" d="M3597.5,2684.1C3597.5,2684.1,3597.5,2684.1,3597.5,2684.1l-39.9-0.8c-1.2,0-2.2-1-2.2-2.3c0,0,0,0,0,0
				c0-1.3,1.1-2.3,2.3-2.2l39.8,0.8c1.2,0,2.2,1,2.2,2.3c0,0,0,0,0,0C3599.8,2683.1,3598.8,2684.1,3597.5,2684.1z"/>
			
				<rect x="3591.9" y="2561.8" transform="matrix(0.854 0.5203 -0.5203 0.854 1861.2761 -1504.7471)" class="st17" width="39.8" height="4.6"/>
			<path class="st17" d="M3709.8,2499.7c-0.8,0-1.6-0.4-2-1.2l-19-35c-0.2-0.3-0.3-0.7-0.3-1.1c0-0.8,0.4-1.6,1.2-2
				c1.1-0.6,2.5-0.2,3.1,0.9l9.5,17.5l0,0l9.5,17.5c0.2,0.3,0.3,0.7,0.3,1.1c0,0.8-0.4,1.6-1.2,2
				C3710.6,2499.6,3710.2,2499.7,3709.8,2499.7z"/>
		</g>
	</g>
	<path class="st6" d="M3931.7,2769c-1.5,0-3.1-0.4-4.5-1.3l-112.2-67.8c-4.1-2.5-5.4-7.8-2.9-11.9c2.5-4.1,7.8-5.4,11.9-2.9
		l112.2,67.8c4.1,2.5,5.4,7.8,2.9,11.9C3937.6,2767.5,3934.7,2769,3931.7,2769z"/>
	<path class="st6" d="M3649.8,2786.4c-2.2,0-4.4-1.2-5.6-3.2c-1.8-3.1-0.7-7,2.4-8.7l157.3-89.9c3.1-1.8,7-0.7,8.7,2.4
		c1.8,3.1,0.7,7-2.4,8.7l-157.3,89.9C3651.9,2786.1,3650.8,2786.4,3649.8,2786.4z"/>
	<path class="st6" d="M3812.2,2687.9c-1.1-0.3-1.9-1.2-2.2-2.3l-45.7-195.6c-0.4-1.7,0.7-3.4,2.4-3.8c1.7-0.4,3.4,0.7,3.8,2.4
		l45.7,195.6c0.4,1.7-0.7,3.4-2.4,3.9C3813.3,2688,3812.7,2688,3812.2,2687.9z"/>
	<circle class="st9" cx="3812.5" cy="2686.3" r="14.3"/>
	<path class="st8" d="M3620.7,3242.5l-0.1,244.3c0,17.8-14.6,32.4-32.4,32.4l-226-0.1l-158.3,0c-11.1,0-21-5.7-26.9-14.3
		c-3.5-5.2-5.5-11.4-5.5-18.1l0.1-244.3c0-17.8,14.6-32.4,32.4-32.4l384.3,0.1C3606.1,3210.1,3620.7,3224.7,3620.7,3242.5z"/>
	<rect x="3240.1" y="3364.6" class="st6" width="191.8" height="27.6"/>
	<rect x="3240.1" y="3415.8" class="st6" width="191.8" height="7.3"/>
	<rect x="3240.1" y="3436.8" class="st6" width="191.8" height="7.3"/>
	<rect x="3171.5" y="3263.1" class="st6" width="449.1" height="77"/>
	<rect x="2904.8" y="156.4" class="st6" width="450.6" height="364.4"/>
	<circle class="st8" cx="3130.1" cy="335.2" r="128.6"/>
	<polygon class="st6" points="3211.5,338.6 3091.2,408 3091.2,269.1 	"/>
	<path class="st6" d="M1286.3,2988.5c-107.8,119-291.7,128.1-410.8,20.3c-119-107.8-128.1-291.7-20.3-410.8
		c107.8-119,291.7-128.1,410.8-20.3C1385,2685.6,1394.1,2869.5,1286.3,2988.5"/>
	<g>
		<path class="st8" d="M981.8,2893.8c0.5-2.6,3.4-13.6,1.3-15.2c-4-3-5.7-6.3-12.7-6.1c-5.1,0.2-9.3,0.6-14.4,0
			c4.6-9.2,2.9-16.8,8.4-25.7c4.3-7-13.6-3.9-15.9-3.2c-4.1,1.2-3.1,3.1-3.7,6.9c-0.4,2.6-4.2,5.4-3.7,7.6c-1.8-0.4-3.8-0.2-5.9,0
			c-3,0.3-5.9,0.6-7.9-1c-3.5-2.8-6,1.4-8.4-3.1c-1.5-2.8-1.3-7.3-3-10c-3.8-5.9-5.2-17.9-1.2-23.9c3.5-5.2-2.3-10.7,3.3-15
			c2.5-1.9,5.4-9.4,5.3-13.4c4.7-0.4,13.6,4.8,17.7,5.1c1.2,2.7,7.4,5.5,7.9,1.4c1.5,1.2,2.9,3.4,5.1,1.9c-0.1-1.5-0.9-2.4-2.3-2.8
			c0.8-1.3,0.9-2.7,0.5-4.2c3-1.7,6,0.8,7.9,0.9c2.3-1.1,4.3-0.6,6.2-0.2c1.6,0.4,5.3-2,6.8-2.6c-0.5,3.6,1.3,6.2,3.4,4.6
			c3.6-2.7,4.3,1.3,6.9,3.8c3.7,3.6-1.1,11.5,6.1,15.7c-0.5,3.1,4.2,11.4,5.8,11.2c12.7-1.6-4.3-30.1-2.1-37.7
			c1.5-5.1,3.5-7.5,7.8-9.8c3.8-2.1-0.3-10.7,3.5-12c4-1.3,10,0.7,13.7-0.8c2.1-0.9,3.5-2.2,0.9-3.5c0.7-0.8,5.4-3.8,5.6-3.7
			c-0.2-2.9-4.7-7.8-4.2-9.7c0.5,0.3,2.1-0.9,1.9-0.3c0.6,1.7,3.8-4.4,4-4.7c2.2-3.9-3.5-6.1-2.6-9.3c1.9,0.4,7.2,2.1,8.4-0.7
			c1.2-2.8-2.3-17.2-3.8-17c4.8-5.5,16.9,9.5,21.4,5.1c3.8,0.3,5.6,0.7,5.6-3.3c-1.5-1.7-4,0-5.1-2.3c0.6-4.2,3.7-5.8,7.9-7.3
			c1.7-0.6,1.9-3.2,2.7-4.8c2.5-0.2,4.3-1.8,6.6-2.7c6.5-2.5,2-1.9,4.1-2.9c0.3-0.1,10.8-0.9,10.2-1.9c0.9,1.9-7.5,4.3-6.9,8.1
			c0.9,5.8,7.6-1.5,11.2-2.3c3.2-6.6,11.2-3.1,18.1-4.5c0.6-2-1.8-1-1.4-2.8c3,0.7,5.8-0.8,6.8-2.3c1-1.4,0.5-2.8-2.7-2.4
			c0.1-1.5-3.1-14.4-7.7-8.7c-2.3,2.9,1.7,8.7,1.7,11.9c-1.9-0.6-4-0.5-6-0.4c-1.4,0.1-2.8,0.2-4.2,0c-1.4-2.1-2.2-1.9-4.4-2.8
			c-1.8-0.7-3.6-5.7-4.5-5.5c0.9-1.3,1.7-2.7,2.3-4.2c-0.3-0.3-5.6-1.2-7.1-1.4c3.4,0.1,13.1-2,8.3-6.4c-3.5-3.1-8.7,0.4-12.6,1.7
			c-3.7,1.2-7.4,3.3-10.6,5.6c-1,0.7-5.3,0.3-7.2,0.9c0-2.5,6.9-7.2,8.9-8.3c3.4-1.8,5.6-0.4,7.8-4.3c0.6-3,2.3-4.2,5.2-3.7
			c3.8-0.2,9.6-2.4,13.8-2.2c7.2,0.5,12.9,3.4,19.1,1.5c3.1-0.9,5-3.8,7-6.1c2.8,0,5.6-0.2,8.4-0.5c3.9-0.3,6.9-3.7,5.8-6.5
			c-1.1-2.7,0.4-11.7-6.8-7.9c-1.2-0.3-0.8-4.5-5.6-3.7c1.4-0.6,2.6-1.4,3.7-2.3c-1.4-2.7-13.9-3.6-16.8-2.4
			c-0.6-1.6,1.6-4.8-1.8-7.4c-1.7-1.3-7.1-1.2-6.5-4.6c3.1,3.1,7.2-2,0.5-4.2c-0.2-1.4,4.8-0.4-0.2-3.5c-1.1-0.7-4.9-3.1-4.2-4.4
			c1.5-2.7-9.8-13-12.8-1.7c-0.4,1.6-12.9,6-13.9,3.9c-1.6-3.4-2.4-1.6-4-1c-1.2,0.4-2.9-0.5-4.8-1.5c-0.6-1.9,3.2-1.2,2.1-6.1
			c-1-4.5-1.4-2.9,0.8-6.2c1.8-2.8-12.6-0.5-11.3-5.3c-3.7-2.1-7.5-5.9-11.8-4.3c-3.6,1.3-6.4,4-10.2,3c-2.8-0.7-6.4-4.2-8.7-1.6
			c-1.8,1.9-1.9,4.4,1.1,5.4c-1.4,1.6-2.6,3.3-3.7,5.1c1,0.6,2.1,0.7,3.3,0.5c-0.3,1.5,0,2.9,0.9,4.2c-0.7,1.1-0.9,3.2-2.1,3.6
			c-1,4.4-7.2,4.2-1,7.5c4.7,2.5,12.6,7.9,9.8,13.7c-2.1,4.3-15.1,7.3-20.1,8.2c-0.5,4.4,2.4,4.3,2.4,8.5c0,2.3,1.5,5,1.3,7.3
			c-0.4,5.3-2.5,2.9-5,5.3c-2.8,2.8-4.7-2.5-7.3-3.7c-3.9-1.8-4.8-4.6-4.4-8.3c0.4-3.6,1.5-9.9-2.5-10.7c-7.1-1.4-15.9,1-22.3-3.6
			c-3.1-2.3-5.3-6.4-9.7-7.2c-2.2-0.4-5.2,2.2-7,2.8c-1.5,0.5-3.7-0.5-4.7,0.9c1.4-2.1-0.6-10.5-5.3-10.3c-4.6,0.2-5.3-5.7-4.3-7.8
			c1.3-2.6,9.6-5.4,10-7.9c0.1-0.9,8.8-7.7,6-7.4c8.6-3,6.9-3.1-0.9-5.1c0.8-0.8,3.3-2.5,5.6-2.3c3.9,0.2,7.9,2.3,6-1.9
			c5.5,1.8,11.7-2.2,13.5-7.5c-1.3-0.5-12.9-0.5-12.1-2.8c4.7,1.6,9.5,3.1,13.7-0.1c3.5-2.6,6-3.6,1.7-5.1c4-1.1,8.7-1.4,13-1
			c-0.7-1.9-2.1-2.8-4.2-2.8c2-1.8,4.1,0.6,5.9,0.8c3.6,0.5,6.2-0.9,8.4-3.4c5.3-5.9-6.3-3.4-4.3-8.4c0.6-0.6,3-0.5,3.9-0.1
			c1.3,0.4,2.6,0.9,2.9-1.3c0.5-3.3-2.7-2.4-5.2-3c-4.3-1.1-18,2.7-9.3,4.4c-1.3,0.9-2.7,1.5-4.2,1.9c-1,2.1-2.3,3.9-3.9,5.5
			c-3.1,3.3-5.9,4.3-8.7,0.1c0.4-0.8,6.1-8.3-0.7-5.8c-2.7,1-4.3,3.9-6.7,5.4c1.2-1.8-1.5-4.1,0.9-5.1c-1.2-1.2-2.8-0.6-4.3-0.1
			c-0.9,0.3-1.9,0.6-2.6,0.6c-0.3-2.7,3-1.4,3.7-3.3c-1.6-2.4-4.5-0.6-3.8-3.8c0.7-3.3-6.2-0.8-7.2-0.4c-3.1,1.3-5,4.5-8,6.5
			c0.5,0.5,1.1,0.6,1.9,0.5c-0.3,1.3-4.3,3.5,0.1,3.9c1.7,0.1,3.5-0.2,5.2-0.5c1.5-0.3,3-0.6,4.4-0.6c0,0.9-6.2,3-6.5,3.3
			c0.1,1.3,1.1,1,2.1,0.7c0.6-0.2,1.2-0.4,1.6-0.2c-1.4,2.6-5.8,3.5-7.8,5c-3.4,2.4-0.2,2.3-1.9,4.8c-3.8,0.5-1.4-2.6-0.9-4.2
			c-2.4-0.8-9.4-0.6-8.8,3.3c-2.6,1.2-13.6,6.5-16.2,5.1c-5.8-3.1-13.3,5-16.8,9.1c0-0.1,0-0.1,0.1-0.2c-7.6-0.3-11.6,6.3-18.6,7.5
			c1.4-1.3,2.8-2.5,4.2-3.7c-2.9-2.1-15.2,8.6-17.2,10.7c-8.8,9.7-2.7-1.7-12.1-2.8c-1.2,1.2,1.9,2.1,1.4,3.7c-1.5,0-6,2.2-7.4,2.8
			c-1.7,0.7-5.7,1.7-8.2,3.5c-0.7,0.8-1.3,1.6-1.9,2.4c-0.1,0.2-0.3,0.4-0.3,0.4c-12.4,15.7-23,32.2-31.7,49.5c3.8,0,7.9,0.2,8.8,1
			c-1.6,4.5,10,3.1,9.7,5.9c1.2-0.5-0.7,5.4-0.7,5.3c-0.7,2.1-1.3,4.3-1.6,6c2.4-0.9,0.5-4.6,2.8-5.6c0.2,0.9-0.2,7.9-0.4,8.1
			c0.6,3.5-2.8,13.4-1.7,14.9c0.8,1.1,4.4,5.5,3.5,6.7c-1.5,2-0.3,9.2-0.8,11.9c-0.7,3.9-1.6,7.8-2,11.8c-1.1,6.1-2.4,12.8-1.6,19
			c1.1,7.7,3.7,14.7,5.8,22.2c1.5,5.2,4.1,1.9,6.1,6.4c2.4,5.3,3.9,12.6,6.5,18.3c1,2.2,8.3,12.2,2.4,11.1
			c-0.4,6.2,8.7,6.4,9.3,12.1c0.7,6.6,6.1,8.6,7.9,14.9c5.1,0.2-0.5-7.1-0.5-8.4c-3-0.2-4.7-8.5-5.1-12.1c-3-1.3-4.4-7.7-6-10.4
			c-2.8-4.8-5.2-8.9-4.8-14.7c6.1,1.6,7.4,7.2,9.5,13.3c0.9,2.7,2.5,7.5,4,9c3.6,2.7,3.7,4.6,4.2,8.4c6.8,3.8,11.1,14.3,14.4,21
			c1.9,3.9-1,6.2,1.2,9.8c2.1,3.4,6.1,4.9,7.7,8.6c6.8,2,13.2,6.8,19.2,10.1c3.5,1.9,6.6,4.3,10.6,5.1c3.2,0.7,5.4-2.1,8.4-2.2
			c5.9-0.1,11.3,9.7,15.8,12.8c2,0,17.6,6.6,17.7,4.1c0.8,0.1,8,11.3,10.3,12.5c0.6,2.6-1.9,3,1.2,5.3c-0.4-0.3,0.5,0.4,1.6,1.1
			c3.1-1.4,6.4-2.5,9.6-3.9C982.5,2899.5,981.3,2896.8,981.8,2893.8"/>
		<path class="st8" d="M1205.1,2991.2c-1.4-5.3-10.3-0.4-13.9-2.9c-3.1-2.1-6.4-6-10.5-5.7c-5.1,0.4-8.7-0.8-13.8-1.8
			c-3.6-0.7-4.8,3.7-7.9,3.7c0.7-4.8-4.6-6.6-10.3-5.7c-1.8-2.6-5.5-2.2-8.7-0.3c0.4-0.8,0.7-1.8,0.8-2.8c-2.5-2.1-5.1,0.3-8,0
			c-2.6,2.3-5,4.9-9.6,5.2c1.9-5.4,7.7-6.9,10.5-11.4c1.5-2.4-3.8-5.1-4.6-7.2c-2.6-7-2.1-6.1-8-10.2c-3.8-2.6-9-4.3-13.9-4.7
			c-4.3-0.3-4.7,1.7-8.7,0.2c-2.5-0.9-8-2.8-11.6-2.4c1.5-8.2-8.2-9.9-13-9.2c1-1.4,2.3-2.7,3.7-3.7c-1-1.2-2.2-2-3.7-2.3
			c2.2-0.5,1.2-4.2,1.8-5.6c-4-0.6-6,5.7-8.4,2.8c0.7-0.9,3-0.1,2.8-1.9c-3.5-2.1-10-1-13.2,1.2c-4.3,3-8.2-2.4-12.7-1.9
			c-3.7,0.4-5.2,1.3-7.1-1.8c-1.4-2.3-4-2.8-6.5-2.5c-1.2-1-1.6-5.5-4.1-3.8c-1.4,1-1.6,3.3,0.8,3.4c-2,1.9-5.7,1-7.4,2.8
			c-0.9-0.1-2.2-3-0.4-3.5c7.5-1.9-2.6-4.1-4.1-6.6c-1.1-1.8-2.5-3-4.2-3.8c-5.9-2.6-14.6,0.3-20.1,0.9c-1.7-2.4-4.6-4.9-6.7-7.7
			c-3.2,1.4-6.5,2.5-9.6,3.9c1.4,0.8,2.9,1.4,2.3-0.3c1.8,4.1,5.6,1.2,5.6,6.5c0.7,1.6,5.1,2.4,6.1,2.3c1.1-0.1,2.1,0.1,3.1,0.5
			c1.7,0.6,3.2,1.7,4.7,2.9c2.4,1.8,2.3,1.3,6.2,1.3c-0.4-1.6-1.1-3.2-1.9-4.6c4,0,4-2.3,8.4-1.4c-0.2,1.7,2.8,5.8,1.9,7
			c-3.7,1-8.1-0.2-10.7,2.9c-1.1,1.3-1.1,6.3-2.8,6.5c-2.3,0.3-4.3,2.6-4.5,5c-0.7-1-1.6-1.6-2.8-1.9c-1.7,1.3,2.4,2.5,0.9,3.7
			c-1.3,0.3-2.2,1.1-2.8,2.3c-0.2,2.6,3,4.8,3.3,7.4c0.3,2.8,1.6,9.5,0.4,11.7c-0.6,1.1-7,4.8-5,5c-3.1,0.2-0.8,3.4-4.3,3.6
			c-2.5-0.6-3.3,0.5-2.5,3.3c-0.5,2.1-6.3,10.1-1.6,11.8c0.3,0.1,4.3,0.6,4.6,0.1c0,4.2-4.8,3.5-6.5,6.4c-0.3,2.8,5.7,6,1.4,6
			c1.2,2.2,4,2.8,6.1,3.7c1.3,2.1,2.7,4.1,4.4,6c3.3,3.7,6.9,7.3,8.6,12.1c4.8,3.5,6.3,9.1,10.4,12.6c3.7,3.1,8.2,5.2,12.6,7
			c5,2,9.1,4,13.7,6.8c0.8,2.3,3.3,10,1.4,12.1c-0.7,0.7-1.2,15.3-0.4,15.3c-0.5,3.4-3.6-1.8-0.7,3.7c0.7,0.8,0.9,1.5,0.5,2.3
			c0,0.3-2.7,5-5,3.7c0.3,0.9,0.9,1.6,1.8,2c20.9,2.8,42,3.4,63,1.7c-1.7-0.7-1.9-2.3-4.8-2c7.6-1.3,14.2,2.5,21.4-1.2
			c1.7-0.9,4.2-4,6.3-5.2c-0.1,0.1-0.2,0.2-0.3,0.3c4.2,0.2,13.9-7.5,14.2-10.9c0.8-8.5,13.5-9.6,17.3-15.4c9-1.1,13.3,2,19.4-3.4
			c5-4.4,6.4-8.9,9.8-13.7c2.2-3.1-3.5-10.4-1.6-13.9c4.2-1.2,11-1.8,12.8-5.5C1197.1,3008.2,1207.5,3000.1,1205.1,2991.2z"/>
		<path class="st8" d="M869.4,2592c4.3,0.5,4,2.3,7,5.1c0.5-1.1,10.6-12.4,11.6-11.2c-0.9,0.6-1.7,1.4-2.3,2.3c0.5-0.3,1-0.3,1.4,0
			c-1.4,0.9-2.5,2.2-3.2,3.7c3,0,7.8-2.1,9.5-2.9c4.3-2.1,8.2-4.8,11.9-7.8c3,0.5,6-3.8,9.7-4c4.2-0.3,9.1-2.2,11.7-5.8
			c-1.6-1.6-3.7,2-4.6,0.9c2.1-2,9.7-2.5,8.8-5.6c-3.2-1-6.3,1.9-9.3,0c2.1-1.8,1.1-3.8,0.9-6c-5.8-0.4-7,4-9.3,7.9
			c-1.7,0-0.2-2.3-0.9-2.3c-3.1,0.5-4.5,3.3-7,5.1c0,0.4-11,5.4-14.5,5c-4.3-0.5-4.6-2.9-9.1-2.4c-0.7,0.1-1.5,0.2-2.2,0.3
			c-1.9,1.7-3.9,3.5-5.8,5.2c0,0.5-0.2,1.2-0.8,2.2c-2.4,3.8-2.6,2.1-2.9,6.6C869.3,2589.9,864.8,2591.5,869.4,2592z"/>
		<path class="st8" d="M855.8,2597.5c-1,1.1-2.2,2.4-3.2,3.6c2.5-1,5-1.9,5.8-2.8C858,2597.6,857,2597.4,855.8,2597.5z"/>
		<path class="st8" d="M1346.9,2712.2c0.2-3.3-0.4-5.8-1.4-7.9C1344.1,2706.7,1344.9,2710.7,1346.9,2712.2z"/>
		<path class="st8" d="M1298.9,2631.5c-0.6-0.7-0.1-3.6,0.9-2.3c-3.5,3.6,8.3,9.3,7.9,13.9c-1.1-0.6-2.2-0.6-3.3,0
			c0.6,1.3,1.2,2.5,1.9,3.7c-0.8,0.3-1.5,0.4-2.3,0.5c0.3,3.9,4.9,3.2,6.5,6c-1.2-0.3-2.2-0.8-3.3-1.4c-2.3,8.6-2.7,2,3.7,6.5
			c-0.2-0.7,0-1.3,0.5-1.9c3.5,1.3,5.5,3.1,9.8,3.7c0.3-0.5-0.3-5.6-0.5-6.5c-1.5-3.8-5.7-8.1-8-11.6c-2.6-3.9-5.7-7.5-8.3-11.1
			c-0.5-7.1-3.1-4.6-6.1-9.7c0.9,0,1.6-0.5,1.9-1.4c-2-1.3-4-2.5-6-3.7c0,1.2,0.3,2.3,0.9,3.3c-0.3-0.1-0.6-0.3-0.9-0.5
			C1294.4,2621.2,1296.4,2631,1298.9,2631.5z"/>
		<path class="st8" d="M1359.3,2753.6c-1.6-3.3-3.5-6-5-6.3c-3.6-0.7,2.5-16.8-4.5-17.4c-1.9,1.7-6.3-0.3-8.7-0.9
			c-4.1-1-6.9,0.2-9.4,2.8c0.4,1.1-11.4,3.3-14-2c-1.6-3.2,4.8-3,6-2.9c5.3,0.4,4.5-4.3,6.8-7.6c1.5-2.2,0.1-2.9-1.2-5.2
			c1-2.1,1.7-4.3,2.3-6.5c7.4,0.9,1-7.3,4.2-9.3c1.5,1.5,3.2,2.8,5.1,3.7c0.6-1.5,1.5-2.7,2.8-3.7c3.6,4.9,4.7,11,7.5,16.2
			c0,0.1,0.1,0.2,0.1,0.2c-5.7-20.6-13.8-40.6-24-59.7c-1.1,1-2.1,3-1.8,5.2c-3.6-1.7-2.9,2.7-4.7,3.9c-1.8,1.2-2.3,0.2-2.9-0.7
			c-0.5-0.7-1-1.4-2.2-1.3c0.7,1.6,1.2,3.3,1.4,5.1c-3.2-2.5-3.8-2-7.9-2.8c-0.5,4.2,8.3,10.8,10.9,14.5c1.7,2.4,4.1,11.2,2.2,14.2
			c-4.3-3.2-17.8-8.2-21.4-4.6c-0.5,2.3,2.6,10.9,3.1,13.5c0.4,2.3-0.3,8.8-1.2,11.1c6.5,3.7-1.7,11.3,9.3,9.3
			c4.7,5.6,4.5,12.9-1.2,17.1c-5,3.6-2.9,6.2-5.8,10c-3.1,4.1,2.1,8.5-2.1,13.3c-2.8,3.3-7.1,4.8-8.4,8.6c-1.8,5.5-7,7.7-7.1,14.3
			c-5.1,2.4-3.9,6.8-7.4,10.2c-2.7,2.7-0.4,6.8-0.9,10.2c0.7-0.2,1.3,0,1.9,0.5c1.1,1.9,1.7,10.6,1.5,12.7c-0.3,3.3-1,11.4-3.1,13.9
			c-4,4.9,0.6,6.3-0.5,10.8c-0.9,3.6,0.9,8.6,5.5,7.7c-2.7,5.5,8,8.9,6.5,16.2c1.5,4.4,9.1,9.2,13,12.6c4.1,3.6,7.1,1.2,10.1-1.2
			c2.9-2.2,5.8-4.4,9.8-1.9c1.5,0.9,14-9.7,16.4-11c1.8,1.8,1.2,5.2,1.9,7.4c2.1-0.5,3.8-1.6,5.1-3.3c1.6,8.9-4.9,16.2-4.2,24.6
			c0,0.3,0,0.6,0,0.9C1360.4,2850.4,1365.7,2801.3,1359.3,2753.6"/>
		<path class="st8" d="M1287.7,2641.2c4.7,7.7,18.4,6.5,11.1-3.7c3.8-0.3-4.7-9.8-7-9.3c-0.9,0.6-1.7,1.4-2.3,2.3
			c0.9,0,1.6,0.5,1.9,1.4c-1.7,0-2.8-1.3-4.7-1.4C1285.6,2632.8,1293.4,2642.2,1287.7,2641.2"/>
		<path class="st8" d="M1092.1,2502.9c-2.5,0.4-5.1,0.3-7.8,0.3c-4.7-0.1-9.5-0.2-13.5,2c2.1-0.1,4.2,0.4,6,1.4
			c-0.5,0.1-1.2,0-2.1-0.1c-1.9-0.2-4.1-0.3-4.9,1c1.3,0.4,2,0.3,2.3,0.2c0.5-0.2,4.2,2.5,3.7,4c12.1,1.6,20.3-4.7,30.7,3.1
			c-0.1,0.6-4.8,3.9-4,4.4c3.5-0.8,4.4-1.3,7.2-0.6c-0.7,0.2-1.3,0.5-1.9,0.9c1.7,0.2,3.3,0.8,4.7,1.9c-0.1,0-4.8,0-4.2,0.5
			c0.9-0.3,1.7-0.1,2.3,0.5c-1,0.1-1.7,0.6-2.3,1.4c0.6-0.1,1,0,1.4,0.5c-0.7,0-1.4,0-2.1,0c-2.2,1,5.9,1.6,9.2,1.3
			c0.2-0.5,0.6-0.6,1.3-0.5c0.2,0.2-0.4,0.4-1.3,0.5c-0.1,0.1-0.1,0.3-0.1,0.5c3.2,1.1,8.5,0.8,10.2,3.2c-1.1-0.2-0.8,0.2-0.6,0.6
			c0.4,0.6,0.8,1.1-2.9-0.1c-3.1-1-8.4-2.9-11.4-0.5c0.8,0.2,1.4,0.7,1.9,1.4c-2.9-0.5-4.8,6.3-4.6,6.5c2.2,2.1,13.8,1,15.8-3.2
			c-1.4-0.7-2.7-1.3-4.2-1.8c2.2,0.4,4.4,0.8,6.5,1.4c-0.6-0.1-1,0-1.4,0.5c0.1,1,1,0.9,1.7,0.8c0.5-0.1,1-0.2,1.1,0.2
			c1.6,5.8-7.7,4.2-10.7,6.1c2.5,0.5-1.6,2.1-2,3.3c-0.9,1.6-0.5,2.3,1.2,1.9c-0.5,0.3-1,0.6-1.5,0.8c1.7,1.9,5.5,0.3,7,1.8
			c-8.3,0-3.1,4.8,3.6,5.8c0,3.5-1.9,4.6,1.6,5.3c-2.9-0.1-2.3,1.6-1,3.2c1.3,1.6,3.2,3.2,3.2,3.2c0.8,2.3-0.1,1.2,2.3,2.8
			c0.8,0.6,4.3,0.5,4.8,1.4c-0.8,2.9-0.6,5.4-0.1,8.8c3.7,1.2,6.2-2.7,7.8,0c0.2,0.4,1.9,1.5,2.4,1.5l0.2-0.2c0,0.1-0.1,0.1-0.2,0.2
			c-3.1,2.9,5.9,2.9,7.1,3.1c0.1,1.3,0.8,1.9,2,2c1.7,0,1.7,0.6-0.2,1.7c3.4,0.3,6.4-0.2,9.8-1c-0.7,0.5-0.9,1.1-0.5,1.9
			c3,0.7,2.3-2.3,2.8-2.3c0.4,0,5,0.4,5.1,0.9c-1.2,0.4-2.2,1.2-2.8,2.3c2.3,0.4,4.7,0.9,7,1.4c-2.9,3.3,1.2,1.8,4.2,3.2
			c1.6-0.7,3.1-0.6,4.6-0.5c1.4,0.1,2.8,0.1,4.3-0.4c0.9-2.8-0.1-2.4-0.7-1.9c-0.6,0.6-0.4,0.3,0,0c0.4-0.4,1-1.1,2.1-2.3
			c-0.8-2.3-3-1.1-1.4-5.8c1.8-5.3-1.7-4-3.7-8.2c1,0,1.9-0.1,2.8-0.5c0.1-1.1-0.4-1.9-1.4-2.3c2.4-0.4,4.7,0.3,6-3.7
			c-1.7-0.9-3.2-2-4.7-3.2c1.2,0.3,2.2,0.1,3.3-0.5c-1-1.2-2.1-2.3-3.3-3.2c1.1,0.2,2.2,0,3.3-0.5c-0.2-1.2-0.8-2.2-1.9-2.8
			c6.1,2.1,10.2,5.4,15.9,5.3c-0.3-0.7-0.6-8.2-0.5-9c1.2,0.9,2.6,1.4,4.2,1.4c0.9-3-1.5-6,1.4-8.4c2,0.8,5.1,2.1,7.2,0.9
			c0,0,4.7-0.5,6.8-1.6C1185,2520.9,1138.8,2506.3,1092.1,2502.9"/>
		<path class="st8" d="M1354.8,2728.8c-0.2-0.2-0.4-0.3-0.8,0.1c0.1,2.2,1,3.9,2,5.5C1355.6,2732.5,1355.2,2730.6,1354.8,2728.8z"/>
		<path class="st8" d="M1349.3,2722.4c-0.3-5.1-0.9-7.4-3.7-9.7c0.8,3.3,0.8,7.3,2.8,10.2C1348.3,2722,1348.6,2721.9,1349.3,2722.4z
			"/>
		<path class="st8" d="M1010.9,2512.2c2.8-0.7,5.5-1.4,8.4-1.4C1017.2,2511.4,1014,2511.7,1010.9,2512.2c-1.8,0.5-3.5,0.9-5.3,1.2
			c-1.5,0.5-2.9,1.1-3.8,2c0.6-0.4,0.4,1-0.2,1.4c1-0.2,3.1-0.4,1.4-1.3c1.6-0.5,9-1.2,10.2,0c-2.3-0.1-16.3,1.1-16.7,4.7
			c2.6-0.2,9.6-2.1,11.6-0.5c-2.5,0.9-24.8,2.3-23.7,8.4c3.8-0.1,8.9-2.4,12.8-3c4.4-0.7,9.2-1.9,13.5-3.2c4.9-1.5,15.5,1,18.8-4.6
			c-4.9-0.2-10.6,2.3-15.3,1c3.9-1,7.9-0.5,11.8-1.6c2.9-0.8,3.1-2.3,6-2.6c2.5-0.2,9.8-2.2,11-4.8c-2.7-0.4-5.8,1.3-8.4,0.5
			c4.8-1.7,10.2-0.2,14.9-2.4c-1,0.3-1.9,0.1-2.8-0.5c3,0.2,20.8-3.8,29.7-4.8c-0.6,0-1.1,0-1.6-0.1c-8.4-0.1-16.7,0.1-25,0.8
			c-7.6,1-15.1,2.5-22.6,4.2c-7.2,1.7-17.5,2.3-23.7,6.5c0.7,0,1.4-0.1,2.1-0.2C1007.2,2512.9,1009,2512.5,1010.9,2512.2z"/>
		<path class="st8" d="M1000.7,2514.6c0.5-0.2,1.1-0.5,1.4-0.9C1001.5,2513.6,999.5,2514.4,1000.7,2514.6z"/>
		<path class="st8" d="M973.4,2525.6c0.4,0,0.8-0.3,1-0.3h0c0.3,0,0.5,0,0.6-0.3c4.7-1.5,10.7-2.7,13.6-2.7c3-2.5,8-4.1,11.4-5.6
			c-0.7,0.3-2.6-0.6-2.6-0.9c0.2-0.2,0.4-0.4,0.6-0.5c-0.5,0.2-1.1,0.4-1.7,0.6c-1.4,0-3.7,1.2-5.1,1.4c0.1,0,0.1,0,0.2,0
			c0.1,0-0.5,0.4-0.4,0.4l0.7-0.4c0.6,0-1.7,0.7-1,0.7c-0.8,0,1.5-0.7,1-0.7c-8.8,2.7-22.2,6.7-21.6,9.7
			C970.9,2526.7,972.1,2526.1,973.4,2525.6z"/>
		<path class="st8" d="M1254.1,2573.5c-0.2-1.7-4.7-5.2-6.2-6.1c-1-0.6-1.1-0.3-1.3,0.1c-0.2,0.4-0.7,0.8-3.3-0.5
			c-1.1-0.5-9-3.3-9.2-2.8c0.7,0.5,0.9,1.1,0.5,1.9c-0.1-0.9-7.3-6.1-9.8-6.5c-0.6,1.1,1.8,1.5,0.9,1.9c-1.6-0.6-4.5-2-4.6,0.5
			c1.6,3.3,7.7,0.4,8.8,4.2c-0.5,0.2-1.3-0.1-2.2-0.3c-1.5-0.4-3-0.7-3.4,0.7c2.4,1.5,6.2,1.2,7.9,3.7c-1.4-0.4-2.2,0-2.3,1.4
			c2.7,0.8,29.2,10.9,28.8,6c0,0-0.5-1-1.3-2.1C1256.7,2574.5,1255.5,2573.3,1254.1,2573.5"/>
		<path class="st8" d="M1030.8,2852.8c-0.1-4.3-4.8-4.3-7.9-4.2c-0.2-1.1,1.5-1.4,0.5-2.3c-3.1-1.5-6.5-2.1-9.8-2.8
			c-0.9-2.4-3.3-3.3-5.4-3.9c-4-1.2-7.5-4.7-11.3-4.6c-5,0.1-8.9-2.2-14.5-0.7c-2.5,0.7-9.6,4.5-7.4,8.4c2.6,0.6,10.3-4.2,13-5.6
			c0.8,4.4,6.3,3.5,10.7,5.5c3.7,1.8,6.6-0.1,8.2,3.6c1.4,3.2,4.3,2.1,7.1,3.8c-0.9,1.6-3.2,1.2-2.8,3.7
			C1017.7,2852.8,1024.3,2853.7,1030.8,2852.8z"/>
		<path class="st8" d="M1010.9,2864c0.4,0.2,9.3,2.1,8.7-0.4C1017.4,2859.3,1002.8,2859.3,1010.9,2864z"/>
		<path class="st8" d="M1036.6,2863.2c1.9,0.5,3.9,0.6,5.9,0.3c0.9,1.6,2.3,2.5,4.2,2.8c1-9,16.1,1.1,16.3-5.6
			c-3.7-4.5-11.6-7.9-16.5-7.4c-2.6,0.2-12-2.2-12.8,1c0,0,5.9,6.2,5.6,6c-3.5,1.6-6.7-2-10.2-0.4
			C1028.2,2865.2,1034.2,2862.8,1036.6,2863.2z"/>
		<path class="st8" d="M1068.3,2862.6c0.2,4.6,10.1,2.1,9.5-0.6C1076.6,2861.9,1068.1,2858.1,1068.3,2862.6z"/>
		<path class="st8" d="M900.6,2565.3c-1.9,0-6.8-0.9-6.9,2.3c3.4,2.8,15.4-1.2,14.4-6.1c-1.4-0.2-2.7-0.8-3.7-1.9
			c-2.5-0.1-4.8,0.6-7,1.9C896.3,2561.7,900.2,2565.1,900.6,2565.3z"/>
		<path class="st8" d="M971,2537c8.9-1,17-5.7,25.8-5.8c2.6,0,6.5-0.6,8.1-3.1c2,2.7,6.1,0.9,8.5,0.3c3.3-0.8,4.4-2.2,7.7-4.1
			c-7.9-2.3-17.4,0.3-24.9,3.2c-3.4,1.3-5.5,0.9-9,2.3c-2.2,0.9-8.2,0-9.8,1.6c1.1-1.9,3.8-1.2,5.1-2.8c-4.3,0.2-8.2,1.6-12.1,3.3
			c-0.1,2,1.8,0.4,1.9,1.4C971.4,2534.9,970.4,2534.7,971,2537z"/>
		<path class="st8" d="M1034.7,2555.9c-4.9-1.6-11.2-0.3-11.1,5.6C1028,2563.3,1035.3,2561.9,1034.7,2555.9z"/>
		<path class="st8" d="M1067.4,2543.2c-2.1,0.3-4.5,1.5-6.6,1c1.8-0.4,3.5-1,5.1-1.9c-0.5-2.1-4-1.9-7.3-1.7c-3,0.2-7.7,2.7-8.1,1.3
			c2.7-0.1-4-7.5-6.5-2.3c-0.4-2.9-2.4-2.3-4.4-1.7c-1.1,0.3-2.2,0.6-3,0.4c1.6-0.4,3-1.2,4.2-2.3c-3.2-2.3-20.3-4.3-20.4,2.4
			c-2-1.4-3.4-0.8-4.8-0.2c-1.2,0.5-2.4,1.1-4,0.2c1.3-1.2,2.4-2.6,3.2-4.2c-5-4.8-13.8-0.6-18.6,2.4c0.9-0.3,1.7-0.1,2.3,0.5
			c-2.1,0-5.6,0-6,2.8c0.8,0.3,1.4,0.7,1.9,1.4c-1.4-0.1-2.4,0.5-2.8,1.9c0.6,1.5,3.4,0.1,3.7,1.9c-1.4,1.4-3.1,1.9-5.1,1.4
			c1.2,0,2.1-0.5,2.8-1.4c-1.5-2.4-4.3-2.5-4.7-5.1c2.2-2.5,5.8-3,7.9-5.6c-5.8,0.7-22.3,5-20,11.7c-1.7,0.2-2.8,1.1-3.2,2.8
			c1.2,0.1,2.4-0.1,3.7-0.2c1.9-0.2,3.8-0.5,5.6,0.2c-1.8,1.5-6.3,0-7,2.8c1.8,2.1,5.7,1.1,7.8,0.4c2.6-0.8,2.5-0.4,3-0.1
			c0.4,0.3,1.3,0.6,4.4,0.3c6.6-0.8,12.8-1.4,19.2-1.2c0.4-2.7,1.8-2.2,3.8-1.8c1.3,0.3,2.8,0.6,4.4,0c4.9-1.9-0.9-2.6-1.2-3.3
			c2-1.3,13.5,4.2,15.3,5.1c-1.6,0.7-3.3,1-5.1,0.9c-0.7,4.1,4.3,1.6,6.3,1c4.2-1.2,3.5,1.3,7.4,2.1c10.3,2.2,1.8,10.3-4.4,11.7
			c-0.1,1.7,4,2.8,3.3,4.2c-5.4,0.5-9.3,1.3-14.6,1.5c-2.5,0.1-8,2.6-7.3,6.4c3.2,0.2,16.1-2,16.3-4.5c0.1-1.4,14,6.2,15.8,7.7
			c-1.1,0.2-1.7,0.8-1.9,1.9c3.9,3,9.9,2.5,13,7c5.5-0.7,10.8,0.9,16.3,1.3c0-7.3-5.2-7.4-14.8-9.6c5.9,1.3,14.2-0.3,15.2,0.4
			c2.7,1.7,2.5,5,5.6,5c0.2-0.7,0.3-4.8,0-5.1c0.6,0.4,1.2,0.5,1.9,0.5c0.9-4.4-2.6-4.3-4.7-7c0.9,0.2,1.3-0.1,1.4-0.9
			c-2.4,0-15.3-7.8-14.4-8.8c1.2,1.1,2.6,1.4,4.2,0.9c0.5-2.3-2.1-1.4-2.3-3.3c4.5-1.7,9.9-2.1,13.4,0.7c2.9,2.3,4,7.8,7.5,7.6
			c0.5-1.4-1.8-3.1-0.5-4.2c1.9-0.2,4.6-1,6.5-0.9c1.4-0.8-1.6-1.6,0-2.3c3.4,0.3,6.2-2.3,1.5-3.9c-3.8-1.3-4.3,0.3-6.2-2.1
			c-2.2,0.1-5.3,1.4-7.4,0c1.4,0.4,2.4,0.1,3.2-0.9c-3.3-5.2-15.9-3.7-21.4-6.9c0.7-0.6,1.4-0.8,2.3-0.5c0.5-1.2-2.4-1.7-1.4-2.3
			c2.4,0.9,4.9,1.2,7.4,0.9c0.3-2.2-1.4-2.2-3.2-2.2c-1.4,0-2.8,0-3.3-1.1C1076.8,2546,1070.5,2542.7,1067.4,2543.2"/>
		<path class="st8" d="M991.5,2585.8c1.9,0,14.6,7.3,14.4,0c-2.4-0.9-4.9-1.2-7.4-0.9c1.3-4.3-5.2-1.4-8.2-2.6
			c-6.6-2.7-0.6-1.9-5.3-2.4c0.1-1.8-0.6-2.9-2.3-3.2c-1.3,2.5-3.5,4.4-4.3,7.2c-1.4,4.9-3.3,3.3-5.4,7.7c2.6,0.4,5.1-2,7.4-1.4
			c-0.3,0.9-0.3,1.9,0,2.8c4-0.2,6.3-3.9,10.2-4.2C991.7,2587.7,989.9,2586,991.5,2585.8z"/>
		<path class="st8" d="M948.3,2566.3c-1.6,0.1-5.7-2.1-7.9-2.3c-1.4,1.4-5.9,4.9-6.5,6.5C939.1,2569.9,944.8,2571.4,948.3,2566.3z"
			/>
		<path class="st8" d="M998,2515.5c0.5-0.2,0.8-0.3,1-0.4C998.7,2515.1,998.3,2515.2,998,2515.5z"/>
		<path class="st8" d="M968.5,2538.3c-3.5-1.3-30.6,3.3-31,6.4C944.9,2543.7,966.3,2550.9,968.5,2538.3z"/>
		<path class="st8" d="M1130.8,2660.5c-0.6,0-1.1,0.1-1.6,0.2c-3.5,0.7-5.5,3.8-7.1,7.1c-1.5,3.3-2.6,6.8-4.4,8.6
			c-0.1,0.1-0.3,0.3-0.5,0.4c-1.3,1.1-1.5,2.4-0.5,3.8c-1.7,0.2-3,1.1-3.9,2.6c-0.2,0.5-0.3,1-0.2,1.4c0.2,1.2,1.5,1.6,3.1,1.8
			c0.5,0,1.1,0.1,1.6,0.1c0.5,0,1,0,1.5,0c0.5,0,1,0,1.3,0c0.2,0,0.3,0,0.5,0c0.3,0,0.7,0,1.3,0c1,0,2.5,0,4-0.1
			c1.6,0,3.3-0.1,4.8-0.1c1.1,0,2.1,0,2.9,0.1c1,0.1,1.6,0.1,1.6,0.3c-0.2,0.1-0.5,0.2-0.7,0.3c-1.6,0.8-2.9,1.9-3.9,3.4
			c0.8,0.4,1.5,0.6,2.1,0.6c1.6,0,2.8-1,3.9-2c0.1-0.1,0.2-0.2,0.3-0.3c1.1-0.9,2.1-1.7,3.5-1.7c0.3,0,0.5,0,0.8,0.1
			c-0.4,4-1.3,3.9,3.3,5.3c0.6,0.2,1.2,0.3,1.6,0.3c1.8,0,1.9-1.7,2.4-3.7c1.3-4.4-4.5-3.7-5.5-4.7c-0.1-1.3,0.7-1.7,1.5-2.1
			c1-0.4,2.1-0.8,1.7-2.6c-0.4-0.2-0.7-0.3-1-0.3c-0.5,0-0.9,0.2-1.4,0.4c-0.4,0.2-0.9,0.4-1.5,0.4c-0.1,0-0.2,0-0.4,0
			c0.1-2.3,3.6-5-0.7-5.9c-0.7-0.2-1.3-0.2-1.9-0.2c-0.8,0-1.5,0.1-2.2,0.2c-0.7,0.1-1.3,0.2-2,0.2c-1.2,0-2.4-0.4-3.9-1.7
			c5.3-1.6-1.3-1.9-3.5-1.9c-0.3,0-0.6,0-0.6,0c1.3-1.8,4.3-5.3,5.7-7.8c0.4-0.8,0.7-1.4,0.8-2
			C1132.7,2660.6,1131.7,2660.5,1130.8,2660.5"/>
	</g>
</g>
</svg>
