<?xml version="1.0" encoding="utf-8"?>
<!-- Generator: Adobe Illustrator 16.0.0, SVG Export Plug-In . SVG Version: 6.00 Build 0)  -->
<!DOCTYPE svg PUBLIC "-//W3C//DTD SVG 1.1//EN" "http://www.w3.org/Graphics/SVG/1.1/DTD/svg11.dtd">
<svg version="1.1" xmlns="http://www.w3.org/2000/svg" xmlns:xlink="http://www.w3.org/1999/xlink" x="0px" y="0px" width="2000px"
	 height="2000px" viewBox="0 0 2000 2000" style="enable-background:new 0 0 2000 2000;" xml:space="preserve">
<style type="text/css">
<![CDATA[
	.st0{fill:#13B0BF;}
	.st1{fill:#E55957;}
	.st2{fill:#E68D87;}
	.st3{fill:#E7EDF7;}
	.st4{opacity:0.61;}
	.st5{fill:#EBFAFD;}
	.st6{fill:#EDBE85;}
	.st7{fill:#539B59;}
	.st8{fill:#5898A1;}
	.st9{fill:#202328;}
	.st10{fill:#263238;}
	.st11{fill:#F4F4F4;}
	.st12{fill:#26A3DB;}
	.st13{fill:#F6F4F4;}
	.st14{fill:#F96262;}
	.st15{fill:#F9F5CD;}
	.st16{fill:#FCFCFC;}
	.st17{fill:#FFFFFF;}
	.st18{fill:#63BC6F;}
	.st19{fill:#CC5050;}
	.st20{fill:#CED5E0;}
	.st21{fill:#333A44;}
	.st22{opacity:0.2;fill:#070707;}
	.st23{fill:#D54638;}
	.st24{fill:#3B4F56;}
	.st25{fill:#3C444F;}
	.st26{fill:#3C7883;}
	.st27{fill:#454547;}
]]>
</style>
<g id="Layer_1">
	<path class="st21" d="M1048.8,904.5l0-339h0.1v-87.6h-0.1c-0.4-15.4-14.7-26.2-32.2-26.2c-17.4,0-31.6,13.8-32.1,26.2h-140v88
		l-80.5,0l0.2,335.7c-3.7,25.6,28.3,31.8,28.3,31.8l300.9,0.1C1061.2,926.1,1048.8,904.5,1048.8,904.5z"/>
	<path class="st12" d="M1172.3,527h-123.7l0.2,380.3c0.6,15.6,19.4,26.2,42.6,26.2c23.1,0,41.1-13.9,41.7-26.5l0.3-350.3
		C1133.5,556.7,1129.8,534.6,1172.3,527z"/>
	<path class="st6" d="M586.1,1324.4l0.8-63.1c0,0-9-116-12.4-180.3c0,0-1.8-26.6,4-48.5c0,0,11.1-53,10.6-56.2
		c0,0,5.9-28.1,6.1-44.3c0,0,2.7-7.8-2.4-24.8c0,0-6.5-21,2.2-30.4c0,0,9.2-9.1,23.7,0.2c0,0,12.6,5.8,21.4,26.4
		c0,0,23.9,54.6,13.9,102.6c0,0,0.6,40.3,2.5,46.2l185.5-277.6c0,0,13.4-13.5,30.7-6c0,0,15.2,5.9,15.6,26.2c0,0,1.7,7.3-14.8,27.3
		l-129.2,196.3L855,1180.1c0,0-13.4,29.9-58.6,62.2c0,0-29.5,23-52.9,27.4l1.2,56.4L586.1,1324.4z"/>
	
		<rect x="643.8" y="1237.1" transform="matrix(-1.667781e-003 1 -1 -1.667781e-003 1999.9637 670.2001)" class="st16" width="43.3" height="192.7"/>
	<path class="st9" d="M654.6,1216.6V713.9c0-21.5,17.6-39.1,39.1-39.1h295.5c21.5,0,39.1,17.6,39.1,39.1v502.7
		c0,21.5-17.6,39.1-39.1,39.1H693.7C672.2,1255.7,654.6,1238.1,654.6,1216.6z"/>
	<rect x="665.8" y="720.8" class="st15" width="353.7" height="480.6"/>
	<circle class="st16" cx="838.2" cy="1229.4" r="14.9"/>
	<g>
		<g>
			<g class="st4">
				<rect x="679.4" y="864.8" class="st21" width="11.4" height="62.7"/>
			</g>
			<g class="st4">
				<rect x="698.8" y="858.4" class="st21" width="11.4" height="69.2"/>
			</g>
			<g class="st4">
				<rect x="718.2" y="854.1" class="st21" width="11.4" height="73.4"/>
			</g>
			<g class="st4">
				<rect x="737.7" y="867.8" class="st21" width="11.4" height="59.8"/>
			</g>
			<g class="st4">
				<rect x="757.1" y="846.3" class="st21" width="11.4" height="81.2"/>
			</g>
			<g class="st4">
				<rect x="776.5" y="870.9" class="st21" width="11.4" height="56.6"/>
			</g>
			<g class="st4">
				<rect x="795.9" y="877.7" class="st21" width="11.4" height="49.9"/>
			</g>
			<g class="st4">
				<rect x="815.4" y="858.4" class="st21" width="11.4" height="69.2"/>
			</g>
			<g class="st4">
				<rect x="834.8" y="834" class="st21" width="11.4" height="93.5"/>
			</g>
			<g class="st4">
				<rect x="854.2" y="867.8" class="st21" width="11.4" height="59.8"/>
			</g>
			<g class="st4">
				<rect x="873.6" y="872.9" class="st21" width="11.4" height="54.7"/>
			</g>
			<g class="st4">
				<rect x="990.9" y="834" class="st21" width="11.4" height="93.5"/>
			</g>
			<g class="st4">
				<rect x="893.1" y="879.7" class="st21" width="11.4" height="47.9"/>
			</g>
			<g class="st4">
				<rect x="912.5" y="860.8" class="st21" width="11.4" height="66.7"/>
			</g>
			<g class="st4">
				<rect x="931.9" y="867.8" class="st21" width="11.4" height="59.8"/>
			</g>
			<g class="st4">
				<rect x="951.4" y="864.8" class="st21" width="11.4" height="62.7"/>
			</g>
			<g class="st4">
				<rect x="970.8" y="854.1" class="st21" width="11.4" height="73.4"/>
			</g>
		</g>
	</g>
	<g>
		<g>
			<g class="st4">
				<path class="st21" d="M940.4,998.4v47H987c-0.2,25.2-20.9,46.1-46.5,46.1c-25.7,0-46.6-20.9-46.6-46.5
					C894,1019.3,914.9,998.4,940.4,998.4z"/>
			</g>
			<g class="st4">
				<path class="st21" d="M946.5,992.3c25.2,0,45.5,20.7,45.5,46.3c0,0.1,0,0.3,0,0.3h-45.6V992.3z"/>
			</g>
		</g>
	</g>
	<g>
		<g>
			<g class="st4">
				<rect x="686.3" y="950.2" class="st21" width="33.8" height="3"/>
			</g>
			<g class="st4">
				<rect x="728.8" y="950.2" class="st21" width="33.8" height="3"/>
			</g>
			<g class="st4">
				<rect x="771.3" y="950.2" class="st21" width="33.8" height="3"/>
			</g>
			<g class="st4">
				<rect x="813.9" y="950.2" class="st21" width="33.8" height="3"/>
			</g>
			<g class="st4">
				<rect x="686.3" y="963" class="st21" width="33.8" height="3"/>
			</g>
			<g class="st4">
				<rect x="728.8" y="963" class="st21" width="33.8" height="3"/>
			</g>
			<g class="st4">
				<rect x="771.3" y="963" class="st21" width="33.8" height="3"/>
			</g>
			<g class="st4">
				<rect x="813.9" y="963" class="st21" width="33.8" height="3"/>
			</g>
			<g class="st4">
				<rect x="728.8" y="974.3" class="st21" width="33.8" height="3"/>
			</g>
			<g class="st4">
				<rect x="771.3" y="974.3" class="st21" width="33.8" height="3"/>
			</g>
			<g class="st4">
				<rect x="813.9" y="974.3" class="st21" width="33.8" height="3"/>
			</g>
			<g class="st4">
				<rect x="856.4" y="974.3" class="st21" width="33.8" height="3"/>
			</g>
			<g class="st4">
				<rect x="728.8" y="985.6" class="st21" width="33.8" height="3"/>
			</g>
			<g class="st4">
				<rect x="771.3" y="985.6" class="st21" width="33.8" height="3"/>
			</g>
			<g class="st4">
				<rect x="813.9" y="985.6" class="st21" width="33.8" height="3"/>
			</g>
			<g class="st4">
				<rect x="856.4" y="985.6" class="st21" width="33.8" height="3"/>
			</g>
			<g class="st4">
				<rect x="728.8" y="996.8" class="st21" width="33.8" height="3"/>
			</g>
			<g class="st4">
				<rect x="771.3" y="996.8" class="st21" width="33.8" height="3"/>
			</g>
			<g class="st4">
				<rect x="813.9" y="996.8" class="st21" width="33.8" height="3"/>
			</g>
			<g class="st4">
				<rect x="856.4" y="996.8" class="st21" width="33.8" height="3"/>
			</g>
			<g class="st4">
				<rect x="728.8" y="1008.1" class="st21" width="33.8" height="3"/>
			</g>
			<g class="st4">
				<rect x="771.3" y="1008.1" class="st21" width="33.8" height="3"/>
			</g>
			<g class="st4">
				<rect x="813.9" y="1008.1" class="st21" width="33.8" height="3"/>
			</g>
			<g class="st4">
				<rect x="856.4" y="1008.1" class="st21" width="33.8" height="3"/>
			</g>
			<g class="st4">
				<rect x="686.4" y="1019.4" class="st21" width="33.8" height="3"/>
			</g>
			<g class="st4">
				<rect x="728.9" y="1019.4" class="st21" width="33.8" height="3"/>
			</g>
			<g class="st4">
				<rect x="771.5" y="1019.4" class="st21" width="33.8" height="3"/>
			</g>
			<g class="st4">
				<rect x="814" y="1019.4" class="st21" width="33.8" height="3"/>
			</g>
			<g class="st4">
				<rect x="686.3" y="1030.6" class="st21" width="33.8" height="3"/>
			</g>
			<g class="st4">
				<rect x="728.9" y="1030.6" class="st21" width="33.8" height="3"/>
			</g>
			<g class="st4">
				<rect x="771.4" y="1030.6" class="st21" width="33.8" height="3"/>
			</g>
			<g class="st4">
				<rect x="813.9" y="1030.6" class="st21" width="33.8" height="3"/>
			</g>
			<g class="st4">
				<rect x="686.2" y="1041.9" class="st21" width="33.8" height="3"/>
			</g>
			<g class="st4">
				<rect x="728.8" y="1041.9" class="st21" width="33.8" height="3"/>
			</g>
			<g class="st4">
				<rect x="771.3" y="1041.9" class="st21" width="33.8" height="3"/>
			</g>
			<g class="st4">
				<rect x="813.8" y="1041.9" class="st21" width="33.8" height="3"/>
			</g>
			<g class="st4">
				<rect x="686.1" y="1053.2" class="st21" width="33.8" height="3"/>
			</g>
			<g class="st4">
				<rect x="728.7" y="1053.2" class="st21" width="33.8" height="3"/>
			</g>
			<g class="st4">
				<rect x="771.2" y="1053.2" class="st21" width="33.8" height="3"/>
			</g>
			<g class="st4">
				<rect x="813.7" y="1053.2" class="st21" width="33.8" height="3"/>
			</g>
			<g class="st4">
				<rect x="686.6" y="1064.9" class="st21" width="33.8" height="3"/>
			</g>
			<g class="st4">
				<rect x="729.1" y="1064.9" class="st21" width="33.8" height="3"/>
			</g>
			<g class="st4">
				<rect x="771.6" y="1064.9" class="st21" width="33.8" height="3"/>
			</g>
			<g class="st4">
				<rect x="814.2" y="1064.9" class="st21" width="33.8" height="3"/>
			</g>
			<g class="st4">
				<rect x="686.6" y="1077.7" class="st21" width="33.8" height="3"/>
			</g>
			<g class="st4">
				<rect x="729.1" y="1077.7" class="st21" width="33.8" height="3"/>
			</g>
			<g class="st4">
				<rect x="771.6" y="1077.7" class="st21" width="33.8" height="3"/>
			</g>
			<g class="st4">
				<rect x="814.2" y="1077.7" class="st21" width="33.8" height="3"/>
			</g>
			<g class="st4">
				<rect x="729.1" y="1089" class="st21" width="33.8" height="3"/>
			</g>
			<g class="st4">
				<rect x="771.6" y="1089" class="st21" width="33.8" height="3"/>
			</g>
			<g class="st4">
				<rect x="814.2" y="1089" class="st21" width="33.8" height="3"/>
			</g>
			<g class="st4">
				<rect x="856.7" y="1089" class="st21" width="33.8" height="3"/>
			</g>
			<g class="st4">
				<rect x="729.1" y="1100.2" class="st21" width="33.8" height="3"/>
			</g>
			<g class="st4">
				<rect x="771.6" y="1100.2" class="st21" width="33.8" height="3"/>
			</g>
			<g class="st4">
				<rect x="814.2" y="1100.2" class="st21" width="33.8" height="3"/>
			</g>
			<g class="st4">
				<rect x="856.7" y="1100.2" class="st21" width="33.8" height="3"/>
			</g>
			<g class="st4">
				<rect x="729.1" y="1111.5" class="st21" width="33.8" height="3"/>
			</g>
			<g class="st4">
				<rect x="771.6" y="1111.5" class="st21" width="33.8" height="3"/>
			</g>
			<g class="st4">
				<rect x="814.2" y="1111.5" class="st21" width="33.8" height="3"/>
			</g>
			<g class="st4">
				<rect x="856.7" y="1111.5" class="st21" width="33.8" height="3"/>
			</g>
			<g class="st4">
				<rect x="729.1" y="1122.8" class="st21" width="33.8" height="3"/>
			</g>
			<g class="st4">
				<rect x="771.6" y="1122.8" class="st21" width="33.8" height="3"/>
			</g>
			<g class="st4">
				<rect x="814.2" y="1122.8" class="st21" width="33.8" height="3"/>
			</g>
			<g class="st4">
				<rect x="856.7" y="1122.8" class="st21" width="33.8" height="3"/>
			</g>
			<g class="st4">
				<rect x="686.7" y="1134" class="st21" width="33.8" height="3"/>
			</g>
			<g class="st4">
				<rect x="729.2" y="1134" class="st21" width="33.8" height="3"/>
			</g>
			<g class="st4">
				<rect x="771.8" y="1134" class="st21" width="33.8" height="3"/>
			</g>
			<g class="st4">
				<rect x="814.3" y="1134" class="st21" width="33.8" height="3"/>
			</g>
			<g class="st4">
				<rect x="686.6" y="1145.3" class="st21" width="33.8" height="3"/>
			</g>
			<g class="st4">
				<rect x="729.1" y="1145.3" class="st21" width="33.8" height="3"/>
			</g>
			<g class="st4">
				<rect x="771.7" y="1145.3" class="st21" width="33.8" height="3"/>
			</g>
			<g class="st4">
				<rect x="814.2" y="1145.3" class="st21" width="33.8" height="3"/>
			</g>
			<g class="st4">
				<rect x="686.5" y="1156.6" class="st21" width="33.8" height="3"/>
			</g>
			<g class="st4">
				<rect x="729" y="1156.6" class="st21" width="33.8" height="3"/>
			</g>
			<g class="st4">
				<rect x="771.6" y="1156.6" class="st21" width="33.8" height="3"/>
			</g>
			<g class="st4">
				<rect x="814.1" y="1156.6" class="st21" width="33.8" height="3"/>
			</g>
			<g class="st4">
				<rect x="686.4" y="1167.8" class="st21" width="33.8" height="3"/>
			</g>
			<g class="st4">
				<rect x="728.9" y="1167.8" class="st21" width="33.8" height="3"/>
			</g>
			<g class="st4">
				<rect x="771.5" y="1167.8" class="st21" width="33.8" height="3"/>
			</g>
			<g class="st4">
				<rect x="814" y="1167.8" class="st21" width="33.8" height="3"/>
			</g>
		</g>
	</g>
	<path class="st6" d="M1117.5,1325.5l-6.2-15.4c0,0-24.1,7.2-50.7-14.9l-131.8-123.9c0,0-7.6-6.8-9.3-11.9c0,0-7.3-16.4,4.5-29.7
		c0,0,12.7-10.9,26.9-3.5c0,0,9.6,2.5,22.5,15.4l28,23.9l12.5,9.6l-50.1-124.2l-44.7-111.6c-2.7-6.7-4.6-13.7-3.8-20.9
		c0-0.2,0.1-0.5,0.1-0.7c1.2-8.2,6.4-15.3,13.8-19.1c5.4-2.8,14.2-4.6,20.6-2.1c0,0,10.8,3,17.1,17.7l30.2,74.7l56.2,142.2
		c0,0-20.1-52.2-20.3-61.6c0,0-0.1-24.4,17.6-29.2c0,0,17.1-7.9,31.3,6.9c0,0,10,5.5,17.6,33.8l11.4,27.5c0,0-19.1-45.7-18.3-50.4
		c0.8-4.7-1-18.5,17-26.6c0,0,16.3-5.8,28.7,7.7c0,0,2.7-0.1,8.6,14.5l12.9,30c0,0-13.3-30.1-12.3-33.3c0,0-0.1-18.2,11.1-22.7
		c0,0,11.2-9.3,23.2-0.4c0,0,9,1.7,15.9,20.8l32.4,89.6c0,0,25.1,76.6,7.8,120.5l6.3,16.2L1117.5,1325.5z"/>
	<path class="st11" d="M960.6,930.5l-25.1,10.2c-2.1,0.9-4.6-0.2-5.4-2.4l-5.3-13.8c0,0-3.5-11.2,9.5-18.5c0,0,11.2-5.7,20.5,2.3
		c0,0,3.5,3.5,6.3,12.4l1.8,4.4C963.7,927.3,962.7,929.7,960.6,930.5z"/>
	<path class="st11" d="M960.8,1157.8l-15.1,18.9c-1.3,1.6-3.8,1.7-5.5,0.2l-11.2-9.7c0,0-8.5-8.2-1.7-19.7c0,0,6.1-9.4,17.6-6.3
		c0,0,4.6,1.6,11.3,8.1l3.7,3C961.6,1153.7,962,1156.2,960.8,1157.8z"/>
	<path class="st12" d="M1015.7,451.6H729.5c0,0-32.1,6.2-28.4,31.9l-0.3,335.8l285.1-0.1l0-338.9C986,480.3,983.6,459,1015.7,451.6z
		"/>
	<path class="st21" d="M1223.5,553.1c-0.6-15.6-20.5-26.2-44.9-26.2c-24.3,0-44.6,13.6-45.3,26.2l-0.1,177.5h90.3L1223.5,553.1z"/>
	<path class="st21" d="M1223.5,823.8l0-248.9h-90.2l-0.1,242.2c-2.3,35.7,39.3,35.5,39.3,35.5l107.5,0.2
		C1235.7,845.2,1223.5,823.8,1223.5,823.8z"/>
	<path class="st12" d="M1333.7,628.8c0,0,0-29.3,54-32.1H1223l0.1,191.8h110.4L1333.7,628.8z"/>
	<path class="st12" d="M1223.2,637.8l0.1,188.7c0.7,15.6,25.4,26.2,55.6,26.2c30.2,0,53.6-14,54.5-26.6l0.2-188.3H1223.2z"/>
	<g>
		<rect x="731.6" y="477.6" class="st17" width="223.7" height="4.3"/>
		<rect x="731.6" y="497.4" class="st17" width="223.7" height="4.3"/>
		<rect x="731.6" y="517.2" class="st17" width="223.7" height="4.3"/>
		<rect x="731.6" y="537.1" class="st17" width="223.7" height="4.3"/>
		<rect x="731.6" y="556.9" class="st17" width="223.7" height="4.3"/>
		<rect x="731.6" y="576.7" class="st17" width="223.7" height="4.3"/>
		<rect x="731.6" y="596.6" class="st17" width="223.7" height="4.3"/>
		<rect x="731.6" y="616.4" class="st17" width="223.7" height="4.3"/>
		<rect x="731.6" y="636.2" class="st17" width="223.7" height="4.3"/>
		<rect x="731.6" y="656.1" class="st17" width="223.7" height="4.3"/>
		<rect x="731.6" y="675.9" class="st17" width="223.7" height="4.3"/>
		<rect x="731.6" y="695.8" class="st17" width="223.7" height="4.3"/>
		<rect x="731.6" y="715.6" class="st17" width="223.7" height="4.3"/>
		<rect x="731.6" y="735.4" class="st17" width="223.7" height="4.3"/>
		<rect x="731.6" y="755.3" class="st17" width="223.7" height="4.3"/>
		<rect x="731.6" y="775.1" class="st17" width="223.7" height="4.3"/>
		<rect x="731.6" y="794.9" class="st17" width="223.7" height="4.3"/>
	</g>
	<g>
		<rect x="1048.8" y="559.1" class="st17" width="55.6" height="4.3"/>
		<rect x="1048.8" y="578.9" class="st17" width="55.6" height="4.3"/>
		<rect x="1048.8" y="598.7" class="st17" width="55.6" height="4.3"/>
		<rect x="1048.8" y="618.6" class="st17" width="55.6" height="4.3"/>
		<rect x="1048.8" y="638.4" class="st17" width="55.6" height="4.3"/>
		<rect x="1048.8" y="658.2" class="st17" width="55.6" height="4.3"/>
		<rect x="1048.8" y="678.1" class="st17" width="55.6" height="4.3"/>
		<rect x="1048.8" y="697.9" class="st17" width="55.6" height="4.3"/>
		<rect x="1048.8" y="717.7" class="st17" width="55.6" height="4.3"/>
		<rect x="1048.8" y="737.6" class="st17" width="55.6" height="4.3"/>
		<rect x="1048.8" y="757.4" class="st17" width="55.6" height="4.3"/>
		<rect x="1048.8" y="777.3" class="st17" width="55.6" height="4.3"/>
		<rect x="1048.8" y="797.1" class="st17" width="55.6" height="4.3"/>
		<rect x="1048.8" y="816.9" class="st17" width="55.6" height="4.3"/>
		<rect x="1048.8" y="836.8" class="st17" width="55.6" height="4.3"/>
		<rect x="1048.8" y="856.6" class="st17" width="55.6" height="4.3"/>
		<rect x="1048.8" y="876.4" class="st17" width="55.6" height="4.3"/>
	</g>
	<g>
		<rect x="1223.1" y="648.4" class="st17" width="84.6" height="4.3"/>
		<rect x="1223.1" y="668.2" class="st17" width="84.6" height="4.3"/>
		<rect x="1223.1" y="688" class="st17" width="84.6" height="4.3"/>
		<rect x="1223.1" y="707.9" class="st17" width="84.6" height="4.3"/>
		<rect x="1223.1" y="727.7" class="st17" width="84.6" height="4.3"/>
		<rect x="1223.1" y="747.5" class="st17" width="84.6" height="4.3"/>
		<rect x="1223.1" y="767.4" class="st17" width="84.6" height="4.3"/>
		<rect x="1223.1" y="787.2" class="st17" width="84.6" height="4.3"/>
	</g>
	
		<rect x="590.9" y="1287.5" transform="matrix(-9.916264e-004 1 -1 -9.916264e-004 2075.8147 744.1802)" class="st25" width="150.7" height="243"/>
	
		<rect x="530" y="1348.2" transform="matrix(-9.917456e-004 1 -1 -9.917456e-004 2014.9375 805.0295)" class="st10" width="150.7" height="121.7"/>
	
		<rect x="1171.9" y="1219.2" transform="matrix(0.3706 0.9288 -0.9288 0.3706 1973.0314 -280.5646)" class="st16" width="43.3" height="192.7"/>
	
		<rect x="1148" y="1261.2" transform="matrix(0.3712 0.9286 -0.9286 0.3712 2052.0732 -265.0144)" class="st25" width="147.4" height="243"/>
	
		<rect x="1091.6" y="1344.4" transform="matrix(0.3712 0.9286 -0.9286 0.3712 2037.6183 -198.3369)" class="st10" width="147.4" height="121.7"/>
</g>
<g id="Layer_2">
	<rect x="543.7" y="1657.8" class="st26" width="40.4" height="12.4"/>
	<polygon class="st26" points="580.7,1629.2 547.2,1629.2 550.4,1660.9 577.9,1660.7 	"/>
	<path class="st12" d="M290.5,1063.9H97.4l-28.5,25.4l2.1-25.4H57.3c-5.9,0-10.7-4.8-10.7-10.7V913.4c0-5.9,4.8-10.7,10.7-10.7
		h233.2c5.9,0,10.7,4.8,10.7,10.7v139.8C301.2,1059.1,296.4,1063.9,290.5,1063.9z"/>
	<path class="st20" d="M205.4,1111h156.8l23.1,20.3l-1.7-20.3h11.1c4.8,0,8.6-3.8,8.6-8.5V990.7c0-4.7-3.9-8.5-8.6-8.5H205.4
		c-4.8,0-8.6,3.8-8.6,8.5v111.8C196.8,1107.2,200.6,1111,205.4,1111z"/>
	<g>
		<path class="st3" d="M196.6,1102.2c0,4.7,3.9,8.5,8.6,8.5H362l23.1,20.3l-1.7-20.3h11.1c4.8,0,8.6-3.8,8.6-8.5v-54.3H196.6V1102.2
			z"/>
	</g>
	<circle class="st0" cx="263.3" cy="1048.1" r="9.6"/>
	<circle class="st0" cx="300.4" cy="1048.1" r="9.6"/>
	<circle class="st0" cx="335.2" cy="1048.1" r="9.6"/>
	<polygon class="st18" points="168.3,463.5 302.4,341.7 436.5,462.3 435.4,628.4 171.8,628.4 	"/>
	<rect x="192" y="401.3" class="st17" width="222.7" height="216.5"/>
	<polygon class="st18" points="168.3,653 436.5,653 341.7,563.8 263.6,563.8 	"/>
	<polygon class="st7" points="168.5,652.9 168.5,468.5 263.8,563.8 	"/>
	<polygon class="st7" points="436.7,652.9 436.7,468.5 341.7,563.8 	"/>
	<circle class="st12" cx="786.4" cy="178.5" r="123.7"/>
	<circle class="st18" cx="1636.8" cy="546.4" r="145.1"/>
	<path class="st10" d="M850.2,173c-0.8,0.5-1.6,0.9-2.6,1.2c-1,0.3-1.3,1.9-0.4,2.7c1.4,1.3,2.2,3,2.5,4.8c0.6,3.4-0.7,6.1-3.2,8.3
		c-1,0.9-2.2,1.6-3.4,2.2c-1.3,0.6-1.6,2.3-0.5,3.2c2.5,2.1,3.2,5.1,1.9,8.2c-1.1,2.6-2.7,4.6-5.2,6c-0.3,0.2-0.7,0.3-1,0.4
		c-0.9,0.3-1.2,0.7-1.3,1.6c-0.1,0.7,0.1,1.2,0.7,1.7c1.3,1.2,2.3,2.6,2.5,4.4c0.2,1.4-0.1,2.7-0.7,4c-0.9,1.9-2.2,3.4-3.8,4.8
		c-0.7,0.6-2.7,1.6-4.2,2.2c-0.8,0.4-3.3,0.9-4.1,1c-36.5,7.4-62.2-2.2-65.5-3.4c-0.7-0.2-3-1.7-3.6-1.7c-0.1,0-0.9-0.2-0.9-0.3
		v-54.7c1.4-1,2.7-1.9,4.1-2.9c0.1-0.1,0.3-0.2,0.4-0.3c0,0,0.1-0.1,0.1-0.1c7.3-9.1,11.9-18.8,17.3-29.1c3.6-6.9,4.5-21.6,4.5-27.2
		c0-2.2,1.7-5.9,6-5.9c1.1,0,3.4,0.1,4.8,0.6c1.6,0.6,3,2.7,4.4,5.5c1.9,3.7,3.1,7.8,4.2,11.8c0.4,1.5,0.8,3.1,1,4.6
		c0.2,1.1,0.2,2.3,0.1,3.5c-0.1,1.3-0.2,2.6-0.3,3.9c-0.3,2.6-0.6,5.2-1.1,7.7c-0.5,2.8-1,5.5-1.6,8.3c0,0,0,0.1,0,0.1
		c0,0.2,0,0.4-0.1,0.7c-0.9,3.5,2.7,5.6,4.8,6.5c0.6,0.2,2.9,0.5,3.5,0.5c11.7,0,31.3-0.1,33.6-0.1c1.6,0,3.2,0,4.7,0
		c2.6,0.1,5.4,1.8,6.3,5.3C855.4,166.9,853.7,170.9,850.2,173z"/>
	<path class="st24" d="M759.2,221.5c0,2.8-2.3,5.1-5.1,5.1h-18.8c-2.8,0-5.1-2.3-5.1-5.1v-62.6c0-2.8,2.3-5.1,5.1-5.1h18.8
		c2.8,0,5.1,2.3,5.1,5.1V221.5z"/>
	<path class="st5" d="M1627.2,520.6l-0.1-50.3h58v149.9h-108.2v-99.6L1627.2,520.6z M1569.2,518v102.1v7.6h7.6H1685h7.6v-7.6V470.3
		v-7.6h-7.6h-59.9L1569.2,518z"/>
	<rect x="1587.8" y="537.9" class="st5" width="83.6" height="6.7"/>
	<rect x="1587.8" y="564.4" class="st5" width="83.6" height="6.7"/>
	<rect x="1587.8" y="591.1" class="st5" width="83.6" height="6.7"/>
	<path class="st12" d="M1933,956l-13-10.2c4.7-9.6,6.7-18.1,7.7-27.3l0.2-0.2l16.5-2.1c3.6-0.4,6.3-3.8,5.9-7.4l-3.4-28.6
		c-0.4-3.7-3.7-6.3-7.4-5.8l-17.4,1.1c-3.3-8.9-5.1-14.7-14.8-25.1l0-0.1l11.4-12.1c2.3-2.9,1.8-6.6-1.1-8.9l-22.3-17.5
		c-2.9-2.3-5.5-0.9-7.7,2l-10.1,13.1c-9.6-4.7-18.3-6.9-27.5-7.9l-0.3-0.3l-2.1-16.5c-0.4-3.6-3.8-6.3-7.5-5.9l-28.6,3.4
		c-3.6,0.4-6.3,3.7-5.8,7.4l1.2,17.3c-8.9,3.3-14.7,5.1-25,14.7l-0.1,0l-12.5-10.8c-2.9-2.3-5.6-2.2-7.8,0.7l-17.7,22.5
		c-2.3,2.9-2.2,6.1,0.7,8.4l13,10.2c-4.7,9.6-6.5,17.9-7.5,27l-0.1,0.1l-16.4,2c-3.6,0.4-6.3,3.8-5.8,7.4l3.4,28.6
		c0.4,3.6,3.7,6.3,7.4,5.8l17-1.5c3.3,8.9,7.4,16.6,14.4,24.7l0,0.1l-10.2,13c-2.3,2.9-3.1,6.4-0.2,8.7l22.6,17.8
		c2.9,2.3,7.4,1.7,9.7-1.2l9.4-13.6c9.6,4.7,17.4,6.1,26,6.7l0,0l2.7,17c0.4,3.6,4.1,6.6,7.8,6.1l28.7-3.3c3.7-0.4,6.3-3.7,5.9-7.3
		l-1.4-17c8.9-3.3,14.4-4.8,24.8-14.4l0.1,0l12.5,10.8c2.9,2.3,7.4,2.8,9.7-0.1l17.7-22.5C1937.8,962.1,1935.9,958.3,1933,956z
		 M1802.3,927.3c-0.2-0.4-0.4-0.8-0.6-1.2c-0.6-1.2-1.1-2.4-1.6-3.7c-0.2-0.6-0.5-1.3-0.7-1.9c-0.2-0.6-0.4-1.3-0.6-1.9
		c-0.1-0.3-0.2-0.6-0.2-1c-0.5-1.9-0.8-3.8-1-5.7s-0.3-3.8-0.2-5.7c0-0.8,0.1-1.5,0.2-2.3c0.2-2.3,0.6-4.6,1.2-6.8
		c1.4-5.3,3.9-10.3,7.5-14.9c7.5-9.6,18.4-14.9,29.6-15.7c1-0.1,2-0.1,3-0.1c0.3,0,0.7,0,1,0c0.7,0,1.3,0,2,0.1c2,0.1,4,0.4,5.9,0.9
		c0.7,0.1,1.3,0.3,2,0.5c5.2,1.4,10.2,3.9,14.7,7.4c5.3,4.2,9.4,9.4,12,15.2c0.3,0.6,0.5,1.2,0.8,1.8c0.4,0.9,0.7,1.9,1,2.8
		c0.2,0.6,0.4,1.3,0.6,1.9c0.1,0.3,0.2,0.6,0.2,1c0.2,0.6,0.3,1.3,0.4,1.9c0.2,1,0.3,2,0.5,2.9c0.1,0.7,0.1,1.3,0.2,2
		c0.1,1.7,0.1,3.3,0.1,5c0,0.7-0.1,1.3-0.1,2c-0.1,0.7-0.1,1.3-0.2,2c-0.1,1-0.3,2-0.5,3c-1.3,5.9-3.9,11.6-7.9,16.6
		c-2.2,2.8-4.7,5.3-7.4,7.3c-0.5,0.4-1.1,0.8-1.7,1.2c-0.8,0.6-1.7,1.1-2.6,1.6c-0.6,0.3-1.2,0.7-1.8,1c-0.4,0.2-0.8,0.4-1.2,0.6
		c-0.8,0.4-1.6,0.7-2.4,1.1c-0.6,0.2-1.2,0.5-1.9,0.7c-0.5,0.2-1,0.3-1.5,0.5c-0.4,0.1-0.9,0.3-1.3,0.4c-0.3,0.1-0.6,0.2-1,0.2
		c-0.6,0.2-1.3,0.3-1.9,0.4c-0.3,0.1-0.7,0.1-1,0.2c-0.7,0.1-1.3,0.2-2,0.3c-0.3,0-0.7,0.1-1,0.1c-1.3,0.1-2.6,0.2-4,0.2
		c-0.3,0-0.7,0-1,0c-0.7,0-1.3,0-2-0.1c-0.7,0-1.3-0.1-2-0.2c-0.3,0-0.7-0.1-1-0.1c-0.7-0.1-1.3-0.2-2-0.3
		c-6.2-1.2-12.3-3.9-17.6-8.1c-4.3-3.4-7.7-7.4-10.3-11.9C1802.8,928.1,1802.5,927.7,1802.3,927.3z"/>
	<path class="st26" d="M1840.9,796.3c3.3,0,6.3,2.5,6.7,5.9l2.1,16.5l0.3,0.3c9.2,1,17.9,3.2,27.5,7.9l10.1-13.1
		c1.5-1.9,3.1-3.1,4.8-3.1c0.9,0,1.9,0.4,2.9,1.1l22.3,17.5c2.9,2.3,3.3,6,1.1,8.9l-11.4,12.1l0,0.1c9.7,10.4,11.4,16.2,14.8,25.1
		l17.4-1.1c0.3,0,0.5,0,0.8,0c3.3,0,6.2,2.5,6.6,5.9l3.4,28.6c0.4,3.6-2.2,7-5.9,7.4l-16.5,2.1l-0.2,0.2c-1,9.2-3,17.7-7.7,27.3
		l13,10.2c2.9,2.3,4.8,6.1,2.6,9l-17.7,22.5c-1.1,1.4-2.7,2-4.4,2c-1.8,0-3.8-0.7-5.3-1.9l-12.5-10.8l-0.1,0
		c-10.4,9.6-15.9,11.1-24.8,14.4l1.4,17c0.4,3.6-2.3,6.9-5.9,7.3l-28.7,3.3c-0.2,0-0.5,0-0.7,0c-3.4,0-6.6-2.8-7-6.2l-2.7-17l0,0
		c-8.6-0.6-16.5-2-26-6.7l-9.4,13.6c-1.3,1.7-3.5,2.6-5.6,2.6c-1.5,0-3-0.4-4.2-1.4l-22.6-17.8c-2.9-2.3-2-5.8,0.2-8.7l10.2-13
		l0-0.1c-6.9-8.1-11-15.8-14.4-24.7l-17,1.5c-0.3,0-0.5,0-0.8,0c-3.3,0-6.2-2.5-6.6-5.9l-3.4-28.6c-0.4-3.7,2.2-7,5.8-7.4l16.4-2
		l0.1-0.1c1-9.2,2.8-17.5,7.5-27l-13-10.2c-2.9-2.3-2.9-5.5-0.7-8.4l17.7-22.5c1.2-1.6,2.6-2.3,4-2.3c1.2,0,2.5,0.5,3.8,1.6
		l12.5,10.8l0.1,0c10.4-9.7,16.1-11.4,25-14.7l-1.2-17.3c-0.4-3.6,2.2-6.9,5.8-7.4l28.6-3.4C1840.4,796.3,1840.6,796.3,1840.9,796.3
		 M1838.9,866.5C1838.9,866.5,1838.9,866.5,1838.9,866.5c-1,0-2,0-3,0.1c-11.2,0.8-22.1,6.2-29.6,15.7c-3.6,4.5-6,9.6-7.5,14.9
		c-0.6,2.3-1,4.5-1.2,6.8c-0.1,0.8-0.1,1.5-0.2,2.3c-0.1,1.9,0,3.8,0.2,5.7s0.5,3.8,1,5.7c0.1,0.3,0.2,0.6,0.2,1
		c0.2,0.6,0.4,1.3,0.6,1.9c0.2,0.6,0.4,1.3,0.7,1.9c0.5,1.2,1,2.5,1.6,3.7c0.2,0.4,0.4,0.8,0.6,1.2c0.2,0.4,0.4,0.8,0.7,1.2
		c2.6,4.5,6,8.5,10.3,11.9c5.3,4.2,11.4,6.9,17.6,8.1c0.7,0.1,1.3,0.2,2,0.3c0.3,0,0.7,0.1,1,0.1c0.7,0.1,1.3,0.1,2,0.2
		s1.3,0.1,2,0.1c0.3,0,0.7,0,1,0c0,0,0,0,0,0c1.3,0,2.6-0.1,4-0.2c0.3,0,0.7-0.1,1-0.1c0.7-0.1,1.3-0.2,2-0.3c0.3-0.1,0.7-0.1,1-0.2
		c0.7-0.1,1.3-0.3,1.9-0.4c0.3-0.1,0.6-0.2,1-0.2c0.5-0.1,0.9-0.3,1.3-0.4c0.5-0.2,1-0.3,1.5-0.5c0.6-0.2,1.3-0.5,1.9-0.7
		c0.8-0.3,1.6-0.7,2.4-1.1c0.4-0.2,0.8-0.4,1.2-0.6c0.6-0.3,1.2-0.6,1.8-1c0.9-0.5,1.7-1.1,2.6-1.6c0.6-0.4,1.1-0.8,1.7-1.2
		c2.7-2.1,5.2-4.5,7.4-7.3c4-5.1,6.6-10.8,7.9-16.6c0.2-1,0.4-2,0.5-3c0.1-0.7,0.2-1.3,0.2-2c0.1-0.7,0.1-1.3,0.1-2
		c0.1-1.7,0.1-3.3-0.1-5c0-0.7-0.1-1.3-0.2-2c-0.1-1-0.3-2-0.5-2.9c-0.1-0.7-0.3-1.3-0.4-1.9c-0.1-0.3-0.2-0.6-0.2-1
		c-0.2-0.6-0.4-1.3-0.6-1.9c-0.3-0.9-0.6-1.9-1-2.8c-0.2-0.6-0.5-1.2-0.8-1.8c-2.7-5.8-6.7-11-12-15.2c-4.5-3.5-9.5-6-14.7-7.4
		c-0.6-0.2-1.3-0.3-2-0.5c-2-0.4-3.9-0.7-5.9-0.9c-0.7,0-1.3-0.1-2-0.1C1839.6,866.5,1839.3,866.5,1838.9,866.5
		C1839,866.5,1838.9,866.5,1838.9,866.5 M1840.9,790.3c-0.5,0-1,0-1.5,0.1l-28.6,3.4c-6.9,0.8-11.8,7-11.1,13.8l0.9,12.8
		c-6.1,2.3-11.5,4.7-18.8,10.8l-8.6-7.5l-0.1-0.1l-0.1-0.1c-2.4-1.9-4.9-2.9-7.5-2.9c-2.3,0-5.7,0.8-8.7,4.6l-17.7,22.5
		c-2.1,2.6-3,5.5-2.9,8.5c0.2,3.2,1.8,6.1,4.5,8.3l9.4,7.3c-3.1,7.4-4.6,14.1-5.5,19.9l-12,1.5c-6.9,0.8-11.8,7.1-11,14l3.4,28.6
		c0.8,6.3,6.1,11.1,12.5,11.1c0.5,0,0.9,0,1.4-0.1l12.5-1.1c2.9,6.9,6.3,12.8,10.6,18.5l-7.3,9.3c-4.7,6-4.4,13,0.8,17l22.6,17.8
		c2.2,1.7,5,2.7,7.8,2.7c4,0,7.8-1.8,10.2-4.9l0.1-0.1l0.1-0.1l6.6-9.6c7.1,2.9,13.2,4.1,18.8,4.8l2,12.4
		c0.8,6.3,6.5,11.3,12.9,11.3c0.5,0,1,0,1.4-0.1l28.7-3.3c3.4-0.4,6.3-2,8.4-4.6c2.1-2.6,3.1-5.9,2.7-9.2l-1-12.4
		c6-2.2,11.3-4.5,18.6-10.5l8.7,7.5l0.1,0.1l0.1,0.1c2.5,2,5.8,3.2,9,3.2c3.7,0,6.9-1.5,9.1-4.3l17.7-22.5c2.3-2.9,2.9-6.7,1.6-10.4
		c-0.9-2.6-2.7-5.1-5.2-6.9l-9.3-7.3c2.7-6.5,4.6-13,5.7-20.4l12.1-1.5c3.3-0.4,6.3-2.1,8.4-4.7c2.1-2.7,3-6,2.6-9.3l-3.4-28.6
		c-0.8-6.3-6.1-11.1-12.5-11.1c-0.4,0-0.9,0-1.3,0.1l-12.8,0.8c-2.3-6.1-4.7-11.5-10.7-18.7l7.7-8.2l0.2-0.2l0.2-0.2
		c2.1-2.6,3-5.9,2.6-9.1c-0.4-3.2-2.1-6.1-4.7-8.2l-22.3-17.5c-2.5-2-5-2.4-6.6-2.4c-3.5,0-6.7,1.8-9.5,5.4l-7.3,9.4
		c-6.6-2.8-13.3-4.7-20.6-5.8l-1.6-12.3C1852.7,795.1,1847.3,790.3,1840.9,790.3L1840.9,790.3L1840.9,790.3L1840.9,790.3z
		 M1838.9,943.3c-0.3,0-0.6,0-0.9,0c-0.6,0-1.1,0-1.7-0.1c-0.6,0-1.1-0.1-1.7-0.2c-0.3,0-0.6-0.1-0.8-0.1c-0.6-0.1-1.1-0.2-1.7-0.3
		c-5.5-1.1-10.6-3.4-15.1-6.9c-3.6-2.8-6.6-6.3-8.8-10.2c-0.2-0.4-0.4-0.7-0.6-1.1c-0.2-0.3-0.3-0.7-0.5-1c-0.5-1-1-2.1-1.4-3.1
		c-0.2-0.5-0.4-1.1-0.6-1.6c-0.2-0.5-0.3-1.1-0.5-1.6c-0.1-0.3-0.1-0.5-0.2-0.8c-0.4-1.6-0.7-3.2-0.8-4.9c-0.2-1.6-0.2-3.3-0.2-4.9
		c0-0.7,0.1-1.3,0.1-2c0.2-2,0.5-3.9,1-5.9c1.2-4.6,3.4-8.9,6.4-12.7c6.2-7.8,15.4-12.7,25.4-13.5c0.8-0.1,1.7-0.1,2.5-0.1
		c0.3,0,0.6,0,0.9,0c0.6,0,1.1,0,1.7,0.1c1.7,0.1,3.4,0.4,5.1,0.7c0.6,0.1,1.1,0.3,1.7,0.4c4.6,1.2,8.8,3.4,12.6,6.3
		c4.5,3.5,7.9,7.9,10.3,13c0.2,0.5,0.5,1.1,0.7,1.6c0.3,0.8,0.6,1.6,0.9,2.4c0.2,0.5,0.3,1.1,0.5,1.6c0.1,0.3,0.1,0.5,0.2,0.8
		c0.1,0.6,0.3,1.1,0.4,1.7c0.2,0.8,0.3,1.7,0.4,2.5c0.1,0.6,0.1,1.1,0.2,1.7c0.1,1.4,0.1,2.8,0,4.3c0,0.6-0.1,1.1-0.1,1.7
		c-0.1,0.6-0.1,1.1-0.2,1.7c-0.1,0.8-0.3,1.7-0.5,2.5c-1.2,5.2-3.4,10-6.8,14.2c-1.9,2.4-4,4.5-6.4,6.3c-0.5,0.4-0.9,0.7-1.4,1
		c-0.7,0.5-1.4,1-2.2,1.4c-0.5,0.3-1,0.6-1.5,0.8c-0.3,0.2-0.7,0.3-1,0.5c-0.7,0.3-1.4,0.7-2.1,0.9c-0.5,0.2-1.1,0.4-1.6,0.6
		c-0.4,0.1-0.8,0.3-1.3,0.4c-0.4,0.1-0.8,0.2-1.2,0.3c-0.3,0.1-0.6,0.1-0.8,0.2c-0.5,0.1-1.1,0.3-1.7,0.4c-0.3,0.1-0.6,0.1-0.8,0.2
		c-0.6,0.1-1.1,0.2-1.7,0.2c-0.3,0-0.6,0.1-0.8,0.1C1841.2,943.3,1840,943.3,1838.9,943.3L1838.9,943.3L1838.9,943.3z"/>
	<path class="st10" d="M1732.2,994.7l-7.3-3.1c1-5,0.9-9.3,0.2-13.7l0.1-0.1l7.4-3c1.6-0.7,2.5-2.5,1.8-4.2l-5.1-12.9
		c-0.7-1.6-2.5-2.5-4.2-1.8l-7.9,2.7c-2.6-3.7-4.2-6.2-10-9.8l0,0l3.8-7c0.7-1.6,0-3.3-1.6-4l-12.6-5.4c-1.6-0.7-2.7,0.2-3.3,1.9
		l-3.1,7.3c-5-1-9.4-0.9-13.8-0.3l-0.2-0.1l-3-7.4c-0.7-1.6-2.6-2.5-4.2-1.8l-12.9,5.1c-1.6,0.7-2.5,2.5-1.8,4.2l2.7,7.9
		c-3.7,2.6-6.2,4.2-9.8,9.9l0,0l-7.2-3.5c-1.6-0.7-2.9-0.3-3.6,1.3l-5.4,12.6c-0.7,1.6-0.3,3.1,1.4,3.8l7.3,3.1
		c-1,5-0.8,9.1-0.1,13.5l0,0l-7.4,3c-1.6,0.7-2.4,2.5-1.8,4.2l5.1,12.9c0.7,1.6,2.5,2.4,4.2,1.8l7.7-2.8c2.6,3.7,5.5,6.8,9.8,9.7
		l0,0l-3.1,7.3c-0.7,1.6-0.7,3.4,1,4.1l12.7,5.5c1.6,0.7,3.7-0.1,4.4-1.8l2.7-7.5c5,1,8.8,0.7,12.9-0.1l0,0l3.4,7.6
		c0.7,1.6,2.7,2.5,4.4,1.9l13-5.1c1.6-0.7,2.5-2.5,1.8-4.1l-2.8-7.7c3.7-2.6,6.1-4,9.8-9.8l0,0l7.2,3.5c1.6,0.7,3.8,0.4,4.5-1.3
		l5.4-12.6C1735.2,996.9,1733.9,995.4,1732.2,994.7z M1667.9,997.5c-0.1-0.2-0.3-0.3-0.4-0.5c-0.4-0.5-0.8-1-1.2-1.5
		c-0.2-0.3-0.4-0.5-0.5-0.8c-0.2-0.3-0.3-0.5-0.5-0.8c-0.1-0.1-0.2-0.3-0.2-0.4c-0.4-0.8-0.8-1.6-1.2-2.5c-0.3-0.9-0.6-1.7-0.8-2.6
		c-0.1-0.4-0.2-0.7-0.2-1.1c-0.2-1.1-0.3-2.2-0.3-3.3c0-2.6,0.5-5.3,1.6-7.8c2.3-5.4,6.7-9.2,11.8-11c0.5-0.2,0.9-0.3,1.4-0.4
		c0.2,0,0.3-0.1,0.5-0.1c0.3-0.1,0.6-0.1,0.9-0.2c0.9-0.2,1.9-0.3,2.9-0.3c0.3,0,0.6,0,1,0c2.6,0,5.2,0.5,7.7,1.6
		c3,1.3,5.5,3.2,7.5,5.6c0.2,0.2,0.4,0.5,0.6,0.8c0.3,0.4,0.6,0.8,0.8,1.2c0.2,0.3,0.3,0.5,0.5,0.8c0.1,0.1,0.2,0.3,0.2,0.4
		c0.2,0.3,0.3,0.6,0.4,0.9c0.2,0.4,0.4,0.9,0.6,1.3c0.1,0.3,0.2,0.6,0.3,0.9c0.3,0.8,0.5,1.5,0.6,2.3c0.1,0.3,0.1,0.6,0.2,0.9
		c0.1,0.3,0.1,0.6,0.1,1c0.1,0.5,0.1,1,0.1,1.4c0.1,2.9-0.4,5.9-1.6,8.7c-0.7,1.6-1.5,3-2.5,4.3c-0.2,0.3-0.4,0.5-0.6,0.8
		c-0.3,0.4-0.6,0.7-1,1.1c-0.2,0.2-0.5,0.5-0.7,0.7c-0.2,0.1-0.3,0.3-0.5,0.4c-0.3,0.3-0.7,0.5-1,0.8c-0.3,0.2-0.5,0.4-0.8,0.6
		c-0.2,0.1-0.4,0.3-0.6,0.4c-0.2,0.1-0.4,0.2-0.6,0.3c-0.1,0.1-0.3,0.2-0.4,0.2c-0.3,0.2-0.6,0.3-0.9,0.4c-0.1,0.1-0.3,0.1-0.4,0.2
		c-0.3,0.1-0.6,0.3-0.9,0.4c-0.1,0.1-0.3,0.1-0.4,0.2c-0.6,0.2-1.2,0.4-1.8,0.6c-0.2,0-0.3,0.1-0.5,0.1c-0.3,0.1-0.6,0.1-0.9,0.2
		c-0.3,0.1-0.6,0.1-0.9,0.2c-0.2,0-0.3,0-0.5,0.1c-0.3,0-0.6,0.1-1,0.1c-3.1,0.2-6.2-0.3-9.2-1.6c-2.4-1-4.5-2.5-6.3-4.3
		C1668.2,997.9,1668,997.7,1667.9,997.5z"/>
	<path class="st10" d="M305.3,784l-6.1-2.6c0.8-4.2,0.7-7.7,0.2-11.4l0.1-0.1l6.2-2.5c1.4-0.5,2-2.1,1.5-3.5l-4.3-10.7
		c-0.5-1.4-2.1-2-3.5-1.5l-6.6,2.2c-2.2-3.1-3.5-5.2-8.3-8.2l0,0l3.2-5.9c0.6-1.4,0-2.7-1.3-3.3l-10.5-4.5c-1.4-0.6-2.2,0.2-2.8,1.6
		l-2.6,6.1c-4.2-0.8-7.8-0.8-11.5-0.2l-0.2-0.1l-2.5-6.2c-0.5-1.4-2.1-2.1-3.5-1.5L242,736c-1.4,0.5-2,2.1-1.5,3.5l2.3,6.6
		c-3.1,2.2-5.2,3.5-8.2,8.3l0,0l-6-2.9c-1.4-0.6-2.4-0.3-3,1.1l-4.5,10.5c-0.6,1.4-0.2,2.6,1.1,3.2l6.1,2.6
		c-0.8,4.2-0.7,7.6-0.1,11.3l0,0l-6.2,2.5c-1.4,0.5-2,2.1-1.5,3.5l4.3,10.7c0.5,1.4,2.1,2,3.5,1.5l6.4-2.3c2.2,3.1,4.6,5.7,8.1,8.1
		l0,0l-2.6,6.1c-0.6,1.4-0.5,2.8,0.8,3.4l10.6,4.6c1.4,0.6,3.1-0.1,3.6-1.5l2.3-6.3c4.2,0.8,7.4,0.6,10.8-0.1l0,0l2.8,6.3
		c0.5,1.4,2.3,2.1,3.7,1.6l10.8-4.2c1.4-0.5,2.1-2.1,1.5-3.5l-2.3-6.5c3.1-2.2,5.1-3.3,8.2-8.2l0,0l6,2.9c1.4,0.6,3.2,0.3,3.8-1
		l4.5-10.5C307.8,785.9,306.6,784.6,305.3,784z M251.6,786.4c-0.1-0.1-0.2-0.3-0.4-0.4c-0.4-0.4-0.7-0.8-1-1.3
		c-0.2-0.2-0.3-0.4-0.4-0.7c-0.1-0.2-0.3-0.5-0.4-0.7c-0.1-0.1-0.1-0.2-0.2-0.3c-0.4-0.7-0.7-1.4-1-2.1c-0.3-0.7-0.5-1.5-0.7-2.2
		c-0.1-0.3-0.1-0.6-0.2-0.9c-0.2-0.9-0.2-1.8-0.2-2.8c0-2.2,0.4-4.4,1.4-6.5c1.9-4.5,5.6-7.7,9.9-9.2c0.4-0.1,0.8-0.2,1.1-0.3
		c0.1,0,0.3-0.1,0.4-0.1c0.3-0.1,0.5-0.1,0.8-0.2c0.8-0.2,1.6-0.2,2.4-0.3c0.3,0,0.5,0,0.8,0c2.2,0,4.4,0.4,6.5,1.4
		c2.5,1.1,4.6,2.7,6.2,4.7c0.2,0.2,0.3,0.4,0.5,0.6c0.2,0.3,0.5,0.7,0.7,1c0.1,0.2,0.3,0.5,0.4,0.7c0.1,0.1,0.1,0.2,0.2,0.3
		c0.1,0.2,0.2,0.5,0.4,0.7c0.2,0.4,0.3,0.7,0.5,1.1c0.1,0.2,0.2,0.5,0.3,0.7c0.2,0.6,0.4,1.3,0.5,1.9c0.1,0.3,0.1,0.5,0.1,0.8
		c0,0.3,0.1,0.5,0.1,0.8c0,0.4,0.1,0.8,0.1,1.2c0.1,2.4-0.3,4.9-1.3,7.3c-0.6,1.3-1.3,2.5-2.1,3.6c-0.2,0.2-0.3,0.4-0.5,0.6
		c-0.3,0.3-0.5,0.6-0.8,0.9c-0.2,0.2-0.4,0.4-0.6,0.6c-0.1,0.1-0.3,0.2-0.4,0.4c-0.3,0.2-0.6,0.5-0.8,0.7c-0.2,0.2-0.4,0.3-0.7,0.5
		c-0.2,0.1-0.4,0.2-0.5,0.3c-0.2,0.1-0.3,0.2-0.5,0.3c-0.1,0.1-0.2,0.1-0.3,0.2c-0.2,0.1-0.5,0.2-0.7,0.4c-0.1,0.1-0.2,0.1-0.4,0.2
		c-0.2,0.1-0.5,0.2-0.7,0.3c-0.1,0-0.2,0.1-0.4,0.1c-0.5,0.2-1,0.3-1.5,0.5c-0.1,0-0.3,0.1-0.4,0.1c-0.3,0.1-0.5,0.1-0.8,0.2
		c-0.3,0.1-0.5,0.1-0.8,0.1c-0.1,0-0.3,0-0.4,0.1c-0.3,0-0.5,0.1-0.8,0.1c-2.5,0.2-5.2-0.2-7.7-1.3c-2-0.9-3.8-2.1-5.2-3.6
		C251.8,786.7,251.7,786.6,251.6,786.4z"/>
	<circle class="st13" cx="1624.5" cy="1368.7" r="142.7"/>
	<path class="st12" d="M1624.5,1517.7c-20.1,0-39.6-3.9-58-11.7c-17.8-7.5-33.7-18.3-47.4-31.9c-13.7-13.7-24.4-29.6-31.9-47.4
		c-7.8-18.4-11.7-37.9-11.7-58c0-20.1,3.9-39.6,11.7-58c7.5-17.8,18.3-33.7,31.9-47.4c13.7-13.7,29.6-24.4,47.4-31.9
		c18.4-7.8,37.9-11.7,58-11.7c20.1,0,39.6,3.9,58,11.7c17.8,7.5,33.7,18.3,47.4,31.9c13.7,13.7,24.4,29.6,31.9,47.4
		c7.8,18.4,11.7,37.9,11.7,58c0,20.1-3.9,39.6-11.7,58c-7.5,17.8-18.3,33.7-31.9,47.4c-13.7,13.7-29.6,24.4-47.4,31.9
		C1664.2,1513.8,1644.7,1517.7,1624.5,1517.7z M1624.5,1232.3c-75.2,0-136.3,61.2-136.3,136.3c0,75.2,61.2,136.3,136.3,136.3
		c75.2,0,136.3-61.2,136.3-136.3C1760.9,1293.5,1699.7,1232.3,1624.5,1232.3z"/>
	<g>
		<g>
			<path class="st27" d="M1624.5,1258.9c-0.7,0-1.2-0.5-1.2-1.2v-20.6c0-0.7,0.5-1.2,1.2-1.2s1.2,0.5,1.2,1.2v20.6
				C1625.7,1258.4,1625.2,1258.9,1624.5,1258.9z"/>
			<g>
				<g>
					<path class="st27" d="M1635.8,1255.4C1635.8,1255.4,1635.8,1255.4,1635.8,1255.4c-0.2,0-0.3-0.2-0.3-0.3c0,0,0,0,0,0l1-10.3
						c0-0.2,0.2-0.3,0.4-0.3c0.2,0,0.3,0.2,0.3,0.3c0,0,0,0,0,0l-1,10.3C1636.1,1255.2,1636,1255.4,1635.8,1255.4z"/>
					<path class="st27" d="M1644.3,1256.5C1644.2,1256.5,1644.2,1256.5,1644.3,1256.5c-0.2,0-0.3-0.2-0.3-0.3c0,0,0,0,0-0.1
						l1.8-10.2c0-0.2,0.2-0.3,0.4-0.3c0.2,0,0.3,0.2,0.3,0.3c0,0,0,0,0,0.1l-0.9,5.1l0,0l-0.9,5.1
						C1644.6,1256.4,1644.4,1256.5,1644.3,1256.5z"/>
					<path class="st27" d="M1652.6,1258.3C1652.6,1258.3,1652.5,1258.3,1652.6,1258.3c-0.2,0-0.3-0.2-0.3-0.3c0,0,0-0.1,0-0.1
						l2.5-10c0-0.2,0.2-0.3,0.4-0.2c0.2,0,0.3,0.2,0.3,0.3c0,0,0,0.1,0,0.1l-1.3,5l0,0l-1.3,5
						C1652.9,1258.2,1652.7,1258.3,1652.6,1258.3z"/>
					<path class="st27" d="M1660.8,1260.7c0,0-0.1,0-0.1,0c-0.1,0-0.2-0.2-0.2-0.3c0,0,0-0.1,0-0.1l3.3-9.8c0.1-0.2,0.2-0.3,0.4-0.2
						c0.1,0,0.2,0.2,0.2,0.3c0,0,0,0.1,0,0.1l-3.3,9.8C1661,1260.6,1660.9,1260.7,1660.8,1260.7z"/>
					<path class="st27" d="M1668.7,1263.7c0,0-0.1,0-0.1,0c-0.1-0.1-0.2-0.2-0.2-0.3c0,0,0-0.1,0-0.1l2-4.8l0,0l2-4.8
						c0.1-0.2,0.3-0.3,0.4-0.2c0.1,0.1,0.2,0.2,0.2,0.3c0,0,0,0.1,0,0.1l-4,9.5C1669,1263.6,1668.9,1263.7,1668.7,1263.7z"/>
				</g>
				<g>
					<path class="st27" d="M1692.3,1277.1c-0.1,0-0.1,0-0.2-0.1c-0.1-0.1-0.1-0.2-0.1-0.3c0-0.1,0-0.1,0.1-0.2l6.1-8.3
						c0.1-0.1,0.3-0.2,0.5-0.1c0.1,0.1,0.1,0.2,0.1,0.3c0,0.1,0,0.1-0.1,0.2l-6.1,8.3C1692.5,1277,1692.4,1277.1,1692.3,1277.1z"/>
					<path class="st27" d="M1699,1282.4c-0.1,0-0.2,0-0.2-0.1c-0.1-0.1-0.1-0.2-0.1-0.3c0-0.1,0-0.2,0.1-0.2l3.4-3.9l0,0l3.4-3.9
						c0.1-0.1,0.3-0.2,0.5,0c0.1,0.1,0.1,0.2,0.1,0.3c0,0.1,0,0.2-0.1,0.2l-6.7,7.8C1699.2,1282.4,1699.1,1282.4,1699,1282.4z"/>
					<path class="st27" d="M1705.2,1288.2c-0.1,0-0.2,0-0.2-0.1c-0.1-0.1-0.1-0.2-0.1-0.2c0-0.1,0-0.2,0.1-0.2l7.3-7.3
						c0.1-0.1,0.3-0.1,0.5,0c0.1,0.1,0.1,0.2,0.1,0.2c0,0.1,0,0.2-0.1,0.2l-7.3,7.3C1705.4,1288.2,1705.3,1288.2,1705.2,1288.2z"/>
					<path class="st27" d="M1711,1294.4c-0.1,0-0.2,0-0.3-0.1c-0.1-0.1-0.1-0.1-0.1-0.2c0-0.1,0-0.2,0.1-0.3l3.9-3.4l0,0l3.9-3.4
						c0.1-0.1,0.4-0.1,0.5,0c0.1,0.1,0.1,0.1,0.1,0.2c0,0.1,0,0.2-0.1,0.3l-7.8,6.8C1711.2,1294.4,1711.1,1294.4,1711,1294.4z"/>
					
						<rect x="1720.2" y="1292.5" transform="matrix(0.596 0.803 -0.803 0.596 1737.0176 -857.2722)" class="st27" width="0.7" height="10.3"/>
				</g>
				<g>
					<path class="st27" d="M1729.8,1324.6c-0.1,0-0.3-0.1-0.3-0.2c0,0,0-0.1,0-0.1c0-0.1,0.1-0.3,0.2-0.3l9.5-4l0.3,0.6l-9.5,4
						C1729.9,1324.6,1729.8,1324.6,1729.8,1324.6z"/>
					<path class="st27" d="M1732.8,1332.6c-0.1,0-0.3-0.1-0.3-0.2c0,0,0-0.1,0-0.1c0-0.1,0.1-0.3,0.2-0.3l9.8-3.3
						c0.2-0.1,0.4,0,0.4,0.2c0,0,0,0.1,0,0.1c0,0.1-0.1,0.3-0.2,0.3l-9.8,3.3C1732.9,1332.6,1732.8,1332.6,1732.8,1332.6z"/>
					<path class="st27" d="M1735.2,1340.8c-0.1,0-0.3-0.1-0.3-0.3c0,0,0-0.1,0-0.1c0-0.1,0.1-0.3,0.3-0.3l5-1.3l0,0l5-1.3
						c0.2,0,0.4,0.1,0.4,0.2c0,0,0,0.1,0,0.1c0,0.1-0.1,0.3-0.3,0.3L1735.2,1340.8C1735.3,1340.8,1735.2,1340.8,1735.2,1340.8z"/>
					<path class="st27" d="M1737,1349.1c-0.2,0-0.3-0.1-0.3-0.3c0,0,0,0,0-0.1c0-0.2,0.1-0.3,0.3-0.3l10.2-1.8
						c0.2,0,0.4,0.1,0.4,0.3c0,0,0,0,0,0.1c0,0.2-0.1,0.3-0.3,0.3l-5.1,0.9l0,0L1737,1349.1C1737,1349.1,1737,1349.1,1737,1349.1z"
						/>
					<path class="st27" d="M1738.2,1357.6c-0.2,0-0.3-0.1-0.3-0.3c0,0,0,0,0,0c0-0.2,0.1-0.3,0.3-0.3l10.3-1c0.2,0,0.3,0.1,0.4,0.3
						c0,0,0,0,0,0c0,0.2-0.1,0.3-0.3,0.3L1738.2,1357.6C1738.2,1357.6,1738.2,1357.6,1738.2,1357.6z"/>
				</g>
				<g>
					<path class="st27" d="M1747.9,1386.1C1747.9,1386.1,1747.9,1386.1,1747.9,1386.1l-10.3-1.4c-0.2,0-0.3-0.2-0.3-0.3c0,0,0,0,0,0
						c0-0.2,0.2-0.3,0.4-0.3l10.2,1.4c0.2,0,0.3,0.2,0.3,0.3c0,0,0,0,0,0C1748.2,1385.9,1748.1,1386.1,1747.9,1386.1z"/>
					<path class="st27" d="M1746.3,1395.2C1746.2,1395.2,1746.2,1395.2,1746.3,1395.2l-10.2-2.2c-0.2,0-0.3-0.2-0.3-0.3
						c0,0,0,0,0-0.1c0-0.2,0.2-0.3,0.4-0.3l10.1,2.2c0.2,0,0.3,0.2,0.3,0.3c0,0,0,0,0,0.1
						C1746.6,1395.1,1746.4,1395.2,1746.3,1395.2z"/>
					<path class="st27" d="M1744,1404.2C1743.9,1404.2,1743.9,1404.2,1744,1404.2l-10-2.9c-0.1,0-0.2-0.2-0.2-0.3c0,0,0-0.1,0-0.1
						c0.1-0.2,0.2-0.3,0.4-0.2l9.9,2.9c0.1,0,0.2,0.2,0.2,0.3c0,0,0,0.1,0,0.1C1744.3,1404.1,1744.1,1404.2,1744,1404.2z"/>
					<path class="st27" d="M1741,1413c0,0-0.1,0-0.1,0l-9.7-3.6c-0.1,0-0.2-0.2-0.2-0.3c0,0,0-0.1,0-0.1c0.1-0.2,0.3-0.3,0.4-0.2
						l9.7,3.6c0.1,0.1,0.2,0.2,0.2,0.3c0,0,0,0.1,0,0.1C1741.3,1413,1741.2,1413,1741,1413z"/>
					<path class="st27" d="M1737.4,1421.6c0,0-0.1,0-0.1,0l-9.4-4.3c-0.1-0.1-0.2-0.2-0.2-0.3c0,0,0-0.1,0-0.1
						c0.1-0.2,0.3-0.2,0.4-0.2l9.4,4.3c0.1,0.1,0.2,0.2,0.2,0.3c0,0,0,0.1,0,0.1C1737.7,1421.5,1737.5,1421.6,1737.4,1421.6z"/>
				</g>
				<g>
					
						<rect x="1712.6" y="1442.8" transform="matrix(0.7822 0.623 -0.623 0.7822 1273.3175 -755.9189)" class="st27" width="10.3" height="0.7"/>
					<path class="st27" d="M1715.8,1453.8c-0.1,0-0.2,0-0.2-0.1l-7.6-7c-0.1-0.1-0.1-0.2-0.1-0.2c0-0.1,0-0.2,0.1-0.2
						c0.1-0.1,0.3-0.1,0.5,0l7.6,7c0.1,0.1,0.1,0.2,0.1,0.2c0,0.1,0,0.2-0.1,0.2C1715.9,1453.7,1715.9,1453.8,1715.8,1453.8z"/>
					<path class="st27" d="M1709.2,1460.3c-0.1,0-0.2,0-0.2-0.1l-7-7.6c-0.1-0.1-0.1-0.1-0.1-0.2c0-0.1,0-0.2,0.1-0.2
						c0.1-0.1,0.3-0.1,0.5,0l7,7.6c0.1,0.1,0.1,0.1,0.1,0.2c0,0.1,0,0.2-0.1,0.2C1709.4,1460.3,1709.3,1460.3,1709.2,1460.3z"/>
					<path class="st27" d="M1702.1,1466.4c-0.1,0-0.2,0-0.3-0.1l-3.2-4l0,0l-3.2-4c0-0.1-0.1-0.1-0.1-0.2c0-0.1,0-0.2,0.1-0.3
						c0.1-0.1,0.4-0.1,0.5,0.1l6.4,8.1c0,0.1,0.1,0.1,0.1,0.2c0,0.1,0,0.2-0.1,0.3C1702.3,1466.4,1702.2,1466.4,1702.1,1466.4z"/>
					<path class="st27" d="M1694.7,1471.9c-0.1,0-0.2-0.1-0.3-0.1l-5.8-8.5c0-0.1-0.1-0.1-0.1-0.2c0-0.1,0.1-0.2,0.1-0.3
						c0.2-0.1,0.4-0.1,0.5,0.1l5.8,8.5c0,0.1,0.1,0.1,0.1,0.2c0,0.1-0.1,0.2-0.1,0.3C1694.8,1471.9,1694.7,1471.9,1694.7,1471.9z"/>
				</g>
				<g>
					<path class="st27" d="M1668.4,1485.5c-0.1,0-0.3-0.1-0.3-0.2l-3.7-9.7c0,0,0-0.1,0-0.1c0-0.1,0.1-0.3,0.2-0.3
						c0.2-0.1,0.4,0,0.4,0.2l3.7,9.7c0,0,0,0.1,0,0.1c0,0.1-0.1,0.3-0.2,0.3C1668.5,1485.5,1668.5,1485.5,1668.4,1485.5z"/>
					<path class="st27" d="M1659.6,1488.5c-0.1,0-0.3-0.1-0.3-0.2l-2.9-9.9c0,0,0-0.1,0-0.1c0-0.1,0.1-0.3,0.2-0.3
						c0.2-0.1,0.4,0,0.4,0.2l2.9,9.9c0,0,0,0.1,0,0.1C1660,1488.3,1659.9,1488.4,1659.6,1488.5
						C1659.7,1488.5,1659.7,1488.5,1659.6,1488.5z"/>
					<path class="st27" d="M1650.6,1490.8c-0.2,0-0.3-0.1-0.3-0.3l-1.1-5l0,0l0,0l0,0l-1.1-5c0,0,0,0,0-0.1c0-0.2,0.1-0.3,0.3-0.3
						c0.2,0,0.4,0.1,0.4,0.3l2.2,10.1c0,0,0,0,0,0.1C1650.9,1490.6,1650.8,1490.7,1650.6,1490.8
						C1650.7,1490.8,1650.6,1490.8,1650.6,1490.8z"/>
					<path class="st27" d="M1641.5,1492.4c-0.2,0-0.3-0.1-0.3-0.3l-0.7-5.1l0,0l-0.7-5.1c0,0,0,0,0,0c0-0.2,0.1-0.3,0.3-0.3
						c0.2,0,0.4,0.1,0.4,0.3l1.4,10.2c0,0,0,0,0,0C1641.8,1492.2,1641.7,1492.3,1641.5,1492.4
						C1641.5,1492.4,1641.5,1492.4,1641.5,1492.4z"/>
					<path class="st27" d="M1632.2,1493.3c-0.2,0-0.3-0.1-0.3-0.3l-0.7-10.3c0,0,0,0,0,0c0-0.2,0.1-0.3,0.3-0.3
						c0.2,0,0.3,0.1,0.4,0.3l0.7,10.3c0,0,0,0,0,0C1632.5,1493.1,1632.4,1493.3,1632.2,1493.3
						C1632.2,1493.3,1632.2,1493.3,1632.2,1493.3z"/>
				</g>
				<g>
					<path class="st27" d="M1607.6,1492.4C1607.6,1492.4,1607.6,1492.4,1607.6,1492.4c-0.2,0-0.3-0.2-0.3-0.3c0,0,0,0,0,0l1.4-10.2
						c0-0.2,0.2-0.3,0.4-0.3c0.2,0,0.3,0.2,0.3,0.3c0,0,0,0,0,0l-0.7,5.1l0,0l-0.7,5.1C1607.9,1492.3,1607.8,1492.4,1607.6,1492.4z"
						/>
					<path class="st27" d="M1598.5,1490.8C1598.5,1490.8,1598.4,1490.8,1598.5,1490.8c-0.2,0-0.3-0.2-0.3-0.3c0,0,0,0,0-0.1
						l2.1-10.1c0-0.2,0.2-0.3,0.4-0.3c0.2,0,0.3,0.2,0.3,0.3c0,0,0,0,0,0.1l-2.1,10.1C1598.8,1490.7,1598.6,1490.8,1598.5,1490.8z"
						/>
					<path class="st27" d="M1589.5,1488.5C1589.4,1488.5,1589.4,1488.5,1589.5,1488.5c-0.2-0.1-0.3-0.2-0.3-0.3c0,0,0-0.1,0-0.1
						l2.9-9.9c0.1-0.2,0.2-0.3,0.4-0.2c0.1,0,0.2,0.2,0.2,0.3c0,0,0,0.1,0,0.1l-1.4,5l0,0l-1.4,5
						C1589.8,1488.4,1589.6,1488.5,1589.5,1488.5z"/>
					<path class="st27" d="M1581,1485.3l-0.6-0.2l1.8-4.8l0,0l1.8-4.8c0.1-0.2,0.3-0.3,0.4-0.2c0.1,0,0.2,0.2,0.2,0.3
						c0,0,0,0.1,0,0.1L1581,1485.3z"/>
					<path class="st27" d="M1572.1,1481.9c0,0-0.1,0-0.1,0c-0.1-0.1-0.2-0.2-0.2-0.3c0,0,0-0.1,0-0.1l4.3-9.4
						c0.1-0.2,0.3-0.2,0.4-0.2c0.1,0.1,0.2,0.2,0.2,0.3c0,0,0,0.1,0,0.1l-4.3,9.4C1572.3,1481.9,1572.2,1481.9,1572.1,1481.9z"/>
				</g>
				<g>
					<path class="st27" d="M1548.2,1467.4c-0.1,0-0.1,0-0.2-0.1c-0.1-0.1-0.1-0.2-0.1-0.3c0-0.1,0-0.1,0.1-0.2l6.3-8.2l0.5,0.4
						l-6.3,8.2C1548.4,1467.4,1548.3,1467.4,1548.2,1467.4z"/>
					<path class="st27" d="M1541.1,1461.4c-0.1,0-0.2,0-0.2-0.1c-0.1-0.1-0.1-0.2-0.1-0.3c0-0.1,0-0.2,0.1-0.2l6.9-7.7
						c0.1-0.1,0.3-0.1,0.5,0c0.1,0.1,0.1,0.2,0.1,0.3c0,0.1,0,0.2-0.1,0.2l-6.9,7.7C1541.3,1461.4,1541.2,1461.4,1541.1,1461.4z"/>
					<path class="st27" d="M1534.4,1455c-0.1,0-0.2,0-0.2-0.1c-0.1-0.1-0.1-0.1-0.1-0.2c0-0.1,0-0.2,0.1-0.2l7.5-7.1l0.5,0.5
						l-3.7,3.6l0,0l-3.7,3.6C1534.6,1454.9,1534.5,1455,1534.4,1455z"/>
					<path class="st27" d="M1528.3,1448c-0.1,0-0.2,0-0.3-0.1c-0.1-0.1-0.1-0.1-0.1-0.2c0-0.1,0-0.2,0.1-0.3l8-6.6
						c0.1-0.1,0.4-0.1,0.5,0c0.1,0.1,0.1,0.1,0.1,0.2c0,0.1,0,0.2-0.1,0.3l-8,6.6C1528.4,1448,1528.4,1448,1528.3,1448z"/>
					<path class="st27" d="M1522.7,1440.6c-0.1,0-0.2,0-0.3-0.1c0-0.1-0.1-0.1-0.1-0.2c0-0.1,0-0.2,0.1-0.3l4.2-3l0,0l4.2-3
						c0.2-0.1,0.4-0.1,0.5,0.1c0,0.1,0.1,0.1,0.1,0.2c0,0.1-0.1,0.2-0.1,0.3l-8.4,5.9C1522.8,1440.6,1522.7,1440.6,1522.7,1440.6z"
						/>
				</g>
				<g>
					<path class="st27" d="M1509.3,1416.1c-0.1,0-0.3-0.1-0.3-0.2c0,0,0-0.1,0-0.1c0-0.1,0.1-0.3,0.2-0.3l4.8-2l0,0l4.8-2
						c0.2-0.1,0.4,0,0.4,0.2c0,0,0,0.1,0,0.1c0,0.1-0.1,0.3-0.2,0.3l-9.5,3.9C1509.3,1416.1,1509.3,1416.1,1509.3,1416.1z"/>
					<path class="st27" d="M1506.1,1407.4c-0.1,0-0.3-0.1-0.3-0.2c0,0,0-0.1,0-0.1c0-0.1,0.1-0.3,0.2-0.3l4.9-1.6l0,0l4.9-1.6
						c0.2-0.1,0.4,0,0.4,0.2c0,0,0,0.1,0,0.1c0,0.1-0.1,0.3-0.2,0.3l-9.8,3.2C1506.1,1407.4,1506.1,1407.4,1506.1,1407.4z"/>
					<path class="st27" d="M1503.5,1398.4c-0.2,0-0.3-0.1-0.3-0.3c0,0,0-0.1,0-0.1c0-0.2,0.1-0.3,0.3-0.3l5-1.2v0l5-1.2
						c0.2,0,0.4,0.1,0.4,0.2c0,0,0,0.1,0,0.1c0,0.2-0.1,0.3-0.3,0.3L1503.5,1398.4C1503.6,1398.4,1503.6,1398.4,1503.5,1398.4z"/>
					<path class="st27" d="M1501.7,1389.3c-0.2,0-0.3-0.1-0.3-0.3c0,0,0,0,0-0.1c0-0.2,0.1-0.3,0.3-0.3l10.2-1.7
						c0.2,0,0.4,0.1,0.4,0.3c0,0,0,0,0,0.1c0,0.2-0.1,0.3-0.3,0.3l-5.1,0.8l0,0L1501.7,1389.3
						C1501.7,1389.3,1501.7,1389.3,1501.7,1389.3z"/>
					<path class="st27" d="M1500.5,1380.1c-0.2,0-0.3-0.1-0.3-0.3c0,0,0,0,0,0c0-0.2,0.1-0.3,0.3-0.3l10.3-0.9
						c0.2,0,0.3,0.1,0.4,0.3c0,0,0,0,0,0c0,0.2-0.1,0.3-0.3,0.3L1500.5,1380.1C1500.5,1380.1,1500.5,1380.1,1500.5,1380.1z"/>
				</g>
				<g>
					<path class="st27" d="M1511.4,1353.5C1511.4,1353.5,1511.4,1353.5,1511.4,1353.5l-10.3-1.4c-0.2,0-0.3-0.2-0.3-0.3c0,0,0,0,0,0
						c0-0.2,0.2-0.3,0.4-0.3l10.2,1.4c0.2,0,0.3,0.2,0.3,0.3c0,0,0,0,0,0C1511.7,1353.4,1511.6,1353.5,1511.4,1353.5z"/>
					<path class="st27" d="M1512.8,1345.1l-5-1.1l0,0l-5-1.1c-0.2,0-0.3-0.2-0.3-0.3c0,0,0,0,0-0.1c0-0.2,0.2-0.3,0.4-0.3l10.1,2.1
						L1512.8,1345.1z"/>
					<path class="st27" d="M1514.9,1336.9l-5-1.4l0,0l-5-1.4c-0.1,0-0.2-0.2-0.2-0.3c0,0,0-0.1,0-0.1c0.1-0.2,0.2-0.3,0.4-0.2
						l9.9,2.9L1514.9,1336.9z"/>
					<path class="st27" d="M1517.6,1328.8c0,0-0.1,0-0.1,0l-9.7-3.6c-0.1-0.1-0.2-0.2-0.2-0.3c0,0,0-0.1,0-0.1
						c0.1-0.2,0.3-0.3,0.4-0.2l4.8,1.8l0,0l4.8,1.8c0.1,0.1,0.2,0.2,0.2,0.3c0,0,0,0.1,0,0.1
						C1517.9,1328.7,1517.8,1328.8,1517.6,1328.8z"/>
					<path class="st27" d="M1520.9,1320.9c0,0-0.1,0-0.1,0l-4.7-2.2l0,0l-4.7-2.2l0.3-0.6l9.4,4.3c0.1,0.1,0.2,0.2,0.2,0.3
						c0,0,0,0.1,0,0.1C1521.2,1320.9,1521.1,1320.9,1520.9,1320.9z"/>
				</g>
				<g>
					<path class="st27" d="M1534.3,1299c-0.1,0-0.1,0-0.2-0.1l-8.2-6.3c-0.1-0.1-0.1-0.2-0.1-0.3c0-0.1,0-0.1,0.1-0.2
						c0.1-0.1,0.3-0.2,0.5-0.1l8.2,6.3c0.1,0.1,0.1,0.2,0.1,0.3c0,0.1,0,0.1-0.1,0.2C1534.5,1299,1534.4,1299,1534.3,1299z"/>
					<path class="st27" d="M1539.7,1292.5c-0.1,0-0.2,0-0.2-0.1l-7.7-6.9c-0.1-0.1-0.1-0.2-0.1-0.2c0-0.1,0-0.2,0.1-0.2
						c0.1-0.1,0.3-0.1,0.5,0l3.8,3.5l0,0l3.8,3.5c0.1,0.1,0.1,0.2,0.1,0.2c0,0.1,0,0.2-0.1,0.2
						C1539.9,1292.5,1539.8,1292.5,1539.7,1292.5z"/>
					<path class="st27" d="M1545.7,1286.4c-0.1,0-0.2,0-0.2-0.1l-3.6-3.7l0,0l-3.6-3.7c-0.1-0.1-0.1-0.1-0.1-0.2
						c0-0.1,0-0.2,0.1-0.2c0.1-0.1,0.3-0.1,0.5,0l7.1,7.5c0.1,0.1,0.1,0.1,0.1,0.2c0,0.1,0,0.2-0.1,0.2
						C1545.8,1286.4,1545.8,1286.4,1545.7,1286.4z"/>
					<path class="st27" d="M1552.1,1280.8c-0.1,0-0.2,0-0.3-0.1l-6.6-8c-0.1-0.1-0.1-0.1-0.1-0.2c0-0.1,0-0.2,0.1-0.3
						c0.1-0.1,0.4-0.1,0.5,0l6.6,8c0.1,0.1,0.1,0.1,0.1,0.2c0,0.1,0,0.2-0.1,0.3C1552.2,1280.7,1552.1,1280.8,1552.1,1280.8z"/>
					<path class="st27" d="M1558.8,1275.6c-0.1,0-0.2,0-0.3-0.1l-3-4.2l0,0l-3-4.2c0-0.1-0.1-0.1-0.1-0.2c0-0.1,0.1-0.2,0.1-0.3
						c0.2-0.1,0.4-0.1,0.5,0.1l6,8.4c0,0.1,0.1,0.1,0.1,0.2c0,0.1-0.1,0.2-0.1,0.3C1559,1275.6,1558.9,1275.6,1558.8,1275.6z"/>
				</g>
				<g>
					<path class="st27" d="M1581.3,1263.3c-0.1,0-0.3-0.1-0.3-0.2l-3.9-9.5c0,0,0-0.1,0-0.1c0-0.1,0.1-0.3,0.2-0.3
						c0.2-0.1,0.4,0,0.4,0.2l2,4.8l0,0l2,4.8c0,0,0,0.1,0,0.1c0,0.1-0.1,0.3-0.2,0.3C1581.4,1263.3,1581.4,1263.3,1581.3,1263.3z"/>
					<path class="st27" d="M1589.3,1260.4c-0.1,0-0.3-0.1-0.3-0.2l-3.2-9.8c0,0,0-0.1,0-0.1c0-0.1,0.1-0.3,0.2-0.3
						c0.2-0.1,0.4,0,0.4,0.2l1.6,4.9l0,0l1.6,4.9c0,0,0,0.1,0,0.1c0,0.1-0.1,0.3-0.2,0.3C1589.4,1260.4,1589.4,1260.4,1589.3,1260.4
						z"/>
					
						<rect x="1591.1" y="1252.4" transform="matrix(0.2379 0.9713 -0.9713 0.2379 2433.1748 -595.8302)" class="st27" width="10.3" height="0.7"/>
					<path class="st27" d="M1605.9,1256.3c-0.2,0-0.3-0.1-0.3-0.3l-0.9-5.1l0,0l-0.8-5.1c0,0,0,0,0-0.1c0-0.2,0.1-0.3,0.3-0.3
						c0.2,0,0.4,0.1,0.4,0.3l1.7,10.2c0,0,0,0,0,0.1C1606.2,1256.2,1606.1,1256.3,1605.9,1256.3
						C1605.9,1256.3,1605.9,1256.3,1605.9,1256.3z"/>
					<path class="st27" d="M1614.3,1255.3c-0.2,0-0.3-0.1-0.3-0.3l-0.5-5.1l0,0l-0.5-5.1c0,0,0,0,0,0c0-0.2,0.1-0.3,0.3-0.3
						c0.2,0,0.3,0.1,0.4,0.3l0.5,5.1l0,0l0.5,5.1c0,0,0,0,0,0C1614.7,1255.1,1614.5,1255.2,1614.3,1255.3
						C1614.3,1255.3,1614.3,1255.3,1614.3,1255.3z"/>
				</g>
			</g>
			<path class="st27" d="M1680.2,1273.9c-0.2,0-0.4-0.1-0.6-0.2c-0.4-0.2-0.6-0.6-0.6-1c0-0.2,0.1-0.4,0.2-0.6l5.2-8.9l0,0l5.2-8.9
				c0.3-0.6,1-0.8,1.6-0.4c0.4,0.2,0.6,0.6,0.6,1c0,0.2-0.1,0.4-0.2,0.6l-10.3,17.8C1681.1,1273.7,1680.7,1273.9,1680.2,1273.9z"/>
			
				<rect x="1728.6" y="1298.3" transform="matrix(0.4958 0.8684 -0.8684 0.4958 2008.4927 -842.4871)" class="st27" width="2.4" height="20.6"/>
			<path class="st27" d="M1756.1,1370.8C1756.1,1370.8,1756.1,1370.8,1756.1,1370.8l-20.6-0.1c-0.6,0-1.2-0.5-1.2-1.2c0,0,0,0,0,0
				c0-0.6,0.5-1.2,1.2-1.2c0,0,0,0,0,0l20.6,0.1c0.6,0,1.2,0.5,1.2,1.2c0,0,0,0,0,0C1757.2,1370.3,1756.7,1370.8,1756.1,1370.8z"/>
			<path class="st27" d="M1737.8,1436.7c-0.2,0-0.4-0.1-0.6-0.2l-17.7-10.4c-0.4-0.2-0.6-0.6-0.6-1c0-0.2,0.1-0.4,0.2-0.6
				c0.3-0.6,1.1-0.7,1.6-0.4l17.7,10.4c0.4,0.2,0.6,0.6,0.6,1c0,0.2-0.1,0.4-0.2,0.6C1738.6,1436.5,1738.2,1436.7,1737.8,1436.7z"/>
			<path class="st27" d="M1687.9,1483.9l-10.1-17.9c-0.1-0.2-0.2-0.4-0.2-0.6c0-0.4,0.2-0.8,0.6-1c0.6-0.3,1.3-0.1,1.6,0.5
				l10.1,17.9L1687.9,1483.9z"/>
			<path class="st27" d="M1622.7,1501.4C1622.7,1501.4,1622.7,1501.4,1622.7,1501.4c-0.7,0-1.2-0.5-1.2-1.2c0,0,0,0,0,0l0.3-20.6
				c0-0.6,0.5-1.2,1.2-1.2c0,0,0,0,0,0c0.6,0,1.2,0.5,1.2,1.2c0,0,0,0,0,0l-0.3,20.6C1623.9,1500.8,1623.3,1501.4,1622.7,1501.4z"/>
			<path class="st27" d="M1556.9,1482.7c-0.2,0-0.4-0.1-0.6-0.2c-0.4-0.2-0.6-0.6-0.6-1c0-0.2,0.1-0.4,0.2-0.6l10.6-17.6l2,1.2
				l-10.6,17.6C1557.7,1482.5,1557.3,1482.7,1556.9,1482.7z"/>
			<path class="st27" d="M1509.4,1433.5c-0.4,0-0.8-0.2-1-0.6c-0.1-0.2-0.1-0.4-0.1-0.6c0-0.4,0.2-0.8,0.6-1l18-9.9
				c0.6-0.3,1.3-0.1,1.6,0.5c0.1,0.2,0.1,0.4,0.1,0.6c0,0.4-0.2,0.8-0.6,1l-18,9.9C1509.8,1433.4,1509.6,1433.5,1509.4,1433.5z"/>
			<path class="st27" d="M1513.6,1367.5C1513.6,1367.5,1513.6,1367.5,1513.6,1367.5l-20.6-0.4c-0.6,0-1.2-0.5-1.2-1.2c0,0,0,0,0,0
				c0-0.7,0.5-1.2,1.2-1.2l20.5,0.4c0.6,0,1.2,0.5,1.2,1.2c0,0,0,0,0,0C1514.8,1367,1514.2,1367.5,1513.6,1367.5z"/>
			
				<rect x="1510.7" y="1304.4" transform="matrix(0.854 0.5202 -0.5202 0.854 901.1667 -600.6602)" class="st27" width="20.6" height="2.4"/>
			<path class="st27" d="M1571.6,1272.3c-0.4,0-0.8-0.2-1-0.6l-9.8-18.1c-0.1-0.2-0.1-0.4-0.1-0.6c0-0.4,0.2-0.8,0.6-1
				c0.6-0.3,1.3-0.1,1.6,0.5l4.9,9l0,0l4.9,9c0.1,0.2,0.1,0.4,0.1,0.6c0,0.4-0.2,0.8-0.6,1
				C1571.9,1272.3,1571.7,1272.3,1571.6,1272.3z"/>
		</g>
	</g>
	<path class="st10" d="M1686.1,1411.3c-0.8,0-1.6-0.2-2.3-0.6l-57.9-35c-2.1-1.3-2.8-4-1.5-6.2c1.3-2.1,4-2.8,6.2-1.5l57.9,35
		c2.1,1.3,2.8,4,1.5,6.2C1689.1,1410.5,1687.6,1411.3,1686.1,1411.3z"/>
	<path class="st10" d="M1540.6,1420.3c-1.1,0-2.3-0.6-2.9-1.7c-0.9-1.6-0.4-3.6,1.2-4.5l81.2-46.4c1.6-0.9,3.6-0.4,4.5,1.2
		s0.4,3.6-1.2,4.5l-81.2,46.4C1541.7,1420.2,1541.1,1420.3,1540.6,1420.3z"/>
	<path class="st10" d="M1624.4,1369.5c-0.6-0.2-1-0.6-1.1-1.2l-23.6-101c-0.2-0.9,0.3-1.8,1.2-2c0.9-0.2,1.8,0.3,2,1.2l23.6,101
		c0.2,0.9-0.3,1.8-1.2,2C1624.9,1369.5,1624.6,1369.5,1624.4,1369.5z"/>
	<circle class="st23" cx="1624.5" cy="1368.7" r="7.4"/>
	<path class="st12" d="M1531.8,1596.8l0,130.2c0,9.5-7.8,17.3-17.3,17.3l-120.4,0l-84.3,0c-5.9,0-11.2-3-14.3-7.6
		c-1.9-2.8-3-6.1-3-9.6l0-130.2c0-9.5,7.8-17.3,17.3-17.3l204.7,0C1524.1,1579.5,1531.8,1587.3,1531.8,1596.8z"/>
	<rect x="1329.1" y="1661.9" class="st10" width="102.2" height="14.7"/>
	<rect x="1329" y="1689.1" class="st10" width="102.2" height="3.9"/>
	<rect x="1329" y="1700.3" class="st10" width="102.2" height="3.9"/>
	<rect x="1292.5" y="1607.8" class="st10" width="239.3" height="41"/>
	<rect x="1118.2" y="117.3" class="st27" width="309.1" height="232.4"/>
	<rect x="1125.2" y="139.8" class="st1" width="294.8" height="179"/>
	<circle class="st17" cx="1274.5" cy="227.3" r="74.8"/>
	<rect x="1124.7" y="327.3" class="st13" width="5.7" height="15.9"/>
	<rect x="1133.1" y="327.3" class="st13" width="5.7" height="15.9"/>
	<rect x="1142" y="332.4" class="st13" width="275.4" height="5.5"/>
	<rect x="1341.7" y="327.4" class="st13" width="7.1" height="16.3"/>
	<polygon class="st18" points="1321.9,229.3 1251.9,269.7 1251.9,188.8 	"/>
	<rect x="431.5" y="1663.9" class="st10" width="251.9" height="153"/>
	<rect x="431.5" y="1683.6" class="st12" width="251.9" height="115.9"/>
	<rect x="441.2" y="1652.9" class="st26" width="24.4" height="11"/>
	<rect x="643.6" y="1693.1" class="st16" width="24.9" height="12.6"/>
	<path class="st16" d="M444.8,1784.8L444.8,1784.8c-3.4,0-6.1-2.7-6.1-6.1v-74.3c0-3.4,2.7-6.1,6.1-6.1l0,0c3.4,0,6.1,2.7,6.1,6.1
		v74.3C450.9,1782.1,448.1,1784.8,444.8,1784.8z"/>
	<circle class="st2" cx="557.5" cy="1741.6" r="63.5"/>
	<circle class="st16" cx="557.5" cy="1741.6" r="40.5"/>
	<circle class="st8" cx="536" cy="1723.7" r="9.9"/>
	<circle class="st8" cx="526" cy="1738.6" r="5.8"/>
	<path class="st10" d="M352.1,1497.1c-54.1,59.7-146.3,64.3-206,10.2c-59.7-54.1-64.3-146.3-10.2-206c54.1-59.7,146.3-64.3,206-10.2
		C401.6,1345.1,406.2,1437.4,352.1,1497.1"/>
	<g>
		<path class="st17" d="M199.4,1449.6c0.2-1.3,1.7-6.8,0.6-7.6c-2-1.5-2.9-3.2-6.4-3.1c-2.6,0.1-4.6,0.3-7.2,0
			c2.3-4.6,1.5-8.4,4.2-12.9c2.2-3.5-6.8-1.9-8-1.6c-2,0.6-1.6,1.6-1.9,3.5c-0.2,1.3-2.1,2.7-1.9,3.8c-0.9-0.2-1.9-0.1-3,0
			c-1.5,0.1-3,0.3-4-0.5c-1.7-1.4-3,0.7-4.2-1.6c-0.8-1.4-0.7-3.7-1.5-5c-1.9-3-2.6-9-0.6-12c1.8-2.6-1.1-5.3,1.7-7.5
			c1.2-1,2.7-4.7,2.7-6.7c2.4-0.2,6.8,2.4,8.9,2.5c0.6,1.3,3.7,2.8,4,0.7c0.7,0.6,1.4,1.7,2.6,0.9c-0.1-0.7-0.5-1.2-1.2-1.4
			c0.4-0.7,0.5-1.4,0.2-2.1c1.5-0.9,3,0.4,4,0.5c1.1-0.5,2.1-0.3,3.1-0.1c0.8,0.2,2.7-1,3.4-1.3c-0.3,1.8,0.7,3.1,1.7,2.3
			c1.8-1.3,2.2,0.6,3.5,1.9c1.9,1.8-0.5,5.8,3.1,7.8c-0.3,1.6,2.1,5.7,2.9,5.6c6.4-0.8-2.1-15.1-1.1-18.9c0.7-2.6,1.8-3.7,3.9-4.9
			c1.9-1-0.2-5.4,1.8-6c2-0.7,5,0.4,6.9-0.4c1.1-0.4,1.8-1.1,0.5-1.8c0.4-0.4,2.7-1.9,2.8-1.9c-0.1-1.5-2.3-3.9-2.1-4.9
			c0.3,0.1,1-0.4,1-0.1c0.3,0.8,1.9-2.2,2-2.4c1.1-1.9-1.8-3.1-1.3-4.7c0.9,0.2,3.6,1.1,4.2-0.4c0.6-1.4-1.1-8.6-1.9-8.5
			c2.4-2.7,8.5,4.8,10.7,2.6c1.9,0.2,2.8,0.3,2.8-1.6c-0.8-0.8-2,0-2.6-1.2c0.3-2.1,1.9-2.9,4-3.7c0.8-0.3,0.9-1.6,1.4-2.4
			c1.3-0.1,2.1-0.9,3.3-1.4c3.3-1.3,1-0.9,2-1.4c0.1,0,5.4-0.5,5.1-0.9c0.4,0.9-3.8,2.1-3.5,4.1c0.4,2.9,3.8-0.7,5.6-1.1
			c1.6-3.3,5.6-1.5,9.1-2.3c0.3-1-0.9-0.5-0.7-1.4c1.5,0.3,2.9-0.4,3.4-1.1c0.5-0.7,0.2-1.4-1.3-1.2c0-0.8-1.6-7.2-3.9-4.4
			c-1.2,1.5,0.8,4.4,0.8,6c-1-0.3-2-0.3-3-0.2c-0.7,0-1.4,0.1-2.1,0c-0.7-1.1-1.1-1-2.2-1.4c-0.9-0.4-1.8-2.9-2.3-2.8
			c0.5-0.7,0.8-1.4,1.2-2.1c-0.2-0.2-2.8-0.6-3.5-0.7c1.7,0.1,6.6-1,4.1-3.2c-1.7-1.6-4.4,0.2-6.3,0.9c-1.9,0.6-3.7,1.6-5.3,2.8
			c-0.5,0.4-2.6,0.2-3.6,0.5c0-1.3,3.5-3.6,4.5-4.1c1.7-0.9,2.8-0.2,3.9-2.2c0.3-1.5,1.1-2.1,2.6-1.8c1.9-0.1,4.8-1.2,6.9-1.1
			c3.6,0.2,6.5,1.7,9.6,0.8c1.5-0.5,2.5-1.9,3.5-3c1.4,0,2.8-0.1,4.2-0.2c1.9-0.1,3.5-1.8,2.9-3.3c-0.6-1.4,0.2-5.8-3.4-4
			c-0.6-0.1-0.4-2.3-2.8-1.9c0.7-0.3,1.3-0.7,1.9-1.2c-0.7-1.3-6.9-1.8-8.4-1.2c-0.3-0.8,0.8-2.4-0.9-3.7c-0.9-0.7-3.6-0.6-3.3-2.3
			c1.6,1.6,3.6-1,0.2-2.1c-0.1-0.7,2.4-0.2-0.1-1.7c-0.6-0.3-2.5-1.5-2.1-2.2c0.7-1.3-4.9-6.5-6.4-0.9c-0.2,0.8-6.5,3-7,2
			c-0.8-1.7-1.2-0.8-2-0.5c-0.6,0.2-1.5-0.3-2.4-0.8c-0.3-0.9,1.6-0.6,1.1-3c-0.5-2.3-0.7-1.4,0.4-3.1c0.9-1.4-6.3-0.3-5.7-2.7
			c-1.9-1.1-3.7-3-5.9-2.2c-1.8,0.7-3.2,2-5.1,1.5c-1.4-0.4-3.2-2.1-4.4-0.8c-0.9,1-0.9,2.2,0.5,2.7c-0.7,0.8-1.3,1.7-1.9,2.6
			c0.5,0.3,1.1,0.4,1.6,0.2c-0.2,0.8,0,1.5,0.5,2.1c-0.3,0.5-0.4,1.6-1,1.8c-0.5,2.2-3.6,2.1-0.5,3.8c2.3,1.2,6.3,3.9,4.9,6.8
			c-1,2.1-7.6,3.7-10.1,4.1c-0.3,2.2,1.2,2.1,1.2,4.3c0,1.2,0.7,2.5,0.7,3.6c-0.2,2.7-1.3,1.4-2.5,2.7c-1.4,1.4-2.4-1.3-3.6-1.9
			c-2-0.9-2.4-2.3-2.2-4.2c0.2-1.8,0.7-5-1.3-5.4c-3.6-0.7-8,0.5-11.2-1.8c-1.6-1.1-2.7-3.2-4.9-3.6c-1.1-0.2-2.6,1.1-3.5,1.4
			c-0.7,0.2-1.9-0.3-2.4,0.5c0.7-1.1-0.3-5.3-2.6-5.2c-2.3,0.1-2.7-2.8-2.2-3.9c0.6-1.3,4.8-2.7,5-4c0.1-0.5,4.4-3.8,3-3.7
			c4.3-1.5,3.5-1.6-0.5-2.6c0.4-0.4,1.6-1.2,2.8-1.2c2,0.1,4,1.1,3-0.9c2.8,0.9,5.8-1.1,6.7-3.7c-0.6-0.2-6.4-0.3-6.1-1.4
			c2.3,0.8,4.7,1.5,6.8,0c1.8-1.3,3-1.8,0.8-2.5c2-0.6,4.4-0.7,6.5-0.5c-0.4-0.9-1.1-1.4-2.1-1.4c1-0.9,2.1,0.3,3,0.4
			c1.8,0.2,3.1-0.4,4.2-1.7c2.7-3-3.1-1.7-2.2-4.2c0.3-0.3,1.5-0.2,1.9-0.1c0.6,0.2,1.3,0.4,1.4-0.7c0.2-1.6-1.3-1.2-2.6-1.5
			c-2.2-0.5-9,1.4-4.7,2.2c-0.6,0.5-1.3,0.8-2.1,0.9c-0.5,1-1.1,2-1.9,2.8c-1.6,1.7-3,2.2-4.4,0c0.2-0.4,3.1-4.2-0.4-2.9
			c-1.4,0.5-2.2,2-3.4,2.7c0.6-0.9-0.8-2,0.5-2.6c-0.6-0.6-1.4-0.3-2.2-0.1c-0.5,0.2-0.9,0.3-1.3,0.3c-0.1-1.3,1.5-0.7,1.9-1.6
			c-0.8-1.2-2.2-0.3-1.9-1.9c0.3-1.6-3.1-0.4-3.6-0.2c-1.6,0.7-2.5,2.2-4,3.3c0.3,0.2,0.6,0.3,0.9,0.2c-0.1,0.6-2.2,1.8,0.1,1.9
			c0.9,0.1,1.7-0.1,2.6-0.3c0.7-0.1,1.5-0.3,2.2-0.3c0,0.4-3.1,1.5-3.3,1.6c0.1,0.7,0.6,0.5,1.1,0.3c0.3-0.1,0.6-0.2,0.8-0.1
			c-0.7,1.3-2.9,1.8-3.9,2.5c-1.7,1.2-0.1,1.2-1,2.4c-1.9,0.2-0.7-1.3-0.5-2.1c-1.2-0.4-4.7-0.3-4.4,1.6c-1.3,0.6-6.8,3.3-8.1,2.6
			c-2.9-1.5-6.7,2.5-8.4,4.6c0,0,0-0.1,0-0.1c-3.8-0.2-5.8,3.2-9.3,3.8c0.7-0.6,1.4-1.3,2.1-1.9c-1.4-1-7.6,4.3-8.6,5.4
			c-4.4,4.9-1.4-0.9-6.1-1.4c-0.6,0.6,1,1.1,0.7,1.9c-0.8,0-3,1.1-3.7,1.4c-0.9,0.4-2.9,0.9-4.1,1.8c-0.3,0.4-0.6,0.8-1,1.2
			c-0.1,0.1-0.2,0.2-0.2,0.2c-6.2,7.9-11.5,16.1-15.9,24.8c1.9,0,4,0.1,4.4,0.5c-0.8,2.2,5,1.6,4.9,2.9c0.6-0.3-0.4,2.7-0.3,2.6
			c-0.4,1.1-0.7,2.1-0.8,3c1.2-0.4,0.3-2.3,1.4-2.8c0.1,0.4-0.1,3.9-0.2,4.1c0.3,1.8-1.4,6.7-0.8,7.5c0.4,0.6,2.2,2.8,1.8,3.4
			c-0.7,1-0.1,4.6-0.4,6c-0.4,2-0.8,3.9-1,5.9c-0.5,3-1.2,6.4-0.8,9.5c0.5,3.9,1.8,7.4,2.9,11.1c0.7,2.6,2.1,1,3.1,3.2
			c1.2,2.7,2,6.3,3.3,9.2c0.5,1.1,4.2,6.1,1.2,5.6c-0.2,3.1,4.4,3.2,4.7,6c0.4,3.3,3.1,4.3,4,7.4c2.6,0.1-0.3-3.5-0.2-4.2
			c-1.5-0.1-2.4-4.3-2.6-6.1c-1.5-0.6-2.2-3.9-3-5.2c-1.4-2.4-2.6-4.5-2.4-7.4c3,0.8,3.7,3.6,4.8,6.6c0.5,1.3,1.2,3.7,2,4.5
			c1.8,1.4,1.9,2.3,2.1,4.2c3.4,1.9,5.6,7.2,7.2,10.5c0.9,1.9-0.5,3.1,0.6,4.9c1,1.7,3.1,2.4,3.9,4.3c3.4,1,6.6,3.4,9.6,5.1
			c1.7,1,3.3,2.2,5.3,2.6c1.6,0.3,2.7-1.1,4.2-1.1c2.9,0,5.7,4.8,7.9,6.4c1,0,8.8,3.3,8.9,2.1c0.4,0,4,5.7,5.1,6.3
			c0.3,1.3-1,1.5,0.6,2.7c-0.2-0.1,0.3,0.2,0.8,0.5c1.6-0.7,3.2-1.3,4.8-2C199.8,1452.4,199.1,1451.1,199.4,1449.6"/>
		<path class="st17" d="M311.4,1498.4c-0.7-2.6-5.2-0.2-7-1.5c-1.5-1.1-3.2-3-5.3-2.8c-2.6,0.2-4.4-0.4-6.9-0.9
			c-1.8-0.3-2.4,1.9-4,1.8c0.3-2.4-2.3-3.3-5.2-2.8c-0.9-1.3-2.8-1.1-4.3-0.2c0.2-0.4,0.3-0.9,0.4-1.4c-1.3-1.1-2.6,0.1-4,0
			c-1.3,1.2-2.5,2.5-4.8,2.6c1-2.7,3.8-3.4,5.3-5.7c0.7-1.2-1.9-2.6-2.3-3.6c-1.3-3.5-1-3-4-5.1c-1.9-1.3-4.5-2.2-7-2.4
			c-2.2-0.2-2.4,0.8-4.4,0.1c-1.3-0.5-4-1.4-5.8-1.2c0.8-4.1-4.1-4.9-6.5-4.6c0.5-0.7,1.1-1.3,1.9-1.9c-0.5-0.6-1.1-1-1.9-1.2
			c1.1-0.2,0.6-2.1,0.9-2.8c-2-0.3-3,2.8-4.2,1.4c0.4-0.5,1.5,0,1.4-0.9c-1.7-1.1-5-0.5-6.6,0.6c-2.1,1.5-4.1-1.2-6.4-0.9
			c-1.9,0.2-2.6,0.7-3.6-0.9c-0.7-1.2-2-1.4-3.3-1.3c-0.6-0.5-0.8-2.7-2-1.9c-0.7,0.5-0.8,1.6,0.4,1.7c-1,0.9-2.8,0.5-3.7,1.4
			c-0.4-0.1-1.1-1.5-0.2-1.8c3.8-1-1.3-2.1-2-3.3c-0.5-0.9-1.3-1.5-2.1-1.9c-3-1.3-7.3,0.2-10.1,0.5c-0.9-1.2-2.3-2.5-3.3-3.9
			c-1.6,0.7-3.3,1.3-4.8,2c0.7,0.4,1.5,0.7,1.2-0.2c0.9,2.1,2.8,0.6,2.8,3.3c0.3,0.8,2.5,1.2,3,1.2c0.6,0,1.1,0.1,1.5,0.2
			c0.8,0.3,1.6,0.9,2.4,1.4c1.2,0.9,1.2,0.7,3.1,0.6c-0.2-0.8-0.5-1.6-0.9-2.3c2,0,2-1.2,4.2-0.7c-0.1,0.9,1.4,2.9,0.9,3.5
			c-1.9,0.5-4-0.1-5.4,1.5c-0.6,0.7-0.5,3.2-1.4,3.3c-1.1,0.1-2.2,1.3-2.3,2.5c-0.3-0.5-0.8-0.8-1.4-0.9c-0.8,0.7,1.2,1.3,0.5,1.9
			c-0.7,0.2-1.1,0.5-1.4,1.2c-0.1,1.3,1.5,2.4,1.6,3.7c0.1,1.4,0.8,4.8,0.2,5.9c-0.3,0.5-3.5,2.4-2.5,2.5c-1.6,0.1-0.4,1.7-2.1,1.8
			c-1.2-0.3-1.7,0.3-1.2,1.6c-0.2,1.1-3.1,5-0.8,5.9c0.2,0.1,2.1,0.3,2.3,0.1c0,2.1-2.4,1.8-3.3,3.2c-0.2,1.4,2.8,3,0.7,3
			c0.6,1.1,2,1.4,3,1.9c0.6,1.1,1.4,2.1,2.2,3c1.7,1.9,3.5,3.7,4.3,6.1c2.4,1.7,3.2,4.6,5.2,6.3c1.9,1.6,4.1,2.6,6.3,3.5
			c2.5,1,4.6,2,6.9,3.4c0.4,1.1,1.7,5,0.7,6.1c-0.3,0.4-0.6,7.7-0.2,7.7c-0.2,1.7-1.8-0.9-0.3,1.9c0.3,0.4,0.4,0.8,0.3,1.2
			c0,0.2-1.3,2.5-2.5,1.9c0.2,0.5,0.5,0.8,0.9,1c10.5,1.4,21.1,1.7,31.6,0.9c-0.9-0.4-0.9-1.2-2.4-1c3.8-0.7,7.1,1.3,10.7-0.6
			c0.8-0.4,2.1-2,3.1-2.6c0,0-0.1,0.1-0.1,0.1c2.1,0.1,7-3.7,7.1-5.5c0.4-4.3,6.8-4.8,8.7-7.7c4.5-0.6,6.7,1,9.7-1.7
			c2.5-2.2,3.2-4.5,4.9-6.9c1.1-1.6-1.7-5.2-0.8-7c2.1-0.6,5.5-0.9,6.4-2.8C307.4,1506.9,312.6,1502.8,311.4,1498.4z"/>
		<path class="st17" d="M143,1298.2c2.2,0.3,2,1.2,3.5,2.6c0.3-0.6,5.3-6.2,5.8-5.6c-0.5,0.3-0.9,0.7-1.2,1.2c0.2-0.1,0.5-0.1,0.7,0
			c-0.7,0.5-1.3,1.1-1.6,1.9c1.5,0,3.9-1.1,4.7-1.5c2.1-1,4.1-2.4,6-3.9c1.5,0.3,3-1.9,4.9-2c2.1-0.1,4.6-1.1,5.8-2.9
			c-0.8-0.8-1.8,1-2.3,0.5c1-1,4.9-1.3,4.4-2.8c-1.6-0.5-3.2,0.9-4.7,0c1-0.9,0.5-1.9,0.5-3c-2.9-0.2-3.5,2-4.7,4
			c-0.9,0-0.1-1.2-0.5-1.2c-1.6,0.2-2.3,1.7-3.5,2.6c0,0.2-5.5,2.7-7.3,2.5c-2.1-0.3-2.3-1.4-4.6-1.2c-0.4,0-0.7,0.1-1.1,0.1
			c-1,0.9-1.9,1.7-2.9,2.6c0,0.3-0.1,0.6-0.4,1.1c-1.2,1.9-1.3,1.1-1.4,3.3C143,1297.2,140.7,1298,143,1298.2z"/>
		<path class="st17" d="M136.2,1301c-0.5,0.5-1.1,1.2-1.6,1.8c1.2-0.5,2.5-1,2.9-1.4C137.3,1301,136.8,1300.9,136.2,1301z"/>
		<path class="st17" d="M382.5,1358.5c0.1-1.6-0.2-2.9-0.7-4C381.1,1355.7,381.5,1357.7,382.5,1358.5z"/>
		<path class="st17" d="M358.4,1318c-0.3-0.3-0.1-1.8,0.5-1.2c-1.8,1.8,4.2,4.7,4,7c-0.5-0.3-1.1-0.3-1.6,0c0.3,0.6,0.6,1.3,0.9,1.9
			c-0.4,0.1-0.8,0.2-1.2,0.2c0.2,1.9,2.5,1.6,3.3,3c-0.6-0.2-1.1-0.4-1.6-0.7c-1.2,4.3-1.4,1,1.9,3.3c-0.1-0.4,0-0.7,0.2-0.9
			c1.7,0.7,2.8,1.5,4.9,1.9c0.1-0.3-0.1-2.8-0.2-3.3c-0.8-1.9-2.9-4-4-5.8c-1.3-1.9-2.8-3.8-4.2-5.6c-0.3-3.6-1.6-2.3-3-4.9
			c0.5,0,0.8-0.3,0.9-0.7c-1-0.7-2-1.3-3-1.9c0,0.6,0.2,1.1,0.5,1.6c-0.2-0.1-0.3-0.1-0.5-0.2C356.2,1312.9,357.2,1317.8,358.4,1318
			z"/>
		<path class="st17" d="M388.7,1379.2c-0.8-1.6-1.8-3-2.5-3.2c-1.8-0.3,1.3-8.4-2.2-8.7c-1,0.8-3.1-0.1-4.4-0.4
			c-2.1-0.5-3.4,0.1-4.7,1.4c0.2,0.6-5.7,1.6-7-1c-0.8-1.6,2.4-1.5,3-1.5c2.7,0.2,2.3-2.1,3.4-3.8c0.8-1.1,0-1.5-0.6-2.6
			c0.5-1.1,0.9-2.1,1.2-3.3c3.7,0.4,0.5-3.7,2.1-4.7c0.8,0.8,1.6,1.4,2.6,1.9c0.3-0.7,0.8-1.4,1.4-1.9c1.8,2.4,2.4,5.5,3.7,8.1
			c0,0,0,0.1,0.1,0.1c-2.9-10.3-6.9-20.4-12.1-30c-0.6,0.5-1.1,1.5-0.9,2.6c-1.8-0.9-1.5,1.4-2.3,2c-0.9,0.6-1.1,0.1-1.5-0.4
			c-0.2-0.3-0.5-0.7-1.1-0.7c0.4,0.8,0.6,1.7,0.7,2.6c-1.6-1.3-1.9-1-4-1.4c-0.3,2.1,4.2,5.4,5.5,7.3c0.8,1.2,2.1,5.6,1.1,7.1
			c-2.2-1.6-8.9-4.1-10.7-2.3c-0.3,1.1,1.3,5.4,1.6,6.8c0.2,1.2-0.1,4.4-0.6,5.6c3.3,1.9-0.9,5.7,4.7,4.6c2.4,2.8,2.3,6.5-0.6,8.6
			c-2.5,1.8-1.4,3.1-2.9,5c-1.5,2,1,4.3-1,6.7c-1.4,1.7-3.6,2.4-4.2,4.3c-0.9,2.8-3.5,3.8-3.6,7.1c-2.6,1.2-1.9,3.4-3.7,5.1
			c-1.4,1.3-0.2,3.4-0.5,5.1c0.4-0.1,0.7,0,0.9,0.2c0.6,0.9,0.8,5.3,0.7,6.3c-0.1,1.6-0.5,5.7-1.6,7c-2,2.5,0.3,3.2-0.3,5.4
			c-0.5,1.8,0.5,4.3,2.8,3.8c-1.4,2.7,4,4.5,3.3,8.1c0.7,2.2,4.6,4.6,6.5,6.3c2,1.8,3.5,0.6,5.1-0.6c1.4-1.1,2.9-2.2,4.9-1
			c0.7,0.5,7-4.8,8.2-5.5c0.9,0.9,0.6,2.6,0.9,3.7c1-0.2,1.9-0.8,2.6-1.6c0.8,4.5-2.4,8.1-2.1,12.3c0,0.2,0,0.3,0,0.4
			C389.3,1427.8,391.9,1403.2,388.7,1379.2"/>
		<path class="st17" d="M352.8,1322.9c2.3,3.9,9.2,3.2,5.6-1.9c1.9-0.1-2.3-4.9-3.5-4.7c-0.5,0.3-0.9,0.7-1.2,1.2
			c0.5,0,0.8,0.3,0.9,0.7c-0.8,0-1.4-0.6-2.3-0.7C351.7,1318.7,355.6,1323.4,352.8,1322.9"/>
		<path class="st17" d="M254.7,1253.5c-1.2,0.2-2.6,0.2-3.9,0.1c-2.4,0-4.7-0.1-6.8,1c1.1,0,2.1,0.2,3,0.7c-0.3,0-0.6,0-1,0
			c-0.9-0.1-2.1-0.2-2.5,0.5c0.6,0.2,1,0.1,1.2,0.1c0.2-0.1,2.1,1.3,1.9,2c6.1,0.8,10.2-2.3,15.4,1.6c0,0.3-2.4,1.9-2,2.2
			c1.8-0.4,2.2-0.6,3.6-0.3c-0.3,0.1-0.7,0.2-0.9,0.5c0.9,0.1,1.7,0.4,2.3,0.9c-0.1,0-2.4,0-2.1,0.2c0.4-0.1,0.8-0.1,1.2,0.2
			c-0.5,0.1-0.9,0.3-1.2,0.7c0.3-0.1,0.5,0,0.7,0.2c-0.4,0-0.7,0-1.1,0c-1.1,0.5,3,0.8,4.6,0.7c0.1-0.2,0.3-0.3,0.6-0.2
			c0.1,0.1-0.2,0.2-0.6,0.2c0,0.1,0,0.1,0,0.2c1.6,0.5,4.3,0.4,5.1,1.6c-0.6-0.1-0.4,0.1-0.3,0.3c0.2,0.3,0.4,0.6-1.5,0
			c-1.6-0.5-4.2-1.5-5.7-0.3c0.4,0.1,0.7,0.3,0.9,0.7c-1.5-0.2-2.4,3.2-2.3,3.2c1.1,1.1,6.9,0.5,7.9-1.6c-0.7-0.4-1.4-0.7-2.1-0.9
			c1.1,0.2,2.2,0.4,3.3,0.7c-0.3-0.1-0.5,0-0.7,0.2c0.1,0.5,0.5,0.4,0.9,0.4c0.3,0,0.5-0.1,0.5,0.1c0.8,2.9-3.9,2.1-5.3,3
			c1.2,0.2-0.8,1-1,1.7c-0.5,0.8-0.3,1.1,0.6,1c-0.2,0.1-0.5,0.3-0.7,0.4c0.9,1,2.7,0.1,3.5,0.9c-4.2,0-1.5,2.4,1.8,2.9
			c0,1.8-0.9,2.3,0.8,2.7c-1.5,0-1.2,0.8-0.5,1.6c0.6,0.8,1.6,1.6,1.6,1.6c0.4,1.2,0,0.6,1.1,1.4c0.4,0.3,2.2,0.3,2.4,0.7
			c-0.4,1.5-0.3,2.7-0.1,4.4c1.9,0.6,3.1-1.3,3.9,0c0.1,0.2,0.9,0.8,1.2,0.8l0.1-0.1c0,0.1,0,0.1-0.1,0.1c-1.5,1.5,3,1.5,3.6,1.5
			c0.1,0.6,0.4,1,1,1c0.9,0,0.8,0.3-0.1,0.8c1.7,0.1,3.2-0.1,4.9-0.5c-0.4,0.3-0.4,0.6-0.2,0.9c1.5,0.4,1.2-1.1,1.4-1.2
			c0.2,0,2.5,0.2,2.6,0.5c-0.6,0.2-1.1,0.6-1.4,1.2c1.2,0.2,2.3,0.4,3.5,0.7c-1.4,1.7,0.6,0.9,2.1,1.6c0.8-0.3,1.5-0.3,2.3-0.3
			c0.7,0,1.4,0.1,2.1-0.2c0.4-1.4-0.1-1.2-0.3-1c-0.3,0.3-0.2,0.2,0,0c0.2-0.2,0.5-0.5,1-1.1c-0.4-1.2-1.5-0.5-0.7-2.9
			c0.9-2.6-0.8-2-1.9-4.1c0.5,0,0.9-0.1,1.4-0.2c0-0.6-0.2-0.9-0.7-1.2c1.2-0.2,2.4,0.1,3-1.9c-0.8-0.4-1.6-1-2.3-1.6
			c0.6,0.1,1.1,0.1,1.6-0.2c-0.5-0.6-1-1.1-1.6-1.6c0.6,0.1,1.1,0,1.6-0.2c-0.1-0.6-0.4-1.1-0.9-1.4c3,1,5.1,2.7,8,2.6
			c-0.2-0.4-0.3-4.1-0.3-4.5c0.6,0.5,1.3,0.7,2.1,0.7c0.5-1.5-0.8-3,0.7-4.2c1,0.4,2.6,1.1,3.6,0.5c0,0,2.3-0.3,3.4-0.8
			C301.3,1262.5,278.2,1255.2,254.7,1253.5"/>
		<path class="st17" d="M386.4,1366.8c-0.1-0.1-0.2-0.1-0.4,0.1c0.1,1.1,0.5,1.9,1,2.7C386.9,1368.7,386.7,1367.7,386.4,1366.8z"/>
		<path class="st17" d="M383.7,1363.6c-0.1-2.5-0.5-3.7-1.9-4.9c0.4,1.7,0.4,3.7,1.4,5.1C383.2,1363.4,383.4,1363.3,383.7,1363.6z"
			/>
		<path class="st17" d="M214,1258.2c1.4-0.4,2.8-0.7,4.2-0.7C217.1,1257.8,215.6,1258,214,1258.2c-0.9,0.2-1.8,0.5-2.7,0.6
			c-0.8,0.2-1.4,0.6-1.9,1c0.3-0.2,0.2,0.5-0.1,0.7c0.5-0.1,1.5-0.2,0.7-0.7c0.8-0.2,4.5-0.6,5.1,0c-1.2,0-8.2,0.6-8.4,2.4
			c1.3-0.1,4.8-1.1,5.8-0.2c-1.3,0.4-12.4,1.1-11.9,4.2c1.9,0,4.4-1.2,6.4-1.5c2.2-0.3,4.6-1,6.8-1.6c2.4-0.7,7.8,0.5,9.4-2.3
			c-2.4-0.1-5.3,1.2-7.7,0.5c1.9-0.5,4-0.3,5.9-0.8c1.4-0.4,1.6-1.2,3-1.3c1.2-0.1,4.9-1.1,5.5-2.4c-1.3-0.2-2.9,0.6-4.2,0.2
			c2.4-0.8,5.1-0.1,7.5-1.2c-0.5,0.1-1,0.1-1.4-0.2c1.5,0.1,10.4-1.9,14.9-2.4c-0.3,0-0.6,0-0.8-0.1c-4.2-0.1-8.4,0.1-12.6,0.4
			c-3.8,0.5-7.6,1.3-11.3,2.1c-3.6,0.8-8.8,1.1-11.9,3.2c0.4,0,0.7-0.1,1-0.1C212.1,1258.6,213.1,1258.4,214,1258.2z"/>
		<path class="st17" d="M208.9,1259.4c0.3-0.1,0.5-0.2,0.7-0.5C209.3,1258.9,208.3,1259.3,208.9,1259.4z"/>
		<path class="st17" d="M195.2,1264.9c0.2,0,0.4-0.1,0.5-0.1h0c0.1,0,0.2,0,0.3-0.1c2.4-0.7,5.4-1.3,6.8-1.3c1.5-1.3,4-2.1,5.7-2.8
			c-0.4,0.2-1.3-0.3-1.3-0.4c0.1-0.1,0.2-0.2,0.3-0.3c-0.2,0.1-0.5,0.2-0.9,0.3c-0.7,0-1.9,0.6-2.6,0.7c0,0,0.1,0,0.1,0
			c0,0-0.2,0.2-0.2,0.2l0.3-0.2c0.3,0-0.9,0.4-0.5,0.3c-0.4,0,0.8-0.3,0.5-0.3c-4.4,1.3-11.1,3.4-10.8,4.9
			C193.9,1265.5,194.5,1265.2,195.2,1264.9z"/>
		<path class="st17" d="M336,1288.9c-0.1-0.9-2.4-2.6-3.1-3.1c-0.5-0.3-0.5-0.1-0.6,0c-0.1,0.2-0.3,0.4-1.7-0.2
			c-0.5-0.3-4.5-1.6-4.6-1.4c0.4,0.3,0.4,0.6,0.2,0.9c0-0.4-3.7-3-4.9-3.3c-0.3,0.5,0.9,0.8,0.5,0.9c-0.8-0.3-2.2-1-2.3,0.2
			c0.8,1.7,3.8,0.2,4.4,2.1c-0.3,0.1-0.7,0-1.1-0.1c-0.7-0.2-1.5-0.4-1.7,0.4c1.2,0.7,3.1,0.6,4,1.9c-0.7-0.2-1.1,0-1.2,0.7
			c1.4,0.4,14.7,5.5,14.5,3c0,0-0.2-0.5-0.6-1C337.3,1289.4,336.7,1288.9,336,1288.9"/>
		<path class="st17" d="M224,1429c0-2.2-2.4-2.2-4-2.1c-0.1-0.6,0.7-0.7,0.2-1.2c-1.5-0.7-3.2-1.1-4.9-1.4c-0.4-1.2-1.6-1.6-2.7-2
			c-2-0.6-3.8-2.3-5.6-2.3c-2.5,0.1-4.5-1.1-7.2-0.3c-1.3,0.3-4.8,2.3-3.7,4.2c1.3,0.3,5.1-2.1,6.5-2.8c0.4,2.2,3.2,1.7,5.4,2.8
			c1.9,0.9,3.3,0,4.1,1.8c0.7,1.6,2.2,1,3.6,1.9c-0.5,0.8-1.6,0.6-1.4,1.9C217.4,1429,220.7,1429.5,224,1429z"/>
		<path class="st17" d="M214,1434.6c0.2,0.1,4.6,1,4.4-0.2C217.2,1432.2,209.9,1432.3,214,1434.6z"/>
		<path class="st17" d="M226.9,1434.2c1,0.3,2,0.3,2.9,0.2c0.5,0.8,1.2,1.3,2.1,1.4c0.5-4.5,8.1,0.5,8.1-2.8c-1.9-2.3-5.8-4-8.3-3.7
			c-1.3,0.1-6-1.1-6.4,0.5c0,0,3,3.1,2.8,3c-1.8,0.8-3.4-1-5.1-0.2C222.7,1435.2,225.7,1434,226.9,1434.2z"/>
		<path class="st17" d="M242.8,1433.9c0.1,2.3,5.1,1.1,4.8-0.3C246.9,1433.6,242.7,1431.6,242.8,1433.9z"/>
		<path class="st17" d="M158.7,1284.8c-0.9,0-3.4-0.5-3.5,1.2c1.7,1.4,7.7-0.6,7.2-3c-0.7-0.1-1.3-0.4-1.9-0.9
			c-1.3,0-2.4,0.3-3.5,0.9C156.5,1283,158.5,1284.7,158.7,1284.8z"/>
		<path class="st17" d="M194,1270.6c4.5-0.5,8.5-2.8,12.9-2.9c1.3,0,3.3-0.3,4.1-1.6c1,1.3,3.1,0.4,4.3,0.2c1.7-0.4,2.2-1.1,3.9-2
			c-4-1.2-8.7,0.2-12.5,1.6c-1.7,0.6-2.8,0.5-4.5,1.1c-1.1,0.4-4.1,0-4.9,0.8c0.5-0.9,1.9-0.6,2.6-1.4c-2.1,0.1-4.1,0.8-6.1,1.6
			c-0.1,1,0.9,0.2,0.9,0.7C194.2,1269.6,193.7,1269.5,194,1270.6z"/>
		<path class="st17" d="M225.9,1280.1c-2.5-0.8-5.6-0.1-5.6,2.8C222.6,1283.8,226.2,1283.1,225.9,1280.1z"/>
		<path class="st17" d="M242.3,1273.8c-1,0.2-2.3,0.7-3.3,0.5c0.9-0.2,1.7-0.5,2.6-0.9c-0.3-1.1-2-1-3.7-0.8
			c-1.5,0.1-3.8,1.4-4.1,0.6c1.4-0.1-2-3.8-3.2-1.2c-0.2-1.4-1.2-1.1-2.2-0.9c-0.6,0.2-1.1,0.3-1.5,0.2c0.8-0.2,1.5-0.6,2.1-1.2
			c-1.6-1.2-10.2-2.1-10.3,1.2c-1-0.7-1.7-0.4-2.4-0.1c-0.6,0.3-1.2,0.6-2,0.1c0.6-0.6,1.2-1.3,1.6-2.1c-2.5-2.4-6.9-0.3-9.3,1.2
			c0.4-0.1,0.8-0.1,1.2,0.2c-1,0-2.8,0-3,1.4c0.4,0.1,0.7,0.4,0.9,0.7c-0.7,0-1.2,0.3-1.4,0.9c0.3,0.8,1.7,0.1,1.9,0.9
			c-0.7,0.7-1.6,1-2.6,0.7c0.6,0,1.1-0.2,1.4-0.7c-0.7-1.2-2.2-1.3-2.3-2.6c1.1-1.3,2.9-1.5,4-2.8c-2.9,0.4-11.2,2.5-10,5.9
			c-0.9,0.1-1.4,0.6-1.6,1.4c0.6,0,1.2,0,1.8-0.1c0.9-0.1,1.9-0.2,2.8,0.1c-0.9,0.7-3.1,0-3.5,1.4c0.9,1.1,2.8,0.5,3.9,0.2
			c1.3-0.4,1.2-0.2,1.5,0c0.2,0.2,0.6,0.3,2.2,0.1c3.3-0.4,6.4-0.7,9.6-0.6c0.2-1.3,0.9-1.1,1.9-0.9c0.6,0.2,1.4,0.3,2.2,0
			c2.5-1-0.5-1.3-0.6-1.7c1-0.7,6.8,2.1,7.7,2.5c-0.8,0.4-1.7,0.5-2.6,0.5c-0.3,2.1,2.2,0.8,3.2,0.5c2.1-0.6,1.8,0.6,3.7,1.1
			c5.2,1.1,0.9,5.2-2.2,5.9c0,0.9,2,1.4,1.6,2.1c-2.7,0.2-4.7,0.7-7.3,0.8c-1.2,0-4,1.3-3.6,3.2c1.6,0.1,8.1-1,8.2-2.3
			c0.1-0.7,7,3.1,7.9,3.9c-0.5,0.1-0.8,0.4-0.9,0.9c2,1.5,5,1.3,6.5,3.5c2.8-0.3,5.4,0.5,8.2,0.7c0-3.7-2.6-3.7-7.4-4.8
			c3,0.7,7.1-0.1,7.6,0.2c1.4,0.9,1.2,2.5,2.8,2.5c0.1-0.3,0.2-2.4,0-2.6c0.3,0.2,0.6,0.3,0.9,0.2c0.4-2.2-1.3-2.1-2.3-3.5
			c0.4,0.1,0.7,0,0.7-0.5c-1.2,0-7.7-3.9-7.2-4.4c0.6,0.5,1.3,0.7,2.1,0.5c0.2-1.2-1-0.7-1.2-1.6c2.2-0.8,4.9-1.1,6.7,0.3
			c1.5,1.1,2,3.9,3.8,3.8c0.2-0.7-0.9-1.6-0.2-2.1c1-0.1,2.3-0.5,3.3-0.5c0.7-0.4-0.8-0.8,0-1.2c1.7,0.2,3.1-1.2,0.8-2
			c-1.9-0.7-2.2,0.1-3.1-1.1c-1.1,0.1-2.7,0.7-3.7,0c0.7,0.2,1.2,0.1,1.6-0.5c-1.7-2.6-8-1.8-10.7-3.5c0.3-0.3,0.7-0.4,1.2-0.2
			c0.2-0.6-1.2-0.9-0.7-1.2c1.2,0.4,2.4,0.6,3.7,0.5c0.2-1.1-0.7-1.1-1.6-1.1c-0.7,0-1.4,0-1.7-0.5
			C247.1,1275.2,243.9,1273.5,242.3,1273.8"/>
		<path class="st17" d="M204.3,1295.1c1,0,7.3,3.6,7.2,0c-1.2-0.5-2.4-0.6-3.7-0.5c0.7-2.2-2.6-0.7-4.1-1.3c-3.3-1.3-0.3-1-2.7-1.2
			c0.1-0.9-0.3-1.4-1.2-1.6c-0.6,1.3-1.8,2.2-2.2,3.6c-0.7,2.4-1.7,1.7-2.7,3.9c1.3,0.2,2.6-1,3.7-0.7c-0.1,0.5-0.1,0.9,0,1.4
			c2-0.1,3.1-1.9,5.1-2.1C204.4,1296.1,203.4,1295.2,204.3,1295.1z"/>
		<path class="st17" d="M182.6,1285.3c-0.8,0.1-2.9-1-4-1.2c-0.7,0.7-3,2.4-3.3,3.3C178,1287.1,180.9,1287.9,182.6,1285.3z"/>
		<path class="st17" d="M207.5,1259.8c0.2-0.1,0.4-0.2,0.5-0.2C207.9,1259.6,207.7,1259.7,207.5,1259.8z"/>
		<path class="st17" d="M192.7,1271.3c-1.8-0.6-15.3,1.7-15.6,3.2C180.9,1274,191.6,1277.6,192.7,1271.3z"/>
		<path class="st17" d="M274.1,1332.5c-0.3,0-0.6,0-0.8,0.1c-1.8,0.4-2.8,1.9-3.5,3.6c-0.8,1.7-1.3,3.4-2.2,4.3
			c-0.1,0.1-0.2,0.1-0.2,0.2c-0.7,0.6-0.7,1.2-0.2,1.9c-0.9,0.1-1.5,0.5-2,1.3c-0.1,0.3-0.1,0.5-0.1,0.7c0.1,0.6,0.8,0.8,1.6,0.9
			c0.3,0,0.5,0,0.8,0c0.3,0,0.5,0,0.8,0c0.3,0,0.5,0,0.7,0c0.1,0,0.2,0,0.2,0c0.1,0,0.4,0,0.6,0c0.5,0,1.2,0,2,0c0.8,0,1.7,0,2.4,0
			c0.6,0,1.1,0,1.5,0c0.5,0,0.8,0.1,0.8,0.2c-0.1,0.1-0.2,0.1-0.3,0.2c-0.8,0.4-1.5,1-2,1.7c0.4,0.2,0.8,0.3,1.1,0.3
			c0.8,0,1.4-0.5,2-1c0.1,0,0.1-0.1,0.2-0.1c0.5-0.4,1.1-0.8,1.7-0.8c0.1,0,0.3,0,0.4,0c-0.2,2-0.6,1.9,1.7,2.7
			c0.3,0.1,0.6,0.1,0.8,0.1c0.9,0,0.9-0.8,1.2-1.9c0.6-2.2-2.3-1.8-2.8-2.4c-0.1-0.6,0.3-0.9,0.8-1c0.5-0.2,1.1-0.4,0.9-1.3
			c-0.2-0.1-0.3-0.2-0.5-0.2c-0.2,0-0.5,0.1-0.7,0.2c-0.2,0.1-0.5,0.2-0.7,0.2c-0.1,0-0.1,0-0.2,0c0-1.1,1.8-2.5-0.3-3
			c-0.3-0.1-0.7-0.1-0.9-0.1c-0.4,0-0.8,0.1-1.1,0.1c-0.3,0.1-0.7,0.1-1,0.1c-0.6,0-1.2-0.2-2-0.9c2.7-0.8-0.7-0.9-1.8-0.9
			c-0.2,0-0.3,0-0.3,0c0.6-0.9,2.1-2.6,2.9-3.9c0.2-0.4,0.4-0.7,0.4-1C275.1,1332.6,274.6,1332.5,274.1,1332.5"/>
	</g>
	<rect x="831.4" y="1693" class="st14" width="324.9" height="182.2"/>
	<polygon class="st1" points="991.6,1711.1 831.4,1875.2 1156.3,1875.2 	"/>
	<polygon class="st22" points="1151.7,1693 831.4,1693 992.8,1822.7 	"/>
	<polygon class="st19" points="1151.7,1693 831.4,1693 991.6,1805 	"/>
	<path class="st10" d="M694,291h-7.7c-1-4.3-2.8-8.3-5-12l0,0l5.5-5.5c1.2-1.2,1.2-3.2,0-4.4l-9.5-9.5c-1.2-1.2-3.2-1.2-4.4,0
		l-5.5,5.5c-3.8-2.3-7.9-3.9-12-4.9v0v-7.7c0-1.7-1.4-3.1-3.1-3.1h-13.4c-1.7,0-3.1,1.4-3.1,3.1v7.7c-4.3,1-8.3,2.8-12,5l0,0
		l-5.5-5.5c-1.2-1.2-3.2-1.2-4.4,0l-9.5,9.5c-1.2,1.2-1.2,3.2,0,4.4l5.5,5.5c-2.3,3.8-3.9,7.9-4.9,12h0h-7.7c-1.7,0-3.1,1.4-3.1,3.1
		v13.4c0,1.7,1.4,3.1,3.1,3.1h7.7c1,4.3,2.8,8.3,5,12l0,0l-5.5,5.5c-1.2,1.2-1.2,3.2,0,4.4l9.5,9.5c1.2,1.2,3.2,1.2,4.4,0l5.5-5.5
		c3.8,2.3,7.9,3.9,12,4.9v0l0,7.7c0,1.7,1.4,3.1,3.1,3.1h13.4c1.7,0,3.1-1.4,3.1-3.1v-7.7c4.3-1,8.3-2.8,12-5l0,0l5.5,5.5
		c1.2,1.2,3.2,1.2,4.4,0l9.5-9.5c1.2-1.2,1.2-3.2,0-4.4l-5.5-5.5c2.3-3.8,3.9-7.9,4.9-12h0h7.7c1.7,0,3.1-1.4,3.1-3.1v-13.4
		C697.1,292.3,695.7,291,694,291z"/>
	<path class="st8" d="M645.6,275.3c-14.1,0-25.5,11.4-25.5,25.5c0,14.1,11.4,25.5,25.5,25.5c14.1,0,25.5-11.4,25.5-25.5
		C671.1,286.7,659.7,275.3,645.6,275.3z M645.6,312.8c-6.6,0-12-5.4-12-12c0-6.6,5.4-12,12-12s12,5.4,12,12
		C657.6,307.4,652.2,312.8,645.6,312.8z"/>
	<path class="st8" d="M645.6,265.4c-19.9,0-36,16.1-36,36c0,19.9,16.1,36,36,36c19.9,0,36-16.1,36-36
		C681.6,281.5,665.5,265.4,645.6,265.4z M645.6,336.1c-19.2,0-34.7-15.5-34.7-34.7s15.5-34.7,34.7-34.7s34.7,15.5,34.7,34.7
		S664.8,336.1,645.6,336.1z"/>
</g>
</svg>
