<?xml version="1.0" encoding="utf-8"?>
<!-- Generator: Adobe Illustrator 16.0.0, SVG Export Plug-In . SVG Version: 6.00 Build 0)  -->
<!DOCTYPE svg PUBLIC "-//W3C//DTD SVG 1.1//EN" "http://www.w3.org/Graphics/SVG/1.1/DTD/svg11.dtd">
<svg version="1.1" xmlns="http://www.w3.org/2000/svg" xmlns:xlink="http://www.w3.org/1999/xlink" x="0px" y="0px" width="5000px"
	 height="3109.2px" viewBox="0 0 5000 3109.2" style="enable-background:new 0 0 5000 3109.2;" xml:space="preserve">
<style type="text/css">
<![CDATA[
	.st0{fill:#465D66;}
	.st1{fill:#ACCA65;}
	.st2{fill:#E4DBD4;}
	.st3{fill:#E55957;}
	.st4{fill:#E6F2F2;}
	.st5{opacity:0.18;}
	.st6{fill:#1F8BC3;}
	.st7{fill:#52677A;}
	.st8{fill:#BDB6B0;}
	.st9{fill:#F25F5F;}
	.st10{fill:#F2F2F2;}
	.st11{fill:#F2F3F4;}
	.st12{fill:#263238;}
	.st13{fill:#267188;}
	.st14{fill:#5B7284;}
	.st15{fill:#28ABE5;}
	.st16{fill:#F7F7F7;}
	.st17{fill:#FAFCFC;}
	.st18{fill:#FFFFFF;}
	.st19{fill:#63BC6F;}
	.st20{fill:#020202;}
	.st21{opacity:0.25;fill:#141414;}
	.st22{fill:#A7A9AC;}
	.st23{fill:#DDDDDD;}
	.st24{fill:#DFF1F1;}
]]>
</style>
<g id="Layer_8">
	<rect x="3759.9" y="693.2" class="st4" width="897" height="748.1"/>
	<rect x="3828.7" y="857.1" class="st3" width="157.7" height="90.2"/>
	<rect x="4135.4" y="857.1" class="st3" width="157.7" height="90.2"/>
	<rect x="4442.1" y="857.1" class="st3" width="157.7" height="90.2"/>
	<rect x="3828.7" y="1022.2" class="st3" width="157.7" height="90.2"/>
	<rect x="4135.4" y="1022.2" class="st3" width="157.7" height="90.2"/>
	<rect x="4442.1" y="1022.2" class="st3" width="157.7" height="90.2"/>
	<rect x="3828.7" y="1187.3" class="st3" width="157.7" height="90.2"/>
	<rect x="4135.4" y="1187.3" class="st3" width="157.7" height="90.2"/>
	<rect x="4442.1" y="1187.3" class="st3" width="157.7" height="90.2"/>
	<rect x="3759.9" y="1371.8" class="st3" width="897" height="69.6"/>
	<g>
		<rect x="3759.9" y="693.2" class="st3" width="897" height="93.9"/>
		
			<ellipse transform="matrix(-2.637785e-003 1 -1 -2.637785e-003 5367.9219 -3881.5854)" class="st13" cx="4619.6" cy="736.1" rx="12.4" ry="15.8"/>
		
			<ellipse transform="matrix(-2.677124e-003 1 -1 -2.677124e-003 5319.5967 -3833.1792)" class="st13" cx="4571.3" cy="736.1" rx="12.4" ry="15.8"/>
		
			<ellipse transform="matrix(-2.677124e-003 1 -1 -2.677124e-003 5271.0908 -3784.8032)" class="st13" cx="4522.9" cy="736.1" rx="12.4" ry="15.8"/>
		
			<ellipse transform="matrix(-2.677124e-003 1 -1 -2.677124e-003 5222.5815 -3736.4233)" class="st13" cx="4474.5" cy="736.1" rx="12.4" ry="15.8"/>
		
			<ellipse transform="matrix(-2.677124e-003 1 -1 -2.677124e-003 5174.0762 -3688.0479)" class="st13" cx="4426.1" cy="736.1" rx="12.4" ry="15.8"/>
		
			<ellipse transform="matrix(-2.637785e-003 1 -1 -2.637785e-003 5125.397 -3639.6997)" class="st13" cx="4377.8" cy="736.1" rx="12.4" ry="15.8"/>
		
			<ellipse transform="matrix(-2.637785e-003 1 -1 -2.637785e-003 5076.8916 -3591.3218)" class="st13" cx="4329.4" cy="736.1" rx="12.4" ry="15.8"/>
		
			<ellipse transform="matrix(-2.637785e-003 1 -1 -2.637785e-003 5028.3877 -3542.9463)" class="st13" cx="4281" cy="736.1" rx="12.4" ry="15.8"/>
		
			<ellipse transform="matrix(-2.716582e-003 1 -1 -2.716582e-003 4980.2148 -3494.5088)" class="st13" cx="4232.6" cy="736.1" rx="12.4" ry="15.8"/>
		
			<ellipse transform="matrix(-2.677124e-003 1 -1 -2.677124e-003 4931.542 -3446.1616)" class="st13" cx="4184.2" cy="736.1" rx="12.4" ry="15.8"/>
		
			<ellipse transform="matrix(-2.677124e-003 1 -1 -2.677124e-003 4883.0342 -3397.7842)" class="st13" cx="4135.9" cy="736.1" rx="12.4" ry="15.8"/>
		
			<ellipse transform="matrix(-2.637785e-003 1 -1 -2.637785e-003 4834.3667 -3349.4363)" class="st13" cx="4087.5" cy="736.1" rx="12.4" ry="15.8"/>
		
			<ellipse transform="matrix(-2.558988e-003 1 -1 -2.558988e-003 4785.5439 -3301.1184)" class="st13" cx="4039.1" cy="736.1" rx="12.4" ry="15.8"/>
		
			<ellipse transform="matrix(-2.677124e-003 1 -1 -2.677124e-003 4737.5132 -3252.6519)" class="st13" cx="3990.7" cy="736.1" rx="12.4" ry="15.8"/>
		
			<ellipse transform="matrix(-2.637785e-003 1 -1 -2.637785e-003 4688.8521 -3204.3049)" class="st13" cx="3942.4" cy="736.1" rx="12.4" ry="15.8"/>
		
			<ellipse transform="matrix(-2.677124e-003 1 -1 -2.677124e-003 4640.5 -3155.8982)" class="st13" cx="3894" cy="736.1" rx="12.4" ry="15.8"/>
		
			<ellipse transform="matrix(-2.677124e-003 1 -1 -2.677124e-003 4591.9927 -3107.5205)" class="st13" cx="3845.6" cy="736.1" rx="12.4" ry="15.8"/>
		
			<ellipse transform="matrix(-2.677124e-003 1 -1 -2.677124e-003 4543.4873 -3059.1445)" class="st13" cx="3797.2" cy="736.1" rx="12.4" ry="15.8"/>
		<path class="st24" d="M3797.1,646.7L3797.1,646.7c-1.7,0-3.1,1.4-3.1,3.1v85c0,1.7,1.4,3.1,3.1,3.1l0,0c1.7,0,3.1-1.4,3.1-3.1v-85
			C3800.2,648.1,3798.8,646.7,3797.1,646.7z"/>
		<path class="st24" d="M3845.3,646.7L3845.3,646.7c-1.7,0-3.1,1.4-3.1,3.1v85c0,1.7,1.4,3.1,3.1,3.1l0,0c1.7,0,3.1-1.4,3.1-3.1v-85
			C3848.4,648.1,3847,646.7,3845.3,646.7z"/>
		<path class="st24" d="M3893.6,646.7L3893.6,646.7c-1.7,0-3.1,1.4-3.1,3.1v85c0,1.7,1.4,3.1,3.1,3.1l0,0c1.7,0,3.1-1.4,3.1-3.1v-85
			C3896.7,648.1,3895.3,646.7,3893.6,646.7z"/>
		<path class="st24" d="M3941.8,646.7L3941.8,646.7c-1.7,0-3.1,1.4-3.1,3.1v85c0,1.7,1.4,3.1,3.1,3.1l0,0c1.7,0,3.1-1.4,3.1-3.1v-85
			C3944.9,648.1,3943.6,646.7,3941.8,646.7z"/>
		<path class="st24" d="M3990.1,646.7L3990.1,646.7c-1.7,0-3.1,1.4-3.1,3.1v85c0,1.7,1.4,3.1,3.1,3.1l0,0c1.7,0,3.1-1.4,3.1-3.1v-85
			C3993.2,648.1,3991.8,646.7,3990.1,646.7z"/>
		<path class="st24" d="M4038.4,646.7L4038.4,646.7c-1.7,0-3.1,1.4-3.1,3.1v85c0,1.7,1.4,3.1,3.1,3.1l0,0c1.7,0,3.1-1.4,3.1-3.1v-85
			C4041.5,648.1,4040.1,646.7,4038.4,646.7z"/>
		<path class="st24" d="M4087.1,646.7L4087.1,646.7c-1.7,0-3.1,1.4-3.1,3.1v85c0,1.7,1.4,3.1,3.1,3.1l0,0c1.7,0,3.1-1.4,3.1-3.1v-85
			C4090.2,648.1,4088.8,646.7,4087.1,646.7z"/>
		<path class="st24" d="M4135.4,646.7L4135.4,646.7c-1.7,0-3.1,1.4-3.1,3.1v85c0,1.7,1.4,3.1,3.1,3.1l0,0c1.7,0,3.1-1.4,3.1-3.1v-85
			C4138.5,648.1,4137.1,646.7,4135.4,646.7z"/>
		<path class="st24" d="M4183.6,646.7L4183.6,646.7c-1.7,0-3.1,1.4-3.1,3.1v85c0,1.7,1.4,3.1,3.1,3.1l0,0c1.7,0,3.1-1.4,3.1-3.1v-85
			C4186.7,648.1,4185.4,646.7,4183.6,646.7z"/>
		<path class="st24" d="M4232.4,646.7L4232.4,646.7c-1.7,0-3.1,1.4-3.1,3.1v85c0,1.7,1.4,3.1,3.1,3.1l0,0c1.7,0,3.1-1.4,3.1-3.1v-85
			C4235.5,648.1,4234.1,646.7,4232.4,646.7z"/>
		<path class="st24" d="M4280.6,646.7L4280.6,646.7c-1.7,0-3.1,1.4-3.1,3.1v85c0,1.7,1.4,3.1,3.1,3.1l0,0c1.7,0,3.1-1.4,3.1-3.1v-85
			C4283.7,648.1,4282.4,646.7,4280.6,646.7z"/>
		<path class="st24" d="M4328.7,646.7L4328.7,646.7c-1.7,0-3.1,1.4-3.1,3.1v85c0,1.7,1.4,3.1,3.1,3.1l0,0c1.7,0,3.1-1.4,3.1-3.1v-85
			C4331.8,648.1,4330.4,646.7,4328.7,646.7z"/>
		<path class="st24" d="M4376.9,646.7L4376.9,646.7c-1.7,0-3.1,1.4-3.1,3.1v85c0,1.7,1.4,3.1,3.1,3.1l0,0c1.7,0,3.1-1.4,3.1-3.1v-85
			C4380,648.1,4378.6,646.7,4376.9,646.7z"/>
		<path class="st24" d="M4424.7,646.7L4424.7,646.7c-1.7,0-3.1,1.4-3.1,3.1v85c0,1.7,1.4,3.1,3.1,3.1l0,0c1.7,0,3.1-1.4,3.1-3.1v-85
			C4427.8,648.1,4426.4,646.7,4424.7,646.7z"/>
		<path class="st24" d="M4473.2,646.7L4473.2,646.7c-1.7,0-3.1,1.4-3.1,3.1v85c0,1.7,1.4,3.1,3.1,3.1l0,0c1.7,0,3.1-1.4,3.1-3.1v-85
			C4476.3,648.1,4474.9,646.7,4473.2,646.7z"/>
		<path class="st24" d="M4521.9,646.7L4521.9,646.7c-1.7,0-3.1,1.4-3.1,3.1v85c0,1.7,1.4,3.1,3.1,3.1l0,0c1.7,0,3.1-1.4,3.1-3.1v-85
			C4525,648.1,4523.6,646.7,4521.9,646.7z"/>
		<path class="st24" d="M4571,646.7L4571,646.7c-1.7,0-3.1,1.4-3.1,3.1v85c0,1.7,1.4,3.1,3.1,3.1l0,0c1.7,0,3.1-1.4,3.1-3.1v-85
			C4574.1,648.1,4572.7,646.7,4571,646.7z"/>
		<path class="st24" d="M4618.6,646.7L4618.6,646.7c-1.7,0-3.1,1.4-3.1,3.1v85c0,1.7,1.4,3.1,3.1,3.1l0,0c1.7,0,3.1-1.4,3.1-3.1v-85
			C4621.7,648.1,4620.3,646.7,4618.6,646.7z"/>
		<path class="st13" d="M3800.2,649.8c0-1.7-1.4-3.1-3.1-3.1c-1.7,0-3.1,1.4-3.1,3.1v42.6h6.2V649.8z"/>
		<path class="st13" d="M3848.5,649.8c0-1.7-1.4-3.1-3.1-3.1c-1.7,0-3.1,1.4-3.1,3.1v42.6h6.2V649.8z"/>
		<path class="st13" d="M3896.9,649.8c0-1.7-1.4-3.1-3.1-3.1c-1.7,0-3.1,1.4-3.1,3.1v42.6h6.2V649.8z"/>
		<path class="st13" d="M3945.2,649.8c0-1.7-1.4-3.1-3.1-3.1c-1.7,0-3.1,1.4-3.1,3.1v42.6h6.2V649.8z"/>
		<path class="st13" d="M3993.1,649.8c0-1.7-1.4-3.1-3.1-3.1l0,0c-1.7,0-3.1,1.4-3.1,3.1v42.6h6.2V649.8z"/>
		<path class="st13" d="M4041.4,649.8c0-1.7-1.4-3.1-3.1-3.1c-1.7,0-3.1,1.4-3.1,3.1v42.6h6.2V649.8z"/>
		<path class="st13" d="M4090.2,649.8c0-1.7-1.4-3.1-3.1-3.1s-3.1,1.4-3.1,3.1v42.6h6.2V649.8z"/>
		<path class="st13" d="M4138.6,649.8c0-1.7-1.4-3.1-3.1-3.1c-1.7,0-3.1,1.4-3.1,3.1v42.6h6.2V649.8z"/>
		<path class="st13" d="M4186.9,649.8c0-1.7-1.4-3.1-3.1-3.1c-1.7,0-3.1,1.4-3.1,3.1v42.6h6.2V649.8z"/>
		<path class="st13" d="M4235.7,649.8c0-1.7-1.5-3.1-3.2-3.1h0c-1.7,0-3.1,1.4-3.1,3.1v42.6h6.2V649.8z"/>
		<path class="st13" d="M4283.6,649.8c0-1.7-1.4-3.1-3.1-3.1c-1.7,0-3.1,1.4-3.1,3.1v42.6h6.2V649.8z"/>
		<path class="st13" d="M4331.9,649.8c0-1.7-1.4-3.1-3.1-3.1c-1.7,0-3.1,1.4-3.1,3.1v42.6h6.2V649.8z"/>
		<path class="st13" d="M4380.3,649.8c0-1.7-1.4-3.1-3.1-3.1c-1.7,0-3.1,1.4-3.1,3.1v42.6h6.2V649.8z"/>
		<path class="st13" d="M4427.7,649.8c0-1.7-1.4-3.1-3.1-3.1c-1.7,0-3.1,1.4-3.1,3.1v42.6h6.2V649.8z"/>
		<path class="st13" d="M4476.5,649.8c0-1.7-1.4-3.1-3.1-3.1c-1.7,0-3.1,1.4-3.1,3.1v42.6h6.2V649.8z"/>
		<path class="st13" d="M4524.8,649.8c0-1.7-1.4-3.1-3.1-3.1s-3.1,1.4-3.1,3.1v42.6h6.2V649.8z"/>
		<path class="st13" d="M4574.1,649.8c0-1.7-1.4-3.1-3.1-3.1c-1.7,0-3.1,1.4-3.1,3.1v42.6h6.2V649.8z"/>
		<path class="st13" d="M4622,649.8c0-1.7-1.4-3.1-3.1-3.1s-3.1,1.4-3.1,3.1v42.6h6.2V649.8z"/>
	</g>
</g>
<g id="Layer_6">
	<path class="st6" d="M2095.4,1582.7c-304.5,334.5-823.9,360-1160.1,57.1C599.1,1336.7,573.5,820,878,485.5
		c304.5-334.5,823.9-360,1160.1-57.1C2374.3,731.4,2400,1248.2,2095.4,1582.7"/>
	<g>
		<g>
			<path class="st18" d="M1235.5,1316.6c1.4-7.2,9.5-38.2,3.6-42.7c-11.2-8.6-16.1-17.8-35.8-17.2c-14.4,0.4-26.1,1.8-40.7,0.1
				c12.9-25.7,8.3-47.2,23.7-72.2c12.2-19.8-38.3-10.8-44.8-8.9c-11.5,3.4-8.8,8.8-10.5,19.4c-1.2,7.3-11.7,15.3-10.5,21.3
				c-5-1.2-10.9-0.6-16.7,0c-8.4,0.8-16.7,1.6-22.4-2.8c-9.8-7.8-16.9,4.1-23.9-8.8c-4.3-7.9-3.7-20.5-8.5-28
				c-10.6-16.7-14.8-50.4-3.5-67.2c10-14.7-6.5-30,9.3-42.1c7-5.4,15.1-26.5,15.1-37.7c13.3-1,38.5,13.4,50,14.2
				c3.3,7.5,21,15.6,22.3,3.9c4.2,3.4,8.1,9.6,14.4,5.2c-0.4-4.1-2.6-6.7-6.6-7.8c2.2-3.7,2.6-7.6,1.3-11.8
				c8.5-4.9,16.9,2.3,22.3,2.6c6.4-3.1,12.1-1.8,17.4-0.6c4.5,1,15-5.7,19.2-7.2c-1.5,10.2,3.7,17.3,9.5,13.1
				c10.2-7.5,12.2,3.6,19.5,10.6c10.6,10.1-3,32.4,17.2,44c-1.5,8.7,11.8,32.1,16.3,31.5c35.8-4.4-12-84.7-6-105.9
				c4.1-14.5,9.9-21,22.1-27.7c10.6-5.8-0.9-30,9.9-33.6c11.2-3.7,28.1,2,38.8-2.3c6-2.4,9.9-6,2.6-9.8c2-2.2,15.3-10.7,15.7-10.5
				c-0.5-8.2-13.2-21.9-11.9-27.4c1.5,0.8,5.9-2.5,5.4-0.8c1.7,4.7,10.6-12.3,11.3-13.3c6.3-10.8-9.9-17.2-7.4-26.2
				c5.2,1.2,20.2,6,23.6-2.1c3.3-7.8-6.4-48.3-10.8-47.8c13.6-15.3,47.8,26.7,60.4,14.3c10.6,0.9,15.8,2,15.7-9.2
				c-4.2-4.7-11.4-0.1-14.4-6.5c1.8-11.7,10.5-16.4,22.4-20.5c4.8-1.8,5.3-9.1,7.7-13.5c7.1-0.6,12.1-5.1,18.7-7.6
				c18.3-7.2,5.6-5.3,11.5-8.1c0.8-0.2,30.5-2.6,28.9-5.3c2.5,5.2-21.1,12-19.5,22.8c2.4,16.4,21.5-4.1,31.5-6.4
				c9-18.4,31.8-8.7,51-12.7c1.7-5.5-5.1-2.8-4-7.8c8.5,1.9,16.3-2.3,19.3-6.4c2.8-3.9,1.4-7.7-7.5-6.7c0.2-4.3-8.8-40.4-21.7-24.4
				c-6.6,8.1,4.7,24.5,4.7,33.6c-5.5-1.8-11.2-1.5-17-1.2c-4,0.2-8,0.5-11.9-0.1c-3.8-5.9-6.1-5.4-12.3-8
				c-5.1-2-10.2-16.1-12.7-15.5c2.6-3.7,4.8-7.6,6.5-11.8c-1-0.9-15.8-3.4-20-3.8c9.6,0.3,36.9-5.7,23.3-17.9
				c-9.8-8.8-24.6,1.3-35.6,4.9c-10.5,3.5-21,9.2-30.1,15.7c-2.9,2.1-14.8,0.9-20.4,2.7c0-7,19.5-20.1,25.1-23.2
				c9.5-5.1,15.8-1.3,22-12.2c1.6-8.4,6.4-11.8,14.6-10.3c10.7-0.5,27.2-6.8,39-6.1c20.4,1.3,36.3,9.7,54,4.4
				c8.7-2.6,14-10.7,19.7-17c7.9-0.1,15.8-0.6,23.6-1.4c10.9-0.7,19.6-10.3,16.3-18.3c-3.1-7.7,1.1-32.8-19.1-22.2
				c-3.5-0.7-2.4-12.7-15.8-10.4c3.8-1.7,7.3-3.9,10.5-6.6c-4-7.5-39.1-10.2-47.4-6.7c-1.8-4.6,4.5-13.4-5.1-20.7
				c-4.8-3.7-20.1-3.5-18.5-12.9c8.8,8.8,20.3-5.7,1.3-11.7c-0.6-3.9,13.5-1.2-0.7-9.8c-3.2-2-13.8-8.7-11.8-12.3
				c4.1-7.6-27.6-36.4-36-4.8c-1.2,4.4-36.6,16.9-39.4,10.9c-4.4-9.4-6.8-4.4-11.4-2.9c-3.3,1-8.3-1.5-13.7-4.3
				c-1.6-5.3,8.9-3.4,5.9-17.1c-2.7-12.7-4-8,2.2-17.5c5.2-7.9-35.6-1.5-31.9-14.9c-10.5-5.9-21.1-16.6-33.4-12.1
				c-10.2,3.7-18,11.3-28.8,8.4c-7.8-2.1-18.1-11.7-24.7-4.6c-4.9,5.4-5.3,12.5,3,15.1c-3.9,4.5-7.4,9.3-10.5,14.4
				c2.8,1.6,5.9,2.1,9.2,1.3c-1,4.3-0.1,8.2,2.7,11.8c-1.9,3-2.5,8.9-5.8,10.2c-2.7,12.3-20.4,11.8-2.7,21.2
				c13.2,7,35.5,22.1,27.5,38.4c-5.9,12-42.7,20.5-56.8,23.1c-1.5,12.3,6.7,12,6.9,24c0.1,6.5,4.1,14,3.7,20.4c-1,15-7.1,8-14.2,15
				c-8,7.8-13.3-7.1-20.5-10.5c-11-5.2-13.5-12.9-12.3-23.3c1.1-10.3,4.2-27.9-7.1-30.1c-20.1-4-45,2.7-62.9-10.2
				c-8.9-6.4-15.1-18-27.4-20.2c-6.3-1.1-14.6,6.1-19.6,7.8c-4.1,1.4-10.6-1.5-13.2,2.6c3.8-5.9-1.7-29.4-14.9-28.9
				c-12.9,0.5-15.1-15.9-12.1-22c3.6-7.4,27.2-15.1,28.1-22.3c0.3-2.6,24.9-21.5,17-20.9c24.4-8.5,19.6-8.8-2.6-14.4
				c2.4-2.4,9.2-7,15.9-6.5c11.1,0.7,22.4,6.4,16.9-5.3c15.6,5.1,32.9-6.3,38-21c-3.6-1.3-36.3-1.5-34.1-7.7
				c13.2,4.5,26.7,8.6,38.6-0.2c10-7.4,16.9-10.1,4.7-14.2c11.4-3.1,24.5-3.9,36.7-2.7c-2.1-5.3-6-7.9-11.8-7.8
				c5.8-5.1,11.6,1.6,16.8,2.3c10.2,1.4,17.4-2.4,23.8-9.5c14.9-16.6-17.7-9.4-12.2-23.7c1.6-1.7,8.5-1.3,11-0.4
				c3.6,1.2,7.2,2.5,8.2-3.7c1.4-9.2-7.5-6.8-14.7-8.6c-12.1-3-50.7,7.6-26.3,12.2c-3.6,2.6-7.5,4.3-11.8,5.2
				c-2.8,5.8-6.4,11-10.9,15.6c-8.8,9.3-16.7,12.1-24.5,0.2c1.3-2.2,17.3-23.2-2-16.4c-7.7,2.7-12.2,11-19,15.2
				c3.5-5-4.3-11.5,2.6-14.4c-3.3-3.3-7.8-1.8-12.2-0.3c-2.6,0.9-5.3,1.8-7.4,1.7c-0.8-7.5,8.4-4,10.5-9.2
				c-4.5-6.7-12.6-1.7-10.7-10.6c1.9-9.2-17.5-2.3-20.4-1.1c-8.8,3.7-14.1,12.6-22.7,18.4c1.5,1.4,3.2,1.8,5.2,1.3
				c-0.8,3.6-12.1,9.9,0.3,10.9c4.9,0.4,9.8-0.6,14.8-1.5c4.2-0.8,8.4-1.6,12.5-1.6c0,2.4-17.4,8.5-18.3,9.2c0.3,3.8,3.2,2.8,6,1.9
				c1.7-0.5,3.4-1.1,4.5-0.7c-3.9,7.3-16.3,10-22.1,14c-9.5,6.6-0.7,6.6-5.4,13.5c-10.8,1.3-4-7.4-2.7-11.8
				c-6.8-2.1-26.6-1.6-24.9,9.2c-7.4,3.4-38.4,18.4-45.8,14.4c-16.4-8.7-37.6,14.1-47.4,25.5c0-0.2,0.1-0.4,0.1-0.6
				c-21.5-0.9-32.7,17.7-52.4,21c3.9-3.6,7.8-7.1,11.8-10.5c-8.1-5.9-43,24.1-48.5,30.2c-24.8,27.4-7.8-4.8-34.1-7.7
				c-3.5,3.2,5.5,6,4,10.4c-4.4,0-17,6.2-21,7.9c-4.9,2-16.2,4.9-23.1,9.9c-1.9,2.3-3.6,4.4-5.4,6.7c-0.4,0.5-1,1.2-1,1.2
				c-35,44.1-64.9,90.4-89.4,139c10.8,0.1,22.3,0.5,24.8,2.7c-4.4,12.5,28.3,8.8,27.5,16.5c3.3-1.5-2,15.2-1.9,14.8
				c-2,5.9-3.7,12-4.5,17c6.6-2.5,1.5-12.9,7.9-15.7c0.7,2.4-0.7,22.1-1.1,22.8c1.8,9.8-7.9,37.6-4.7,41.8
				c2.3,3.1,12.5,15.4,9.9,18.9c-4.2,5.7-0.8,25.8-2.2,33.5c-2,11-4.6,21.9-5.5,33.1c-3,17-6.8,36.1-4.4,53.5
				c3.1,21.7,10.4,41.2,16.4,62.4c4.1,14.7,11.6,5.4,17.3,17.9c6.9,14.9,11,35.5,18.4,51.5c2.9,6.2,23.4,34.2,6.6,31.3
				c-1.2,17.4,24.6,18,26.3,33.9c2.1,18.7,17.2,24.2,22.4,41.7c14.4,0.5-1.4-19.9-1.4-23.5c-8.6-0.5-13.3-24-14.5-33.9
				c-8.4-3.6-12.5-21.7-16.9-29.2c-7.8-13.5-14.7-25.1-13.4-41.2c17.1,4.5,21,20.3,26.9,37.2c2.6,7.5,7,21,11.3,25.3
				c10.1,7.7,10.5,13.1,11.9,23.5c19.2,10.7,31.4,40.3,40.6,58.9c5.3,10.8-2.9,17.5,3.5,27.7c5.9,9.4,17.4,13.7,21.8,24.3
				c19.2,5.7,37.3,19.1,54.1,28.5c9.8,5.5,18.8,12.1,30,14.4c8.9,1.9,15.4-6,23.8-6c16.6-0.2,31.9,27.1,44.5,35.9
				c5.6,0.1,49.6,18.5,49.9,11.6c2.1,0.2,22.6,31.9,29,35.2c1.7,7.4-5.5,8.5,3.4,14.9c-1.1-0.8,1.5,1.2,4.5,3
				c8.8-3.9,18-7.1,27.1-11C1237.4,1332.4,1233.9,1325,1235.5,1316.6"/>
			<path class="st18" d="M1866,1590.1c-4.1-14.8-29.2-1.2-39.3-8.2c-8.7-6-18.1-16.9-29.7-15.9c-14.4,1.2-24.6-2.3-39.1-5
				c-10.1-1.9-13.5,10.4-22.2,10.3c2-13.5-13-18.6-29.1-16c-5.1-7.2-15.6-6.1-24.5-0.9c1.2-2.4,1.9-5.1,2.3-7.9
				c-7.1-6-14.5,0.8-22.7,0c-7.2,6.5-14.2,13.8-27.2,14.5c5.4-15.3,21.6-19.3,29.7-32.1c4.2-6.7-10.8-14.4-13-20.3
				c-7.3-19.7-5.8-17.1-22.7-28.6c-10.7-7.3-25.5-12.2-39.3-13.2c-12.2-0.9-13.3,4.7-24.6,0.6c-7.1-2.6-22.6-7.8-32.8-6.7
				c4.3-23-23.1-27.7-36.8-25.9c2.9-4.1,6.4-7.6,10.5-10.5c-2.8-3.3-6.3-5.5-10.5-6.5c6.1-1.3,3.3-11.9,5.2-15.7
				c-11.2-1.8-16.8,15.9-23.6,7.9c2-2.6,8.5-0.2,7.9-5.2c-9.8-6-28.3-2.8-37.2,3.4c-12.1,8.4-23.1-6.7-35.8-5.3
				c-10.5,1.1-14.7,3.7-20.1-5.2c-4-6.5-11.3-7.9-18.5-7c-3.4-2.7-4.5-15.4-11.5-10.7c-4.1,2.7-4.6,9.2,2.3,9.4
				c-5.6,5.2-16,2.7-21,7.9c-2.5-0.3-6.2-8.5-1.2-9.8c21.3-5.4-7.3-11.6-11.5-18.6c-3.1-5.1-7.2-8.5-11.9-10.6
				c-16.6-7.3-41.2,0.9-56.9,2.6c-4.9-6.8-13-13.8-18.8-21.7c-9.2,3.9-18.4,7.1-27.2,11c3.8,2.2,8.3,4,6.6-1
				c5,11.6,15.8,3.4,15.8,18.2c1.9,4.6,14.3,6.7,17.1,6.5c3.1-0.2,6,0.3,8.7,1.3c4.7,1.7,9,4.9,13.3,8.1c6.9,5.1,6.5,3.7,17.4,3.5
				c-1.2-4.6-3-8.9-5.3-13c11.2,0,11.2-6.5,23.6-4c-0.5,4.9,7.9,16.2,5.3,19.6c-10.6,2.8-22.7-0.5-30.3,8.2
				c-3.2,3.7-3.1,17.7-8,18.3c-6.4,0.8-12.1,7.4-12.8,14.1c-2-2.7-4.6-4.4-7.9-5.2c-4.7,3.7,6.8,7.1,2.6,10.4
				c-3.7,0.9-6.3,3.1-7.9,6.5c-0.7,7.3,8.5,13.5,9.2,20.9c0.8,8,4.5,26.8,1,32.9c-1.7,3.1-19.8,13.5-14,14.1
				c-8.7,0.6-2.2,9.6-12,10.1c-7-1.6-9.3,1.4-7,9.2c-1.3,5.9-17.7,28.3-4.5,33.1c0.9,0.3,12.1,1.6,13.1,0.4
				c0,11.7-13.4,9.8-18.3,17.9c-0.9,7.9,16,16.9,4,17c3.3,6.3,11.3,7.8,17.1,10.4c3.5,6,7.7,11.6,12.5,16.7
				c9.4,10.5,19.5,20.6,24.4,34.1c13.6,9.7,17.8,25.7,29.4,35.5c10.5,8.8,23.1,14.7,35.7,19.7c14.2,5.5,25.8,11.4,38.7,19
				c2.2,6.4,9.4,28.2,4,34c-2,2.1-3.4,42.9-1.2,43.1c-1.3,9.6-10.3-5.1-1.9,10.5c2,2.1,2.5,4.3,1.5,6.5c0,0.8-7.5,14-14,10.4
				c0.9,2.6,2.6,4.5,5,5.6c59,8,118.6,9.5,177.8,4.8c-4.8-2.1-5.3-6.6-13.5-5.6c21.5-3.7,40.1,7.1,60.5-3.3
				c4.7-2.4,11.8-11.1,17.7-14.6c-0.3,0.2-0.5,0.5-0.8,0.7c11.8,0.5,39.2-21,40.2-30.6c2.4-23.8,38.1-27,48.8-43.4
				c25.3-3.2,37.5,5.5,54.9-9.6c14.2-12.4,18.2-25.1,27.6-38.5c6.1-8.7-9.8-29.1-4.5-39.2c11.9-3.2,30.9-5.2,36.1-15.5
				C1843.5,1637.8,1872.8,1615.1,1866,1590.1z"/>
			<path class="st18" d="M918,468.5c12.3,1.5,11.4,6.6,19.6,14.4c1.5-3.2,29.8-35,32.7-31.4c-2.7,1.7-4.8,3.9-6.5,6.5
				c1.4-0.8,2.7-0.8,3.9,0c-4,2.6-7.1,6.1-9.2,10.5c8.4,0.1,21.9-5.9,26.7-8.2c12.1-5.9,23.3-13.4,33.6-22
				c8.5,1.4,16.9-10.6,27.4-11.4c12-0.8,25.6-6.3,32.9-16.2c-4.5-4.5-10.4,5.7-13.1,2.6c5.9-5.5,27.5-7.1,24.9-15.7
				c-9-2.9-17.8,5.3-26.2,0.1c5.9-5,3-10.7,2.6-17c-16.3-1.2-19.9,11.2-26.2,22.3c-4.8,0.1-0.6-6.6-2.6-6.5
				c-8.8,1.3-12.8,9.4-19.7,14.4c0.1,1.2-31.2,15.1-40.9,13.9c-12.1-1.4-12.9-8-25.8-6.6c-2.1,0.2-4.2,0.5-6.3,0.7
				c-5.5,4.8-10.9,9.7-16.3,14.7c0.1,1.5-0.5,3.4-2.3,6.1c-6.7,10.6-7.3,6-8.1,18.5C917.8,462.5,905,466.9,918,468.5z"/>
			<path class="st18" d="M879.5,483.8c-2.7,3-6.2,6.7-9.1,10.1c7-2.9,14-5.4,16.5-7.9C885.7,484.1,883,483.5,879.5,483.8z"/>
			<path class="st18" d="M2266.6,806.2c0.5-9.2-1.1-16.4-4-22.2C2258.6,790.6,2260.9,802,2266.6,806.2z"/>
			<path class="st18" d="M2130.9,579.3c-1.7-1.9-0.4-10.2,2.6-6.5c-9.9,10.2,23.5,26.2,22.4,39.1c-3.1-1.6-6.1-1.6-9.2,0
				c1.7,3.5,3.4,7,5.3,10.4c-2.1,0.8-4.3,1.2-6.6,1.3c0.9,10.9,14,9,18.4,16.9c-3.3-0.8-6.3-2.1-9.2-3.9
				c-6.6,24.1-7.7,5.6,10.5,18.3c-0.5-2-0.1-3.8,1.3-5.2c9.8,3.7,15.5,8.6,27.6,10.4c0.8-1.4-0.8-15.8-1.4-18.3
				c-4.3-10.6-16.1-22.6-22.7-32.6c-7.3-10.9-16-21.2-23.4-31.3c-1.5-20-8.8-12.8-17.1-27.4c2.7-0.1,4.4-1.4,5.2-3.9
				c-5.6-3.7-11.3-7.2-17.1-10.4c0,3.3,0.9,6.3,2.6,9.1c-0.9-0.3-1.8-0.7-2.6-1.3C2118.4,550.5,2123.9,577.9,2130.9,579.3z"/>
			<path class="st18" d="M2301.5,922.5c-4.6-9.2-9.9-16.9-14.2-17.8c-10.1-1.9,7.1-47.1-12.7-49c-5.4,4.7-17.7-0.8-24.5-2.5
				c-11.6-2.8-19.4,0.7-26.7,7.8c1.1,3.2-32.3,9.1-39.5-5.5c-4.5-9,13.4-8.5,17-8.2c15,1,12.7-12,19.3-21.3
				c4.3-6.2,0.2-8.1-3.5-14.6c2.7-5.9,4.9-12,6.5-18.3c21,2.4,2.8-20.7,11.8-26.1c4.2,4.3,9,7.8,14.5,10.4c1.7-4.2,4.3-7.7,7.8-10.5
				c10.2,13.7,13.3,31,21.1,45.6c0.1,0.2,0.3,0.5,0.4,0.7c-16.2-57.8-38.8-114.2-67.9-167.9c-3.2,2.8-6,8.5-5,14.6
				c-10.1-4.9-8.3,7.7-13.2,11c-5.1,3.4-6.4,0.7-8.2-2.1c-1.3-1.9-2.8-3.9-6.1-3.7c2.1,4.6,3.4,9.4,4,14.3c-9-7.1-10.8-5.7-22.3-7.8
				c-1.5,11.7,23.5,30.4,30.7,40.9c4.7,6.7,11.6,31.5,6.3,40c-12.2-9-50.1-23-60.4-12.9c-1.5,6.4,7.3,30.5,8.8,38
				c1.3,6.5-0.8,24.7-3.3,31.2c18.3,10.4-4.9,31.9,26.3,26c13.3,15.8,12.8,36.4-3.3,48c-14.2,10.3-8.1,17.4-16.3,28.1
				c-8.7,11.5,5.8,23.9-5.8,37.4c-8,9.3-20.1,13.6-23.7,24.2c-5.2,15.4-19.9,21.6-20.1,40.1c-14.5,6.8-10.9,19-20.9,28.8
				c-7.7,7.5-1.2,19.1-2.6,28.7c2-0.5,3.8,0,5.3,1.3c3.1,5.3,4.7,29.7,4.2,35.6c-0.8,9.2-2.9,32-8.7,39.1
				c-11.3,13.7,1.8,17.8-1.5,30.5c-2.6,10,2.6,24.1,15.6,21.5c-7.7,15.3,22.5,25.1,18.5,45.7c4.2,12.4,25.7,25.8,36.6,35.4
				c11.5,10,19.9,3.3,28.6-3.4c8-6.2,16.3-12.5,27.5-5.3c4.2,2.7,39.7-27.1,46.3-30.9c5.1,5.1,3.4,14.6,5.3,20.9
				c5.9-1.4,10.7-4.4,14.4-9.2c4.5,25.1-13.8,45.4-12,69c0.1,0.8,0.1,1.7,0.1,2.5C2304.8,1194.4,2319.8,1056.5,2301.5,922.5"/>
			<path class="st18" d="M2099.5,606.8c13.2,21.6,51.9,18.2,31.5-10.5c10.6-0.7-13.2-27.5-19.8-26.1c-2.7,1.7-4.9,3.9-6.5,6.5
				c2.7,0.1,4.4,1.4,5.3,3.9c-4.7,0-7.9-3.6-13.1-3.9C2093.3,583,2115.4,609.4,2099.5,606.8"/>
			<path class="st18" d="M1547,218.1c-7,1-14.5,0.9-22,0.7c-13.3-0.2-26.7-0.5-38.1,5.5c6.1-0.2,11.8,1.1,17.1,3.9
				c-1.4,0.2-3.5,0-5.8-0.2c-5.2-0.4-11.6-0.9-13.9,2.9c3.7,1,5.6,0.8,6.5,0.5c1.4-0.4,11.9,7.1,10.4,11.3
				c34.1,4.5,57.4-13.1,86.8,8.8c-0.2,1.6-13.5,10.9-11.2,12.2c9.9-2.1,12.5-3.6,20.4-1.8c-1.9,0.5-3.7,1.4-5.3,2.6
				c4.9,0.4,9.3,2.2,13.1,5.2c-0.3,0-13.5,0.1-11.8,1.3c2.5-0.8,4.7-0.4,6.6,1.3c-2.8,0.4-4.9,1.7-6.6,3.9c1.6-0.4,2.9,0.1,3.9,1.3
				c-2-0.1-4,0-6,0.1c-6.3,2.9,16.7,4.6,26,3.7c0.5-1.4,1.7-1.8,3.6-1.3c0.5,0.6-1,1.1-3.6,1.3c-0.1,0.4-0.2,0.8-0.3,1.3
				c9,3.1,24,2.2,28.9,9.1c-3.2-0.6-2.4,0.5-1.6,1.7c1.1,1.6,2.2,3.2-8.2-0.2c-8.8-2.8-23.8-8.1-32.2-1.4c2.3,0.5,4.1,1.9,5.3,3.9
				c-8.3-1.3-13.4,17.8-13.1,18.1c6.1,6,39,2.7,44.6-9.1c-3.8-2-7.8-3.7-11.8-5.2c6.2,1,12.3,2.3,18.4,3.9c-1.6-0.4-2.9,0.1-3.9,1.3
				c0.4,2.7,2.8,2.4,4.9,2.1c1.5-0.2,2.8-0.4,3,0.5c4.5,16.2-21.8,11.8-30.1,17.1c7,1.3-4.6,5.8-5.6,9.3c-2.6,4.6-1.5,6.4,3.3,5.4
				c-1.4,0.8-2.8,1.6-4.2,2.3c4.8,5.3,15.5,0.8,19.7,5.2c-23.5,0.1-8.6,13.5,10,16.4c0,9.9-5.3,12.9,4.5,14.9
				c-8.2-0.3-6.5,4.4-2.8,9.1c3.6,4.6,9.1,9.1,9.1,9.1c2.2,6.6-0.2,3.3,6.5,8c2.3,1.6,12.1,1.5,13.6,3.8c-2.2,8.1-1.7,15.2-0.4,24.7
				c10.6,3.4,17.4-7.5,22.1,0.1c0.7,1.1,5.3,4.3,6.8,4.3l0.5-0.4c0,0.3-0.2,0.4-0.5,0.4c-8.7,8.2,16.7,8.2,20.2,8.7
				c0.4,3.5,2.3,5.5,5.8,5.7c4.9,0.1,4.8,1.7-0.5,4.7c9.7,0.7,18.1-0.4,27.6-2.7c-2.1,1.4-2.5,3.2-1.3,5.2c8.4,2,6.5-6.4,7.9-6.6
				c1.1,0.1,14.2,1.1,14.4,2.6c-3.5,1.1-6.1,3.3-7.9,6.5c6.6,1.2,13.2,2.5,19.7,3.9c-8.1,9.3,3.5,5.1,11.8,9.1
				c4.4-1.9,8.7-1.7,12.9-1.5c4,0.2,7.9,0.3,12-1.2c2.5-7.9-0.3-6.6-2-5.3c-1.6,1.7-1.1,0.8,0,0c1-1,2.8-3,5.9-6.4
				c-2.3-6.5-8.4-3.1-4-16.2c5-14.8-4.8-11.2-10.6-22.9c2.7,0.1,5.3-0.4,7.9-1.3c0.2-3.1-1.1-5.3-3.9-6.5c6.7-1.1,13.3,0.7,17-10.5
				c-4.8-2.5-9.2-5.5-13.2-9.1c3.3,0.8,6.3,0.3,9.2-1.3c-2.8-3.3-5.9-6.3-9.2-9.1c3.2,0.6,6.3,0.1,9.2-1.3c-0.5-3.5-2.2-6.1-5.3-7.8
				c17.1,5.9,28.9,15.2,44.8,14.8c-0.9-2.1-1.6-23.1-1.5-25.4c3.5,2.6,7.4,3.9,11.8,3.9c2.5-8.5-4.3-16.9,3.9-23.5
				c5.7,2.1,14.4,6,20.4,2.6c0.1,0,13.1-1.5,19.1-4.4C1809.3,268.6,1678.9,227.6,1547,218.1"/>
			<path class="st18" d="M2288.8,852.7c-0.6-0.6-1.2-0.8-2.4,0.4c0.3,6.2,2.7,10.8,5.8,15.4C2291.1,863.3,2290,858,2288.8,852.7z"/>
			<path class="st18" d="M2273.3,834.9c-0.8-14.3-2.5-20.7-10.6-27.4c2.3,9.3,2.2,20.6,7.9,28.7
				C2270.6,833.8,2271.5,833.4,2273.3,834.9z"/>
			<path class="st18" d="M1317.5,244.3c7.8-2,15.6-4,23.7-3.9C1335.3,241.9,1326.4,242.8,1317.5,244.3c-5,1.3-9.9,2.6-15,3.4
				c-4.3,1.4-8.1,3.2-10.6,5.5c1.7-1.1,1.1,2.8-0.5,4c2.9-0.5,8.7-1.1,3.9-3.6c4.5-1.3,25.4-3.3,28.9-0.1
				c-6.6-0.2-46.2,3.2-47.2,13.2c7.4-0.5,27.2-6,32.8-1.4c-7.1,2.4-70,6.4-66.9,23.7c10.7-0.2,25-6.7,36.1-8.4
				c12.3-1.9,26.1-5.4,38.1-8.9c13.7-4.1,43.7,2.8,53-13c-13.8-0.5-29.9,6.5-43.3,2.7c10.9-2.9,22.4-1.5,33.3-4.4
				c8.1-2.2,8.8-6.5,16.9-7.2c6.9-0.7,27.8-6.1,31.1-13.4c-7.5-1.1-16.5,3.6-23.6,1.4c13.5-4.6,28.9-0.5,42-6.6
				c-2.9,0.8-5.5,0.4-7.9-1.3c8.5,0.6,58.8-10.6,83.8-13.4c-1.6,0.1-3.1,0-4.4-0.3c-23.6-0.3-47.2,0.4-70.7,2.1
				c-21.5,2.9-42.8,7.1-63.8,11.9c-20.4,4.7-49.4,6.4-67,18.2c2-0.1,3.9-0.4,5.9-0.7C1307.1,246.2,1312.3,245.1,1317.5,244.3z"/>
			<path class="st18" d="M1288.8,251c1.6-0.6,3-1.4,3.9-2.6C1291,248.1,1285.5,250.4,1288.8,251z"/>
			<path class="st18" d="M1211.7,282c1.1,0.1,2.1-0.7,2.9-0.7h0c0.8,0,1.4-0.1,1.7-0.8c13.3-4.1,30.3-7.5,38.4-7.5
				c8.6-7.1,22.7-11.6,32.3-15.7c-2,0.9-7.3-1.8-7.4-2.4c0.5-0.6,1-1.1,1.6-1.5c-1.3,0.5-3,1-4.9,1.6c-3.9,0-10.6,3.4-14.4,4
				c0.2,0,0.4,0,0.7-0.1c0.2,0-1.4,1.2-1.1,1.2l1.9-1.2c1.6,0-4.9,2-2.7,1.9c-2.2,0,4.3-1.9,2.7-1.9c-25,7.5-62.7,18.9-61.1,27.3
				C1204.7,284.9,1207.9,283.3,1211.7,282z"/>
			<path class="st18" d="M2004.5,416.4c-0.6-4.9-13.3-14.6-17.6-17.1c-2.9-1.7-3.1-0.8-3.6,0.2c-0.7,1.1-1.9,2.3-9.4-1.3
				c-3.1-1.5-25.4-9.2-25.9-7.8c2,1.5,2.5,3.2,1.3,5.2c-0.2-2.5-20.6-17-27.6-18.2c-1.6,3,5,4.3,2.6,5.2c-4.6-1.7-12.6-5.5-13.1,1.3
				c4.5,9.4,21.6,1.2,25,11.7c-1.4,0.4-3.7-0.2-6.1-0.8c-4.1-1-8.5-2-9.7,2.1c6.7,4.1,17.4,3.3,22.3,10.4c-3.9-1.2-6.1,0.1-6.6,3.9
				c7.7,2.3,82.5,30.8,81.4,16.8c-0.1,0-1.4-2.9-3.5-5.9C2011.8,419.1,2008.6,416,2004.5,416.4"/>
			<path class="st18" d="M1373.8,1201.4c-0.2-12.1-13.6-12.1-22.3-11.7c-0.5-3.1,4.1-3.9,1.3-6.5c-8.7-4.1-18.3-5.9-27.6-7.8
				c-2.4-6.6-9.2-9.2-15.3-11c-11.3-3.3-21.2-13.2-31.8-12.9c-14.2,0.3-25.3-6.1-40.8-1.9c-7,1.9-27.2,12.6-20.9,23.6
				c7.4,1.7,29-11.7,36.7-15.8c2.1,12.3,17.8,9.7,30.2,15.6c10.5,5,18.6-0.2,23.2,10.2c4,9,12.3,5.9,20.1,10.6
				c-2.7,4.6-9,3.4-7.9,10.5C1336.9,1201.2,1355.5,1203.9,1373.8,1201.4z"/>
			<path class="st18" d="M1317.7,1232.6c1.2,0.7,26.2,5.8,24.7-1.1C1335.8,1219.4,1294.6,1219.6,1317.7,1232.6z"/>
			<path class="st18" d="M1390.1,1230.5c5.5,1.4,11,1.7,16.6,0.9c2.6,4.6,6.5,7.2,11.8,7.8c2.9-25.3,45.4,3,45.9-15.8
				c-10.5-12.6-32.7-22.2-46.5-20.9c-7.3,0.7-33.9-6.3-36.2,2.8c0,0,16.8,17.3,15.8,16.9c-10,4.4-19-5.5-28.9-1.2
				C1366.4,1236.2,1383.4,1229.3,1390.1,1230.5z"/>
			<path class="st18" d="M1479.7,1228.8c0.5,12.9,28.6,5.9,26.8-1.6C1503.1,1226.9,1479.1,1216.1,1479.7,1228.8z"/>
			<path class="st18" d="M1006.2,393.4c-5.2,0.1-19.2-2.6-19.5,6.6c9.6,8,43.5-3.3,40.6-17.1c-4.1-0.5-7.6-2.2-10.5-5.2
				c-7.1-0.2-13.6,1.6-19.7,5.3C994,383.3,1004.9,392.8,1006.2,393.4z"/>
			<path class="st18" d="M1205,313.8c25.1-2.8,48.1-16,72.9-16.3c7.3-0.1,18.5-1.8,22.8-8.8c5.6,7.5,17.2,2.4,24,0.9
				c9.4-2.1,12.3-6.1,21.9-11.4c-22.4-6.5-49.1,1-70.3,8.9c-9.6,3.6-15.7,2.6-25.4,6.4c-6.2,2.4-23.2,0.1-27.6,4.6
				c3-5.3,10.8-3.3,14.4-7.9c-12.1,0.6-23.1,4.6-34.1,9.2c-0.3,5.6,5.1,1.2,5.3,3.9C1206,308.1,1203.2,307.3,1205,313.8z"/>
			<path class="st18" d="M1384.9,366.9c-13.8-4.5-31.5-0.8-31.5,15.7C1365.9,387.6,1386.4,383.8,1384.9,366.9z"/>
			<path class="st18" d="M1477,331.3c-5.8,0.9-12.7,4.1-18.7,2.8c5-1.1,9.8-2.9,14.4-5.2c-1.4-6-11.3-5.4-20.6-4.7
				c-8.4,0.6-21.7,7.7-22.9,3.5c7.6-0.4-11.3-21.1-18.3-6.5c-1-8-6.8-6.4-12.5-4.9c-3.1,0.9-6.2,1.8-8.5,1c4.5-1.2,8.4-3.4,11.8-6.6
				c-9.1-6.5-57.3-12-57.7,6.7c-5.7-4.1-9.7-2.3-13.6-0.5c-3.5,1.5-6.9,3.1-11.3,0.6c3.6-3.5,6.7-7.4,9.1-11.8
				c-14-13.4-39-1.8-52.5,6.7c2.5-0.8,4.7-0.4,6.6,1.3c-5.8,0.1-15.8,0-17,7.9c2.1,0.8,3.9,2.1,5.3,3.9c-4-0.2-6.6,1.5-7.9,5.2
				c1.7,4.3,9.5,0.3,10.5,5.2c-4.1,4-8.9,5.4-14.4,3.9c3.3,0,5.9-1.3,7.9-3.9c-4.1-6.7-12.1-7.1-13.2-14.3c6.2-7,16.3-8.4,22.3-15.7
				c-16.4,2-63.1,14-56.3,32.8c-4.9,0.5-8,3.1-9.2,7.9c3.5,0.3,6.9-0.2,10.3-0.6c5.3-0.7,10.6-1.3,15.9,0.5c-5,4.2-17.7,0-19.7,7.9
				c5.2,5.9,16,3.1,22.1,1.2c7.3-2.3,7-1.2,8.5-0.2c1.2,0.9,3.6,1.7,12.3,0.7c18.7-2.2,36.1-3.8,54.3-3.2c1.2-7.6,5.2-6.2,10.6-5
				c3.7,0.9,7.9,1.7,12.5-0.1c13.8-5.5-2.6-7.3-3.4-9.4c5.7-3.7,38.1,11.7,43.3,14.3c-4.6,2-9.4,2.9-14.4,2.7
				c-1.9,11.5,12.2,4.5,17.8,2.9c11.9-3.4,10,3.6,20.9,5.9c29.1,6.2,5,28.9-12.4,32.9c-0.2,4.8,11.4,7.9,9.2,11.7
				c-15.3,1.4-26.4,3.7-41.1,4.3c-7,0.3-22.6,7.2-20.5,18.1c9,0.5,45.5-5.6,46-12.8c0.3-4.1,39.6,17.4,44.6,21.7
				c-3,0.5-4.8,2.2-5.2,5.2c11.1,8.6,28.1,7,36.8,19.6c15.6-1.8,30.6,2.5,45.9,3.7c0-20.6-14.7-20.9-41.8-26.9
				c16.8,3.7,40.2-0.8,43,1c7.7,4.8,7,14,15.8,14.1c0.5-1.9,1-13.4,0-14.4c1.6,1,3.4,1.4,5.3,1.3c2.4-12.4-7.4-12-13.2-19.5
				c2.4,0.6,3.7-0.3,3.9-2.6c-6.7,0.1-43.1-21.8-40.7-24.7c3.4,3,7.3,3.8,11.8,2.6c1.3-6.6-5.8-4-6.6-9.1c12.6-4.6,27.9-5.9,38,1.9
				c8.2,6.4,11.2,21.8,21.1,21.5c1.4-3.9-5-8.7-1.4-11.8c5.5-0.5,12.9-2.8,18.4-2.6c4.1-2.4-4.4-4.4,0-6.5c9.6,0.9,17.5-6.4,4.3-11
				c-10.8-3.8-12.1,0.8-17.5-5.9c-6.3,0.3-15,3.9-21,0.1c3.8,1.2,6.9,0.4,9.2-2.6c-9.4-14.7-44.9-10.3-60.4-19.4
				c1.9-1.7,4.1-2.1,6.6-1.3c1.4-3.4-6.8-4.8-4-6.5c6.8,2.5,13.8,3.4,21,2.6c0.9-6.2-4-6.2-9-6.1c-4,0-8,0.1-9.4-3
				C1503.8,339.2,1486,330,1477,331.3"/>
			<path class="st18" d="M1262.9,450.9c5.4-0.1,41.2,20.4,40.7-0.1c-6.8-2.6-13.8-3.5-21-2.6c3.7-12.2-14.8-4-23.1-7.4
				c-18.6-7.5-1.8-5.4-15-6.9c0.4-5-1.8-8-6.6-9.1c-3.6,7.1-10,12.3-12.2,20.2c-3.9,13.7-9.5,9.4-15.3,21.7c7.2,1,14.4-5.5,21-4
				c-0.7,2.6-0.7,5.2,0,7.8c11.3-0.4,17.7-10.9,28.8-11.8C1263.3,456.4,1258.2,451.6,1262.9,450.9z"/>
			<path class="st18" d="M1140.9,396.2c-4.6,0.4-16.1-5.9-22.3-6.5c-4.1,3.8-16.7,13.7-18.3,18.3
				C1114.9,406.3,1131,410.5,1140.9,396.2z"/>
			<path class="st18" d="M1281.3,253.3c1.4-0.5,2.4-0.9,3-1.2C1283.1,252.3,1282.1,252.7,1281.3,253.3z"/>
			<path class="st18" d="M1197.9,317.6c-9.9-3.5-86.4,9.3-87.6,18.1C1131.3,332.6,1191.7,352.8,1197.9,317.6z"/>
			<path class="st18" d="M1656.1,660.8c-1.6,0-3.1,0.2-4.6,0.5c-9.9,2-15.6,10.6-19.9,19.9c-4.3,9.2-7.5,19.2-12.4,24.1
				c-0.4,0.4-0.9,0.8-1.3,1.1c-3.8,3.1-4.2,6.7-1.3,10.7c-4.9,0.6-8.6,3.1-11.1,7.3c-0.6,1.5-0.8,2.8-0.6,3.9c0.5,3.3,4.3,4.5,8.7,5
				c1.5,0.1,3.1,0.2,4.6,0.2c1.5,0,2.9-0.1,4.3-0.1c1.4,0,2.7-0.1,3.7-0.1c0.5,0,1,0,1.4,0c0.7,0.1,2,0.1,3.6,0.1
				c2.9,0,7-0.1,11.4-0.2c4.5-0.1,9.3-0.2,13.7-0.2c3.2,0,6.1,0,8.3,0.1c2.7,0.1,4.4,0.4,4.6,0.9c-0.7,0.3-1.3,0.6-2,0.9
				c-4.5,2.3-8.2,5.4-11.1,9.6c2.2,1.1,4.2,1.6,6,1.6c4.4,0,7.8-2.8,11.1-5.5c0.3-0.3,0.6-0.5,1-0.8c3-2.5,6-4.7,9.8-4.7
				c0.7,0,1.5,0.1,2.2,0.2c-1.1,11.1-3.6,10.9,9.4,15c1.8,0.6,3.3,0.8,4.5,0.8c5,0,5.3-4.7,6.9-10.5c3.5-12.3-12.8-10.3-15.5-13.2
				c-0.4-3.6,1.9-4.8,4.4-5.8c2.9-1.2,6.1-2.2,4.8-7.3c-1-0.6-2-0.9-2.8-0.8c-1.3,0-2.6,0.6-3.8,1.1c-1.2,0.6-2.6,1.1-4.1,1.1
				c-0.3,0-0.7,0-1.1-0.1c0.2-6.4,10.2-14-1.8-16.7c-1.9-0.4-3.7-0.6-5.3-0.6c-2.3,0-4.4,0.3-6.3,0.7c-1.9,0.3-3.8,0.7-5.6,0.7
				c-3.3,0-6.7-1-11.1-4.9c15.1-4.4-3.8-5.3-10-5.3c-1,0-1.6,0-1.8,0.1c3.6-5.1,12.1-14.8,16.1-21.9c1.2-2.2,2-4.1,2.2-5.6
				C1661.7,661.2,1658.8,660.8,1656.1,660.8"/>
		</g>
	</g>
</g>
<g id="Layer_4">
	<path class="st3" d="M782.6,2248.6l-548.3-462.7l-142,3.6l67.1-66.8l-38.7-32.7c-16.7-14.1-18.8-39-4.6-55.6l336.7-394.9
		c14.2-16.6,39.2-18.7,55.9-4.6l661.9,558.5c16.7,14.1,18.8,39,4.6,55.6L838.4,2244C824.3,2260.7,799.3,2262.7,782.6,2248.6z"/>
	<path class="st15" d="M427.6,2177.8l445,375.5l16.6,112.7l44.1-61.4l31.4,26.5c13.6,11.4,33.7,9.9,45-3.3l269.2-315.7
		c11.3-13.3,9.5-33.3-4-44.8L737.8,1814c-13.6-11.4-33.7-9.9-45,3.3L423.6,2133C412.3,2146.3,414.1,2166.4,427.6,2177.8z"/>
	<g>
		<g>
			<g>
				<path class="st6" d="M423.9,2131.9c-11.3,13.3-9.5,33.3,4,44.8l445,375.5l16.6,112.7l44.1-61.4l31.5,26.5
					c13.6,11.4,33.7,9.9,45-3.3l130.6-153.2l-586.3-494.8L423.9,2131.9z"/>
			</g>
		</g>
	</g>
	<path class="st12" d="M770.4,2161.9c-12.7,15-35.3,16.8-50.3,4.1c-15-12.7-16.9-35.1-4.1-50c12.7-15,35.3-16.8,50.3-4.1
		C781.3,2124.6,783.2,2147,770.4,2161.9z"/>
	<path class="st12" d="M875.8,2250.9c-12.7,15-35.3,16.8-50.3,4.1c-15-12.7-16.9-35.1-4.1-50c12.7-15,35.3-16.8,50.3-4.1
		S888.6,2235.9,875.8,2250.9z"/>
	<path class="st12" d="M974.6,2334.2c-12.7,15-35.3,16.8-50.3,4.1c-15-12.7-16.9-35.1-4.1-50c12.7-15,35.3-16.8,50.3-4.1
		C985.5,2296.9,987.4,2319.3,974.6,2334.2z"/>
</g>
<g id="Layer_9">
	<path class="st6" d="M3291.2,355.4h-49c-6.6-27.2-17.6-52.7-32-75.8l0.2-0.2l34.6-34.5c7.7-7.7,7.7-20.1,0-27.7l-60.2-59.9
		c-7.7-7.7-20.2-7.7-27.9,0l-34.6,34.5c-24-14.5-49.9-24.9-76.5-31.1v-0.2v-48.7c0-10.8-8.8-19.6-19.7-19.6h-85.2
		c-10.9,0-19.7,8.8-19.7,19.6v48.7c-27.3,6.6-53,17.5-76.2,31.8l-0.2-0.2l-34.6-34.5c-7.7-7.7-20.2-7.7-27.9,0l-60.2,59.9
		c-7.7,7.7-7.7,20.1,0,27.7l34.6,34.5c-14.6,23.9-25.1,49.6-31.3,76.1h-0.2h-49c-10.9,0-19.7,8.8-19.7,19.6v84.7
		c0,10.8,8.8,19.6,19.7,19.6h49c6.6,27.2,17.6,52.7,32,75.8l-0.2,0.2l-34.6,34.5c-7.7,7.7-7.7,20.1,0,27.7l60.2,59.9
		c7.7,7.7,20.2,7.7,27.9,0l34.6-34.5c24,14.5,49.9,24.9,76.5,31.1v0.2l0,48.7c0,10.8,8.8,19.6,19.7,19.6h85.2
		c10.9,0,19.7-8.8,19.7-19.6v-48.7c27.3-6.6,53-17.5,76.2-31.8l0.2,0.2l34.6,34.5c7.7,7.7,20.2,7.7,27.9,0l60.2-59.9
		c7.7-7.7,7.7-20.1,0-27.7l-34.6-34.5c14.6-23.9,25.1-49.6,31.3-76.1h0.2h49c10.9,0,19.7-8.8,19.7-19.6V375
		C3310.9,364.2,3302,355.4,3291.2,355.4z"/>
	<path class="st12" d="M2983.7,256.7c-89.3,0-161.7,72-161.7,160.9c0,88.9,72.4,160.9,161.7,160.9s161.7-72.1,161.7-160.9
		C3145.4,328.7,3073,256.7,2983.7,256.7z M2983.7,493.5c-42.1,0-76.3-34-76.3-75.9c0-41.9,34.2-75.9,76.3-75.9
		c42.1,0,76.3,34,76.3,75.9C3059.9,459.5,3025.8,493.5,2983.7,493.5z"/>
	<path class="st10" d="M2983.7,193.6c-126.4,0-228.8,101.9-228.8,227.6c0,125.7,102.4,227.6,228.8,227.6
		c126.4,0,228.8-101.9,228.8-227.6C3212.4,295.5,3110,193.6,2983.7,193.6z M2983.7,640.4c-121.7,0-220.3-98.1-220.3-219.2
		c0-121.1,98.6-219.2,220.3-219.2c121.7,0,220.3,98.1,220.3,219.2C3203.9,542.3,3105.3,640.4,2983.7,640.4z"/>
</g>
<g id="Layer_10">
	<path class="st9" d="M2731.3,790.9h-538c-67.4,0-122.6-54.9-122.6-122V403.6c0-67.1,55.2-122,122.6-122h538
		c67.4,0,122.6,54.9,122.6,122v265.3C2853.9,736,2798.7,790.9,2731.3,790.9z"/>
	<path class="st3" d="M2473.6,790.9h-277.8c-68.8,0-125.1-56-125.1-124.5V406.1c0-68.5,56.3-124.5,125.1-124.5h277.8V790.9z"/>
	<polygon class="st18" points="2636.4,541.5 2362,699.1 2362,383.9 	"/>
</g>
<g id="Layer_11">
	<path class="st17" d="M3176.8,366.1l-229.1,129c-20.9,11.8-32.1,38.3-24.8,59.1l182.2,527.4c7.2,20.9,29.7,27.3,50.2,14.3
		l229.2-128.2l37.7-22.4l-17.8-51.5l-177-512.3l-12.7-36.7L3176.8,366.1z"/>
	<path class="st11" d="M3193.4,399.8l-203.8,114.8c-18.6,10.5-28.5,34-22.1,52.6l162.1,469.2c6.4,18.6,26.4,24.3,44.7,12.7
		l203.5-114.8l33.9-19.2l-15.8-45.8l-157.4-455.8l-11.3-32.7L3193.4,399.8z"/>
	<path class="st17" d="M3804.6,866.9l229.1-129c20.9-11.8,32.1-38.3,24.8-59.1l-182.2-527.4c-7.2-20.9-29.7-27.3-50.2-14.3
		L3597,265.3l-37.5,23.2l17.5,50.8l177,512.3l12.7,36.7L3804.6,866.9z"/>
	<path class="st11" d="M3790.9,840.8l201.2-114c18.4-10.4,28.1-34,21.6-52.6l-162.5-470.5c-6.4-18.6-26.3-24.4-44.3-12.9L3605.6,304
		l-33.1,19.8l15.9,46l157.9,457.1l11.3,32.8L3790.9,840.8z"/>
	<polygon class="st22" points="3767.3,888.1 3421.9,944.5 3214.7,344.8 3560.1,288.3 	"/>
	<polygon class="st11" points="3757.5,859.7 3411.7,915.1 3227,380.6 3572.1,323.1 	"/>
	<polygon class="st21" points="3227,380.6 3393.1,861.3 3393.1,861.3 3411.6,914.6 3757.4,859.7 3572.1,323.1 	"/>
	<path class="st11" d="M3225.1,381.7L3409.7,916l-2.2,1.3l-27.6,15.6l-4.1,2.3L3172.2,1050c-18.3,11.5-38.3,5.8-44.7-12.7
		l-162.1-469.2c-0.8-2.2-1.3-4.5-1.6-6.9c-0.4-3-0.4-6.1-0.1-9.2c1.4-14.5,10.3-29,23.9-36.6l23.6-13.3l8.7-4.9l18-10.2l16.7-9.4
		l43-24.2l17.2-9.7l76.6-43.2L3225.1,381.7L3225.1,381.7z"/>
	<path class="st11" d="M3849.2,204.6l162.5,470.5c6.4,18.6-3.3,42.2-21.6,52.6l-201.2,114l-33.3,18.9l-185.1-535.8l33.1-19.8
		l0.1-0.1l31.2-17.6l75.5-42.5l94.4-53.1C3822.9,180.1,3842.7,185.9,3849.2,204.6z"/>
	<path class="st2" d="M3849.2,204.6l162.5,470.5c6.4,18.6-3.3,42.2-21.6,52.6l-201.2,114l-33.3,18.9l-25.3-73.3c0,0-0.1,0-0.1,0.1
		l25.3,73.3l-345.9,54.9l0.2,0.5l-2.2,1.3l-27.6,15.6l-4.1,2.3L3172.2,1050c-18.3,11.5-38.3,5.8-44.7-12.7l-162.1-469.2
		c-0.8-2.2-1.3-4.5-1.6-6.9c-0.4-3-0.4-6.1-0.1-9.2c1.4-14.5,10.3-29,23.9-36.6l23.6-13.3l8.7-4.9l18-10.2l16.7-9.4l43-24.2
		l17.2-9.7l76.6-43.2l33.7-19l-0.1-0.3l15.8-2.6l17.2-2.9l81.6-13.6l25.1-4.2l205.2-34.2l1.8,5.3l0.2,0l-1.6-4.5l33.1-19.8l0.1-0.1
		l31.2-17.6l75.5-42.5l94.4-53.1C3822.9,180.1,3842.7,185.9,3849.2,204.6z"/>
	<path class="st18" d="M3869.3,262.7l-265.5,42.1l-0.1,0.1l-33.1,19.8l1.6,4.5l141.8-20.4l87.3,108.2c0,0,4.2,5.3,4.9,10.4
		l-189.7,30l-0.2,0l-345.9,54.8l0,0L3082.1,542l-44.2-54.8l-18,10.2l44.1,50.4l-75.7,12c0,0-10.5,2.7-24.3,1.5
		c0.3,2.3,0.8,4.6,1.6,6.9l3.2,9.3c3.5,0,7-0.3,10.5-0.8c0.6-0.1,1.1-0.2,1.7-0.2l296.9-42.1l0,0l22.1-3.1l0,0l20-3.4l302.7-51.2
		l0.2,0l190.3-32.2l3.2-0.5l17.8-2.9l8.2-1.3c0,0,9.2-7.3-1-16.6l-11.9,1.3c0,0-10.3-16.2-24.1-33.5l-70.2-86l140.4-23.8
		L3869.3,262.7z M3571.9,329.2l-1.8-5.3l-205.2,34.2c1.4,0.3,2.7,0.4,3.8,0.3L3571.9,329.2z"/>
	<path class="st1" d="M3045.9,541.9l-59.5,9.4c0,0-10.1,2.6-22.6,0.7c1.4-14.5,10.3-29,23.9-36.6l23.6-13.3L3045.9,541.9z"/>
	<polygon class="st8" points="3307.3,439.2 3314.8,476.2 3675.3,419 3669.3,385.1 	"/>
	<polygon class="st8" points="3294.4,443.6 3296.5,488.2 3263.7,493.4 3263.7,493.4 3090.6,521.1 3054.6,477.7 3097.6,453.6 
		3113.1,472.8 3249,450.9 3249,450.9 	"/>
	<polygon class="st19" points="3277.2,425.3 3241.8,429.9 3241.7,429.9 3116.4,446 3114.8,443.9 3191.4,400.7 3225.1,381.7 
		3225,381.5 3240.9,378.8 	"/>
	<polygon class="st19" points="3370.1,369.8 3377.9,415 3666.9,373.4 3658.1,324.1 	"/>
	<polygon class="st19" points="3710.5,244.7 3714.9,275.6 3635,287.2 	"/>
	<polygon class="st19" points="3809.6,453.7 3334.3,532.5 3391.3,611.3 3827.2,539.3 	"/>
	<polygon class="st8" points="3719,562.2 3725.4,594.4 3812.9,581.1 3807.1,549.3 	"/>
	<polygon class="st8" points="3399.2,619 3411.9,643.8 3710.1,595.4 3706.8,566.4 	"/>
	<polygon class="st18" points="3973.5,564.4 3980,583.3 3862.1,601 3866.2,627 3848.3,630.7 3843.9,602.8 3675.6,629 3675.4,629 
		3329.2,683 3329.2,683 3312.9,685.5 3022.4,732.9 3016.3,715 3323.4,666.2 3323.4,666.2 3386.4,656.2 3299.9,531 3320,527.6 
		3320,527.6 3407.6,653.1 3669.8,612.8 3670,612.7 3843.4,586.1 3816.3,443.7 3816.4,443.6 3834,439.6 3834.2,440.7 3858.8,580.8 	
		"/>
	<polygon class="st8" points="3359.9,642.1 3317.5,649 3317.5,649 3187.6,670.3 3151.7,602.5 2985.9,627.1 2972.5,588.3 
		3280.4,541.8 3280.4,541.8 3290.2,540.3 	"/>
	<polygon class="st1" points="3169.3,669.5 3009.6,695.7 2989.8,638.5 3141.5,616.1 	"/>
	<polygon class="st8" points="3345.9,369.9 3345.7,406.6 3289,415 3258.1,376 3339.7,362.4 	"/>
	<polygon class="st8" points="3665.3,326.9 3685.9,433 3778.2,418.8 3703.5,320.5 	"/>
	<path class="st7" d="M3685.1,804.2c14.2-4.9,29.3-10.5,45-16.9l25.3,73.3l-346.1,55l0.2,0.5l-2.1,1.2c-8.3-1.5-16.5-3.1-24.8-5
		c-1.6-0.3-3.1-0.7-4.6-1.1c-19.6-4.5-39-10.1-58.1-16.8c-28.6-9.9-60.2-20-93.4-29c-53.8-14.5-109.5-21-164.8-19.5l-29.6-85.5
		c90.3-6.7,181.5,5.6,267.2,35.8c22.2,7.8,48.1,15.7,76.8,22.3c0,0,0,0,0,0c37.7,8.6,80.1,14.8,125,15.4c0,0,5.1,0.9,15,1.2
		c0.6,0,1.1,0,1.7,0.1c1.2,0,2.4,0.1,3.7,0.1c1.6,0,3.3,0,5.1,0C3555.7,835.1,3609.3,830.1,3685.1,804.2z"/>
	<path class="st12" d="M3916.6,688.6c0,0,33.3-24.7,79-59.8l16,46.4c6.4,18.6-3.2,42.1-21.6,52.6l-201.3,114l-33.3,18.9l-25.3-73.3
		c14.8-6,30-12.7,45.9-20.2c2.1-1,4.2-2,6.3-3c0.3-0.1,0.6-0.3,0.8-0.4c2.1-1,4.3-2.1,6.4-3.1c10-4.9,20.2-10.1,30.7-15.6
		c3.4-1.8,6.8-3.6,10.2-5.5c1.7-0.9,3.4-1.8,5.1-2.8c2.2-1.2,4.4-2.4,6.6-3.6c1.7-1,3.5-1.9,5.3-2.9c2.1-1.2,4.3-2.4,6.4-3.6
		c4.2-2.4,8.5-4.9,12.8-7.4c4-2.4,8.1-4.8,12.2-7.2C3891.2,704.6,3903.7,696.8,3916.6,688.6z"/>
	<path class="st18" d="M3723.5,767.6c-0.1,0-0.1,0-0.1,0.1c-15.2,6.2-30.2,11.9-45,16.9c-58.6,20-102.7,26.8-129.5,29
		c-28,2.3-43.2,0.1-44.3,0l-1.7-0.3l-1.5,0c-48.8-0.6-94.6-8.3-133.3-17.9c0,0,0,0,0,0c-23.6-5.9-44.6-12.4-61.9-18.5
		c-46.6-16.4-94.9-27.8-143.7-33.8c-45.7-5.6-91.8-6.5-137.4-2.7l7,20.2c90.5-6.8,181.5,5.6,267.2,35.8
		c22.2,7.8,48.1,15.7,76.8,22.3c0,0,0,0,0,0c37.7,8.6,80.1,14.8,125,15.4c0,0,5.1,0.9,15.1,1.2c0.6,0,1.1,0,1.7,0.1
		c1.2,0,2.4,0.1,3.7,0.1c1.6,0,3.3,0,5.1,0c29.1-0.2,82.7-5.3,158.5-31.2c14.2-4.9,29.3-10.5,45-16.9c0,0,0.1,0,0.1-0.1
		c14.6-6,29.9-12.7,45.8-20.2c2.1-1,4.2-2,6.3-3c0.3-0.1,0.5-0.3,0.8-0.4c2.1-1,4.3-2.1,6.4-3.1c10-4.9,20.2-10.1,30.7-15.6
		c3.4-1.8,6.8-3.6,10.2-5.5c1.7-0.9,3.4-1.8,5.1-2.8c2.2-1.2,4.4-2.4,6.6-3.6c1.7-1,3.5-1.9,5.3-2.9c2.1-1.2,4.3-2.4,6.4-3.6
		c4.2-2.4,8.5-4.9,12.8-7.4c4-2.4,8.1-4.8,12.2-7.2c12.3-7.4,24.9-15.2,37.8-23.4c0,0,33.4-24.8,79-59.8l-7.1-20.7
		c-44.7,34.4-79,59.9-83.8,63.5C3842.2,711.7,3781.5,743.9,3723.5,767.6z M3378,911.2c-19.6-4.5-39-10.1-58.1-16.8
		c-28.6-9.9-60.3-20-93.5-28.9c-53.8-14.5-109.3-21-164.8-19.4l7.1,20.5c51.3-0.9,102.3,5.4,152.3,18.9c29.7,8,60.6,17.6,92.1,28.5
		c22,7.6,44.3,13.9,66.8,18.9l27.6-15.6c-8.3-1.5-16.6-3.1-24.8-5C3381.1,911.9,3379.6,911.6,3378,911.2z"/>
	<path class="st19" d="M3225.5,712.7l584.5-88.5l60.6,40.7c0,0-177.2,136.6-372.8,127.5C3497.8,792.4,3359.2,802,3225.5,712.7z"/>
	<polygon class="st8" points="3880.2,294.4 3916.3,399 3840.5,411.4 3764.4,315.1 	"/>
	<polygon class="st8" points="3920.5,411.1 3926.8,429.2 3861.8,439.7 3858.1,421.5 	"/>
	<polygon class="st19" points="3931.3,442.2 3967.9,548.3 3870.4,561.4 3850.5,455.3 	"/>
	<polygon class="st21" points="3570.1,324 3755.4,860.6 3409.6,915.6 3409.4,915.7 3390.9,862.1 3390.9,862.1 3224.9,381.5 
		3240.8,378.9 3258,376 3339.7,362.4 3364.8,358.2 	"/>
</g>
<g id="Layer_3">
	<path class="st16" d="M4384.9,1852.9c0,277.7-170.5,515.7-412.8,616.3c-54.5,32.6-118.1,51.2-186.3,51.2H1775.4
		c-16.7,0-33.1-1.2-49.2-3.4c-146.2-14.6-278.6-75.9-381.8-168.7c0,0,0,0,0,0c-135.9-122.1-221.3-298.9-221.3-495.4
		c0-336.9,250.6-615.2,576.4-660.9c48.7-263.5,280.7-463.2,559.5-463.2c93,0,180.7,22.3,258.2,61.6
		c148-181.9,374.1-298.3,627.6-298.3c135.6,0,263.3,33.3,375.4,92.1c0,0,0,0,0,0c0,0,0.1,0,0.2,0.1
		c201.3,105.6,352.3,293.5,407.8,518.8c0.4,1.5,0.8,3.1,1.1,4.6c115.6,13.9,205.4,110,208.7,227.9
		c66.9,54.4,123.1,121.3,164.9,197.3C4355.2,1627.9,4384.9,1736.9,4384.9,1852.9z"/>
	<path class="st23" d="M4384.9,1852.9c0,277.7-170.5,515.7-412.8,616.3c-54.5,32.6-118.1,51.2-186.3,51.2H1775.4
		c-16.7,0-33.1-1.2-49.2-3.4c-146.2-14.6-278.6-75.9-381.8-168.7c7.7,4.1,475.8,250.2,795.1-205.4c0,0,115-130.2,58.4-285.1
		c0,0,524.4,137.2,556.2-332.6c0,0,470.5,430.2,847.3-84.5c0,0,248.5-362.9-81.1-856.6c0,0,0.1,0,0.2,0.1
		c8.6,4.1,332.9,161.2,407.8,518.8c30.2,144.3,19.8,321.2-68.3,533.8c0,0-42.5,232.3-445.7,415.3c0,0,37.1,496.3,631.4,214.7
		c0,0,472.3-225.3,252.9-732.1l4.4-2C4355.2,1627.9,4384.9,1736.9,4384.9,1852.9z"/>
</g>
<g id="Layer_12">
	<g class="st5">
		<path class="st20" d="M2072.3,2115.7c-1.6-34.1,25.2-63.4,59.5-64.9l107.8-5c34.3-1.6,63.7,25.1,65.3,59.2l1.1,23.1
			c1.6,34.1-25.2,63.4-59.5,64.9l-107.8,5c-34.3,1.6-63.7-25.1-65.3-59.2L2072.3,2115.7 M2016.6,2118.3l1.1,23.1
			c3,64.8,58.4,115.1,123.6,112.1l107.8-4.9c65.1-3,115.7-58.1,112.7-122.9l-1.1-23.1c-3-64.8-58.4-115.1-123.6-112.1l-107.8,5
			C2064.1,1998.3,2013.6,2053.5,2016.6,2118.3L2016.6,2118.3z"/>
		<path class="st20" d="M1704.9,2050.9c5.8-33.7,38.2-56.6,72.1-50.8l106.4,18c33.9,5.7,56.9,38,51.1,71.7l-3.9,22.8
			c-5.8,33.7-38.2,56.6-72.1,50.8l-106.4-18c-33.9-5.7-56.9-38-51.1-71.7L1704.9,2050.9 M1649.9,2041.6l-3.9,22.8
			c-10.9,63.9,32.5,124.8,96.7,135.7l106.4,18c64.3,10.9,125.5-32.3,136.4-96.2l3.9-22.8c10.9-63.9-32.5-124.8-96.7-135.7l-106.4-18
			C1722,1934.4,1660.8,1977.6,1649.9,2041.6L1649.9,2041.6z"/>
		<path class="st20" d="M1324,2016.6c3.7-34,34.7-58.7,68.9-55.1l107.3,11.6c34.1,3.7,59,34.5,55.3,68.5l-2.5,23
			c-3.7,34-34.7,58.8-68.9,55.1l-107.3-11.6c-34.2-3.7-59-34.5-55.3-68.5L1324,2016.6 M1268.6,2010.6l-2.5,23
			c-7.1,64.5,39.9,122.7,104.7,129.7l107.3,11.6c64.8,7,123.3-39.7,130.3-104.2l2.5-23c7.1-64.5-39.9-122.7-104.7-129.7l-107.3-11.6
			C1334.1,1899.4,1275.6,1946.1,1268.6,2010.6L1268.6,2010.6z"/>
		<path class="st20" d="M2459,2131.1c0.2-34.2,28.5-61.9,62.9-61.7l107.9,0.7c34.4,0.2,62.3,28.4,62,62.6l-0.2,23.1
			c-0.2,34.2-28.5,62-62.9,61.7l-107.9-0.7c-34.4-0.2-62.3-28.4-62-62.6L2459,2131.1 M2403.2,2130.8l-0.2,23.1
			c-0.4,64.9,52.2,118,117.4,118.4l107.9,0.7c65.2,0.4,118.6-52,119-116.8l0.2-23.1c0.4-64.9-52.2-118-117.4-118.4l-107.9-0.7
			C2457.1,2013.5,2403.7,2065.9,2403.2,2130.8L2403.2,2130.8z"/>
		<path class="st20" d="M2839.6,2125.7c0.2-34.2,28.5-62,62.9-61.7l107.9,0.7c34.4,0.2,62.3,28.4,62,62.6l-0.2,23.1
			c-0.2,34.2-28.5,62-62.9,61.7l-107.9-0.7c-34.4-0.2-62.3-28.4-62-62.6L2839.6,2125.7 M2783.8,2125.4l-0.2,23.1
			c-0.4,64.9,52.2,118,117.4,118.4l107.9,0.7c65.2,0.4,118.6-52,119-116.8l0.2-23.1c0.4-64.9-52.2-118-117.4-118.4l-107.9-0.7
			C2837.7,2008.1,2784.3,2060.5,2783.8,2125.4L2783.8,2125.4z"/>
		<path class="st20" d="M3233.9,2114.4c-1.2-34.2,25.9-63.1,60.3-64.2l107.8-3.7c34.3-1.2,63.4,25.8,64.6,60l0.8,23.1
			c1.2,34.2-25.9,63.1-60.3,64.2l-107.8,3.7c-34.3,1.2-63.4-25.8-64.6-60L3233.9,2114.4 M3178.1,2116.3l0.8,23.1
			c2.2,64.8,57.1,115.7,122.2,113.5l107.8-3.7c65.2-2.2,116.3-56.8,114.1-121.6l-0.8-23.1c-2.2-64.8-57.1-115.7-122.2-113.5
			l-107.8,3.7C3227.1,1996.9,3175.9,2051.5,3178.1,2116.3L3178.1,2116.3z"/>
		<path class="st20" d="M3617,2078.2c-4.7-33.9,19.2-65.4,53.3-70.1l106.9-14.8c34-4.7,65.7,19.1,70.5,53l3.2,22.9
			c4.7,33.9-19.2,65.4-53.3,70.1l-106.9,14.8c-34,4.7-65.7-19.1-70.5-53L3617,2078.2 M3561.8,2085.9l3.2,22.9
			c9,64.2,68.8,109.2,133.4,100.3l106.9-14.8c64.6-8.9,109.8-68.5,100.8-132.7l-3.2-22.9c-9-64.2-68.8-109.2-133.4-100.3
			l-106.9,14.8C3598,1962.1,3552.8,2021.6,3561.8,2085.9L3561.8,2085.9z"/>
		<path class="st20" d="M4000.4,2004.5c-6.9-33.5,15.1-66.5,48.7-73.3l105.7-21.4c33.7-6.8,66.8,15,73.7,48.5l4.6,22.7
			c6.9,33.5-15.1,66.5-48.7,73.3l-105.7,21.4c-33.7,6.8-66.8-15-73.7-48.5L4000.4,2004.5 M3945.8,2015.6l4.6,22.7
			c13,63.6,75.6,104.7,139.5,91.8l105.7-21.4c63.9-13,105.3-75.2,92.2-138.8l-4.6-22.7c-13-63.6-75.6-104.7-139.5-91.8l-105.7,21.4
			C3974.1,1889.8,3932.8,1952,3945.8,2015.6L3945.8,2015.6z"/>
		<path class="st20" d="M2506,2154.1l-0.6,5.8c-1.8,16.2-16.5,27.9-32.7,26.2l-189.3-20.5c-16.2-1.8-28.1-16.4-26.3-32.6l0.6-5.8
			c1.8-16.2,16.5-27.9,32.7-26.2l189.3,20.5C2495.9,2123.2,2507.7,2137.9,2506,2154.1z"/>
		<path class="st20" d="M2133.6,2113l-0.6,5.8c-1.8,16.2-16.5,27.9-32.7,26.2l-189.3-20.5c-16.2-1.8-28.1-16.4-26.3-32.6l0.6-5.8
			c1.8-16.2,16.5-27.9,32.7-26.2l189.3,20.5C2123.5,2082.2,2135.4,2096.9,2133.6,2113z"/>
		<path class="st20" d="M2885.6,2129.8v5.8c0,16.3-13.4,29.6-29.7,29.6h-190.4c-16.3,0-29.7-13.3-29.7-29.6v-5.8
			c0-16.3,13.4-29.6,29.7-29.6h190.4C2872.3,2100.2,2885.6,2113.5,2885.6,2129.8z"/>
		<path class="st20" d="M3283.4,2120.6l0.4,5.8c1.2,16.2-11.1,30.5-27.4,31.7l-189.9,14c-16.3,1.2-30.6-11.1-31.8-27.3l-0.4-5.8
			c-1.2-16.2,11.1-30.5,27.4-31.7l189.9-14C3267.9,2092.1,3282.2,2104.4,3283.4,2120.6z"/>
		<path class="st20" d="M3668.9,2079.9l0.8,5.7c2.3,16.1-9.1,31.1-25.3,33.4l-188.5,26.5c-16.2,2.3-31.3-9-33.6-25.1l-0.8-5.7
			c-2.3-16.1,9.1-31.1,25.3-33.4l188.5-26.5C3651.5,2052.5,3666.6,2063.9,3668.9,2079.9z"/>
		<path class="st20" d="M4049.6,2001.4l1.5,5.6c4.2,15.7-5.2,32-21,36.2l-183.9,48.9c-15.8,4.2-32.2-5.2-36.4-20.9l-1.5-5.6
			c-4.2-15.7,5.2-32,21-36.2l183.9-48.9C4029,1976.2,4045.3,1985.7,4049.6,2001.4z"/>
		<path class="st20" d="M4416.4,1909.6l1.5,5.6c4.2,15.7-5.2,32-21,36.2l-183.9,48.9c-15.8,4.2-32.2-5.2-36.4-20.9l-1.5-5.6
			c-4.2-15.7,5.2-32,21-36.2l183.9-48.9C4395.8,1884.5,4412.2,1893.9,4416.4,1909.6z"/>
		<path class="st20" d="M1755,2072l-0.6,5.8c-1.8,16.2-16.5,27.9-32.7,26.2l-189.3-20.5c-16.2-1.8-28.1-16.4-26.3-32.6l0.6-5.8
			c1.8-16.2,16.5-27.9,32.8-26.2l189.3,20.5C1744.9,2041.2,1756.8,2055.8,1755,2072z"/>
		<path class="st20" d="M1382.7,2029.3l-0.6,5.8c-1.8,16.2-16.5,27.9-32.7,26.2l-189.3-20.5c-16.2-1.8-28.1-16.4-26.3-32.6l0.6-5.8
			c1.8-16.2,16.5-27.9,32.7-26.2l189.3,20.5C1372.6,1998.5,1384.5,2013.2,1382.7,2029.3z"/>
	</g>
	<path class="st0" d="M2611.4,2035.3c-35.1,59.4-54.4,129-54.4,199.4v157.2l78.7-28.7v-173.5c0-38.8,9.4-77.4,28.3-111.4
		c66.2-118.5,193-110.9,193-110.9v-72.3C2729.1,1893.6,2653.4,1964.2,2611.4,2035.3z"/>
	<path class="st12" d="M2611.4,2035.3c42-71.1,117.7-141.8,245.7-140.2v-48.3c-147.6-2-235.6,74.3-284.8,151.1
		c-7.7,12-14.5,24.4-20.7,37.1c-8.3,16.9-15.2,34.4-20.9,52.4c-2.8,9-5.3,18-7.6,27.2c-3.3,13.7-5.3,27.6-7.2,41.6
		c-2.5,18.7-3.2,37.6-3.2,56.6v196.4l44.3-17.2v-157.2C2556.9,2164.3,2576.3,2094.7,2611.4,2035.3z"/>
	<g>
		<g>
			<path class="st14" d="M2056,2085.3c-1.6-34.1,25.2-63.4,59.5-64.9l107.8-5c34.3-1.6,63.7,25.1,65.3,59.2l1.1,23.1
				c1.6,34.1-25.2,63.4-59.5,64.9l-107.8,5c-34.3,1.6-63.7-25.1-65.3-59.2L2056,2085.3 M2000.3,2087.8l1.1,23.1
				c3,64.8,58.4,115.1,123.6,112.1l107.8-5c65.1-3,115.7-58.1,112.7-122.9l-1.1-23.1c-3-64.8-58.4-115.1-123.6-112.1l-107.8,5
				C2047.8,1967.9,1997.3,2023,2000.3,2087.8L2000.3,2087.8z"/>
			<path class="st14" d="M1688.6,2020.4c5.8-33.7,38.2-56.6,72.1-50.8l106.4,18c33.9,5.7,56.9,38,51.1,71.7l-3.9,22.8
				c-5.8,33.7-38.2,56.6-72.1,50.8l-106.4-18c-33.9-5.7-56.9-38-51.1-71.7L1688.6,2020.4 M1633.6,2011.1l-3.9,22.8
				c-10.9,63.9,32.5,124.8,96.7,135.7l106.4,18c64.3,10.9,125.5-32.3,136.4-96.2l3.9-22.8c10.9-63.9-32.5-124.8-96.7-135.7
				l-106.4-18C1705.8,1904,1644.6,1947.2,1633.6,2011.1L1633.6,2011.1z"/>
			<path class="st14" d="M1307.7,1986.1c3.7-34,34.7-58.8,68.9-55.1l107.3,11.6c34.2,3.7,59,34.5,55.3,68.5l-2.5,23
				c-3.7,34-34.7,58.8-68.9,55.1l-107.3-11.6c-34.2-3.7-59-34.5-55.3-68.5L1307.7,1986.1 M1252.3,1980.1l-2.5,23
				c-7.1,64.5,39.9,122.7,104.7,129.7l107.3,11.6c64.8,7,123.3-39.7,130.3-104.2l2.5-23c7.1-64.5-39.9-122.7-104.7-129.7
				l-107.3-11.6C1317.8,1868.9,1259.3,1915.7,1252.3,1980.1L1252.3,1980.1z"/>
			<path class="st14" d="M2442.7,2100.7c0.2-34.2,28.5-62,62.9-61.7l107.9,0.7c34.4,0.2,62.3,28.4,62,62.6l-0.2,23.1
				c-0.2,34.2-28.5,62-62.9,61.7l-107.9-0.7c-34.4-0.2-62.3-28.4-62-62.6L2442.7,2100.7 M2386.9,2100.3l-0.2,23.1
				c-0.4,64.9,52.2,118,117.4,118.4l107.9,0.7c65.2,0.4,118.6-52,119-116.8l0.2-23.1c0.4-64.9-52.2-118-117.4-118.4l-107.9-0.7
				C2440.8,1983,2387.4,2035.5,2386.9,2100.3L2386.9,2100.3z"/>
			<path class="st14" d="M2823.3,2095.3c0.2-34.2,28.5-62,62.9-61.7l107.9,0.7c34.4,0.2,62.3,28.4,62,62.6l-0.2,23.1
				c-0.2,34.2-28.5,62-62.9,61.7l-107.9-0.7c-34.4-0.2-62.3-28.4-62-62.6L2823.3,2095.3 M2767.6,2094.9l-0.2,23.1
				c-0.4,64.9,52.2,118,117.4,118.4l107.9,0.7c65.2,0.4,118.6-52,119-116.8l0.2-23.1c0.4-64.9-52.2-118-117.4-118.4l-107.9-0.7
				C2821.4,1977.6,2768,2030.1,2767.6,2094.9L2767.6,2094.9z"/>
			<path class="st14" d="M3217.6,2083.9c-1.2-34.2,25.9-63.1,60.3-64.2l107.8-3.7c34.3-1.2,63.4,25.8,64.6,60l0.8,23.1
				c1.2,34.2-25.9,63.1-60.3,64.2L3283,2167c-34.3,1.2-63.4-25.8-64.6-60L3217.6,2083.9 M3161.9,2085.8l0.8,23.1
				c2.2,64.8,57.1,115.7,122.2,113.5l107.8-3.7c65.2-2.2,116.3-56.8,114.1-121.6l-0.8-23.1c-2.2-64.8-57.1-115.8-122.2-113.5
				l-107.8,3.7C3210.8,1966.5,3159.6,2021,3161.9,2085.8L3161.9,2085.8z"/>
			<path class="st14" d="M3600.7,2047.8c-4.7-33.9,19.2-65.4,53.3-70.1l106.9-14.8c34-4.7,65.7,19.1,70.5,53l3.2,22.9
				c4.7,33.9-19.2,65.4-53.3,70.1l-106.9,14.8c-34,4.7-65.7-19.1-70.5-53L3600.7,2047.8 M3545.5,2055.4l3.2,22.9
				c9,64.2,68.8,109.2,133.4,100.3l106.9-14.8c64.6-8.9,109.8-68.5,100.8-132.7l-3.2-22.9c-9-64.2-68.8-109.2-133.4-100.3
				l-106.9,14.8C3581.7,1931.6,3536.5,1991.2,3545.5,2055.4L3545.5,2055.4z"/>
			<path class="st14" d="M3984.2,1974.1c-6.9-33.5,15.1-66.5,48.7-73.3l105.7-21.4c33.7-6.8,66.8,15,73.7,48.5l4.6,22.7
				c6.9,33.5-15.1,66.5-48.7,73.3l-105.7,21.4c-33.7,6.8-66.8-15-73.7-48.5L3984.2,1974.1 M3929.5,1985.2l4.6,22.7
				c13,63.6,75.6,104.7,139.5,91.8l105.7-21.4c63.9-13,105.3-75.2,92.2-138.8l-4.6-22.7c-13-63.6-75.6-104.7-139.5-91.8l-105.7,21.4
				C3957.9,1859.3,3916.5,1921.6,3929.5,1985.2L3929.5,1985.2z"/>
			<path class="st14" d="M2489.7,2123.6l-0.6,5.8c-1.8,16.2-16.5,27.9-32.7,26.2l-189.3-20.5c-16.2-1.8-28.1-16.4-26.3-32.6l0.6-5.8
				c1.8-16.2,16.5-27.9,32.7-26.2l189.3,20.5C2479.6,2092.8,2491.5,2107.4,2489.7,2123.6z"/>
			<path class="st14" d="M2117.3,2082.6l-0.6,5.8c-1.8,16.2-16.5,27.9-32.8,26.2l-189.3-20.5c-16.2-1.8-28.1-16.4-26.3-32.6l0.6-5.8
				c1.8-16.2,16.5-27.9,32.7-26.2L2091,2050C2107.2,2051.7,2119.1,2066.4,2117.3,2082.6z"/>
			<path class="st14" d="M2869.4,2099.3v5.8c0,16.3-13.4,29.6-29.7,29.6h-190.4c-16.3,0-29.7-13.3-29.7-29.6v-5.8
				c0-16.3,13.4-29.6,29.7-29.6h190.4C2856,2069.8,2869.4,2083.1,2869.4,2099.3z"/>
			<path class="st14" d="M3267.1,2090.2l0.4,5.8c1.2,16.2-11.1,30.5-27.4,31.7l-189.9,14c-16.3,1.2-30.6-11.1-31.8-27.3l-0.4-5.8
				c-1.2-16.2,11.1-30.5,27.4-31.7l189.9-14C3251.6,2061.7,3265.9,2074,3267.1,2090.2z"/>
			<path class="st14" d="M3652.6,2049.5l0.8,5.7c2.3,16.1-9.1,31.1-25.3,33.4l-188.5,26.5c-16.2,2.3-31.3-9-33.6-25.1l-0.8-5.7
				c-2.3-16.1,9.1-31.1,25.2-33.4l188.5-26.5C3635.2,2022.1,3650.3,2033.4,3652.6,2049.5z"/>
			<path class="st14" d="M4033.3,1970.9l1.5,5.6c4.2,15.7-5.2,32-21,36.2l-183.9,48.9c-15.8,4.2-32.2-5.2-36.4-20.9l-1.5-5.6
				c-4.2-15.7,5.2-32,21-36.2l183.9-48.9C4012.7,1945.8,4029.1,1955.2,4033.3,1970.9z"/>
			<path class="st14" d="M4400.1,1879.1l1.5,5.6c4.2,15.7-5.2,32-21,36.2l-183.9,48.9c-15.8,4.2-32.2-5.2-36.4-20.9l-1.5-5.6
				c-4.2-15.7,5.2-32,21-36.2l183.9-48.9C4379.5,1854,4395.9,1863.4,4400.1,1879.1z"/>
			<path class="st14" d="M1738.7,2041.6l-0.6,5.8c-1.8,16.2-16.5,27.9-32.7,26.2l-189.3-20.5c-16.2-1.8-28.1-16.4-26.3-32.6l0.6-5.8
				c1.8-16.2,16.5-27.9,32.8-26.2l189.3,20.5C1728.6,2010.7,1740.5,2025.4,1738.7,2041.6z"/>
			<path class="st14" d="M1366.4,1998.9l-0.6,5.8c-1.8,16.2-16.5,27.9-32.7,26.2l-189.3-20.5c-16.2-1.8-28.1-16.4-26.3-32.6l0.6-5.8
				c1.8-16.2,16.5-27.9,32.7-26.2l189.3,20.5C1356.3,1968,1368.2,1982.7,1366.4,1998.9z"/>
		</g>
	</g>
	<path class="st0" d="M3103.3,2035.3c-42.1-71.2-117.2-142-245.1-140.2c-0.2,0-1.1,0-1.1,0v72.3c0,0,126.8-7.6,193,110.9
		c19,33.9,28.3,72.5,28.3,111.4v173.5l78.7,28.7v-157.2C3157.1,2164.3,3138.3,2094.7,3103.3,2035.3z"/>
	<path class="st12" d="M3198.7,2156.2c-1.9-14-4-27.9-7.3-41.6c-2.2-9.1-4.5-18.2-7.3-27.2c-5.7-17.9-12.5-35.4-20.8-52.4
		c-6.2-12.7-13.3-25.1-21-37.1c-49.1-76.8-137.6-153-285.2-151.1v48.3c0,0,0.7,0,0.9,0c127.9-1.8,203.1,69,245.2,140.2
		c35.1,59.4,54,129,54,199.4v157.2l44.3,17.2v-196.4C3201.4,2193.8,3201.2,2174.9,3198.7,2156.2z"/>
	<path class="st0" d="M3140.6,3018.4h-558.3c-98.4,0-178.9-80.1-178.9-178v-311c0-97.9,80.5-178,178.9-178h558.3
		c98.4,0,178.9,80.1,178.9,178v311C3319.5,2938.3,3239,3018.4,3140.6,3018.4z"/>
	<path class="st12" d="M2861.3,3018.1h-276.7c-99.7,0-181.3-81.2-181.3-180.4v-306.1c0-99.2,81.6-180.4,181.3-180.4h276.7l0,0
		V3018.1z"/>
	<path class="st18" d="M2905.3,2689.6v145.2c0,29.7-24,54-53.9,54c-29.9,0-53.9-24.3-53.9-54v-145.2c-41-19.8-69.4-60.7-69.4-108
		c0-66.7,53.2-120.8,120.2-120.8s122.7,54.1,122.7,120.8C2971.1,2628.9,2941.2,2669.8,2905.3,2689.6z"/>
</g>
<g id="Layer_5">
	<polygon class="st6" points="3903.1,1583.8 4356.2,1174.5 4809.2,1579.9 4805.2,2138.1 3915,2138.1 	"/>
	<rect x="3983.3" y="1374.9" class="st16" width="752.2" height="727.7"/>
	<rect x="4036.2" y="1429.3" class="st7" width="490.9" height="11.8"/>
	<rect x="4036.2" y="1476.7" class="st7" width="651.7" height="11.8"/>
	<rect x="4036.2" y="1524.2" class="st7" width="651.7" height="11.8"/>
	<rect x="4036.2" y="1571.6" class="st7" width="651.7" height="11.8"/>
	<rect x="4036.2" y="1619.1" class="st7" width="651.7" height="11.8"/>
	<rect x="4036.2" y="1666.6" class="st7" width="651.7" height="11.8"/>
	<rect x="4036.2" y="1714" class="st7" width="651.7" height="11.8"/>
	<rect x="4036.2" y="1761.5" class="st7" width="651.7" height="11.8"/>
	<rect x="4036.2" y="1808.9" class="st7" width="651.7" height="11.8"/>
	<rect x="4036.2" y="1856.4" class="st7" width="651.7" height="11.8"/>
	<rect x="4036.2" y="1903.8" class="st7" width="651.7" height="11.8"/>
	<rect x="4036.2" y="1951.3" class="st7" width="651.7" height="11.8"/>
	<polygon class="st6" points="3903.1,2220.7 4809.2,2220.7 4488.9,1921.1 4225.1,1921.1 	"/>
	<polygon class="st15" points="3903.8,2220.5 3903.8,1600.7 4225.7,1921.1 	"/>
	<polygon class="st15" points="4809.6,2220.5 4809.6,1600.7 4488.9,1921.1 	"/>
</g>
<g id="Layer_7">
	<path class="st23" d="M4447.8,2527.9c-64.7-99.1-101.6-107-201.4-43c99.8-64,107.7-100.7,43-199.8c64.6,99.1,101.6,107,201.4,43
		C4391.1,2392.2,4383.2,2428.8,4447.8,2527.9z"/>
	<path class="st23" d="M4541.5,2502.6c32.1-46.3,28.9-63.9-17.5-96c46.4,32.1,64,28.9,96.2-17.3c-32.1,46.3-28.9,63.9,17.5,96
		C4591.3,2453.2,4573.6,2456.4,4541.5,2502.6z"/>
	<path class="st23" d="M261.4,1224.6c57.7-49.1,59.7-73,10.5-130.6c49.1,57.6,73.1,59.5,130.9,10.4c-57.7,49-59.7,73-10.5,130.6
		C343.1,1177.5,319.1,1175.5,261.4,1224.6z"/>
	<path class="st23" d="M444,1044.9c50.3,25.6,67.4,20.2,93.3-29.8c-25.9,50-20.4,66.9,29.9,92.6c-50.3-25.7-67.4-20.2-93.3,29.8
		C499.8,1087.5,494.4,1070.5,444,1044.9z"/>
	<path class="st23" d="M1901.2,243.2c88.8-22.2,103.8-47,81.8-135.4c22,88.4,46.9,103.3,135.7,81.1c-88.8,22.1-103.8,47-81.8,135.4
		C2014.9,235.9,1990,221,1901.2,243.2z"/>
	<path class="st23" d="M2118.7,143.2c50.3,25.6,67.4,20.2,93.3-29.8c-25.9,50-20.4,66.9,29.9,92.6c-50.3-25.7-67.4-20.2-93.3,29.8
		C2174.5,185.8,2169,168.8,2118.7,143.2z"/>
</g>
</svg>
