<?xml version="1.0" encoding="utf-8"?>
<!-- Generator: Adobe Illustrator 16.0.0, SVG Export Plug-In . SVG Version: 6.00 Build 0)  -->
<!DOCTYPE svg PUBLIC "-//W3C//DTD SVG 1.1//EN" "http://www.w3.org/Graphics/SVG/1.1/DTD/svg11.dtd">
<svg version="1.1" xmlns="http://www.w3.org/2000/svg" xmlns:xlink="http://www.w3.org/1999/xlink" x="0px" y="0px"
	 width="4207.1px" height="2873.9px" viewBox="0 0 4207.1 2873.9" style="enable-background:new 0 0 4207.1 2873.9;"
	 xml:space="preserve">
<style type="text/css">
<![CDATA[
	.st0{fill:#E2DFB4;}
	.st1{fill:#E55957;}
	.st2{opacity:0.38;fill:#F7E39C;}
	.st3{opacity:5.000000e-002;fill:#F7E39C;}
	.st4{fill:#B28054;}
	.st5{opacity:0.11;}
	.st6{fill:#1C2328;}
	.st7{opacity:0.93;fill:#F7E39C;}
	.st8{fill:#1F8BC3;}
	.st9{opacity:9.000000e-002;}
	.st10{fill:#8AB7A0;}
	.st11{opacity:0.78;fill:#F7E39C;}
	.st12{opacity:0.2;fill:#F7E39C;}
	.st13{fill:#202328;}
	.st14{fill:#263238;}
	.st15{fill:#F7E39C;}
	.st16{fill:#F9F5CD;}
	.st17{opacity:0.85;fill:#F7E39C;}
	.st18{fill:#FFFCE1;}
	.st19{fill:#FFFFFF;}
	.st20{opacity:0.11;fill:#F7E39C;}
	.st21{opacity:0.57;fill:#F7E39C;}
	.st22{fill:#9CC5B2;}
	.st23{fill:#333A44;}
	.st24{opacity:0.29;fill:#F7E39C;}
	.st25{fill:#020202;}
	.st26{fill:#3C444F;}
	.st27{fill:#3D5159;}
	.st28{opacity:0.46;fill:#F7E39C;}
	.st29{opacity:0.69;fill:#F7E39C;}
	.st30{fill:#DFB177;}
]]>
</style>
<g id="Layer_2_1_">
	<g class="st9">
		<g>
			<path class="st25" d="M1522.1,1622.1c-31.7-8-33.4,1.6-36.9-14.3c-3.5-15.9-24.6-15.9-44-15.9c-19.4,0-26.4-1.6-42.2-14.3
				c-15.8-12.7-49.3-14.3-59.8-17.5c-10.6-3.2-5.3-30.2-26.4-55.7c-21.1-25.4-65.1-30.2-93.2-44.5c-28.2-14.3-19.3-70-59.8-65.2
				c-40.5,4.8-44,19.1-80.9,1.6c-36.9-17.5-61.5-28.6-80.9-15.9c-19.4,12.7-44,36.6-56.3,42.9c-12.3,6.4-33.4-4.8-45.8-3.2
				c-12.3,1.6-26.4-11.1-35.2-22.3c-8.8-11.2,15.8-66.8-7-66.8s-52.8-9.5-52.8-17.5c0-7.9,47.5-55.6,33.4-63.6
				c-14.1-8-42.2-3.2-66.8,27c-24.6,30.2-47.5,28.6-59.8,17.5c-12.3-11.1-40.5-76.3-17.6-112.9c22.9-36.6,53.1-58.2,81.3-56.6
				c28.1,1.6,39.4-6.3,67.6-7.9c28.1-1.6,55.2,10.3,62.3,19.9c7,9.5-7,25.4,10.5,44.5c17.6,19.1,28.2,11.1,29.9,19.1
				c1.8,8-14.1,15.9-21.1,15.9c-7,0-65.1,14.3-42.2,23.9c22.9,9.5,63.3,1.6,72.1,14.3c8.8,12.7-28.1,39.8,24.6,41.4
				c52.8,1.6,87.9,8,117.9,9.5c29.9,1.6,51,3.2,54.5,9.5c3.5,6.4,24.6-23.8-24.6-23.8c-49.3,0-88-25.5-114.3-30.2
				c-26.4-4.8-44-20.7-45.7-39.8c-1.7-19.1,1.8-33.4-8.8-49.3c-10.5-15.9-36.9-54.1-12.3-70c24.6-15.9,73.9-46.1,86.2-66.8
				c12.3-20.7,12.3-25.4,40.4-41.4c28.2-15.9,61.6-36.6,77.4-50.9c15.8-14.3,42.2-36.6,47.5-25.4c5.3,11.1,29.9,14.3,59.8,4.8
				c29.9-9.5,66.8-33.4,35.2-33.4c-31.7,0-51-8-42.2-19.1c8.8-11.1-21.1-15.9-29.9-14.3c-8.8,1.6-8.8-15.9,21.1-20.7
				c29.9-4.8,5.8,24.2,30.4,22.6c24.6-1.6,39.9-24.2,57.6-27.4c17.6-3.2,24.6,11.1,1.7,25.5c-22.9,14.3-29.9,9.5,0,15.9
				c29.9,6.4,38.7,20.7,56.3,6.4c17.6-14.3-3.5-19.1-5.3-38.2c-1.8-19.1,12.6-57.1-6.7-69.8c-19.3-12.7-28.5-25.6-28.5-38.3
				c0-12.7,3.5-39.8-15.8-27c-19.4,12.7-35.2,20.7-42.2,14.3c-7-6.4,3.5-19.1-12.3-28.6c-15.8-9.6-17.6-23.9-36.9-22.3
				c-19.3,1.6-38.7-12.7-49.2,8c-10.6,20.7-21.1,38.2-24.6,44.5c-3.5,6.4,12.3,28.6-1.8,39.8c-14.1,11.1-52.8,27-58,38.2
				c-5.3,11.1-26.4,39.8-31.7,20.7c-5.3-19.1,17.6-47.7-14.1-55.7c-31.7-8-56.3-1.6-61.6-19.1c-5.3-17.5-19.3-33.4,12.3-47.7
				c31.7-14.3,63.3-39.8,93.2-42.9c29.9-3.2,8.8,19.1,33.4,17.5c24.6-1.6-3.5-12.7,26.4-17.5c29.9-4.8,24.6-4.8,15.8-14.3
				c-8.8-9.5-3.5-11.1,19.4-20.7c22.9-9.5,5.3-15.9,28.1-23.8c22.9-8,28.1-15.9,40.5-15.9c12.3,0,10.5,4.8,3.5,19.1
				c-7,14.3-12.3,23.8,8.8,14.3c21.1-9.5,31.7-15.9,15.8-1.6c-15.8,14.3-26.4,14.3-49.2,17.5c-22.9,3.2-15.8,6.4-5.3,17.5
				c10.6,11.1,36.9,12.7,45.8,19.1c8.8,6.4,19.3,28.6,40.4,17.5c21.1-11.1,5.3-12.7,33.4-23.8c28.1-11.1,68.6-17.5,65.1-31.8
				c-3.5-14.3-31.7-22.3-35.2-39.8c-3.5-17.5,38.7-27-15.8-35c-54.5-8-22.9-14.3-49.2-14.3c-26.4,0-75.6,0-93.2,7.9
				c-17.6,8-28.1-4.8-37,8c-8.8,12.7,1.7,30.2-7,30.2c-8.8,0-24.6,12.7-31.7,0c-7-12.7-22.9-25.4-1.8-30.2
				c21.1-4.8,24.6-1.6,28.2-15.9c3.5-14.3-29.9-12.7-10.5-15.9c19.3-3.2,28.1,1.6,54.5,1.6c26.4,0,86.2,9.5,95-4.8
				c8.8-14.3-14.1-14.3-40.5-15.9c-26.4-1.6-72.1-9.5-91.5-1.6c-19.4,7.9-44,20.7-52.8,33.4c-8.8,12.7-8.8-3.2-26.4,0
				c-17.6,3.2-47.5,20.7-31.7,30.2c15.8,9.5,15.8,20.7-1.8,20.7c-17.6,0-22.9,15.9-35.2,15.9c-12.3,0-45.7-1.6-29.9-9.6
				c15.8-7.9,33.4-7.9,31.7-27c-1.7-19.1,17.6-25.4,17.6-31.8c0-6.3-42.2,14.3-75.6,4.8c-33.4-9.5-47.5-23.9-80.9-22.3
				c-33.4,1.6-77.4,41.4-56.3,44.5c21.1,3.2,37-3.2,40.5,6.4c3.5,9.5-3.5,17.5,8.8,22.3c12.3,4.8,35.2,17.5,5.3,11.1
				c-29.9-6.4-15.8-17.5-61.6-19.1c-45.7-1.6-73.9-14.3-121.4-3.2c-47.5,11.1-40.5,20.7-72.1,11.1c-31.7-9.5-108.2-45.4-160.9-35.9
				c-52.8,9.5-108.2,39.1-124,48.6c-15.8,9.5-24.5-14.6-52.6-13.1c-28.1,1.6-95.7-7.8-81.6,8.1c14.1,15.9,31.7,17.5,10.6,20.7
				c-21.1,3.2-49.3,4.8-59.8,19.1c-10.6,14.3-49.3,22.3-24.6,28.6c24.6,6.3,65.1,20.7,47.5,22.3c-17.6,1.6-107.3,33.4-146,41.3
				c-38.7,8-36.8,98.2-3.3,87.1c42.4-14.1,122.9-98.2,144.1-106.2c21.1-7.9,29.9-1.6,28.1,9.6c-1.8,11.1,24.6-4.8,45.7-19.1
				c21.1-14.3,26.8-48.2,44.4-38.6c17.6,9.5,22.5,5.2,36.5,2c14.1-3.2,83.4,19.1,95.7,25.5c12.3,6.4,29.8,24,38.6,30.3
				c8.8,6.4,12.3,20.7,3.5,22.3c-8.8,1.6-10.6,9.5-8.8,22.3c1.8,12.7,8.8,23.9-8.8,27c-17.6,3.2-14.1,22.3-3.5,20.7
				c10.5-1.6,17.6-6.3,19.3-15.9c1.8-9.5,24.6-27,21.1-14.3c-3.5,12.7-12.3,25.4-12.3,35c0,9.5-12.3,7.9-14,17.5
				c-1.8,9.5,1.7,9.5,10.5,17.5c8.8,8,3.5,12.7,1.8,30.2c-1.8,17.5-54.5,65.2-61.6,81.1c-7,15.9-3.5,38.2-3.5,55.7
				c0,17.5-7,39.8,12.3,46.1c19.3,6.4,21.1,9.5,21.1,25.4c0,15.9,0,35,10.5,46.1c10.6,11.1,5.3,9.5,5.3,27c0,17.5,12.3,8,14.1,22.3
				c1.8,14.3-8.8,20.7,8.8,31.8c17.6,11.1,36.9,19.1,28.2,1.6c-8.8-17.5-14.1-31.8-22.9-57.3c-8.8-25.4-14.1-71.6-3.5-57.2
				c10.5,14.3,24.6,57.2,40.5,87.5c15.8,30.2,35.2,27,35.2,49.3c0,22.3-19.4,42.9,19.4,57.2c38.7,14.3,66.8,44.5,89.7,41.4
				c22.9-3.2,36.9-15.9,45.7-1.6c8.8,14.3,28.1,33.4,49.2,33.4s28.2,12.7,31.7,31.8c3.5,19.1,17.6,22.2,38.7,28.6
				c21.1,6.3,26.4,27,42.2,25.4c15.8-1.6,36.9-7.9,36.9,6.4c0,14.3,7,49.3-19.4,71.6c-26.4,22.3-38.7,38.2-24.6,52.5
				c14.1,14.3,1.8,28.6-5.3,39.8c-7,11.1,5.3,20.7,19.4,38.2c14.1,17.5,33.4,38.2,45.7,73.2c12.3,35,29.9,47.7,59.8,58.8
				c29.9,11.1,52.8,30.2,52.8,57.2c0,27.1-1.7,119.3-1.7,146.3c0,27,15.8,54.1,10.5,74.8c-5.3,20.7,0,38.2,7,46.1c7,8,5.3,25.5,7,43
				c1.7,17.5,22.9,4.8,22.9,20.7c0,15.9-8.8,39.8,1.8,47.7c10.5,8-12.3,36.6,35.2,63.6c47.5,27,51,28.6,54.5,33.4
				c3.5,4.8,19.3-9.6,19.3-1.6c0,8-26.4,54.7,22.9,54.7c49.2,0,79.2-16.5,49.2-37.2c-29.9-20.7-47.5-11.1-52.8-31.8
				c-5.3-20.7-12.3-17.5-15.8-31.8c-3.5-14.3,12.3-20.7,7-35c-5.3-14.3-30.6-15.8-28.9-30.1c1.7-14.3,18.3-27.1,21.8-33.5
				c3.5-6.4,3.5-12.7-5.3-19.1c-8.8-6.4-7-8,5.3-11.2c12.3-3.2,14.1,1.6,19.4-14.3c5.3-15.9,21.1-14.3,28.1-19.1
				c7-4.8,31.7-11.1,22.9-31.8c-8.8-20.7-32.2-32.6-12.9-32.6c19.4,0,44.5,0.8,56.8-21.5c12.3-22.2,7-27,21.1-44.5
				c14.1-17.5,7.7-32.7,7.7-45.4c0-12.7,1.1-24.6,20.4-32.6c19.4-7.9,82.7-17.5,91.5-41.3c8.8-23.8,17.6-49.3,14.1-74.8
				c-3.5-25.4-5.3-41.3,14.1-62c19.3-20.7,44-38.2,44-57.3C1545,1657,1553.8,1630,1522.1,1622.1z"/>
			<path class="st25" d="M1851.2,545.7c19.3-19.1,14.1-28.6,40.4-38.2c26.4-9.6,19.3-22.3,15.8-41.4c-3.5-19.1,10.7-11.4,21.3-17.7
				c10.5-6.4,15.6-10.9,40.3-12.5c24.6-1.6,1.8-9.5,1.8-19.1c0-9.5-17.6-7.9-42.2-4.8c-24.6,3.2-21.1,0-38.7-6.4
				c-17.6-6.4-121.4-6.4-147.7-6.4c-26.4,0-73.9,4.8-98.5,6.4c-24.6,1.6-22.9,0-70.4-4.8c-47.5-4.8-172.4-1.6-218.1,3.2
				c-45.7,4.8-71.8-7.2-101.8,10.3c-29.9,17.5-43.8,9.8-77.2,13c-33.4,3.2-56.6-4.7-72.4-4.7c-15.8,0-14.1-7.9-42.2,1.6
				c-28.1,9.5-19.4,15.9-29.9,3.2c-10.6-12.7-24.6,0-73.9,11.1c-49.3,11.1,24.4,49.8,40.2,54.5c0,0,33.4-1.6,52.8-6.4
				c19.3-4.8,28.2,6.4,40.5,3.2c12.3-3.2,15.8-14.3,86.2-28.6c70.3-14.3,119.6-3.2,147.7,8c28.1,11.1,28.1,4.8,52.8-9.6
				c24.6-14.3,66.8-25.4,110.8-31.8c44-6.4,15.9,8-12.3,17.5c-28.2,9.5-52.8,6.4-47.5,22.3c5.3,15.9,59.8,11.1,75.6,11.1
				c15.8,0,17.6,22.2,19.3,35c1.8,12.8-1.7,19.1,1.8,31.8c3.5,12.7,12.3,11.1-3.5,23.9c-15.8,12.7-24.6,11.1-24.6,33.4
				c0,22.3,10.5,46.1,35.2,62c24.6,15.9,38.7,17.5,52.8-7.9c14.1-25.4,47.5-41.4,65.1-49.3c17.6-7.9,42.2,0,65.1-19.1
				c22.9-19.1,52.8-11.1,86.2-20.7C1835.3,558.4,1831.8,564.8,1851.2,545.7z"/>
			<path class="st25" d="M1882.2,636c-52.8,6.3-102-9.6-93.2,15.9c8.8,25.5,12.7,73.8,40.8,65.8c48.3-13.7,91.8-30.5,79.5-51.2
				C1897,645.8,1935,629.6,1882.2,636z"/>
			<path class="st25" d="M2222.2,513.9c1.9,0.5,3.8,0.6,5.4,1.2c17.6,6.4,29.9-3.2,31.7-15.9c19.3-25.4,12.3,20.7,33.4,12.7
				c21.1-7.9,51-27,75.6-38.2c24.6-11.1-29.9-6.4-73.9-12.7c-44-6.3-105.5,4.8-123.2,15.9C2154.9,487.3,2196.5,507.3,2222.2,513.9z"
				/>
			<path class="st25" d="M2482.4,448c0,0-8.8,11.1,12.3,11.1c21.1,0,65.1-12.7,100.3-12.7c35.2,0,24.6-11.1,17.6-11.1
				c-7,0-26.4-17.5-54.5-15.9c-28.2,1.6-26.4,12.7-44,12.7s-14.1-4.8-51-3.2C2426.1,430.5,2463.1,444.8,2482.4,448z"/>
			<path class="st25" d="M4137.4,539c-3.5-19.1-1.3-53.2-60.7-50.1c-105.4,5.3-132.1-2.8-151.5-2.8c-19.4,0-9.5-12.3,4.6-12.3
				c14.1,0,13.7-14-0.4-20.4c-14.1-6.3-33.7-1.5-39,12.8c-5.3,14.3,20,18.7-20.5,18.7c-40.5,0-95.3,53.5-142.8,45.5
				c-47.5-8-61.9-36.6-102.4-38.2c-40.5-1.6-74.3,35.2-116.5,35.2c-42.3,0-28.2-14.3-45.8-31.8c-17.6-17.5-26.4-12.7-79.2-12.7
				c-52.8,0-24.6,19.1-14.1,22.2c10.6,3.2,38.7,11.1,58.1,27.1c19.4,15.9-35.2,9.5-58.1,11.1c-22.9,1.6-21.1-11.1-47.5-25.4
				c-26.4-14.3-91.5-6.4-128.5-8c-36.9-1.6-38.7,0-52.7-23.9c-14.1-23.9-44-11.1-82.7-11.1c-38.7,0-59.8-17.5-79.2-28.7
				c-19.4-11.1-49.3-12.7-91.5-19.1c-42.2-6.4-19.3,23.9-3.5,25.4c0,0,17.6,6.3,35.2,7.9c17.6,1.6,54.5,3.2,73.9,23.9
				c19.4,20.7-59.8,12.7-95,30.2c-35.2,17.5-63.3,9.5-87.9,19c-24.7,9.6,12.3,25.5,21.1,46.1c8.8,20.7,0,20.7-15.8,25.4
				c-15.8,4.8,5.3-22.2-1.8-30.2c-7-8-33.4-49.3-54.5-62c-21.1-12.7-17.6,11.2-14,28.6c3.5,17.5,8.8,17.5,14,30.2
				c5.3,12.7-22.9,0-37-9.5c-14-9.5-59.8,12.7-80.9,3.2c-21.1-9.5,7-6.3,7-15.9c0-9.5-24.6-1.6-31.7-15.9c-7-14.3,44-31.8,75.7-36.5
				c31.7-4.8,28.1-4.8,28.1-19.1c0-14.3-56.3-9.5-103.8,11.1c-47.5,20.7-35.2,35-42.2,49.3c-7,14.3,15.8,15.9,26.4,23.9
				c10.6,8-12.3,11.1-33.4,17.5c-21.2,6.4-26.4,0-51.1,8c-24.6,8-10.5,17.5-31.7,25.4c-21.1,7.9-19.3,7.9-36.9,14.3
				c-17.6,6.3,3.5-23.9,28.2-27c24.6-3.2,17.6-15.9,10.5-20.7c-7-4.7-52.8-17.5-102-30.2c-49.3-12.7-128.4,4.8-154.8,15.9
				c-26.4,11.2-24.7,19.1-28.1,35c-3.5,15.9-63.4,39.8-93.2,54.1c-29.9,14.3-3.6,33.4,5.2,46.1c8.8,12.7,28.1,6.3,52.8,0
				c24.7-6.4,21.1,20.7,24.7,30.2c3.5,9.5,17.6,11.2,40.5,1.6c22.9-9.5,17.6-31.8,17.6-44.5c0-12.7-5.3-19.1,10.5-36.6
				c15.8-17.5,29.9-28.6,44-36.5c14-8,12.4,6.3-8.8,22.2c-21.1,15.9-7,20.7,3.6,39.7c10.5,19.1,31.7,0,58.1-3.2
				c26.4-3.2-22.9,20.7-42.3,20.7c-19.4,0,0,19.1-12.3,19.1c-12.3,0-14.1,8-15.8,27c-1.8,19.1-8.8,14.3-22.9,19.1
				c-14,4.8-35.2,6.3-58.1,1.6c-22.8-4.8-21.1-23.9-36.9-36.6c-15.9-12.7-19.4,6.4-19.4,14.3c0,8-15.8,25.5-22.8,25.5
				c-7.1,0-28.2,19.1-40.5,35c-12.3,15.9-21.1,6.4-24.6,0c-3.6-6.4,8.8-15.9,1.8-31.8c-7-15.9-35.2-28.6-26.4-65.2
				c8.8-36.6-10.6-17.5-38.7-14.3c-28.2,3.2-37,14.3-38.7,23.9c-1.8,9.5-17.6,28.6-35.2,46.1c-17.6,17.5-5.2,31.8,3.6,50.8
				c8.8,19.1,31.7-6.3,38.7-22.2c7-15.9,15.8-23.9,26.4-15.9c10.5,8-15.8,22.2-19.4,41.3c-3.6,19.1,7,17.5,31.7,11.1
				c24.6-6.3,12.3-11.1,31.6-3.2c19.4,8-17.6,14.3-40.5,15.9c-22.9,1.5-14.1,15.9,5.3,28.6c19.3,12.7,10.5,31.8-1.8,33.4
				c-12.3,1.6-35.2,4.8-70.3,11.1c-35.2,6.4-3.6,31.8-10.6,46.1c-7,14.3-8.8,46.1,7,47.7c15.9,1.6,15.9,25.5,7,33.4
				c-8.8,8-10.6,15.9-31.7,30.2c-21.1,14.3-5.3,27-12.3,46.1c-7,19.1-24.7,8-45.8,28.6c-21.1,20.7-29.9,36.6-45.7,60.4
				c-15.8,23.9-17.6,25.4,1.8,54.1c19.3,28.6,0,36.6-15.8,62c-15.8,25.5,5.2,27,12.3,49.3c7,22.2,21.1,17.5,26.4,39.8
				c5.2,22.2,12.3,28.6,36.9,44.5c24.7,15.9,49.3,38.2,61.6,33.4c12.3-4.8,31.7-17.5,72.1-15.9c40.5,1.6,26.4-15.9,68.6-22.3
				c42.2-6.4,6.4,9.1,11.6,20.2c5.3,11.1,41.1,18,72.8,19.6c31.7,1.6,5.2,36.6,3.5,58.8c-1.8,22.3,0,22.3,15.9,41.3
				c15.9,19.1,37,62,42.2,84.3c5.2,22.3-5.3,47.7-19.4,68.4c-14.1,20.7-8.8,68.4,21.1,103.4c29.9,34.9,12.3,33.4,12.3,70
				c0,36.6,21.1,30.2,37,50.8c15.8,20.7,8.8,58.8,22.9,79.6c14,20.6,38.7,1.5,66.9-8c28.1-9.5,40.5-6.3,73.9-28.6
				c33.4-22.2,59.8-66.8,59.8-79.5c0-12.7,10.6-17.5,28.2-23.8c17.6-6.4,14.1-47.7,12.3-58.8c-1.8-11.2,3.5-20.7,10.6-27.1
				c7-6.3,51-44.5,66.9-60.4c15.8-15.9,1.7-38.2-1.8-63.6c-3.5-25.4-14.1-35-14.1-65.2s-10.6-27.1,47.5-76.3
				c58-49.3,112.6-127.2,117.8-144.7c5.3-17.5,3.5-31.8,0-44.6c-3.5-12.7-79.2,12.7-96.8,12.7c-17.6,0-62.5-33.9-66-46.6
				c-3.5-12.7-16.7-26.6-39.5-45.7c-22.9-19.1-5.2-46.1-22.9-66.8c-17.6-20.7-26.4-50.9-29.9-68.4c-3.5-17.5,26.4,12.7,49.2,36.5
				c22.9,23.9,52.9,68.4,61.6,84.3c8.8,15.9,15.8,39.8,17.6,58.8c1.7,19.1,15.8,22.3,36.9,20.7c21.1-1.6,95-36.6,121.3-47.8
				c26.4-11.1,58.1-44.5,70.4-76.3c12.3-31.8-26.4-27.1-44-43c-17.6-15.9-17.6,0-38.7,4.8c-21.1,4.8-38.7-20.7-72.1-49.3
				c-33.5-28.6-12.3-19.1-5.2-25.4c7-6.3,40.5,14.3,59.8,35c19.4,20.7,22.8,12.7,45.7,12.7c22.9,0,28.2,9.5,58.1,17.5
				c29.9,7.9,45.7-3.2,71.3-0.7c25.6,2.4,22,13.4,39.5,38.8c17.6,25.4,10.6,17.5,49.3,20.7c38.7,3.2,10.6,0,10.6,22.2
				c0,22.3,3.5,30.2,26.4,57.3c22.8,27.1,31.6,78,38.6,103.4c7.1,25.4,21.2,0,44,0c22.9,0-6.6,24.2,19.4,42.9
				c29.9,21.6,28.2-9.3,28.2-18.8c0-9.6-8.9-32.1-19.4-40c-10.5-7.9-24.7-6.4-12.3-19.1c12.3-12.7-14.3-20.9-14.3-38.4
				c0-17.5,7-41.1,15.8-49.1c8.8-8,51.4-30.2,70.7-50.9c19.4-20.7,35.2-23.8,61.6-22.3c26.4,1.6,5.2,4.8,21.1,23.9
				c15.8,19.1,19.4,46.1,36.9,65.2c17.6,19.1,19.4-3.2,33.4-9.5c14.1-6.4,5.3,19.1,15.9,38.2c10.6,19.1,3.5,44.6,3.5,62
				c0,17.5,22.9,35,36.9,50.9c14.1,15.9,8.8,23.9,0,30.2c-8.8,6.4-26.4-15.9-40.5-28.6c-14.1-12.7-35.2-4.8-21.1,9.6
				c14.1,14.3,22.9,39.7,38.7,66.8c15.8,27,49.3,58.8,72.2,87.4c22.8,28.7,96.7,41.3,124.9,41.3c28.1,0,84.4,22.3,112.6,25.5
				c28.1,3.2,49.2,0,68.5-9.5c19.4-9.6,10.6-20.7,8.8-25.5c-1.8-4.7-15.8,4.8-35.2,8c-19.4,3.2-24.6,3.2-49.3,4.7
				c-24.6,1.6-8.8-8-35.2-9.5c-26.4-1.6-52.8-6.4-82.7-15.9c-29.9-9.5-45.7-17.5-66.8-23.9c-21.2-6.4-1.8-17.5-3.6-44.5
				c-1.8-27-21.1-15.9-37-25.5c-15.8-9.5-10.5-30.2-3.5-23.8c7,6.4,8.8,14.3,8.8-19.1c0-33.4-33.4-55.6-54.5-84.3
				c-21.2-28.6-17.6-44.5-15.8-58.8c1.7-14.3,38.7,12.7,58.1,33.4c19.3,20.7,19.3,20.7,29.9,15.9c10.6-4.8,42.2-20.7,49.2-46.1
				c7.1-25.4-56.3-76.3-65.1-100.2c-8.8-23.9,12.3-9.5,22.8-25.4c10.6-15.9,22.9,6.4,15.8,17.5c-7,11.2,1.8,17.5,8.8,28.6
				c7,11.1,7,0,14.1-14.3c7-14.3,1.8-19.1,14.1-28.6c12.3-9.6,59.8-22.3,72.1-33.4c12.3-11.1,21.1-23.9,36.9-63.6
				c15.8-39.8-1.8-38.1-8.8-52.5c-7-14.3-28.1-38.2-40.5-52.5c-12.3-14.3-1.8-11.1,7-15.9c8.8-4.8,1.8-15.9-19.4-22.3
				c-21.1-6.3-17.6,6.4-36.9,3.2c-19.4-3.2-8.8-15.9,12.3-38.2c21.1-22.2,10.5,4.8,24.6,14.3c14,9.6,17.6-8,28.2-3.2
				c10.6,4.7,31.7,14.3,47.5,33.4c15.8,19.1,15.7,46.7,31.5,45.2c15.8-1.6,16-13.4,23-27.7c7-14.3-16.1-28.6-28.4-39.8
				c-12.3-11.2-27.9-9.5-17.3-19.1c10.5-9.5,1.7-23.9,7-35c5.2-11.2,24.6-4.8,44-12.7c19.4-8,21.1-35,21.1-63.6
				c0-28.7-15.8-41.3-24.6-50.9c-8.8-9.6,10.6-4.8,26.4,6.3c15.8,11.2,40.5,71.6,45.7,95.4c5.3,23.9,1.8,23.9,22.9,44.5
				c21.1,20.7,14.1,17.5,7,41.3c-7,23.9-24.6,30.2-51,36.6c-26.4,6.4-17.6,11.2-33.4,35c-15.8,23.9,8.8,25.5,22.9,31.8
				c14.1,6.3,15.8-20,33.4-31.1c17.6-11.2,42.2-16.6,72.1-16.6c29.9,0-8.8-36.6-10.5-55.7c-1.8-19.1-3.5-31.8-10.6-46.1
				c-7-14.3,7.1-14.3,28.2-23.9c21.1-9.6,19.4-28.7,7-28.7c-12.3,0-22.9,8-51,6.4c-28.2-1.6-21.1-22.2-28.2-30.2
				c-7-7.9-15.8-25.4-17.6-39.7c-1.8-14.3-26.4-33.4-44-47.7c-17.6-14.3-28.2-23.8-28.2-17.5c0,6.4-10.6-1.6-35.2-3.2
				c-24.6-1.6-29.9,3.2-51,1.6c-21.1-1.6,1.8-33.4,10.5-55.7c8.8-22.2,33.5-9.5,52.8-9.5c19.4,0,87.4-76,115.5-69.6
				c28.2,6.4,15.8-15.9,21.2-33.4c5.2-17.5,17.6-8,33.4-1.6c15.8,6.3,21.1,8,21.1-6.4c0-14.3,14-17.5,26.4-4.8
				c6.2,6.4,5,16.8,2.3,25.7c-5.1,16.7-6.8,34.2-4.1,51.5c2.6,16.6,7.5,33.8,16.8,38.4c19.3,9.6,11.5,62.5,34.4,76.8
				c22.8,14.3,16-24,16-51c0-27.1-10.9-72.8-26.7-98.3c-15.8-25.5-5.3-14.3,24.6-14.3c29.9,0,31.7-9.5,38.7-17.5
				c7-8,12.3-9.5,38.7-9.5s10.6-9.6-1.8-22.3c-12.3-12.7-36.9-9.5-28.1-17.5c8.8-7.9,56.3,4.8,79.2,12.7
				C4146.2,564.5,4141,558.1,4137.4,539z M2496.8,1068.2c-10.5,19.1-15.8,31.8-31.6,27.1c-15.8-4.8-68.6-3.2-95-11.2
				c-26.4-8-65.1-22.2-72.1-4.7c-7,17.4,17.6,31.8-26.4,17.4c-44-14.3-91.4-31.8-96.7-44.5c-5.2-12.7,17.6-47.7-14.1-47.7
				c-31.7,0-75.7-1.6-89.7,7.9c-14.1,9.6-68.6,27.1-86.2,22.3c-16-4.3-40.4-9.5-12.3-20.7c28.2-11.2,61.6-4.8,65.1-20.7
				c3.5-15.9-24.7-19.1,3.5-33.3c28.1-14.3,17.6-27.1,37-35c19.4-7.9,45.7-6.4,59.8-11.1c14.1-4.8-5.2-9.5,22.9,4.7
				c28.1,14.3,45.7,41.4,59.8,43c14.1,1.5,22.9,11.1,14.1,17.4c-8.8,6.4-22.9,11.2-28.2,11.2c-5.3,0-8.8,12.7-3.5,14.3
				c5.3,1.6,17.6,22.2,26.4,15.9c8.8-6.4-3.1-16.8,12.7-21.5c15.8-4.8,34.8-10.3,27.8-19.9c-7-9.5-14.1-20.6,0-14.3
				c14,6.4,30.6,5.3,14.8-9.1c-15.8-14.3-25.3-16.4-44.7-29.1c-19.4-12.7-40.4-19.1-40.4-28.6c0-9.5-12.3-27,7-20.7
				c19.4,6.3,86.2,39.8,86.2,52.5c0,12.7,17.6,35,1.7,46.1c-15.8,11.2,15.9,14.3,22.9,20.7c7.1,6.4,3.6,23.9,22.9,20.7
				c19.4-3.2,33.5-1.6,22.9-19.1c-10.5-17.5-28.1-25.4-10.5-31.8c17.6-6.3,21.1-14.3,26.4,12.7c5.3,27.1-1.8,36.6,40.5,38.2
				c42.2,1.6,70.4-9.5,75.6,1.6C2500.4,1030.1,2507.4,1049.2,2496.8,1068.2z M2565.4,949c-28.1-1.6-69.8,0.1-92.7,0.1
				c-22.9,0-45.8,5.5-45.8,5.5c-19.3-3.2-56.7-4-33.9-31.1c22.9-27,8.8-62,37-52.4c28.1,9.5,29.3,43.4,46.9,21.1
				c17.6-22.2,37.5-45,42.8-27.5c5.3,17.5-24.7,31.8,12.3,46.1C2568.9,925.1,2593.6,950.5,2565.4,949z M2738.6,1016.5
				c-26.4,0-61.9-13.5-61.9-26.2c0-12.7-2.9-28.9-2.9-28.9c-8.9-35.7-36.3-39.2-36.3-59.9c0-20.7,21.2-36.8,49.4-36.8
				c28.1,0,63.6,0.4,42.5,22.6c-21.1,22.2-61.8,20.3-33.7,55.3C2723.9,977.6,2765,1016.5,2738.6,1016.5z"/>
			<path class="st25" d="M3698.5,1239.2c13.8,3.6,17.8-48.3-7.9-41.1C3664.9,1205.3,3682.2,1235,3698.5,1239.2z"/>
			<path class="st25" d="M3730.3,1394.5c11.8,7.2,13.8,19.7,11.8,39.3c-2,19.7-21.7,17.9,11.9,30.4c33.6,12.5,73.1,34,63.2-5.4
				c-9.9-39.3-2-44.7-37.6-75.1c-35.6-30.4-37.6-10.7-41.5-35.7c-4-25-13.9-71.5-27.7-53.6c-12.2,15.8-21.7,21.4-7.9,48.3
				C3716.4,1369.4,3718.4,1387.3,3730.3,1394.5z"/>
			<path class="st25" d="M3655.2,1457c-12,13.9-35.6,44.7-51.4,55.4c-15.8,10.7-43.5-3.5-41.5,21.5c2,25,3.9,35.8,5.9,53.6
				c2,17.9,5.9,28.6,35.6,28.6c29.7,0,43.5,8.9,53.4,5.4c9.9-3.6,7.9-19.7,19.8-41.1c11.9-21.5,31.6-16.1,23.7-32.2
				c-7.9-16.1-7.9-12.5-7.9-28.6c0-16.1,9.9-5.4,4-32.2C3690.8,1460.6,3669,1440.9,3655.2,1457z"/>
			<path class="st25" d="M4072.3,1623.2c-25.7-25-69.2-42.9-87-41.1c-17.8,1.8-33.6,26.8-43.5,17.9c-9.9-8.9-39.5-51.8-55.3-39.3
				c-15.8,12.5,2,26.8-17.8,26.8s-25.7,21.4-29.7-7.2c-3.9-28.6-19.8-42.9-23.7-21.5c-3.9,21.5-5.9,35.8-15.8,19.7
				c-9.9-16.1-15.8-5.4-15.8-21.4s-39.5-34-55.3-16.1c-9.9,11.1-13.9,12.5-17.8,37.5c-3.9,25-13.8,64.3,7.9,53.6
				c21.7-10.7,25.7-1.8,35.6-14.3c9.9-12.5,21.7-19.6,39.5-12.5c17.8,7.1,9.9,7.1,41.5,3.6c31.6-3.6,47.4-3.6,69.2,8.9
				c21.7,12.5,65.2,5.4,65.2,17.9c0,12.5-45.5,21.5,0,34c45.5,12.5,55.3,41.1,69.2,26.8c13.8-14.3,33.6-34,47.4-19.7
				c13.8,14.3,67.2,53.6,57.3,32.2c-9.9-21.4-7.9-41.1,23.7-64.3c31.6-23.2,23.7-34,9.9-34c-13.8,0-13.8,16.1-45.5,19.6
				C4099.9,1633.9,4098,1648.2,4072.3,1623.2z"/>
			<path class="st25" d="M4086.1,1853.7c-17.8-41.1-17.8-73.3-27.7-91.1c-9.9-17.9-2-39.3-31.6-39.3c-12,0-11.9,7.1-21.7,30.4
				c-9.9,23.2,2,66.1-23.7,60.8c-25.7-5.4-37.6-16.1-43.5-39.3c-5.9-23.2,7.9-44.7-11.8-44.7c-19.8,0-75.1-12.5-88.9,7.2
				c-13.8,19.7,3.9,26.8-25.7,26.8c-29.7,0-41.5,0-57.3,17.8c-15.8,17.9-37.6,67.9-122.6,71.5c-85,3.6-41.5,44.7-41.5,89.3
				c0,44.7-45.5,71.5-25.7,87.6c19.7,16.1-5.9,37.5,35.6,25c41.5-12.5,79.1-16.1,144.3-25c65.2-8.9,94.9-12.5,96.8,16.1
				c2,28.6-7.9,8.9,17.8,14.3c25.7,5.4-2,42.9,27.7,46.5c29.6,3.6,5,29,30.7,29c25.7,0,18.9,18.9-2.9,18.9
				c-21.7,0-22.4,50.7,9.2,36.4c31.6-14.3,55.9-27.2,55.9-48.6c0-21.5-3.9-23.2,33.6-50.1c37.6-26.8,124.5-91.1,118.6-143
				C4125.6,1898.4,4103.9,1894.8,4086.1,1853.7z"/>
		</g>
	</g>
</g>
<g id="Layer_3">
	<g>
		<g>
			<g>
				<g>
					<path class="st14" d="M823.8,1742l-19-20c8.8-13.5,14.9-27.8,18.8-42.7l0.2,0l27.6,0.7c6.1,0.2,11.3-4.7,11.4-10.8l1.3-48
						c0.2-6.1-4.7-11.2-10.8-11.4l-27.4-0.5c-3.3-15.5-9.1-30.1-16.7-43.3l0.1-0.1l20-19c4.5-4.2,4.4-11.7,0.2-16.2l-33.1-34.9
						c-4.2-4.5-10.9-4.1-15.4,0.1l-20,19c-13.5-8.8-28-15.1-42.9-19l-0.1-0.2l0.7-27.7c0.2-6.1-4.7-11.3-10.8-11.4l-48-1.3
						c-6.1-0.2-11.3,4.7-11.4,10.8l-0.7,27.6c-15.5,3.3-30.3,9.2-43.4,16.9l-0.1-0.1l-19-20c-4.2-4.5-11.1-4.3-15.6-0.1l-34.9,33.1
						c-4.5,4.2-4.7,10.9-0.5,15.3l19,20c-8.8,13.5-14.9,27.8-18.9,42.8l-0.2,0l-27.6-0.7c-6.1-0.2-11.3,4.7-11.4,10.8l-1.3,48
						c-0.2,6.1,4.7,11.2,10.8,11.4l27.7,0.9c3.3,15.5,9.4,30.5,17,43.6l-0.1,0.1l-20,19c-4.5,4.2-4.9,11-0.7,15.5l33.1,34.9
						c4.2,4.5,11.5,4.8,15.9,0.6l20-19c13.5,8.8,27.7,14.8,42.6,18.7l0,0.1l-0.7,27.6c-0.2,6.1,4.7,11.2,10.8,11.4l48,1.3
						c6.1,0.2,11.2-4.7,11.4-10.8l0.7-27.6c15.5-3.3,30.3-9.3,43.4-16.9l0.1,0.1l19,20c4.2,4.5,11.6,5,16.1,0.8l34.9-33.1
						C828.3,1753.8,828,1746.5,823.8,1742z M603.2,1712.8c-39.7-41.8-38-108,3.9-147.7c41.9-39.7,108-38,147.7,3.9
						c39.7,41.9,38,108-3.9,147.7C709,1756.4,642.9,1754.6,603.2,1712.8z"/>
				</g>
			</g>
		</g>
	</g>
	<g>
		<g>
			<g>
				<g>
					<path class="st14" d="M644.8,1939.8l-6.6-7c3.1-4.7,5.2-9.7,6.6-14.9l0.1,0l9.6,0.2c2.1,0.1,3.9-1.6,4-3.8l0.4-16.7
						c0.1-2.1-1.6-3.9-3.8-4l-9.6-0.2c-1.2-5.4-3.2-10.5-5.8-15.1l0,0l7-6.6c1.6-1.5,1.5-4.1,0.1-5.6l-11.5-12.1
						c-1.5-1.6-3.8-1.4-5.4,0l-7,6.6c-4.7-3.1-9.7-5.3-14.9-6.6l0-0.1l0.2-9.6c0.1-2.1-1.6-3.9-3.8-4l-16.7-0.4
						c-2.1-0.1-3.9,1.6-4,3.8l-0.2,9.6c-5.4,1.2-10.5,3.2-15.1,5.9l0,0l-6.6-7c-1.5-1.6-3.9-1.5-5.4,0l-12.1,11.5
						c-1.6,1.5-1.6,3.8-0.2,5.3l6.6,7c-3.1,4.7-5.2,9.7-6.6,14.9l-0.1,0l-9.6-0.2c-2.1-0.1-3.9,1.6-4,3.8l-0.4,16.7
						c-0.1,2.1,1.6,3.9,3.8,4l9.7,0.3c1.2,5.4,3.3,10.6,5.9,15.2l0,0l-7,6.6c-1.6,1.5-1.7,3.8-0.2,5.4l11.5,12.1
						c1.5,1.6,4,1.7,5.5,0.2l7-6.6c4.7,3.1,9.6,5.1,14.8,6.5l0,0l-0.3,9.6c-0.1,2.1,1.6,3.9,3.8,4l16.7,0.4c2.1,0.1,3.9-1.6,4-3.8
						l0.2-9.6c5.4-1.2,10.6-3.2,15.1-5.9l0,0l6.6,7c1.5,1.6,4.1,1.7,5.6,0.3l12.1-11.5C646.3,1943.9,646.2,1941.3,644.8,1939.8z
						 M568,1929.6c-13.8-14.6-13.2-37.6,1.4-51.4c14.6-13.8,37.6-13.2,51.4,1.4c13.8,14.6,13.2,37.6-1.4,51.4
						C604.8,1944.8,581.8,1944.2,568,1929.6z"/>
				</g>
			</g>
		</g>
	</g>
</g>
<g id="Layer_4">
	<g>
		<rect x="2623.8" y="1224" class="st8" width="1407" height="1058.3"/>
		<circle class="st15" cx="3490.7" cy="1892.7" r="36"/>
		<circle class="st7" cx="3424.9" cy="1936.7" r="36"/>
		<circle class="st17" cx="3349.8" cy="1951.6" r="36"/>
		<circle class="st11" cx="3274.7" cy="1936.7" r="36"/>
		<circle class="st29" cx="3208.9" cy="1889.1" r="36"/>
		<circle class="st21" cx="3161.6" cy="1823.7" r="36"/>
		<circle class="st28" cx="3151.1" cy="1748" r="36"/>
		<circle class="st2" cx="3161.6" cy="1672.4" r="36"/>
		<circle class="st24" cx="3203.9" cy="1609.8" r="36"/>
		<circle class="st12" cx="3270.9" cy="1565.8" r="36"/>
		<circle class="st20" cx="3348" cy="1550.9" r="36"/>
		<circle class="st3" cx="3429.1" cy="1567.7" r="36"/>
		<rect x="2623.8" y="1224" class="st14" width="1407" height="111.1"/>
		<circle class="st19" cx="3780.3" cy="1279.5" r="20.6"/>
		<circle class="st19" cx="3862.6" cy="1279.5" r="20.6"/>
		<circle class="st19" cx="3945" cy="1279.5" r="20.6"/>
		<rect x="2623.8" y="2156.5" class="st14" width="1407" height="125.8"/>
		<rect x="3035.6" y="2208.9" class="st19" width="904.2" height="23.8"/>
		<polygon class="st19" points="2713.8,2219.4 2662.2,2249.2 2662.2,2189.6 		"/>
		<rect x="2759.3" y="2189.6" class="st19" width="20" height="55.3"/>
		<rect x="2788.7" y="2189.6" class="st19" width="20" height="55.3"/>
		<rect x="2871.7" y="2187.3" class="st8" width="57.6" height="57.6"/>
	</g>
	<rect x="982.9" y="491.3" class="st1" width="1841.4" height="1385.1"/>
	<polygon class="st18" points="2131.3,1183.8 1772.9,1390.7 1772.9,976.9 	"/>
	<rect x="982.9" y="491.3" class="st14" width="1841.4" height="125.4"/>
	<rect x="982.9" y="1720.5" class="st14" width="1841.4" height="155.8"/>
	<path class="st0" d="M1903.6,1526c-188.7,0-342.2-153.5-342.2-342.2s153.5-342.2,342.2-342.2s342.2,153.5,342.2,342.2
		S2092.4,1526,1903.6,1526z M1903.6,859.3c-178.9,0-324.5,145.6-324.5,324.5s145.6,324.5,324.5,324.5s324.5-145.6,324.5-324.5
		S2082.6,859.3,1903.6,859.3z"/>
	<rect x="1327.9" y="1782.8" class="st0" width="1413.9" height="31.2"/>
	<rect x="1051.7" y="1762.2" class="st0" width="26.1" height="72.4"/>
	<rect x="1090.2" y="1762.2" class="st0" width="26.1" height="72.4"/>
	<circle class="st0" cx="2506.3" cy="554" r="27"/>
	<circle class="st0" cx="2614.1" cy="554" r="27"/>
	<circle class="st0" cx="2721.9" cy="554" r="27"/>
	<path class="st14" d="M3421.6,975.6h-381.2l-56.1,50.2l4.1-50.2h-26.9c-11.6,0-21-9.4-21-21v-276c0-11.6,9.4-21,21-21h460.2
		c11.6,0,21,9.4,21,21v276C3442.6,966.1,3433.2,975.6,3421.6,975.6z"/>
	<path class="st22" d="M3253.7,1068.5h309.4l45.6,40.1l-3.3-40.1h21.9c9.4,0,17.1-7.5,17.1-16.8V831.1c0-9.3-7.6-16.8-17.1-16.8
		h-373.5c-9.4,0-17.1,7.5-17.1,16.8v220.6C3236.6,1061,3244.2,1068.5,3253.7,1068.5z"/>
	<g>
		<g>
			<g>
				<path class="st10" d="M3236.3,1051.2c0,9.3,7.6,16.8,17.1,16.8h309.4l45.6,40.1l-3.3-40.1h21.9c9.4,0,17.1-7.5,17.1-16.8V944.1
					h-407.6V1051.2z"/>
			</g>
		</g>
	</g>
	<circle class="st23" cx="3367.9" cy="944.5" r="18.9"/>
	<circle class="st23" cx="3441.2" cy="944.5" r="18.9"/>
	<circle class="st23" cx="3509.9" cy="944.5" r="18.9"/>
	<path class="st1" d="M1155,382c0,1.4,0,2.8,0,4.2c-0.1,4.2-0.2,8.3-0.4,12.4c-6.6,130.6-90.9,240.6-207.5,285
		c-1.2,0.5-2.5,0.9-3.7,1.4c-3.7,1.4-7.4,2.6-11.2,3.9c-1.3,0.4-2.5,0.8-3.8,1.2c-7.6,2.4-15.3,4.4-23.1,6.2
		c-2.6,0.6-5.2,1.2-7.8,1.7c-6.6,1.3-13.2,2.5-19.9,3.4c-1.3,0.2-2.7,0.4-4,0.5c-2.7,0.3-5.4,0.6-8.1,0.9c-1.4,0.1-2.7,0.3-4.1,0.4
		c-2.7,0.2-5.5,0.4-8.2,0.6c-6.8,0.4-13.8,0.7-20.7,0.7c-7,0-13.9-0.2-20.7-0.7c-2.7-0.2-5.5-0.4-8.2-0.6c-1.4-0.1-2.7-0.3-4.1-0.4
		c-2.7-0.3-5.4-0.6-8.1-0.9c-1.3-0.2-2.7-0.4-4-0.5c-6.7-0.9-13.3-2.1-19.9-3.4c-2.6-0.5-5.2-1.1-7.8-1.7
		c-7.8-1.8-15.5-3.9-23.1-6.2c-1.3-0.4-2.5-0.8-3.8-1.2c-3.8-1.2-7.5-2.5-11.2-3.9c-1.2-0.5-2.5-0.9-3.7-1.4
		c-116.6-44.3-200.9-154.4-207.5-285c-0.2-3.4-0.3-6.9-0.4-10.3c0-0.7,0-1.4,0-2.1c0-0.5,0-1,0-1.5c0-0.9,0-1.8,0-2.6
		c0-3.8,0.1-7.6,0.2-11.4c0-1.2,0.1-2.4,0.1-3.6c0-0.5,0-1,0.1-1.6c0.1-2.7,0.3-5.5,0.5-8.2c0.1-1.4,0.2-2.7,0.3-4.1
		c0.2-2.7,0.5-5.4,0.8-8.1c0.3-2.7,0.7-5.4,1-8.1c0.6-4,1.2-8,1.9-12c6.3-35.1,18.3-68.3,34.9-98.5c0.6-1,1.1-2,1.7-3
		c6.6-11.7,13.9-22.9,21.8-33.5c0.4-0.6,0.9-1.2,1.3-1.8c7.5-10,15.6-19.5,24.2-28.5c0.1-0.1,0.1-0.1,0.2-0.2
		c11.5-12.1,24-23.3,37.3-33.5c6.2-4.7,12.5-9.2,19-13.5c6.5-4.3,13.1-8.3,19.9-12.1c2.3-1.3,4.6-2.5,6.9-3.7c2.3-1.2,4.6-2.4,7-3.6
		c1.5-0.8,3.1-1.5,4.7-2.3c2.8-1.3,5.6-2.6,8.4-3.9c0.7-0.3,1.5-0.6,2.2-1c2-0.9,4.1-1.8,6.1-2.6c2.4-1,4.9-2,7.3-2.9
		c1.2-0.5,2.5-0.9,3.7-1.4c1.6-0.6,3.1-1.1,4.7-1.7c2.2-0.8,4.3-1.5,6.5-2.2c1.3-0.4,2.5-0.8,3.8-1.2c2.5-0.8,5.1-1.5,7.6-2.3
		c6.4-1.8,12.8-3.4,19.4-4.9c2.6-0.6,5.2-1.1,7.9-1.6c2.6-0.5,5.3-1,7.9-1.4c4-0.7,8-1.2,12-1.8c2.7-0.3,5.4-0.7,8.1-0.9
		c1.4-0.1,2.7-0.3,4.1-0.4c2.7-0.2,5.5-0.5,8.2-0.6c6.8-0.4,13.8-0.7,20.7-0.7c7,0,13.9,0.2,20.7,0.7c2.7,0.2,5.5,0.4,8.2,0.6
		c1.4,0.1,2.7,0.2,4.1,0.4c2.7,0.3,5.4,0.6,8.1,0.9c4,0.5,8,1.1,12,1.8c2.7,0.4,5.3,0.9,7.9,1.4c2.6,0.5,5.3,1,7.9,1.6
		c6.5,1.4,13,3,19.4,4.9c2.5,0.7,5.1,1.5,7.6,2.3c1.3,0.4,2.5,0.8,3.8,1.2c2.2,0.7,4.4,1.4,6.5,2.2c1.6,0.5,3.1,1.1,4.7,1.7
		c1.2,0.5,2.5,0.9,3.7,1.4c2.5,0.9,4.9,1.9,7.3,2.9c2.1,0.8,4.1,1.7,6.2,2.6c0.7,0.3,1.5,0.6,2.2,1c2.8,1.3,5.6,2.5,8.4,3.9
		c1.6,0.7,3.1,1.5,4.6,2.3c2.3,1.2,4.7,2.3,7,3.6c2.3,1.2,4.6,2.5,6.9,3.7c6.8,3.8,13.5,7.8,19.9,12.1c6.5,4.3,12.8,8.8,19,13.5
		c13.3,10.2,25.8,21.4,37.3,33.5c0.1,0.1,0.1,0.1,0.2,0.2c8.6,9,16.7,18.5,24.2,28.5c0.5,0.6,0.9,1.2,1.4,1.8
		c7.9,10.7,15.2,21.9,21.8,33.5c0.6,1,1.1,2,1.7,3c16.7,30.2,28.6,63.4,34.9,98.5c0.7,4,1.3,8,1.9,12c0.4,2.7,0.7,5.4,1,8.1
		c0.3,2.7,0.6,5.4,0.8,8.1c0.1,1.4,0.2,2.7,0.3,4.1c0.2,2.7,0.4,5.5,0.5,8.2C1154.9,370.9,1155,376.4,1155,382z"/>
	<circle class="st16" cx="832.5" cy="382" r="268.3"/>
	<circle class="st1" cx="832.5" cy="382" r="212.5"/>
	<circle class="st16" cx="832.5" cy="382" r="161.1"/>
	<circle class="st1" cx="832.5" cy="382.9" r="112.4"/>
	<circle class="st16" cx="832.5" cy="379.4" r="54"/>
	<path class="st5" d="M944,397.7c-5,38.7-29.7,71.3-63.8,87.3l-80.6-62.5l0,0c9.1,7,20.5,11.2,32.9,11.2c29.8,0,54-24.2,54-54
		c0-17.2-8.1-32.6-20.7-42.5l0-0.1L944,397.7z"/>
	<path class="st5" d="M1045.3,382.3c0,113.8-89.4,206.7-201.8,212.2l-108-83.8c27,20.5,60.8,32.7,97.3,32.7
		c89,0,161.1-72.1,161.1-161.1c0-49.1-22-93.1-56.7-122.7l103.9,80.6C1043.9,353.8,1045.3,367.9,1045.3,382.3z"/>
	<path class="st5" d="M1155,382c0,1.4,0,2.8,0,4.2c-0.1,4.2-0.2,8.3-0.4,12.4c-6.6,130.6-90.9,240.6-207.5,285
		c-1.2,0.5-2.5,0.9-3.7,1.4c-3.7,1.4-7.4,2.6-11.2,3.9c-1.3,0.4-2.5,0.8-3.8,1.2c-7.6,2.4-15.3,4.4-23.1,6.2
		c-2.6,0.6-5.2,1.2-7.8,1.7c-6.6,1.3-13.2,2.5-19.9,3.4c-1.3,0.2-2.7,0.4-4,0.5c-2.7,0.3-5.4,0.6-8.1,0.9c-1.4,0.1-2.7,0.3-4.1,0.4
		c-2.7,0.2-5.5,0.4-8.2,0.6c-6.8,0.4-13.8,0.7-20.7,0.7c-7,0-13.9-0.2-20.7-0.7c-1-0.1-2.1-0.1-3.1-0.2L662,589.9l0.3-0.4
		c46.3,38,105.6,60.8,170.2,60.8c148.2,0,268.3-120.1,268.3-268.3c0-88.8-43.1-167.5-109.6-216.4l0.2-0.2l147,114.1
		c4.9,14.7,8.8,29.9,11.6,45.4c0.7,4,1.3,8,1.9,12c0.4,2.7,0.7,5.4,1,8.1c0.3,2.7,0.6,5.4,0.8,8.1c0.1,1.4,0.2,2.7,0.3,4.1
		c0.2,2.7,0.4,5.5,0.5,8.2C1154.9,370.9,1155,376.4,1155,382z"/>
	<path class="st23" d="M290.4,423l44-44l-43.8-43.3l133.9,0.1l33.1,34.8l366.5,0.4c4.6,0,8.4,3.8,8.4,8.4l0,1c0,4.6-3.8,8.4-8.4,8.4
		l-366.7-0.4l-32.6,34.7L290.4,423z"/>
	<g>
		<g>
			<g>
				<path class="st13" d="M334.4,378.9l-43.8-43.3l133.9,0.1l33.1,34.8l366.5,0.4c4.6,0,8.4,3.8,8.4,8.4l0,0.5L334,379.3
					L334.4,378.9z"/>
			</g>
		</g>
	</g>
</g>
<g id="Layer_5">
	<path class="st8" d="M2335.6,204.2C2335.6,91.4,2244.1,0,2131.3,0c-112.8,0-204.3,91.4-204.3,204.2c0,79.9,45.9,149.1,112.8,182.6
		v46.7c0,11.1,8.7,20,19.3,20H2210c10.7,0,19.3-9,19.3-20v-50.1C2292.7,348.8,2335.6,281.5,2335.6,204.2z"/>
	<rect x="2039.9" y="404.6" class="st22" width="189.1" height="185"/>
	<path class="st6" d="M2030.3,583.2c7.5,38.2,51,67.5,103.6,67.5c52.6,0,96.2-29.3,103.6-67.5H2030.3z"/>
	<path class="st6" d="M2262.8,421.5c0,9.4-10.5,16.9-23.4,16.9h-209.1c-12.9,0-23.4-7.6-23.4-16.9l0,0c0-9.4,10.5-16.9,23.4-16.9
		h209.1C2252.3,404.6,2262.8,412.2,2262.8,421.5L2262.8,421.5z"/>
	<path class="st6" d="M2261.8,478.3c0,9.4-10.5,16.9-23.4,16.9h-209.1c-12.9,0-23.4-7.6-23.4-16.9l0,0c0-9.4,10.5-16.9,23.4-16.9
		h209.1C2251.4,461.4,2261.8,469,2261.8,478.3L2261.8,478.3z"/>
	<path class="st6" d="M2264,538.4c0,9.4-10.5,16.9-23.4,16.9h-209.1c-12.9,0-23.4-7.6-23.4-16.9l0,0c0-9.4,10.5-16.9,23.4-16.9
		h209.1C2253.6,521.4,2264,529,2264,538.4L2264,538.4z"/>
</g>
<g id="Layer_6">
	<path class="st30" d="M381.3,1099.7c3.4,2.1,6.8,3.9,10.7,4.9c4.2,1.1,5.3,7.8,1.8,11c-5.8,5.4-9,12.3-10.5,19.9
		c-2.6,14,2.8,25.2,13.1,34.4c4.2,3.7,9,6.7,14.2,8.9c5.4,2.3,6.6,9.6,2.1,13.5c-10.2,8.8-13.2,21.1-7.8,34.2
		c4.4,10.7,11.3,19.2,21.6,24.8c1.4,0.7,2.8,1.3,4.3,1.8c3.6,1.2,5.1,2.8,5.4,6.6c0.2,2.8-0.6,5.1-2.9,7.1
		c-5.6,4.8-9.6,10.7-10.6,18.2c-0.7,5.7,0.4,11.2,2.9,16.4c3.7,7.9,9.3,14.2,15.9,19.8c3,2.6,11.1,6.6,17.3,9.3
		c3.4,1.5,13.8,3.7,16.9,4.3c151.7,30.8,258.2-9.1,271.8-14c2.9-1,12.3-7.2,14.9-7.2c0.4,0,3.6-0.8,3.6-1.2v-227.1
		c-5.7-4-11.3-8-17-11.9c-0.6-0.4-1-0.8-1.5-1.3c-0.2-0.2-0.3-0.4-0.5-0.6c-30.1-37.9-49.5-78.1-71.9-121
		c-15-28.6-18.8-89.8-18.6-112.8c0.1-9.2-6.9-24.3-25-24.3c-4.6,0.1-14.1,0.4-19.8,2.5c-6.8,2.5-12.6,11.4-18.4,22.8
		c-7.9,15.5-12.9,32.3-17.6,49.2c-1.8,6.3-3.3,12.7-4.2,19.2c-0.7,4.7-0.7,9.6-0.4,14.3c0.4,5.5,0.7,10.9,1.2,16.4
		c1.1,10.7,2.6,21.4,4.4,32c2,11.5,4.2,23,6.5,34.4c0,0.1,0.1,0.3,0.1,0.4c0,0.8,0.2,1.8,0.4,2.8c3.7,14.7-11.2,23.3-20.1,27.1
		c-2.4,1-12,2.2-14.7,2.2c-48.5,0-129.8-0.3-139.6-0.2c-6.6,0-13.1-0.1-19.7,0.2c-10.8,0.6-22.6,7.5-26.1,21.9
		C359.7,1074.1,367,1090.9,381.3,1099.7z"/>
	<polygon class="st22" points="828.5,1081.4 766.4,1081.3 765.9,1322 828,1322 	"/>
	<polygon class="st27" points="1065.2,1049.1 797.7,1048.9 797.4,1352.4 1064.9,1352.6 	"/>
	<polygon class="st14" points="1065.2,1200.9 797.7,1200.6 797.5,1352.6 1065,1352.9 	"/>
</g>
<g id="Layer_7">
	<path class="st30" d="M1919.2,2536.5v-44.4c0,0-67-6.4-110.9-87.7l-203-439.7c0,0-12-24.5-11.2-39c0,0-1.7-48,41-69.2
		c0,0,42.4-14.3,70.4,18.3c0,0,21.2,15.8,40.5,60.7l45.6,87.4l21.5,36.4l0.2-358.7l1.2-340.1c0,0,11.5-57.5,47.3-69.9
		c0,0,41.3-15.2,64.6,10.5c0,0,31,20.4,32,63.2V1580l-3.1,409.3c0,0,2.4-149.8,11.4-173.3c0,0,24.1-60.6,73-54.9
		c0,0,50.3-2.4,70.8,48.5c0,0,19.3,23.8,9.6,101.5l0.8,79.6c0,0-1.6-132.6,5.2-143.6c6.8-10.9,16.1-47.1,68.8-49
		c0,0,46.3,1.9,63.6,48c0,0,6.8,2.4,6.8,44.7l2,87.5c0,0-2.8-87.9,2.8-95.1c0,0,18.1-45.2,50.3-45.2c0,0,37-11.9,57.9,22.3
		c0,0,20.5,13.3,18.5,67.5l-9.4,255c0,0-14.6,215.3-101.6,307.1l-0.6,46.5H1919.2z"/>
	
		<rect x="2048.3" y="2335.3" transform="matrix(-1.659794e-003 1 -1 -1.659794e-003 4684.2568 479.3826)" class="st22" width="109.1" height="485.3"/>
	
		<rect x="1957.1" y="2420.1" transform="matrix(-9.923417e-004 1 -1 -9.923417e-004 4832.9482 624.0593)" class="st26" width="295.2" height="611.9"/>
	
		<rect x="1803.9" y="2572.9" transform="matrix(-9.940106e-004 1 -1 -9.940106e-004 4679.5796 777.2798)" class="st14" width="295.2" height="306.4"/>
	<path class="st4" d="M1843.2,1419.1l82,3.8c7,0.3,12.9-5.2,13.1-12.2l1.2-44.9c0,0-1.2-35.7-45.9-43.4c0,0-37.6-5.1-56.1,27.3
		c0,0-6.5,13.5-5.5,41.9l-0.7,14.4C1830.9,1412.9,1836.3,1418.8,1843.2,1419.1z"/>
	<path class="st4" d="M1646.8,1998.7l59.1-30.1c5-2.6,6.3-9.7,2.8-15.8l-22.4-38.9c0,0-19.3-30-54.4-18.5c0,0-28.8,11-25,46.2
		c0,0,2.5,14.2,17.8,38.1l6.9,12.6C1635,1998.4,1641.8,2001.2,1646.8,1998.7z"/>
	<path class="st18" d="M4152,1548.1c0,31.9-19.5,59.2-47.2,70.8c-6.2,3.7-13.5,5.9-21.3,5.9h-229.8c-1.9,0-3.8-0.1-5.6-0.4
		c-16.7-1.7-31.8-8.7-43.6-19.4c0,0,0,0,0,0c-15.5-14-25.3-34.3-25.3-56.9c0-38.7,28.6-70.7,65.9-75.9c5.6-30.3,32.1-53.2,64-53.2
		c10.6,0,20.6,2.6,29.5,7.1c16.9-20.9,42.8-34.3,71.7-34.3c15.5,0,30.1,3.8,42.9,10.6v0c0,0,0,0,0,0c23,12.1,40.3,33.7,46.6,59.6
		c0,0.2,0.1,0.4,0.1,0.5c13.2,1.6,23.5,12.6,23.9,26.2c7.7,6.2,14.1,13.9,18.9,22.7C4148.6,1522.3,4152,1534.8,4152,1548.1z"/>
	<path class="st0" d="M4152,1548.1c0,31.9-19.5,59.2-47.2,70.8c-6.2,3.7-13.5,5.9-21.3,5.9h-229.8c-1.9,0-3.8-0.1-5.6-0.4
		c-16.7-1.7-31.8-8.7-43.6-19.4c0.9,0.5,54.4,28.7,90.9-23.6c0,0,13.1-15,6.7-32.7c0,0,59.9,15.8,63.6-38.2c0,0,53.8,49.4,96.8-9.7
		c0,0,28.4-41.7-9.3-98.4c0,0,0,0,0,0c1,0.5,38,18.5,46.6,59.6c3.5,16.6,2.3,36.9-7.8,61.3c0,0-4.9,26.7-50.9,47.7
		c0,0,4.2,57,72.2,24.7c0,0,54-25.9,28.9-84.1l0.5-0.2C4148.6,1522.3,4152,1534.8,4152,1548.1z"/>
</g>
</svg>
