<?xml version="1.0" encoding="utf-8"?>
<!-- Generator: Adobe Illustrator 16.0.0, SVG Export Plug-In . SVG Version: 6.00 Build 0)  -->
<!DOCTYPE svg PUBLIC "-//W3C//DTD SVG 1.1//EN" "http://www.w3.org/Graphics/SVG/1.1/DTD/svg11.dtd">
<svg version="1.1" xmlns="http://www.w3.org/2000/svg" xmlns:xlink="http://www.w3.org/1999/xlink" x="0px" y="0px" width="2000px"
	 height="1913px" viewBox="0 0 2000 1913" style="enable-background:new 0 0 2000 1913;" xml:space="preserve">
<style type="text/css">
<![CDATA[
	.st0{opacity:0.36;fill:#FFFFFF;}
	.st1{fill:#AE4441;}
	.st2{opacity:0.5;fill:#1F8BC3;}
	.st3{opacity:0.36;fill:#CDE9F9;}
	.st4{fill:#E2AF5B;}
	.st5{fill:#E55957;}
	.st6{fill:#B3B2B3;}
	.st7{fill:#1F8BC3;}
	.st8{fill:#25A1D8;}
	.st9{fill:#263238;}
	.st10{fill:#5B6375;}
	.st11{fill:#F6F4F4;}
	.st12{fill:#F8BD36;}
	.st13{fill:#F96262;}
	.st14{fill:#FCED99;}
	.st15{fill:#FFFFFF;}
	.st16{fill:#CCCBCB;}
	.st17{fill:#37484F;}
	.st18{opacity:0.11;fill:#FFFFFF;}
	.st19{display:none;fill:#EC8457;}
	.st20{fill:#D67040;}
	.st21{fill:#434E5B;}
]]>
</style>
<g id="Layer_1">
	<g>
		<path class="st1" d="M724.1,776.7c0,1.2-0.1,2.3-0.3,3.4c-1.4-7.2-6.9-12.6-13.5-12.6H477c-3.8,0-7.3,1.8-9.8,4.7
			c-1.8,2.1-3.2,4.9-3.7,7.9c-0.2-1.1-0.3-2.3-0.3-3.4c0-4.4,1.5-8.4,4-11.4c2.5-2.9,6-4.7,9.8-4.7h233.3
			C717.9,760.7,724.1,767.9,724.1,776.7z"/>
		<path class="st5" d="M181.2,1026.9c-3.1,15-32.6,39.8-82.5,8.9c8.7-5,19.5-10.3,26.3-24.6l0,0c8.4-18.3,1.7-36.1-10.8-48.8
			c-10.8-11-27.5-19.6-42.7-20.9c-47.4-1.5-30.2,61.2,1.3,89l1.9,1.7c1.6,1.5,3,2.7,4.2,3.7c-7.3,6.3-20.3,13.7-35,17.6
			c-4.6,1.2-7.8,5.5-7.4,10.1c0,0.1,0,0.1,0,0.1c0.2,1.7,1.6,3.1,3.3,3.4c5.4,0.9,21.1,0.6,49.1-22.7c20,15.6,45.2,27.8,65.6,27.4
			c21.6-0.5,44.5-11.3,48.4-36L181.2,1026.9z M89,965.3c5.4,2.4,9.9,6.4,12.7,11.5c1.6,3,3,6.2,4,9c2.2,6.1,1.6,12.8-1.5,18.5
			c-6.6,11.9-14.5,19.6-14.5,19.6C55.6,1005.5,49.6,947.6,89,965.3z"/>
		<path class="st13" d="M1154.1,967.4c-3.5-3.1-8.4-5.1-13.8-5.1H1090c-0.1-0.2-0.2-0.4-0.2-0.6c-38-108.1-160-204.5-267.8-224.2
			c-3.2-0.6-6.5-1.1-9.7-1.7v-60.7H812c-0.3,0-0.6,0-0.8,0c-40.9,0.4-73.8,25.1-73.8,55.5l-234.8,2.1
			c-170.1,0-313.1,103.5-354.3,243.9c-5,17-15.6,59-8.9,125.8c0,0,28.1,171,186.6,225.9l-0.7,81.8h0c0.2,33.9,31,61.3,69,61.3
			c38,0,68.8-27.4,69-61.3h0v0l-0.2-40.8c12.9,1.2,288,1.8,293.4,1.6l0.2,39.3h0c0.2,33.9,31,61.3,69,61.3c38,0,68.8-27.4,69-61.3h0
			v0h0.2l0.3-67.7c92.3-38.4,163.5-95.9,194.6-183.7c0,0,0,0,0-0.1h50.7c10.8,0,19.5-7.8,19.5-17.4V979.7
			C1159.8,974.9,1157.6,970.6,1154.1,967.4z"/>
		<path class="st5" d="M758.1,816l0,81.7c-0.9-4.1-10.1,17.6-47.1,16.8c-12.4-0.3-24.1-2.9-34.3-7.9c-0.9-4.5-1.4-9.2-1.4-13.9
			C675.4,851.2,712.2,817.4,758.1,816z"/>
		<path class="st21" d="M972.1,966.1c0,20.1-18.2,36.4-40.8,36.4c-22.5,0-40.7-16.3-40.7-36.4c0-20.1,18.2-36.4,40.7-36.4
			C953.9,929.6,972.1,945.9,972.1,966.1z"/>
		<path class="st15" d="M951,955.7c0,4.7-4.2,8.4-9.4,8.4c-5.2,0-9.4-3.8-9.4-8.4c0-4.7,4.2-8.4,9.4-8.4
			C946.8,947.2,951,951,951,955.7z"/>
		<path class="st13" d="M1159.8,979.5v161.6c0,9.6-8.7,17.4-19.5,17.4h-50.7c0,0,0,0,0,0.1c-36.6-14.4-62.9-53.1-62.9-98.5
			c0-45.5,26.3-84.2,63.1-98.6c0,0.2,0.1,0.4,0.2,0.6h50.3c5.4,0,10.2,1.9,13.8,5.1C1157.6,970.3,1159.8,974.7,1159.8,979.5z"/>
		<path class="st21" d="M723.8,776.9L723.8,776.9c-1.4,5.4-6.9,9.4-13.5,9.4H477c-6.6,0-12.2-4-13.5-9.3v0c0.6-2.3,1.9-4.3,3.7-5.8
			c2.5-2.1,6-3.5,9.8-3.5h233.3C716.9,767.6,722.4,771.6,723.8,776.9z"/>
		<path class="st20" d="M523.9,1359c0,0-1.2,21.2-2.1,23.9c-5.9,16.9-23.5,29.2-44.4,29.2c-20.9,0-38.5-12.3-44.3-29.2
			c-1-2.7-1.6-5.5-1.9-8.4l3.6-4l15.9-31.5C488.9,1357,479.2,1354.1,523.9,1359z"/>
		<path class="st20" d="M923.6,1326.9v37.8h-0.2c-2.3,21.1-22.1,37.5-46.3,37.5c-24.1,0-44-16.5-46.2-37.5l-20.9-2.8l47.3-37.7
			C925.5,1317.4,923.6,1326.9,923.6,1326.9z"/>
		<path class="st5" d="M1159.4,1076v68c0,9.6-8.7,17.4-19.5,17.4h-50.7c0,0,0,0-0.1,0.1c-31,87.8-102.3,145.3-194.6,183.7l-0.3,67.7
			h-0.2v0h0c-0.2,33.9-31,61.3-69,61.3c-38,0-68.8-27.4-69-61.3h0l-0.2-39.3c-5.4,0.2-280.5-0.3-293.4-1.6l0.2,40.8v0h0
			c-0.2,33.9-31,61.3-69,61.3c-38,0-68.8-27.4-69-61.3h0l0.7-81.8c-158.5-54.9-186.6-225.9-186.6-225.9c-1-10.3-1.7-20-1.9-29.1
			H1159.4z"/>
	</g>
	<g>
		<circle class="st12" cx="591" cy="672.6" r="107.6"/>
		<path class="st14" d="M591,570.6c-56.3,0-102,45.7-102,102c0,56.3,45.7,102,102,102c56.3,0,102-45.7,102-102
			C693,616.2,647.3,570.6,591,570.6z M591,770.9c-54.3,0-98.3-44-98.3-98.3c0-54.3,44-98.3,98.3-98.3c54.3,0,98.3,44,98.3,98.3
			C689.3,726.9,645.3,770.9,591,770.9z"/>
		<path class="st18" d="M496.7,620.7c-8.5,15.4-13.3,33.1-13.3,51.9c0,59.4,48.2,107.6,107.6,107.6c27.8,0,53.2-10.6,72.3-27.9
			L496.7,620.7z"/>
		<circle class="st4" cx="591" cy="672.6" r="73.4"/>
		<circle class="st14" cx="593.7" cy="672.6" r="69.1"/>
		<path class="st4" d="M587.9,712.6c-8.5-0.4-16.8-2.3-24.7-5.7v-19.4c4.5,2.3,9.4,4.2,14.7,5.8c5.3,1.5,10,2.3,14,2.3
			c3.3,0,5.7-0.4,7.3-1.2c1.5-0.8,2.3-2.1,2.3-4c0-1.3-0.6-2.4-1.7-3.3c-1.1-0.9-3-1.9-5.6-3c-2.6-1.1-6.1-2.5-10.5-4.1
			c-5-1.8-8.9-3.9-12-6.2c-3-2.3-5.3-4.8-6.6-7.7c-1.4-2.8-2.1-6.3-2.1-10.6c0-6.4,2.1-11.5,6.2-15.1c4.1-3.6,10.3-5.9,18.6-6.7v-13
			H600v12.9c7.8,0.4,15.6,2.3,23.5,5.7l-7,16.7c-8.2-3.7-15.5-5.5-22.1-5.5c-3.1,0-5.3,0.4-6.6,1.1c-1.3,0.8-1.9,1.9-1.9,3.4
			c0,1.3,0.5,2.4,1.4,3.2c0.9,0.8,2.5,1.8,4.8,2.8c2.3,1,5.4,2.2,9.4,3.6c8.2,2.9,14,6.2,17.6,9.9c3.5,3.7,5.3,8.4,5.3,14.2
			c0,6.6-2.1,11.9-6.2,16c-4.2,4.1-10.2,6.6-18.2,7.6v15.7h-12.1V712.6z"/>
	</g>
	<g>
		<circle class="st12" cx="483.4" cy="458.9" r="107.6"/>
		<path class="st14" d="M483.4,356.9c-56.3,0-102,45.7-102,102c0,56.3,45.7,102,102,102c56.3,0,102-45.7,102-102
			C585.4,402.5,539.7,356.9,483.4,356.9z M483.4,557.2c-54.3,0-98.3-44-98.3-98.3c0-54.3,44-98.3,98.3-98.3
			c54.3,0,98.3,44,98.3,98.3C581.7,513.2,537.7,557.2,483.4,557.2z"/>
		<path class="st18" d="M389.1,407c-8.5,15.4-13.3,33.1-13.3,51.9c0,59.4,48.2,107.6,107.6,107.6c27.8,0,53.2-10.6,72.3-27.9
			L389.1,407z"/>
		<circle class="st4" cx="483.4" cy="458.9" r="73.4"/>
		<circle class="st14" cx="486.1" cy="458.9" r="69.1"/>
		<path class="st4" d="M480.3,498.9c-8.5-0.4-16.8-2.3-24.7-5.7v-19.4c4.5,2.3,9.4,4.2,14.7,5.8c5.3,1.5,10,2.3,14,2.3
			c3.3,0,5.7-0.4,7.3-1.2c1.5-0.8,2.3-2.1,2.3-4c0-1.3-0.6-2.4-1.7-3.3c-1.1-0.9-3-1.9-5.6-3c-2.6-1.1-6.1-2.5-10.5-4.1
			c-5-1.8-8.9-3.9-12-6.2c-3-2.3-5.3-4.8-6.6-7.7c-1.4-2.8-2.1-6.3-2.1-10.6c0-6.4,2.1-11.5,6.2-15.1c4.1-3.6,10.3-5.9,18.6-6.7v-13
			h12.1v12.9c7.8,0.4,15.6,2.3,23.5,5.7l-7,16.7c-8.1-3.7-15.5-5.5-22.1-5.5c-3.1,0-5.3,0.4-6.6,1.1c-1.3,0.8-1.9,1.9-1.9,3.4
			c0,1.3,0.5,2.4,1.4,3.2s2.5,1.8,4.8,2.8c2.3,1,5.4,2.2,9.4,3.6c8.1,2.9,14,6.2,17.5,9.9c3.5,3.7,5.3,8.4,5.3,14.2
			c0,6.6-2.1,11.9-6.2,16c-4.2,4.1-10.2,6.6-18.2,7.6v15.7h-12.1V498.9z"/>
	</g>
	<g>
		<path class="st12" d="M782.9,283.9c0,59.4-48.2,107.6-107.6,107.6c-59.4,0-107.6-48.2-107.6-107.6c0-59.4,48.2-107.6,107.6-107.6
			C734.8,176.3,782.9,224.5,782.9,283.9z"/>
		<path class="st14" d="M675.3,181.9c-56.3,0-102,45.7-102,102s45.7,102,102,102c56.3,0,102-45.7,102-102S731.7,181.9,675.3,181.9z
			 M675.3,382.2c-54.3,0-98.3-44-98.3-98.3c0-54.3,44-98.3,98.3-98.3c54.3,0,98.3,44,98.3,98.3C773.6,338.2,729.6,382.2,675.3,382.2
			z"/>
		<path class="st18" d="M581.1,232c-8.5,15.4-13.3,33.1-13.3,51.9c0,59.4,48.2,107.6,107.6,107.6c27.8,0,53.2-10.6,72.3-27.9
			L581.1,232z"/>
		<path class="st4" d="M748.8,283.9c0,40.6-32.9,73.4-73.4,73.4c-40.6,0-73.4-32.9-73.4-73.4c0-40.6,32.9-73.4,73.4-73.4
			C715.9,210.5,748.8,243.3,748.8,283.9z"/>
		<circle class="st14" cx="678.1" cy="283.9" r="69.1"/>
		<path class="st4" d="M672.2,323.9c-8.5-0.4-16.8-2.3-24.7-5.7v-19.4c4.5,2.3,9.4,4.2,14.7,5.8c5.3,1.5,10,2.3,14,2.3
			c3.3,0,5.7-0.4,7.3-1.2c1.5-0.8,2.3-2.1,2.3-4c0-1.3-0.6-2.4-1.7-3.3c-1.1-0.9-3-1.9-5.6-3c-2.6-1.1-6.1-2.5-10.5-4.1
			c-5-1.8-8.9-3.9-12-6.2c-3-2.3-5.3-4.8-6.6-7.7c-1.4-2.8-2.1-6.3-2.1-10.6c0-6.4,2.1-11.5,6.2-15.1c4.1-3.6,10.3-5.9,18.6-6.7v-13
			h12.1v12.9c7.8,0.4,15.6,2.3,23.5,5.7l-7,16.7c-8.2-3.7-15.5-5.5-22.1-5.5c-3.1,0-5.3,0.4-6.6,1.1c-1.3,0.8-1.9,1.9-1.9,3.4
			c0,1.3,0.5,2.4,1.4,3.2c0.9,0.8,2.5,1.8,4.8,2.8c2.3,1,5.4,2.2,9.4,3.6c8.2,2.9,14,6.2,17.5,9.9c3.5,3.7,5.3,8.4,5.3,14.2
			c0,6.6-2.1,11.9-6.2,16c-4.2,4.1-10.2,6.6-18.2,7.6v15.7h-12.1V323.9z"/>
	</g>
	<g>
		<polygon class="st10" points="373.4,125.6 370.3,235 373.6,360.6 376.9,235 		"/>
		<polygon class="st10" points="462.2,236.8 373.1,233.7 289.4,237 373,240.3 		"/>
		<polygon class="st10" points="419.6,191.8 372.1,236.1 330.6,280.9 375.5,239.6 		"/>
		<polygon class="st10" points="330.5,191.9 374.9,239.4 419.7,280.8 378.3,236 		"/>
	</g>
	<g>
		<polygon class="st10" points="864.7,410.9 862.1,505.9 864.9,614.9 867.8,505.9 		"/>
		<polygon class="st10" points="941.8,507.4 864.5,504.7 791.8,507.6 864.4,510.5 		"/>
		<polygon class="st10" points="904.9,468.3 863.6,506.8 827.6,545.7 866.6,509.8 		"/>
		<polygon class="st10" points="827.5,468.4 866,509.7 905,545.6 869,506.7 		"/>
	</g>
	<g>
		<polygon class="st10" points="228.6,553.5 226.7,619.4 228.7,695.1 230.7,619.5 		"/>
		<polygon class="st10" points="282.1,620.5 228.4,618.7 178,620.6 228.4,622.7 		"/>
		<polygon class="st10" points="256.4,593.4 227.8,620.1 202.8,647.1 229.8,622.2 		"/>
		<polygon class="st10" points="202.8,593.5 229.5,622.1 256.5,647 231.5,620 		"/>
	</g>
</g>
<g id="Layer_2">
	<rect y="-0.8" class="st19" width="2000" height="2000"/>
	<path class="st6" d="M1384.7,862.9V755.3c31.8,0,53.9,24.1,53.9,53.8C1438.6,838.8,1411.2,862.9,1384.7,862.9z"/>
	<path class="st11" d="M1305.3,1129.1V1736c0,0-16.2,68.1-81.3,60.2l-853,0.6v-466.4c0,0-70,12.8-74-65.1c0,0-4.4-57,65.9-70.3
		l870-2.7C1232.9,1192.3,1292.1,1197.2,1305.3,1129.1z"/>
	<path class="st6" d="M297,1266.8l0,572c0,0,15.8,59.6,74,49.8v-563.1C371,1325.5,301.7,1336.9,297,1266.8z"/>
	<g>
		<rect x="1160.2" y="1250.5" class="st5" width="19.3" height="488.6"/>
		<rect x="1134.4" y="1250.5" class="st5" width="19.3" height="488.6"/>
		<rect x="1108.7" y="1250.5" class="st5" width="19.3" height="488.6"/>
		<rect x="1082.9" y="1250.5" class="st5" width="19.3" height="488.6"/>
	</g>
	<rect x="944.4" y="1250.5" class="st7" width="91.3" height="327.7"/>
	<rect x="461.2" y="1628.3" class="st7" width="429.3" height="63.5"/>
	<g>
		<path class="st16" d="M921.5,1717.6v-439.8v-22.7h-21.9H440h-18.6v22.7v439.8v24.5H440h459.7h21.9V1717.6z M903,1713H442.5l0,0
			v-436.7H903V1713L903,1713z"/>
	</g>
	<rect x="1030.8" y="1611.9" class="st6" width="9.7" height="127.2"/>
	<rect x="1013.6" y="1611.9" class="st6" width="9.7" height="127.2"/>
	<rect x="996.5" y="1611.9" class="st6" width="9.7" height="127.2"/>
	<rect x="979.3" y="1611.9" class="st6" width="9.7" height="127.2"/>
	<rect x="962.1" y="1611.9" class="st6" width="9.7" height="127.2"/>
	<rect x="944.9" y="1611.9" class="st6" width="9.7" height="127.2"/>
	<rect x="447.9" y="1457.4" class="st6" width="213.4" height="9.7"/>
	<rect x="447.9" y="1432.9" class="st6" width="213.4" height="9.7"/>
	<rect x="447.9" y="1408.4" class="st6" width="213.4" height="9.7"/>
	<rect x="447.9" y="1383.9" class="st6" width="213.4" height="9.7"/>
	<rect x="447.9" y="1359.4" class="st6" width="213.4" height="9.7"/>
	<rect x="447.9" y="1334.9" class="st6" width="213.4" height="9.7"/>
	<rect x="447.9" y="1310.4" class="st6" width="213.4" height="9.7"/>
	<rect x="447.9" y="1285.9" class="st6" width="213.4" height="9.7"/>
	<rect x="677.5" y="1457.4" class="st6" width="213.4" height="9.7"/>
	<rect x="677.5" y="1432.9" class="st6" width="213.4" height="9.7"/>
	<rect x="677.5" y="1408.4" class="st6" width="213.4" height="9.7"/>
	<rect x="677.5" y="1383.9" class="st6" width="213.4" height="9.7"/>
	<rect x="677.5" y="1359.4" class="st6" width="213.4" height="9.7"/>
	<rect x="677.5" y="1334.9" class="st6" width="213.4" height="9.7"/>
	<rect x="677.5" y="1310.4" class="st6" width="213.4" height="9.7"/>
	<rect x="677.5" y="1285.9" class="st6" width="213.4" height="9.7"/>
	<rect x="454.7" y="1581.8" class="st7" width="435.8" height="10.6"/>
	<rect x="454.7" y="1557.1" class="st7" width="435.8" height="10.6"/>
	<rect x="454.7" y="1532.4" class="st7" width="435.8" height="10.6"/>
	<rect x="454.7" y="1507.6" class="st7" width="435.8" height="10.6"/>
	<rect x="454.7" y="1482.9" class="st7" width="435.8" height="10.6"/>
	<path class="st17" d="M1549.4,196.4h-122h-122c-53.4,148.2-45.4,346.9-45.4,346.9c6,311.5,96.3,343.9,96.3,343.9h71.1h71.1
		c0,0,90.2-32.4,96.3-343.9C1594.8,543.3,1602.8,344.6,1549.4,196.4z"/>
	<path class="st11" d="M1260.8,570.6c0,0-165.3,121.3-42.1,395.8c0,0,34.3-96.6,129.1-85.5C1347.8,880.9,1270.1,831.7,1260.8,570.6z
		"/>
	<path class="st11" d="M1593.7,570.6c0,0,165.3,121.3,42.1,395.8c0,0-33.8-96.8-128.5-85.6C1507.2,880.7,1584.3,831.7,1593.7,570.6z
		"/>
	<path class="st9" d="M1594.8,537.5c-5.2,319.4-96.8,348.7-96.8,348.7l-70.6-0.8l0.5-689.1h122.7
		C1602.7,341.9,1594.8,537.5,1594.8,537.5z"/>
	<path class="st8" d="M1427.9,36.8c0,0-0.5,0.1-0.7,0.1c-0.4,0-1.2-1-1.2-1c-10.9,2.2-77.1,20.2-109,136.7h108.9h1.5h5V38.3
		C1429.7,37.8,1428.9,37,1427.9,36.8z"/>
	<path class="st7" d="M1426.5,35.6l0.9,136.9h108.9C1507.3,66.7,1443.5,41,1426.5,35.6z"/>
	<g>
		<path class="st11" d="M1431.6,465.7c-23.5,0-42.6,19.1-42.6,42.6c0,23.5,19.1,42.6,42.6,42.6c23.5,0,42.6-19.1,42.6-42.6
			C1474.1,484.8,1455,465.7,1431.6,465.7z M1460,523.7c-0.5,0.9-1,1.8-1.6,2.7c-0.3,0.4-0.6,0.9-0.9,1.3c-0.6,0.8-1.3,1.6-2,2.4
			c-1.7,1.9-3.7,3.6-5.9,5.1c-1.3,0.9-2.6,1.7-4.1,2.3c-4.2,2-9,3.2-14,3.2c-5,0-9.8-1.1-14-3.2c-1.4-0.7-2.8-1.5-4.1-2.3
			c-1.3-0.9-2.5-1.8-3.7-2.9c-0.8-0.7-1.5-1.4-2.2-2.2c-0.7-0.8-1.4-1.6-2-2.4c-0.3-0.4-0.6-0.8-0.9-1.3c-0.6-0.9-1.1-1.8-1.6-2.7
			c-2.5-4.6-3.9-9.8-3.9-15.4c0-6.7,2-12.9,5.5-18.1c0.3-0.4,0.6-0.9,0.9-1.3c0.6-0.8,1.3-1.6,2-2.4c0.7-0.8,1.4-1.5,2.2-2.2
			c1.1-1,2.4-2,3.7-2.9c1.3-0.9,2.6-1.7,4.1-2.3c0.9-0.5,1.9-0.9,2.9-1.2c1-0.4,2-0.7,3-0.9c2.6-0.7,5.3-1,8.1-1
			c2.8,0,5.5,0.4,8.1,1c1,0.3,2,0.6,3,0.9c1,0.4,2,0.8,2.9,1.2c1.4,0.7,2.8,1.5,4.1,2.3c2.2,1.5,4.1,3.2,5.9,5.1
			c0.7,0.8,1.4,1.6,2,2.4c0.3,0.4,0.6,0.8,0.9,1.3c3.5,5.2,5.5,11.4,5.5,18.1C1463.9,513.9,1462.5,519.2,1460,523.7z"/>
	</g>
	<g>
		<path class="st11" d="M1431.2,308.9c-18.2,0-33.1,14.8-33.1,33.1c0,18.2,14.8,33.1,33.1,33.1c18.2,0,33.1-14.8,33.1-33.1
			C1464.2,323.7,1449.4,308.9,1431.2,308.9z M1453.3,354c-0.4,0.7-0.8,1.4-1.3,2.1c-0.2,0.3-0.5,0.7-0.7,1c-0.5,0.6-1,1.3-1.5,1.9
			c-1.4,1.5-2.9,2.8-4.6,3.9c-1,0.7-2.1,1.3-3.2,1.8c-3.3,1.6-7,2.5-10.9,2.5c-3.9,0-7.6-0.9-10.9-2.5c-1.1-0.5-2.2-1.1-3.2-1.8
			c-1-0.7-2-1.4-2.8-2.2c-0.6-0.5-1.2-1.1-1.7-1.7c-0.5-0.6-1.1-1.2-1.5-1.9c-0.2-0.3-0.5-0.6-0.7-1c-0.5-0.7-0.9-1.4-1.3-2.1
			c-1.9-3.6-3-7.6-3-12c0-5.2,1.6-10,4.3-14.1c0.2-0.3,0.5-0.7,0.7-1c0.5-0.6,1-1.3,1.5-1.9c0.5-0.6,1.1-1.2,1.7-1.7
			c0.9-0.8,1.8-1.6,2.8-2.2c1-0.7,2.1-1.3,3.2-1.8c0.7-0.4,1.5-0.7,2.3-1c0.8-0.3,1.6-0.5,2.4-0.7c2-0.5,4.1-0.8,6.3-0.8
			c2.2,0,4.3,0.3,6.3,0.8c0.8,0.2,1.6,0.5,2.4,0.7c0.8,0.3,1.5,0.6,2.3,1c1.1,0.5,2.2,1.1,3.2,1.8c1.7,1.1,3.2,2.5,4.6,3.9
			c0.5,0.6,1.1,1.2,1.5,1.9c0.2,0.3,0.5,0.7,0.7,1c2.7,4,4.3,8.8,4.3,14.1C1456.3,346.3,1455.2,350.4,1453.3,354z"/>
	</g>
	<path class="st0" d="M1980.3,1691.7c0,40.4-16.3,76.8-42.7,103.3h-914.1c-37.2-21.2-62-59.3-62-103.3c0-45.8,27-85.5,66.7-105.9
		c7.6-59.6,61.1-105.8,126.1-105.8c34.2,0,65.2,12.9,88.1,33.7c1.3-60.1,35-112.6,84.8-141.3l29.1-411.2h152.1l41.3,451
		c23.6,28.7,37.8,65.3,37.8,105c0,3.9-0.2,7.7-0.4,11.5c21.9-25.3,55.2-41.5,92.4-41.5c47.8,0,89,26.6,108.1,65
		c14.4-4.7,29.8-7.4,45.9-7.4C1914.5,1544.9,1980.3,1610.6,1980.3,1691.7z"/>
	<path class="st3" d="M1637,1668.8c0,49.9-20.9,94.9-54.5,126.8h-240.4c-0.9-0.9-1.9-1.8-2.8-2.7c-23.9-23.7-41-54.3-48.1-88.6
		c-2.4-11.5-3.6-23.4-3.6-35.5c0-12.2,1.2-24.1,3.6-35.5c16.4-79.4,86.8-139.2,171.1-139.2c91.9,0,167.2,71,174.1,161.1
		C1636.8,1659.7,1637,1664.2,1637,1668.8z"/>
	<path class="st2" d="M1366.1,1729.7c0,23.3-9.8,45-26.7,63.1c-0.8,0.9-1.7,1.8-2.5,2.7h-259.1c-18.4-18.6-29.3-41.3-29.3-65.8
		c0-62.8,71.1-113.7,158.8-113.7c30.9,0,59.7,6.3,84,17.2c28.4,12.7,50.8,31.7,63.5,54.2C1362,1700.5,1366.1,1714.8,1366.1,1729.7z"
		/>
	<path class="st2" d="M1810.5,1747.4c0,17.5-6.6,33.9-18.3,48.1h-235.6c-11.6-14.1-18.3-30.6-18.3-48.1c0-43.8,41.4-80.7,98.1-92.3
		c12.1-2.5,24.8-3.8,37.9-3.8C1749.5,1651.4,1810.5,1694.4,1810.5,1747.4z"/>
	<path class="st0" d="M1496.5,1795.5h-294.1c4-26.4,25-47.1,51.5-50.8c3.6-19.6,18.3-35.3,37.3-40.4c4.3-1.2,8.8-1.8,13.4-1.8
		c8.4,0,16.4,2,23.4,5.6c7.1-8.8,16.2-15.9,26.7-20.7c9.2-4.2,19.4-6.5,30.2-6.5c34.5,0,63.4,23.9,71.1,56.1
		c10.5,1.3,18.6,10,18.9,20.8C1486.2,1767,1494.2,1780.3,1496.5,1795.5z"/>
	
		<rect x="1386.6" y="1032.4" transform="matrix(0.9989 4.733459e-002 -4.733459e-002 0.9989 56.4912 -64.8937)" class="st7" width="23.7" height="255.9"/>
	
		<rect x="1464.2" y="1032.4" transform="matrix(-0.9989 4.733263e-002 -4.733263e-002 -0.9989 3005.3169 2249.4927)" class="st7" width="23.7" height="255.9"/>
	<g>
		<path class="st8" d="M1428.2,887.2h-71.6c0,0,9.6,52.1,71.6,63.8c62.1-11.7,70.9-63.8,70.9-63.8H1428.2z"/>
	</g>
	<g>
		<path class="st7" d="M1499.1,887.2h-70.9h-1.1V950c0,0,0.6,0.5,0.7,0.5C1489.9,938.8,1499.1,887.2,1499.1,887.2z"/>
	</g>
</g>
</svg>
