<?xml version="1.0" encoding="utf-8"?>
<!-- Generator: Adobe Illustrator 16.0.0, SVG Export Plug-In . SVG Version: 6.00 Build 0)  -->
<!DOCTYPE svg PUBLIC "-//W3C//DTD SVG 1.1//EN" "http://www.w3.org/Graphics/SVG/1.1/DTD/svg11.dtd">
<svg version="1.1" id="Layer_1" xmlns="http://www.w3.org/2000/svg" xmlns:xlink="http://www.w3.org/1999/xlink" x="0px" y="0px"
	 width="2000px" height="1689px" viewBox="0 0 2000 1689" style="enable-background:new 0 0 2000 1689;" xml:space="preserve">
<style type="text/css">
<![CDATA[
	.st0{opacity:0.3;fill:#FC6A33;}
	.st1{fill:#E55957;}
	.st2{fill:#C5CBCC;stroke:#C5CBCC;stroke-miterlimit:10;}
	.st3{fill:none;stroke:#FFFFFC;stroke-width:2;stroke-miterlimit:10;stroke-dasharray:5,6;}
	
		.st4{fill:none;stroke:#333333;stroke-width:4;stroke-linecap:round;stroke-linejoin:round;stroke-miterlimit:10;stroke-dasharray:0,6;}
	.st5{fill:#1F8BC3;}
	.st6{fill:#F0F4F8;}
	.st7{opacity:0.2;fill:#93D8D8;}
	.st8{clip-path:url(#SVGID_2_);}
	.st9{fill:#FFB74D;}
	.st10{fill:#FFFFFC;}
	.st11{fill:#333333;}
	.st12{opacity:0.4;fill:none;stroke:#FFFFFC;stroke-width:2;stroke-miterlimit:10;}
	.st13{fill:none;stroke:#333333;stroke-width:3;stroke-linecap:round;stroke-linejoin:round;stroke-miterlimit:10;}
	.st14{fill:#727871;}
	
		.st15{fill:none;stroke:#FFFFFC;stroke-width:5;stroke-linecap:round;stroke-linejoin:round;stroke-miterlimit:10;stroke-dasharray:0,13;}
]]>
</style>
<g>
	<path class="st13" d="M489.1,937.8c-44.7-83.9,145.1-272.5,424-421.3c278.9-148.8,541.3-201.5,586-117.6"/>
	<path class="st4" d="M487.2,402.4c44.1-84.2,306.9-33.4,586.8,113.4c280,146.8,471.1,334.1,427,418.3"/>
	<g>
		<path class="st9" d="M832.6,980.9l-168.9,163c0,0-16.4-23.5-39.4-13.2c-20.8,9.3-39.1,177.8,80.6,312.1l47.7-90.8l161.9-168.8
			L832.6,980.9z"/>
		<path class="st9" d="M1165.4,980.9l168.9,163c0,0,16.4-23.5,39.4-13.2c20.8,9.3,39.1,177.8-80.7,312.1l-47.7-90.8l-161.9-168.8
			L1165.4,980.9z"/>
		<path class="st5" d="M1188.1,1216.8c32.2-119.3,51.4-268.1,51.4-429.7c0-526.4-251.3-709.4-251.3-709.4S736.9,255.1,736.9,787.2
			c0,161.5,19.2,310.4,51.4,429.7H1188.1z"/>
		<path class="st0" d="M800.7,745.4c0.5-175.7,25.8-293.3,102.4-494.1c24.4-56.9,43.6-90.6,85.1-173.6c0-0.5,0,0,0,0
			S736.9,255.1,736.9,787.2c0,161.5,19.2,310.4,51.4,429.7h133.1C832,1061.2,813,926.3,800.7,745.4z"/>
		<path class="st9" d="M1239.5,575.2l-7.1-51.5c0,0-80.1,40.5-244.3,42.5c-164.1-2-244.3-42.5-244.3-42.5l-7.1,51.5
			c60.5,41.1,198.4,44.3,251.3,44.3C1041.2,619.6,1179,616.4,1239.5,575.2z"/>
		<circle class="st10" cx="988.3" cy="848.3" r="131.3"/>
		<path class="st7" d="M1033,724.8c-9.3-3.4-19.1-5.7-29.2-6.9c-48.6,49-97.2,98-145.8,147c1.3,10.3,3.8,20.2,7.3,29.6
			C921.2,837.9,977,781.3,1033,724.8z"/>
		<path class="st7" d="M920.2,960.6c59.9-60.4,119.8-120.8,179.9-181c-8.7-14.1-19.9-26.4-33.1-36.3
			c-61,61.5-122.2,122.9-183.5,184.2C893.6,940.7,906,951.9,920.2,960.6z"/>
		<path class="st7" d="M1008.8,978c36.4-36.4,72.8-72.8,109.2-109.2c1.1-6.7,1.6-13.5,1.6-20.5c0-11.5-1.5-22.7-4.3-33.3
			c-53.4,53.4-106.8,106.9-160.1,160.4c10.6,2.7,21.7,4.3,33.1,4.3C995.2,979.7,1002.1,979.1,1008.8,978z"/>
		<circle class="st15" cx="988.3" cy="848.3" r="172.2"/>
		<circle class="st10" cx="774.5" cy="568.3" r="6"/>
		<circle class="st10" cx="1209.9" cy="560.4" r="6"/>
		<circle class="st10" cx="1198" cy="1078.9" r="6"/>
		<circle class="st10" cx="1202" cy="1051.1" r="6"/>
		<path class="st12" d="M802,571.3c0,0,204,53.7,378.8-0.9"/>
		<path class="st1" d="M987,314c103-0.8,149.9-35.9,149.9-35.9C1083.7,148.6,987.4,77.8,987.4,77.8s0.7,0-0.3,0c-1,0,0,0,0,0
			S894.5,148.1,837.5,278c0,0,42.5,35.1,145.5,35.9v0c0,0,1.4,0,2,0C985.6,314,987,314,987,314L987,314z"/>
	</g>
	<circle class="st10" cx="1181.4" cy="109.2" r="6"/>
	<path class="st4" d="M1501,934.1c-44.1,84.2-306.9,33.4-586.8-113.4c-280-146.8-471.1-334.1-427-418.3"/>
	<path class="st13" d="M1499.1,398.8c44.7,83.9-145.1,272.5-424,421.3c-278.9,148.8-541.3,201.5-586,117.6"/>
	<circle class="st10" cx="1161.6" cy="89.4" r="6"/>
	<path class="st1" d="M545.4,522.2c0,12.9-10.5,23.3-23.3,23.3c-12.9,0-23.3-10.5-23.3-23.3c0-12.9,10.4-23.3,23.3-23.3
		C534.9,498.9,545.4,509.4,545.4,522.2z"/>
	<path class="st1" d="M1471.4,785.3c-1,12.8-12.3,22.4-25.1,21.4c-12.9-1-22.4-12.3-21.4-25.1c1-12.9,12.3-22.4,25.1-21.4
		C1462.9,761.2,1472.5,772.5,1471.4,785.3z"/>
	<path class="st1" d="M1360.6,361.8c-1,12.8-12.3,22.4-25.1,21.4c-12.9-1-22.4-12.3-21.4-25.1c1-12.9,12.3-22.4,25.1-21.4
		S1361.6,349,1360.6,361.8z"/>
	<path class="st1" d="M699.7,975.3c-1,12.8-12.3,22.4-25.1,21.4c-12.9-1-22.4-12.3-21.4-25.1c1-12.9,12.3-22.4,25.1-21.4
		C691.1,951.2,700.7,962.4,699.7,975.3z"/>
	<path class="st3" d="M1525.4,1406.1c0,0,134-70.8,226,61"/>
</g>
<g>
	<g>
		<defs>
			<rect id="SVGID_1_" x="10" y="-394" width="1978" height="1978"/>
		</defs>
		<clipPath id="SVGID_2_">
			<use xlink:href="#SVGID_1_"  style="overflow:visible;"/>
		</clipPath>
		<g class="st8">
			<g>
				<path class="st2" d="M610.3,1595.2c1.6-10.6,2.5-21.5,2.5-32.6c0-118.2-95.8-214-214-214c-118.2,0-214,95.8-214,214
					c0,11.1,0.8,22,2.5,32.6H610.3z"/>
				<path class="st2" d="M694,1430.7c0,64.5-52.3,116.8-116.8,116.8c-64.5,0-116.8-52.3-116.8-116.8c0-64.5,52.3-116.8,116.8-116.8
					C641.6,1313.9,694,1366.2,694,1430.7z"/>
				<path class="st2" d="M735.6,1519.7l90.5,8.3c87-12.6,157.3-83.4,165.6-174.8c9.8-107-69-201.6-176-211.4
					c-107-9.8-201.6,69-211.4,176C596,1409.2,652.3,1491.6,735.6,1519.7z"/>
				<path class="st2" d="M1346.4,1320.4c0,118.2-95.8,214-214,214c-118.2,0-214-95.8-214-214c0-118.2,95.8-214,214-214
					C1250.6,1106.4,1346.4,1202.2,1346.4,1320.4z"/>
				<path class="st2" d="M1515.8,1564.3c16.5-26.6,26.1-57.9,26.1-91.5c0-95.9-77.7-173.6-173.6-173.6
					c-95.9,0-173.6,77.7-173.6,173.6c0,33.6,9.6,64.9,26.1,91.5H1515.8z"/>
				<path class="st2" d="M1812.5,1595.2c0.5-5.8,0.8-11.6,0.8-17.5c0-118.2-95.8-214-214-214c-118.2,0-214,95.8-214,214
					c0,5.9,0.3,11.7,0.8,17.5H1812.5z"/>
				<path class="st2" d="M1536,1595.2c-10.4-108.5-101.8-193.4-213-193.4s-202.6,84.9-213,193.4H1536z"/>
				<path class="st2" d="M1250.1,1595.2c-10.4-108.5-101.8-193.4-213-193.4c-111.3,0-202.7,84.9-213,193.4H1250.1z"/>
				<path class="st2" d="M947.6,1595.2c-25.5-89.7-108-155.3-205.8-155.3c-97.8,0-180.3,65.7-205.8,155.3H947.6z"/>
				<path class="st2" d="M727.5,1595.2c-33.4-74.7-108.3-126.7-195.4-126.7c-87.1,0-162,52.1-195.4,126.7H727.5z"/>
			</g>
			<g>
				<path class="st14" d="M489.5,1564.7c7.5-2.2,13.7-4.5,21.2-6.7c0.8-0.2,1.3-0.3,1.3-0.5v-2.6c0-0.6-0.6-2-0.8-3.3
					c-0.6-3.5-0.7-7-1.2-10.2c-1.5-1.1-2.6-0.9-3.9-0.9c-6.4,0.1-12.6,0.2-19,0.3c-1.3,0-2.6,0-4.2,0c-0.6-1.5-1.1-3-1.6-4.5
					c-0.5-1.5-0.9-3-1.4-4.7c4-2.7,7.8-5.2,11.6-7.8c3.6-2.5,7.4-4.8,10.6-8.1c-2.1-5.2-4.5-10-7.6-14.8c-4.6,0.9-8.8,2.6-13.1,4.1
					c-4.2,1.5-8.3,3-12.7,4.6c-1.9-2.5-3.7-5-5.7-7.6c0.6-0.9,1-1.8,1.6-2.6c4-5.3,8.1-10.6,12.1-15.9c0.9-1.2,1.6-2.4,2.5-3.7
					c-3.7-4.3-7.5-8.2-11.8-11.8c-4.1,2.2-7.6,5.1-11.2,7.8c-3.5,2.7-6.9,5.5-10.5,8.2c-1.7-0.5-2.8-1.7-4.1-2.6
					c-1.3-0.9-2.8-1.7-3.9-3.3c2.9-8.3,6.4-16.6,8.7-25.6c-4.8-3-9.6-5.4-14.9-7.6c-0.7,0.8-1.5,1.4-2,2.2
					c-3.8,5.5-7.6,10.9-11.4,16.4c-0.8,1.1-1.5,2.2-2.3,3.4c-3.4-0.3-6.3-1.7-9.5-2.9c0.3-7.7,0.6-15.4,0.4-23.2
					c0-1.3-0.1-2.6-0.1-4c-0.3-0.1-0.5-0.1-0.8-0.2c-5.3-1.4-10.4-2-15.7-2.5c-0.5,1.1-1,2-1.3,2.9c-2,6.6-4,12.1-6,18.7
					c-0.3,1.1-0.7,2-1.1,2h-9.3c-0.4,0-0.9-0.9-1.2-2c-1.9-6.2-3.6-11.9-5.6-18.1c-0.4-1.4-0.7-2.6-2-3.9c-2.3,0.2-4.6,0.7-6.9,1
					c-3,0.4-6,1.1-9,1.9c-0.9,3-0.4,6-0.4,8.9c0,3.1,0.1,6.2,0.1,9.4c0,0.8,0.1,1.7,0.1,2.6c0.1,2.1,0.2,4.2,0.3,6.5
					c-3.1,1-6,2-9.2,3c-0.8-0.9-1.5-1.8-2.2-2.8c-0.6-0.9-1.2-1.8-1.8-2.6c-2.9-4.2-5.8-8.5-8.8-12.7c-0.9-1.3-2-2.6-2.9-3.8
					c-3.9,0.8-10.6,4.1-15.3,7.5c2,8.7,5.7,16.9,8.6,25.5c-2.3,2.3-5,3.7-7.6,5.8c-0.9-0.6-1.8-1.1-2.6-1.7
					c-1.4-1.1-2.9-2.2-4.3-3.3c-3.6-2.8-7.2-5.6-10.9-8.3c-1.3-1-2.6-1.8-4.2-2.9c-4.5,3.4-8.2,7.6-12.1,11.7c1.7,3.2,3.9,6,6,8.8
					c0,0,0,0,0,0c0.7,0.9,1.3,1.7,1.9,2.5c1,1.3,2,2.6,3,3.9c1,1.3,2,2.6,3.1,3.9c0.7,0.9,1.4,1.8,2.2,2.8c-1.8,2.9-3.6,5.5-5.8,7.9
					c-8.5-3-16.8-5.9-25-8.8c-1.4,1.4-3.1,3.9-4.5,6.8c-0.5,0.9-1,1.9-1.5,3c-0.4,0.8-0.7,1.7-1,2.5c-0.4,1-0.8,2-1.1,3
					c0.7,0.7,1.5,1.6,2.4,2.2c5.2,3.6,10.5,7.3,15.7,10.9c1.2,0.8,2.4,1.7,3.8,2.6c-1,3.1-1.9,6-2.9,9c-0.4,0-0.9,0.1-1.3,0.1
					c-0.4,0-0.8,0.1-1.1,0.1h0c-0.3,0-0.5,0-0.8,0c-6.5,0-13-0.3-19.5-0.4c-1.5,0-2.9,0.1-4.3,0.2c-1.2,3-2,6.4-2.5,10.7
					c-0.2,1.8-0.3,3.7-0.4,5.7c0.8,0.4,1.7,0.9,2.6,1.2c2,0.6,4,1.2,6,1.8c2.5,0.8,5.1,1.5,7.7,2.3c2.1,0.6,4.2,1.2,6.3,1.9
					c1.1,0.3,3.3,0.7,3.3,1.1v9.7c0,0.8-5.1-2.2-7.6,1.8c0,0,0,0,0,0c-4.5,0-8.9,2.7-13.2,4.1c-1.7,0.5-3.3,1.2-4.9,1.9
					c-0.1,4.8,0.8,10.9,2.4,16.6c2.8,0.8,5.8-1.6,8.7-1.6c3,0.1,5.9-2.1,8.9-2.1h0.4c2.5,0,5,1.7,7.5,1.6l1.4,0.9
					c0.3,0.7,0.7,1.9,0.9,2.6c1,2.4,1.6,5,2.3,7.6c-0.5,0.3-1,0.8-1.5,1.1c-3.3,2.2-6.4,4.4-9.6,6.5c-3.6,2.5-7.2,5.2-10.6,7.7
					c0.2,1,0.5,2.2,1,3.6c0.2,0.7,0.5,1.3,0.8,2c0,0,0,0.1,0,0.1c1.4,3.3,3.5,6.9,5.6,9.8c1-0.2,2.2-0.4,3.3-0.7
					c6-2.1,12-4.2,18-6.3c1.4-0.5,2.7-1,4.4-1.6c1.9,2.6,3.7,5.1,5.7,7.7c-0.6,0.9-1.1,1.7-1.7,2.5c-4,5.2-7.9,10.3-11.9,15.5
					c-0.9,1.2-1.7,2.4-2.4,3.6c1.7,3.2,7.2,8.9,11.9,12.3c3.8-2.3,7.4-5.1,11-7.9c3.5-2.7,7-5.5,10.7-8.4c2.6,1.9,5,3.6,7.7,5.6
					c-0.3,1-0.4,2-0.8,2.9c-2.2,6.3-4.4,12.5-6.6,18.8c-0.4,1.3-0.8,2.5-1.1,3.8c2.7,2.6,9.8,6.4,15.1,8c0.8-1,1.8-2.1,2.6-3.3
					c3.6-5.1,7.1-10.2,10.6-15.3c0.7-1.1,1.5-2.1,2.3-3.3c3.3,0.8,6.3,1.7,9.4,3.2c-0.6,8.9-0.7,17.8-0.5,26.5
					c3.9,1.8,11.2,2.4,17,2.2c3.2-8.3,5.3-18.3,7.9-26.3h9.8c2.6,8,4.6,18,8,26.5c5.7-0.1,11-0.8,16.4-2.1c0.8-3-0.4-5.8-0.3-8.7
					c0-3.1-0.8-6.1-0.8-9.1v-9.1c4-1.2,6.5-2.3,9.9-2.9c4.9,7.4,10.1,14.8,15.5,21.6c3.7-0.6,10.9-4,15.5-7.4
					c-2.1-8.6-5.6-16.9-8.6-25.6c2.5-1.9,5.1-3.7,7.7-5.7c1,0.7,2,1.3,2.9,1.9c5.3,4,10.6,8.1,15.9,12.1c1,0.8,2.2,1.4,3.2,2.1
					c3.9-2.8,8.7-7.6,11.9-11.8c-2.1-4-5.1-7.5-7.8-11.1c-2.6-3.6-5.5-7-8.3-10.6c0.9-1.4,1.7-4.3,2.7-5.6c0.9-1.3,2-1.4,3.1-5.4h0
					c8.6,4,16.8,8.1,25.4,10.1c2.9-3.9,6-9.2,7.7-14.2c-0.7-0.6-1.4-1-2.2-1.6c-5.3-3.8-10.7-7.3-16-11c-1.2-0.8-2.4-1.6-3.7-2.4
					c0.7-3.3,1.7-6.3,3.2-9.5c2,0.2,4.1,0.3,6.2,0.4c2,0.1,4.1,0.2,6.2,0.2c4.8,0.1,9.6,0.1,14.4-0.1c1.4-3.2,1.4-6.6,2.2-9.9
					c0.2-0.9-0.9-1.8-0.5-2.6c0.2-0.6,0.5-1,0.5-1.5v-2.7c0-1.4-7.3-2.9-11.8-4.2c-4.5-1.3-8.2-2.6-12.2-3.9v-9.5
					C488,1565.3,488.8,1564.9,489.5,1564.7z M473.9,1578.5c-3.7,44.3-37.3,80.1-80.6,87.2c-5.1,0.9-10.4,1.3-15.8,1.3
					c-37.2,0-69.5-21-85.7-51.8c-1.9-3.6-3.6-7.3-5-11.2c-1.5-4.2-2.8-8.4-3.8-12.9c-0.6-2.6-1.1-5.2-1.4-7.8
					c-0.6-4.3-0.9-8.6-0.9-13.1c0-5.4,0.4-10.7,1.3-15.8c1.8-11.1,5.5-21.5,10.7-30.9c3.5-6.3,7.6-12.2,12.4-17.5
					c1.5-1.7,3.1-3.4,4.7-5c6.6-6.5,14.2-12,22.4-16.4c11.2-6,23.7-9.7,37-10.9c2.7-0.3,5.5-0.4,8.3-0.4c53.4,0,96.8,43.3,96.8,96.8
					C474.3,1573,474.2,1575.7,473.9,1578.5z"/>
				<path class="st6" d="M377.2,1486.8c-46.1,0-83.4,37.3-83.4,83.4s37.3,83.4,83.4,83.4c46.1,0,83.4-37.3,83.4-83.4
					S423.2,1486.8,377.2,1486.8z M377.2,1598.1c-15.4,0-27.9-12.5-27.9-27.9c0-15.4,12.5-27.9,27.9-27.9s27.9,12.5,27.9,27.9
					C405.1,1585.6,392.6,1598.1,377.2,1598.1z"/>
			</g>
			<g>
				<path class="st14" d="M1242.9,1310.8c7.5-2.2,13-4.5,20.5-6.7c0.8-0.2,0.6-0.3,0.6-0.5v-2.6c0-0.6,0.8-2,0.5-3.3
					c-0.6-3.5,0-7-0.5-10.2c-1.5-1.1-2.3-0.9-3.6-0.9c-6.4,0.1-12.4,0.2-18.8,0.3c-1.3,0-2.5,0-4.1,0c-0.6-1.5-1.1-3-1.6-4.5
					c-0.5-1.5-0.9-3-1.4-4.7c4-2.7,7.9-5.2,11.6-7.8c3.6-2.5,7.4-4.8,10.6-8.1c-2.1-5.2-4.5-10-7.6-14.8c-4.6,0.9-8.8,2.6-13.1,4.1
					c-4.2,1.5-8.3,3-12.7,4.6c-1.9-2.5-3.7-5-5.7-7.6c0.6-0.9,1-1.8,1.6-2.6c4-5.3,8.1-10.6,12.1-15.9c0.9-1.2,1.6-2.4,2.5-3.7
					c-3.7-4.3-7.5-8.2-11.8-11.8c-4.1,2.2-7.6,5.1-11.2,7.8c-3.5,2.7-6.9,5.5-10.5,8.2c-1.7-0.5-2.8-1.7-4.1-2.6
					c-1.3-0.9-2.8-1.7-3.9-3.3c2.9-8.3,6.4-16.6,8.7-25.6c-4.8-3-9.6-5.4-14.9-7.6c-0.7,0.8-1.5,1.4-2,2.2
					c-3.8,5.5-7.6,10.9-11.4,16.4c-0.8,1.1-1.5,2.2-2.3,3.4c-3.4-0.3-6.3-1.7-9.5-2.9c0.3-7.7,0.5-15.4,0.4-23.2
					c0-1.3-0.1-2.6-0.1-4c-0.3-0.1-0.5-0.1-0.8-0.2c-5.3-1.4-10.4-2-15.7-2.5c-0.5,1.1-1,2-1.3,2.9c-2,6.6-4,12.5-6,19.2
					c-0.3,1.1-0.7,2.5-1.1,2.5h-9.3c-0.4,0-0.9-1.4-1.2-2.4c-1.9-6.2-3.6-12.1-5.6-18.3c-0.4-1.4-0.7-2.7-2-4
					c-2.3,0.2-4.6,0.6-6.9,0.9c-3,0.4-6,1-9,1.9c-0.9,3-0.4,6-0.4,8.9c-0.1,3.1,0,6.2,0.1,9.4c0,0.8,0.1,1.7,0.1,2.6
					c0.1,2.1,0.2,4.2,0.3,6.5c-3.1,1-6,2-9.2,3c-0.8-0.9-1.5-1.8-2.2-2.8c-0.6-0.9-1.2-1.8-1.8-2.6c-2.9-4.2-5.8-8.5-8.8-12.7
					c-0.9-1.3-2-2.6-2.9-3.8c-3.9,0.8-10.6,4.1-15.3,7.5c2,8.7,5.7,16.9,8.6,25.5c-2.3,2.3-5,3.7-7.6,5.8c-0.9-0.6-1.8-1.1-2.6-1.7
					c-1.4-1.1-2.9-2.2-4.3-3.3c-3.6-2.8-7.2-5.6-10.9-8.3c-1.3-1-2.7-1.8-4.2-2.9c-4.5,3.4-8.2,7.6-12.1,11.7c1.7,3.2,3.9,6,6,8.8
					c0,0,0,0,0,0c0.7,0.9,1.3,1.7,1.9,2.5c1,1.3,2,2.6,3,3.9c1,1.3,2,2.6,3.1,3.9c0.7,0.9,1.4,1.8,2.2,2.8c-1.8,2.9-3.6,5.5-5.8,7.9
					c-8.5-3-16.8-5.9-25-8.8c-1.4,1.4-3.1,3.9-4.5,6.8c-0.5,0.9-1,1.9-1.5,3c-0.4,0.8-0.7,1.7-1,2.5c-0.4,1-0.8,2-1.1,3
					c0.7,0.7,1.5,1.6,2.4,2.2c5.2,3.6,10.5,7.3,15.7,10.9c1.2,0.8,2.4,1.7,3.8,2.6c-1,3.1-1.9,6-2.9,9c-0.4,0-0.9,0.6-1.3,0.6
					c-0.4,0-0.8,0.6-1.1,0.6h0c-0.3,0-0.5,0-0.8,0c-6.5,0-13-0.8-19.5-0.9c-1.5,0-2.9-0.1-4.3-0.1c-1.2,3-2,6.3-2.5,10.6
					c-0.2,1.8-0.3,3.6-0.4,5.7c0.8,0.4,1.7,0.9,2.6,1.2c2,0.6,4,1.2,6,1.8c2.5,0.8,5.1,1.5,7.7,2.3c2.1,0.6,2.9,1.2,4.9,1.9
					c1.1,0.3,2,0.7,2,1.1v9.7c0,0.8-2.4-2.2-4.9,1.8c0,0,0,0,0,0c-4.5,0-8.9,2.7-13.2,4.2c-1.7,0.5-3.3,1.3-4.9,1.9
					c-0.1,4.8,0.8,10.9,2.4,16.6c2.8,0.8,5.8-1.1,8.7-1.1c3,0.1,5.9-1.6,8.9-1.6h0.4c2.5,0,5,1.3,7.5,1.1l1.4,0.7
					c0.3,0.7,0.7,1.8,0.9,2.5c1,2.4,1.6,5,2.3,7.6c-0.5,0.3-1,0.8-1.5,1.1c-3.3,2.2-6.4,4.3-9.6,6.5c-3.6,2.5-7.2,5.2-10.6,7.7
					c0.2,1,0.5,2.2,1,3.6c0.2,0.7,0.5,1.3,0.8,2c0,0,0,0.1,0,0.1c1.4,3.3,3.5,6.9,5.6,9.8c1-0.2,2.2-0.4,3.3-0.7
					c6-2.1,12-4.2,18-6.3c1.4-0.5,2.7-1,4.4-1.6c1.9,2.6,3.8,5.1,5.7,7.7c-0.6,0.9-1.1,1.7-1.7,2.5c-4,5.2-7.9,10.3-11.9,15.5
					c-0.9,1.2-1.7,2.4-2.4,3.6c1.7,3.2,7.2,8.9,11.9,12.3c3.8-2.3,7.4-5.1,11-7.9c3.5-2.7,7-5.5,10.7-8.4c2.6,1.9,5,3.6,7.7,5.6
					c-0.3,1-0.4,2-0.8,2.9c-2.2,6.3-4.4,12.5-6.6,18.8c-0.4,1.3-0.8,2.5-1.1,3.8c2.7,2.6,9.8,6.4,15.1,8c0.8-1,1.8-2.1,2.6-3.3
					c3.6-5.1,7-10.2,10.6-15.3c0.7-1.1,1.5-2.1,2.3-3.3c3.3,0.8,6.3,1.7,9.4,3.2c-0.6,8.9-0.7,17.8-0.5,26.5
					c3.9,1.8,11.2,2.9,17,2.7c3.2-8.3,5.3-17.8,7.9-25.8h9.8c2.6,8,4.6,17.5,8,26c5.7-0.1,11-1,16.4-2.3c0.8-3-1.7-5.9-1.6-8.8
					c0.1-3.1-2.2-6.2-2.2-9.3v-9.1c4-1.2,7.8-2.3,11.2-2.9c4.9,7.4,10.7,14.8,16.2,21.6c3.7-0.6,11.2-4,15.9-7.4
					c-2.1-8.6-5.4-16.9-8.4-25.6c2.5-1.9,5.1-3.7,7.8-5.7c1,0.7,2,1.3,2.9,1.9c5.3,4,10.6,8.1,15.9,12.1c1,0.8,2.2,1.4,3.2,2.1
					c3.9-2.8,8.7-7.6,11.9-11.8c-2.1-4-5.1-7.5-7.8-11.1c-2.6-3.6-5.4-7-8.3-10.6c0.9-1.4,1.7-3.8,2.7-5.2c0.9-1.3,2-0.9,3.1-4.9h0
					c8.6,4,16.8,7.6,25.4,9.6c2.9-3.9,6-9.4,7.7-14.4c-0.7-0.6-1.4-1.1-2.2-1.7c-5.3-3.7-10.7-7.3-16-11c-1.2-0.8-2.4-1.6-3.7-2.5
					c0.7-3.3,1.7-6.3,3.2-9.5c2,0.2,4.1,0.3,6.2,0.4c2,0.1,4.1,0.2,6.2,0.2c4.8,0.1,9.6,0.1,14.4-0.1c1.4-3.2,1.4-6.6,2.1-9.9
					c0.2-0.9-2.2-1.8-1.9-2.6c0.2-0.6-0.9-1-0.9-1.5v-2.7c0-1.4-7.3-2.9-11.8-4.2c-4.5-1.3-8.2-2.6-12.2-3.9v-9.5
					C1240,1311.4,1242.2,1311,1242.9,1310.8z M1228.6,1324.5c-3.7,44.3-37.3,80.1-80.6,87.2c-5.1,0.9-10.4,1.3-15.8,1.3
					c-37.2,0-69.5-21-85.7-51.8c-1.9-3.6-3.6-7.3-5-11.2c-1.5-4.2-2.8-8.4-3.8-12.9c-0.6-2.6-1.1-5.2-1.4-7.8
					c-0.6-4.3-0.9-8.6-0.9-13.1c0-5.4,0.4-10.7,1.3-15.8c1.8-11.1,5.5-21.5,10.7-30.9c3.5-6.3,7.6-12.2,12.4-17.5
					c1.5-1.7,3.1-3.4,4.7-5c6.6-6.5,14.2-12,22.4-16.4c11.2-6,23.7-9.7,37-10.9c2.7-0.3,5.5-0.4,8.3-0.4c53.4,0,96.8,43.3,96.8,96.8
					C1229,1319,1228.9,1321.8,1228.6,1324.5z"/>
				<path class="st6" d="M1131.9,1232.9c-46.1,0-83.4,37.3-83.4,83.4c0,46.1,37.3,83.4,83.4,83.4c46.1,0,83.4-37.3,83.4-83.4
					C1215.3,1270.2,1177.9,1232.9,1131.9,1232.9z M1131.9,1344.2c-15.4,0-27.9-12.5-27.9-27.9c0-15.4,12.5-27.9,27.9-27.9
					c15.4,0,27.9,12.5,27.9,27.9C1159.8,1331.7,1147.3,1344.2,1131.9,1344.2z"/>
			</g>
			<g>
				<path class="st11" d="M925.8,1329.2c7.5-2.2,13.6-4.5,21.1-6.7c0.8-0.2,1.2-0.3,1.2-0.5v-2.6c0-0.6-0.3-2-0.6-3.3
					c-0.6-3.5-0.5-7-1.1-10.2c-1.5-1.1-2.6-0.9-3.9-0.9c-6.4,0-12.6,0.2-18.9,0.3c-1.3,0-2.5,0-4.2,0c-0.6-1.5-1.1-3-1.6-4.5
					c-0.5-1.5-0.9-3-1.4-4.7c4-2.7,7.8-5.2,11.6-7.8c3.6-2.5,7.4-4.8,10.6-8.1c-2.1-5.2-4.5-10-7.6-14.8c-4.6,0.9-8.8,2.6-13.1,4.1
					c-4.2,1.5-8.3,3-12.7,4.6c-1.9-2.5-3.7-5-5.7-7.6c0.6-0.9,1-1.8,1.6-2.6c4-5.3,8.1-10.6,12.1-15.9c0.9-1.2,1.6-2.4,2.5-3.7
					c-3.7-4.3-7.5-8.2-11.8-11.8c-4.1,2.2-7.6,5.1-11.2,7.8c-3.5,2.7-6.9,5.5-10.5,8.2c-1.7-0.5-2.8-1.7-4.1-2.6
					c-1.3-0.9-2.8-1.7-3.9-3.3c2.9-8.3,6.4-16.6,8.7-25.6c-4.8-3-9.6-5.4-14.9-7.6c-0.7,0.8-1.5,1.4-2,2.2
					c-3.8,5.5-7.6,10.9-11.4,16.4c-0.8,1.1-1.5,2.2-2.3,3.4c-3.4-0.3-6.3-1.7-9.5-2.9c0.3-7.7,0.5-15.4,0.4-23.2
					c0-1.3-0.1-2.6-0.1-4c-0.3-0.1-0.5-0.1-0.8-0.2c-5.3-1.4-10.4-2-15.7-2.5c-0.5,1.1-1,2-1.3,2.9c-2,6.6-4,12.8-6,19.5
					c-0.3,1.1-0.7,2.8-1.1,2.8h-9.3c-0.4,0-0.9-1.7-1.2-2.7c-1.9-6.2-3.6-12.2-5.6-18.5c-0.4-1.4-0.7-2.8-2-4.1
					c-2.3,0.2-4.6,0.6-6.9,0.9c-3,0.4-6,1-9,1.9c-0.9,3-0.4,6-0.4,8.9c-0.1,3.1,0,6.2,0.1,9.4c0,0.8,0.1,1.7,0.1,2.6
					c0.1,2.1,0.2,4.2,0.3,6.5c-3.1,1-6,2-9.2,3c-0.8-0.9-1.5-1.8-2.2-2.8c-0.6-0.9-1.2-1.8-1.8-2.6c-2.9-4.2-5.8-8.5-8.8-12.7
					c-0.9-1.3-2-2.6-2.9-3.8c-3.9,0.8-10.6,4.1-15.3,7.5c2,8.7,5.7,16.9,8.6,25.5c-2.3,2.3-5,3.7-7.6,5.8c-0.9-0.6-1.8-1.1-2.6-1.7
					c-1.4-1.1-2.9-2.2-4.3-3.3c-3.6-2.8-7.2-5.6-10.9-8.3c-1.3-1-2.7-1.8-4.2-2.9c-4.5,3.4-8.2,7.6-12.1,11.7c1.7,3.2,3.9,6,6,8.8
					c0,0,0,0,0,0c0.7,0.9,1.3,1.7,1.9,2.5c1,1.3,2,2.6,3,3.9c1,1.3,2,2.6,3.1,3.9c0.7,0.9,1.4,1.8,2.2,2.8c-1.8,2.9-3.6,5.5-5.8,7.9
					c-8.5-3-16.8-5.9-25-8.8c-1.4,1.4-3.1,3.9-4.5,6.8c-0.5,0.9-1,1.9-1.5,3c-0.4,0.8-0.7,1.7-1,2.5c-0.4,1-0.8,2-1.1,3
					c0.7,0.7,1.5,1.6,2.4,2.2c5.2,3.6,10.5,7.3,15.7,10.9c1.2,0.8,2.4,1.7,3.8,2.6c-1,3.1-1.9,6-2.9,9c-0.4,0-0.9,0.9-1.3,0.9
					c-0.4,0-0.8,0.9-1.1,0.9h0c-0.3,0-0.5,0-0.8,0c-6.5,0-13-1.1-19.5-1.2c-1.5,0-2.9-0.3-4.3-0.2c-1.2,3-2,6.2-2.5,10.5
					c-0.2,1.8-0.3,3.6-0.4,5.6c0.8,0.4,1.7,0.9,2.6,1.1c2,0.6,4,1.2,6,1.8c2.5,0.8,5.1,1.5,7.7,2.3c2.1,0.6,3.5,1.2,5.5,1.9
					c1.1,0.3,2.6,0.7,2.6,1.1v9.7c0,0.8-3.6-0.6-6.1,3.4c0,0,0,0,0,0c-4.5,0-8.9,1.9-13.2,3.4c-1.7,0.5-3.3,0.9-4.9,1.5
					c-0.1,4.8,0.8,10.7,2.4,16.4c2.8,0.8,5.8-0.4,8.7-0.4c3,0.1,5.9-0.9,8.9-0.9h0.4c2.5,0,5,0.5,7.5,0.3l1.4,0.3
					c0.3,0.7,0.7,1.6,0.9,2.3c1,2.4,1.6,4.9,2.2,7.5c-0.5,0.3-1,0.7-1.5,1c-3.3,2.2-6.4,4.3-9.6,6.5c-3.6,2.5-7.2,5.2-10.6,7.7
					c0.2,1,0.5,2.2,1,3.6c0.2,0.7,0.5,1.3,0.8,2c0,0,0,0.1,0,0.1c1.4,3.3,3.5,6.9,5.6,9.8c1-0.2,2.2-0.4,3.3-0.7
					c6-2.1,12-4.2,18-6.3c1.4-0.5,2.7-1,4.4-1.6c1.9,2.6,3.7,5.1,5.7,7.7c-0.6,0.9-1.1,1.7-1.7,2.5c-4,5.2-7.9,10.3-11.9,15.5
					c-0.9,1.2-1.7,2.4-2.4,3.6c1.7,3.2,7.2,8.9,11.9,12.3c3.8-2.3,7.4-5.1,11-7.9c3.5-2.7,7-5.5,10.7-8.4c2.6,1.9,5,3.6,7.7,5.6
					c-0.3,1-0.4,2-0.8,2.9c-2.2,6.3-4.4,12.5-6.6,18.8c-0.4,1.3-0.8,2.5-1.1,3.8c2.7,2.6,9.8,6.4,15.1,8c0.8-1,1.8-2.1,2.6-3.3
					c3.6-5.1,7.1-10.2,10.6-15.3c0.7-1.1,1.5-2.1,2.3-3.3c3.3,0.8,6.3,1.7,9.4,3.2c-0.6,8.9-0.7,17.8-0.5,26.5
					c3.9,1.8,11.2,3.7,17,3.5c3.2-8.3,5.3-17,7.9-25h9.8c2.6,8,4.6,16.7,8,25.2c5.7-0.1,11-1.5,16.4-2.7c0.8-3-0.6-6.1-0.5-9
					c0.1-3.1-1.1-6.4-1.1-9.5v-9.1c4-1.2,6.7-2.3,10.1-2.9c4.9,7.4,10.2,14.8,15.7,21.6c3.7-0.6,10.9-4,15.6-7.4
					c-2.1-8.6-5.5-16.9-8.6-25.6c2.5-1.9,5.1-3.7,7.7-5.7c1,0.7,2,1.3,2.9,1.9c5.3,4,10.6,8.1,15.9,12.1c1,0.8,2.2,1.4,3.2,2.1
					c3.9-2.8,8.7-7.6,11.9-11.8c-2.1-4-5.1-7.5-7.8-11.1c-2.6-3.6-5.5-7-8.3-10.6c0.9-1.4,1.7-3,2.7-4.4c0.9-1.3,2-1.1,3.1-4.1h0
					c8.6,3,16.8,6.8,25.4,8.8c2.9-3.9,6-9.8,7.7-14.8c-0.7-0.6-1.4-1.3-2.2-1.9c-5.3-3.7-10.7-7.4-16-11.1c-1.2-0.8-2.4-1.6-3.7-2.5
					c0.7-3.3,1.7-6.3,3.2-9.5c2,0.2,4.1,0.3,6.2,0.4c2,0.1,4.1,0.1,6.2,0.2c4.8,0.1,9.6,0.1,14.4-0.1c1.4-3.2,1.4-6.6,2.1-9.9
					c0.2-0.9-1.1-1.8-0.8-2.6c0.2-0.6,0.2-1,0.2-1.5v-2.7c0-1.4-7.3-2.9-11.8-4.2c-4.5-1.3-8.2-2.6-12.2-3.9v-9.5
					C924,1329.8,925.1,1329.4,925.8,1329.2z M910.4,1342.9c-3.7,44.3-37.3,80.1-80.6,87.2c-5.1,0.9-10.4,1.3-15.8,1.3
					c-37.2,0-69.5-21-85.7-51.8c-1.9-3.6-3.6-7.3-5-11.2c-1.5-4.2-2.8-8.4-3.8-12.9c-0.6-2.6-1.1-5.2-1.4-7.8
					c-0.6-4.3-0.9-8.7-0.9-13.1c0-5.4,0.4-10.7,1.3-15.8c1.8-11.1,5.5-21.5,10.7-30.9c3.5-6.3,7.6-12.2,12.4-17.5
					c1.5-1.7,3.1-3.4,4.7-5c6.6-6.5,14.2-12,22.4-16.4c11.2-6,23.7-9.7,37-10.9c2.7-0.3,5.5-0.4,8.3-0.4c53.4,0,96.8,43.3,96.8,96.8
					C910.8,1337.4,910.7,1340.2,910.4,1342.9z"/>
				<path class="st6" d="M813.7,1251.3c-46.1,0-83.4,37.3-83.4,83.4s37.3,83.4,83.4,83.4c46.1,0,83.4-37.3,83.4-83.4
					S859.7,1251.3,813.7,1251.3z M813.7,1362.6c-15.4,0-27.9-12.5-27.9-27.9c0-15.4,12.5-27.9,27.9-27.9c15.4,0,27.9,12.5,27.9,27.9
					C841.6,1350.1,829.1,1362.6,813.7,1362.6z"/>
			</g>
			<g>
				<path class="st11" d="M1419.7,1418c4.5-1.3,6.6-2.7,11.1-4c0.5-0.1-0.8-0.2-0.8-0.3v-1.6c0-0.3,1.1-1.2,1-2
					c-0.3-2.1,0.3-4.2,0-6.1c-0.9-0.7-1.2-0.5-2-0.5c-3.8,0-7.4,0.1-11.2,0.2c-0.8,0-1.4,0-2.4,0c-0.3-0.9-0.6-1.8-0.9-2.7
					c-0.3-0.9-0.5-1.8-0.8-2.8c2.4-1.6,4.7-3.1,6.9-4.7c2.1-1.5,4.4-2.9,6.4-4.8c-1.2-3.1-2.7-6-4.5-8.9c-2.7,0.5-5.3,1.6-7.8,2.4
					c-2.5,0.9-4.9,1.8-7.6,2.8c-1.1-1.5-2.2-3-3.4-4.6c0.3-0.5,0.6-1.1,1-1.5c2.4-3.2,4.8-6.3,7.2-9.5c0.5-0.7,1-1.4,1.5-2.2
					c-2.2-2.6-4.5-4.9-7.1-7.1c-2.5,1.3-4.5,3.1-6.7,4.7c-2.1,1.6-4.2,3.3-6.3,4.9c-1-0.3-1.7-1-2.5-1.6c-0.8-0.5-1.7-1-2.3-1.9
					c1.8-5,3.8-9.9,5.2-15.3c-2.9-1.8-5.7-3.2-8.9-4.5c-0.4,0.5-0.9,0.9-1.2,1.3c-2.3,3.3-4.6,6.5-6.8,9.8c-0.5,0.6-0.9,1.3-1.4,2
					c-2-0.2-3.8-1-5.7-1.7c0.1-4.6,0.3-9.2,0.2-13.9c0-0.8,0-1.6-0.1-2.4c-0.2,0-0.3-0.1-0.5-0.1c-3.1-0.8-6.2-1.2-9.4-1.5
					c-0.3,0.6-0.6,1.2-0.8,1.7c-1.2,4-2.4,7.6-3.6,11.6c-0.2,0.7-0.4,1.6-0.7,1.6h-5.6c-0.2,0-0.5-0.9-0.7-1.6
					c-1.1-3.7-2.2-7.3-3.3-11c-0.3-0.8-0.4-1.6-1.2-2.4c-1.4,0.1-2.8,0.3-4.1,0.5c-1.8,0.3-3.6,0.6-5.4,1.1
					c-0.5,1.8-0.2,3.6-0.3,5.3c0,1.9,0,3.7,0.1,5.6c0,0.5,0.1,1,0.1,1.5c0.1,1.2,0.1,2.5,0.2,3.9c-1.9,0.6-3.6,1.2-5.5,1.8
					c-0.5-0.6-0.9-1.1-1.3-1.6c-0.4-0.5-0.7-1.1-1.1-1.6c-1.7-2.5-3.5-5.1-5.2-7.6c-0.6-0.8-1.2-1.5-1.8-2.3
					c-2.3,0.5-6.4,2.4-9.1,4.5c1.2,5.2,3.4,10.1,5.1,15.2c-1.4,1.4-3,2.2-4.5,3.5c-0.5-0.3-1.1-0.6-1.6-1c-0.8-0.7-1.7-1.3-2.6-2
					c-2.2-1.6-4.3-3.3-6.5-5c-0.8-0.6-1.6-1.1-2.5-1.8c-2.7,2.1-4.9,4.5-7.2,7c1,1.9,2.3,3.6,3.6,5.2c0,0,0,0,0,0
					c0.4,0.5,0.8,1,1.2,1.5c0.6,0.8,1.2,1.5,1.8,2.3c0.6,0.8,1.2,1.6,1.9,2.3c0.4,0.5,0.9,1.1,1.3,1.6c-1.1,1.7-2.2,3.3-3.4,4.7
					c-5.1-1.8-10.1-3.5-15-5.2c-0.8,0.9-1.8,2.3-2.7,4c-0.3,0.6-0.6,1.2-0.9,1.8c-0.2,0.5-0.4,1-0.6,1.5c-0.3,0.6-0.5,1.2-0.6,1.8
					c0.4,0.4,0.9,0.9,1.5,1.3c3.1,2.2,6.3,4.3,9.4,6.5c0.7,0.5,1.4,1,2.3,1.6c-0.6,1.8-1.1,3.6-1.7,5.4c-0.3,0-0.5-0.8-0.8-0.8
					c-0.2,0-0.5-0.8-0.7-0.8h0c-0.2,0-0.3,0-0.5,0c-3.9,0-7.8,0.7-11.7,0.7c-0.9,0-1.8,0.5-2.6,0.6c-0.7,1.8-1.2,4.1-1.5,6.6
					c-0.1,1-0.2,2.3-0.2,3.5c0.5,0.2,1,0.6,1.6,0.8c1.2,0.4,2.4,0.8,3.6,1.1c1.5,0.5,3.1,0.9,4.6,1.4c1.2,0.4,1.2,0.7,2.5,1.1
					c0.6,0.2,0.7,0.4,0.7,0.6v5.8c0,0.5-0.5-2.2-2-2.2c0,0,0,0,0,0c-2.7,0-5.3,3.3-7.9,4.1c-1,0.3-2,1.6-2.9,2
					c-0.1,2.9,0.5,6.9,1.4,10.3c1.7,0.5,3.4-2.1,5.2-2.1c1.8,0,3.5-2.4,5.3-2.4h0.2c1.5,0,3,2.4,4.5,2.3l0.9,1.2
					c0.2,0.4,0.4,1.5,0.6,1.9c0.6,1.4,1,3.2,1.3,4.7c-0.3,0.2-0.6,0.6-0.9,0.8c-1.9,1.3-3.8,2.7-5.7,4c-2.2,1.5-4.3,3.1-6.4,4.6
					c0.1,0.6,0.3,1.4,0.6,2.2c0.1,0.4,0.3,0.8,0.5,1.2c0,0,0,0,0,0.1c0.9,2,2.1,4.1,3.4,5.8c0.6-0.1,1.3-0.2,2-0.4
					c3.6-1.2,7.2-2.5,10.8-3.8c0.8-0.3,1.6-0.6,2.6-0.9c1.1,1.5,2.2,3,3.4,4.6c-0.3,0.5-0.6,1-1,1.5c-2.4,3.1-4.8,6.2-7.1,9.3
					c-0.5,0.7-1,1.4-1.5,2.1c1,1.9,4.3,5.3,7.1,7.4c2.3-1.4,4.4-3.1,6.6-4.7c2.1-1.6,4.2-3.3,6.4-5c1.5,1.1,3,2.2,4.6,3.3
					c-0.2,0.6-0.3,1.2-0.5,1.8c-1.3,3.7-2.6,7.5-4,11.2c-0.3,0.7-0.5,1.5-0.7,2.2c1.6,1.6,5.8,3.8,9,4.8c0.5-0.6,1.1-1.2,1.6-1.9
					c2.1-3,4.2-6.1,6.3-9.2c0.4-0.6,0.9-1.3,1.4-2c2,0.5,3.8,1,5.6,1.9c-0.4,5.3-0.4,10.6-0.3,15.8c2.4,1.1,6.7,1.3,10.1,1.2
					c1.9-4.9,3.2-15.8,4.7-15.8h5.8c1.6,0,2.8,10.9,4.8,16c3.4,0,6.6-0.4,9.8-1.2c0.5-1.8-1.2-3.4-1.2-5.2c0-1.8-1.5-3.6-1.5-5.4
					v-5.5c4-0.7,4.9-1.4,6.9-1.7c2.9,4.4,6.5,8.9,9.8,12.9c2.2-0.3,6.7-2.4,9.5-4.4c-1.2-5.2-3.2-10.1-5-15.3
					c1.5-1.1,3.1-2.2,4.7-3.4c0.6,0.4,1.2,0.8,1.8,1.2c3.2,2.4,6.3,4.8,9.5,7.2c0.6,0.5,1.3,0.9,1.9,1.2c2.3-1.7,5.2-4.6,7.1-7.1
					c-1.3-2.4-3-4.5-4.7-6.6c-1.6-2.1-3.3-4.2-4.9-6.3c0.5-0.8,1-3.5,1.6-4.3c0.6-0.8,1.2-0.1,1.8-4.1h0c5.1,4,10,5.7,15.2,6.9
					c1.7-2.4,3.6-5,4.6-8c-0.4-0.4-0.8-0.4-1.3-0.7c-3.2-2.2-6.4-4.2-9.6-6.4c-0.7-0.5-1.4-0.9-2.2-1.4c0.4-2,1-3.7,1.9-5.6
					c1.2,0.1,2.4,0.2,3.7,0.3c1.2,0.1,2.5,0.1,3.7,0.1c2.8,0.1,5.7,0.1,8.6,0c0.9-1.9,0.9-4,1.3-5.9c0.1-0.5-2-1.1-1.8-1.6
					c0.1-0.4-1.2-0.6-1.2-0.9v-1.6c0-0.8-2.7-1.7-5.4-2.5c-2.7-0.8-5.6-1.5-5.6-2.3v-5.7C1419,1418.3,1419.3,1418.1,1419.7,1418z
					 M1410.2,1426.2c-2.2,26.5-22.3,47.9-48.2,52.1c-3.1,0.5-6.2,0.8-9.4,0.8c-22.2,0-41.5-12.5-51.2-30.9c-1.1-2.1-2.1-4.4-3-6.7
					c-0.9-2.5-1.7-5-2.3-7.7c-0.3-1.5-0.6-3.1-0.8-4.7c-0.4-2.6-0.5-5.2-0.5-7.8c0-3.2,0.3-6.4,0.8-9.4c1.1-6.6,3.3-12.8,6.4-18.5
					c2.1-3.8,4.6-7.3,7.4-10.5c0.9-1,1.8-2,2.8-3c3.9-3.9,8.5-7.2,13.4-9.8c6.7-3.6,14.2-5.8,22.1-6.5c1.6-0.2,3.3-0.2,4.9-0.2
					c31.9,0,57.8,25.9,57.8,57.8C1410.4,1422.9,1410.4,1424.6,1410.2,1426.2z"/>
				<path class="st6" d="M1352.4,1371.4c-27.5,0-49.8,22.3-49.8,49.8c0,27.5,22.3,49.8,49.8,49.8c27.5,0,49.8-22.3,49.8-49.8
					C1402.3,1393.8,1379.9,1371.4,1352.4,1371.4z M1352.4,1438c-9.2,0-16.7-7.5-16.7-16.7c0-9.2,7.5-16.7,16.7-16.7
					c9.2,0,16.7,7.5,16.7,16.7C1369.1,1430.5,1361.6,1438,1352.4,1438z"/>
			</g>
			<g>
				<path class="st14" d="M1291.6,1608.2c7.5-2.2,12.7-4.5,20.2-6.7c0.8-0.2,0.2-0.3,0.2-0.5v-2.6c0-0.6,1.5-2,1.3-3.3
					c-0.6-3.5,0.4-7-0.2-10.2c-1.5-1.1-2.1-0.9-3.4-0.9c-6.4,0-12.3,0.2-18.7,0.3c-1.3,0-2.4,0-4,0c-0.6-1.5-1-3-1.6-4.5
					c-0.5-1.5-0.9-3-1.4-4.7c4-2.7,7.9-5.2,11.6-7.8c3.6-2.5,7.4-4.8,10.6-8.1c-2.1-5.2-4.5-10-7.6-14.8c-4.6,0.9-8.8,2.6-13.1,4.1
					c-4.2,1.5-8.3,3-12.7,4.6c-1.9-2.5-3.7-5-5.7-7.6c0.6-0.9,1-1.8,1.6-2.6c4-5.3,8.1-10.6,12.1-15.9c0.9-1.2,1.6-2.4,2.5-3.7
					c-3.7-4.3-7.5-8.2-11.8-11.8c-4.1,2.2-7.6,5.1-11.2,7.8c-3.5,2.7-7,5.5-10.5,8.2c-1.7-0.5-2.8-1.7-4.1-2.6
					c-1.3-0.9-2.8-1.7-3.9-3.3c2.9-8.3,6.4-16.6,8.7-25.6c-4.8-3-9.6-5.4-14.9-7.6c-0.7,0.8-1.5,1.4-2,2.2
					c-3.8,5.5-7.6,10.9-11.4,16.4c-0.8,1.1-1.5,2.2-2.3,3.4c-3.4-0.3-6.3-1.7-9.5-2.9c0.3-7.7,0.5-15.4,0.4-23.2
					c0-1.3-0.1-2.6-0.1-4c-0.3-0.1-0.5-0.1-0.8-0.2c-5.3-1.4-10.4-2-15.7-2.5c-0.5,1.1-1,2-1.3,2.9c-2,6.6-4,11.8-6,18.5
					c-0.3,1.1-0.7,1.8-1.1,1.8h-9.3c-0.4,0-0.9-0.7-1.2-1.7c-1.9-6.2-3.6-11.8-5.6-18c-0.4-1.4-0.7-2.5-2-3.9
					c-2.3,0.2-4.6,0.7-6.9,1c-3,0.4-6,1.1-9,1.9c-0.9,3-0.4,6-0.4,9c-0.1,3.1,0,6.2,0.1,9.4c0,0.8,0.1,1.7,0.1,2.6
					c0.1,2.1,0.2,4.2,0.3,6.5c-3.1,1-6,2-9.2,3c-0.8-0.9-1.5-1.8-2.2-2.8c-0.6-0.9-1.2-1.8-1.8-2.6c-2.9-4.2-5.8-8.5-8.8-12.7
					c-0.9-1.3-2-2.6-2.9-3.8c-3.9,0.8-10.6,4.1-15.3,7.5c2,8.7,5.7,16.9,8.6,25.5c-2.3,2.3-5,3.7-7.6,5.8c-0.9-0.6-1.8-1.1-2.6-1.7
					c-1.4-1.1-2.9-2.2-4.3-3.3c-3.6-2.8-7.2-5.6-10.9-8.3c-1.3-1-2.7-1.8-4.2-2.9c-4.5,3.4-8.2,7.6-12.1,11.7c1.7,3.2,3.9,6,6,8.8
					c0,0,0,0,0,0c0.7,0.9,1.3,1.7,1.9,2.5c1,1.3,2,2.6,3,3.9s2,2.6,3.1,3.9c0.7,0.9,1.4,1.8,2.2,2.8c-1.8,2.9-3.6,5.5-5.8,7.9
					c-8.5-3-16.8-5.9-25-8.8c-1.4,1.4-3.1,3.9-4.5,6.8c-0.5,0.9-1,1.9-1.5,3c-0.4,0.8-0.7,1.7-1,2.5c-0.4,1-0.8,2-1.1,3
					c0.7,0.7,1.5,1.6,2.4,2.2c5.2,3.6,10.5,7.3,15.7,10.9c1.2,0.8,2.4,1.7,3.8,2.6c-1,3.1-1.9,6-2.9,9c-0.4,0-0.9-0.1-1.3-0.1
					c-0.4,0-0.8-0.1-1.1-0.1h0c-0.3,0-0.5,0-0.8,0c-6.5,0-13-0.1-19.5-0.2c-1.5,0-2.9,0.2-4.3,0.3c-1.2,3-2,6.5-2.5,10.8
					c-0.2,1.8-0.3,3.7-0.4,5.8c0.8,0.4,1.7,0.9,2.6,1.2c2,0.6,4,1.2,6,1.8c2.5,0.8,5.1,1.6,7.7,2.3c2.1,0.6,1.6,1.2,3.7,1.9
					c1.1,0.3,0.7,0.7,0.7,1.1v9.7c0,0.8,0.1-2.6-2.4,1.4c0,0,0,0,0,0c-4.5,0-8.9,2.9-13.2,4.4c-1.7,0.5-3.3,1.4-4.9,2
					c-0.1,4.8,0.8,10.9,2.4,16.6c2.8,0.8,5.8-1.3,8.7-1.3c3,0.1,5.9-1.8,8.9-1.8h0.4c2.5,0,5,1.5,7.5,1.3l1.4,0.8
					c0.3,0.7,0.7,1.8,0.9,2.5c1,2.4,1.6,5,2.2,7.6c-0.5,0.3-1,0.8-1.5,1.1c-3.3,2.2-6.4,4.4-9.6,6.5c-3.6,2.5-7.2,5.2-10.6,7.7
					c0.2,1,0.5,2.2,1,3.6c0.2,0.7,0.5,1.3,0.8,2c0,0,0,0.1,0,0.1c1.4,3.3,3.5,6.9,5.6,9.8c1-0.2,2.2-0.4,3.3-0.7
					c6-2.1,12-4.2,18-6.3c1.4-0.5,2.7-1,4.4-1.6c1.9,2.6,3.7,5.1,5.7,7.7c-0.6,0.9-1.1,1.7-1.7,2.5c-4,5.2-7.9,10.3-11.9,15.5
					c-0.9,1.2-1.7,2.4-2.4,3.6c1.7,3.2,7.2,8.9,11.8,12.3c3.8-2.3,7.4-5.1,11-7.9c3.5-2.7,7-5.5,10.7-8.4c2.6,1.9,5,3.6,7.7,5.6
					c-0.3,1-0.4,2-0.8,2.9c-2.2,6.3-4.4,12.5-6.6,18.8c-0.4,1.3-0.8,2.5-1.1,3.8c2.7,2.6,9.8,6.4,15.1,8c0.8-1,1.8-2.1,2.6-3.3
					c3.6-5.1,7-10.2,10.6-15.3c0.7-1.1,1.5-2.1,2.3-3.3c3.3,0.8,6.3,1.7,9.4,3.2c-0.6,8.9-0.7,17.8-0.5,26.5
					c3.9,1.8,11.2,2.7,17,2.5c3.2-8.3,5.3-18,7.9-26h9.8c2.6,8,4.6,17.7,8,26.2c5.7-0.1,11-1,16.4-2.2c0.8-3-2.5-5.9-2.4-8.8
					c0.1-3.1-2.9-6.1-2.9-9.2v-9.1c4-1.2,8.6-2.3,12-2.9c4.9,7.4,11.1,14.8,16.6,21.6c3.7-0.6,11.4-4,16.1-7.4
					c-2.1-8.6-5.3-16.9-8.3-25.6c2.5-1.9,5.2-3.7,7.9-5.7c1,0.7,2,1.3,2.9,1.9c5.3,4,10.6,8.1,15.9,12.1c1,0.8,2.2,1.4,3.2,2.1
					c3.9-2.8,8.7-7.6,11.9-11.8c-2.1-4-5.1-7.5-7.8-11.1c-2.6-3.6-5.5-7-8.3-10.6c0.9-1.4,1.7-4,2.7-5.4c0.9-1.3,2-1.1,3.1-5.1h0
					c8.6,4,16.8,7.8,25.4,9.8c2.9-3.9,6-9.3,7.7-14.3c-0.7-0.6-1.4-1.1-2.2-1.6c-5.3-3.7-10.7-7.3-16-11c-1.2-0.8-2.4-1.6-3.7-2.5
					c0.7-3.3,1.7-6.3,3.2-9.5c2,0.2,4.1,0.3,6.2,0.4c2,0.1,4.1,0.2,6.2,0.2c4.8,0.1,9.6,0.1,14.4-0.1c1.4-3.2,1.4-6.6,2.1-9.9
					c0.2-0.9-3-1.8-2.6-2.6c0.2-0.6-1.6-1-1.6-1.5v-2.7c0-1.4-7.3-2.9-11.8-4.2c-4.5-1.3-8.2-2.6-12.2-3.9v-9.5
					C1288,1608.7,1290.9,1608.4,1291.6,1608.2z M1278.1,1621.9c-3.7,44.3-37.3,80.1-80.6,87.2c-5.1,0.9-10.4,1.3-15.8,1.3
					c-37.2,0-69.5-21-85.7-51.8c-1.9-3.6-3.6-7.3-5-11.2c-1.5-4.2-2.8-8.4-3.8-12.9c-0.6-2.6-1.1-5.2-1.4-7.8
					c-0.6-4.3-0.9-8.7-0.9-13.1c0-5.4,0.4-10.7,1.3-15.8c1.8-11.1,5.5-21.5,10.7-30.9c3.5-6.3,7.6-12.2,12.4-17.5
					c1.5-1.7,3.1-3.4,4.7-5c6.6-6.5,14.2-12,22.4-16.4c11.2-6,23.7-9.7,37-10.9c2.7-0.3,5.5-0.4,8.3-0.4c53.4,0,96.8,43.3,96.8,96.8
					C1278.5,1616.4,1278.4,1619.2,1278.1,1621.9z"/>
				<path class="st6" d="M1181.4,1530.3c-46.1,0-83.4,37.3-83.4,83.4c0,46.1,37.3,83.4,83.4,83.4c46.1,0,83.4-37.3,83.4-83.4
					C1264.8,1567.6,1227.5,1530.3,1181.4,1530.3z M1181.4,1641.6c-15.4,0-27.9-12.5-27.9-27.9c0-15.4,12.5-27.9,27.9-27.9
					c15.4,0,27.9,12.5,27.9,27.9C1209.3,1629.1,1196.8,1641.6,1181.4,1641.6z"/>
			</g>
			<g>
				<path class="st14" d="M1018.9,1577.5c-9.5-4.6-19.5-7.6-29.5-11.1c-2.1-0.8-4.3-1.5-6.4-2.3c-0.3-0.8-0.5-1.6-0.7-2.5
					c0-0.1,0-0.1,0-0.2c-0.5-2.7-0.3-5.5-0.3-8.3c0.1-1.3,0.1-2.7,0-4.1c0-0.9-0.1-1.8-0.3-2.6c2.6-0.9,5.2-1.9,7.7-2.8
					c9.9-3.6,19.6-7.1,29.4-10.7c0.3-4.3,0.1-8.5-0.4-12.6c-0.8-5.7-2.1-11.2-3.4-16.9c-6.6-1.7-13-1.2-19.3-1.4h-0.3
					c-6.5-0.2-12.9-0.2-19.6-0.3c-0.1-0.2-0.2-0.4-0.3-0.6c-2.7-5-3.5-10.3-5.6-15.6c1.2-1.3,2.3-2.9,3.8-4
					c3.4-2.6,6.8-5.2,10.1-7.8c3.6-2.8,7.2-5.5,10.8-8.3c1.6-1.3,3-2.6,4.8-4.2c0.5-0.5,1-0.9,1.6-1.4c-2.5-5.9-5-11.5-7.9-16.8
					c-1.7-3.1-3.6-6.2-5.7-9.2c-9.2,1.4-18,4.3-26.9,7.2c-3.6,1.2-7.3,2.3-11.1,3.3c-3.6-4.9-7.1-9.5-10.7-14.4
					c7.6-11,15.5-21.3,22.1-32.8c-6.1-8.1-13.2-14.6-20.6-21.1c-12,6.4-22.1,14.5-33.3,22.1c-4.9-3.6-9.5-7-14.2-10.5
					c3.2-13.1,8.4-25.1,10.4-38.2c-7.9-5.7-16.5-9.5-25.5-13.4c-1.6,1.5-3.4,2.9-4.8,4.6c-5.3,6.6-10.4,13.4-15.6,20.1
					c-1.6,2-3.2,4-5,6.1c-5.9-1.5-11.5-2.9-16.7-5.9c-0.6-5.9-0.5-11.9-0.5-17.8c0-7.1-0.2-14.2-2-21.3c-8.5-2.8-17.2-3.3-26.2-4.6
					c-0.4-0.1-0.9-0.1-1.3-0.2c-0.8,1.3-1.8,2.6-2.5,4c-0.3,0.5-0.6,1.1-0.8,1.6c-3.3,8.8-6.3,17.8-9.5,26.6c-0.5,1.5-1.1,3-1.8,4.7
					c-6,1-11.7,0.4-17.7,0.5c-4.9-11.2-7.5-23.1-12.7-34.1c-0.4-0.9-0.9-1.9-1.4-2.8c-9.5-0.1-18.6,1.9-28.2,4
					c-0.4,1.9-1.1,3.7-1.2,5.6c-0.5,8.1-0.8,16.3-1.1,24.4c-0.1,3.2-0.2,6.4-0.2,10.1c-5.7,1.9-10.9,3.6-16.3,5.3
					c-5.1-4.5-8.1-10.3-12.2-15.3c-4.1-5-8.1-10.1-12-15c-5.6,1-11.8,3.5-18.4,7.4c-2.8,1.6-5.6,3.5-8.5,5.5
					c1.5,12.7,6.9,24.6,10.1,37.4c-4,4.4-9.1,7.2-14.1,10.8c-10.8-7.3-21.5-14.5-32-21.5c-7.2,4-14.5,11.1-21.8,20.9
					c6,11.2,14.1,21.3,21.6,32.3c-0.4,0.8-0.9,1.6-1.4,2.4c-0.4,0.8-0.9,1.5-1.4,2.2c-1,1.6-2.1,3.1-3.3,4.6
					c-0.9,1.2-1.8,2.3-2.9,3.5c-0.5,0.6-1,1.2-1.5,1.8h0c-12.7-2.7-24.6-8.2-37.9-10.2c-6,7.9-9.7,16.8-13.6,25.7
					c9.4,9.9,20.8,16.4,30.8,25.2c-0.8,2.7-1.3,5.1-2.1,7.6c-1,3-2.1,6-3.3,9.2c-1.3,0.1-2.5,0.2-3.8,0.3c-12,0.6-23.8-0.3-35.7,1.5
					c-2.5,9.5-4.1,18.7-4.6,28.6c11.6,6.3,24.3,9.2,36.5,14c1.6,5.7,0.8,11.5,0.6,17.9c-12.1,4.4-24.3,8.8-36.6,13.3
					c-0.6,10.4,1.8,19.8,4,29.6c13.2,2.2,26.2,0.6,39.5,2c1.1,2.8,2.2,5.5,3,8.2c0.9,2.8,1.6,5.6,2.5,8.7c-6.3,5.2-13,9.8-19.4,14.8
					c-3.9,3-7.8,6.2-11.4,9.7c3.2,9.4,7.9,17.5,13,26.1c4.9-0.7,9.6-1.8,14.3-3.1c7.9-2.2,15.7-5,23.9-7.3c1.9,2.3,3.7,4.5,5.5,6.7
					c1.8,2.3,3.4,4.7,5.3,7.5c-7.3,10.8-14.5,21.5-21.9,32.5c5.6,8.6,13.3,14.5,20.5,21.7c11.8-6.4,22-14.4,32.9-21.9
					c5.5,2.5,9.7,6.6,14.8,10.1c-2.9,12.8-8.3,24.8-10.2,37.4c5.9,5.5,15,10.4,26.1,14c9-9,16-20,24.1-30.3c0.7,0.1,1.4,0.2,2.1,0.4
					c0.9,0.2,1.8,0.4,2.7,0.6c0.4,0.1,0.9,0.2,1.3,0.4c0.4,0.1,0.8,0.2,1.3,0.4c0.8,0.2,1.5,0.5,2.3,0.8c2.5,0.9,4.9,1.9,7.4,3.1
					c0.1,1.8,0.2,3.5,0.2,5.3c0.1,1.8,0.1,3.5,0.1,5.3c0.1,2.2,0.1,4.4,0.1,6.6c0,1.8,0.1,3.5,0.1,5.3c0.1,1,0.1,2,0.2,3.1
					c0.1,1,0.1,2,0.2,3c0.1,1,0.2,2.1,0.3,3.1c0,0.1,0,0.2,0,0.2c0.1,1.2,0.3,2.4,0.4,3.6c0.2,1.2,0.4,2.4,0.6,3.6
					c0.9,0.3,1.7,0.6,2.6,0.8c0.7,0.2,1.4,0.4,2.1,0.6c0.9,0.3,1.9,0.5,2.9,0.7c1.3,0.3,2.6,0.5,4,0.8c1.6,0.3,3.1,0.5,4.7,0.7
					c1.6,0.2,3.2,0.4,4.8,0.6c2.4,0.3,4.8,0.6,7.3,0.8c0.2-0.3,0.3-0.6,0.4-0.8c4.7-8.9,7.4-18.6,10.8-28.2c0.9-2.6,1.9-5.3,3-7.9
					c2.8-0.2,5.6-0.5,8.5-0.5c2.4-0.1,4.7,0.1,7.2,0.2c0.6,0,1.3,0.1,1.9,0.1c5.1,11.6,7.7,24,13.5,35.5c0.2,0.4,0.4,0.8,0.6,1.3
					c2.1,0,4.3-0.1,6.4-0.3c7.3-0.6,14.4-2.2,21.9-3.8c2-6.3,1.9-12.8,2-19.3c0-1.3,0.1-2.5,0.1-3.8c0-4.3,0-8.6,0-13v-3
					c5.2-3.5,11-4.4,16.8-6.2c5,4.3,8,10.2,12.1,15.1c0.2,0.2,0.3,0.4,0.5,0.6c4,4.8,7.8,9.8,11.5,14.4c0.7-0.1,1.5-0.3,2.2-0.5
					c5.3-1.3,11.2-3.9,17.5-7.7c2.3-1.4,4.8-3,7.2-4.7c-0.1-1-0.3-2-0.4-2.9c-0.5-2.8-1.1-5.7-1.9-8.4c0,0,0,0,0,0
					c-0.1-0.3-0.2-0.5-0.2-0.8c-0.2-0.8-0.4-1.6-0.7-2.4c-0.9-3.2-1.9-6.4-3-9.7c-0.7-1.9-1.3-3.9-1.9-5.9c-0.8-2.4-1.4-4.7-2.1-7.2
					c3.8-4.7,9.2-7.2,14.2-11.1c1.4,0.9,2.7,1.9,4.1,2.8c1.3,0.9,2.6,1.9,4,2.8c2.7,1.9,5.3,3.7,8,5.5c5.4,3.6,10.8,7.1,16,10.5
					c1.3-0.7,2.6-1.6,4-2.5c0.6-0.4,1.2-0.9,1.8-1.4c0.7-0.5,1.3-1,2-1.6c0.6-0.5,1.1-0.9,1.6-1.4c0.2-0.2,0.3-0.3,0.5-0.5
					c0.5-0.5,1.1-1,1.6-1.5c1.5-1.4,2.9-2.9,4.3-4.5c0.9-0.9,1.7-1.9,2.5-2.9c0.2-0.3,0.5-0.6,0.8-0.9c0.9-1.1,1.7-2.2,2.6-3.3
					c-0.7-1.4-1.5-2.8-2.3-4.2c-1.6-2.8-3.3-5.5-5.1-8.1c-0.2-0.3-0.4-0.6-0.6-0.9c-0.7-1-1.4-2.1-2.2-3.1c-1-1.5-2.1-3-3.2-4.6
					c-1.4-1.9-2.7-3.8-4.1-5.7c-1.3-1.7-2.4-3.5-3.6-5.3c-0.1-0.2-0.3-0.4-0.4-0.6c2.7-5.2,6.3-9.7,10.4-14.5
					c12.6,2.8,24.6,8.1,37.8,10.3c2.1-2.8,4-5.7,5.7-8.7c3.1-5.5,5.6-11.3,8-17.3c-9.3-9.5-20.5-16.2-30.6-24.7
					c0.7-5,2.3-9.5,4.2-14.2c0.4-0.9,0.7-1.8,1.1-2.7c12.6-1.5,25.3,0,38.2-1.9c0.4,0,0.8-0.1,1.3-0.2c0.3-1.1,0.6-2.3,0.8-3.4
					c1.3-5.4,2.5-10.8,3-16.4C1019,1583.8,1019.1,1580.7,1018.9,1577.5z M791.6,1721.6c-3.1,0.2-6.3,0.3-9.5,0.3
					c-2.5,0-4.9,0-7.3-0.1c-3.1-0.1-6.1-0.3-9.2-0.6c-8.1-0.8-16.1-2.1-23.9-4.1c-7.5-1.8-14.8-4.2-21.9-7.1
					c-1.1-0.4-2.3-0.9-3.4-1.4c-2.3-1-4.6-2-6.9-3.1c-10.1-4.8-19.7-10.7-28.7-17.4c-39.5-29.9-65.9-77.4-65.9-133
					c0-7.3,0.4-14.5,1.3-21.4c1-8.1,2.6-15.9,4.7-23.4c0.5-1.9,1.1-3.8,1.7-5.6c0.6-1.9,1.2-3.7,1.9-5.6c0.5-1.3,0.9-2.6,1.4-3.9
					c0-0.1,0.1-0.2,0.2-0.4c0.3-0.9,0.7-1.7,1-2.6c0.4-1.1,0.9-2.2,1.4-3.3c0.3-0.7,0.6-1.3,0.9-1.9c0.6-1.3,1.2-2.6,1.8-3.9
					c0.8-1.7,1.7-3.4,2.6-5.1c0.8-1.7,1.8-3.4,2.7-5c0.9-1.7,1.9-3.3,2.9-4.9c3.9-6.5,8.3-12.6,13.1-18.3c1.1-1.4,2.4-2.9,3.6-4.3
					c1.1-1.3,2.3-2.6,3.5-3.9c0.1-0.1,0.2-0.2,0.3-0.2c1.3-1.3,2.5-2.7,3.9-4c1.3-1.3,2.6-2.6,4-3.9c1.3-1.3,2.7-2.6,4.1-3.7
					c0.9-0.8,1.9-1.7,2.8-2.5c0.5-0.4,0.9-0.8,1.4-1.2c0.7-0.6,1.3-1.1,2-1.6l0,0c3.7-2.9,7.4-5.7,11.4-8.2c1.5-1,3.1-2,4.7-3
					c6.4-4,13.1-7.5,20-10.6c3.2-1.4,6.5-2.8,9.9-4.1c18.1-6.8,37.5-10.5,57.2-10.5c10.2,0,20.2,0.8,29.9,2.6
					c44.9,8,84.6,34.3,109.6,71.6c8.8,13,15.7,27.4,20.5,42.8c3.4,10.8,5.7,22,6.8,33.7c0.3,2.9,0.5,5.7,0.6,8.7
					c0,0.6,0.1,1.2,0.1,1.8c0.1,1.4,0.1,2.9,0.1,4.3c0.1,7-0.3,13.9-1.1,20.7c-0.5,4.2-1.1,8.4-1.9,12.6c-1.7,9-4.2,17.8-7.3,26.3
					c-0.6,1.6-1.3,3.3-1.9,4.9c-1.3,3.2-2.7,6.3-4.2,9.3c-0.4,0.9-0.8,1.7-1.2,2.5c-0.8,1.7-1.7,3.3-2.5,4.9
					c-0.8,1.4-1.5,2.8-2.4,4.1c-0.8,1.4-1.7,2.9-2.6,4.3c-1.1,1.8-2.3,3.5-3.4,5.3c-2.1,3.1-4.3,6.2-6.7,9.1c-1.1,1.5-2.3,3-3.5,4.4
					c-0.1,0.1-0.1,0.1-0.1,0.2c-1.2,1.4-2.3,2.8-3.6,4.1c-0.9,1-1.8,2-2.8,3c-0.5,0.6-1.1,1.2-1.6,1.7c-0.3,0.3-0.6,0.6-0.8,0.8
					c-0.8,0.9-1.7,1.7-2.5,2.5c-1.3,1.3-2.5,2.4-3.8,3.6h0c-0.1,0.1-0.2,0.2-0.3,0.2c-1.3,1.3-2.8,2.5-4.2,3.7c-1.2,1-2.4,2-3.5,3
					c-0.3,0.2-0.5,0.4-0.8,0.6c-2.9,2.4-5.9,4.6-9,6.7c-1.5,1.1-3.1,2.1-4.7,3.1c-0.9,0.6-1.9,1.2-2.8,1.8c-0.5,0.3-0.9,0.6-1.4,0.9
					c-1,0.6-1.9,1.2-2.9,1.7c-0.8,0.5-1.7,1-2.5,1.4c-1.6,0.9-3.2,1.8-4.9,2.6c-0.1,0-0.2,0.1-0.2,0.1c-1.6,0.8-3.3,1.7-5,2.4
					c-1.7,0.8-3.4,1.6-5.2,2.3c-1.7,0.8-3.5,1.5-5.3,2.1c-1.8,0.8-3.5,1.4-5.3,2c-1.8,0.7-3.6,1.3-5.4,1.8c-1.8,0.6-3.6,1.1-5.5,1.6
					c-1.8,0.5-3.7,1-5.6,1.4c-3.7,0.9-7.5,1.7-11.4,2.3c-1.9,0.3-3.8,0.6-5.7,0.8C799.3,1721,795.5,1721.4,791.6,1721.6z"/>
				<path class="st6" d="M954.7,1550c0-0.3,0-0.6,0-0.8c-0.1-2.6-0.2-5.2-0.4-7.7c-1.2-16.2-4.7-31.9-10.2-46.5
					c-4.4-11.9-10-23.1-16.8-33.6c-27-42-71.7-71.5-123.5-78.2c-7.3-0.9-14.7-1.4-22.3-1.4c-22.2,0-43.4,4.2-62.9,11.8
					c-3.5,1.3-7,2.8-10.4,4.4c-51.2,23.9-88.8,72.2-97.9,129.9c-1.4,8.8-2.1,17.9-2.1,27.1c0,59,29.5,111.1,74.5,142.4
					c6.2,4.3,12.7,8.2,19.4,11.7c4.4,2.3,8.8,4.3,13.4,6.2c3.6,1.5,7.2,2.9,10.9,4.1c31,10.2,67.3,10,98.9,2.1
					c18.5-4.6,36.2-12.3,52-22.8c2.1-1.3,4.1-2.4,6.1-3.9c6.4-4.6,12.5-9.6,18.1-15c2.4-2.3,4.7-4.6,6.9-7
					c10.1-10.9,18.9-23.1,26-36.4c3.2-6,6-12.1,8.4-18.5c3.8-9.8,6.7-19.9,8.8-30.4c0-0.2,0.1-0.3,0.1-0.5c0.6-3.3,1.1-6.7,1.6-10.1
					c0.9-7.1,1.3-14.4,1.3-21.7C954.8,1553.3,954.8,1551.7,954.7,1550z M650.7,1479.4c7.3-12.6,21.8-18.4,35.2-15.3
					c3.1,0.7,6.1,1.9,8.9,3.5c15.5,8.9,20.7,28.7,11.8,44.2c-7.2,12.4-21.3,18.3-34.6,15.5c-3.3-0.7-6.5-1.9-9.6-3.7
					c-2.8-1.6-5.2-3.5-7.3-5.8c-2.5-2.6-4.4-5.5-5.8-8.7C645.1,1499.9,645.2,1488.8,650.7,1479.4z M706.9,1630.3
					c-2.7,5-6.8,9.2-12.1,12.2c-11.8,6.8-26.2,5.3-36.3-2.7c-3.1-2.5-5.8-5.5-7.9-9.1c-8.9-15.5-3.6-35.3,11.8-44.2
					c1.2-0.7,2.3-1.3,3.5-1.7c8.1-3.5,16.9-3.4,24.6-0.3c6.5,2.6,12.2,7.3,16,13.9C712.6,1608.6,712.3,1620.7,706.9,1630.3z
					 M779.6,1403.7c0.7,0,1.5-0.1,2.2-0.1c17.9,0,32.3,14.5,32.3,32.3c0,1.4-0.1,2.9-0.3,4.3c-2.1,15.8-15.6,28.1-32,28.1
					c-17.9,0-32.3-14.5-32.3-32.3C749.5,1418.9,762.7,1404.9,779.6,1403.7z M813.2,1681.7c-2.5,10.5-10.1,19-20.1,22.7
					c-3.5,1.3-7.4,2-11.4,2c-5.2,0-10.2-1.3-14.6-3.5c-10.5-5.3-17.7-16.3-17.7-28.8c0-3.6,0.6-7,1.7-10.2c2.7-8,8.4-14.6,15.7-18.4
					c1.3-0.7,2.7-1.3,4.1-1.8c0.5-0.2,1.1-0.4,1.7-0.5c2.9-0.8,6-1.3,9.2-1.3c1,0,1.9,0,2.9,0.1c5,0.4,9.7,2,13.8,4.5
					c3.3,2,6.2,4.5,8.6,7.5c4.5,5.6,7.1,12.6,7.1,20.2C814.1,1676.7,813.8,1679.2,813.2,1681.7z M781.6,1607.7
					c-29.1,0-52.7-23.6-52.7-52.7c0-29.1,23.6-52.7,52.7-52.7c29.1,0,52.7,23.6,52.7,52.7C834.3,1584.1,810.7,1607.7,781.6,1607.7z
					 M852.9,1483.9c2.5-6.7,8.2-12.5,14.9-16.3c3.4-2,7.5-3.2,11.1-3.9c9-1.6,18.6,0.8,25.7,6.5c3.1,2.5,6,5.5,8.1,9.2
					c4.3,7.5,5.4,15.9,3.5,23.7c-1.6,6.8-5.4,13-11.1,17.6c-1.3,1-2.7,2-4.1,2.9c-1.3,0.8-2.7,1.4-4.1,2c-0.8,0.3-1.5,0.6-2.3,0.8
					c0,0,0,0,0,0c-1,0.3-2,0.6-3,0.8c-13.3,2.8-27.4-3.1-34.6-15.5c-0.7-1.3-3.2-2.5-3.7-3.9c-1.3-3-4.2-6.2-4.2-9.4v0
					C849,1493.5,851.1,1488.5,852.9,1483.9z M912.9,1630.8c-3.3,5.7-8.2,10.1-13.7,12.8c-9.4,4.6-20.7,4.6-30.4-1
					c-15.4-8.9-20.8-28.7-11.8-44.1c2.2-3.8,5.1-7,8.3-9.5c7.3-5.6,16.8-7.9,25.9-6c3.4,0.7,6.7,1.9,9.9,3.7
					c5.1,2.9,9.1,7.1,11.8,11.8C918.4,1608.1,918.9,1620.4,912.9,1630.8z"/>
			</g>
			<g>
				<path class="st6" d="M1578.2,1515.8c-63.1,0-114.2,51.2-114.2,114.2c0,63.1,51.2,114.2,114.2,114.2
					c63.1,0,114.3-51.2,114.3-114.2C1692.5,1567,1641.3,1515.8,1578.2,1515.8z M1578.2,1693c-34.7,0-62.9-28.1-62.9-62.9
					c0-34.7,28.1-62.9,62.9-62.9c34.7,0,62.9,28.1,62.9,62.9C1641.1,1664.8,1613,1693,1578.2,1693z"/>
				<path class="st14" d="M1753.1,1619.3c10.8-4.3,21-8.6,31.8-12.9c0.9-0.3,2.2-0.5,2.2-0.7v-2.9c0-3.9-1.7-7.8-2.6-11.6
					c-0.3-1.3-0.4-2.6-0.8-3.9c-1.1-4.7-1.9-10.3-3-14.3h-40.2c-2.3-8-4.8-11.5-6.9-16.3c9.6-9.9,18.8-19.4,28.1-29.1
					c-3.2-5.7-6.4-11.1-10-16.3c-2.7-3.9-5.5-7.7-8.4-11.4c-12.7,4.1-24.7,9.8-36.3,15.2c-4.8-4.8-9.3-9.3-13.9-13.9
					c0.5-1.2,1-2.4,1.6-3.7c0.8-1.9,1.6-3.8,2.5-5.8c2-4.7,4-9.4,6-14.2c1.8-4.1,3.5-8.3,5.3-12.5c-8.8-7.1-17.7-13-27.5-18.6
					c-7.6,6.5-14.5,13.6-21.4,21l0,0c-2.3,2.4-4.5,4.8-6.7,7.3c-5.6-2.3-12.6-4.6-18.1-6.9c-0.4-0.2-2.6-0.3-2.6-0.5v-39.9
					c0-0.1,1.1-0.1,1-0.2c-1.8-0.5-2.8-1-4.5-1.5c-1.1-0.3-1.9-0.6-3.1-0.9c-2.3-0.6-4.4-1.1-6.7-1.5c-1.2-0.3-2.3-0.5-3.4-0.7
					c-1.3-0.2-2.5-0.4-3.8-0.6c-0.9-0.2-1.7-0.3-2.6-0.4c-2.2-0.3-4.4-0.6-6.7-0.8c-0.7,1.8-1.5,3.6-2.2,5.4
					c-0.8,1.9-1.5,3.7-2.2,5.5c-2,4.9-4,9.9-5.9,14.9c-1.5,3.6-2.9,7-4.4,11h-19c-0.2,0,0.7-1,0.7-1.5v0c-8-11.7-10-23.4-14.8-35.3
					c-0.9,0.1-2.1,0.2-3,0.3c-0.7,0.1-1.6,0.2-2.4,0.3c-1.5,0.2-3.1,0.4-4.6,0.6c-1.7,0.3-3.4,0.5-5.1,0.8c-0.8,0.2-1.5,0.3-2.3,0.4
					c-0.8,0.1-1.5,0.3-2.3,0.5c-0.8,0.2-1.7,0.4-2.6,0.6c-1.1,0.2-2.1,0.5-3.2,0.8c-1.3,0.3-2.6,0.7-3.9,1c-1.3,0.4-3.9,0.8-3.9,1.2
					v39.9c-4,0.5-2.4,1-3.6,1.4c-1.9,0.8-3.9,1.6-5.9,2.4c-2.8,1.2-5.6,2.3-8.6,3.5c-0.5-0.5-1-1.5-1.4-2c-8.4-9.2-16.9-19-26.3-27
					h0c-0.1,0-0.2,0.2-0.3,0.1c-0.4,0.2-0.8,0.7-1.2,0.9c-2.6,1.4-5.1,3-7.5,4.5c-6.5,4-12.7,8.5-18.9,13.5
					c5.2,12.1,10.3,24.2,15.2,35.7c-4.5,4.5-9.1,9-14,13.9c-11-4.7-23.2-9.9-35.6-15.1c-7.1,8.8-13.1,17.8-18.5,27.6
					c8.7,10.1,18.4,19.1,28.4,28.1c-2.5,6-5,9.8-7.4,17.8h-39.8c-3.4,8-6.6,21.3-7.9,32.8c12.2,4.9,23.5,9.8,35.5,14.8v19
					c-12,4.9-23,9.8-35.3,14.7c0.9,11.2,3.9,21.8,6.9,32.6c13.2,1,26.7,0.3,40.3,0.1c2.4,5.8,5,11.5,7.7,17.7
					c-9.6,9.1-19.5,18-28.3,28.3c5.4,9.7,11.4,18.6,18.5,27.6c12.2-5.2,24.3-10.3,35.8-15.2c4.5,4.5,9.1,9,13.9,13.9
					c-4.8,11.3-9.9,23.4-15.2,35.8c8.9,7.1,17.8,13.1,27.6,18.5c10.2-8.7,19.2-18.5,28.3-28.3c6,2.4,10.9,4.9,17.9,7.3v39.9
					c8,3.4,21.2,5.2,32.7,6.5c5-12.3,9.7-25,14.7-37h18.9c4.9,12,8.3,24.3,13.4,36.9c11.4-1,23.4-3.1,31.4-6.3v-39.9
					c8-2.3,12.8-4.8,19.2-7.5c8.9,9.7,18.7,19.5,28.6,28.2c7.8-3.6,22.7-13.4,28-18.8c-5-11.8-9.9-23.8-14.8-35.3
					c4.5-4.5,9.2-9.1,14-14c11.1,4.8,23.3,9.9,35.7,15.2c7.2-8.9,13.1-17.8,18.6-27.6c-8.8-10-18.4-19.1-28.4-28.1
					c2-4.8,4-11.6,6-16.4c0.5-1.2,0.9-1.5,1.4-5.5h39.9c2.7-4,3.7-13.7,5.1-21.7c0.3-1.8,1.6-1.4,1.6-3.2v-3.9
					c0-0.3-2.2-0.4-3.3-0.8c-10.4-4.1-20-8.3-30.3-12.4c-1-0.4-2.4-0.9-2.4-1.4v-19C1751,1620.1,1752.2,1619.7,1753.1,1619.3z
					 M1682.8,1555.1c1.2-3,3.4-5.5,6.4-7.3c0.5-0.3,1.1-0.6,1.6-0.8c7-3,15.2-0.4,19.1,6.4c4.2,7.2,1.7,16.5-5.5,20.7
					c-2.9,1.7-6.2,2.3-9.3,1.9c-1.5-0.2-2.9-0.6-4.3-1.2c-2.9-1.2-5.4-3.4-7.1-6.3C1681.2,1564.2,1681,1559.3,1682.8,1555.1z
					 M1633.4,1503.1c4.2-7.3,13.5-9.7,20.7-5.5c0.9,0.5,1.8,1.2,2.5,1.8c5.3,4.7,6.7,12.6,3,18.9c-1.3,2.3-3.1,4.1-5.2,5.4
					c-0.8,0.4-1.5,0.8-2.3,1.1c-4.2,1.7-9,1.5-13.2-0.9c-4.1-2.4-6.7-6.5-7.4-10.9C1631,1509.7,1631.6,1506.2,1633.4,1503.1z
					 M1577.9,1477.1c8.4,0,15.2,6.8,15.2,15.2c0,8.4-6.8,15.2-15.2,15.2c-8.4,0-15.2-6.8-15.2-15.2
					C1562.7,1483.9,1569.5,1477.1,1577.9,1477.1z M1494.1,1509.1c0.1-0.5,0.1-1.1,0.2-1.6c0.2-1.1,0.6-2.1,1-3.1
					c0.2-0.4,0.4-0.8,0.6-1.3c0.1-0.1,0.2-0.3,0.3-0.4c0.2-0.4,0.5-0.8,0.7-1.1c0,0,0.1-0.1,0.1-0.1c0.3-0.4,0.6-0.7,0.9-1
					c0.4-0.5,0.8-0.9,1.3-1.3c0,0,0.1-0.1,0.1-0.1c0.7-0.6,1.5-1.1,2.3-1.6c3.8-2.2,8-2.6,11.9-1.4c3.6,1,7.3,3.4,9.3,6.9
					c1.8,3.2,2.2,6.8,2.2,10.2v0c0,4.3-3.7,8.1-7.8,10.5c-2.4,1.4-5.2,2-7.8,2c-0.5,0-1.1,0-1.6-0.1c-0.2,0-0.3,0-0.5,0
					c-0.4-0.1-0.9-0.1-1.3-0.2c-0.7-0.2-1.3-0.3-2-0.6c-1-0.4-2-0.8-2.9-1.4c-0.5-0.3-1-0.7-1.4-1c-0.4-0.3-0.8-0.7-1.2-1.1
					c0,0-1.8-0.1-1.8-0.1c-0.4-0.4-2.8-0.8-2.8-1.3v0c0-0.2,1.4-0.3,1.3-0.4c-0.3-0.4,0.2-0.9-0.1-1.4c-1.4-2.4-1.6-5-1.6-7.6
					C1493.6,1510.1,1494.1,1509.6,1494.1,1509.1z M1445.8,1553.3c4.2-7.3,13.5-9.7,20.7-5.5c3.2,1.8,5.5,4.7,6.7,8
					c1.5,4.1,1.2,8.7-1.1,12.7c-2.3,4-6.3,6.6-10.6,7.4c-3.3,0.6-6.9,0-10.1-1.8C1444.1,1569.8,1441.6,1560.6,1445.8,1553.3z
					 M1425.4,1629.6c0-3,0.8-5.8,2.3-8.1c2.7-4.3,7.4-7.1,12.8-7.1c3.6,0,7,1.3,9.6,3.4c3.4,2.8,5.6,7,5.6,11.8
					c0,4.8-2.2,9-5.7,11.8c-0.4,0.4-0.9,0.7-1.4,1c-2.4,1.5-5.1,2.3-8.1,2.3C1432.2,1644.7,1425.4,1637.9,1425.4,1629.6z
					 M1472.9,1704.1c-1.2,3-3.4,5.5-6.4,7.3c-7.2,4.2-16.5,1.7-20.7-5.5c-4.2-7.2-1.7-16.5,5.5-20.7c3-1.8,6.4-2.3,9.6-1.9
					c4.5,0.6,8.7,3.2,11.1,7.4C1474.5,1694.9,1474.7,1699.9,1472.9,1704.1z M1522.3,1756c-4.2,7.3-13.4,9.7-20.7,5.5
					c-7.2-4.2-9.7-13.4-5.5-20.7c1.7-2.9,4.2-5,7-6.3c4.3-1.9,9.3-1.8,13.7,0.7c4.4,2.5,7,6.9,7.5,11.6
					C1524.6,1750,1524,1753.2,1522.3,1756z M1585.9,1779.7c-2.3,1.5-5.1,2.3-8.1,2.3c-8.4,0-15.2-6.8-15.2-15.2c0-3,0.8-5.8,2.3-8.1
					c0.1-0.2,0.3-0.4,0.4-0.6c2.7-3.9,7.3-6.4,12.4-6.4c5.2,0,9.7,2.6,12.4,6.5c1.7,2.4,2.7,5.4,2.7,8.6
					C1593,1772.2,1590.2,1777,1585.9,1779.7z M1654.1,1761.6c-7.2,4.2-16.5,1.7-20.7-5.5c-1.6-2.8-2.2-5.8-2-8.7
					c0.3-4.8,3-9.3,7.5-11.9c4.5-2.6,9.8-4.4,14.2-0.4h0c2.7,0,4.9,3.3,6.5,6C1663.8,1748.2,1661.3,1757.4,1654.1,1761.6z
					 M1679.9,1682c-0.1,0.1-0.1,0.2-0.1,0.2c-1.5,2.9-3.1,5.6-4.7,8.3c-0.1,0.1-0.1,0.2-0.2,0.3c-0.9,1.4-1.8,2.8-2.8,4.2
					c-1,1.5-2.1,3-3.2,4.4c-0.9,1.2-1.8,2.4-2.8,3.6c-1.1,1.3-2.1,2.5-3.3,3.8c-0.9,1-1.8,1.9-2.7,2.9c-1.3,1.3-2.5,2.6-3.8,3.8
					c-0.3,0.3-0.6,0.6-0.9,0.8c-1.4,1.3-2.8,2.6-4.3,3.8c-0.9,0.8-1.9,1.6-2.9,2.4c-0.7,0.6-1.5,1.2-2.3,1.7c-0.6,0.5-1.3,1-1.9,1.4
					c-2.3,1.6-4.7,3.2-7.1,4.6c-0.7,0.4-1.4,0.8-2.1,1.3c-2.2,1.3-4.5,2.5-6.8,3.6c-0.5,0.3-1.1,0.6-1.7,0.8c-1.1,0.5-2.2,1-3.4,1.5
					c-0.5,0.2-1.1,0.5-1.6,0.7c0,0-0.1,0.1-0.1,0.1c-1.2,0.5-2.5,1-3.7,1.4c-1.3,0.5-2.6,0.9-3.9,1.3c0,0-0.1,0-0.1,0
					c-0.8,0.3-1.5,0.5-2.3,0.7c-0.7,0.2-1.3,0.4-2,0.6c-0.7,0.2-1.4,0.4-2.1,0.6c-1.2,0.3-2.3,0.6-3.5,0.8c-0.7,0.2-1.3,0.3-2,0.4
					c-0.2,0.1-0.3,0.1-0.4,0.1c-1.2,0.3-2.4,0.5-3.7,0.7c-1.7,0.3-3.4,0.6-5.2,0.8c-1.6,0.2-3.2,0.4-4.9,0.5
					c-0.4,0.1-0.9,0.1-1.3,0.1c-1.5,0.1-2.9,0.2-4.4,0.3c-1.2,0-2.4,0.1-3.7,0.1c-1.3,0-2.5,0-3.7-0.1c-0.4,0-0.7,0-1,0
					c-1.2-0.1-2.3-0.1-3.4-0.2c-1.4-0.1-2.7-0.2-4-0.3c-1.3-0.1-2.7-0.3-4-0.5c-2.6-0.3-5.3-0.8-7.8-1.4c-2.6-0.5-5.1-1.2-7.6-1.8
					c-37.9-10.8-67.7-40.6-78.6-78.6c-0.6-1.9-1.1-3.9-1.5-5.9c-0.1-0.4-0.2-0.8-0.3-1.3c-0.2-1.1-0.4-2.1-0.6-3.2
					c-0.8-4.1-1.3-8.3-1.7-12.6c-0.1-0.8-0.1-1.7-0.2-2.6c-0.1-1-0.1-1.9-0.1-2.9c-0.1-2.1-0.1-4.2,0-6.3c0-0.8,0-1.6,0.1-2.4
					c0.2-3.5,0.5-7,1-10.4c0.1-0.8,0.2-1.5,0.3-2.2c0.3-1.6,0.5-3.2,0.9-4.8c0.1-0.7,0.3-1.4,0.5-2.2c0.1-0.4,0.2-0.8,0.3-1.2
					c0.2-0.8,0.4-1.7,0.6-2.5c2.8-11,7.3-21.4,13.1-30.8c0.4-0.6,0.8-1.3,1.1-1.8c1-1.5,2-3.1,3.1-4.6c0.5-0.7,1-1.4,1.5-2.1
					c1.6-2.1,3.2-4.2,5-6.2c1.1-1.3,2.3-2.6,3.5-3.9c0.4-0.5,0.8-0.9,1.3-1.3l0.2-0.2c0.6-0.6,1.2-1.3,1.8-1.8
					c2.4-2.4,4.9-4.7,7.6-6.8c0.7-0.6,1.3-1.1,2-1.6c0.7-0.5,1.3-1.1,2-1.6c0.7-0.5,1.4-1,2.1-1.5c0.7-0.5,1.4-1,2.1-1.5
					c0.7-0.5,1.4-1,2.1-1.4c0.7-0.4,1.3-0.8,2-1.3c2.3-1.3,4.5-2.7,6.9-3.9c0.2-0.1,0.3-0.2,0.5-0.3c0.6-0.3,1.2-0.6,1.8-0.9
					c1-0.5,2-1,3.1-1.5c0.5-0.2,1.1-0.5,1.6-0.7c2.4-1,4.8-2,7.3-2.9c1.6-0.6,3.3-1.1,4.9-1.6c0.8-0.3,1.7-0.5,2.5-0.8
					c1.6-0.4,3.2-0.9,4.8-1.2c1-0.2,2-0.4,3-0.7c0.9-0.2,1.8-0.4,2.6-0.5c0.9-0.2,1.8-0.3,2.7-0.4c0.9-0.2,1.8-0.3,2.7-0.4
					c0.9-0.2,1.8-0.3,2.7-0.3c3.4-0.4,6.9-0.6,10.4-0.7c10.8-0.3,21.2,1,31.2,3.5c6.7,1.7,13.2,4,19.3,6.9c9,4.1,17.4,9.5,25,15.7
					c0.7,0.5,1.3,1.1,1.9,1.6c3.1,2.7,6,5.5,8.8,8.5c0.3,0.2,0.5,0.5,0.7,0.7c17,18.5,28,42.7,29.9,69.8c0.1,1.1,0.2,2.2,0.2,3.4
					c0.2,5.9,0,11.7-0.6,17.4c-0.2,1.4-0.3,2.8-0.6,4.2c-0.1,0.5-0.2,1.1-0.3,1.6c-0.5,2.8-1,5.5-1.7,8.2c-0.2,0.7-0.3,1.3-0.5,2
					c-0.3,1.1-0.6,2.2-0.9,3.3c-0.1,0.5-0.3,1-0.4,1.4c-0.8,2.7-1.8,5.4-2.8,8.1c-0.2,0.6-0.4,1.1-0.7,1.6c-0.7,1.7-1.4,3.4-2.2,5
					C1681,1679.8,1680.4,1680.9,1679.9,1682z M1709.9,1705.8c-4.2,7.3-13.5,9.7-20.7,5.5c-2.8-1.6-4.9-3.9-6.1-6.6
					c-2-4.4-2-9.6,0.6-14.1c2.6-4.5,7.1-7.1,11.9-7.5c3-0.3,6,0.4,8.8,2C1711.6,1689.3,1714,1698.5,1709.9,1705.8z M1727.7,1638.1
					c-2.8,4-7.4,6.6-12.6,6.6c-1.9,0-3.8-0.4-5.5-1.1c-1.2-0.4-2.2-1-3.2-1.8c-3.8-2.7-6.4-7.2-6.4-12.3c0-5.1,2.5-9.6,6.3-12.3
					c2.5-1.8,5.6-2.8,8.9-2.8c8.4,0,15.2,6.8,15.2,15.2C1730.3,1632.7,1729.3,1635.7,1727.7,1638.1z"/>
			</g>
		</g>
	</g>
	<path class="st3" d="M208.4,1532.5c0,0,23.8-149.7,184.5-144.1"/>
	<path class="st3" d="M955.1,1273.4c0,0,44.7-144.9,203-116.7"/>
	<path class="st3" d="M632.2,1308.8c0,0,40.8-142.8,196.7-136.8"/>
</g>
</svg>
