<?xml version="1.0" encoding="utf-8"?>
<!-- Generator: Adobe Illustrator 16.0.0, SVG Export Plug-In . SVG Version: 6.00 Build 0)  -->
<!DOCTYPE svg PUBLIC "-//W3C//DTD SVG 1.1//EN" "http://www.w3.org/Graphics/SVG/1.1/DTD/svg11.dtd">
<svg version="1.1" id="Layer_1" xmlns="http://www.w3.org/2000/svg" xmlns:xlink="http://www.w3.org/1999/xlink" x="0px" y="0px"
	 width="2000px" height="2000px" viewBox="0 0 2000 2000" style="enable-background:new 0 0 2000 2000;" xml:space="preserve">
<style type="text/css">
<![CDATA[
	.st0{fill:#E55957;}
	.st1{fill:#EBF2FC;}
	.st2{fill:#263238;}
	.st3{fill:#F5D4B2;}
	.st4{fill:#5B6375;}
	.st5{fill:#F76161;}
	.st6{fill:#2F383E;}
	.st7{fill:#FFFFFF;}
	.st8{fill-rule:evenodd;clip-rule:evenodd;fill:#263238;}
	.st9{fill:#CED5E0;}
	.st10{fill:#DFC2A9;}
]]>
</style>
<rect x="732.2" y="637.8" class="st6" width="467.4" height="174.3"/>
<ellipse class="st3" cx="962.7" cy="411.4" rx="251.4" ry="302.2"/>
<path class="st10" d="M711.1,410.6c0,166.9,112.6,302.2,251.4,302.2V108.4C823.6,108.4,711.1,243.7,711.1,410.6z"/>
<path class="st2" d="M1299.9,875.7c0,0-51.7-124.6-56.4-204.9c0,0,7.4-269.3,8.6-335.5c0,0-0.8-100.7-61.4-173.3
	c0,0-36.4-50.9-91.7-48.6c0,0-35.6-55-101.5-61.5c0,0-11.4-1.3-32.3-1.3c-20.9,0-32.3,1.3-32.3,1.3c-65.9,6.4-109.7,34.7-109.7,34.7
	C770.2,116,736,159.3,736,159.3c-60.6,72.6-57.6,176-57.6,176c1.2,66.2,8.6,335.5,8.6,335.5c-4.6,80.3-56.4,204.9-56.4,204.9
	l-42.4,253.5c58.3,49.8,212.9,4.1,212.9,4.1c60.4-16.4,76.1-33.6,76.1-33.6c-31.8-99,2.8-279.2,2.8-279.2
	c-10.2-112.6-68.3-167.6-68.3-167.6C770.9,613.7,759,480.8,759,480.8c-10.6-127.9,33.2-177.3,33.2-177.3
	c62,19.1,120,22.7,173.1,21.1c53.1,1.6,113-2.6,175-21.7c0,0,41.9,50,31.3,177.9c0,0-9.6,125.8-50.3,165.1c0,0,12.3-16.5,2.1,96.1
	c0,0-38.2,258.8-70,357.8c0,0,16.8,16.2,76.1,33.6c0,0,154.6,45.7,212.9-4.1L1299.9,875.7z"/>
<path class="st3" d="M1129.7,798.2l-41.1,221.1H839.4l-41.1-221.1c43.5-6.8,73.5-8.1,73.5-8.1l9.5-92.7c0,0,37,15.9,82.3,15.4
	c45.7-0.5,82-16.1,82-16.1l12.3,93.6C1057.9,790.3,1087.1,791.5,1129.7,798.2z"/>
<rect x="752" y="984.8" class="st7" width="431.2" height="709.9"/>
<path class="st9" d="M1253.1,443h-7c-13.3,0-24.1-10.9-24.1-24.1v-74.6c0-13.3,10.9-24.1,24.1-24.1h7c13.3,0,24.1,10.9,24.1,24.1
	v74.6C1277.2,432.1,1266.4,443,1253.1,443z"/>
<path class="st9" d="M1274.7,361.8c0,0,51.7,56.4,9.1,148c0,0-57.6,115.8-257.3,122.3v-19.6c0,0,295.5-5.3,246.3-216.2L1274.7,361.8
	z"/>
<path class="st9" d="M1026,647.1h-94.9c-14.4,0-26.1-11.7-26.1-26.1l0,0c0-14.4,11.7-26.1,26.1-26.1h94.9
	c14.4,0,26.1,11.7,26.1,26.1l0,0C1052.1,635.3,1040.4,647.1,1026,647.1z"/>
<path class="st5" d="M1458.9,1208.8c0,0-10.1,173.1-31.5,240c0,0-42.2,188.3-250.4,257c-46.5,15.3-101.2,24.7-165.6,24.7l-47.9,0.1
	l-47.7-0.1c-66.3,0.9-122.5-8.7-169.9-24.8c-202.8-68.8-246-256.9-246-256.9c-21.5-67-31.6-240-31.6-240c-4.1-49.4-3.1-91.8,1-127.9
	C485.5,939,550.7,893,550.7,893c45.6-37,104.8-60.8,160-76.1c0.2,0,0.4-0.1,0.7-0.2c0.1-0.1,0.2-0.1,0.3-0.1
	c0.4-0.1,0.8-0.2,1.3-0.4c30.5-8.3,59.7-16.2,84.5-20.1c0.2,0,0.5-2.2,0.7-2.2h0.1l0.1,2.4l41.1,223.6h-0.1l116,624l8.6,42.6l8.6-43
	l116-624.1l41.1-221.1l0.1,0c25.2,3.9,55.2,9.8,86.6,18.5c0.1,0,0.2,0,0.3,0.1c54.8,15.2,113.9,39,159.6,76.1
	c0,0,60.7,43.5,78.7,188.7C1459.3,1117.6,1461.2,1159.6,1458.9,1208.8z"/>
<polygon class="st0" points="964,1686.3 942,1643.7 706.9,1175.9 829.5,1072.4 751.1,1033.2 748.3,1019.3 710.8,816.9 710.7,816.7 
	710.7,816.7 711.4,816.6 713,816.3 797.5,798.3 798.5,798.2 799.1,798.2 799.1,798.2 839.8,1019.3 955.6,1643.6 "/>
<polygon class="st0" points="1221.1,1175.9 986.3,1643.2 964,1686.3 972.6,1643.4 1088.6,1019.3 1129.7,798.2 1129.8,798.2 
	1216,816.8 1216,816.8 1179.1,1019.3 1176.7,1033.2 1098.5,1072.4 "/>
<path class="st0" d="M752,1702.7l-6.2,3c-202.8-68.8-246-256.9-246-256.9c-21.5-67-31.6-240-31.6-240c-4.1-49.4-3.1-91.8,1-127.9
	C469.2,1080.9,635.4,1295.9,752,1702.7z"/>
<path class="st0" d="M1458.9,1208.8c0,0-10.1,173.1-31.5,240c0,0-42.2,188.3-250.4,257l-6.4-3.1
	c116.6-406.8,282.8-621.8,282.8-621.8s0.6,0.3,1.6,0.8C1459.3,1117.6,1461.2,1159.6,1458.9,1208.8z"/>
<g>
	<g>
		<g>
			<path class="st8" d="M1423.1,551.3l2.5,1.8c0.5,0.3,0.9,0.8,1.2,1.2l3.3,4.7c0.2,0.3,0.4,0.6,0.5,0.9l3.8,8.6
				c0.1,0.2,0.2,0.4,0.2,0.6l4.1,13.2l3.5,12.8c0.1,0.2,0.1,0.4,0.1,0.6l1.3,8.7c0.1,0.6,0.1,1.1,0,1.7l-0.7,4.2
				c-0.1,0.8-0.5,1.6-1,2.3l0,0c-0.7,0.9-1.7,1.6-2.8,1.9l-6.4,1.6c-0.1,0-0.2,0.1-0.3,0.1l-8.6,1.6c-1.4,0.3-2.6,1.1-3.4,2.2
				l-2.8,4.2c-0.4,0.6-0.7,1.3-0.8,2l-1.8,10.5c-0.1,0.5-0.1,1.1,0,1.6l2.3,16.7c0,0.1,0,0.3,0.1,0.4l4.9,22.6
				c0,0.2,0.1,0.4,0.2,0.6l7.1,20.8c0.1,0.2,0.2,0.5,0.3,0.7l7.1,13.9c0.3,0.5,0.6,1,1,1.4l5.6,5.5c0.8,0.8,1.9,1.3,3,1.5l4.9,0.6
				c0.9,0.1,1.8,0,2.6-0.3l8.4-3.4c0.3-0.1,0.6-0.2,0.8-0.3l0.8-0.2c1.6-0.3,3.2,0,4.5,1.1l1.8,1.4c0.3,0.3,0.6,0.6,0.9,0.9l4.6,6.2
				c0.2,0.3,0.4,0.7,0.6,1l5,11.6c0,0.1,0.1,0.2,0.1,0.3l4.3,12.4c0.1,0.2,0.1,0.4,0.2,0.6l2.1,9.4c0.1,0.3,0.1,0.6,0.1,0.8l0.3,4.7
				c0.1,1.1-0.2,2.2-0.8,3.2l-0.8,1.3c-0.7,1.1-1.9,2-3.2,2.3l-11.2,2.6c-0.4,0.1-0.8,0.1-1.2,0.1l-15.5,0.3c-0.6,0-4.3-0.1-7.3-0.8
				l-4.3-1.4c-1.2-0.3-2.3-0.8-3.3-1.5c-0.9-0.5-2-1.1-4.4-3.2c-0.1-0.1-0.2-0.2-0.3-0.3l-7-7.1c-0.3-0.3-1.9-2.3-2.2-2.7l-12-18.6
				c-0.1-0.2-0.3-0.4-0.4-0.7l-12-27.1c-0.1-0.2-0.1-0.3-0.2-0.5l-9.9-29.7c-0.1-0.2-0.1-0.3-0.1-0.5l-6.1-27.3
				c0-0.1-0.1-0.3-0.1-0.4l-3.4-24.1c0-0.3-0.1-0.6-0.1-0.8l0.4-21.6c0-0.3,0-0.5,0.1-0.8l3-17.9c0-0.2,0.1-0.3,0.1-0.5l3.8-14.1
				c0.1-0.4,0.2-0.7,0.4-1l5-9.8c0.2-0.4,0.5-0.9,0.9-1.2l5-5.3c0.4-0.4,0.8-0.7,1.3-1l10.5-5.8c0.5-0.2,0.9-0.4,1.5-0.5
				L1423.1,551.3L1423.1,551.3z"/>
			<path class="st8" d="M1439.2,545l3,1.3c0.3,0.1,0.6,0.3,0.8,0.6l3.4,3.5c0.2,0.3,0.4,0.6,0.6,0.9l2.5,6.5l3.6,9.1l3.5,8.8
				c0.1,0.1,0.1,0.3,0.1,0.5l1.8,8.9l1.7,9.9l1.1,8.4c0,0.3,0,0.6,0,0.8l-1,5.3c-0.2,0.8-0.7,1.5-1.4,1.8l-3.6,1.9
				c-0.4,0.2-0.8,0.3-1.2,0.3l-3.4,0c-1,0-1.9-0.6-2.3-1.5l0,0c-0.2-0.4-0.3-0.8-0.3-1.2l0.1-3.3c0-0.1,0-0.3,0-0.4l-0.6-5.9l-1-7
				c0-0.1,0-0.2,0-0.2l-1.8-7.3l-1.8-7.4c0,0,0-0.1,0-0.1l-2-6.5c0-0.1-0.1-0.2-0.1-0.2l-2.4-5.8c0-0.1-0.1-0.1-0.1-0.2l-2.6-5.2
				c0-0.1-0.1-0.2-0.1-0.2l-1.7-4.5c-0.1-0.3-0.3-0.5-0.5-0.8l-2.8-3.2c-0.2-0.2-0.3-0.5-0.4-0.7l-0.4-1.1c-0.4-0.9-0.2-2,0.5-2.7
				l0.1-0.1c0.3-0.3,0.6-0.5,1-0.7l3.2-1.3c0.2-0.1,0.4-0.1,0.6-0.2L1439.2,545L1439.2,545z"/>
			<path class="st8" d="M1506.9,767.3l1-4.2c0-0.1,0.1-0.3,0.1-0.4l0.3-4.3c0-0.2,0-0.5,0-0.7l-1.2-5.9c0-0.1,0-0.2-0.1-0.3
				l-2.1-6.5l-2.8-8.7c0-0.1-0.1-0.2-0.1-0.3l-3.8-8c0-0.1-0.1-0.1-0.1-0.2l-5-8.7c-0.1-0.2-0.2-0.3-0.3-0.5l-5.7-6.3
				c-0.2-0.2-0.4-0.4-0.6-0.5l-4.8-2.7c-0.6-0.3-1.3-0.4-2-0.2l-4,1.2c-0.4,0.1-0.7,0.3-1,0.5l-2.1,1.9c-0.8,0.7-1.1,1.9-0.7,2.9
				l0.4,0.9c0.1,0.2,0.2,0.4,0.3,0.6l2.4,3.3l3.7,4.8c0.1,0.1,0.1,0.2,0.2,0.2l3.1,5.2c0.1,0.1,0.1,0.3,0.2,0.4l2.3,6l2.4,6l2.3,5.8
				c0,0.1,0.1,0.1,0.1,0.2l2,6.6c0,0.1,0,0.2,0.1,0.3l1,5.2l0.9,5.1c0,0.2,0.1,0.5,0,0.7l-0.4,4.1c0,0.2,0,0.5,0,0.7l0,0.1
				c0.2,1.3,1.4,2.2,2.7,2.1l2.3-0.1c0.4,0,0.7-0.1,1-0.3l4.4-2.2c0.3-0.1,0.6-0.4,0.8-0.6L1506.9,767.3L1506.9,767.3L1506.9,767.3z
				"/>
		</g>
		<g>
			<path class="st2" d="M1873.5,606.9c-1.4-15-4.4-29.9-8.7-44.4c-4.3-14.3-10-28.3-16.9-41.6c-6.9-13.3-15.2-25.9-24.5-37.6
				c-9.4-11.8-20-22.7-31.5-32.5c-23.9-20.3-51.3-35.4-81.4-44.8c-30.1-9.5-61.2-12.7-92.4-9.7c-15,1.4-29.9,4.4-44.4,8.7
				c-14.3,4.3-28.3,10-41.6,16.9c-13.3,6.9-25.9,15.2-37.6,24.5c-11.8,9.4-22.7,20-32.5,31.5c-9.8,11.6-18.4,24-25.8,37.1l4.1,5.9
				c0.3,0.4,0.5,0.7,0.6,1.1l2.7,6.1c48.3-94,158.6-142.5,262.9-109.7c116.5,36.6,181.3,160.7,144.7,277.2
				c-36.6,116.5-160.7,181.3-277.2,144.7c-24.5-7.7-46.8-19.3-66.3-33.9l-11.8,2.8c-0.5,0.1-1,0.2-1.6,0.2l-3.5,0.1
				c23.4,19.4,50,33.9,79.3,43.1c30.1,9.5,61.2,12.7,92.4,9.7c15-1.4,29.9-4.4,44.4-8.7c14.3-4.3,28.3-10,41.6-16.9
				c13.3-6.9,25.9-15.2,37.6-24.5c11.8-9.4,22.7-20,32.5-31.5c20.3-23.9,35.4-51.3,44.8-81.4
				C1873.2,669.2,1876.5,638.1,1873.5,606.9z"/>
		</g>
		<g>
			<path class="st2" d="M1511.1,708.6v-26l23.7-21.5c40.1-35.9,59.6-56.5,60.1-77.9c0-15-9-26.8-30.2-26.8
				c-15.8,0-29.6,7.9-39.2,15.2l-12.1-30.8c13.8-10.4,35.3-18.9,60.1-18.9c41.5,0,64.4,24.3,64.4,57.6c0,30.8-22.3,55.3-48.8,79.1
				l-16.9,14.1v0.6h69.2v35.3H1511.1z"/>
			<path class="st2" d="M1743.7,708.6v-43.8h-81.3v-28l69.5-111.8h52.5v107.6h22v32.2h-22v43.8H1743.7z M1743.7,632.7V592
				c0-11,0.6-22.3,1.4-34.2h-1.1c-5.9,11.9-10.7,22.6-16.9,34.2l-24.6,40.1v0.6H1743.7z"/>
		</g>
		<path class="st2" d="M1641.1,421.1c22.2-4.4,44.4-8.8,66.6-13.3c-22-5.3-44-10.6-66-15.9l-62.9-26.5l-1.3,0.6l19.7,34.1l3.2,5.5
			l-3.4,5.3l-21.1,33.1l1.3,0.9L1641.1,421.1z"/>
		<path class="st2" d="M1731.1,818.1c-16.9,12.6-33.7,25.1-50.5,37.7c20.6-4.3,41.1-8.7,61.7-13l63.3-2.9l0.9-1.1l-30.2-20.8
			l-4.8-3.3l0.7-5.8l4.4-36.1l-1.5-0.2L1731.1,818.1z"/>
	</g>
</g>
<g>
	<path class="st9" d="M467,1326c-1.9,0.1-3.8,1.1-6.2,2.6c-24.2,15.7-48.2,32.1-73.3,46.1c-50.5,28.2-103.6,49.8-159.9,61.9
		c-4,0.9-6.8,2-7,7.7c-1.2,46.3,1.4,91.9,10.9,137.2c4.2,20.1,9.5,39.9,15.9,58.3H465L467,1326z"/>
	<path class="st9" d="M463.2,1922.1c74.2-49.6,133.2-113.9,177.7-192.3c16.5-29.1,29.8-58.4,40.2-89.9H465L463.2,1922.1z"/>
	<path class="st2" d="M708.4,1443.7c-0.2-6.1-2.6-7.9-7.6-9c-82.9-18.8-158.2-55.5-227.6-106c-2.4-1.8-4.3-2.5-6.3-2.4l-2,314.1
		h216.1C702.2,1577.9,710.9,1512.2,708.4,1443.7z"/>
	<path class="st2" d="M247.5,1640.4c21.5,64.7,55,123,98.9,175.8c34,40.8,72.4,76.4,116.9,106.1l1.8-281.9H247.5z"/>
</g>
<g>
	<path class="st1" d="M195.2,121.3h201.7c100.6,0,185.6,83.4,185.6,183.9v12.2c0,100.6-85,182.2-185.6,182.2h-65.3l40.9,108.3
		l-156-108.3h-21.4C94.7,499.7,12.4,418,12.4,317.5v-12.2C12.4,204.7,94.7,121.3,195.2,121.3z"/>
	<circle class="st2" cx="161.2" cy="320.6" r="36"/>
	<circle class="st2" cx="296.3" cy="320.6" r="36"/>
	<path class="st2" d="M467.3,320.6c0,19.9-16.1,36-36,36c-19.9,0-36-16.1-36-36c0-19.9,16.1-36,36-36
		C451.2,284.6,467.3,300.7,467.3,320.6z"/>
</g>
<path class="st9" d="M581.3,321c-1.7,97.2-84.9,178.7-184.3,178.7h-65.3L372.6,608l-156-108.3h-21.4c-99.5,0-182.2-81.4-183.9-178.7
	H581.3z"/>
<path class="st2" d="M197.2,321c0,18.4-16.1,36-36,36c-19.9,0-36-17.6-36-36H197.2z"/>
<path class="st2" d="M332.3,321c0,18.4-16.1,36-36,36c-19.9,0-36-17.6-36-36H332.3z"/>
<path class="st2" d="M467.3,321c0,18.4-16.1,36-36,36c-19.9,0-36-17.6-36-36H467.3z"/>
<path class="st2" d="M1184.3,1725.5c6.3-11.5,19.6-17.2,29.8-12.6l46.3,20.8c10.2,4.6,13.4,17.6,7.2,29.2l-45.1,83.2
	c39.5-1.5,81.7-22.8,112.4-60.6c7.3-9,13.6-18.4,18.7-28.1c0.1-0.1,0.1-0.2,0.2-0.3c3.7-5.9,6.3-12.1,8.2-18.2
	c2-6.3,2.8-12.7,2.9-18.9l0,0c-0.2-4.3-0.1-8-0.8-11.9c-0.7-11-1.6-27-1.2-36.8c0.7-16.1,8.4-38.7,8.4-38.7l89.4-110l0.2,0.2
	l88.4-108.4c0,0,22-24.2,47.3-29.3c25.2-5.1,45.5-7.3,45.5-7.3l0,0c12.5-1.2,25.2-6.5,36.1-15.3c6.5-5.3,12.1-11.5,16.8-19
	c0,0,0,0,0,0c41.3-53.8,46-122.1,13.6-164.5l-45.3,83.2c-6.3,11.5-19.6,17.1-29.8,12.5l-46.3-20.8c-10.2-4.6-13.4-17.7-7.1-29.2
	l45.2-83.1c-39.5,1.5-81.7,22.6-112.5,60.4c-7.3,9-13.6,18.4-18.8,28c-0.1,0.1-0.1,0.2-0.2,0.3c-3.7,5.9-6.3,12-8.2,18.2
	c-2,6.3-2.8,12.7-3,18.9l0,0c0.2,4.3,0.1,8,0.7,11.9c0.7,11,1.6,27,1.1,36.8c-0.7,16.1-8.5,38.7-8.5,38.7l-89.7,110l-0.2-0.2
	l-88.2,108.5c0,0-22,24.2-47.2,29.4c-25.2,5.2-45.5,7.4-45.5,7.4l0,0c-12.5,1.2-25.2,6.6-36,15.4c-6.5,5.3-12.1,11.5-16.8,19
	c0,0,0,0,0,0c-41.2,53.9-45.8,122.2-13.4,164.5L1184.3,1725.5z"/>
<path class="st2" d="M1951.3,1085.4l-6,5.5l-49.8,46.3c-14.5,13.4-18.7,31.1-14.6,46l-223.2,261.7l30.7,26.3l223.4-262
	c15.4,1.5,32.6-5.5,43.5-21.3l36.3-57.6l4.3-6.9L1951.3,1085.4z"/>
<path class="st0" d="M1661.8,1439.9l-20.1-17.2c-4.7-4-12.3-3.4-17.3,2.5l-2.3,2.7c-0.3,0.3-0.4,0.8-0.7,1.1
	c-0.1,0.1-0.1,0.3-0.2,0.4c-0.2,0.2-0.3,0.5-0.4,0.7c-0.1,0.2-0.2,0.3-0.3,0.5c-0.1,0.2-0.2,0.4-0.3,0.6c-0.1,0.2-0.2,0.4-0.3,0.5
	c0,0,0,0.1,0,0.1c-0.3,0.6-0.5,1.1-0.7,1.7c0,0.1,0,0.1-0.1,0.2c-0.1,0.3-0.2,0.6-0.3,0.9l0,0c0,0,0,0.1,0,0.1
	c0,0.1-0.1,0.3-0.1,0.4l-0.3,0.3c0,0.1-0.4,0.6-0.3,0.6l-2.8-2.4c-2.7-2.3-6.9-2.2-9.7,1.1l-186.3,218.8
	c-22.2,26-24.1,63.1-3.3,80.8l24.4,20.8c20.8,17.8,56.9,9.8,79.1-16.2l186.3-218.8c2.8-3.3,2.4-7.3-0.3-9.6l-4-3.4l0,0
	c0.1,0.1,0.7-0.5,0.9-0.6c0.1,0,0.3-0.2,0.4-0.3c0.2-0.1,0.5-0.3,0.8-0.4c0.1-0.1,0.3-0.2,0.4-0.2c0.3-0.2,0.6-0.3,0.9-0.5
	c0.2-0.1,0.5-0.3,0.7-0.5c0.1-0.1,0.3-0.2,0.4-0.3c0.2-0.1,0.4-0.3,0.6-0.5c0.1-0.1,0.3-0.2,0.4-0.3c0.2-0.2,0.4-0.4,0.6-0.6
	c0.1-0.1,0-0.4,0.1-0.5c0.3-0.3,0.4-0.8,0.7-1.1l2.3-2.7c4.7-5.5,5.1-12,1.2-16.1l-12-10.3l-7.3-6.2l0,0l-30.7-26.3L1661.8,1439.9z"
	/>
<path class="st4" d="M1450.9,1694c-5.6,6.6-14.5,8.2-19.8,3.7c-5.3-4.5-5.1-13.6,0.5-20.1l169.8-199.4c5.6-6.6,14.5-8.1,19.8-3.7
	c5.3,4.5,5.1,13.6-0.5,20.1L1450.9,1694z"/>
<path class="st4" d="M1494.3,1731c-5.6,6.6-14.2,8.4-19.5,3.9c-5.3-4.5-4.8-13.3,0.8-19.9l169.8-199.4c5.6-6.6,14.2-8.4,19.5-3.9
	c5.3,4.5,4.8,13.3-0.8,19.9L1494.3,1731z"/>
<path class="st2" d="M427,914.8h-19.3c-2.6-7.9-6.9-20-12.6-29.2l0.1,0.3l13.6-13.4c3-3,3-7.8,0-10.9L385.1,838c-3-3-7.9-3-11,0
	l-13.7,13.6c-9.5-5.8-19.7-9.8-30.2-12.3v-0.1V820c0-4.3-3.3-7.7-7.6-7.7h-33.5c-4.3,0-8.8,3.4-8.8,7.7v19.3
	c-7.9,2.6-20.3,6.9-29.5,12.6l0.2-0.1l-13.5-13.6c-3-3-7.9-3-10.9,0L203,861.9c-3,3-3,7.9,0,11l13.6,12.7
	c-5.8,9.5-9.8,21.3-12.3,29.2h-0.1H185c-4.3,0-7.1,5.3-7.1,9.6v33.5c0,4.3,2.8,6.8,7.1,6.8h19.3c2.6,10.5,6.9,21.3,12.6,30.5
	l-0.1,0.3l-13.6,13.7c-3,3-3,8,0,11l23.7,23.7c3,3,7.9,3,11,0l13-13.6c9.5,5.8,21.6,9.9,29.5,12.3v0.1v19.3c0,4.3,4.7,7.8,9,7.8
	h33.5c4.3,0,7.4-3.5,7.4-7.8v-19.3c10.5-2.6,21-6.9,30.2-12.6l0.1,0.1l13.7,13.6c3,3,8,3,11,0l23.7-23.7c3-3,3-7.9,0-11l-13.6-14
	c5.8-9.5,9.9-20,12.3-30.5h0.1H427c4.3,0,8.4-2.7,8.4-7v-33.5C435.4,919.9,431.3,914.8,427,914.8z M286.6,985.4
	c-0.5-0.2-0.9-0.4-1.4-0.6c-1.4-0.7-2.8-1.4-4.1-2.2c-0.7-0.4-1.3-0.8-2-1.3s-1.3-0.9-1.9-1.3c-0.3-0.2-0.6-0.5-0.9-0.7
	c-1.8-1.4-3.4-2.9-5-4.5c-1.6-1.6-3-3.3-4.3-5.1c-0.5-0.7-1-1.5-1.5-2.2c-1.5-2.3-2.7-4.6-3.8-7.1c-2.5-5.8-3.9-12.2-3.9-19
	c0-14.2,6.1-26.9,15.8-35.7c0.9-0.8,1.7-1.5,2.7-2.2c0.3-0.2,0.6-0.5,0.9-0.7c0.6-0.5,1.3-0.9,1.9-1.3c1.9-1.3,4-2.5,6.1-3.5
	c0.7-0.3,1.4-0.7,2.1-1c5.8-2.4,12.1-3.8,18.8-3.8c7.9,0,15.4,1.9,22,5.3c0.7,0.4,1.4,0.7,2.1,1.1c1,0.6,2,1.2,3,1.8
	c0.6,0.4,1.3,0.9,1.9,1.3c0.3,0.2,0.6,0.5,0.9,0.7c0.6,0.5,1.2,1,1.8,1.5c0.9,0.8,1.7,1.5,2.5,2.4c0.5,0.5,1.1,1.1,1.6,1.7
	c1.3,1.4,2.5,2.9,3.6,4.5c0.5,0.6,0.9,1.3,1.3,1.9c0.4,0.7,0.8,1.3,1.2,2c0.6,1,1.1,2,1.6,3.1c3.1,6.3,4.8,13.4,4.8,20.9
	c0,4.2-0.5,8.2-1.5,12.1c-0.2,0.8-0.4,1.5-0.6,2.3c-0.4,1.1-0.7,2.2-1.2,3.3c-0.3,0.7-0.6,1.5-0.9,2.2c-0.2,0.5-0.4,0.9-0.7,1.4
	c-0.5,0.9-0.9,1.9-1.5,2.8c-0.4,0.7-0.8,1.3-1.2,2c-0.3,0.5-0.7,1-1,1.5c-0.3,0.4-0.6,0.9-1,1.3c-0.2,0.3-0.5,0.6-0.7,0.9
	c-0.5,0.6-1,1.2-1.5,1.8c-0.3,0.3-0.5,0.6-0.8,0.9c-0.5,0.6-1.1,1.1-1.6,1.7c-0.3,0.3-0.5,0.5-0.8,0.8c-1.1,1.1-2.3,2.1-3.5,3
	c-0.3,0.2-0.6,0.5-0.9,0.7c-0.6,0.5-1.2,0.9-1.9,1.3c-0.6,0.4-1.3,0.9-2,1.3c-0.3,0.2-0.7,0.4-1,0.6c-0.7,0.4-1.4,0.8-2.1,1.1
	c-6.6,3.4-14.1,5.3-22,5.3c-6.4,0-12.4-1.2-18-3.5C287.6,985.8,287.1,985.6,286.6,985.4z"/>
</svg>
