<?xml version="1.0" encoding="utf-8"?>
<!-- Generator: Adobe Illustrator 16.0.0, SVG Export Plug-In . SVG Version: 6.00 Build 0)  -->
<!DOCTYPE svg PUBLIC "-//W3C//DTD SVG 1.1//EN" "http://www.w3.org/Graphics/SVG/1.1/DTD/svg11.dtd">
<svg version="1.1" xmlns="http://www.w3.org/2000/svg" xmlns:xlink="http://www.w3.org/1999/xlink" x="0px" y="0px" width="1400px"
	 height="1400px" viewBox="0 0 1400 1400" enable-background="new 0 0 1400 1400" xml:space="preserve">
<g id="Layer_1">
	<g>
		<linearGradient id="SVGID_1_" gradientUnits="userSpaceOnUse" x1="694.0327" y1="879.8867" x2="694.0327" y2="104.6753">
			<stop  offset="0" style="stop-color:#139CDA"/>
			<stop  offset="0.1549" style="stop-color:#118FCB"/>
			<stop  offset="0.4524" style="stop-color:#0C6BA4"/>
			<stop  offset="0.8589" style="stop-color:#043365"/>
			<stop  offset="1" style="stop-color:#011E4E"/>
		</linearGradient>
		<path fill-rule="evenodd" clip-rule="evenodd" fill="url(#SVGID_1_)" d="M904.931,233.288c3.467,1.894,6.365,3.476,8.981,4.904
			c3.315-1.557,3.446-4.608,4.698-6.918c7.047-13.004,17.145-22.604,31.237-27.452c13.01-4.475,25.67-3.774,38.395,2.167
			c22.106,10.322,31.889,28.067,33.069,51.586c0.988,19.695-6.481,35.575-21.497,48.101c-0.779,0.65-1.545,1.319-2.35,1.938
			c-1.615,1.237-1.863,2.758-0.75,4.377c2.301,3.345,4.643,6.663,7.066,9.917c1.589,2.129,2.633,2.192,5.081,0.515
			c1.394-0.954,2.726-2,4.063-3.032c20.16-15.559,55.364-10.955,67.689,20.927c6.527,16.888,5.059,33.888-5.885,49.238
			c-6.595,9.25-15.381,15.005-26.555,17.256c-2.927,0.591-6.112,0.1-8.76,1.829c-0.123,0.726-0.383,1.386-0.318,2.011
			c1.033,9.935-0.018,8.493,8.912,10.198c20.016,3.824,31.531,23.437,32.208,38.427c0.674,14.951-2.837,28.121-14.469,38.423
			c-8.558,7.579-18.329,11.254-29.787,10.277c-1.868-0.16-4.325-1.465-5.298,1.14c-1.013,2.707-2.924,5.602-0.393,8.565
			c0.439,0.515,0.85,1.054,1.268,1.587c6.937,8.846,8.521,19.098,7.017,29.793c-2.036,14.46-10.858,23.633-24.228,28.669
			c-1.838,0.693-4.018,0.958-5.977,0.763c-4.977-0.494-7.656,1.6-10.426,5.835c-3.041,4.651-2.54,8.163-0.852,12.958
			c3.835,10.883,2.521,21.452-4.937,30.614c-5.712,7.016-13.476,10.445-22.422,9.556c-5.214-0.519-8.058,1.412-10.743,5.362
			c-2.845,4.181-6.149,8.064-9.45,11.907c-1.153,1.343-2.054,2.592-2.179,4.375c-0.591,8.365-5.002,13.624-13.043,15.659
			c-0.178,3.294,2.557,3.97,4.264,5.362c9.918,8.087,14.265,18.448,13.718,31.223c-0.565,13.211-5.987,23.349-17.371,30.261
			c-1.657,1.007-3.872,1.451-4.658,3.613c0.021,0.314-0.082,0.73,0.075,0.888c10.465,10.459,14.027,23.622,14.691,37.85
			c0.299,6.419,0.254,12.855,0.262,19.287c0.03,21.668,0.018,43.337,0.006,65.006c-0.001,2.707-0.006,5.418-0.152,8.118
			c-0.102,1.885-1.142,3.1-3.118,3.322c-0.671,0.075-1.345,0.176-2.019,0.177c-14.219,0.009-28.438,0.055-42.658-0.024
			c-4.124-0.023-4.866-0.729-4.854-4.633c0.081-26.734-1.357-53.466-0.134-80.204c0.231-5.068,0.238-10.16,0.063-15.231
			c-0.408-11.711,3.144-21.96,10.823-30.801c0.86-0.991,1.576-2.106,2.291-3.072c-1.175-2.165-3.198-2.792-4.955-3.756
			c-16.839-9.232-24.806-34.32-11.57-54.085c1.499-2.241,3.238-4.321,4.827-6.505c0.479-0.659-0.923-2.884-1.777-3.072
			c-1.402-0.308-2.579,0.236-3.883,0.613c-4.969,1.44-10,1.689-14.908-0.293c-7.207-2.915-11.634-8.444-12.561-15.957
			c-0.542-4.396-2.443-6.673-6.114-8.276c-1.542-0.672-2.938-1.671-4.415-2.499c-2.28-1.278-4.429-1.429-6.413,0.643
			c-0.692,0.725-1.549,1.314-2.393,1.872c-17.553,11.628-37.698,0.315-42.176-17.562c-0.082-0.327-0.089-0.68-0.202-0.995
			c-1.004-2.786,0.826-6.688-2.179-8.456c-3.745-2.201-7.997-3.562-12.088-5.134c-1.346-0.516-2.646,0.197-3.617,1.216
			c-0.931,0.979-1.733,2.08-2.641,3.084c-14.01,15.511-43.782,17.413-56.523-11.074c-0.138-0.308-0.159-0.679-0.338-0.955
			c-1.457-2.261-0.428-6.038-2.987-7.194c-3.685-1.665-7.91-1.408-11.962-0.948c-1.438,0.162-2.351,1.119-3.075,2.344
			c-0.86,1.454-1.776,2.887-2.792,4.236c-18.739,24.884-55.723,21.804-69.945-5.903c-1.836-3.579-3.233-7.479-4.178-11.389
			c-0.734-3.036-1.922-4.679-5.087-5.312c-4.962-0.992-9.857-2.353-14.737-3.711c-3.557-0.991-6.424-0.684-9.061,2.393
			c-4.051,4.729-9.585,7.331-15.269,9.697c-20.63,8.592-42.765-1.516-52.222-15.768c-4.334-6.532-8.307-13.246-9.237-21.181
			c-0.379-3.221-1.949-4.767-4.765-5.706c-1.594-0.532-3.072-1.4-4.63-2.049c-8.595-3.581-7.331-4.366-15.479,1.007
			c-28.472,18.775-66.258,6.335-79.198-25.688c-3.754-9.29-4.998-18.857-4.162-28.823c0.814-9.72,0.67-9.736-6.444-16.603
			c-1.216-1.174-2.42-2.373-3.743-3.417c-1.092-0.863-2.353-1.229-3.725-0.395c-0.864,0.525-1.795,0.948-2.72,1.366
			c-40.238,18.238-77.415-9.067-84.795-43.308c-4.235-19.654-0.3-37.613,10.592-54.229c5.127-7.822,12.222-13.643,20.387-17.915
			c4.182-2.188,6.273-4.619,5.579-9.417c-0.577-3.995,0.166-8.401-1.267-11.99c-1.565-3.921-6.667-4.167-10.222-5.899
			c-24.692-12.023-36.131-42.047-32.129-65.794c0.841-4.99,1.816-9.947,3.583-14.752c10.053-27.33,38.484-41.544,59.241-39.687
			c12.729,1.139,24.464,4.99,34.369,13.452c1.231,1.052,2.48,2.799,4.285,1.89c1.757-0.885,3.321-2.295,4.708-3.728
			c1.039-1.07,0.437-2.588,0.041-3.839c-2.156-6.81-3.461-13.78-3.735-20.905c-1.027-26.833,13.591-52.056,36.842-62.66
			c16.627-7.584,47.112-6.325,63.325,10.811c6.139,6.488,11.638,13.195,15.088,21.404c1.195,2.845,2.969,3.364,5.559,2.768
			c1.317-0.303,2.655-0.593,3.907-1.082c2.805-1.094,6.472-0.167,8.506-2.714c1.992-2.497,0.777-5.869,1.012-8.84
			c1.853-23.581,12.086-42.034,33.109-53.685c21.734-12.044,48.97-7.964,67.468,9.939c9.984,9.664,16.891,21.141,19.163,35
			c1.029,6.278,2.126,7.128,8.625,7.276c1.015,0.022,2.036-0.038,3.045,0.048c1.998,0.172,3.184-0.772,3.713-2.609
			c0.561-1.95,0.918-3.966,1.59-5.874c6.251-17.75,18.161-30.354,36.102-35.779c32.453-9.813,58.668,11.26,66.787,34.693
			c2.667,7.701,4.505,15.556,4.074,23.85c-0.236,4.601,0.037,4.613,4.882,5.95c1.63,0.449,3.26,0.893,4.884,1.364
			c8.071,2.343,7.867,2.239,11.715-5.084c11.718-22.306,32.891-34.979,59.733-30.49c20.614,3.447,38.707,22.411,42.855,43.958
			C911.513,207.845,910.87,214.724,904.931,233.288z M862.951,645.797c1.541-1.486,2.911-2.969,4.443-4.256
			c6.188-5.201,13.243-6.931,20.806-3.907c7.512,3.003,11.523,9.096,12.832,16.993c0.675,4.076,0.563,8.203-0.917,12.023
			c-1.194,3.076,0.506,4.31,2.461,5.747c1.734,1.276,3.736,1.729,5.764,1.48c4.317-0.528,8.605-1.29,13.854-2.103
			c-6.242-8.67-7.75-17.066-0.865-24.755c6.12-6.836,13.693-6.107,21.18-1.556c4.402-4.185,7.284-8.966,10.439-13.49
			c-1.513-1.832-2.608-3.116-3.659-4.434c-6.121-7.682-7.592-16.516-5.86-25.889c2.921-15.824,17.416-25.803,32.93-22.819
			c2.633,0.506,5.191,1.517,7.695,2.519c1.154,0.463,1.95,0.105,2.765-0.437c2.18-1.45,2.825-4.6,1.159-6.123
			c-1.739-1.592-3.675-2.97-5.523-4.443c-16.489-13.133-18.756-42.373,2.534-58.134c7.665-5.675,16.27-8.092,25.851-5.691
			c2.278,0.57,4.621,0.929,6.957,1.19c1.025,0.116,1.83-0.583,2.211-1.65c0.391-1.091,0.064-1.99-0.736-2.682
			c-0.764-0.66-1.627-1.212-2.485-1.755c-11.336-7.179-16.81-17.711-19.28-30.747c-3.539-18.68,6.988-41.156,25.502-48.11
			c0.632-0.238,1.26-0.498,1.871-0.785c4.413-2.07,4.752-2.85,3.889-7.869c-0.781-4.531-2.174-8.109-7.313-9.821
			c-6.486-2.161-11.855-6.425-16.334-11.668c-13.395-15.683-15.515-33.439-8.549-52.241c1.824-4.924,1.447-8.135-1.713-11.733
			c-1.558-1.773-3.109-3.655-4.169-5.741c-3.298-6.49-7.716-10.007-15.229-6.628c-18.724,2.646-34.961-2.33-47.72-16.5
			c-11.033-12.255-17.036-26.672-16.425-43.457c0.073-1.989,0.997-4.407-0.761-5.786c-3.42-2.682-7.027-5.628-11.378-6.173
			c-3.248-0.407-4.739,3.376-7.043,5.25c-0.785,0.638-1.433,1.44-2.188,2.118c-23.472,21.068-57.517,14.758-73.985-4.226
			c-10.141-11.688-15.647-25.15-15.408-40.81c0.04-2.576,1.256-5.342-0.783-7.944c-5.696-1.583-11.521-3.204-17.73-4.93
			c-3.663,6.052-5.865,12.534-9.971,17.91c-4.144,5.427-8.827,10.226-14.688,13.839c-5.853,3.609-12.215,5.832-18.942,6.89
			c-6.723,1.057-13.531,1.075-20.219-0.221c-10.244-1.984-19.063-6.799-26.298-14.35c-11.464-11.964-17.415-26.266-17.306-43.025
			c-4.643,0-8.658,0-12.979,0c-0.948,14.164-7.022,26.097-15.827,36.715c-12.332,14.873-28.86,21.575-47.589,20.613
			c-24.082-1.236-40.708-14.628-51.339-35.953c-1.612-3.23-1.053-8.48-4.951-9.373c-3.264-0.748-7.156,1.246-10.768,2.034
			c-0.328,0.072-0.646,0.195-0.962,0.311c-1.732,0.634-2.795,1.696-2.727,3.72c0.093,2.704-0.052,5.419,0.075,8.122
			c0.731,15.604-4.449,29.094-14.028,41.269c-15.385,19.556-35.46,25.975-59.46,21.992c-5.079-0.843-9.736-2.767-14.063-5.546
			c-8.294-5.325-16.104-11.193-21.682-19.554c-1.136,0.752-2.009,1.27-2.815,1.877c-2.098,1.58-3.341,3.37-1.39,5.939
			c0.61,0.805,1.092,1.711,1.597,2.592c14.619,25.518,11.199,49.962-4.794,73.386c-5.628,8.243-13.428,14.13-22.723,18.11
			c-7.941,3.401-16.288,4.301-24.708,5.034c-5.203,0.452-5.258,0.376-5.313,4.833c-0.117,9.601-0.085,8.08,8.157,8.128
			c2.366,0.013,4.733-0.076,7.099-0.035c12.997,0.228,24.567,4.469,34.412,12.918c19.364,16.618,26.39,37.823,22.642,62.798
			c-2.021,13.468-7.998,25.044-17.435,34.819c-1.744,1.808-1.917,3.453-0.204,5.219c1.55,1.6,2.687,3.993,5.819,3.26
			c3.367-5.345,7.052-10.565,11.628-15.164c25.721-25.835,65.004-14.95,79.563,6.134c13.775,19.948,16.257,41.066,6.268,63.371
			c-1.229,2.745-2.757,5.356-4.16,8.054c2.555,2.201,5.078,3.546,8.659,3.777c1.997-6.8,5.249-13.059,8.995-19.058
			c3.645-5.836,8.379-10.586,14.383-14.029c25.015-14.343,56.719-2.847,66.166,26.727c3.365,10.535,3.201,21.306,0.044,32
			c-0.513,1.739-2.505,3.424-0.374,6.009c4.845,0.54,9.73,3.271,15.639,2.735c0.935-2.778,1.819-5.65,2.866-8.462
			c2.756-7.408,6.739-14.043,12.935-19.094c20.674-16.851,55.853-12.14,66.606,21.652c1.769,5.556,1.89,11.299,1.69,17.082
			c-0.166,4.8-0.063,4.823,5.112,4.941c1.67,0.039,3.383,0.164,4.963-0.966c0.963-2.766,1.731-5.745,2.997-8.495
			c10.638-23.114,39.985-27.591,56.318-9.087c7.688,8.71,10.734,18.501,8.99,29.954c-0.626,4.115-0.286,4.617,3.456,6.138
			c2.772,1.127,5.41,3.43,8.531,2.725c2.798-0.632,3.629-3.824,5.43-5.792c7.778-8.504,17.229-12.017,28.371-8.517
			c11.178,3.512,18.393,11.175,20.372,22.973c0.606,3.615,0.861,7.565,0.047,11.076c-1.157,4.978,0.433,7.754,4.867,9.47
			C860.258,644.731,861.485,645.221,862.951,645.797z"/>
		<linearGradient id="SVGID_2_" gradientUnits="userSpaceOnUse" x1="696.1958" y1="1279.2451" x2="696.1958" y2="880.7549">
			<stop  offset="0" style="stop-color:#139CDA"/>
			<stop  offset="0.1549" style="stop-color:#118FCB"/>
			<stop  offset="0.4524" style="stop-color:#0C6BA4"/>
			<stop  offset="0.8589" style="stop-color:#043365"/>
			<stop  offset="1" style="stop-color:#011E4E"/>
		</linearGradient>
		<path fill-rule="evenodd" clip-rule="evenodd" fill="url(#SVGID_2_)" d="M972.869,1039.154c6.502,0,12.576,0.001,18.653-0.001
			c12.865-0.005,25.73,0.04,38.595-0.047c4.682-0.03,5.71-0.854,5.754-5.024c0.139-13.536,0.7-27.1-0.975-40.58
			c-1.317-10.614-4.897-20.313-12.211-28.451c-3.405-3.789-3.306-4.836,0.956-8.094c9.295-7.108,16.225-16.243,22.73-25.767
			c3.823-5.598,7.55-11.269,12.968-15.51c1.582-1.24,3.303-2.326,5.055-3.315c1.457-0.822,3.49,0.436,3.675,2.211
			c0.14,1.342,0.156,2.701,0.156,4.052c0.008,48.414,0.007,96.828,0,145.243c0,1.352-0.031,2.708-0.159,4.052
			c-0.189,1.983-1.443,2.923-3.348,3.063c-1.01,0.074-2.028,0.078-3.045,0.083c-2.706,0.012-5.416,0.008-8.125,0.008
			c-175.036,0-350.072,0.011-525.108-0.009c-38.256-0.006-76.512-0.173-114.769-0.144c-7.438,0.007-14.879,0.505-22.311,0.91
			c-5.45,0.299-10.659,1.752-15.708,3.8c-16.692,6.766-23.187,20.491-18.358,38.78c1.217,4.609,3.496,8.793,6.184,12.729
			c6.802,9.962,15.784,17.586,25.892,23.972c2.15,1.358,3.909,0.386,3.935-2.249c0.097-9.816,0.035-19.637,0.138-29.452
			c0.051-4.763,0.485-5.126,5.282-5.303c2.368-0.087,4.741-0.065,7.109-0.014c6.598,0.139,6.695,0.176,6.733,6.923
			c0.064,11.511-0.019,23.021,0.034,34.533c0.031,6.849-1.186,7.523,7.738,10.684c13.155,4.656,26.621,7.697,40.509,8.965
			c2.295,0.21,4.775-0.36,6.798,1.311c-4.291,12.928-5.479,10.684-15.007,10.347c-11.156-0.396-22.297-1.157-33.354-2.97
			c-6.355-1.042-6.639-0.68-6.667,5.192c-0.074,15.235-0.229,30.474,0.036,45.704c0.25,14.29,6.646,21.718,20.533,24.757
			c1.651,0.361,3.313,0.689,4.981,0.97c2.03,0.341,2.807,1.662,2.795,3.543c-0.111,16.565,2.617,17.218-15.595,12.99
			c-19.9-4.62-31.835-23.241-31.939-40.909c-0.083-14.22-0.018-28.439-0.019-42.658c0-2.032,0.025-4.064-0.003-6.094
			c-0.137-9.556,1.117-8.912-8.239-12.228c-11.211-3.976-21.682-9.448-31.228-16.645c-10.786-8.129-19.326-18.247-24.396-30.64
			c-7.875-19.248-7.791-38.209,4.818-55.951c11.807-16.61,28.349-25.626,47.688-30.387c9.645-2.375,19.44-2.418,29.265-2.392
			c11.491,0.031,12.689-0.229,12.078-1.855c-1.542-4.107-5.716-5.442-8.841-7.797c-39.149-29.48-63.928-68.309-75.597-115.721
			c-0.163-0.657-0.426-1.294-0.526-1.958c-1.991-13.043-4.318-9.37,6.354-17.363c5.418-4.058,10.922-7.997,16.388-11.989
			c1.348-0.984,2.641-2.121,4.542-1.556c1.199,7.279,2.092,14.675,3.664,21.922c13.893,64.017,69.273,120.656,137.859,133.863
			c12.008,2.313,24.202,2.766,36.412,2.386c3.961-0.123,5.077-1.021,5.066-4.687c-0.042-13.188,0.796-26.394-0.867-39.558
			c-1.433-11.342-4.878-21.715-12.866-30.278c-2.739-2.936-2.682-4.464,0.343-6.671c10.058-7.344,17.237-17.123,23.849-27.422
			c3.861-6.014,8.115-11.695,13.924-15.99c1.327-0.981,2.888-1.711,4.439-2.299c1.067-0.404,2.225,0.443,2.35,1.333
			c0.373,2.658,0.53,5.364,0.533,8.052c0.034,29.454,0.018,58.909,0.023,88.363c0,7.787-0.081,15.576,0.073,23.36
			c0.099,5.015,0.905,5.79,6.045,5.824c12.526,0.087,25.052,0.032,37.579-0.021c1.277-0.006,2.552-0.393,3.982-0.627
			c0.261-1.563,0.672-2.876,0.67-4.186c-0.014-11.511,0.22-23.034-0.252-34.528c-0.54-13.142-4.125-25.307-13.383-35.285
			c-2.736-2.949-2.665-4.312,0.472-6.623c10.016-7.38,17.2-17.141,23.843-27.428c2.936-4.546,5.975-9.048,10.057-12.704
			c2.524-2.26,5.063-4.533,8.449-5.405c1.498-0.385,2.818,0.308,2.952,1.843c0.264,3.026,0.263,6.081,0.264,9.124
			c0.015,34.871-0.012,69.741,0.021,104.615c0.012,12.35-1.114,11.256,11.628,11.266c42.319,0.025,84.64,0.016,126.96-0.001
			c3.652-0.002,7.304-0.153,11.521-0.249c0.581-14.148,1.203-27.602-3.036-40.755c-2.209-6.858-5.613-12.981-10.683-18.206
			c-2.21-2.276-2.059-4.02,0.569-5.947c10.602-7.773,18.064-18.19,25.042-29.058c3.496-5.442,7.514-10.455,12.701-14.393
			c1.309-0.994,2.836-1.855,4.399-2.309c1.21-0.353,2.916-0.163,3.066,1.637c0.251,3.025,0.315,6.072,0.318,9.111
			c0.021,29.455-0.019,58.909,0.049,88.365c0.008,3.673-0.732,7.452,1.154,11.614c8.835,0.363,17.935,0.239,27.033,0.06
			c2.393-0.048,3.771-1.425,3.824-3.8c0.293-13.199,0.857-26.448-1.982-39.454c-1.897-8.696-5.534-16.636-11.85-23.213
			c-2.639-2.748-2.48-4.315,0.684-6.646c9.738-7.169,16.773-16.623,23.235-26.622c3.68-5.696,7.536-11.269,12.958-15.516
			c1.327-1.039,2.684-2.063,4.115-2.949c2.042-1.264,4.353-0.254,4.484,1.999c0.16,2.699,0.121,5.413,0.122,8.12
			c0.007,31.824,0.006,63.649,0.003,95.474c0,14.122-0.663,12.856,12.448,12.651c6.284-0.097,12.723,1.471,18.876-1.11
			c1.67-5.98,0.626-12.09,0.799-18.137c0.153-5.411,0.031-10.834-0.092-16.249c-0.33-14.586-3.51-28.153-13.9-39.219
			c-2.227-2.37-2.127-4.088,0.436-5.948c10.644-7.729,18.09-18.157,25.069-29.021c3.497-5.442,7.493-10.472,12.705-14.386
			c1.318-0.99,2.853-1.804,4.411-2.33c1.385-0.467,2.914,0.164,3.104,1.69c0.334,2.667,0.307,5.387,0.308,8.085
			c0.017,34.872-0.012,69.743,0.043,104.615C971.747,1030.729,971.123,1034.491,972.869,1039.154z"/>
		<linearGradient id="SVGID_3_" gradientUnits="userSpaceOnUse" x1="813.0371" y1="1277.2754" x2="813.0371" y2="1092.2041">
			<stop  offset="0" style="stop-color:#139CDA"/>
			<stop  offset="0.1549" style="stop-color:#118FCB"/>
			<stop  offset="0.4524" style="stop-color:#0C6BA4"/>
			<stop  offset="0.8589" style="stop-color:#043365"/>
			<stop  offset="1" style="stop-color:#011E4E"/>
		</linearGradient>
		<path fill-rule="evenodd" clip-rule="evenodd" fill="url(#SVGID_3_)" d="M744.108,1155.986
			c-0.001-17.582-0.002-35.163,0.002-52.746c0-2.367,0.019-4.733,0.04-7.1c0.024-2.336,0.943-3.878,3.528-3.888
			c3.381-0.013,6.765-0.104,10.142-0.001c3.964,0.119,4.479,0.705,4.62,4.898c0.08,2.364,0.032,4.733,0.032,7.1
			c0.003,16.567-0.014,33.135,0.033,49.702c0.005,1.589-0.742,3.712,0.837,4.647c2.43,1.44,3.464-1.266,4.775-2.467
			c12.146-11.122,26.878-15.127,42.839-15.622c34.553-1.073,60.392,21.288,68.053,48.741c8.01,28.704,0.513,53.585-22.177,73.112
			c-11.333,9.754-25.051,14.34-40.104,14.842c-11.301,0.379-22.337-0.694-32.609-5.71c-24.861-12.138-39.158-31.623-39.914-59.724
			C743.704,1193.189,744.109,1174.582,744.108,1155.986z M762.46,1208.297c-1.707,26.23,21.646,49.936,49.719,50.632
			c23.766,0.589,51.353-19.865,51.428-49.348c0.07-27.694-22.15-49.439-50.114-50.471
			C788.417,1158.186,761.132,1180.783,762.46,1208.297z"/>
		<linearGradient id="SVGID_4_" gradientUnits="userSpaceOnUse" x1="556.0132" y1="1277.6934" x2="556.0132" y2="1140.5215">
			<stop  offset="0" style="stop-color:#139CDA"/>
			<stop  offset="0.1549" style="stop-color:#118FCB"/>
			<stop  offset="0.4524" style="stop-color:#0C6BA4"/>
			<stop  offset="0.8589" style="stop-color:#043365"/>
			<stop  offset="1" style="stop-color:#011E4E"/>
		</linearGradient>
		<path fill-rule="evenodd" clip-rule="evenodd" fill="url(#SVGID_4_)" d="M632.039,1277.175c-3.242,0-6.262,0-9.28-0.001
			c-10.528-0.006-10.396-0.113-15.086-9.829c-1.98-4.102-1.805-9.257-5.911-12.324c-4.175,1.72-6.709,5.524-10.258,8.061
			c-21.802,15.579-45.582,18.948-70.143,8.914c-22.886-9.351-36.809-27.376-40.523-51.926c-3.934-25.997,4.343-47.896,24.817-64.988
			c21.054-17.576,55.852-18.828,77.296-5.975c22.635,13.567,34.708,33.447,35.23,59.98c0.173,8.796,0.498,17.528,1.788,26.267
			c1.741,11.803,4.955,23.083,9.852,33.938C630.76,1271.377,632.584,1273.197,632.039,1277.175z M498.355,1208.277
			c-0.899,25.389,20.272,49.777,49.9,50.656c25.083,0.744,51.514-21.789,51.655-49.35c0.136-26.805-22.42-49.421-49.306-50.4
			C520.67,1158.093,497.732,1183.17,498.355,1208.277z"/>
		<linearGradient id="SVGID_5_" gradientUnits="userSpaceOnUse" x1="1030.3359" y1="1277.2568" x2="1030.3359" y2="1092.0996">
			<stop  offset="0" style="stop-color:#139CDA"/>
			<stop  offset="0.1549" style="stop-color:#118FCB"/>
			<stop  offset="0.4524" style="stop-color:#0C6BA4"/>
			<stop  offset="0.8589" style="stop-color:#043365"/>
			<stop  offset="1" style="stop-color:#011E4E"/>
		</linearGradient>
		<path fill-rule="evenodd" clip-rule="evenodd" fill="url(#SVGID_5_)" d="M1005.857,1092.713c0,5.987,0,11.382,0,16.776
			c0,5.755-0.031,11.511,0.01,17.266c0.037,5.313-0.225,10.65,0.213,15.578c3.432,1.41,5.299-0.651,7.383-1.459
			c9.857-3.82,19.876-3.93,29.928-1.347c15.848,4.071,28.962,20.563,29.887,37.238c0.111,2.025,0.035,4.061,0.035,6.092
			c0.002,27.761,0.007,55.521-0.006,83.28c-0.001,2.704-0.061,5.412-0.181,8.114c-0.067,1.516-0.94,2.544-2.474,2.681
			c-5.036,0.448-10.059,0.314-14.817,0.022c-1.427-3.962-0.905-7.379-0.912-10.737c-0.042-26.745-0.018-53.488-0.03-80.232
			c0-2.706,0.14-5.444-0.209-8.112c-1.374-10.507-8.867-18.536-19.421-20.907c-12.417-2.79-20.759,3.243-26.21,11.142
			c-2.776,4.023-3.253,8.766-3.229,13.614c0.087,16.926,0.033,33.854,0.033,50.779c0,11.85,0.009,23.698-0.009,35.548
			c-0.002,2.026-0.067,4.058-0.188,6.082c-0.088,1.501-0.934,2.649-2.429,2.751c-5.004,0.341-10.03,0.755-14.802-0.292
			c-1.505-2.886-1.021-5.643-1.022-8.314c-0.027-55.859-0.021-111.717-0.019-167.576c0-1.691,0.039-3.385,0.05-5.075
			c0.014-1.927,0.769-3.341,2.856-3.375C995.309,1092.167,1000.355,1091.778,1005.857,1092.713z"/>
		<linearGradient id="SVGID_6_" gradientUnits="userSpaceOnUse" x1="681.5723" y1="1277.1582" x2="681.5723" y2="1140.6328">
			<stop  offset="0" style="stop-color:#139CDA"/>
			<stop  offset="0.1549" style="stop-color:#118FCB"/>
			<stop  offset="0.4524" style="stop-color:#0C6BA4"/>
			<stop  offset="0.8589" style="stop-color:#043365"/>
			<stop  offset="1" style="stop-color:#011E4E"/>
		</linearGradient>
		<path fill-rule="evenodd" clip-rule="evenodd" fill="url(#SVGID_6_)" d="M665.256,1259.693c3.749-0.844,6.767-1.295,9.637-2.213
			c8.218-2.63,12.54-8.992,12.271-17.657c-0.185-5.969-2.364-11.243-5.894-15.917c-3.463-4.586-7.038-9.113-10.873-13.389
			c-8.042-8.965-11.777-19.654-12.759-31.379c-1.534-18.297,11.309-34.502,29.717-37.785c2.324-0.415,4.705-0.536,7.065-0.705
			c1.932-0.138,3.321,0.606,3.349,2.756c0.051,4.06,0.052,8.121-0.008,12.182c-0.035,2.45-1.455,3.59-3.84,3.737
			c-1.348,0.086-2.729,0.141-4.025,0.479c-10.223,2.666-15.365,11.255-13.163,21.654c1.583,7.472,5.244,13.876,9.847,19.813
			c2.487,3.207,5.259,6.202,7.638,9.485c7.102,9.791,11.977,20.386,11.359,32.881c-0.946,19.156-17.408,34.318-36.421,33.491
			c-2.673-0.115-3.808-1.021-3.871-3.56C665.175,1269.185,665.256,1264.797,665.256,1259.693z"/>
		<linearGradient id="SVGID_7_" gradientUnits="userSpaceOnUse" x1="935.2832" y1="1277.1475" x2="935.2832" y2="1140.582">
			<stop  offset="0" style="stop-color:#139CDA"/>
			<stop  offset="0.1549" style="stop-color:#118FCB"/>
			<stop  offset="0.4524" style="stop-color:#0C6BA4"/>
			<stop  offset="0.8589" style="stop-color:#043365"/>
			<stop  offset="1" style="stop-color:#011E4E"/>
		</linearGradient>
		<path fill-rule="evenodd" clip-rule="evenodd" fill="url(#SVGID_7_)" d="M944.024,1209.18c0.002,18.928,0.007,37.855-0.005,56.783
			c-0.003,2.7-0.013,5.406-0.182,8.1c-0.122,1.947-1.358,2.943-3.309,2.995c-1.688,0.044-3.377,0.087-5.066,0.082
			c-8.677-0.023-8.933,0.781-8.925-8.802c0.036-39.545,0.014-79.091,0.022-118.637c0-2.025,0.054-4.053,0.171-6.074
			c0.117-2.037,1.42-2.873,3.317-2.955c1.351-0.055,2.702-0.095,4.054-0.089c10.606,0.058,9.911-0.884,9.919,9.785
			C944.035,1169.972,944.024,1189.577,944.024,1209.18z"/>
		<linearGradient id="SVGID_8_" gradientUnits="userSpaceOnUse" x1="1052.9229" y1="896.3291" x2="1052.9229" y2="864.5439">
			<stop  offset="0" style="stop-color:#139CDA"/>
			<stop  offset="0.1549" style="stop-color:#118FCB"/>
			<stop  offset="0.4524" style="stop-color:#0C6BA4"/>
			<stop  offset="0.8589" style="stop-color:#043365"/>
			<stop  offset="1" style="stop-color:#011E4E"/>
		</linearGradient>
		<path fill-rule="evenodd" clip-rule="evenodd" fill="url(#SVGID_8_)" d="M1069.119,880.373
			c0.033,8.674-7.439,16.049-16.165,15.955c-8.852-0.097-16.238-7.342-16.228-15.916c0.013-8.821,7.103-15.772,16.185-15.867
			C1061.74,864.453,1069.084,871.625,1069.119,880.373z"/>
		<linearGradient id="SVGID_9_" gradientUnits="userSpaceOnUse" x1="540.8052" y1="1118.4082" x2="540.8052" y2="1086.373">
			<stop  offset="0" style="stop-color:#139CDA"/>
			<stop  offset="0.1549" style="stop-color:#118FCB"/>
			<stop  offset="0.4524" style="stop-color:#0C6BA4"/>
			<stop  offset="0.8589" style="stop-color:#043365"/>
			<stop  offset="1" style="stop-color:#011E4E"/>
		</linearGradient>
		<path fill-rule="evenodd" clip-rule="evenodd" fill="url(#SVGID_9_)" d="M556.91,1101.93c0.299,8.516-7.297,16.378-15.919,16.478
			c-8.162,0.094-15.748-6.954-16.271-15.115c-0.544-8.492,6.79-16.534,15.417-16.905
			C548.819,1086.012,556.604,1093.226,556.91,1101.93z"/>
		<linearGradient id="SVGID_10_" gradientUnits="userSpaceOnUse" x1="645.0776" y1="1118.3838" x2="645.0776" y2="1086.375">
			<stop  offset="0" style="stop-color:#139CDA"/>
			<stop  offset="0.1549" style="stop-color:#118FCB"/>
			<stop  offset="0.4524" style="stop-color:#0C6BA4"/>
			<stop  offset="0.8589" style="stop-color:#043365"/>
			<stop  offset="1" style="stop-color:#011E4E"/>
		</linearGradient>
		<path fill-rule="evenodd" clip-rule="evenodd" fill="url(#SVGID_10_)" d="M645.062,1086.376
			c9.052,0.104,16.006,7.102,16.228,15.939c0.219,8.772-7.208,15.737-16.144,16.06c-8.574,0.31-16.273-7.38-16.285-15.977
			C628.849,1093.723,636.378,1086.278,645.062,1086.376z"/>
		<linearGradient id="SVGID_11_" gradientUnits="userSpaceOnUse" x1="1014.2559" y1="896.3281" x2="1014.2559" y2="864.5293">
			<stop  offset="0" style="stop-color:#139CDA"/>
			<stop  offset="0.1549" style="stop-color:#118FCB"/>
			<stop  offset="0.4524" style="stop-color:#0C6BA4"/>
			<stop  offset="0.8589" style="stop-color:#043365"/>
			<stop  offset="1" style="stop-color:#011E4E"/>
		</linearGradient>
		<path fill-rule="evenodd" clip-rule="evenodd" fill="url(#SVGID_11_)" d="M1014.094,896.328
			c-8.85-0.058-16.014-7.417-15.84-16.271c0.174-8.896,7.508-15.805,16.476-15.52c8.31,0.263,15.387,7.402,15.53,15.667
			C1030.408,888.744,1022.746,896.386,1014.094,896.328z"/>
		<linearGradient id="SVGID_12_" gradientUnits="userSpaceOnUse" x1="579.6064" y1="1118.4121" x2="579.6064" y2="1086.3682">
			<stop  offset="0" style="stop-color:#139CDA"/>
			<stop  offset="0.1549" style="stop-color:#118FCB"/>
			<stop  offset="0.4524" style="stop-color:#0C6BA4"/>
			<stop  offset="0.8589" style="stop-color:#043365"/>
			<stop  offset="1" style="stop-color:#011E4E"/>
		</linearGradient>
		<path fill-rule="evenodd" clip-rule="evenodd" fill="url(#SVGID_12_)" d="M578.987,1118.408
			c-8.739-0.198-15.833-7.73-15.587-16.551c0.244-8.784,7.833-15.863,16.589-15.474c8.865,0.395,16.125,7.954,15.82,16.474
			C595.506,1111.329,587.636,1118.604,578.987,1118.408z"/>
		<linearGradient id="SVGID_13_" gradientUnits="userSpaceOnUse" x1="935.251" y1="1112.9375" x2="935.251" y2="1092.2002">
			<stop  offset="0" style="stop-color:#139CDA"/>
			<stop  offset="0.1549" style="stop-color:#118FCB"/>
			<stop  offset="0.4524" style="stop-color:#0C6BA4"/>
			<stop  offset="0.8589" style="stop-color:#043365"/>
			<stop  offset="1" style="stop-color:#011E4E"/>
		</linearGradient>
		<path fill-rule="evenodd" clip-rule="evenodd" fill="url(#SVGID_13_)" d="M945.313,1102.443
			c-0.003,7.231-3.406,10.654-10.431,10.488c-6.42-0.151-9.604-3.531-9.69-10.285c-0.09-7.084,3.45-10.605,10.495-10.44
			C942.206,1092.358,945.314,1095.665,945.313,1102.443z"/>
	</g>
</g>
<g id="Layer_2">
</g>
</svg>
